<svg xmlns="http://www.w3.org/2000/svg" width="40" height="40" viewBox="0 0 40 40">
    <path fill="#1C9E3B" fill-rule="evenodd" d="M30.368 23.223c-1.43-2.836-3.834-5.044-6.758-6.207 2.716-2.28 3.73-6.043 2.535-9.408C24.951 4.243 21.805 2 18.28 2c-3.525 0-6.672 2.243-7.866 5.608-1.195 3.365-.18 7.128 2.535 9.408C8.267 18.762 5.114 23.235 5 28.293c0 2.684 0 5.229 2.35 6.416 1.742.889 4.516.889 10.122.889H23.207c2.144 2.351 5.525 3.058 8.41 1.757 2.886-1.3 4.636-4.32 4.353-7.51-.282-3.19-2.535-5.844-5.602-6.602v-.02zM12.869 10.53c0-3.031 2.422-5.489 5.41-5.489s5.41 2.458 5.41 5.489c0 3.031-2.422 5.489-5.41 5.489-2.986-.006-5.405-2.46-5.41-5.489zm8.36 19.958c.002.713.104 1.423.306 2.106h-4.063c-4.8 0-7.682 0-8.803-.569-.541-.28-.718-.858-.718-3.742 0-5.11 4.633-9.27 10.328-9.27 3.37-.055 6.568 1.5 8.636 4.2-3.327.796-5.68 3.807-5.685 7.275zm10.82.998h-2.458v2.495h-1.967v-2.495h-2.46V29.49h2.46v-2.494h1.967v2.494h2.459v1.996z"/>
</svg>
