<svg xmlns="http://www.w3.org/2000/svg" width="40" height="40" viewBox="0 0 40 40">
    <path fill="#1C9E3B" fill-rule="evenodd" d="M20 2c9.941 0 18 8.059 18 18 0 4.774-1.896 9.352-5.272 12.728C29.352 36.104 24.774 38 20 38c-9.941 0-18-8.059-18-18S10.059 2 20 2zm0 3C11.716 5 5 11.716 5 20c0 8.284 6.716 15 15 15 8.284 0 15-6.716 15-15 0-3.978-1.58-7.794-4.393-10.607C27.794 6.58 23.978 5 20 5zm1.17 22v2h-2v-2h2zm-.888-15c.74 0 1.411.106 2.016.318.605.212 1.128.519 1.568.92.44.4.782.892 1.026 1.473.243.582.365 1.25.365 2.004 0 .487-.059.924-.177 1.309-.118.385-.271.734-.46 1.049-.188.314-.404.605-.648.872s-.491.527-.743.778c-.251.236-.499.476-.742.72-.244.243-.464.502-.66.777-.197.275-.354.574-.472.896-.118.322-.177.688-.177 1.096v.92h-2.004v-1.108c.032-.66.154-1.222.366-1.686.212-.464.471-.876.778-1.238.204-.24.415-.47.634-.686l.332-.316c.338-.306.653-.628.943-.966.291-.338.523-.711.696-1.12.173-.409.244-.904.212-1.485-.063-.865-.342-1.54-.837-2.028-.495-.487-1.167-.73-2.016-.73-.565 0-1.053.101-1.461.306-.409.204-.75.48-1.026.825-.275.346-.475.754-.601 1.226-.126.471-.189.982-.189 1.532h-2.004c-.015-.801.099-1.548.342-2.24.244-.691.594-1.292 1.05-1.803.455-.51 1.013-.908 1.673-1.19.66-.284 1.4-.425 2.216-.425z"/>
</svg>
