<svg xmlns="http://www.w3.org/2000/svg" width="130" height="28" viewBox="0 0 130 28">
    <g fill="#163D9A" fill-rule="evenodd">
        <path d="M63.184 1.143c4.096.036 8.193.018 12.29.054 1.505.014 2.723.843 3.793 2.026.69.762 1.014 1.735 1.21 2.77.134.71.275 1.451.24 2.166-.085 1.687-.504 3.23-1.771 4.283-.411.34-.37.594.062.942 1.388 1.118 2.249 2.602 2.273 4.628.012.953.041 1.912-.025 2.86-.067.965-.465 1.805-.904 2.625-.69 1.29-1.731 2.076-2.841 2.74-.498.297-1.081.42-1.638.557-.696.172-1.404.385-2.109.393-3.605.039-7.21.018-10.815.016-.107 0-.214-.022-.41-.044v-.739c0-8.162.005-16.324-.012-24.486-.001-.601.118-.795.657-.79zm7.989 15.18c-.263 0-.49.006-.7.009h-.204c-.132 0-.26-.005-.386-.016-.468-.042-.655.158-.647.718.021 1.44.023 2.882-.001 4.323-.01.547.182.712.615.68 1.118-.086 2.24-.112 3.353-.244.558-.065 1.073-.369 1.337-1.015.129-.315.19-.667.314-.986.292-.76.013-2.203-.546-2.706-.082-.074-.186-.118-.283-.167-.955-.491-1.954-.69-2.852-.596zm-1.93-10.088c0 1.52.013 2.956-.008 4.393-.006.448.128.596.5.588.854-.018 1.71-.003 2.564-.003l.14-.002c1.104-.025 2.027-.382 2.279-2.015.226-1.467-.35-2.739-1.638-2.923-.309-.044-.619-.068-.932-.08l-.471-.01c-.79-.002-1.598.052-2.434.052zM25.658 1.145c3.715.038 7.432.01 11.147.077 1.104.02 2.16.445 3.131 1.096.356.238.757.395 1.087.67 1.206 1.007 2.15 2.25 2.448 4.012.186 1.095.459 2.192.487 3.295.023.873-.212 1.776-.435 2.63-.189.724-.43 1.478-.816 2.072-.514.794-1.138 1.522-1.81 2.134-.566.515-.64.52-.155 1.145.711.915 1.172 2.002 1.64 3.099.647 1.52 1.39 2.983 2.072 4.484.178.393.277.835.441 1.346h-1.773c-1.566 0-3.135-.051-4.699.025-.616.03-.904-.292-1.134-.823-.677-1.562-1.369-3.116-2-4.703-.248-.626-.46-1.221-.92-1.711-.76-.812-1.637-.712-2.596-.64-.01.23-.027.454-.027.678-.002 2.163-.013 4.327.008 6.49.004.508-.096.704-.57.697-1.858-.031-3.717-.012-5.575-.014-.16 0-.321-.018-.536-.031-.01-.253-.028-.477-.028-.702-.001-8.187.003-16.375-.011-24.562-.001-.563.105-.77.624-.764zm6.694 6.121c-.49-.042-.634.214-.614.75.028.76.007 1.523.007 2.285 0 .47.005.94.005 1.41 0 .334-.002.668-.01 1.002-.01.442.101.667.52.652.405-.015.815.018 1.22.025l.304-.002c.202-.006.401-.024.598-.063.705-.138 1.438-.39 2.047-.811.878-.607.908-1.7.87-2.79-.033-.902-.719-2.088-1.66-2.202-1.09-.134-2.191-.162-3.287-.256zM105.828 21.821c-.079.67-.146 1.243-.215 1.817-.01.083-.037.164-.047.248-.112.974-.212 1.952-.346 2.922-.02.15-.183.365-.305.39-.742.16-1.493.268-2.24.402-.404.073-.813.267-1.207.231-1.279-.116-2.523-.377-3.425-1.624-.093-.13-.39-.185-.537-.115-.743.355-1.466.766-2.198 1.15-1.452.762-2.994.665-4.526.616-1.145-.037-2.165-.549-3.168-1.16-1.292-.787-2.056-2.074-2.537-3.589-.572-1.8-.534-3.729-.291-5.553.254-1.916.564-3.819.726-5.755.107-1.284.348-2.553.53-3.83.18-1.252.36-2.505.545-3.756.13-.883.256-1.767.423-2.64.03-.162.244-.395.375-.396 1.948-.023 3.897-.012 5.846-.006.05 0 .098.045.176.084-.144 1.177-.265 2.357-.438 3.528-.223 1.519-.495 3.028-.731 4.545-.093.594-.143 1.197-.217 1.795-.107.85-.207 1.7-.33 2.547-.159 1.107-.39 2.204-.49 3.318-.077.838-.158 1.669.141 2.543.277.808.62 1.481 1.273 1.805.732.364 1.492.536 2.347.315.69-.178 1.361-.303 1.97-.746.6-.436 1.058-.914 1.112-1.852.059-1.03.286-2.048.439-3.071.104-.704.224-1.405.304-2.112.103-.913.146-1.836.263-2.746.12-.928.298-1.846.452-2.768.014-.082.043-.162.053-.246.115-.993.214-1.99.346-2.98.107-.8.254-1.591.382-2.386.02-.125.037-.251.048-.378.098-1.21.097-1.211 1.174-1.211 1.548 0 3.097-.001 4.645.002.214 0 .427.025.766.046-.091.469-.166.864-.245 1.257-.026.123-.079.24-.092.365-.1.912-.168 1.83-.293 2.737-.125.9-.303 1.791-.458 2.686-.014.083-.037.165-.045.248-.084.96-.134 1.924-.256 2.876-.114.883-.304 1.753-.46 2.629-.009.041-.028.08-.033.121-.119.946-.23 1.892-.355 2.837-.128.971-.285 1.937-.396 2.91-.053.46-.09.944-.014 1.39.038.219.325.463.54.538.267.093.575.022 1.02.022M54.894 27.164H48.51c.084-.486.173-.919.232-1.357.16-1.195.305-2.393.464-3.589.085-.64.192-1.276.278-1.916.125-.919.237-1.84.36-2.76.122-.929.25-1.856.377-2.785.012-.083.03-.166.04-.25.112-1.035.193-2.077.345-3.104.218-1.475.498-2.937.731-4.409.101-.636.155-1.282.226-1.925.113-1.02.247-2.038.324-3.062.045-.6.242-.864.778-.858 1.712.022 3.424.018 5.135.001.39-.003.594.108.525.607-.153 1.09-.295 2.18-.448 3.27-.086.616-.196 1.229-.275 1.847-.13 1.033-.232 2.07-.368 3.103-.114.861-.266 1.715-.39 2.576-.095.658-.177 1.32-.255 1.981-.121 1.02-.212 2.046-.356 3.06-.12.856-.3 1.7-.453 2.55-.02.103-.048.205-.057.31-.086.982-.136 1.97-.261 2.946-.113.875-.317 1.735-.46 2.605-.062.369-.071.748-.108 1.159M13.503 27.205c-1.7 0-3.3.009-4.901-.005-.52-.005-1.207.147-1.508-.17-.264-.279-.114-1.114-.115-1.704-.004-5.557-.002-11.114-.003-16.67 0-1.113-.033-1.15-.98-1.15H.065C.043 7.3.012 7.14.012 6.98.008 5.24.024 3.5 0 1.762c-.006-.485.135-.613.532-.612 6.485.011 12.97.008 19.454.006.298 0 .522.01.517.493-.02 1.845-.009 3.69-.012 5.536 0 .08-.023.16-.047.32h-.646c-1.876 0-3.753.02-5.629-.012-.532-.01-.678.196-.676.8.016 6.024.01 12.047.01 18.071v.84zM129.113 1.463l-.702 6.263c-.707-.256-1.408-.524-2.117-.762-.429-.144-.864-.305-1.305-.35-1.437-.147-2.877-.333-4.316-.322-.663.005-1.376.319-1.974.693-1.033.648-.885 1.95.29 2.67.781.478 1.592.86 2.5 1 .69.105 1.353.478 2.022.75.418.17.822.388 1.24.562.94.39 1.654 1.169 2.303 1.982.404.507.644 1.223.87 1.886.497 1.464.392 3.036.204 4.507-.29 2.275-1.206 4.207-2.98 5.503-.93.68-1.936 1.018-2.953 1.404-2.509.954-5.087.578-7.64.57-.715-.002-1.43-.343-2.142-.55-.743-.216-1.483-.45-2.22-.692-.262-.086-.54-.197-.335-.639.042-.09.063-.199.076-.302.123-1.058.24-2.118.363-3.176.077-.661.143-1.326.257-1.98.036-.204.21-.375.3-.522 1.165.518 2.295 1.08 3.46 1.512.608.227 1.276.286 1.922.318 1.018.051 2.044.088 3.058-.007.685-.064 1.37-.312 2.026-.575.5-.2.93-1.171.887-1.748-.045-.603-.721-1.44-1.29-1.63-.815-.274-1.623-.58-2.439-.847-.755-.248-1.542-.388-2.27-.713-.951-.425-1.86-.908-2.623-1.812-1.143-1.354-1.458-2.942-1.462-4.726-.003-1.329.03-2.64.45-3.904.389-1.168 1-2.158 1.839-2.9.7-.62 1.471-1.188 2.284-1.565.854-.397 1.796-.532 2.697-.795 1.5-.437 3.03-.307 4.546-.241.918.04 1.83.337 2.741.541.805.18 1.604.392 2.433.597"/>
    </g>
</svg>
