<svg xmlns="http://www.w3.org/2000/svg" width="147" height="28" viewBox="0 0 147 28">
    <g fill="none" transform="translate(.2)">
        <g fill="#E6641E">
            <path d="M.788.72C.783.626.817.535.882.47c.066-.065.156-.099.248-.093h8.66c4.927 0 7.256 2.468 7.256 6.202.145 2.033-.912 3.964-2.704 4.934v.069c2 .958 3.228 3.026 3.114 5.242 0 4.625-2.909 6.853-8.01 6.853H1.13c-.093.005-.183-.03-.248-.095-.065-.066-.1-.157-.094-.25L.788.72zm8.899 9.355c1.154.094 2.263-.469 2.87-1.457.605-.988.605-2.233 0-3.22-.607-.989-1.716-1.552-2.87-1.458H5.034c-.057-.008-.114.011-.154.052-.04.04-.06.098-.052.155v5.727c-.008.057.011.114.052.155.04.04.097.06.154.051l4.653-.005zm-4.653 10.04h4.859c1.222.105 2.4-.488 3.044-1.534.644-1.045.644-2.365 0-3.41-.644-1.047-1.822-1.64-3.044-1.534H5.034c-.056-.008-.113.011-.154.051-.04.04-.06.098-.052.154v6.066c-.008.056.011.113.05.154.04.04.097.06.154.052h.002zM35.247 23.677c-.23.02-.442-.123-.508-.344l-4.45-9.08h-4.004c-.057-.007-.114.012-.154.052-.04.04-.06.098-.051.154v8.874c.006.093-.028.183-.093.249-.066.066-.156.1-.249.095h-3.355c-.092.005-.183-.03-.248-.095-.065-.066-.1-.157-.094-.25V.72c-.005-.092.029-.183.094-.248.066-.066.156-.1.248-.094h9c4.28 0 7.427 2.844 7.427 6.955.068 2.867-1.713 5.453-4.415 6.407l4.895 9.492c.068.086.078.205.026.301-.053.097-.157.153-.267.143l-3.802.002zm-.445-16.344c.025-.931-.35-1.83-1.031-2.465-.681-.636-1.602-.949-2.528-.859h-4.958c-.057-.008-.114.012-.154.052-.04.04-.06.098-.051.154v6.202c-.008.057.01.114.051.154.04.04.097.06.154.051h4.958c.92.092 1.837-.216 2.517-.845.68-.628 1.06-1.518 1.042-2.445v.001zM43.575.72c-.006-.094.029-.184.095-.25.065-.065.156-.1.248-.093h3.354c.092-.006.183.028.248.094.065.065.1.156.094.248v22.614c.006.093-.028.183-.094.249-.065.066-.155.1-.248.095h-3.354c-.092.005-.183-.03-.249-.095-.065-.066-.1-.156-.094-.25V.72zM53.049.72c-.006-.093.028-.184.094-.25.065-.065.155-.099.248-.093h8.317c4.005 0 6.675 1.782 7.77 5.175.38 1.164.58 2.432.58 6.475 0 4.044-.206 5.311-.58 6.476-1.095 3.393-3.765 5.174-7.77 5.174H53.39c-.092.005-.182-.03-.248-.095-.065-.066-.1-.157-.094-.25L53.05.72zm4.243 19.33h3.458c2.567 0 4.14-.856 4.83-2.945.408-1.657.547-3.37.413-5.071.137-1.702-.002-3.414-.412-5.07-.684-2.092-2.258-2.95-4.831-2.95h-3.458c-.057-.007-.114.012-.154.052-.04.04-.06.098-.052.154v15.626c-.008.056.012.113.052.153.04.04.098.06.154.052zM74.215 12.026c0-3.665.136-4.964.615-6.407C76.028 1.92 79.04 0 83.147 0c4.346 0 7.153 2.33 8.11 4.933.08.172.023.376-.135.48l-2.875 1.273c-.17.064-.361-.01-.445-.172-.839-1.82-2.689-2.955-4.69-2.88-1.998-.15-3.828 1.126-4.38 3.055-.548 3.543-.548 7.149 0 10.691.552 1.93 2.382 3.205 4.38 3.055 1.957.127 3.76-1.062 4.416-2.912.286-.979.415-1.997.381-3.016.009-.057-.01-.114-.051-.155-.04-.04-.098-.059-.155-.05H83.87c-.092.005-.182-.029-.248-.094-.065-.066-.1-.156-.094-.249v-2.755c-.006-.093.028-.183.094-.249.065-.065.156-.1.248-.094h7.702c.092-.005.182.03.247.095.066.065.1.156.093.248v2.02c.048 1.72-.136 3.437-.548 5.106-1.087 3.58-4.483 5.947-8.213 5.727-4.106 0-7.12-1.92-8.317-5.62-.483-1.442-.619-2.74-.619-6.411zM96.612.72c-.005-.093.029-.184.094-.25.066-.065.156-.099.248-.093h14.58c.093-.006.183.028.248.094.066.065.1.156.094.248v2.948c.006.092-.028.182-.094.248-.065.065-.155.099-.248.093h-10.678c-.057-.008-.114.011-.154.052-.04.04-.06.097-.052.154v5.69c-.009.056.01.113.051.154.04.04.098.059.155.05h9c.093-.006.184.029.25.094.065.066.1.157.094.25v2.946c.005.093-.03.183-.095.249-.066.065-.156.1-.249.093h-9c-.057-.008-.114.011-.155.052-.04.04-.06.098-.051.155v5.892c-.009.057.01.114.051.155.04.04.098.059.155.05h10.678c.093-.005.183.029.249.095.065.065.1.156.093.249v2.945c.006.093-.028.183-.093.249-.066.066-.156.1-.249.095h-14.58c-.092.005-.182-.03-.248-.095-.065-.066-.1-.157-.094-.25V.72z" transform="translate(33.537 2.17)"/>
        </g>
        <ellipse cx="13.984" cy="14" fill="#E6641E" rx="13.984" ry="14"/>
        <g fill="#FFF" stroke="#FFF" stroke-width=".3">
            <path d="M12.962 9.195H4.456c-.098 0-.188-.052-.237-.137-.049-.084-.049-.189 0-.274l4.253-7.381c.049-.085.139-.137.236-.137.098 0 .188.052.237.137l4.253 7.381c.05.085.05.19 0 .274-.048.085-.138.137-.236.137h0zm-8.033-.547h7.559l-3.78-6.554-3.78 6.554z" transform="translate(3.144 8.765)"/>
            <path d="M12.958 9.195h0c-.098 0-.188-.052-.236-.137L8.469 1.676c-.049-.084-.05-.189 0-.274.048-.085.139-.137.237-.137h8.507c.098 0 .188.052.237.137.049.085.049.19 0 .274l-4.256 7.382c-.048.085-.138.137-.236.137zm-3.78-7.381l3.78 6.554 3.78-6.554h-7.56z" transform="translate(3.144 8.765)"/>
            <path d="M21.486 9.195H12.98c-.098 0-.189-.052-.237-.137-.05-.084-.049-.189 0-.274l4.253-7.381c.048-.085.139-.138.237-.138.098 0 .188.053.237.138l4.252 7.381c.05.085.05.19 0 .274-.048.085-.139.137-.236.137h0zm-8.032-.547h7.559l-3.78-6.554-3.78 6.554zM8.78 9.195H.276c-.098 0-.189-.052-.237-.137-.05-.084-.049-.189 0-.274l4.254-7.381c.049-.085.139-.137.236-.137.098 0 .188.052.237.137l4.253 7.381c.05.085.05.19 0 .274-.048.085-.138.137-.236.137H8.78zM.749 8.648h7.558L4.527 2.094.747 8.648z" transform="translate(3.144 8.765)"/>
            <path d="M8.782 9.195c-.098 0-.188-.052-.237-.137L4.292 1.676c-.05-.084-.05-.189 0-.274.048-.085.138-.137.236-.137h8.508c.097 0 .188.052.237.137.048.085.048.19-.001.274L9.018 9.058c-.048.085-.138.137-.236.137zm-3.78-7.381l3.78 6.554 3.78-6.554h-7.56z" transform="translate(3.144 8.765)"/>
            <path d="M17.294 9.195H8.788c-.098 0-.188-.052-.237-.137-.049-.084-.048-.189 0-.274l4.254-7.381c.05-.085.14-.138.237-.138h0c.098 0 .188.053.236.138l4.253 7.381c.049.085.05.19 0 .274-.049.085-.139.137-.237.137h0zm-8.033-.547h7.56l-3.78-6.554-3.78 6.554z" transform="translate(3.144 8.765)"/>
        </g>
    </g>
</svg>
