<svg width="1440" height="521" viewBox="0 0 1440 521" fill="none" xmlns="http://www.w3.org/2000/svg">
<g opacity="0.8" filter="url(#filter0_d_5455_29142)">
<rect x="790" y="386" width="48" height="182" rx="24" transform="rotate(49.9698 790 386)" fill="#1D9141"/>
</g>
<g filter="url(#filter1_d_5455_29142)">
<path d="M-402 423.389C-287.659 422.596 -226.252 444.564 -142.267 498.414C-36.9573 365.335 -216.874 620.629 -105.867 517.369C-194.436 652.511 -2.36328 403.562 -105.867 517.369C-47.0298 568.206 -10.6992 587.161 56.7521 682.727C244.449 532.279 364.069 313.229 415.474 25.578C427.352 -53.651 397.343 -96.1604 325.446 -102.029C-345.872 -50.8753 -398.874 418.154 -402 423.389Z" fill="#007E47"/>
</g>
<path d="M1445.08 -1.31317H1445.08C1445.08 -1.31317 1445.08 -1.31318 1445.08 250.189C1286.57 250.189 1202 201.345 1122 -1.3131C1215.06 0.874332 1399.4 -1.74824 1445.08 -1.31317Z" fill="#007E47"/>
<g filter="url(#filter2_d_5455_29142)">
<path d="M550.5 520L0 521V0H116.498C570.5 141.5 546.593 513.455 550.5 520Z" fill="#1D9141"/>
</g>
<g opacity="0.2" filter="url(#filter3_d_5455_29142)">
<path d="M-2.51396 157.515C-7.20067 162.201 -14.7986 162.201 -19.4845 157.514C-25.3419 151.656 -25.341 142.158 -19.4826 136.301L55.831 61.0006C61.1036 55.729 69.6513 55.7298 74.9229 61.0023C80.1945 66.2749 80.1937 74.8226 74.9212 80.0942L-2.51396 157.515Z" fill="url(#paint0_linear_5455_29142)"/>
</g>
<rect opacity="0.4" x="1388" y="423" width="21" height="207" rx="10.5" transform="rotate(-130.03 1388 423)" fill="#4AA767"/>
<circle opacity="0.4" cx="68.5" cy="67.5" r="16.5" fill="#4AA767"/>
<circle opacity="0.4" cx="1357.5" cy="435.5" r="16.5" fill="#4AA767"/>
<g opacity="0.2" filter="url(#filter4_d_5455_29142)">
<path d="M1305.41 -59.4231C1312.36 -65.2645 1322.74 -64.3626 1328.58 -57.4084C1335.88 -48.7157 1334.75 -35.7496 1326.06 -28.4477L1177.55 96.2957C1169.73 102.867 1158.06 101.853 1151.49 94.0292C1144.92 86.2058 1145.93 74.5363 1153.76 67.9646L1305.41 -59.4231Z" fill="url(#paint1_linear_5455_29142)"/>
</g>
<g opacity="0.2" filter="url(#filter5_d_5455_29142)">
<path d="M99.4263 328.412C106.922 322.11 118.107 323.08 124.406 330.578C132.304 339.981 131.049 354.014 121.608 361.866L-7.76197e-07 463L-2.61616e-06 412L99.4263 328.412Z" fill="url(#paint2_linear_5455_29142)"/>
</g>
<defs>
<filter id="filter0_d_5455_29142" x="650.455" y="385.813" width="170.605" height="154.189" filterUnits="userSpaceOnUse" color-interpolation-filters="sRGB">
<feFlood flood-opacity="0" result="BackgroundImageFix"/>
<feColorMatrix in="SourceAlpha" type="matrix" values="0 0 0 0 0 0 0 0 0 0 0 0 0 0 0 0 0 0 127 0" result="hardAlpha"/>
<feOffset/>
<feGaussianBlur stdDeviation="5"/>
<feComposite in2="hardAlpha" operator="out"/>
<feColorMatrix type="matrix" values="0 0 0 0 0.113725 0 0 0 0 0.568627 0 0 0 0 0.254902 0 0 0 0.25 0"/>
<feBlend mode="normal" in2="BackgroundImageFix" result="effect1_dropShadow_5455_29142"/>
<feBlend mode="normal" in="SourceGraphic" in2="effect1_dropShadow_5455_29142" result="shape"/>
</filter>
<filter id="filter1_d_5455_29142" x="-406" y="-106.029" width="828" height="792.756" filterUnits="userSpaceOnUse" color-interpolation-filters="sRGB">
<feFlood flood-opacity="0" result="BackgroundImageFix"/>
<feColorMatrix in="SourceAlpha" type="matrix" values="0 0 0 0 0 0 0 0 0 0 0 0 0 0 0 0 0 0 127 0" result="hardAlpha"/>
<feOffset/>
<feGaussianBlur stdDeviation="2"/>
<feComposite in2="hardAlpha" operator="out"/>
<feColorMatrix type="matrix" values="0 0 0 0 0 0 0 0 0 0.494118 0 0 0 0 0.278431 0 0 0 0.25 0"/>
<feBlend mode="normal" in2="BackgroundImageFix" result="effect1_dropShadow_5455_29142"/>
<feBlend mode="normal" in="SourceGraphic" in2="effect1_dropShadow_5455_29142" result="shape"/>
</filter>
<filter id="filter2_d_5455_29142" x="-4" y="0" width="558.5" height="529" filterUnits="userSpaceOnUse" color-interpolation-filters="sRGB">
<feFlood flood-opacity="0" result="BackgroundImageFix"/>
<feColorMatrix in="SourceAlpha" type="matrix" values="0 0 0 0 0 0 0 0 0 0 0 0 0 0 0 0 0 0 127 0" result="hardAlpha"/>
<feOffset dy="4"/>
<feGaussianBlur stdDeviation="2"/>
<feComposite in2="hardAlpha" operator="out"/>
<feColorMatrix type="matrix" values="0 0 0 0 0.113725 0 0 0 0 0.568627 0 0 0 0 0.254902 0 0 0 0.25 0"/>
<feBlend mode="normal" in2="BackgroundImageFix" result="effect1_dropShadow_5455_29142"/>
<feBlend mode="normal" in="SourceGraphic" in2="effect1_dropShadow_5455_29142" result="shape"/>
</filter>
<filter id="filter3_d_5455_29142" x="-33.877" y="47.0475" width="122.754" height="123.982" filterUnits="userSpaceOnUse" color-interpolation-filters="sRGB">
<feFlood flood-opacity="0" result="BackgroundImageFix"/>
<feColorMatrix in="SourceAlpha" type="matrix" values="0 0 0 0 0 0 0 0 0 0 0 0 0 0 0 0 0 0 127 0" result="hardAlpha"/>
<feOffset/>
<feGaussianBlur stdDeviation="5"/>
<feComposite in2="hardAlpha" operator="out"/>
<feColorMatrix type="matrix" values="0 0 0 0 0.560784 0 0 0 0 0.870588 0 0 0 0 0.160784 0 0 0 0.25 0"/>
<feBlend mode="normal" in2="BackgroundImageFix" result="effect1_dropShadow_5455_29142"/>
<feBlend mode="normal" in="SourceGraphic" in2="effect1_dropShadow_5455_29142" result="shape"/>
</filter>
<filter id="filter4_d_5455_29142" x="1137.15" y="-73.2762" width="206.238" height="183.907" filterUnits="userSpaceOnUse" color-interpolation-filters="sRGB">
<feFlood flood-opacity="0" result="BackgroundImageFix"/>
<feColorMatrix in="SourceAlpha" type="matrix" values="0 0 0 0 0 0 0 0 0 0 0 0 0 0 0 0 0 0 127 0" result="hardAlpha"/>
<feOffset/>
<feGaussianBlur stdDeviation="5"/>
<feComposite in2="hardAlpha" operator="out"/>
<feColorMatrix type="matrix" values="0 0 0 0 0.560784 0 0 0 0 0.870588 0 0 0 0 0.160784 0 0 0 0.25 0"/>
<feBlend mode="normal" in2="BackgroundImageFix" result="effect1_dropShadow_5455_29142"/>
<feBlend mode="normal" in="SourceGraphic" in2="effect1_dropShadow_5455_29142" result="shape"/>
</filter>
<filter id="filter5_d_5455_29142" x="-10" y="314.253" width="149.598" height="158.747" filterUnits="userSpaceOnUse" color-interpolation-filters="sRGB">
<feFlood flood-opacity="0" result="BackgroundImageFix"/>
<feColorMatrix in="SourceAlpha" type="matrix" values="0 0 0 0 0 0 0 0 0 0 0 0 0 0 0 0 0 0 127 0" result="hardAlpha"/>
<feOffset/>
<feGaussianBlur stdDeviation="5"/>
<feComposite in2="hardAlpha" operator="out"/>
<feColorMatrix type="matrix" values="0 0 0 0 0.560784 0 0 0 0 0.870588 0 0 0 0 0.160784 0 0 0 0.25 0"/>
<feBlend mode="normal" in2="BackgroundImageFix" result="effect1_dropShadow_5455_29142"/>
<feBlend mode="normal" in="SourceGraphic" in2="effect1_dropShadow_5455_29142" result="shape"/>
</filter>
<linearGradient id="paint0_linear_5455_29142" x1="-17.6088" y1="160.688" x2="52.7209" y2="89.1563" gradientUnits="userSpaceOnUse">
<stop stop-color="white"/>
<stop offset="0.5" stop-color="white"/>
<stop offset="1" stop-color="#1D9141"/>
</linearGradient>
<linearGradient id="paint1_linear_5455_29142" x1="1326.64" y1="-62.1734" x2="1195.28" y2="50.606" gradientUnits="userSpaceOnUse">
<stop stop-color="white"/>
<stop offset="0.5" stop-color="white"/>
<stop offset="1" stop-color="#1D9141"/>
</linearGradient>
<linearGradient id="paint2_linear_5455_29142" x1="122.37" y1="325.439" x2="-22.4931" y2="449.866" gradientUnits="userSpaceOnUse">
<stop stop-color="white"/>
<stop offset="0.5" stop-color="white"/>
<stop offset="1" stop-color="#1D9141"/>
</linearGradient>
</defs>
</svg>
