<svg width="17" height="17" viewBox="0 0 17 17" fill="none" xmlns="http://www.w3.org/2000/svg">
<circle cx="8.44727" cy="8.5" r="7.6" fill="white" stroke="#989898" stroke-width="0.8"/>
<path fill-rule="evenodd" clip-rule="evenodd" d="M5.2102 5.58961C4.92554 6.01894 4.7832 6.44228 4.7832 6.85961C4.7832 7.06294 4.8732 7.25161 5.0532 7.42561C5.2332 7.59961 5.45354 7.68628 5.7142 7.68561C6.15754 7.68561 6.45854 7.43694 6.6172 6.93961C6.7852 6.46428 6.99054 6.10428 7.2332 5.85961C7.47587 5.61561 7.85387 5.49361 8.3672 5.49361C8.80587 5.49361 9.1642 5.61461 9.4422 5.85661C9.71954 6.09928 9.8582 6.39661 9.8582 6.74861C9.85941 6.9252 9.81239 7.09878 9.7222 7.25061C9.62955 7.40475 9.51653 7.54569 9.3862 7.66961C9.17594 7.86216 8.95984 8.04825 8.7382 8.22761C8.3982 8.50961 8.12754 8.75294 7.9262 8.95761C7.7262 9.16294 7.5652 9.40061 7.4432 9.67061C7.1212 10.9156 8.7932 11.0156 9.1792 10.1266C9.22587 10.0413 9.29687 9.94661 9.3922 9.84261C9.4882 9.73928 9.61554 9.61928 9.7742 9.48261C10.1788 9.14564 10.5769 8.80091 10.9682 8.44861C11.1895 8.24461 11.3805 8.00128 11.5412 7.71861C11.7072 7.41767 11.7907 7.0782 11.7832 6.73461C11.7832 6.25994 11.6419 5.81994 11.3592 5.41461C11.0772 5.00861 10.6772 4.68794 10.1592 4.45261C9.6412 4.21728 9.04387 4.09961 8.3672 4.09961C7.6392 4.09961 7.0022 4.24061 6.4562 4.52261C5.9102 4.80461 5.49487 5.16094 5.2102 5.58961ZM7.3502 12.6696C7.3502 12.9348 7.45556 13.1892 7.6431 13.3767C7.83063 13.5643 8.08499 13.6696 8.3502 13.6696C8.61542 13.6696 8.86977 13.5643 9.05731 13.3767C9.24485 13.1892 9.3502 12.9348 9.3502 12.6696C9.3502 12.4044 9.24485 12.15 9.05731 11.9625C8.86977 11.775 8.61542 11.6696 8.3502 11.6696C8.08499 11.6696 7.83063 11.775 7.6431 11.9625C7.45556 12.15 7.3502 12.4044 7.3502 12.6696Z" fill="#989898"/>
</svg>
