<svg width="100" height="101" viewBox="0 0 100 101" fill="none" xmlns="http://www.w3.org/2000/svg">
<path fill-rule="evenodd" clip-rule="evenodd" d="M90.5933 100.611C89.1396 100.872 87.6653 101.002 86.1883 101C81.5195 101.01 76.9434 99.702 72.9916 97.2266C70.1409 97.894 67.1576 98.2497 64.0895 98.2497C44.4879 98.2497 28.1791 83.6918 28.1791 65.2469C28.1791 46.802 44.4879 32.2441 64.0895 32.2441C83.6911 32.2441 100 46.802 100 65.2469C100 74.0807 96.2248 82.0674 90.1513 87.9529C89.2968 88.7816 89.1311 89.5223 89.2158 89.944C89.671 92.2251 90.7028 94.353 92.2139 96.1266C92.5276 96.4953 92.7382 96.9397 92.8244 97.4153C92.9107 97.8908 92.8696 98.3805 92.7053 98.8352C92.541 99.2899 92.2593 99.6934 91.8885 100.005C91.5178 100.317 91.071 100.526 90.5933 100.611ZM77.9013 61.1216C79.0002 61.1216 80.0541 61.5562 80.8312 62.3299C81.6082 63.1035 82.0448 64.1528 82.0448 65.2469C82.0448 66.341 81.6082 67.3903 80.8312 68.164C80.0541 68.9377 79.0002 69.3723 77.9013 69.3723C76.8023 69.3723 75.7484 68.9377 74.9713 68.164C74.1943 67.3903 73.7577 66.341 73.7577 65.2469C73.7577 64.1528 74.1943 63.1035 74.9713 62.3299C75.7484 61.5562 76.8023 61.1216 77.9013 61.1216ZM68.2331 65.2469C68.2331 64.1528 67.7965 63.1035 67.0194 62.3299C66.2424 61.5562 65.1885 61.1216 64.0895 61.1216C62.9906 61.1216 61.9367 61.5562 61.1596 62.3299C60.3826 63.1035 59.946 64.1528 59.946 65.2469C59.946 66.341 60.3826 67.3903 61.1596 68.164C61.9367 68.9377 62.9906 69.3723 64.0895 69.3723C65.1885 69.3723 66.2424 68.9377 67.0194 68.164C67.7965 67.3903 68.2331 66.341 68.2331 65.2469ZM50.2778 61.1216C51.3768 61.1216 52.4307 61.5562 53.2077 62.3299C53.9848 63.1035 54.4213 64.1528 54.4213 65.2469C54.4213 66.341 53.9848 67.3903 53.2077 68.164C52.4307 68.9377 51.3768 69.3723 50.2778 69.3723C49.1789 69.3723 48.125 68.9377 47.3479 68.164C46.5709 67.3903 46.1343 66.341 46.1343 65.2469C46.1343 64.1528 46.5709 63.1035 47.3479 62.3299C48.125 61.5562 49.1789 61.1216 50.2778 61.1216Z" fill="#007E47"/>
<path d="M4.87591 25.7012C4.848 25.3811 4.88722 25.0587 4.99108 24.7545C5.09494 24.4503 5.26117 24.171 5.47923 23.9341C5.69729 23.6973 5.96242 23.5082 6.25779 23.3788C6.55315 23.2494 6.87231 23.1825 7.19501 23.1824H11.6411C12.2586 23.1824 12.8509 23.4267 13.2876 23.8614C13.7242 24.2962 13.9695 24.8858 13.9695 25.5006V47.5236C13.9695 48.1384 13.7242 48.728 13.2876 49.1628C12.8509 49.5975 12.2586 49.8418 11.6411 49.8418H9.11945C8.53668 49.8419 7.97504 49.6245 7.54546 49.2324C7.11588 48.8403 6.84959 48.3021 6.79918 47.7241L4.87591 25.7012ZM20.9548 24.7762C20.9548 23.8072 21.5602 22.9402 22.4391 22.5275C24.3589 21.6257 27.6292 19.8141 29.1042 17.3649C31.0054 14.2075 31.3639 8.50355 31.4221 7.19725C31.4303 7.01411 31.4256 6.83097 31.4501 6.65015C31.7656 4.38642 36.1535 7.03034 37.8358 9.82609C38.7496 11.3422 38.8661 13.3347 38.7706 14.8914C38.667 16.5558 38.1769 18.1635 37.696 19.7608L36.6715 23.165H49.3113C49.6711 23.165 50.0259 23.248 50.3481 23.4074C50.6702 23.5669 50.9508 23.7985 51.168 24.0841C51.3851 24.3697 51.5328 24.7014 51.5995 25.0534C51.6662 25.4054 51.6501 25.7679 51.5524 26.1126L45.3006 48.1541C45.1626 48.6402 44.8689 49.0682 44.4641 49.3728C44.0594 49.6775 43.5658 49.8421 43.0584 49.8418H23.2832C22.6656 49.8418 22.0734 49.5975 21.6367 49.1628C21.2001 48.728 20.9548 48.1384 20.9548 47.5236V24.7762Z" fill="#FF7000" stroke="#FF7000" stroke-width="4.06414" stroke-linecap="round" stroke-linejoin="round"/>
</svg>
