<svg width="152" height="117" viewBox="0 0 152 117" fill="none" xmlns="http://www.w3.org/2000/svg">
<g filter="url(#filter0_d_5776_2151)">
<rect x="11" y="24" width="130" height="81" fill="#E4E4E4" stroke="white" stroke-width="2" stroke-linejoin="round"/>
<path d="M64.7656 55H141.063" stroke="white" stroke-width="2" stroke-linejoin="round"/>
<path d="M64.7656 76L79.7443 92H118.595M118.595 92V23M118.595 92L131.234 105.5" stroke="white" stroke-width="2" stroke-linejoin="round"/>
<path d="M79.2734 92.5V105.5" stroke="white" stroke-width="2" stroke-linejoin="round"/>
<path d="M64.3004 23V76.1402H29.6621V106" stroke="white" stroke-width="2" stroke-linejoin="round"/>
<path d="M10.9336 71.5L42.2953 37.5M42.2953 37.5H141.529M42.2953 37.5H10.9336" stroke="white" stroke-width="2" stroke-linejoin="round"/>
<path d="M23.5742 24.5L28.7232 37" stroke="white" stroke-width="2" stroke-linejoin="round"/>
<path d="M45.5742 75.5L57.7444 105.5" stroke="white" stroke-width="2" stroke-linejoin="round"/>
</g>
<path fill-rule="evenodd" clip-rule="evenodd" d="M74.412 83.0442L74.4171 83.0492L74.4205 83.0526C74.6429 83.2204 74.9144 83.3113 75.1936 83.3113C75.4727 83.3113 75.7442 83.2204 75.9666 83.0526L75.97 83.0492L75.9751 83.0442L75.9955 83.029C76.1046 82.9451 76.212 82.859 76.3176 82.7708C77.5816 81.7102 78.7429 80.5339 79.7863 79.2574C81.6528 76.9591 83.6703 73.6178 83.6703 69.8125C83.6703 67.5747 82.7772 65.4286 81.1875 63.8463C79.5978 62.2639 77.4417 61.375 75.1936 61.375C72.9454 61.375 70.7893 62.2639 69.1996 63.8463C67.6099 65.4286 66.7168 67.5747 66.7168 69.8125C66.7168 73.6178 68.7343 76.9591 70.6025 79.2574C71.6459 80.5339 72.8072 81.7102 74.0712 82.7708L74.3917 83.029L74.412 83.0442ZM75.1936 72.3438C75.5275 72.3438 75.8582 72.2783 76.1667 72.1511C76.4753 72.0239 76.7556 71.8374 76.9917 71.6024C77.2279 71.3673 77.4152 71.0883 77.543 70.7812C77.6708 70.4741 77.7366 70.1449 77.7366 69.8125C77.7366 69.4801 77.6708 69.1509 77.543 68.8438C77.4152 68.5367 77.2279 68.2577 76.9917 68.0226C76.7556 67.7876 76.4753 67.6011 76.1667 67.4739C75.8582 67.3467 75.5275 67.2812 75.1936 67.2812C74.5191 67.2812 73.8723 67.5479 73.3954 68.0226C72.9185 68.4973 72.6505 69.1412 72.6505 69.8125C72.6505 70.4838 72.9185 71.1277 73.3954 71.6024C73.8723 72.0771 74.5191 72.3438 75.1936 72.3438Z" fill="#EC1D23"/>
<path fill-rule="evenodd" clip-rule="evenodd" d="M28.8994 99.5513L28.9031 99.555L28.9056 99.5575C29.0704 99.6818 29.2715 99.7491 29.4783 99.7491C29.6851 99.7491 29.8862 99.6818 30.051 99.5575L30.0535 99.555L30.0572 99.5513L30.0723 99.54C30.1531 99.4779 30.2327 99.4141 30.3109 99.3488C31.2472 98.5631 32.1074 97.6918 32.8803 96.7463C34.263 95.0437 35.7574 92.5688 35.7574 89.75C35.7574 88.0924 35.0958 86.5027 33.9183 85.3306C32.7407 84.1585 31.1436 83.5 29.4783 83.5C27.813 83.5 26.2159 84.1585 25.0383 85.3306C23.8608 86.5027 23.1992 88.0924 23.1992 89.75C23.1992 92.5688 24.6936 95.0437 26.0775 96.7463C26.8504 97.6918 27.7106 98.5631 28.6469 99.3488L28.8843 99.54L28.8994 99.5513ZM29.4783 91.625C29.7257 91.625 29.9706 91.5765 30.1992 91.4823C30.4277 91.388 30.6354 91.2499 30.8103 91.0758C30.9852 90.9017 31.124 90.695 31.2186 90.4675C31.3133 90.24 31.362 89.9962 31.362 89.75C31.362 89.5038 31.3133 89.26 31.2186 89.0325C31.124 88.805 30.9852 88.5983 30.8103 88.4242C30.6354 88.2501 30.4277 88.112 30.1992 88.0177C29.9706 87.9235 29.7257 87.875 29.4783 87.875C28.9787 87.875 28.4996 88.0725 28.1463 88.4242C27.793 88.7758 27.5946 89.2527 27.5946 89.75C27.5946 90.2473 27.793 90.7242 28.1463 91.0758C28.4996 91.4275 28.9787 91.625 29.4783 91.625Z" fill="#8FDE29"/>
<path fill-rule="evenodd" clip-rule="evenodd" d="M22.4584 45.7686L22.4616 45.7717L22.4637 45.7739C22.6038 45.8795 22.7747 45.9367 22.9505 45.9367C23.1262 45.9367 23.2972 45.8795 23.4373 45.7739L23.4394 45.7717L23.4426 45.7686L23.4554 45.759C23.5241 45.7062 23.5917 45.652 23.6582 45.5964C24.4541 44.9286 25.1853 44.188 25.8422 43.3843C27.0175 41.9372 28.2877 39.8334 28.2877 37.4375C28.2877 36.0285 27.7254 34.6773 26.7245 33.681C25.7236 32.6847 24.366 32.125 22.9505 32.125C21.535 32.125 20.1774 32.6847 19.1765 33.681C18.1756 34.6773 17.6133 36.0285 17.6133 37.4375C17.6133 39.8334 18.8835 41.9372 20.0599 43.3843C20.7168 44.188 21.448 44.9286 22.2439 45.5964L22.4456 45.759L22.4584 45.7686ZM22.9505 39.0312C23.1608 39.0312 23.369 38.99 23.5632 38.9099C23.7575 38.8298 23.934 38.7124 24.0827 38.5645C24.2314 38.4165 24.3493 38.2408 24.4298 38.0474C24.5102 37.854 24.5517 37.6468 24.5517 37.4375C24.5517 37.2282 24.5102 37.021 24.4298 36.8276C24.3493 36.6342 24.2314 36.4585 24.0827 36.3105C23.934 36.1626 23.7575 36.0452 23.5632 35.9651C23.369 35.885 23.1608 35.8438 22.9505 35.8438C22.5258 35.8438 22.1186 36.0117 21.8183 36.3105C21.518 36.6094 21.3493 37.0148 21.3493 37.4375C21.3493 37.8602 21.518 38.2656 21.8183 38.5645C22.1186 38.8633 22.5258 39.0312 22.9505 39.0312Z" fill="#63A5DF"/>
<path fill-rule="evenodd" clip-rule="evenodd" d="M125.829 58.793L125.832 58.797L125.835 58.7996C126.006 58.9296 126.216 59 126.431 59C126.646 59 126.855 58.9296 127.026 58.7996L127.029 58.797L127.033 58.793L127.048 58.7813C127.132 58.7163 127.215 58.6495 127.297 58.5812C128.27 57.7592 129.165 56.8476 129.969 55.8584C131.407 54.0772 132.961 51.4878 132.961 48.5388C132.961 46.8046 132.273 45.1414 131.048 43.9152C129.824 42.6889 128.163 42 126.431 42C124.699 42 123.038 42.6889 121.813 43.9152C120.588 45.1414 119.9 46.8046 119.9 48.5388C119.9 51.4878 121.455 54.0772 122.894 55.8584C123.698 56.8476 124.592 57.7592 125.566 58.5812L125.813 58.7813L125.829 58.793ZM126.431 50.5005C126.688 50.5005 126.943 50.4497 127.18 50.3512C127.418 50.2526 127.634 50.1081 127.816 49.9259C127.998 49.7438 128.142 49.5275 128.241 49.2895C128.339 49.0515 128.39 48.7964 128.39 48.5388C128.39 48.2812 128.339 48.0261 128.241 47.7881C128.142 47.5501 127.998 47.3339 127.816 47.1517C127.634 46.9696 127.418 46.8251 127.18 46.7265C126.943 46.6279 126.688 46.5772 126.431 46.5772C125.911 46.5772 125.413 46.7839 125.045 47.1517C124.678 47.5196 124.472 48.0186 124.472 48.5388C124.472 49.0591 124.678 49.558 125.045 49.9259C125.413 50.2938 125.911 50.5005 126.431 50.5005Z" fill="#FFA418"/>
<path d="M71.0779 49.3254H39.0215V0.5H112.298V49.3254H78.8295C78.6675 49.3254 78.5155 49.4038 78.4218 49.5359L75.1855 54.0948L71.4662 49.5104C71.3713 49.3933 71.2286 49.3254 71.0779 49.3254Z" fill="white" stroke="#333333" stroke-linejoin="round"/>
<path fill-rule="evenodd" clip-rule="evenodd" d="M108.117 15.4986H78.316C77.9676 15.4986 77.6875 15.1916 77.6875 14.8099V7.30876C77.6875 6.93093 77.9676 6.62109 78.316 6.62109H108.117C108.464 6.62109 108.745 6.93093 108.745 7.30876V14.8099C108.745 15.1916 108.464 15.4986 108.117 15.4986Z" fill="#007E47"/>
<path fill-rule="evenodd" clip-rule="evenodd" d="M108.116 43.6079H43.2047C42.859 43.6079 42.5762 43.301 42.5762 42.9193V35.4191C42.5762 35.0403 42.859 34.7305 43.2047 34.7305H108.116C108.463 34.7305 108.744 35.0403 108.744 35.4191V42.9193C108.744 43.301 108.463 43.6079 108.116 43.6079Z" fill="#E4E4E4"/>
<path fill-rule="evenodd" clip-rule="evenodd" d="M91.2374 31.0342H78.316C77.9676 31.0342 77.6875 30.7273 77.6875 30.3456V19.8859C77.6875 19.5061 77.9676 19.1973 78.316 19.1973H91.2374C91.5849 19.1973 91.8651 19.5061 91.8651 19.8859V30.3456C91.8651 30.7273 91.5849 31.0342 91.2374 31.0342Z" fill="#E4E4E4"/>
<path fill-rule="evenodd" clip-rule="evenodd" d="M108.112 31.0342H95.191C94.8426 31.0342 94.5625 30.7273 94.5625 30.3456V19.8859C94.5625 19.5061 94.8426 19.1973 95.191 19.1973H108.112C108.46 19.1973 108.741 19.5061 108.741 19.8859V30.3456C108.741 30.7273 108.46 31.0342 108.112 31.0342Z" fill="#E4E4E4"/>
<path fill-rule="evenodd" clip-rule="evenodd" d="M73.0057 31.0331H43.2047C42.8563 31.0331 42.5762 30.7262 42.5762 30.3445V7.30876C42.5762 6.93093 42.8563 6.62109 43.2047 6.62109H73.0057C73.3532 6.62109 73.6342 6.93093 73.6342 7.30876V30.3445C73.6342 30.7262 73.3532 31.0331 73.0057 31.0331Z" fill="#E4E4E4"/>
<path fill-rule="evenodd" clip-rule="evenodd" d="M57.1042 13.6751L57.1033 26.9806C57.1033 27.103 57.012 27.204 56.9012 27.204H53.2356C53.1239 27.204 53.0335 27.103 53.0335 26.9806V24.1056C53.0335 23.9823 52.9422 23.8851 52.8305 23.8851H51.4272C51.3155 23.8851 51.2241 23.9823 51.2241 24.1056V26.9806C51.2241 27.103 51.1337 27.204 51.022 27.204H47.3564C47.2447 27.204 47.1543 27.103 47.1543 26.9806V13.6741C47.1543 13.5517 47.2447 13.4527 47.3564 13.4527H56.9012C57.0129 13.4527 57.1042 13.5517 57.1042 13.6751ZM69.0661 9.93336L69.0652 26.9802C69.0652 27.1026 68.9739 27.2036 68.8622 27.2036H65.1974C65.0849 27.2036 64.9944 27.1026 64.9944 26.9802V24.0975C64.9944 23.9751 64.904 23.876 64.7923 23.876H63.3881C63.2764 23.876 63.186 23.9751 63.186 24.0975V26.9802C63.186 27.1026 63.0956 27.2036 62.983 27.2036H59.3183C59.2066 27.2036 59.1162 27.1026 59.1162 26.9802V9.93336C59.1162 9.81098 59.2066 9.71191 59.3183 9.71191H68.8631C68.9748 9.71191 69.0661 9.81098 69.0661 9.93336ZM50.1178 20.9138H48.7145C48.6028 20.9138 48.5124 21.0139 48.5124 21.1372V22.6728C48.5124 22.7962 48.6028 22.8933 48.7145 22.8933H50.1178C50.2304 22.8933 50.3208 22.7962 50.3208 22.6728V21.1372C50.3208 21.0139 50.2304 20.9138 50.1178 20.9138ZM52.8344 20.9138H51.4311C51.3194 20.9138 51.2281 21.0139 51.2281 21.1372V22.6728C51.2281 22.7962 51.3194 22.8933 51.4311 22.8933H52.8344C52.9461 22.8933 53.0374 22.7962 53.0374 22.6728V21.1372C53.0374 21.0139 52.9461 20.9138 52.8344 20.9138ZM55.5422 20.9138H54.1389C54.0272 20.9138 53.9359 21.0139 53.9359 21.1372V22.6728C53.9359 22.7962 54.0272 22.8933 54.1389 22.8933H55.5422C55.6539 22.8933 55.7452 22.7962 55.7452 22.6728V21.1372C55.7452 21.0139 55.6539 20.9138 55.5422 20.9138ZM62.0764 20.8982H60.6722C60.5605 20.8982 60.4701 20.9973 60.4701 21.1196V22.6611C60.4701 22.7834 60.5605 22.8825 60.6722 22.8825H62.0764C62.1881 22.8825 62.2785 22.7834 62.2785 22.6611V21.1196C62.2785 20.9973 62.1881 20.8982 62.0764 20.8982ZM64.7882 20.8982H63.384C63.2723 20.8982 63.1819 20.9973 63.1819 21.1196V22.6611C63.1819 22.7834 63.2723 22.8825 63.384 22.8825H64.7882C64.8999 22.8825 64.9903 22.7834 64.9903 22.6611V21.1196C64.9903 20.9973 64.8999 20.8982 64.7882 20.8982ZM67.503 20.8982H66.0997C65.988 20.8982 65.8976 20.9973 65.8976 21.1196V22.6611C65.8976 22.7834 65.988 22.8825 66.0997 22.8825H67.503C67.6156 22.8825 67.706 22.7834 67.706 22.6611V21.1196C67.706 20.9973 67.6156 20.8982 67.503 20.8982ZM50.1178 17.9434H48.7145C48.6028 17.9434 48.5124 18.0405 48.5124 18.1638V19.6994C48.5124 19.8228 48.6028 19.9228 48.7145 19.9228H50.1178C50.2304 19.9228 50.3208 19.8228 50.3208 19.6994V18.1638C50.3208 18.0405 50.2304 17.9434 50.1178 17.9434ZM52.8344 17.9434H51.4311C51.3194 17.9434 51.2281 18.0405 51.2281 18.1638V19.6994C51.2281 19.8228 51.3194 19.9228 51.4311 19.9228H52.8344C52.9461 19.9228 53.0374 19.8228 53.0374 19.6994V18.1638C53.0374 18.0405 52.9461 17.9434 52.8344 17.9434ZM55.5422 17.9434H54.1389C54.0272 17.9434 53.9359 18.0405 53.9359 18.1638V19.6994C53.9359 19.8228 54.0272 19.9228 54.1389 19.9228H55.5422C55.6539 19.9228 55.7452 19.8228 55.7452 19.6994V18.1638C55.7452 18.0405 55.6539 17.9434 55.5422 17.9434ZM62.0764 17.9197H60.6722C60.5605 17.9197 60.4701 18.0207 60.4701 18.1431V19.6845C60.4701 19.8059 60.5605 19.905 60.6722 19.905H62.0764C62.1881 19.905 62.2785 19.8059 62.2785 19.6845V18.1431C62.2785 18.0207 62.1881 17.9197 62.0764 17.9197ZM64.7882 17.9197H63.384C63.2723 17.9197 63.1819 18.0207 63.1819 18.1431V19.6845C63.1819 19.8059 63.2723 19.905 63.384 19.905H64.7882C64.8999 19.905 64.9903 19.8059 64.9903 19.6845V18.1431C64.9903 18.0207 64.8999 17.9197 64.7882 17.9197ZM67.503 17.9197H66.0997C65.988 17.9197 65.8976 18.0207 65.8976 18.1431V19.6845C65.8976 19.8059 65.988 19.905 66.0997 19.905H67.503C67.6156 19.905 67.706 19.8059 67.706 19.6845V18.1431C67.706 18.0207 67.6156 17.9197 67.503 17.9197ZM50.1178 14.9712H48.7145C48.6028 14.9712 48.5124 15.0703 48.5124 15.1926V16.7302C48.5124 16.8516 48.6028 16.9507 48.7145 16.9507H50.1178C50.2304 16.9507 50.3208 16.8516 50.3208 16.7302V15.1926C50.3208 15.0703 50.2304 14.9712 50.1178 14.9712ZM52.8344 14.9712H51.4311C51.3194 14.9712 51.2281 15.0703 51.2281 15.1926V16.7302C51.2281 16.8516 51.3194 16.9507 51.4311 16.9507H52.8344C52.9461 16.9507 53.0374 16.8516 53.0374 16.7302V15.1926C53.0374 15.0703 52.9461 14.9712 52.8344 14.9712ZM55.5422 14.9712H54.1389C54.0272 14.9712 53.9359 15.0703 53.9359 15.1926V16.7302C53.9359 16.8516 54.0272 16.9507 54.1389 16.9507H55.5422C55.6539 16.9507 55.7452 16.8516 55.7452 16.7302V15.1926C55.7452 15.0703 55.6539 14.9712 55.5422 14.9712ZM62.0764 14.9409H60.6722C60.5605 14.9409 60.4701 15.039 60.4701 15.1614V16.7028C60.4701 16.8252 60.5605 16.9262 60.6722 16.9262H62.0764C62.1881 16.9262 62.2785 16.8252 62.2785 16.7028V15.1614C62.2785 15.039 62.1881 14.9409 62.0764 14.9409ZM64.7882 14.9409H63.384C63.2723 14.9409 63.1819 15.039 63.1819 15.1614V16.7028C63.1819 16.8252 63.2723 16.9262 63.384 16.9262H64.7882C64.8999 16.9262 64.9903 16.8252 64.9903 16.7028V15.1614C64.9903 15.039 64.8999 14.9409 64.7882 14.9409ZM67.503 14.9409H66.0997C65.988 14.9409 65.8976 15.039 65.8976 15.1614V16.7028C65.8976 16.8252 65.988 16.9262 66.0997 16.9262H67.503C67.6156 16.9262 67.706 16.8252 67.706 16.7028V15.1614C67.706 15.039 67.6156 14.9409 67.503 14.9409ZM62.0764 12.0312H60.6722C60.5605 12.0312 60.4701 12.1293 60.4701 12.2517V13.7931C60.4701 13.9155 60.5605 14.0165 60.6722 14.0165H62.0764C62.1881 14.0165 62.2785 13.9155 62.2785 13.7931V12.2517C62.2785 12.1293 62.1881 12.0312 62.0764 12.0312ZM64.7882 12.0312H63.384C63.2723 12.0312 63.1819 12.1293 63.1819 12.2517V13.7931C63.1819 13.9155 63.2723 14.0165 63.384 14.0165H64.7882C64.8999 14.0165 64.9903 13.9155 64.9903 13.7931V12.2517C64.9903 12.1293 64.8999 12.0312 64.7882 12.0312ZM67.503 12.0312H66.0997C65.988 12.0312 65.8976 12.1293 65.8976 12.2517V13.7931C65.8976 13.9155 65.988 14.0165 66.0997 14.0165H67.503C67.6156 14.0165 67.706 13.9155 67.706 13.7931V12.2517C67.706 12.1293 67.6156 12.0312 67.503 12.0312Z" fill="white"/>
<defs>
<filter id="filter0_d_5776_2151" x="0" y="13" width="152" height="103.184" filterUnits="userSpaceOnUse" color-interpolation-filters="sRGB">
<feFlood flood-opacity="0" result="BackgroundImageFix"/>
<feColorMatrix in="SourceAlpha" type="matrix" values="0 0 0 0 0 0 0 0 0 0 0 0 0 0 0 0 0 0 127 0" result="hardAlpha"/>
<feOffset/>
<feGaussianBlur stdDeviation="5"/>
<feComposite in2="hardAlpha" operator="out"/>
<feColorMatrix type="matrix" values="0 0 0 0 0 0 0 0 0 0 0 0 0 0 0 0 0 0 0.1 0"/>
<feBlend mode="normal" in2="BackgroundImageFix" result="effect1_dropShadow_5776_2151"/>
<feBlend mode="normal" in="SourceGraphic" in2="effect1_dropShadow_5776_2151" result="shape"/>
</filter>
</defs>
</svg>
