<svg width="164" height="112" viewBox="0 0 164 112" fill="none" xmlns="http://www.w3.org/2000/svg">
<rect x="21.3861" y="0.907606" width="125.049" height="85.1848" rx="1.88503" fill="white" stroke="#333333" stroke-width="1.81521"/>
<rect x="29.4688" y="11" width="53.9424" height="5" fill="#333333"/>
<rect x="89.4043" y="14" width="44.952" height="16" fill="#007E47"/>
<rect x="89.4043" y="37" width="44.952" height="13" fill="#8FDE29"/>
<rect x="29.4688" y="19" width="53.9424" height="32" fill="#DFEFE5"/>
<path d="M65.0056 32.2421C65.0056 38.1044 57.0136 46.8977 57.0136 46.8977C57.0136 46.8977 49.0215 38.1044 49.0215 32.2421C49.0215 27.9581 52.675 24.3506 57.0136 24.3506C61.3521 24.3506 65.0056 27.9581 65.0056 32.2421ZM59.7537 32.4676C59.7537 31.1147 58.3836 29.7619 57.0136 29.7619C55.6435 29.7619 54.2734 30.8893 54.2734 32.4676C54.2734 33.8204 55.4151 35.1732 57.0136 35.1732C58.612 35.1732 59.982 33.8204 59.7537 32.4676Z" fill="#FF7000"/>
<rect x="25.2019" y="54.7273" width="117.418" height="25.5453" stroke="#EC1D23" stroke-width="1.45466" stroke-linejoin="round" stroke-dasharray="1.45 1.45"/>
<rect x="86.1375" y="9.72733" width="51.4888" height="23.5453" stroke="#EC1D23" stroke-width="1.45466" stroke-linejoin="round" stroke-dasharray="1.45 1.45"/>
<g filter="url(#filter0_d_5776_272)">
<rect x="30.4668" y="60" width="107.885" height="14" rx="0.881571" fill="white"/>
<rect x="30.0388" y="59.572" width="108.741" height="14.8559" rx="1.30954" stroke="#007E47" stroke-width="0.855944"/>
</g>
<rect width="51.9445" height="3" transform="translate(83.4102 63)" fill="#333333"/>
<rect width="51.9445" height="3" transform="translate(83.4102 68)" fill="#333333"/>
<rect x="51.4453" y="68" width="28.9691" height="4" fill="#E8F5EB"/>
<rect x="33.4629" y="63" width="14.984" height="10" fill="#007E47"/>
<rect x="51.4453" y="63" width="28.9691" height="4" fill="#8FDE29"/>
<path fill-rule="evenodd" clip-rule="evenodd" d="M39.4765 91.5002C39.4765 101.643 31.2631 109.865 21.1315 109.865C11 109.865 2.78654 101.643 2.78654 91.5002C2.78654 81.3578 11 73.1356 21.1315 73.1356C24.2988 73.1356 27.2835 73.9402 29.8859 75.3564L37.1096 74.012C37.3137 73.9741 37.524 73.9866 37.7223 74.0482C37.9205 74.1099 38.1008 74.2189 38.2476 74.3658C38.3944 74.5128 38.5033 74.6933 38.5649 74.8917C38.6265 75.0902 38.6389 75.3007 38.6011 75.505L37.2564 82.7364C38.7178 85.4255 39.4812 88.4389 39.4765 91.5002Z" fill="#FFA418"/>
<path d="M19.0516 86.267C19.0516 86.8707 18.8893 87.4372 18.6067 87.9247L20.6993 90.0483L26.242 84.4996C26.551 84.1904 26.97 84.0167 27.4069 84.0167C27.8438 84.0167 28.2628 84.1904 28.5718 84.4996L18.5952 94.4869C19.0026 95.1785 19.144 95.9952 18.9929 96.7837C18.8419 97.5723 18.4087 98.2786 17.7746 98.7703C17.1405 99.262 16.349 99.5054 15.5486 99.4547C14.7481 99.404 13.9936 99.0628 13.4264 98.4951C12.8593 97.9273 12.5184 97.172 12.4678 96.3706C12.4172 95.5693 12.6602 94.777 13.1514 94.1422C13.6426 93.5075 14.3482 93.0738 15.1359 92.9226C15.9236 92.7714 16.7394 92.9129 17.4303 93.3207L19.5344 91.2144L17.4303 89.1081C16.8043 89.4777 16.0739 89.6298 15.3526 89.5406C14.6313 89.4515 13.9597 89.1262 13.4423 88.6154C12.9249 88.1045 12.5907 87.4367 12.4917 86.716C12.3927 85.9953 12.5344 85.262 12.8949 84.6303C13.2554 83.9986 13.8144 83.5039 14.4848 83.2232C15.1553 82.9425 15.8997 82.8916 16.6021 83.0783C17.3044 83.265 17.9255 83.6789 18.3685 84.2556C18.8115 84.8323 19.0517 85.5395 19.0516 86.267ZM17.4039 86.267C17.4039 85.8295 17.2303 85.41 16.9214 85.1007C16.6124 84.7913 16.1933 84.6176 15.7563 84.6176C15.3193 84.6176 14.9002 84.7913 14.5912 85.1007C14.2822 85.41 14.1086 85.8295 14.1086 86.267C14.1086 86.7044 14.2822 87.124 14.5912 87.4333C14.9002 87.7426 15.3193 87.9164 15.7563 87.9164C16.1933 87.9164 16.6124 87.7426 16.9214 87.4333C17.2303 87.124 17.4039 86.7044 17.4039 86.267ZM28.5718 97.9301C28.2628 98.2393 27.8438 98.413 27.4069 98.413C26.97 98.413 26.551 98.2393 26.242 97.9301L21.8617 93.5451L23.0274 92.3789L28.5718 97.9301ZM23.9946 90.3905H25.6423V92.04H23.9946V90.3905ZM27.2899 90.3905H28.9376V92.04H27.2899V90.3905ZM15.7563 90.3905H17.4039V92.04H15.7563V90.3905ZM12.4609 90.3905H14.1086V92.04H12.4609V90.3905ZM15.7563 97.813C16.1933 97.813 16.6124 97.6392 16.9214 97.3299C17.2303 97.0205 17.4039 96.601 17.4039 96.1635C17.4039 95.7261 17.2303 95.3065 16.9214 94.9972C16.6124 94.6879 16.1933 94.5141 15.7563 94.5141C15.3193 94.5141 14.9002 94.6879 14.5912 94.9972C14.2822 95.3065 14.1086 95.7261 14.1086 96.1635C14.1086 96.601 14.2822 97.0205 14.5912 97.3299C14.9002 97.6392 15.3193 97.813 15.7563 97.813Z" fill="white"/>
<rect x="63.4297" y="78" width="97.8955" height="24" fill="white" stroke="#FF7000" stroke-width="1.70044" stroke-linejoin="round"/>
<rect x="62.4297" y="77" width="3.99573" height="5" fill="white"/>
<path fill-rule="evenodd" clip-rule="evenodd" d="M60.543 75.7793H66.0908V81.333H60.543V75.7793ZM65.0186 80.2609V76.8508H61.6121V80.2609H65.0186Z" fill="#FF7000"/>
<rect x="61.4297" y="87" width="3.99573" height="5" fill="white"/>
<path fill-rule="evenodd" clip-rule="evenodd" d="M60.543 87.2383H66.0908V92.792H60.543V87.2383ZM65.0186 91.7197V88.3096H61.6121V91.7197H65.0186Z" fill="#FF7000"/>
<rect x="62.4297" y="99" width="3.99573" height="5" fill="white"/>
<path fill-rule="evenodd" clip-rule="evenodd" d="M60.4297 98.5127H65.9775V104.066H60.4297V98.5127ZM64.9053 102.994V99.5837H61.4989V102.994H64.9053Z" fill="#FF7000"/>
<rect x="112.375" y="76" width="3.99573" height="5" fill="white"/>
<path fill-rule="evenodd" clip-rule="evenodd" d="M112.049 75.7793H117.597V81.333H112.049V75.7793ZM116.524 80.2609V76.8508H113.118V80.2609H116.524Z" fill="#FF7000"/>
<rect x="112.375" y="98.9995" width="3.99573" height="5" fill="white"/>
<path fill-rule="evenodd" clip-rule="evenodd" d="M112.049 98.6963H117.597V104.25H112.049V98.6963ZM116.524 103.177V99.7673H113.118V103.177H116.524Z" fill="#FF7000"/>
<rect x="158.328" y="76" width="3.99573" height="5" fill="white"/>
<path fill-rule="evenodd" clip-rule="evenodd" d="M157.949 75.7793H163.497V81.333H157.949V75.7793ZM162.425 80.2609V76.8508H159.018V80.2609H162.425Z" fill="#FF7000"/>
<rect x="158.328" y="87" width="3.99573" height="5" fill="white"/>
<path fill-rule="evenodd" clip-rule="evenodd" d="M157.949 87.2383H163.497V92.792H157.949V87.2383ZM162.425 91.7197V88.3096H159.018V91.7197H162.425Z" fill="#FF7000"/>
<rect x="158.328" y="99" width="3.99573" height="5" fill="white"/>
<path fill-rule="evenodd" clip-rule="evenodd" d="M157.836 98.6992H163.384V104.253H157.836V98.6992ZM162.312 103.18V99.7703H158.905V103.18H162.312Z" fill="#FF7000"/>
<path fill-rule="evenodd" clip-rule="evenodd" d="M113.36 94.3432C114.281 94.3432 114.702 93.9568 114.886 92.2003C114.527 92.0686 114.062 91.7524 113.772 91.4538C113.728 92.5253 113.632 92.9995 113.474 92.9995C112.956 92.9995 112.5 91.0323 112.334 88.661H114.632V87.4139H113.869L114.483 86.887C114.246 86.606 113.755 86.2195 113.386 85.9648L112.544 86.6587C112.825 86.8694 113.158 87.1592 113.395 87.4139H112.281C112.272 86.9573 112.272 86.4918 112.29 86.0351H110.912C110.912 86.4918 110.921 86.9573 110.93 87.4139H106.692V88.661H110.991C111.184 91.6997 111.807 94.3432 113.36 94.3432ZM101.114 90.76V90.5756L100.386 91.4187C100.315 91.2167 100.219 90.962 100.105 90.6986V94.3432H98.8591V91.4363C98.6661 91.9984 98.438 92.499 98.1923 92.8766C98.0783 92.5077 97.8063 91.9193 97.6045 91.568C98.1221 90.9181 98.5608 89.7676 98.7889 88.784H97.7888V87.6072H98.8591V86H100.105V87.6072H101.035V88.5293C101.324 87.9585 101.509 87.1944 101.605 86.4479L102.763 86.6499C102.719 86.9221 102.675 87.1856 102.614 87.4491H102.947V86H104.193V87.4491H105.799V88.5996H104.193V89.6096H105.974V90.76H104.746C105.097 91.5856 105.641 92.4023 106.22 92.9117C105.93 93.1401 105.509 93.588 105.298 93.9129C104.877 93.4387 104.5 92.7712 104.193 92.0335V94.3432H102.947V92.0423C102.509 92.8239 101.973 93.5001 101.333 93.9656C101.14 93.667 100.754 93.2191 100.482 92.9908C101.28 92.5077 101.973 91.6646 102.412 90.76H101.114ZM88.4011 90.1717C88.4011 92.42 86.5763 94.2467 84.3304 94.2467C82.0845 94.2467 80.2598 92.42 80.2598 90.1717C80.2598 87.9234 82.0845 86.0967 84.3304 86.0967C86.5763 86.0967 88.4011 87.9234 88.4011 90.1717ZM81.5748 90.1717C81.5748 91.6911 82.8118 92.9294 84.3295 92.9294C85.8472 92.9294 87.0842 91.6911 87.0842 90.1717C87.0842 88.6524 85.8472 87.4141 84.3295 87.4141C82.8118 87.4141 81.5748 88.6524 81.5748 90.1717ZM93.1023 94.2467C95.3482 94.2467 97.173 92.42 97.173 90.1717C97.173 87.9234 95.3482 86.0967 93.1023 86.0967C90.8564 86.0967 89.0317 87.9234 89.0317 90.1717C89.0317 92.42 90.8564 94.2467 93.1023 94.2467ZM90.3506 90.1717C90.3506 91.6911 91.5875 92.9294 93.1053 92.9294C94.623 92.9294 95.86 91.6911 95.86 90.1717C95.86 88.6524 94.623 87.4141 93.1053 87.4141C91.5875 87.4141 90.3506 88.6524 90.3506 90.1717ZM100.106 89.0212V88.784H100.895C100.874 88.8102 100.857 88.8363 100.84 88.8605L100.84 88.8606C100.829 88.8771 100.818 88.8928 100.808 88.907C101.08 89.0475 101.58 89.3637 101.799 89.5481C101.974 89.2846 102.132 88.9597 102.273 88.5996H102.948V89.6096H101.115V90.5756L101.098 90.5466C100.931 90.2609 100.351 89.343 100.106 89.0212ZM107.604 93.9879L107.007 94.1061L106.665 92.8151C107.095 92.7624 107.639 92.6834 108.227 92.5955V90.7249H107.034V89.4954H110.788V90.7249H109.499V92.3935L109.679 92.3651L109.679 92.3651L109.679 92.3651L109.679 92.3651L109.679 92.3651L109.679 92.3651L109.679 92.3651C110.121 92.2954 110.568 92.2249 111.008 92.1476L111.096 93.2806C109.916 93.53 108.656 93.7794 107.604 93.9879ZM115.957 89.9521C116.457 89.7237 116.949 89.4339 117.396 89.1265V89.7764H121.467V89.0563C121.932 89.3637 122.414 89.6447 122.879 89.8555C123.107 89.469 123.388 89.0124 123.704 88.6874C122.309 88.2307 120.993 87.3086 120.054 86.0176H118.703C118.072 87.01 116.703 88.2483 115.203 88.8806C115.466 89.1529 115.808 89.6447 115.957 89.9521ZM118.09 88.6083H120.836C120.266 88.1692 119.766 87.695 119.433 87.2383C119.099 87.6862 118.634 88.1604 118.09 88.6083ZM121.95 94.3434L123.143 93.6232C122.757 92.9909 122.02 92.1478 121.292 91.4891H123.108V90.3035H115.8V91.4891H117.686C117.546 91.9282 117.362 92.4025 117.169 92.8152L116.905 92.8247C116.516 92.8389 116.157 92.8519 115.826 92.8591L115.993 94.1062L116.497 94.0827L116.497 94.0827C117.948 94.015 119.833 93.9271 121.634 93.8252C121.757 94.0096 121.871 94.1853 121.95 94.3434ZM119.248 91.5058C119.031 91.9309 118.806 92.3723 118.59 92.771C119.144 92.7499 119.721 92.7288 120.298 92.7078L120.731 92.692C120.502 92.4373 120.266 92.1914 120.037 91.9718L120.967 91.4888H119.257L119.248 91.5058ZM126.679 94.352V91.2343C126.907 91.5153 127.126 91.7964 127.284 92.0159L128.056 90.9796C127.881 90.804 127.249 90.2419 126.828 89.8994C127.223 89.3285 127.556 88.6962 127.802 88.0375L127.091 87.5721L126.872 87.616H126.679V86.0088H125.415V87.616H124.231V88.7665H126.188C125.644 89.6974 124.793 90.5229 123.889 90.9884C124.073 91.2343 124.371 91.8754 124.477 92.2179C124.793 92.0247 125.108 91.7876 125.415 91.5153V94.352H126.679ZM132.442 92.8415V94.0974H127.424V92.8415H129.346V89.8643H127.793V88.6348H129.346V86.0967H130.661V88.6348H132.223V89.8643H130.661V92.8415H132.442Z" fill="#333333"/>
<path fill-rule="evenodd" clip-rule="evenodd" d="M139.897 91.5127C140.549 91.5127 141.03 90.9884 141.03 90.325C141.03 89.6723 140.549 89.1479 139.897 89.1479C139.245 89.1479 138.764 89.6723 138.764 90.325C138.764 90.9884 139.245 91.5127 139.897 91.5127ZM143.978 91.5127C144.63 91.5127 145.111 90.9884 145.111 90.325C145.111 89.6723 144.63 89.1479 143.978 89.1479C143.326 89.1479 142.845 89.6723 142.845 90.325C142.845 90.9884 143.326 91.5127 143.978 91.5127ZM149.197 90.325C149.197 90.9884 148.716 91.5127 148.064 91.5127C147.412 91.5127 146.931 90.9884 146.931 90.325C146.931 89.6723 147.412 89.1479 148.064 89.1479C148.716 89.1479 149.197 89.6723 149.197 90.325Z" fill="#333333"/>
<defs>
<filter id="filter0_d_5776_272" x="25.2035" y="56.4993" width="118.411" height="24.5276" filterUnits="userSpaceOnUse" color-interpolation-filters="sRGB">
<feFlood flood-opacity="0" result="BackgroundImageFix"/>
<feColorMatrix in="SourceAlpha" type="matrix" values="0 0 0 0 0 0 0 0 0 0 0 0 0 0 0 0 0 0 127 0" result="hardAlpha"/>
<feOffset dy="1.76314"/>
<feGaussianBlur stdDeviation="2.20393"/>
<feColorMatrix type="matrix" values="0 0 0 0 0 0 0 0 0 0 0 0 0 0 0 0 0 0 0.05 0"/>
<feBlend mode="normal" in2="BackgroundImageFix" result="effect1_dropShadow_5776_272"/>
<feBlend mode="normal" in="SourceGraphic" in2="effect1_dropShadow_5776_272" result="shape"/>
</filter>
</defs>
</svg>
