<svg width="132" height="119" viewBox="0 0 132 119" fill="none" xmlns="http://www.w3.org/2000/svg">
<path d="M111.749 100.11C111.577 99.2491 111.964 98.1931 112.953 97.2297L112.953 97.2294C118.755 91.5824 122.344 83.9391 122.344 75.5C122.344 57.9005 106.826 43.875 88 43.875C69.1743 43.875 53.6562 57.9005 53.6562 75.5C53.6562 93.0995 69.1743 107.125 88 107.125C90.9419 107.125 93.8013 106.782 96.5327 106.14L96.94 106.044L97.2941 106.267C101.023 108.613 105.342 109.854 109.748 109.844L109.751 109.844C111.145 109.846 112.536 109.722 113.908 109.475L113.909 109.475C114.206 109.422 114.484 109.291 114.715 109.096C114.946 108.902 115.121 108.649 115.223 108.365C115.325 108.081 115.351 107.775 115.297 107.478C115.244 107.181 115.113 106.903 114.918 106.673C113.321 104.79 112.23 102.531 111.749 100.11ZM111.749 100.11C111.749 100.11 111.749 100.11 111.749 100.11L112.73 99.9144M111.749 100.11C111.749 100.11 111.749 100.109 111.749 100.109L112.73 99.9144M112.73 99.9144C112.646 99.4975 112.81 98.7653 113.651 97.946L112.73 99.9144ZM101.594 70.4219C102.941 70.4219 104.232 70.9569 105.185 71.9092C106.137 72.8616 106.672 74.1532 106.672 75.5C106.672 76.8468 106.137 78.1384 105.185 79.0908C104.232 80.0431 102.941 80.5781 101.594 80.5781C100.247 80.5781 98.9553 80.0431 98.003 79.0908C97.0506 78.1384 96.5156 76.8468 96.5156 75.5C96.5156 74.1532 97.0506 72.8616 98.003 71.9092C98.9553 70.9569 100.247 70.4219 101.594 70.4219ZM91.5908 71.9092C92.5431 72.8616 93.0781 74.1532 93.0781 75.5C93.0781 76.8468 92.5431 78.1384 91.5908 79.0908C90.6384 80.0431 89.3468 80.5781 88 80.5781C86.6532 80.5781 85.3616 80.0431 84.4092 79.0908C83.4569 78.1384 82.9219 76.8468 82.9219 75.5C82.9219 74.1532 83.4569 72.8616 84.4092 71.9092C85.3616 70.9569 86.6532 70.4219 88 70.4219C89.3468 70.4219 90.6384 70.9569 91.5908 71.9092ZM74.4062 70.4219C75.7531 70.4219 77.0447 70.9569 77.997 71.9092C78.9494 72.8616 79.4844 74.1532 79.4844 75.5C79.4844 76.8468 78.9494 78.1384 77.997 79.0908C77.0447 80.0431 75.7531 80.5781 74.4062 80.5781C73.0594 80.5781 71.7678 80.0431 70.8155 79.0908C69.8631 78.1384 69.3281 76.8468 69.3281 75.5C69.3281 74.1532 69.8631 72.8616 70.8155 71.9092C71.7678 70.9569 73.0594 70.4219 74.4062 70.4219Z" fill="white" stroke="#007E47" stroke-width="2"/>
<path fill-rule="evenodd" clip-rule="evenodd" d="M17.9145 78.4595C19.3453 78.7171 20.7962 78.8457 22.25 78.8438C26.8451 78.8541 31.349 77.5607 35.2384 75.1136C38.0441 75.7734 40.9804 76.125 44 76.125C63.2923 76.125 79.3438 61.7338 79.3438 43.5C79.3438 25.2663 63.2923 10.875 44 10.875C24.7078 10.875 8.65625 25.2663 8.65625 43.5C8.65625 52.2326 12.3719 60.1279 18.3495 65.946C19.1905 66.7653 19.3536 67.4975 19.2703 67.9144C18.8223 70.1694 17.8067 72.2729 16.3195 74.0261C16.0108 74.3906 15.8035 74.83 15.7186 75.3001C15.6337 75.7701 15.6741 76.2543 15.8358 76.7038C15.9975 77.1532 16.2748 77.5522 16.6397 77.8604C17.0046 78.1686 17.4443 78.3753 17.9145 78.4595ZM30.4062 39.4219C29.3247 39.4219 28.2874 39.8515 27.5226 40.6163C26.7578 41.3811 26.3281 42.4184 26.3281 43.5C26.3281 44.5816 26.7578 45.6189 27.5226 46.3837C28.2874 47.1485 29.3247 47.5781 30.4062 47.5781C31.4878 47.5781 32.5251 47.1485 33.2899 46.3837C34.0547 45.6189 34.4844 44.5816 34.4844 43.5C34.4844 42.4184 34.0547 41.3811 33.2899 40.6163C32.5251 39.8515 31.4878 39.4219 30.4062 39.4219ZM39.9219 43.5C39.9219 42.4184 40.3515 41.3811 41.1163 40.6163C41.8811 39.8515 42.9184 39.4219 44 39.4219C45.0816 39.4219 46.1189 39.8515 46.8837 40.6163C47.6485 41.3811 48.0781 42.4184 48.0781 43.5C48.0781 44.5816 47.6485 45.6189 46.8837 46.3837C46.1189 47.1485 45.0816 47.5781 44 47.5781C42.9184 47.5781 41.8811 47.1485 41.1163 46.3837C40.3515 45.6189 39.9219 44.5816 39.9219 43.5ZM57.5938 39.4219C56.5122 39.4219 55.4749 39.8515 54.7101 40.6163C53.9453 41.3811 53.5156 42.4184 53.5156 43.5C53.5156 44.5816 53.9453 45.6189 54.7101 46.3837C55.4749 47.1485 56.5122 47.5781 57.5938 47.5781C58.6753 47.5781 59.7126 47.1485 60.4774 46.3837C61.2422 45.6189 61.6719 44.5816 61.6719 43.5C61.6719 42.4184 61.2422 41.3811 60.4774 40.6163C59.7126 39.8515 58.6753 39.4219 57.5938 39.4219Z" fill="#007E47"/>
</svg>
