<svg width="168" height="108" viewBox="0 0 168 108" fill="none" xmlns="http://www.w3.org/2000/svg">
<rect x="25" y="15" width="115" height="78" rx="2.07692" fill="white" stroke="#333333" stroke-width="2"/>
<rect x="33" y="26" width="50" height="5" fill="#333333"/>
<rect x="88" y="26" width="41" height="15" fill="#007E47"/>
<rect x="88" y="44" width="41" height="12" fill="#8FDE29"/>
<rect x="88" y="60" width="19" height="12" fill="#DFEFE5"/>
<rect x="110" y="60" width="19" height="12" fill="#DFEFE5"/>
<rect x="33" y="77" width="96" height="5" fill="#333333"/>
<rect x="33" y="35" width="50" height="36" fill="#DFEFE5"/>
<path d="M66.6479 49.9605C66.6479 56.8621 57.1677 67.2144 57.1677 67.2144C57.1677 67.2144 47.6875 56.8621 47.6875 49.9605C47.6875 44.917 52.0213 40.6699 57.1677 40.6699C62.3141 40.6699 66.6479 44.917 66.6479 49.9605ZM60.418 50.2259C60.418 48.6333 58.7929 47.0406 57.1677 47.0406C55.5425 47.0406 53.9173 48.3678 53.9173 50.2259C53.9173 51.8186 55.2716 53.4113 57.1677 53.4113C59.0637 53.4113 60.6889 51.8186 60.418 50.2259Z" fill="#FF7000"/>
<rect x="121" y="1" width="46" height="46" rx="23" fill="white"/>
<rect x="121" y="1" width="46" height="46" rx="23" stroke="#007E47" stroke-width="2"/>
<path d="M153 18L140.333 30L134 24" stroke="#FF7000" stroke-width="3" stroke-linecap="round" stroke-linejoin="round"/>
<rect x="1" y="55" width="52" height="52" rx="26" fill="white"/>
<rect x="1" y="55" width="52" height="52" rx="26" stroke="#007E47" stroke-width="2"/>
<path fill-rule="evenodd" clip-rule="evenodd" d="M17.6836 80.0467C17.6836 77.8283 18.5648 75.7008 20.1334 74.1321C21.7019 72.5635 23.8294 71.6822 26.0476 71.6822C28.2659 71.6822 30.3933 72.5635 31.9619 74.1321C33.5305 75.7008 34.4117 77.8283 34.4117 80.0467C34.4117 82.2651 33.5305 84.3927 31.9619 85.9613C30.3933 87.53 28.2659 88.4112 26.0476 88.4112C23.8294 88.4112 21.7019 87.53 20.1334 85.9613C18.5648 84.3927 17.6836 82.2651 17.6836 80.0467ZM26.0476 67.5C24.0731 67.4997 22.1264 67.9656 20.3658 68.8596C18.6053 69.7536 17.0806 71.0506 15.9157 72.645C14.7509 74.2394 13.9788 76.0863 13.6623 78.0354C13.3457 79.9845 13.4937 81.9808 14.0941 83.8619C14.6945 85.743 15.7304 87.4559 17.1176 88.8612C18.5047 90.2664 20.204 91.3244 22.0771 91.9491C23.9502 92.5738 25.9443 92.7475 27.8972 92.4561C29.8502 92.1648 31.7067 91.4165 33.316 90.2723L39.2063 96.163C39.6007 96.5439 40.1289 96.7547 40.6772 96.7499C41.2254 96.7452 41.7499 96.5252 42.1376 96.1375C42.5252 95.7498 42.7452 95.2253 42.7499 94.677C42.7547 94.1288 42.5439 93.6005 42.163 93.2062L36.2748 87.3176C37.6094 85.4405 38.4016 83.2322 38.5647 80.9348C38.7277 78.6373 38.2552 76.3393 37.1989 74.2926C36.1427 72.2459 34.5435 70.5294 32.5765 69.3312C30.6095 68.1331 28.3507 67.4996 26.0476 67.5Z" fill="#333333"/>
</svg>
