<svg width="106" height="105" viewBox="0 0 106 105" fill="none" xmlns="http://www.w3.org/2000/svg">
<path fill-rule="evenodd" clip-rule="evenodd" d="M17.135 0C12.0875 0 8 4.0875 8 9.135V43.41C8 48.465 12.0875 52.56 17.135 52.56H88.865C93.9125 52.56 98 48.465 98 43.41V9.135C98 4.0875 93.9125 0 88.865 0H17.135ZM37.4075 70.8075C37.4075 73.6748 36.2685 76.4247 34.241 78.4522C32.2135 80.4797 29.4636 81.6187 26.5963 81.6187C23.7289 81.6187 20.979 80.4797 18.9515 78.4522C16.924 76.4247 15.785 73.6748 15.785 70.8075C15.785 67.9402 16.924 65.1903 18.9515 63.1628C20.979 61.1353 23.7289 59.9963 26.5963 59.9963C29.4636 59.9963 32.2135 61.1353 34.241 63.1628C36.2685 65.1903 37.4075 67.9402 37.4075 70.8075ZM79.4375 81.6225C82.3048 81.6225 85.0547 80.4835 87.0822 78.456C89.1097 76.4285 90.2487 73.6786 90.2487 70.8112C90.2487 67.9439 89.1097 65.194 87.0822 63.1665C85.0547 61.139 82.3048 60 79.4375 60C76.5702 60 73.8203 61.139 71.7928 63.1665C69.7653 65.194 68.6263 67.9439 68.6263 70.8112C68.6263 73.6786 69.7653 76.4285 71.7928 78.456C73.8203 80.4835 76.5702 81.6225 79.4375 81.6225ZM26.5925 87.4575C22.4522 87.4582 18.446 88.9251 15.2842 91.5981C12.1224 94.2711 10.0095 97.9775 9.32 102.06C9.0575 103.65 10.3925 104.97 12.005 104.97H41.1875C42.8 104.97 44.135 103.65 43.8725 102.06C43.1828 97.9763 41.0688 94.2689 37.9054 91.5957C34.7421 88.9225 30.7341 87.4564 26.5925 87.4575ZM62.165 102.06C62.8535 97.9759 64.9665 94.2679 68.1292 91.5937C71.2918 88.9196 75.2996 87.4523 79.4413 87.4523C83.5829 87.4523 87.5907 88.9196 90.7533 91.5937C93.916 94.2679 96.029 97.9759 96.7175 102.06C96.98 103.65 95.645 104.97 94.0325 104.97H64.85C63.245 104.97 61.9025 103.65 62.165 102.06ZM61.4225 15.9075C61.4225 18.1413 60.5351 20.2836 58.9556 21.8631C57.3761 23.4426 55.2338 24.33 53 24.33C50.7662 24.33 48.6239 23.4426 47.0444 21.8631C45.4649 20.2836 44.5775 18.1413 44.5775 15.9075C44.5775 13.6737 45.4649 11.5314 47.0444 9.95189C48.6239 8.37237 50.7662 7.485 53 7.485C55.2338 7.485 57.3761 8.37237 58.9556 9.95189C60.5351 11.5314 61.4225 13.6737 61.4225 15.9075ZM38.1875 42.4275C38.779 38.9269 40.5913 35.7489 43.3028 33.4572C46.0142 31.1654 49.4498 29.9081 53 29.9081C56.5502 29.9081 59.9858 31.1654 62.6972 33.4572C65.4087 35.7489 67.221 38.9269 67.8125 42.4275C68.0375 43.7925 66.8975 44.9175 65.5175 44.9175H40.475C39.095 44.9175 37.9625 43.7925 38.1875 42.4275Z" fill="#007E47"/>
</svg>
