<svg width="112" height="151" viewBox="0 0 112 151" fill="none" xmlns="http://www.w3.org/2000/svg">
<g clip-path="url(#clip0_5776_2386)">
<path d="M4.66668 131.472C3.34446 131.472 2.23691 131.024 1.34402 130.128C0.451127 129.232 0.0031272 128.124 1.6092e-05 126.805C-0.00309502 125.486 0.444905 124.378 1.34402 123.482C2.24313 122.586 3.35068 122.138 4.66668 122.138H9.33335V61.4715C9.33335 58.9049 10.248 56.7084 12.0773 54.8822C13.9067 53.056 16.1031 52.1413 18.6667 52.1382H93.3334C95.9 52.1382 98.098 53.0529 99.9274 54.8822C101.757 56.7115 102.67 58.908 102.667 61.4715V122.138H107.333C108.656 122.138 109.765 122.586 110.661 123.482C111.557 124.378 112.003 125.486 112 126.805C111.997 128.124 111.549 129.233 110.656 130.132C109.763 131.031 108.656 131.478 107.333 131.472H4.66668ZM49 122.138H63C63.6222 122.138 64.1667 121.905 64.6334 121.438C65.1 120.972 65.3334 120.427 65.3334 119.805C65.3334 119.183 65.1 118.638 64.6334 118.172C64.1667 117.705 63.6222 117.472 63 117.472H49C48.3778 117.472 47.8334 117.705 47.3667 118.172C46.9 118.638 46.6667 119.183 46.6667 119.805C46.6667 120.427 46.9 120.972 47.3667 121.438C47.8334 121.905 48.3778 122.138 49 122.138ZM18.6667 108.138H93.3334V61.4715H18.6667V108.138Z" fill="#333333"/>
<rect x="16.4141" y="57.4487" width="79.1724" height="54.069" rx="3.07692" fill="white"/>
<rect x="59.8633" y="67.104" width="28.9655" height="10.6207" fill="#007E47"/>
<rect x="59.8633" y="79.6558" width="28.9655" height="7.72414" fill="#8FDE29"/>
<rect x="23.1719" y="102.828" width="65.6552" height="3.86207" fill="#333333"/>
<rect x="23.1719" y="91.2417" width="14.4828" height="7.72414" fill="#007E47"/>
<rect x="39.5859" y="91.2417" width="14.4828" height="7.72414" fill="#007E47"/>
<rect x="56.9648" y="91.2417" width="14.4828" height="7.72414" fill="#007E47"/>
<rect x="73.3789" y="91.2417" width="14.4828" height="7.72414" fill="#007E47"/>
<rect x="23.1719" y="64.2075" width="33.7931" height="24.1379" fill="#DFEFE5"/>
<path d="M44.6546 78.8281C45.2857 78.8281 45.8909 79.0787 46.3371 79.5249C46.7833 79.9711 47.0339 80.5763 47.0339 81.2074V81.7744C47.0339 84.6114 43.695 86.7591 39.1029 86.7591C34.5108 86.7591 31.1719 84.7232 31.1719 81.7744V81.2074C31.1719 80.5763 31.4226 79.9711 31.8688 79.5249C32.315 79.0787 32.9202 78.8281 33.5512 78.8281H44.6546ZM39.1029 67.7246C39.7278 67.7246 40.3466 67.8477 40.924 68.0868C41.5013 68.326 42.0259 68.6765 42.4678 69.1184C42.9096 69.5603 43.2602 70.0848 43.4993 70.6622C43.7384 71.2395 43.8615 71.8583 43.8615 72.4832C43.8615 73.1081 43.7384 73.7269 43.4993 74.3043C43.2602 74.8816 42.9096 75.4062 42.4678 75.8481C42.0259 76.29 41.5013 76.6405 40.924 76.8796C40.3466 77.1188 39.7278 77.2419 39.1029 77.2419C37.8408 77.2419 36.6305 76.7405 35.7381 75.8481C34.8456 74.9557 34.3443 73.7453 34.3443 72.4832C34.3443 71.2212 34.8456 70.0108 35.7381 69.1184C36.6305 68.226 37.8408 67.7246 39.1029 67.7246Z" fill="#007E47"/>
</g>
<g filter="url(#filter0_d_5776_2386)">
<path fill-rule="evenodd" clip-rule="evenodd" d="M58.2316 43.9066C65.1718 42.793 70.485 36.5619 70.485 29.0419C70.485 20.7345 64.0009 14 56.0023 14C48.0037 14 41.5195 20.7345 41.5195 29.0419C41.5195 36.5619 46.8328 42.793 53.773 43.9066L56.0023 50.8528L58.2316 43.9066Z" fill="white"/>
</g>
<path fill-rule="evenodd" clip-rule="evenodd" d="M61.2798 25.1405C60.6393 24.427 59.7499 24.0242 58.8205 24.0269C57.8622 24.0276 56.9461 24.4452 56.2868 25.1821L56.0005 25.4812L55.7142 25.1696C55.0536 24.4361 54.1373 24.0229 53.1804 24.0269C52.2511 24.0242 51.3616 24.427 50.7212 25.1405C49.3759 26.6806 49.3948 29.064 50.7644 30.5798L55.5769 35.8696C55.6878 35.9915 55.8407 36.0603 56.0005 36.0603C56.1603 36.0603 56.3132 35.9915 56.4241 35.8696L61.2366 30.5798C62.6061 29.064 62.625 26.6806 61.2798 25.1405Z" fill="#FF7000"/>
<defs>
<filter id="filter0_d_5776_2386" x="27.4376" y="0.504817" width="57.1287" height="65.0169" filterUnits="userSpaceOnUse" color-interpolation-filters="sRGB">
<feFlood flood-opacity="0" result="BackgroundImageFix"/>
<feColorMatrix in="SourceAlpha" type="matrix" values="0 0 0 0 0 0 0 0 0 0 0 0 0 0 0 0 0 0 127 0" result="hardAlpha"/>
<feOffset dy="0.586747"/>
<feGaussianBlur stdDeviation="7.04097"/>
<feColorMatrix type="matrix" values="0 0 0 0 0 0 0 0 0 0 0 0 0 0 0 0 0 0 0.1 0"/>
<feBlend mode="normal" in2="BackgroundImageFix" result="effect1_dropShadow_5776_2386"/>
<feBlend mode="normal" in="SourceGraphic" in2="effect1_dropShadow_5776_2386" result="shape"/>
</filter>
<clipPath id="clip0_5776_2386">
<rect width="112" height="112" fill="white" transform="translate(0 38.1382)"/>
</clipPath>
</defs>
</svg>
