<svg width="192" height="145" viewBox="0 0 192 145" fill="none" xmlns="http://www.w3.org/2000/svg">
<g filter="url(#filter0_ddd_5776_3460)">
<rect x="26.9961" y="17" width="128.002" height="90.418" fill="white" stroke="#333333" stroke-width="2"/>
<rect x="31.9961" y="22" width="117.991" height="80" fill="#007E47"/>
<g clip-path="url(#clip0_5776_3460)">
<mask id="mask0_5776_3460" style="mask-type:luminance" maskUnits="userSpaceOnUse" x="69" y="41" width="43" height="42">
<path d="M69.8516 41.0625H111.358V82.5723H69.8516V41.0625Z" fill="white"/>
</mask>
<g mask="url(#mask0_5776_3460)">
<path d="M99.8661 68.3048H94.3147C93.6921 68.3048 93.1992 67.812 93.1992 67.1894V61.6379C93.1992 61.0283 93.6921 60.5225 94.3147 60.5225H99.8661C100.476 60.5225 100.982 61.0153 100.982 61.6379V67.1894C100.982 67.812 100.489 68.3048 99.8661 68.3048Z" fill="#007E47"/>
<path d="M93.5627 42.2592L93.5679 42.2656L110.112 58.5647L110.116 58.5686C110.51 58.9521 110.823 59.4107 111.037 59.9173C111.25 60.4238 111.36 60.9681 111.36 61.5179C111.36 62.0677 111.249 62.6118 111.035 63.1181C110.82 63.6244 110.507 64.0826 110.112 64.4656C109.402 65.1667 108.463 65.5885 107.467 65.6538V73.6328C108.576 73.8981 109.563 74.5291 110.269 75.4242C110.975 76.3192 111.359 77.426 111.359 78.5659V81.277H69.8521V78.5659C69.8503 77.4254 70.2335 76.3176 70.9398 75.422C71.646 74.5265 72.6338 73.8956 73.7433 73.6315V65.7057C72.7478 65.637 71.8095 65.2152 71.0973 64.5162C70.7032 64.1317 70.39 63.6724 70.1761 63.1651C69.9621 62.6579 69.8518 62.1129 69.8516 61.5624C69.8513 61.0119 69.9612 60.4668 70.1747 59.9594C70.3881 59.4519 70.7009 58.9923 71.0947 58.6075L71.0986 58.6049L75.0404 54.7238V45.6305C75.0404 43.7328 76.6073 42.359 78.3389 42.359H82.1315C83.5609 42.359 84.845 43.293 85.2705 44.6537L87.6895 42.2682C89.3239 40.6442 91.944 40.6753 93.5601 42.2579M82.8229 50.7025V45.6305C82.8202 45.4493 82.746 45.2765 82.6165 45.1497C82.4871 45.0229 82.3128 44.9524 82.1315 44.9534H78.3389C78.2479 44.9512 78.1575 44.967 78.0727 45C77.9879 45.0329 77.9106 45.0824 77.8451 45.1455C77.7795 45.2086 77.7272 45.2841 77.6911 45.3676C77.6549 45.4511 77.6357 45.5409 77.6346 45.6318V55.8095L82.8229 50.7025ZM76.3375 61.4873V76.0883H78.9316C78.9316 75.3749 79.5153 74.7911 80.2287 74.7911V62.3252C80.2287 61.3523 81.0199 60.5611 81.9928 60.5611H88.8543C89.8271 60.5611 90.6184 61.3523 90.6184 62.3252V74.7937C91.3019 74.8275 91.8506 75.3969 91.8506 76.0883H104.873V61.4354L90.6313 47.409L76.3375 61.4873ZM89.3083 67.6566C89.3083 67.4846 89.24 67.3197 89.1183 67.198C88.9967 67.0764 88.8318 67.0081 88.6598 67.0081C88.4878 67.0081 88.3228 67.0764 88.2012 67.198C88.0795 67.3197 88.0112 67.4846 88.0112 67.6566C88.0112 67.8287 88.0795 67.9936 88.2012 68.1153C88.3228 68.2369 88.4878 68.3052 88.6598 68.3052C88.8318 68.3052 88.9967 68.2369 89.1183 68.1153C89.24 67.9936 89.3083 67.8287 89.3083 67.6566Z" fill="white"/>
</g>
</g>
</g>
<rect x="1.125" y="73.125" width="51.7459" height="51.75" rx="25.873" fill="white"/>
<rect x="1.125" y="73.125" width="51.7459" height="51.75" rx="25.873" stroke="#007E47" stroke-width="2.25"/>
<path d="M17.3041 95.3537C13.689 96.2371 11 99.5775 11 103.562C11 108.223 14.6759 112 19.2106 112C19.9882 112 20.7411 111.889 21.4546 111.681M37.3192 95.3537C40.9344 96.2371 43.6226 99.5775 43.6226 103.562C43.6226 108.223 39.9466 112 35.4119 112C34.6344 112 33.8814 111.889 33.1688 111.681M37.2741 95.125C37.2741 89.5335 32.8625 85 27.4213 85C21.9801 85 17.5685 89.5335 17.5685 95.125M21.7272 103.663L27.4213 109.533L33.2771 103.562M27.4213 95.125V106.548" stroke="#333333" stroke-width="3" stroke-linecap="round" stroke-linejoin="round"/>
<defs>
<filter id="filter0_ddd_5776_3460" x="8.99609" y="0" width="183.002" height="144.418" filterUnits="userSpaceOnUse" color-interpolation-filters="sRGB">
<feFlood flood-opacity="0" result="BackgroundImageFix"/>
<feColorMatrix in="SourceAlpha" type="matrix" values="0 0 0 0 0 0 0 0 0 0 0 0 0 0 0 0 0 0 127 0" result="hardAlpha"/>
<feOffset/>
<feGaussianBlur stdDeviation="4"/>
<feComposite in2="hardAlpha" operator="out"/>
<feColorMatrix type="matrix" values="0 0 0 0 0.721569 0 0 0 0 0.92549 0 0 0 0 0.709804 0 0 0 0.1 0"/>
<feBlend mode="normal" in2="BackgroundImageFix" result="effect1_dropShadow_5776_3460"/>
<feColorMatrix in="SourceAlpha" type="matrix" values="0 0 0 0 0 0 0 0 0 0 0 0 0 0 0 0 0 0 127 0" result="hardAlpha"/>
<feOffset dx="3" dy="4"/>
<feGaussianBlur stdDeviation="10"/>
<feComposite in2="hardAlpha" operator="out"/>
<feColorMatrix type="matrix" values="0 0 0 0 0.721569 0 0 0 0 0.92549 0 0 0 0 0.709804 0 0 0 0.05 0"/>
<feBlend mode="normal" in2="effect1_dropShadow_5776_3460" result="effect2_dropShadow_5776_3460"/>
<feColorMatrix in="SourceAlpha" type="matrix" values="0 0 0 0 0 0 0 0 0 0 0 0 0 0 0 0 0 0 127 0" result="hardAlpha"/>
<feOffset dx="12" dy="12"/>
<feGaussianBlur stdDeviation="12"/>
<feComposite in2="hardAlpha" operator="out"/>
<feColorMatrix type="matrix" values="0 0 0 0 0.721569 0 0 0 0 0.92549 0 0 0 0 0.709804 0 0 0 0.15 0"/>
<feBlend mode="normal" in2="effect2_dropShadow_5776_3460" result="effect3_dropShadow_5776_3460"/>
<feBlend mode="normal" in="SourceGraphic" in2="effect3_dropShadow_5776_3460" result="shape"/>
</filter>
<clipPath id="clip0_5776_3460">
<rect width="41.5066" height="41.5098" fill="white" transform="translate(69.8516 41.0625)"/>
</clipPath>
</defs>
</svg>
