<svg width="164" height="102" viewBox="0 0 164 102" fill="none" xmlns="http://www.w3.org/2000/svg">
<path d="M67.5025 96.4444C66.3151 96.4444 65.1763 95.9719 64.3367 95.1309C63.4971 94.2899 63.0254 93.1493 63.0254 91.96V85.5537C63.0254 85.044 63.2275 84.5552 63.5874 84.1947C63.9472 83.8343 64.4353 83.6318 64.9442 83.6318C65.453 83.6318 65.9411 83.8343 66.3009 84.1947C66.6608 84.5552 66.8629 85.044 66.8629 85.5537V91.96C66.8629 92.3136 67.1495 92.6006 67.5025 92.6006H94.3652C94.5349 92.6006 94.6975 92.5331 94.8175 92.413C94.9374 92.2928 95.0048 92.1299 95.0048 91.96V85.5537C95.0048 85.044 95.207 84.5552 95.5668 84.1947C95.9266 83.8343 96.4147 83.6318 96.9236 83.6318C97.4325 83.6318 97.9205 83.8343 98.2803 84.1947C98.6402 84.5552 98.8423 85.044 98.8423 85.5537V91.96C98.8423 93.1493 98.3707 94.2899 97.531 95.1309C96.6914 95.9719 95.5526 96.4444 94.3652 96.4444H67.5025Z" fill="#333333"/>
<path d="M79.0146 80.2719V65.6939C79.0146 65.1841 79.2168 64.6953 79.5766 64.3349C79.9365 63.9745 80.4245 63.772 80.9334 63.772C81.4423 63.772 81.9303 63.9745 82.2902 64.3349C82.65 64.6953 82.8522 65.1841 82.8522 65.6939V80.2719L87.8921 75.2264C88.0702 75.048 88.2816 74.9065 88.5142 74.81C88.7469 74.7135 88.9962 74.6638 89.248 74.6638C89.4999 74.6638 89.7492 74.7135 89.9819 74.81C90.2145 74.9065 90.4259 75.048 90.604 75.2264C90.782 75.4047 90.9233 75.6165 91.0196 75.8495C91.116 76.0825 91.1656 76.3323 91.1656 76.5845C91.1656 76.8367 91.116 77.0865 91.0196 77.3195C90.9233 77.5525 90.782 77.7643 90.604 77.9426L82.2893 86.2708C81.9296 86.6307 81.4419 86.8328 80.9334 86.8328C80.4249 86.8328 79.9372 86.6307 79.5775 86.2708L71.2628 77.9426C71.0848 77.7643 70.9435 77.5525 70.8471 77.3195C70.7508 77.0865 70.7012 76.8367 70.7012 76.5845C70.7012 76.3323 70.7508 76.0825 70.8471 75.8495C70.9435 75.6165 71.0848 75.4047 71.2628 75.2264C71.4409 75.048 71.6523 74.9065 71.8849 74.81C72.1176 74.7135 72.3669 74.6638 72.6187 74.6638C72.8706 74.6638 73.1199 74.7135 73.3526 74.81C73.5852 74.9065 73.7966 75.048 73.9747 75.2264L79.0146 80.2719Z" fill="#333333"/>
<rect x="0.631712" y="1.15716" width="60.4742" height="40.9945" rx="1.93529" transform="matrix(0.959339 0.282258 -0.281395 0.959592 104.549 16.6414)" fill="white" stroke="#333333" stroke-width="1.86361"/>
<rect width="26.9825" height="2.7951" transform="matrix(0.959339 0.282258 -0.281395 0.959592 106.053 24.2271)" fill="#333333"/>
<rect width="22.3303" height="8.3853" transform="matrix(0.959339 0.282258 -0.281395 0.959592 134.893 32.6133)" fill="#007E47"/>
<rect width="22.3303" height="6.5219" transform="matrix(0.959339 0.282258 -0.281395 0.959592 131.182 41.9326)" fill="#8FDE29"/>
<rect width="10.2347" height="6.5219" transform="matrix(0.959339 0.282258 -0.281395 0.959592 130.244 50.3188)" fill="#DFEFE5"/>
<rect width="10.2347" height="6.5219" transform="matrix(0.959339 0.282258 -0.281395 0.959592 140.475 54.0459)" fill="#DFEFE5"/>
<rect width="50.2432" height="2.7951" transform="matrix(0.959339 0.282258 -0.281395 0.959592 98.6152 50.3184)" fill="#333333"/>
<rect width="26.9825" height="19.5657" transform="matrix(0.959339 0.282258 -0.281395 0.959592 106.053 28.8867)" fill="#DFEFE5"/>
<path d="M119.991 41.634C118.952 45.1794 112.567 49.0778 112.567 49.0778C112.567 49.0778 109.301 42.34 110.341 38.7946C111.1 36.2038 113.946 34.671 116.566 35.4417C119.185 36.2124 120.751 39.0431 119.991 41.634ZM116.78 40.8374C117.02 40.0193 116.433 38.9577 115.606 38.7143C114.779 38.471 113.751 38.9094 113.472 39.8639C113.232 40.6821 113.681 41.7031 114.646 41.987C115.611 42.271 116.678 41.6962 116.78 40.8374Z" fill="#FF7000"/>
<rect x="44.6525" y="0.931806" width="75.3485" height="51.2502" rx="1.93529" fill="white" stroke="#333333" stroke-width="1.86361"/>
<rect x="49.3066" y="7.45459" width="33.4912" height="3.72728" fill="#333333"/>
<rect x="86.5176" y="7.4541" width="26.979" height="10.25" fill="#007E47"/>
<rect x="86.5176" y="19.5684" width="26.979" height="7.45456" fill="#8FDE29"/>
<rect x="86.5176" y="30.75" width="13.0243" height="7.45456" fill="#DFEFE5"/>
<rect x="100.467" y="30.75" width="13.0243" height="7.45456" fill="#DFEFE5"/>
<rect x="49.3066" y="41.9321" width="62.3297" height="3.72728" fill="#333333"/>
<rect x="49.3066" y="13.9775" width="33.4912" height="24.2273" fill="#DFEFE5"/>
<path d="M71.2826 23.8536C71.2826 28.4312 65.0524 35.2976 65.0524 35.2976C65.0524 35.2976 58.8223 28.4312 58.8223 23.8536C58.8223 20.5084 61.6703 17.6914 65.0524 17.6914C68.4345 17.6914 71.2826 20.5084 71.2826 23.8536ZM67.1885 24.0296C67.1885 22.9733 66.1204 21.9169 65.0524 21.9169C63.9844 21.9169 62.9164 22.7972 62.9164 24.0296C62.9164 25.086 63.8064 26.1424 65.0524 26.1424C66.2985 26.1424 67.3665 25.086 67.1885 24.0296Z" fill="#FF7000"/>
<rect x="1.08383" y="0.74888" width="60.4694" height="40.9978" rx="1.93529" transform="matrix(0.983653 -0.180072 0.179497 0.983759 -0.118658 28.1614)" fill="white" stroke="#333333" stroke-width="1.86361"/>
<rect width="26.9804" height="2.79531" transform="matrix(0.983653 -0.180072 0.179497 0.983759 4.64648 33.5449)" fill="#333333"/>
<rect width="22.3286" height="8.38594" transform="matrix(0.983653 -0.180072 0.179497 0.983759 34.4199 27.9541)" fill="#007E47"/>
<rect width="22.3286" height="6.5224" transform="matrix(0.983653 -0.180072 0.179497 0.983759 36.2754 37.2725)" fill="#8FDE29"/>
<rect width="10.234" height="6.5224" transform="matrix(0.983653 -0.180074 0.179495 0.983759 38.1387 46.5903)" fill="#DFEFE5"/>
<rect width="10.234" height="6.5224" transform="matrix(0.983653 -0.180072 0.179497 0.983759 49.3027 43.7949)" fill="#DFEFE5"/>
<rect width="50.2394" height="2.79531" transform="matrix(0.983653 -0.180074 0.179495 0.983759 10.2285 60.5679)" fill="#333333"/>
<rect width="26.9804" height="19.5672" transform="matrix(0.983653 -0.180074 0.179495 0.983759 5.58398 38.2041)" fill="#DFEFE5"/>
<path d="M25.2462 42.8641C25.9094 46.4991 21.9571 52.8572 21.9571 52.8572C21.9571 52.8572 16.015 48.3104 15.3518 44.6754C14.8671 42.0191 16.7206 39.3682 19.4062 38.8766C22.0918 38.3849 24.7615 40.2078 25.2462 42.8641ZM22.0207 43.5991C21.8676 42.7602 20.8665 42.0767 20.0184 42.2319C19.1703 42.3872 18.4497 43.2415 18.6283 44.2201C18.7814 45.0589 19.6412 45.7684 20.6306 45.5873C21.62 45.4061 22.3151 44.412 22.0207 43.5991Z" fill="#FF7000"/>
</svg>
