<svg width="16" height="15" viewBox="0 0 16 15" fill="none" xmlns="http://www.w3.org/2000/svg">
<path d="M11.3625 9.92157L10.9833 10.2991C10.9833 10.2991 10.0808 11.1957 7.61832 8.7474C5.15582 6.29907 6.05832 5.4024 6.05832 5.4024L6.29665 5.16407C6.88582 4.57907 6.94165 3.63907 6.42748 2.9524L5.37748 1.5499C4.74082 0.699902 3.51165 0.587402 2.78248 1.3124L1.47415 2.6124C1.11332 2.9724 0.871651 3.4374 0.900817 3.95407C0.975818 5.27657 1.57415 8.12074 4.91082 11.4391C8.44998 14.9574 11.7708 15.0974 13.1283 14.9707C13.5583 14.9307 13.9317 14.7124 14.2325 14.4124L15.4158 13.2357C16.2158 12.4416 15.9908 11.0791 14.9675 10.5232L13.3758 9.6574C12.7042 9.29324 11.8875 9.3999 11.3625 9.92157Z" fill="#333333"/>
</svg>
