<svg width="51" height="51" viewBox="0 0 51 51" fill="none" xmlns="http://www.w3.org/2000/svg">
<path d="M31.0386 29.9487L30.2648 30.71C30.2648 30.71 28.423 32.5184 23.3975 27.5806C18.3721 22.6427 20.2139 20.8343 20.2139 20.8343L20.7003 20.3536C21.9027 19.1738 22.0166 17.278 20.9673 15.8931L18.8244 13.0645C17.5251 11.3502 15.0166 11.1233 13.5286 12.5855L10.8585 15.2074C10.1221 15.9334 9.62893 16.8712 9.68845 17.9133C9.84151 20.5805 11.0626 26.3167 17.8721 33.0092C25.0948 40.1051 31.872 40.3874 34.6424 40.1319C35.5199 40.0513 36.2818 39.6109 36.8958 39.0059L39.3107 36.6328C40.9433 35.0311 40.4842 32.2831 38.3957 31.1621L35.1475 29.4159C33.7767 28.6814 32.1101 28.8966 31.0386 29.9487Z" fill="#007E47"/>
</svg>
