<svg width="107" height="95" viewBox="0 0 107 95" fill="none" xmlns="http://www.w3.org/2000/svg">
<path d="M67.1995 32.4971H9.60068C8.32767 32.4971 7.10679 32.9971 6.20664 33.8871C5.30648 34.7772 4.80078 35.9843 4.80078 37.243V75.2108C4.80078 76.4695 5.30648 77.6766 6.20664 78.5667C7.10679 79.4567 8.32767 79.9567 9.60068 79.9567H67.1995C68.4725 79.9567 69.6934 79.4567 70.5935 78.5667C71.4937 77.6766 71.9994 76.4695 71.9994 75.2108V37.243C71.9994 35.9843 71.4937 34.7772 70.5935 33.8871C69.6934 32.9971 68.4725 32.4971 67.1995 32.4971ZM67.1995 37.243V44.362H9.60068V37.243H67.1995ZM9.60068 75.2108V49.108H67.1995V75.2108H9.60068Z" fill="#007E47"/>
<path d="M14.4004 65.7188H38.3999V70.4647H14.4004V65.7188Z" fill="#007E47"/>
<path fill-rule="evenodd" clip-rule="evenodd" d="M57.7324 26.0245C57.7324 13.2169 68.1153 2.83398 80.923 2.83398C93.7306 2.83398 104.113 13.2169 104.113 26.0245C104.113 38.8321 93.7306 49.215 80.923 49.215C76.9191 49.215 73.1461 48.199 69.8562 46.4106L60.7246 48.1084C60.4665 48.1561 60.2007 48.1404 59.9501 48.0626C59.6995 47.9847 59.4715 47.8471 59.286 47.6615C59.1004 47.4759 58.9628 47.248 58.8849 46.9974C58.8071 46.7468 58.7913 46.481 58.8391 46.2229L60.539 37.0912C58.6916 33.6955 57.7265 29.8902 57.7324 26.0245Z" fill="#FFA418"/>
<path fill-rule="evenodd" clip-rule="evenodd" d="M82.5375 23.9828C82.2667 24.2509 81.8993 24.4014 81.5163 24.4014C81.1333 24.4014 80.7659 24.2509 80.4951 23.9828L73.2727 16.8341C73.0095 16.5645 72.864 16.2033 72.8672 15.8284C72.8705 15.4536 73.0224 15.095 73.2903 14.8299C73.5581 14.5648 73.9204 14.4144 74.2991 14.4112C74.6779 14.4079 75.0427 14.552 75.3152 14.8125L82.5375 21.9612C82.8083 22.2293 82.9605 22.5929 82.9605 22.972C82.9605 23.3511 82.8083 23.7147 82.5375 23.9828Z" fill="white"/>
<path fill-rule="evenodd" clip-rule="evenodd" d="M80.4971 23.9828C80.768 24.2509 81.1354 24.4014 81.5184 24.4014C81.9014 24.4014 82.2688 24.2509 82.5396 23.9828L89.762 16.8341C90.0251 16.5645 90.1707 16.2033 90.1674 15.8284C90.1642 15.4536 90.0122 15.095 89.7444 14.8299C89.4766 14.5648 89.1143 14.4144 88.7356 14.4112C88.3568 14.4079 87.992 14.552 87.7195 14.8125L80.4971 21.9612C80.2263 22.2293 80.0742 22.5929 80.0742 22.972C80.0742 23.3511 80.2263 23.7147 80.4971 23.9828Z" fill="white"/>
<path fill-rule="evenodd" clip-rule="evenodd" d="M72.8496 24.4014C72.8496 24.0222 73.0018 23.6586 73.2727 23.3904C73.5436 23.1223 73.911 22.9717 74.2941 22.9717H88.7389C89.122 22.9717 89.4894 23.1223 89.7603 23.3904C90.0312 23.6586 90.1833 24.0222 90.1833 24.4014C90.1833 24.7806 90.0312 25.1443 89.7603 25.4124C89.4894 25.6805 89.122 25.8312 88.7389 25.8312H74.2941C73.911 25.8312 73.5436 25.6805 73.2727 25.4124C73.0018 25.1443 72.8496 24.7806 72.8496 24.4014ZM72.8496 29.4055C72.8496 29.0263 73.0018 28.6627 73.2727 28.3945C73.5436 28.1264 73.911 27.9758 74.2941 27.9758H88.7389C89.122 27.9758 89.4894 28.1264 89.7603 28.3945C90.0312 28.6627 90.1833 29.0263 90.1833 29.4055C90.1833 29.7847 90.0312 30.1483 89.7603 30.4165C89.4894 30.6846 89.122 30.8352 88.7389 30.8352H74.2941C73.911 30.8352 73.5436 30.6846 73.2727 30.4165C73.0018 30.1483 72.8496 29.7847 72.8496 29.4055Z" fill="white"/>
<path fill-rule="evenodd" clip-rule="evenodd" d="M81.5187 24.4014C81.9018 24.4014 82.2692 24.552 82.5401 24.8201C82.811 25.0883 82.9632 25.4519 82.9632 25.8311V35.8393C82.9632 36.2185 82.811 36.5821 82.5401 36.8502C82.2692 37.1184 81.9018 37.269 81.5187 37.269C81.1356 37.269 80.7682 37.1184 80.4973 36.8502C80.2264 36.5821 80.0742 36.2185 80.0742 35.8393V25.8311C80.0742 25.4519 80.2264 25.0883 80.4973 24.8201C80.7682 24.552 81.1356 24.4014 81.5187 24.4014Z" fill="white"/>
</svg>
