<svg width="100" height="101" viewBox="0 0 100 101" fill="none" xmlns="http://www.w3.org/2000/svg">
<path d="M41.2804 75.1099H5.69734V23.4873H41.2804V44.1093L44.5158 45.7141V19.8413C44.5158 17.0193 42.1827 14.7109 39.3335 14.7109H7.64131C4.78607 14.7109 2.45898 17.0191 2.45898 19.8413V81.0959C2.45898 83.9153 4.78607 86.2263 7.64131 86.2263H39.3333C42.1827 86.2263 44.5156 83.9153 44.5156 81.0959V62.4174C43.4246 61.8776 42.3335 61.3379 41.2802 60.8126L41.2804 75.1099ZM23.4873 81.3945C22.6314 81.3945 21.935 80.7055 21.935 79.8557C21.935 79.0059 22.6314 78.3169 23.4873 78.3169C24.3432 78.3169 25.0456 79.0059 25.0456 79.8557C25.0456 80.7055 24.3434 81.3945 23.4873 81.3945Z" fill="#007E47"/>
<path d="M87.6337 43.9742L69.568 35.0025C68.6859 34.5661 67.7342 34.3537 66.8056 34.3565C64.5539 34.3508 62.3776 35.5853 61.2983 37.7154C61.0255 38.2494 60.8515 38.8065 60.7527 39.3691C60.6396 39.3634 60.5263 39.3518 60.416 39.3518C58.1643 39.3461 55.988 40.5807 54.9057 42.7108C54.4762 43.552 54.2702 44.4593 54.2645 45.3434C53.6115 45.5588 53.0167 45.886 52.5437 46.2994C51.7225 47 51.1392 47.8669 50.6722 48.7799C50.4603 49.2049 50.3297 49.6413 50.2486 50.0948L38.3866 44.2035C37.5045 43.7671 36.5527 43.5547 35.6242 43.5547C33.3695 43.5518 31.1962 44.7893 30.1109 46.9166V46.9196C29.6699 47.7894 29.461 48.7283 29.461 49.647C29.4552 51.8749 30.703 54.0309 32.8618 55.1019L55.4513 66.3158C55.7851 66.4823 59.5659 68.357 59.917 68.5323L59.9113 68.5293C60.1434 68.6412 60.393 68.7906 60.6019 68.937L52.5382 70.8463C49.4391 71.587 47.3558 74.3144 47.3558 77.3404C47.3558 77.8514 47.4167 78.3769 47.5445 78.8965C48.2873 81.9655 51.0497 84.0269 54.1081 84.0269C54.6305 84.0269 55.1527 83.9667 55.6751 83.8432H55.6781L72.7833 79.7952C76.3582 79.0229 78.5809 78.288 81.5929 77.4266C84.3727 76.6314 87.0567 75.7959 89.5029 74.3576C91.946 72.9306 94.1078 70.8406 95.6312 67.8118C96.925 65.2624 97.5401 62.5379 97.5401 59.8591C97.543 53.3566 93.9101 47.0864 87.6337 43.9742ZM92.172 66.0949C90.9475 68.4806 89.4386 69.9276 87.5177 71.0675C85.6025 72.2016 83.2347 72.9768 80.5188 73.7461C77.4052 74.6361 75.3392 75.3222 71.9386 76.0544L71.9009 76.066L54.7752 80.1199H54.7809C54.5546 80.1715 54.3282 80.1945 54.1078 80.1974C52.8108 80.1945 51.6182 79.316 51.3047 78.0069C51.2525 77.7772 51.2263 77.5589 51.2263 77.3408C51.2263 76.0603 52.1142 74.8803 53.4403 74.5674L61.9394 72.5577C62.0989 72.5231 62.2441 72.4658 62.3892 72.3912C63.0681 72.0351 63.6427 71.6362 64.104 71.0877C64.5653 70.5508 64.8845 69.7958 64.8787 69.055C64.8787 68.3976 64.6581 67.832 64.4 67.4013C64.0024 66.7467 63.5149 66.3162 63.0391 65.9544C62.5632 65.5983 62.0816 65.3227 61.6493 65.1075L61.6463 65.1046C61.3039 64.9381 57.5201 63.0605 57.1864 62.894L34.5941 51.6772C33.7903 51.281 33.3318 50.4829 33.3318 49.6474C33.3318 49.3029 33.4072 48.9641 33.5757 48.6339C33.976 47.8414 34.7798 47.3879 35.6242 47.385C35.9694 47.385 36.3148 47.4596 36.6513 47.6262L52.9064 55.6994C53.0225 55.7569 53.1443 55.8029 53.2721 55.8343C53.2953 55.84 53.3185 55.8429 53.3417 55.8486C53.4403 55.8687 53.5449 55.8889 53.6435 55.8975C53.6784 55.8975 53.7074 55.8946 53.7363 55.8946C53.8322 55.8946 53.925 55.8975 54.0207 55.883C54.1078 55.8714 54.1976 55.8485 54.2847 55.8255C54.3167 55.8168 54.3514 55.8139 54.3833 55.8025C54.3833 55.8025 54.3833 55.8025 54.3863 55.8025C54.6184 55.725 54.8419 55.6015 55.0363 55.4407C55.042 55.4321 55.048 55.4235 55.0537 55.4178C55.2337 55.2627 55.3904 55.0703 55.5065 54.8436C55.5646 54.7287 55.611 54.6082 55.6458 54.4847C55.6515 54.4561 55.6515 54.4272 55.6575 54.3986C55.6807 54.3037 55.7009 54.2091 55.7069 54.1143C55.7098 54.0798 55.7039 54.0483 55.7039 54.0167C55.7039 53.9249 55.7069 53.833 55.6922 53.7411C55.6864 53.6895 55.669 53.6377 55.6573 53.586C55.6456 53.5171 55.6341 53.4482 55.6109 53.3823C55.6109 53.3793 55.6109 53.3793 55.6109 53.3766C55.5295 53.144 55.4077 52.9259 55.2424 52.7364C55.2395 52.7307 55.2307 52.7278 55.225 52.7192C55.0654 52.5411 54.871 52.386 54.6417 52.2741C54.4357 52.1679 54.3224 52.0445 54.2064 51.8348C54.0961 51.6311 54.0264 51.3352 54.0294 51.0539C54.0264 50.7897 54.099 50.5516 54.131 50.497C54.4385 49.8883 54.7867 49.4348 55.0653 49.2051C55.3555 48.9697 55.4948 48.9324 55.721 48.9238C55.8081 48.9238 55.9184 48.9354 56.0605 48.9727C56.783 49.1651 57.5431 48.9297 58.0306 48.3698C58.5181 47.81 58.6342 47.0291 58.3324 46.3516C58.1989 46.0473 58.1292 45.7258 58.1292 45.41C58.1292 45.0768 58.2018 44.7496 58.3643 44.428C58.7677 43.6356 59.5714 43.1821 60.4158 43.1821C60.7583 43.1821 61.1065 43.2567 61.443 43.4233L62.032 43.7162C62.7546 44.0723 63.6193 43.9516 64.2111 43.409C64.803 42.8664 64.9946 42.0253 64.6928 41.2874C64.5768 41.0061 64.5187 40.7075 64.5187 40.4146C64.5187 40.0815 64.5941 39.7572 64.7565 39.4356C65.1569 38.6404 65.9636 38.1867 66.8051 38.1867C67.1475 38.1867 67.4957 38.2613 67.8294 38.428L85.8981 47.3969C90.8251 49.8372 93.6659 54.7523 93.6688 59.8597C93.6692 61.9608 93.1877 64.0824 92.172 66.0949Z" fill="#007E47"/>
<path d="M33.885 38.0303L29.5547 27.1807L24.9444 29.3633L31.2506 39.2775L33.885 38.0303Z" fill="#FF7000"/>
<path d="M29.0535 41.0587L21.7402 31.9492L17.9696 35.3844L26.8988 43.0216L29.0535 41.0587Z" fill="#FF7000"/>
<path d="M26.0912 44.9001L15.3242 40.3682L13.6425 45.1838L25.1302 47.6519L26.0912 44.9001Z" fill="#FF7000"/>
</svg>
