<svg width="114" height="81" viewBox="0 0 114 81" fill="none" xmlns="http://www.w3.org/2000/svg">
<path d="M20.4889 62.3798C19.3416 62.3798 18.3805 62.0286 17.6057 61.3263C16.8309 60.624 16.4422 59.7558 16.4395 58.7218C16.4368 57.6878 16.8255 56.8197 17.6057 56.1173C18.3859 55.415 19.347 55.0639 20.4889 55.0639H24.5384V7.51027C24.5384 5.49839 25.3321 3.77671 26.9195 2.34522C28.5069 0.913736 30.4129 0.196775 32.6374 0.194336H97.4291C99.6563 0.194336 101.564 0.911298 103.151 2.34522C104.738 3.77914 105.531 5.50083 105.528 7.51027V55.0639H109.578C110.725 55.0639 111.687 55.415 112.465 56.1173C113.242 56.8197 113.63 57.6878 113.627 58.7218C113.624 59.7558 113.236 60.6252 112.461 61.3299C111.686 62.0347 110.725 62.3847 109.578 62.3798H20.4889ZM58.959 55.0639H71.1075C71.6474 55.0639 72.1198 54.881 72.5248 54.5152C72.9297 54.1494 73.1322 53.7226 73.1322 53.2349C73.1322 52.7471 72.9297 52.3204 72.5248 51.9546C72.1198 51.5888 71.6474 51.4059 71.1075 51.4059H58.959C58.4191 51.4059 57.9466 51.5888 57.5417 51.9546C57.1367 52.3204 56.9343 52.7471 56.9343 53.2349C56.9343 53.7226 57.1367 54.1494 57.5417 54.5152C57.9466 54.881 58.4191 55.0639 58.959 55.0639ZM32.6374 44.09H97.4291V7.51027H32.6374V44.09Z" fill="#333333"/>
<rect x="31.2344" y="4.31152" width="68.2252" height="42.8161" rx="3.2482" fill="white"/>
<rect x="68.2227" y="12.5459" width="24.6597" height="8.23387" fill="#007E47"/>
<rect x="68.2227" y="21.6025" width="24.6597" height="6.5871" fill="#8FDE29"/>
<rect x="36.1641" y="39.7178" width="57.5394" height="2.47016" fill="#333333"/>
<rect x="36.1641" y="31.4834" width="12.3299" height="6.5871" fill="#007E47"/>
<rect x="50.9629" y="31.4834" width="12.3299" height="6.5871" fill="#007E47"/>
<rect x="65.7578" y="31.4834" width="12.3299" height="6.5871" fill="#007E47"/>
<rect x="80.5547" y="31.4834" width="12.3299" height="6.5871" fill="#007E47"/>
<rect x="36.1641" y="10.0752" width="29.5917" height="18.9379" fill="#DFEFE5"/>
<path d="M55.0713 21.2496C55.6319 21.2496 56.1695 21.4541 56.5659 21.8181C56.9623 22.1821 57.185 22.6757 57.185 23.1905V23.653C57.185 25.9672 54.2188 27.7191 50.1394 27.7191C46.06 27.7191 43.0938 26.0584 43.0938 23.653V23.1905C43.0938 22.6757 43.3164 22.1821 43.7128 21.8181C44.1092 21.4541 44.6469 21.2496 45.2074 21.2496H55.0713ZM50.1394 12.1924C50.6945 12.1924 51.2442 12.2928 51.7571 12.4879C52.27 12.6829 52.736 12.9689 53.1286 13.3293C53.5211 13.6897 53.8325 14.1177 54.045 14.5886C54.2574 15.0596 54.3668 15.5643 54.3668 16.0741C54.3668 16.5838 54.2574 17.0886 54.045 17.5595C53.8325 18.0305 53.5211 18.4584 53.1286 18.8188C52.736 19.1793 52.27 19.4652 51.7571 19.6603C51.2442 19.8553 50.6945 19.9557 50.1394 19.9557C49.0182 19.9557 47.943 19.5468 47.1502 18.8188C46.3574 18.0909 45.912 17.1036 45.912 16.0741C45.912 15.0446 46.3574 14.0573 47.1502 13.3293C47.943 12.6013 49.0182 12.1924 50.1394 12.1924Z" fill="#007E47"/>
<path fill-rule="evenodd" clip-rule="evenodd" d="M40.6758 59.4782C40.6758 70.0698 32.1039 78.6562 21.5302 78.6562C10.9565 78.6562 2.38469 70.0698 2.38469 59.4782C2.38469 48.8866 10.9565 40.3001 21.5302 40.3001C24.8357 40.3001 27.9507 41.1404 30.6667 42.6193L38.2055 41.2153C38.4186 41.1758 38.638 41.1888 38.8449 41.2532C39.0518 41.3176 39.24 41.4314 39.3932 41.5849C39.5464 41.7383 39.66 41.9268 39.7243 42.1341C39.7886 42.3413 39.8016 42.5612 39.7621 42.7746L38.3587 50.3263C39.8839 53.1344 40.6806 56.2813 40.6758 59.4782Z" fill="#FFA418"/>
<path d="M30.2068 53.0771L18.9843 63.727L13.373 58.4021" stroke="white" stroke-width="4" stroke-linecap="round" stroke-linejoin="round"/>
</svg>
