<svg width="245" height="176" viewBox="0 0 245 176" fill="none" xmlns="http://www.w3.org/2000/svg">
<path d="M32.5157 70.6865L29.209 55L22.4629 56.8683L28.6608 71.7541L32.5157 70.6865Z" fill="#FF7000"/>
<path d="M25.2719 73.6466L17.5234 59.6123L11.6184 63.3713L21.8976 75.7946L25.2719 73.6466Z" fill="#FF7000"/>
<path d="M20.3643 78.1442L6.87109 69.4878L3.46618 75.6039L18.4187 81.6391L20.3643 78.1442Z" fill="#FF7000"/>
<rect x="54.2479" y="1.24786" width="153.504" height="104.504" rx="2.59172" fill="white" stroke="#333333" stroke-width="2.49573"/>
<rect x="64" y="16" width="67" height="7" fill="#333333"/>
<rect x="138" y="16" width="55" height="20" fill="#007E47"/>
<rect x="138" y="40" width="55" height="16" fill="#8FDE29"/>
<rect x="138" y="61" width="25" height="16" fill="#E8F5EB"/>
<rect x="167" y="61" width="25" height="16" fill="#E8F5EB"/>
<rect x="64" y="84" width="128" height="7" fill="#333333"/>
<rect x="64" y="28" width="67" height="48" fill="#E8F5EB"/>
<path d="M109.306 47.8849C109.306 57.0749 96.6823 70.86 96.6823 70.86C96.6823 70.86 84.0586 57.0749 84.0586 47.8849C84.0586 41.1691 89.8294 35.5137 96.6823 35.5137C103.535 35.5137 109.306 41.1691 109.306 47.8849ZM101.01 48.2383C101.01 46.1176 98.8463 43.9968 96.6823 43.9968C94.5182 43.9968 92.3542 45.7641 92.3542 48.2383C92.3542 50.3591 94.1575 52.4799 96.6823 52.4799C99.207 52.4799 101.371 50.3591 101.01 48.2383Z" fill="#FF7000"/>
<g filter="url(#filter0_d_5776_2239)">
<rect x="25.002" y="95" width="211" height="27" rx="1.46342" fill="white"/>
<rect x="24.2915" y="94.2896" width="212.421" height="28.4209" rx="2.17385" stroke="#007E47" stroke-width="1.42087"/>
</g>
<rect width="101" height="6" transform="translate(129.002 101)" fill="#333333"/>
<rect width="101" height="6" transform="translate(129.002 110)" fill="#333333"/>
<rect x="66.002" y="110" width="57" height="8" fill="#E8F5EB"/>
<rect x="31.002" y="100" width="30" height="20" fill="#007E47"/>
<rect x="66.002" y="100" width="57" height="8" fill="#8FDE29"/>
<circle cx="25.002" cy="95" r="3.45377" fill="white" stroke="#007E47" stroke-width="1.09245"/>
<circle cx="236.002" cy="95" r="3.45377" fill="white" stroke="#007E47" stroke-width="1.09245"/>
<circle cx="25" cy="123" r="3.45377" fill="white" stroke="#007E47" stroke-width="1.09245"/>
<circle cx="236" cy="123" r="3.45377" fill="white" stroke="#007E47" stroke-width="1.09245"/>
<path d="M26.3128 175.243H98.3587C98.3587 175.243 112.724 171.865 113.419 161.243C114.45 146.29 105.53 142.726 105.53 142.726C105.53 142.157 106.167 130.687 98.6831 125.521C90.2841 119.694 82.6845 122.84 81.2827 124.105C81.2827 124.105 76.6488 110 61.4843 110C42.3462 110 40.6316 128.9 40.6316 128.9C40.6316 128.9 32.3716 126.578 27.5871 131.059C24.7278 133.78 22.8772 137.395 22.3392 141.31C22.3392 141.31 10.4532 146.859 11.5769 159.362C12.7006 171.865 26.3128 175.243 26.3128 175.243Z" fill="#E8F5EB"/>
<path d="M51.801 155.53C51.1747 154.448 50.7049 153.338 50.3917 152.199C50.0785 151.06 49.9219 149.893 49.9219 148.697C49.9219 144.882 51.2458 141.636 53.8937 138.959C56.5417 136.283 59.7733 134.945 63.5885 134.945H63.8875L61.1542 132.211L63.5458 129.82L70.3792 136.653L63.5458 143.486L61.1542 141.095L63.8875 138.361H63.5885C60.7413 138.361 58.3212 139.365 56.3281 141.373C54.3351 143.381 53.3385 145.822 53.3385 148.697C53.3385 149.437 53.424 150.163 53.5948 150.875C53.7656 151.587 54.0219 152.284 54.3635 152.968L51.801 155.53ZM63.6312 167.403L56.7979 160.57L63.6312 153.736L66.0229 156.128L63.2896 158.861H63.5885C66.4358 158.861 68.8559 157.858 70.849 155.85C72.842 153.842 73.8385 151.401 73.8385 148.526C73.8385 147.786 73.7531 147.06 73.5823 146.348C73.4115 145.636 73.1552 144.939 72.8135 144.255L75.376 141.693C76.0024 142.775 76.4722 143.885 76.7854 145.024C77.0986 146.163 77.2552 147.33 77.2552 148.526C77.2552 152.341 75.9312 155.587 73.2833 158.264C70.6354 160.94 67.4038 162.278 63.5885 162.278H63.2896L66.0229 165.011L63.6312 167.403Z" fill="#333333"/>
<defs>
<filter id="filter0_d_5776_2239" x="16.265" y="89.1889" width="228.474" height="44.4759" filterUnits="userSpaceOnUse" color-interpolation-filters="sRGB">
<feFlood flood-opacity="0" result="BackgroundImageFix"/>
<feColorMatrix in="SourceAlpha" type="matrix" values="0 0 0 0 0 0 0 0 0 0 0 0 0 0 0 0 0 0 127 0" result="hardAlpha"/>
<feOffset dy="2.92683"/>
<feGaussianBlur stdDeviation="3.65854"/>
<feColorMatrix type="matrix" values="0 0 0 0 0 0 0 0 0 0 0 0 0 0 0 0 0 0 0.05 0"/>
<feBlend mode="normal" in2="BackgroundImageFix" result="effect1_dropShadow_5776_2239"/>
<feBlend mode="normal" in="SourceGraphic" in2="effect1_dropShadow_5776_2239" result="shape"/>
</filter>
</defs>
</svg>
