<svg width="245" height="168" viewBox="0 0 245 168" fill="none" xmlns="http://www.w3.org/2000/svg">
<path d="M76.4176 168H166.008C166.008 168 183.872 163.806 184.736 150.618C186.018 132.054 174.925 127.63 174.925 127.63C174.925 126.923 175.718 112.684 166.411 106.27C155.967 99.0347 146.517 102.941 144.774 104.512C144.774 104.512 139.011 87 120.154 87C96.3554 87 94.2233 110.464 94.2233 110.464C94.2233 110.464 83.9519 107.581 78.0022 113.145C74.4466 116.523 72.1453 121.011 71.4763 125.871C71.4763 125.871 56.6958 132.761 58.0932 148.283C59.4906 163.806 76.4176 168 76.4176 168Z" fill="#E8F5EB"/>
<path d="M122.664 115.244C111.504 115.244 102.457 124.276 102.457 135.419C102.457 146.561 111.504 155.593 122.664 155.593C133.825 155.593 142.871 146.561 142.871 135.419C142.871 124.276 133.825 115.244 122.664 115.244ZM114.666 126.335L124.867 133.221C125.54 133.705 125.995 134.435 126.134 135.251C126.273 136.068 126.084 136.907 125.609 137.586C125.133 138.264 124.409 138.729 123.593 138.879C122.777 139.029 121.934 138.852 121.248 138.387C120.946 138.174 120.683 137.912 120.471 137.611L113.573 127.427C113.467 127.275 113.417 127.09 113.434 126.906C113.45 126.722 113.531 126.549 113.662 126.418C113.793 126.287 113.966 126.206 114.151 126.19C114.336 126.174 114.521 126.223 114.673 126.329L114.666 126.335ZM122.664 152.49C113.241 152.49 105.566 144.832 105.566 135.419C105.558 133.123 106.018 130.849 106.917 128.736C107.817 126.623 109.138 124.715 110.799 123.128C110.929 122.999 111.082 122.898 111.251 122.829C111.42 122.76 111.601 122.726 111.783 122.728C111.966 122.729 112.146 122.767 112.314 122.839C112.481 122.912 112.633 123.016 112.759 123.147C112.886 123.278 112.985 123.433 113.051 123.603C113.117 123.773 113.149 123.954 113.144 124.136C113.139 124.319 113.098 124.498 113.023 124.664C112.948 124.83 112.841 124.979 112.707 125.104C111.313 126.436 110.205 128.037 109.45 129.811C108.695 131.584 108.309 133.492 108.315 135.419C108.315 143.318 114.752 149.745 122.664 149.745C130.576 149.745 137.013 143.318 137.013 135.419C137.013 127.982 131.309 121.852 124.039 121.161V126.496C124.039 126.86 123.894 127.209 123.636 127.466C123.378 127.723 123.029 127.868 122.664 127.868C122.3 127.868 121.95 127.723 121.692 127.466C121.434 127.209 121.29 126.86 121.29 126.496V119.721C121.29 119.357 121.434 119.008 121.692 118.75C121.95 118.493 122.3 118.348 122.664 118.348C132.093 118.348 139.763 126.011 139.763 135.419C139.763 144.827 132.093 152.49 122.664 152.49Z" fill="#FF7000"/>
<rect x="29.2479" y="1.24786" width="71.5043" height="48.4217" rx="2.59172" fill="white" stroke="#333333" stroke-width="2.49573"/>
<rect x="34" y="7.98706" width="32" height="2.99514" fill="#333333"/>
<rect x="69" y="7.98706" width="26" height="8.98543" fill="#007E47"/>
<rect x="69" y="18.9692" width="26" height="7.98705" fill="#8FDE29"/>
<rect x="69" y="28.9531" width="12" height="7.98705" fill="#E8F5EB"/>
<rect x="82" y="28.9531" width="12" height="7.98705" fill="#E8F5EB"/>
<rect x="34" y="39.9353" width="61" height="2.99514" fill="#333333"/>
<rect x="34" y="12.979" width="32" height="22.9628" fill="#E8F5EB"/>
<path d="M54.9931 22.7237C54.9931 27.0849 48.9926 33.6268 48.9926 33.6268C48.9926 33.6268 42.9922 27.0849 42.9922 22.7237C42.9922 19.5366 45.7352 16.8528 48.9926 16.8528C52.25 16.8528 54.9931 19.5366 54.9931 22.7237ZM51.0499 22.8914C51.0499 21.885 50.0213 20.8786 48.9926 20.8786C47.964 20.8786 46.9353 21.7173 46.9353 22.8914C46.9353 23.8979 47.7925 24.9043 48.9926 24.9043C50.1927 24.9043 51.2214 23.8979 51.0499 22.8914Z" fill="#FF7000"/>
<rect x="1.24786" y="38.188" width="85.5043" height="57.4071" rx="2.59172" fill="white" stroke="#333333" stroke-width="2.49573"/>
<rect x="7" y="45.9255" width="38" height="3.99352" fill="#333333"/>
<rect x="48" y="45.9255" width="31" height="10.9822" fill="#007E47"/>
<rect x="48" y="59.9028" width="31" height="8.98543" fill="#8FDE29"/>
<rect x="48" y="71.8835" width="14" height="8.98543" fill="#E8F5EB"/>
<rect x="65" y="71.8835" width="14" height="8.98543" fill="#E8F5EB"/>
<rect x="7" y="84.8623" width="72" height="3.99352" fill="#333333"/>
<rect x="7" y="52.9143" width="38" height="26.9563" fill="#E8F5EB"/>
<path d="M32.1832 64.0329C32.1832 69.2326 25.0291 77.0322 25.0291 77.0322C25.0291 77.0322 17.875 69.2326 17.875 64.0329C17.875 60.233 21.1454 57.0332 25.0291 57.0332C28.9127 57.0332 32.1832 60.233 32.1832 64.0329ZM27.4819 64.2329C27.4819 63.0329 26.2555 61.833 25.0291 61.833C23.8027 61.833 22.5763 62.8329 22.5763 64.2329C22.5763 65.4328 23.5983 66.6327 25.0291 66.6327C26.4599 66.6327 27.6863 65.4328 27.4819 64.2329Z" fill="#FF7000"/>
<g clip-path="url(#clip0_5776_4290)">
<path d="M153.958 88.0238C152.837 88.0238 151.897 87.6444 151.14 86.8856C150.383 86.1269 150.003 85.1889 150 84.0719C149.997 82.9548 150.377 82.0169 151.14 81.2581C151.903 80.4993 152.842 80.1199 153.958 80.1199H157.917V28.7449C157.917 26.5714 158.693 24.7113 160.244 23.1648C161.796 21.6183 163.659 20.8437 165.833 20.8411H229.167C231.344 20.8411 233.208 21.6156 234.76 23.1648C236.311 24.714 237.086 26.574 237.083 28.7449V80.1199H241.042C242.163 80.1199 243.104 80.4993 243.864 81.2581C244.624 82.0169 245.003 82.9548 245 84.0719C244.997 85.1889 244.617 86.1282 243.86 86.8896C243.103 87.651 242.163 88.0291 241.042 88.0238H153.958ZM191.563 80.1199H203.438C203.965 80.1199 204.427 79.9223 204.823 79.5272C205.219 79.132 205.417 78.6709 205.417 78.144C205.417 77.6171 205.219 77.156 204.823 76.7608C204.427 76.3656 203.965 76.168 203.438 76.168H191.563C191.035 76.168 190.573 76.3656 190.177 76.7608C189.781 77.156 189.583 77.6171 189.583 78.144C189.583 78.6709 189.781 79.132 190.177 79.5272C190.573 79.9223 191.035 80.1199 191.563 80.1199ZM165.833 68.2642H229.167V28.7449H165.833V68.2642Z" fill="#333333"/>
<rect x="164" y="24.9595" width="67" height="45.9255" rx="3.07692" fill="white"/>
<rect x="170" y="63.8962" width="56" height="2.99514" fill="#333333"/>
<rect x="170" y="56.9077" width="29" height="1.99676" fill="#333333"/>
<rect x="170" y="59.9028" width="29" height="1.99676" fill="#333333"/>
<rect x="200" y="30.9497" width="12" height="16.9725" fill="#007E47"/>
<rect x="214" y="30.9497" width="12" height="16.9725" fill="#007E47"/>
<rect x="170" y="30.9497" width="29" height="23.9611" fill="#E8F5EB"/>
<rect x="200" y="49.9189" width="26" height="4.99191" fill="#8FDE29"/>
<rect x="200" y="56.9077" width="26" height="4.99191" fill="#8FDE29"/>
</g>
<path d="M113 54.8099V52.1482V46.4245C113 46.3342 113.025 46.2456 113.071 46.1681C113.118 46.0907 113.184 46.0273 113.264 45.9846C113.344 45.942 113.434 45.9218 113.524 45.9261C113.614 45.9304 113.702 45.9591 113.777 46.0091L124.376 53.0637C124.444 53.1093 124.501 53.1711 124.539 53.2435C124.578 53.316 124.599 53.3969 124.599 53.479C124.599 53.5612 124.578 53.6421 124.539 53.7146C124.501 53.787 124.444 53.8488 124.376 53.8944L113.777 60.9489C113.702 60.9989 113.614 61.0276 113.524 61.032C113.434 61.0363 113.344 61.016 113.264 60.9734C113.184 60.9308 113.118 60.8674 113.071 60.7899C113.025 60.7125 113 60.6239 113 60.5336V54.8099Z" fill="#007E47"/>
<path d="M133.098 54.8099L123.875 60.9489C123.799 60.9989 123.712 61.0276 123.622 61.032C123.531 61.0363 123.441 61.016 123.362 60.9734C123.282 60.9308 123.215 60.8674 123.169 60.7899C123.122 60.7125 123.098 60.6239 123.098 60.5336V46.4245C123.098 46.3342 123.122 46.2456 123.169 46.1681C123.215 46.0907 123.282 46.0273 123.362 45.9846C123.441 45.942 123.531 45.9218 123.622 45.9261C123.712 45.9304 123.799 45.9591 123.875 46.0091L133.098 52.1482V46.4245C133.098 46.3342 133.122 46.2456 133.169 46.1681C133.215 46.0907 133.282 46.0273 133.362 45.9846C133.441 45.942 133.531 45.9218 133.622 45.9261C133.712 45.9304 133.799 45.9591 133.875 46.0091L144.474 53.0637C144.542 53.1093 144.598 53.1711 144.637 53.2435C144.676 53.316 144.696 53.3969 144.696 53.479C144.696 53.5612 144.676 53.6421 144.637 53.7146C144.598 53.787 144.542 53.8488 144.474 53.8944L133.875 60.9489C133.799 60.9989 133.712 61.0276 133.622 61.032C133.531 61.0363 133.441 61.016 133.362 60.9734C133.282 60.9308 133.215 60.8674 133.169 60.7899C133.122 60.7125 133.098 60.6239 133.098 60.5336V54.8099Z" fill="#007E47"/>
<defs>
<clipPath id="clip0_5776_4290">
<rect width="95" height="94.8462" fill="white" transform="translate(150 8.98535)"/>
</clipPath>
</defs>
</svg>
