<?xml version="1.0" encoding="UTF-8"?>
<svg width="960px" height="480px" viewBox="0 0 960 480" version="1.1" xmlns="http://www.w3.org/2000/svg" xmlns:xlink="http://www.w3.org/1999/xlink">
    <!-- Generator: Sketch 60.1 (88133) - https://sketch.com -->
    <title>image/interview/pitathouse_5</title>
    <desc>Created with Sketch.</desc>
    <defs>
        <linearGradient x1="50%" y1="0.142457637%" x2="50%" y2="100%" id="linearGradient-1">
            <stop stop-color="#FF2700" offset="0.0475084459%"></stop>
            <stop stop-color="#FF5800" offset="32.3382775%"></stop>
            <stop stop-color="#FF8200" offset="100%"></stop>
        </linearGradient>
        <linearGradient x1="50%" y1="100%" x2="50%" y2="-30.7228445%" id="linearGradient-2">
            <stop stop-color="#0C9F35" offset="0.0316722973%"></stop>
            <stop stop-color="#8EDB2D" offset="100%"></stop>
        </linearGradient>
        <linearGradient x1="39.2994021%" y1="15.2051717%" x2="64.0246938%" y2="100%" id="linearGradient-3">
            <stop stop-color="#FF0000" offset="0%"></stop>
            <stop stop-color="#21D700" offset="100%"></stop>
        </linearGradient>
    </defs>
    <g id="image/interview/pitathouse_5" stroke="none" stroke-width="1" fill="none" fill-rule="evenodd">
        <rect id="Rectangle" fill="#FFFFFF" x="0" y="0" width="960" height="480"></rect>
        <g id="Group" transform="translate(112.000000, 72.000000)" stroke-dasharray="3" stroke-linecap="round" stroke-linejoin="bevel">
            <line x1="0.506056528" y1="336.5" x2="751.493943" y2="336.5" id="Line" stroke="#303030"></line>
            <line x1="0.506056528" y1="288.5" x2="751.493943" y2="288.5" id="Line" stroke="#B7B7B7"></line>
            <line x1="0.506056528" y1="240.5" x2="751.493943" y2="240.5" id="Line" stroke="#B7B7B7"></line>
            <line x1="0.506056528" y1="192.5" x2="751.493943" y2="192.5" id="Line" stroke="#B7B7B7"></line>
            <line x1="0.506056528" y1="144.5" x2="751.493943" y2="144.5" id="Line" stroke="#B7B7B7"></line>
            <line x1="0.506056528" y1="96.5" x2="751.493943" y2="96.5" id="Line" stroke="#B7B7B7"></line>
            <line x1="0.506056528" y1="48.5" x2="751.493943" y2="48.5" id="Line" stroke="#B7B7B7"></line>
            <line x1="0.506056528" y1="0.5" x2="751.493943" y2="0.5" id="Line" stroke="#B7B7B7"></line>
        </g>
        <rect id="Rectangle" fill="url(#linearGradient-1)" x="296" y="120" width="112" height="288"></rect>
        <rect id="Rectangle" fill="url(#linearGradient-2)" x="560" y="360" width="112" height="48"></rect>
        <path d="M78.836,76.156 C80.456,76.156 81.788,75.22 81.788,73.624 C81.788,72.436 80.984,71.668 79.964,71.416 L79.964,71.356 C80.9,71.008 81.488,70.3 81.488,69.28 C81.488,67.816 80.372,67 78.788,67 C77.768,67 76.952,67.444 76.256,68.068 L76.976,68.932 C77.48,68.44 78.056,68.104 78.74,68.092 C79.58,68.104 80.096,68.596 80.096,69.376 C80.096,70.264 79.52,70.924 77.78,70.924 L77.78,71.944 C79.772,71.944 80.396,72.58 80.396,73.564 C80.396,74.476 79.712,75.028 78.716,75.028 C77.804,75.028 77.144,74.584 76.628,74.056 L75.956,74.944 C76.544,75.604 77.444,76.156 78.836,76.156 Z M85.676,76.156 C87.224,76.156 88.652,75.052 88.652,73.096 C88.652,71.164 87.44,70.288 85.964,70.288 C85.484,70.288 85.124,70.408 84.752,70.6 L84.956,68.332 L88.232,68.332 L88.232,67.168 L83.756,67.168 L83.492,71.356 L84.164,71.8 C84.68,71.464 85.016,71.296 85.58,71.296 C86.588,71.296 87.26,71.968 87.26,73.144 C87.26,74.32 86.504,75.028 85.508,75.028 C84.584,75.028 83.948,74.584 83.444,74.08 L82.784,74.98 C83.408,75.592 84.284,76.156 85.676,76.156 Z M93.632,77.008 C96.716,75.88 97.484,73.78 97.784,71.452 L100.556,71.452 C100.436,74.236 100.28,75.364 100.004,75.652 C99.872,75.784 99.728,75.82 99.488,75.82 C99.212,75.82 98.528,75.808 97.796,75.736 C98,76.06 98.156,76.528 98.168,76.864 C98.888,76.9 99.62,76.912 100.028,76.864 C100.46,76.804 100.736,76.72 101.012,76.372 C101.42,75.904 101.588,74.512 101.744,70.876 C101.756,70.768 101.756,70.516 101.756,70.408 C102.092,70.78 102.44,71.116 102.764,71.392 C102.98,71.08 103.412,70.636 103.7,70.396 C102.404,69.436 100.892,67.672 100.124,66.112 L99.044,66.544 C99.728,67.876 100.712,69.268 101.708,70.36 L94.484,70.36 C95.504,69.28 96.404,67.936 97.028,66.484 L95.84,66.136 C95.096,67.96 93.776,69.604 92.288,70.612 C92.552,70.816 93.032,71.26 93.236,71.5 C93.608,71.212 93.98,70.888 94.328,70.528 L94.328,71.452 L96.572,71.452 C96.32,73.348 95.684,75.1 92.924,76.012 C93.176,76.24 93.512,76.72 93.632,77.008 Z M78.836,124.156 C80.456,124.156 81.788,123.22 81.788,121.624 C81.788,120.436 80.984,119.668 79.964,119.416 L79.964,119.356 C80.9,119.008 81.488,118.3 81.488,117.28 C81.488,115.816 80.372,115 78.788,115 C77.768,115 76.952,115.444 76.256,116.068 L76.976,116.932 C77.48,116.44 78.056,116.104 78.74,116.092 C79.58,116.104 80.096,116.596 80.096,117.376 C80.096,118.264 79.52,118.924 77.78,118.924 L77.78,119.944 C79.772,119.944 80.396,120.58 80.396,121.564 C80.396,122.476 79.712,123.028 78.716,123.028 C77.804,123.028 77.144,122.584 76.628,122.056 L75.956,122.944 C76.544,123.604 77.444,124.156 78.836,124.156 Z M85.88,124.156 C87.608,124.156 88.736,122.62 88.736,119.548 C88.736,116.5 87.608,115 85.88,115 C84.14,115 83.024,116.488 83.024,119.548 C83.024,122.62 84.14,124.156 85.88,124.156 Z M85.88,123.064 C84.98,123.064 84.344,122.104 84.344,119.548 C84.344,117.016 84.98,116.092 85.88,116.092 C86.78,116.092 87.416,117.016 87.416,119.548 C87.416,122.104 86.78,123.064 85.88,123.064 Z M93.632,125.008 C96.716,123.88 97.484,121.78 97.784,119.452 L100.556,119.452 C100.436,122.236 100.28,123.364 100.004,123.652 C99.872,123.784 99.728,123.82 99.488,123.82 C99.212,123.82 98.528,123.808 97.796,123.736 C98,124.06 98.156,124.528 98.168,124.864 C98.888,124.9 99.62,124.912 100.028,124.864 C100.46,124.804 100.736,124.72 101.012,124.372 C101.42,123.904 101.588,122.512 101.744,118.876 C101.756,118.768 101.756,118.516 101.756,118.408 C102.092,118.78 102.44,119.116 102.764,119.392 C102.98,119.08 103.412,118.636 103.7,118.396 C102.404,117.436 100.892,115.672 100.124,114.112 L99.044,114.544 C99.728,115.876 100.712,117.268 101.708,118.36 L94.484,118.36 C95.504,117.28 96.404,115.936 97.028,114.484 L95.84,114.136 C95.096,115.96 93.776,117.604 92.288,118.612 C92.552,118.816 93.032,119.26 93.236,119.5 C93.608,119.212 93.98,118.888 94.328,118.528 L94.328,119.452 L96.572,119.452 C96.32,121.348 95.684,123.1 92.924,124.012 C93.176,124.24 93.512,124.72 93.632,125.008 Z M81.848,172 L81.848,170.824 L79.64,170.824 C79.208,170.824 78.656,170.86 78.2,170.908 C80.072,169.12 81.428,167.356 81.428,165.652 C81.428,164.056 80.384,163 78.764,163 C77.612,163 76.832,163.504 76.076,164.32 L76.856,165.088 C77.324,164.548 77.9,164.104 78.596,164.104 C79.58,164.104 80.096,164.764 80.096,165.724 C80.096,167.176 78.752,168.892 76.148,171.196 L76.148,172 L81.848,172 Z M85.676,172.156 C87.224,172.156 88.652,171.052 88.652,169.096 C88.652,167.164 87.44,166.288 85.964,166.288 C85.484,166.288 85.124,166.408 84.752,166.6 L84.956,164.332 L88.232,164.332 L88.232,163.168 L83.756,163.168 L83.492,167.356 L84.164,167.8 C84.68,167.464 85.016,167.296 85.58,167.296 C86.588,167.296 87.26,167.968 87.26,169.144 C87.26,170.32 86.504,171.028 85.508,171.028 C84.584,171.028 83.948,170.584 83.444,170.08 L82.784,170.98 C83.408,171.592 84.284,172.156 85.676,172.156 Z M93.632,173.008 C96.716,171.88 97.484,169.78 97.784,167.452 L100.556,167.452 C100.436,170.236 100.28,171.364 100.004,171.652 C99.872,171.784 99.728,171.82 99.488,171.82 C99.212,171.82 98.528,171.808 97.796,171.736 C98,172.06 98.156,172.528 98.168,172.864 C98.888,172.9 99.62,172.912 100.028,172.864 C100.46,172.804 100.736,172.72 101.012,172.372 C101.42,171.904 101.588,170.512 101.744,166.876 C101.756,166.768 101.756,166.516 101.756,166.408 C102.092,166.78 102.44,167.116 102.764,167.392 C102.98,167.08 103.412,166.636 103.7,166.396 C102.404,165.436 100.892,163.672 100.124,162.112 L99.044,162.544 C99.728,163.876 100.712,165.268 101.708,166.36 L94.484,166.36 C95.504,165.28 96.404,163.936 97.028,162.484 L95.84,162.136 C95.096,163.96 93.776,165.604 92.288,166.612 C92.552,166.816 93.032,167.26 93.236,167.5 C93.608,167.212 93.98,166.888 94.328,166.528 L94.328,167.452 L96.572,167.452 C96.32,169.348 95.684,171.1 92.924,172.012 C93.176,172.24 93.512,172.72 93.632,173.008 Z M81.848,220 L81.848,218.824 L79.64,218.824 C79.208,218.824 78.656,218.86 78.2,218.908 C80.072,217.12 81.428,215.356 81.428,213.652 C81.428,212.056 80.384,211 78.764,211 C77.612,211 76.832,211.504 76.076,212.32 L76.856,213.088 C77.324,212.548 77.9,212.104 78.596,212.104 C79.58,212.104 80.096,212.764 80.096,213.724 C80.096,215.176 78.752,216.892 76.148,219.196 L76.148,220 L81.848,220 Z M85.88,220.156 C87.608,220.156 88.736,218.62 88.736,215.548 C88.736,212.5 87.608,211 85.88,211 C84.14,211 83.024,212.488 83.024,215.548 C83.024,218.62 84.14,220.156 85.88,220.156 Z M85.88,219.064 C84.98,219.064 84.344,218.104 84.344,215.548 C84.344,213.016 84.98,212.092 85.88,212.092 C86.78,212.092 87.416,213.016 87.416,215.548 C87.416,218.104 86.78,219.064 85.88,219.064 Z M93.632,221.008 C96.716,219.88 97.484,217.78 97.784,215.452 L100.556,215.452 C100.436,218.236 100.28,219.364 100.004,219.652 C99.872,219.784 99.728,219.82 99.488,219.82 C99.212,219.82 98.528,219.808 97.796,219.736 C98,220.06 98.156,220.528 98.168,220.864 C98.888,220.9 99.62,220.912 100.028,220.864 C100.46,220.804 100.736,220.72 101.012,220.372 C101.42,219.904 101.588,218.512 101.744,214.876 C101.756,214.768 101.756,214.516 101.756,214.408 C102.092,214.78 102.44,215.116 102.764,215.392 C102.98,215.08 103.412,214.636 103.7,214.396 C102.404,213.436 100.892,211.672 100.124,210.112 L99.044,210.544 C99.728,211.876 100.712,213.268 101.708,214.36 L94.484,214.36 C95.504,213.28 96.404,211.936 97.028,210.484 L95.84,210.136 C95.096,211.96 93.776,213.604 92.288,214.612 C92.552,214.816 93.032,215.26 93.236,215.5 C93.608,215.212 93.98,214.888 94.328,214.528 L94.328,215.452 L96.572,215.452 C96.32,217.348 95.684,219.1 92.924,220.012 C93.176,220.24 93.512,220.72 93.632,221.008 Z M81.692,268 L81.692,266.86 L79.964,266.86 L79.964,259.168 L78.92,259.168 C78.416,259.48 77.828,259.684 77,259.84 L77,260.716 L78.584,260.716 L78.584,266.86 L76.652,266.86 L76.652,268 L81.692,268 Z M85.676,268.156 C87.224,268.156 88.652,267.052 88.652,265.096 C88.652,263.164 87.44,262.288 85.964,262.288 C85.484,262.288 85.124,262.408 84.752,262.6 L84.956,260.332 L88.232,260.332 L88.232,259.168 L83.756,259.168 L83.492,263.356 L84.164,263.8 C84.68,263.464 85.016,263.296 85.58,263.296 C86.588,263.296 87.26,263.968 87.26,265.144 C87.26,266.32 86.504,267.028 85.508,267.028 C84.584,267.028 83.948,266.584 83.444,266.08 L82.784,266.98 C83.408,267.592 84.284,268.156 85.676,268.156 Z M93.632,269.008 C96.716,267.88 97.484,265.78 97.784,263.452 L100.556,263.452 C100.436,266.236 100.28,267.364 100.004,267.652 C99.872,267.784 99.728,267.82 99.488,267.82 C99.212,267.82 98.528,267.808 97.796,267.736 C98,268.06 98.156,268.528 98.168,268.864 C98.888,268.9 99.62,268.912 100.028,268.864 C100.46,268.804 100.736,268.72 101.012,268.372 C101.42,267.904 101.588,266.512 101.744,262.876 C101.756,262.768 101.756,262.516 101.756,262.408 C102.092,262.78 102.44,263.116 102.764,263.392 C102.98,263.08 103.412,262.636 103.7,262.396 C102.404,261.436 100.892,259.672 100.124,258.112 L99.044,258.544 C99.728,259.876 100.712,261.268 101.708,262.36 L94.484,262.36 C95.504,261.28 96.404,259.936 97.028,258.484 L95.84,258.136 C95.096,259.96 93.776,261.604 92.288,262.612 C92.552,262.816 93.032,263.26 93.236,263.5 C93.608,263.212 93.98,262.888 94.328,262.528 L94.328,263.452 L96.572,263.452 C96.32,265.348 95.684,267.1 92.924,268.012 C93.176,268.24 93.512,268.72 93.632,269.008 Z M81.692,316 L81.692,314.86 L79.964,314.86 L79.964,307.168 L78.92,307.168 C78.416,307.48 77.828,307.684 77,307.84 L77,308.716 L78.584,308.716 L78.584,314.86 L76.652,314.86 L76.652,316 L81.692,316 Z M85.88,316.156 C87.608,316.156 88.736,314.62 88.736,311.548 C88.736,308.5 87.608,307 85.88,307 C84.14,307 83.024,308.488 83.024,311.548 C83.024,314.62 84.14,316.156 85.88,316.156 Z M85.88,315.064 C84.98,315.064 84.344,314.104 84.344,311.548 C84.344,309.016 84.98,308.092 85.88,308.092 C86.78,308.092 87.416,309.016 87.416,311.548 C87.416,314.104 86.78,315.064 85.88,315.064 Z M93.632,317.008 C96.716,315.88 97.484,313.78 97.784,311.452 L100.556,311.452 C100.436,314.236 100.28,315.364 100.004,315.652 C99.872,315.784 99.728,315.82 99.488,315.82 C99.212,315.82 98.528,315.808 97.796,315.736 C98,316.06 98.156,316.528 98.168,316.864 C98.888,316.9 99.62,316.912 100.028,316.864 C100.46,316.804 100.736,316.72 101.012,316.372 C101.42,315.904 101.588,314.512 101.744,310.876 C101.756,310.768 101.756,310.516 101.756,310.408 C102.092,310.78 102.44,311.116 102.764,311.392 C102.98,311.08 103.412,310.636 103.7,310.396 C102.404,309.436 100.892,307.672 100.124,306.112 L99.044,306.544 C99.728,307.876 100.712,309.268 101.708,310.36 L94.484,310.36 C95.504,309.28 96.404,307.936 97.028,306.484 L95.84,306.136 C95.096,307.96 93.776,309.604 92.288,310.612 C92.552,310.816 93.032,311.26 93.236,311.5 C93.608,311.212 93.98,310.888 94.328,310.528 L94.328,311.452 L96.572,311.452 C96.32,313.348 95.684,315.1 92.924,316.012 C93.176,316.24 93.512,316.72 93.632,317.008 Z M85.676,364.156 C87.224,364.156 88.652,363.052 88.652,361.096 C88.652,359.164 87.44,358.288 85.964,358.288 C85.484,358.288 85.124,358.408 84.752,358.6 L84.956,356.332 L88.232,356.332 L88.232,355.168 L83.756,355.168 L83.492,359.356 L84.164,359.8 C84.68,359.464 85.016,359.296 85.58,359.296 C86.588,359.296 87.26,359.968 87.26,361.144 C87.26,362.32 86.504,363.028 85.508,363.028 C84.584,363.028 83.948,362.584 83.444,362.08 L82.784,362.98 C83.408,363.592 84.284,364.156 85.676,364.156 Z M93.632,365.008 C96.716,363.88 97.484,361.78 97.784,359.452 L100.556,359.452 C100.436,362.236 100.28,363.364 100.004,363.652 C99.872,363.784 99.728,363.82 99.488,363.82 C99.212,363.82 98.528,363.808 97.796,363.736 C98,364.06 98.156,364.528 98.168,364.864 C98.888,364.9 99.62,364.912 100.028,364.864 C100.46,364.804 100.736,364.72 101.012,364.372 C101.42,363.904 101.588,362.512 101.744,358.876 C101.756,358.768 101.756,358.516 101.756,358.408 C102.092,358.78 102.44,359.116 102.764,359.392 C102.98,359.08 103.412,358.636 103.7,358.396 C102.404,357.436 100.892,355.672 100.124,354.112 L99.044,354.544 C99.728,355.876 100.712,357.268 101.708,358.36 L94.484,358.36 C95.504,357.28 96.404,355.936 97.028,354.484 L95.84,354.136 C95.096,355.96 93.776,357.604 92.288,358.612 C92.552,358.816 93.032,359.26 93.236,359.5 C93.608,359.212 93.98,358.888 94.328,358.528 L94.328,359.452 L96.572,359.452 C96.32,361.348 95.684,363.1 92.924,364.012 C93.176,364.24 93.512,364.72 93.632,365.008 Z M85.88,412.156 C87.608,412.156 88.736,410.62 88.736,407.548 C88.736,404.5 87.608,403 85.88,403 C84.14,403 83.024,404.488 83.024,407.548 C83.024,410.62 84.14,412.156 85.88,412.156 Z M85.88,411.064 C84.98,411.064 84.344,410.104 84.344,407.548 C84.344,405.016 84.98,404.092 85.88,404.092 C86.78,404.092 87.416,405.016 87.416,407.548 C87.416,410.104 86.78,411.064 85.88,411.064 Z M93.632,413.008 C96.716,411.88 97.484,409.78 97.784,407.452 L100.556,407.452 C100.436,410.236 100.28,411.364 100.004,411.652 C99.872,411.784 99.728,411.82 99.488,411.82 C99.212,411.82 98.528,411.808 97.796,411.736 C98,412.06 98.156,412.528 98.168,412.864 C98.888,412.9 99.62,412.912 100.028,412.864 C100.46,412.804 100.736,412.72 101.012,412.372 C101.42,411.904 101.588,410.512 101.744,406.876 C101.756,406.768 101.756,406.516 101.756,406.408 C102.092,406.78 102.44,407.116 102.764,407.392 C102.98,407.08 103.412,406.636 103.7,406.396 C102.404,405.436 100.892,403.672 100.124,402.112 L99.044,402.544 C99.728,403.876 100.712,405.268 101.708,406.36 L94.484,406.36 C95.504,405.28 96.404,403.936 97.028,402.484 L95.84,402.136 C95.096,403.96 93.776,405.604 92.288,406.612 C92.552,406.816 93.032,407.26 93.236,407.5 C93.608,407.212 93.98,406.888 94.328,406.528 L94.328,407.452 L96.572,407.452 C96.32,409.348 95.684,411.1 92.924,412.012 C93.176,412.24 93.512,412.72 93.632,413.008 Z" id="35分30分25分20分15分10分5分0分" fill="#787878" fill-rule="nonzero"></path>
        <path d="M332.272,422.49 L333.694,421.878 C333.388,421.248 332.722,420.096 332.236,419.43 L330.814,420.006 C331.318,420.69 331.894,421.734 332.272,422.49 Z M324.442,424.704 C326.134,424.704 328.348,424.578 329.59,424.488 L329.59,422.346 C329.77,422.706 329.95,423.048 330.094,423.336 L331.552,422.706 C331.21,422.04 330.562,420.906 330.112,420.24 L328.69,420.816 C328.942,421.176 329.212,421.644 329.464,422.112 C328.096,422.238 326.134,422.346 324.424,422.346 C322.552,422.346 320.896,422.274 319.582,422.13 L319.582,424.506 C321.022,424.614 322.57,424.704 324.442,424.704 Z M324.514,435.864 C327.016,435.864 329.158,435.63 330.706,435.27 L330.688,432.75 C329.104,433.182 326.836,433.452 324.424,433.452 C321.85,433.452 320.788,432.624 320.788,431.49 C320.788,430.896 320.914,430.338 321.076,429.69 L318.736,429.474 C318.592,430.158 318.394,431.022 318.394,432.048 C318.394,434.496 320.428,435.864 324.514,435.864 Z M349.714,428.61 L349.714,423.228 L345.808,423.228 L346.042,422.67 L351.172,422.67 L351.172,421.23 L348.526,421.23 C348.778,420.888 349.048,420.474 349.318,420.024 L347.32,419.718 C347.14,420.15 346.834,420.744 346.546,421.23 L344.08,421.23 C343.9,420.762 343.558,420.168 343.252,419.736 L341.506,420.06 C341.722,420.402 341.956,420.834 342.118,421.23 L339.436,421.23 L339.436,422.67 L344.08,422.67 C344.044,422.868 343.99,423.048 343.954,423.228 L340.858,423.228 L340.858,428.61 L349.714,428.61 Z M337.744,423.444 L339.202,422.166 C338.698,421.482 337.6,420.564 336.7,419.952 L335.314,421.122 C336.214,421.788 337.276,422.778 337.744,423.444 Z M347.644,424.722 L342.838,424.722 L342.838,424.182 L347.644,424.182 L347.644,424.722 Z M346.42,436.278 C347.14,435.99 347.338,435.486 347.338,434.532 L347.338,433.092 L351.19,433.092 L351.19,431.472 L347.338,431.472 L347.338,430.716 C348.688,430.698 349.984,430.662 350.938,430.626 C351.028,430.158 351.28,429.384 351.46,428.988 C348.976,429.168 344.278,429.222 342.1,429.132 C340.57,429.078 339.49,428.682 338.896,427.692 L338.896,424.2 L334.882,424.2 L334.882,425.82 L336.952,425.82 L336.952,427.998 C336.196,428.43 335.404,428.826 334.738,429.15 L335.458,430.842 C336.466,430.23 337.348,429.672 338.212,429.078 C339.076,430.212 340.3,430.608 342.118,430.68 C342.946,430.698 344.062,430.716 345.268,430.716 L345.268,431.472 L334.828,431.472 L334.828,433.092 L338.806,433.092 L337.852,433.884 C338.698,434.478 339.778,435.396 340.246,435.99 L341.794,434.676 C341.38,434.208 340.642,433.596 339.922,433.092 L345.268,433.092 L345.268,434.478 C345.268,434.676 345.178,434.748 344.89,434.748 C344.62,434.766 343.63,434.766 342.748,434.712 C343.018,435.252 343.324,435.99 343.414,436.566 C344.746,436.566 345.7,436.548 346.42,436.278 Z M347.644,426.18 L342.838,426.18 L342.838,425.622 L347.644,425.622 L347.644,426.18 Z M347.644,427.656 L342.838,427.656 L342.838,427.08 L347.644,427.08 L347.644,427.656 Z M354.502,436.53 C357.634,434.658 359.794,431.67 361.144,427.638 C362.134,430.86 364.042,434.262 367.768,436.512 C368.146,435.954 369.028,435.018 369.496,434.64 C362.872,430.734 362.386,424.164 362.386,420.762 L356.158,420.762 L356.158,422.94 L360.262,422.94 C360.316,423.552 360.388,424.2 360.514,424.884 L359.416,424.686 C358.426,429.42 356.284,432.894 352.54,434.784 C353.098,435.198 354.106,436.08 354.502,436.53 Z M387.136,424.344 L387.136,422.418 L383.482,422.418 C383.932,421.788 384.418,421.086 384.85,420.384 L382.528,419.7 C382.168,420.528 381.592,421.59 381.052,422.418 L376.048,422.418 L377.038,422.076 C376.732,421.392 376.012,420.42 375.364,419.736 L373.33,420.438 C373.834,421.032 374.356,421.806 374.68,422.418 L370.846,422.418 L370.846,424.344 L387.136,424.344 Z M385.264,436.134 C385.984,435.792 386.182,435.27 386.182,434.208 L386.182,425.262 L384.076,425.262 L384.076,434.172 C384.076,434.424 383.986,434.496 383.698,434.496 C383.392,434.514 382.456,434.514 381.538,434.478 C381.862,435.036 382.204,435.918 382.312,436.494 C383.608,436.512 384.58,436.458 385.264,436.134 Z M378.154,436.17 C378.766,435.864 378.946,435.36 378.946,434.442 L378.946,425.586 L371.836,425.586 L371.836,436.458 L373.87,436.458 L373.87,432.822 L376.876,432.822 L376.876,434.424 C376.876,434.64 376.804,434.712 376.588,434.712 C376.354,434.73 375.634,434.73 374.968,434.694 C375.238,435.18 375.544,435.972 375.652,436.512 C376.75,436.512 377.578,436.476 378.154,436.17 Z M382.456,433.11 L382.456,425.766 L380.494,425.766 L380.494,433.11 L382.456,433.11 Z M376.876,428.502 L373.87,428.502 L373.87,427.386 L376.876,427.386 L376.876,428.502 Z M376.876,431.256 L373.87,431.256 L373.87,430.086 L376.876,430.086 L376.876,431.256 Z" id="ご導入前" fill="#434343" fill-rule="nonzero"></path>
        <path d="M596.272,422.49 L597.694,421.878 C597.388,421.248 596.722,420.096 596.236,419.43 L594.814,420.006 C595.318,420.69 595.894,421.734 596.272,422.49 Z M588.442,424.704 C590.134,424.704 592.348,424.578 593.59,424.488 L593.59,422.346 C593.77,422.706 593.95,423.048 594.094,423.336 L595.552,422.706 C595.21,422.04 594.562,420.906 594.112,420.24 L592.69,420.816 C592.942,421.176 593.212,421.644 593.464,422.112 C592.096,422.238 590.134,422.346 588.424,422.346 C586.552,422.346 584.896,422.274 583.582,422.13 L583.582,424.506 C585.022,424.614 586.57,424.704 588.442,424.704 Z M588.514,435.864 C591.016,435.864 593.158,435.63 594.706,435.27 L594.688,432.75 C593.104,433.182 590.836,433.452 588.424,433.452 C585.85,433.452 584.788,432.624 584.788,431.49 C584.788,430.896 584.914,430.338 585.076,429.69 L582.736,429.474 C582.592,430.158 582.394,431.022 582.394,432.048 C582.394,434.496 584.428,435.864 588.514,435.864 Z M613.714,428.61 L613.714,423.228 L609.808,423.228 L610.042,422.67 L615.172,422.67 L615.172,421.23 L612.526,421.23 C612.778,420.888 613.048,420.474 613.318,420.024 L611.32,419.718 C611.14,420.15 610.834,420.744 610.546,421.23 L608.08,421.23 C607.9,420.762 607.558,420.168 607.252,419.736 L605.506,420.06 C605.722,420.402 605.956,420.834 606.118,421.23 L603.436,421.23 L603.436,422.67 L608.08,422.67 C608.044,422.868 607.99,423.048 607.954,423.228 L604.858,423.228 L604.858,428.61 L613.714,428.61 Z M601.744,423.444 L603.202,422.166 C602.698,421.482 601.6,420.564 600.7,419.952 L599.314,421.122 C600.214,421.788 601.276,422.778 601.744,423.444 Z M611.644,424.722 L606.838,424.722 L606.838,424.182 L611.644,424.182 L611.644,424.722 Z M610.42,436.278 C611.14,435.99 611.338,435.486 611.338,434.532 L611.338,433.092 L615.19,433.092 L615.19,431.472 L611.338,431.472 L611.338,430.716 C612.688,430.698 613.984,430.662 614.938,430.626 C615.028,430.158 615.28,429.384 615.46,428.988 C612.976,429.168 608.278,429.222 606.1,429.132 C604.57,429.078 603.49,428.682 602.896,427.692 L602.896,424.2 L598.882,424.2 L598.882,425.82 L600.952,425.82 L600.952,427.998 C600.196,428.43 599.404,428.826 598.738,429.15 L599.458,430.842 C600.466,430.23 601.348,429.672 602.212,429.078 C603.076,430.212 604.3,430.608 606.118,430.68 C606.946,430.698 608.062,430.716 609.268,430.716 L609.268,431.472 L598.828,431.472 L598.828,433.092 L602.806,433.092 L601.852,433.884 C602.698,434.478 603.778,435.396 604.246,435.99 L605.794,434.676 C605.38,434.208 604.642,433.596 603.922,433.092 L609.268,433.092 L609.268,434.478 C609.268,434.676 609.178,434.748 608.89,434.748 C608.62,434.766 607.63,434.766 606.748,434.712 C607.018,435.252 607.324,435.99 607.414,436.566 C608.746,436.566 609.7,436.548 610.42,436.278 Z M611.644,426.18 L606.838,426.18 L606.838,425.622 L611.644,425.622 L611.644,426.18 Z M611.644,427.656 L606.838,427.656 L606.838,427.08 L611.644,427.08 L611.644,427.656 Z M618.502,436.53 C621.634,434.658 623.794,431.67 625.144,427.638 C626.134,430.86 628.042,434.262 631.768,436.512 C632.146,435.954 633.028,435.018 633.496,434.64 C626.872,430.734 626.386,424.164 626.386,420.762 L620.158,420.762 L620.158,422.94 L624.262,422.94 C624.316,423.552 624.388,424.2 624.514,424.884 L623.416,424.686 C622.426,429.42 620.284,432.894 616.54,434.784 C617.098,435.198 618.106,436.08 618.502,436.53 Z M640.3,436.656 C642.154,436.242 643.9,435.612 645.394,434.73 C646.798,435.612 648.454,436.242 650.362,436.62 C650.632,436.062 651.19,435.234 651.64,434.784 C649.966,434.532 648.454,434.082 647.158,433.47 C648.328,432.444 649.282,431.166 649.894,429.582 L648.562,428.988 L648.22,429.06 L644.962,429.06 C645.214,428.718 645.448,428.358 645.664,427.998 C646.834,427.962 648.058,427.926 649.246,427.872 C649.498,428.304 649.696,428.718 649.84,429.06 L651.64,428.052 C651.136,426.9 649.948,425.28 648.904,424.11 L647.248,425.028 C647.554,425.388 647.86,425.766 648.148,426.18 L644.926,426.234 C646.438,424.956 648.04,423.426 649.336,422.058 L647.446,421.014 C646.672,422.004 645.646,423.138 644.548,424.2 C644.26,423.912 643.9,423.606 643.522,423.3 C644.278,422.544 645.16,421.572 645.934,420.636 L644.08,419.682 C643.612,420.492 642.856,421.482 642.154,422.292 C641.812,422.058 641.47,421.842 641.164,421.644 L639.886,423.03 C640.966,423.732 642.226,424.74 643.054,425.586 C642.802,425.82 642.532,426.054 642.28,426.27 C641.254,426.288 640.318,426.288 639.508,426.288 L639.688,428.178 L643.288,428.07 C642.28,429.438 640.804,430.626 639.274,431.4 C639.688,431.778 640.372,432.57 640.66,432.984 C641.2,432.66 641.74,432.282 642.28,431.868 C642.694,432.444 643.18,432.966 643.702,433.434 C642.388,434.1 640.876,434.568 639.274,434.838 C639.652,435.27 640.102,436.116 640.3,436.656 Z M635.62,424.902 C637.114,423.804 638.788,422.058 639.922,420.51 L638.032,419.772 C637.276,420.942 635.782,422.436 634.504,423.336 C634.828,423.714 635.35,424.47 635.62,424.902 Z M638.86,436.602 L638.86,426.486 C639.364,425.766 639.832,425.028 640.228,424.308 L638.356,423.606 C637.42,425.352 635.854,427.098 634.342,428.232 C634.684,428.682 635.26,429.762 635.458,430.23 C635.926,429.834 636.394,429.402 636.862,428.898 L636.862,436.602 L638.86,436.602 Z M645.376,432.426 C644.674,431.904 644.062,431.328 643.594,430.68 L643.612,430.662 L647.104,430.662 C646.636,431.328 646.06,431.904 645.376,432.426 Z" id="ご導入後" fill="#434343" fill-rule="nonzero"></path>
        <path d="M576.938,102.958 L576.938,96.838 C580.066,99.49 584.18,101.53 588.362,102.584 C588.974,101.496 590.164,99.796 591.082,98.912 C587.138,98.3 583.194,96.974 580.304,95.206 L590.164,95.206 L590.164,91.874 L576.938,91.874 L576.938,90.378 L587.138,90.378 L587.138,87.454 L576.938,87.454 L576.938,85.924 L588.736,85.924 L588.736,82.762 L582.072,82.762 C582.582,81.946 583.126,81.028 583.67,80.042 L590.062,80.042 L590.062,76.744 L585.642,76.744 C586.424,75.554 587.342,74.024 588.294,72.46 L584.044,71.44 C583.568,72.936 582.718,74.976 581.902,76.37 L583.126,76.744 L580.1,76.744 L580.1,71.202 L576.292,71.202 L576.292,76.744 L573.776,76.744 L573.776,71.202 L570.002,71.202 L570.002,76.744 L566.908,76.744 L568.574,76.132 C568.098,74.806 566.976,72.8 565.99,71.338 L562.522,72.528 C563.27,73.82 564.154,75.452 564.63,76.744 L560.074,76.744 L560.074,80.042 L567.18,80.042 L566.772,80.11 C567.214,80.892 567.656,81.912 567.928,82.762 L561.468,82.762 L561.468,85.924 L572.96,85.924 L572.96,87.454 L563.168,87.454 L563.168,90.378 L572.96,90.378 L572.96,91.874 L559.972,91.874 L559.972,95.206 L569.73,95.206 C566.806,96.974 562.794,98.402 558.986,99.184 C559.836,100 560.992,101.564 561.57,102.55 C565.616,101.496 569.798,99.524 572.96,97.042 L572.96,102.958 L576.938,102.958 Z M577.992,82.762 L571.634,82.762 L572.212,82.66 C571.974,81.912 571.532,80.926 571.056,80.042 L579.182,80.042 C578.808,80.96 578.4,81.946 577.992,82.762 Z M596.522,102.822 C598.63,102.822 600.16,102.754 601.316,102.108 C602.506,101.496 602.778,100.408 602.778,98.572 L602.778,86.604 L604.58,86.604 C604.274,88.338 603.866,90.038 603.492,91.296 L606.212,92.554 C606.824,91.024 607.402,88.984 607.878,86.876 C608.286,87.42 608.626,87.93 608.83,88.304 C611.414,87.59 613.76,86.672 615.766,85.448 C617.806,86.706 620.118,87.726 622.702,88.372 C623.246,87.352 624.368,85.754 625.252,84.938 C622.974,84.496 620.866,83.816 618.996,82.932 C620.39,81.538 621.512,79.906 622.396,77.968 L624.368,77.968 L624.368,74.602 L614.338,74.602 C614.814,73.82 615.222,73.038 615.596,72.222 L611.822,71.202 C610.496,74.33 607.98,77.39 605.328,79.294 C606.28,79.838 607.844,80.926 608.626,81.572 C609.136,81.13 609.646,80.654 610.156,80.11 C610.87,81.13 611.686,82.082 612.57,82.932 C611.346,83.578 609.918,84.088 608.422,84.496 L608.558,83.714 L606.11,82.898 L605.566,83.068 L603.934,83.068 L605.6,81.334 C604.954,80.858 604.104,80.348 603.118,79.838 C605.022,78.206 606.926,76.132 608.082,74.228 L605.498,72.596 L604.886,72.732 L593.904,72.732 L593.904,76.132 L602.064,76.132 C601.418,76.88 600.67,77.628 599.922,78.274 C599.004,77.866 598.052,77.492 597.236,77.186 L594.686,79.77 C596.794,80.62 599.344,81.912 601.248,83.068 L593.462,83.068 L593.462,86.604 L597.712,86.604 C596.522,89.29 594.754,91.942 592.884,93.608 C593.496,94.696 594.38,96.362 594.72,97.518 C596.352,96.022 597.78,93.744 598.97,91.228 L598.97,98.504 C598.97,98.912 598.834,98.98 598.426,99.014 C597.984,99.014 596.624,99.014 595.366,98.98 C595.876,100.068 596.42,101.7 596.522,102.822 Z M615.664,80.858 C614.542,80.008 613.59,79.022 612.842,77.968 L617.908,77.968 C617.33,79.056 616.582,80.042 615.664,80.858 Z M606.756,102.958 C612.128,100.85 614.542,97.552 615.698,93.506 L619.642,93.506 C619.268,96.668 618.826,98.13 618.35,98.572 C618.01,98.878 617.738,98.946 617.262,98.946 C616.718,98.946 615.562,98.912 614.338,98.776 C614.95,99.796 615.392,101.394 615.426,102.516 C616.99,102.584 618.384,102.55 619.234,102.448 C620.254,102.312 620.968,102.04 621.716,101.258 C622.702,100.17 623.314,97.552 623.858,91.67 C623.926,91.194 623.994,90.14 623.994,90.14 L616.412,90.14 C616.548,89.154 616.65,88.134 616.752,87.114 L612.706,87.114 C612.638,88.168 612.536,89.154 612.366,90.14 L607.402,90.14 L607.402,93.506 L611.516,93.506 C610.462,96.158 608.49,98.334 604.41,99.83 C605.26,100.578 606.314,102.006 606.756,102.958 Z M647.964,102.924 C650.48,102.924 652.316,102.822 653.642,102.244 C654.968,101.632 655.342,100.612 655.342,98.674 L655.342,91.262 L658.606,91.262 L658.606,87.76 L655.342,87.76 L655.342,84.836 L658.844,84.836 L658.844,81.3 L651.092,81.3 L651.092,78.308 L657.892,78.308 L657.892,74.772 L651.092,74.772 L651.092,71.202 L647.114,71.202 L647.114,74.772 L640.586,74.772 L640.586,78.308 L647.114,78.308 L647.114,81.3 L639.43,81.3 L639.43,84.836 L651.432,84.836 L651.432,87.76 L639.498,87.76 L639.498,91.262 L651.432,91.262 L651.432,98.572 C651.432,99.048 651.262,99.184 650.718,99.184 C650.208,99.184 648.304,99.184 646.672,99.116 C647.216,100.204 647.828,101.802 647.964,102.924 Z M631.95,99.388 L631.95,96.396 L638.852,96.396 L638.852,73.276 L628.21,73.276 L628.21,99.388 L631.95,99.388 Z M635.078,82.864 L631.95,82.864 L631.95,76.88 L635.078,76.88 L635.078,82.864 Z M635.078,92.792 L631.95,92.792 L631.95,86.4 L635.078,86.4 L635.078,92.792 Z M644.734,99.252 L648.202,97.246 C647.488,95.58 645.652,93.336 644.088,91.67 L640.858,93.54 C642.388,95.274 644.122,97.688 644.734,99.252 Z M666.766,102.958 L666.766,84.768 L675.776,84.768 L675.776,72.494 L662.754,72.494 L662.754,102.958 L666.766,102.958 Z M683.426,102.958 C686.35,102.958 688.322,102.856 689.648,102.176 C691.008,101.53 691.45,100.34 691.45,98.164 L691.45,72.494 L678.122,72.494 L678.122,84.836 L687.37,84.836 L687.37,98.13 C687.37,98.674 687.166,98.878 686.554,98.878 C686.112,98.912 684.854,98.912 683.528,98.878 L683.528,86.808 L670.438,86.808 L670.438,101.53 L674.11,101.53 L674.11,99.796 L682.542,99.796 C682.95,100.85 683.324,102.108 683.426,102.958 Z M672.002,77.22 L666.766,77.22 L666.766,75.418 L672.002,75.418 L672.002,77.22 Z M687.37,77.22 L681.964,77.22 L681.964,75.418 L687.37,75.418 L687.37,77.22 Z M672.002,81.878 L666.766,81.878 L666.766,79.94 L672.002,79.94 L672.002,81.878 Z M687.37,81.946 L681.964,81.946 L681.964,79.94 L687.37,79.94 L687.37,81.946 Z M679.72,91.84 L674.11,91.84 L674.11,89.8 L679.72,89.8 L679.72,91.84 Z M679.72,96.838 L674.11,96.838 L674.11,94.73 L679.72,94.73 L679.72,96.838 Z M712.224,101.768 C715.386,101.768 719.5,101.496 721.744,101.224 L721.88,96.838 C718.922,97.45 715.182,97.824 712.326,97.824 C709.028,97.824 707.43,97.314 707.43,95.444 C707.43,93.778 708.79,92.452 711.272,91.092 C711.238,92.554 711.204,94.118 711.136,95.104 L715.182,95.104 C715.148,93.574 715.08,91.092 715.046,89.222 C717.12,88.27 719.024,87.522 720.52,86.944 C721.676,86.468 723.444,85.788 724.532,85.516 L722.832,81.606 C721.608,82.184 720.418,82.762 719.126,83.34 C717.732,83.952 716.304,84.53 714.57,85.346 C713.822,83.612 712.122,82.728 710.082,82.728 C708.96,82.728 707.158,82.966 706.274,83.408 C706.988,82.422 707.668,81.198 708.212,80.008 C711.816,79.872 715.964,79.6 719.194,79.124 L719.228,75.18 C716.27,75.724 712.87,75.996 709.708,76.166 C710.116,74.806 710.354,73.65 710.524,72.834 L706.104,72.46 C706.07,73.412 705.832,74.772 705.424,76.302 L703.792,76.302 C702.092,76.302 699.576,76.2 697.876,75.928 L697.876,79.872 C699.5896,80.0306667 701.865938,80.10048 703.267564,80.1090833 L703.962,80.11 C702.466,83.102 700.086,86.094 696.55,89.358 L700.154,92.044 C701.31,90.582 702.262,89.358 703.282,88.338 C704.574,87.114 706.648,86.026 708.552,86.026 C709.47,86.026 710.354,86.332 710.898,87.182 C707.056,89.154 702.976,91.874 702.976,96.158 C702.976,100.51 706.954,101.768 712.224,101.768 Z" id="業務時間を" fill="#434343" fill-rule="nonzero"></path>
        <path d="M590.708738,215 C608.883495,215 621,204.857513 621,191.450777 C621,179.559585 614.708738,172.331606 606.436893,168.018135 L606.436893,167.435233 C612.378641,163.354922 617.38835,156.476684 617.38835,148.199482 C617.38835,134.093264 607.019417,125 591.407767,125 C575.330097,125 563.912621,133.976684 563.912621,148.432642 C563.912621,157.642487 568.456311,164.287565 575.213592,169.300518 L575.213592,169.88342 C567.174757,174.196891 561,180.958549 561,191.800518 C561,205.556995 573.699029,215 590.708738,215 Z M596.220126,162 C587.496855,158.631313 582,154.914141 582,148.060606 C582,141.90404 586.18239,139 590.962264,139 C597.295597,139 601,142.949495 601,149.222222 C601,153.636364 599.566038,158.050505 596.220126,162 Z M591.429293,200 C584.691919,200 579,195.967742 579,188.940092 C579,183.525346 581.323232,178.341014 584.808081,175 C595.378788,179.493088 602,182.718894 602,190.207373 C602,197.004608 597.353535,200 591.429293,200 Z M662.442125,215 C680.614801,215 693,199.378238 693,169.533679 C693,139.92228 680.614801,125 662.442125,125 C644.26945,125 632,139.689119 632,169.533679 C632,199.378238 644.26945,215 662.442125,215 Z M661.942408,199 C655.837696,199 651,193.39839 651,169.591549 C651,145.901408 655.837696,141 661.942408,141 C668.04712,141 673,145.901408 673,169.591549 C673,193.39839 668.04712,199 661.942408,199 Z M709.5,197 C715.611111,197 720,191.894958 720,183.443277 C720,174.934874 715.611111,170 709.5,170 C703.444444,170 699,174.934874 699,183.443277 C699,191.894958 703.444444,197 709.5,197 Z M716.6,214 L739,171 L733.344554,171 L711,214 L716.6,214 Z M709.473282,192 C707.603053,192 706,189.928058 706,183.942446 C706,177.899281 707.603053,176 709.473282,176 C711.396947,176 713,177.899281 713,183.942446 C713,189.928058 711.396947,192 709.473282,192 Z M740.527704,214 C746.567282,214 751,208.894958 751,200.443277 C751,191.934874 746.567282,187 740.527704,187 C734.488127,187 730,191.934874 730,200.443277 C730,208.894958 734.488127,214 740.527704,214 Z M740.5,209 C738.590909,209 737,206.928058 737,200.942446 C737,194.899281 738.590909,193 740.5,193 C742.409091,193 744,194.899281 744,200.942446 C744,206.928058 742.409091,209 740.5,209 Z" id="80％" fill="#0C9F35" fill-rule="nonzero"></path>
        <path d="M560.87,274.139 C565.585,272.212 571.53,269.752 576.86,267.374 L575.466,261.511 C573.826,262.167 572.104,262.864 570.423,263.52 L569.603,242.364 L563.289,242.61 L564.232,265.898 C562.223,266.636 560.378,267.251 558.82,267.743 L560.87,274.139 Z M574.851,278.936 C579.771,276.599 583.543,273.524 586.454,269.588 C589.201,272.868 591.948,276.353 593.342,278.895 L598.426,273.893 C596.663,271.064 593.055,267.169 589.857,263.725 C592.399,258.108 593.875,251.261 594.695,243.02 L588.053,242.446 C586.7,258.846 582.518,268.809 570.095,273.606 C571.53,274.877 574.031,277.624 574.851,278.936 Z M578.131,257.739 L583.994,254.582 C582.764,251.712 580.181,247.694 577.557,244.701 L572.022,247.366 C574.482,250.482 577.106,254.869 578.131,257.739 Z M638.442,276.845 L638.442,270.818 L621.427,270.818 L621.427,257.739 L635.531,257.739 L635.531,251.712 L621.427,251.712 L621.427,240.396 L614.99,240.396 L614.99,270.818 L600.599,270.818 L600.599,276.845 L638.442,276.845 Z M648.446,278.28 L648.446,270.039 L655.293,270.039 L655.293,272.048 C655.293,272.581 655.129,272.704 654.596,272.745 C654.063,272.745 652.341,272.745 651.029,272.663 C651.726,274.139 652.423,276.599 652.587,278.198 C655.375,278.198 657.384,278.116 658.983,277.214 C660.623,276.312 661.033,274.754 661.033,272.171 L661.033,251.138 L654.76,251.138 L654.76,239.904 L648.856,239.904 L648.856,251.138 L642.788,251.138 L642.788,278.28 L648.446,278.28 Z M667.224,278.854 C670.996,278.854 673.948,278.649 675.875,277.706 C677.761,276.722 678.376,275.123 678.376,271.802 L678.376,240.724 L672.472,240.724 L672.472,271.761 C672.472,272.54 672.144,272.786 671.365,272.786 L670.622736,272.785016 C669.38552,272.78108 667.2404,272.7614 665.174,272.663 C666.035,274.344 666.978,277.132 667.224,278.854 Z M660.008,250.769 C660.951,248.678 662.058,245.521 663.124,242.405 L657.22,241.175 C656.81,243.799 655.908,247.284 655.047,249.58 L660.008,250.769 Z M643.28,251.097 L648.446,249.211 C647.995,247.079 646.97,243.922 645.863,241.503 L640.984,243.143 C641.968,245.603 642.993,248.965 643.28,251.097 Z M669.274,268.235 L669.274,244.988 L663.493,244.988 L663.493,268.235 L669.274,268.235 Z M655.293,258.354 L648.446,258.354 L648.446,256.673 L655.293,256.673 L655.293,258.354 Z M655.293,265.078 L648.446,265.078 L648.446,263.315 L655.293,263.315 L655.293,265.078 Z M694.243,278.772 C697.482,272.991 698.015,263.684 698.015,257.452 L698.015,250.892 L707.937,250.892 C708.265,257.493 708.839,263.192 709.659,267.62 C709.167,268.399 708.593,269.096 708.019,269.793 L708.019,258.682 L698.712,258.682 L698.712,272.54 L702.484,272.54 L702.484,270.531 L707.363,270.531 C705.846,272.212 704.124,273.647 702.197,274.836 C703.304,275.738 705.313,277.665 706.092,278.649 C708.019,277.255 709.782,275.615 711.34,273.77 C712.652,276.968 714.292,278.69 716.506,278.731 C718.228,278.731 720.606,277.173 721.713,269.219 C720.852,268.768 718.474,267.251 717.572,266.103 C717.408,269.752 717.08,271.679 716.588,271.638 C716.137,271.638 715.645,270.408 715.194,268.276 C717.572,264.176 719.335,259.379 720.606,253.967 L715.522,253.024 C715.071,255.115 714.538,257.124 713.923,259.01 C713.677,256.55 713.472,253.803 713.308,250.892 L720.401,250.892 L720.401,245.685 L718.884,245.685 L720.975,243.635 C719.868,242.446 717.613,240.929 715.809,240.027 L713.062,242.61 L713.021,240.437 L707.609,240.437 C707.65,242.241 707.691,244.004 707.732,245.685 L692.849,245.685 L692.849,257.452 C692.849,262.946 692.644,270.572 689.774,275.779 C691.004,276.312 693.3,277.87 694.243,278.772 Z M690.471,248.719 L694.038,243.963 C692.521,242.61 689.446,241.052 687.15,240.109 L683.829,244.455 C686.166,245.562 689.118,247.366 690.471,248.719 Z M716.547,245.685 L713.103,245.685 L713.062,243.143 C714.251,243.881 715.522,244.824 716.547,245.685 Z M688.462,259.666 L691.988,254.869 C690.471,253.557 687.478,252.04 685.182,251.179 L681.902,255.566 C684.198,256.591 687.15,258.354 688.462,259.666 Z M707.322,256.919 L707.322,252.655 L699.163,252.655 L699.163,256.919 L707.322,256.919 Z M687.314,278.034 C688.954,273.77 690.512,269.055 691.865,264.463 L687.068,261.429 C685.51,266.472 683.419,271.761 681.902,275.082 L687.314,278.034 Z M704.165,266.267 L702.484,266.267 L702.484,262.905 L704.165,262.905 L704.165,266.267 Z M745.083,264.094 L746.764,251.138 L747.01,244.332 L738.031,244.332 L738.277,251.138 L739.958,264.094 L745.083,264.094 Z M742.5,275.492 C745.288,275.492 747.338,273.606 747.338,270.982 C747.338,268.44 745.288,266.472 742.5,266.472 C739.712,266.472 737.662,268.44 737.662,270.982 C737.662,273.606 739.712,275.492 742.5,275.492 Z" id="以上削減！" fill="#0C9F35" fill-rule="nonzero"></path>
        <polygon id="Path-3" fill="url(#linearGradient-3)" opacity="0.192057292" points="408 121 560 361 560 408 408 408"></polygon>
        <g id="Group-3" transform="translate(499.354520, 237.105684) rotate(57.000000) translate(-499.354520, -237.105684) translate(387.854520, 230.105684)" fill="#565656">
            <polygon id="Fill-1" points="0.964 8 220.964 8 220.964 6 0.964 6"></polygon>
            <path d="M214.605,13.82012 C214.29641,13.82012 213.99172,13.67547 213.7925,13.40594 C213.46828,12.96063 213.56594,12.33174 214.01516,12.01144 L220.38626,7.39424 C220.55032,7.27705 220.64407,7.14033 220.64407,7.02705 C220.64407,6.90986 220.55032,6.77705 220.39016,6.65596 L214.01126,1.98796 C213.56595,1.66374 213.46829,1.03484 213.79642,0.58956 C214.12064,0.14425 214.74564,0.04659 215.19482,0.37081 L221.57372,5.03881 C222.25731,5.53881 222.64792,6.26541 222.64792,7.02711 C222.64792,7.78883 222.25339,8.51151 221.56592,9.01151 L215.19482,13.62871 C215.01513,13.75762 214.8081,13.82012 214.60498,13.82012 L214.605,13.82012 Z" id="Fill-2"></path>
        </g>
    </g>
</svg>