<svg width="405" height="194" viewBox="0 0 405 194" fill="none" xmlns="http://www.w3.org/2000/svg">
<path d="M123.524 120.528V119.164C123.524 118.064 123.568 117.184 123.744 116.084H118.376C118.508 116.964 118.596 118.108 118.596 119.208V120.528H112.832C110.456 120.528 109.312 120.484 108.08 120.308V125.104C109.18 124.928 110.016 124.884 112.48 124.884H114.988L111.468 126.116C112.392 127.92 113.36 130.296 113.932 132.276H110.104C108.256 132.276 107.288 132.232 106.452 132.1V136.852C107.464 136.676 108.564 136.632 110.236 136.632H131.796C134.172 136.632 135.096 136.676 136.284 136.852V132.056C135.096 132.188 133.688 132.276 131.796 132.276H127.836C129.2 129.988 129.64 129.108 131.048 125.896L127.308 124.884H130.608C133.028 124.884 133.908 124.928 135.052 125.104V120.308C133.776 120.484 132.456 120.528 130.212 120.528H123.524ZM115.12 132.276L118.464 131.044C117.452 127.964 117.276 127.524 116.044 124.884H126.164C125.064 128.228 124.492 129.592 122.952 132.276H115.12ZM99.984 151.372C99.984 153.704 99.896 155.112 99.72 156.608H104.912C104.736 154.98 104.692 153.616 104.692 151.504V127.172C106.1 124.224 107.2 121.496 107.948 119.076C108.256 118.02 108.388 117.624 108.652 116.92L103.812 115.512C103.592 117.052 103.02 119.076 102.272 121.1C100.424 126.116 97.872 130.34 94.836 133.42C95.804 135.18 96.156 136.06 96.86 138.656C98.268 137.116 98.928 136.236 100.072 134.3C99.984 136.104 99.984 137.072 99.984 139.184V151.372ZM114.328 154.012H127.484V156.3H132.588C132.412 155.068 132.368 154.056 132.368 152.208V143.408C132.368 141.56 132.412 140.724 132.544 139.624C131.62 139.756 131.048 139.8 129.288 139.8H112.964C111.512 139.8 110.544 139.756 109.444 139.624C109.576 140.856 109.62 141.824 109.62 143.276V151.988C109.62 153.88 109.532 155.112 109.4 156.3H114.328V154.012ZM114.328 144.068H127.528V149.7H114.328V144.068ZM165.28 118.504C165.544 120.132 165.632 121.716 165.632 124.532V140.02C165.632 146.004 162.596 149.128 156.7 149.128C150.76 149.128 147.68 146.004 147.68 140.064V124.532C147.68 121.672 147.768 120 148.032 118.504H141.476C141.74 120.088 141.828 121.804 141.828 124.532V140.064C141.828 144.464 142.884 147.764 145.128 150.184C147.548 152.824 151.596 154.32 156.48 154.32C166.072 154.32 171.484 149.216 171.484 140.108V124.488C171.484 121.716 171.572 120.132 171.836 118.504H165.28ZM184.996 153.528C184.732 151.856 184.644 150.184 184.644 147.808V140.46H193.048C197.272 140.46 200.264 139.448 202.42 137.292C204.356 135.268 205.368 132.54 205.368 129.196C205.368 126.028 204.444 123.388 202.64 121.628C200.528 119.516 197.536 118.504 193.268 118.504H184.072C181.74 118.504 180.376 118.46 178.484 118.372C178.748 120.352 178.836 121.936 178.836 124.048V147.852C178.836 150.228 178.748 151.768 178.484 153.528H184.996ZM184.644 135.4V123.564H193.048C195.38 123.564 196.832 124.048 197.844 125.148C198.812 126.16 199.296 127.612 199.296 129.372C199.296 133.244 197.096 135.4 193.048 135.4H184.644ZM217.114 143.892C217.026 143.012 217.026 142.572 217.026 142.044C217.026 141.428 217.026 141.428 217.114 138.832L217.73 123.872C217.818 121.98 217.994 119.692 218.126 118.504H210.91C211.086 119.736 211.218 121.936 211.306 123.872L211.922 138.832C212.054 141.516 212.054 141.516 212.054 142C212.054 142.528 212.01 142.968 211.966 143.892H217.114ZM217.73 153.528V147.5H211.35V153.528H217.73Z" fill="#1C9E3B"/>
<path d="M83.0412 57.7H36.0309L35.5361 80.8083C37.0756 80.262 39 79.8796 41.3093 79.6611C43.7285 79.4426 45.9828 79.3333 48.0722 79.3333C53.7904 79.3333 59.0137 80.262 63.7423 82.1194C68.5808 83.8676 72.7045 86.4352 76.1134 89.8222C79.5223 93.2093 82.1615 97.2518 84.0309 101.95C86.0103 106.648 87 111.947 87 117.847C87 124.075 85.9003 129.702 83.701 134.728C81.6117 139.644 78.6426 143.851 74.7938 147.347C71.055 150.734 66.6014 153.356 61.433 155.214C56.2646 157.071 50.7113 158 44.7732 158C35.4261 158 27.4536 155.815 20.8557 151.444C14.3677 147.074 9.74914 140.409 7 131.45L27.7835 125.878C29.1031 130.03 31.3574 133.307 34.5464 135.711C37.7354 138.115 41.8591 139.317 46.9175 139.317C49.8866 139.317 52.5808 138.825 55 137.842C57.5292 136.858 59.6735 135.493 61.433 133.744C63.3024 131.887 64.732 129.756 65.7216 127.353C66.7113 124.949 67.2062 122.327 67.2062 119.486C67.2062 115.444 66.4364 112.002 64.8969 109.161C63.4674 106.32 61.488 104.026 58.9588 102.278C56.4296 100.42 53.5155 99.1093 50.2165 98.3444C46.9175 97.4704 43.4536 97.0333 39.8247 97.0333C35.5361 97.0333 31.2474 97.525 26.9588 98.5083C22.7801 99.4917 18.9313 100.857 15.4124 102.606L16.567 40H83.0412V57.7Z" fill="#1C9E3B"/>
<rect y="173" width="236" height="21" fill="#EFCB68"/>
<rect x="261" y="155" width="53" height="39" fill="#C7EED1"/>
<rect x="352" width="53" height="194" fill="#1C9E3B"/>
<path d="M312.101 92.3206L339.693 68.578L345.432 104.794L335.236 101.915C335.236 101.915 329.363 112.296 320.028 123.392C310.693 134.487 292.314 145.138 292.314 145.138C292.314 145.138 306.585 124.721 312.081 116.367C317.577 108.013 321.392 96.7574 321.392 96.7574L312.101 92.3206Z" fill="#1C9E3B"/>
<path d="M111.016 85.32C111.16 84.912 111.256 84.648 111.328 84.432C111.904 82.752 111.904 82.752 112.096 82.248L109.312 81.768C109.216 82.752 108.856 83.976 108.256 85.464C107.8 86.616 107.248 87.648 106.552 88.608V86.304C106.144 86.4 105.76 86.424 104.992 86.424H104.416V83.712C104.416 82.92 104.464 82.368 104.56 81.744H101.728C101.848 82.416 101.896 82.968 101.896 83.712V86.424H100.984C101.056 85.536 101.08 85.416 101.176 83.976L98.776 83.712C98.824 84.144 98.824 84.36 98.824 84.72C98.824 85.704 98.704 86.904 98.512 88.104C98.224 89.688 98.056 90.36 97.6 91.44C98.512 91.824 98.992 92.088 99.784 92.736C100.264 91.104 100.48 90.192 100.696 88.848H101.896V94.176C99.592 94.896 99.016 95.04 97.912 95.112L98.464 97.968C98.944 97.752 99.088 97.68 99.736 97.464C100.192 97.32 100.912 97.08 101.896 96.72V101.256C101.896 102.312 101.848 103.176 101.728 104.016H104.56C104.464 103.104 104.416 102.264 104.416 101.256V95.808C105.232 95.472 105.568 95.328 106.696 94.848L106.672 92.448C105.616 92.928 105.256 93.048 104.416 93.336V88.848H104.992C105.544 88.848 105.856 88.848 106.336 88.896C106 89.28 105.76 89.52 105.184 90.048C105.976 90.552 106.432 90.96 107.176 91.872C108.352 90.648 109.216 89.352 110.032 87.648H111.16C110.464 90.12 109.552 91.896 108.088 93.648C107.2 94.704 106.576 95.256 105.256 96.072C106.144 96.768 106.576 97.272 107.032 98.16C110.296 95.568 112.264 92.352 113.464 87.648H114.448C113.92 90.552 113.248 92.688 112.144 94.92C110.68 97.8 108.856 99.792 105.904 101.736C106.96 102.432 107.368 102.84 107.92 103.704C111.04 101.232 112.72 99.24 114.16 96.336C115.312 94.008 116.056 91.584 116.728 87.648H117.016C116.944 92.496 116.728 96.408 116.32 99C116.056 100.704 115.696 101.208 114.736 101.208C113.944 101.208 112.984 101.088 111.76 100.824C112.192 101.736 112.384 102.528 112.384 103.536C113.56 103.632 114.16 103.68 114.688 103.68C116.8 103.68 117.832 103.128 118.384 101.688C119.032 100.032 119.344 96.408 119.512 88.248C119.56 85.968 119.56 85.968 119.656 85.224C119.224 85.296 118.672 85.32 117.664 85.32H111.016ZM135.28 86.784H132.904C133.096 86.184 133.192 85.872 133.432 85.128C133.648 84.384 133.696 84.24 133.864 83.688L131.224 83.016C131.128 83.976 130.888 84.888 130.48 86.064C129.784 87.984 128.992 89.496 127.888 91.008C129.232 91.92 129.352 92.016 130.024 92.736C130.936 91.392 131.368 90.648 131.968 89.232H135.28V93.72H131.176C130.024 93.72 129.184 93.672 128.488 93.576V96.336C129.208 96.24 130.072 96.192 131.176 96.192H135.28V101.184C135.28 102.408 135.232 103.08 135.112 103.944H138.088C137.944 103.08 137.92 102.48 137.92 101.184V96.192H141.712C142.696 96.192 143.536 96.24 144.352 96.336V93.576C143.584 93.672 142.816 93.72 141.664 93.72H137.92V89.232H140.944C141.712 89.232 142.432 89.28 143.512 89.376V86.64C142.84 86.736 142.144 86.784 140.92 86.784H137.92V84.576C137.92 83.4 137.944 82.824 138.088 82.032H135.112C135.232 82.824 135.28 83.448 135.28 84.552V86.784ZM124.72 101.184C124.72 102.336 124.696 103.008 124.576 103.992H127.456C127.384 103.08 127.336 102.288 127.336 101.208V87.6C128.2 85.752 128.416 85.224 129.016 83.4C129.232 82.8 129.28 82.68 129.4 82.32L126.688 81.552C126.544 82.512 126.304 83.376 125.824 84.672C124.816 87.336 123.52 89.472 121.696 91.488C122.176 92.304 122.368 92.88 122.776 94.44C123.664 93.48 124.192 92.736 124.792 91.656C124.744 92.712 124.72 93.48 124.72 94.296V101.184ZM162.184 98.52H165.184C166.168 98.52 166.672 98.544 167.32 98.64V96.312C166.744 96.408 166.168 96.432 165.184 96.432H162.184V94.44H166.024C166.936 94.44 167.56 94.464 168.232 94.56V92.112C167.584 92.208 167.008 92.232 166.024 92.232H156.04C155.2 92.232 154.6 92.208 154.048 92.136V91.08C153.088 91.512 152.848 91.608 151.96 91.944V88.584H152.776C153.328 88.584 153.688 88.608 154.192 88.656V86.16C154.096 86.184 154.048 86.184 154 86.208C153.88 86.208 153.808 86.232 153.784 86.232C153.736 86.232 153.736 86.232 152.752 86.256H151.96V84.336C151.96 83.16 151.984 82.608 152.104 81.912H149.248C149.368 82.632 149.392 83.16 149.392 84.36V86.256H148.408C147.712 86.256 147.256 86.232 146.632 86.112V88.68C147.28 88.608 147.808 88.584 148.36 88.584H149.392V92.856C148 93.312 147.112 93.552 146.464 93.624L146.848 96.288C147.184 96.144 147.52 96.024 148.096 95.808C148.552 95.664 148.84 95.568 149.392 95.352V100.752C149.392 101.352 149.248 101.472 148.552 101.472C147.976 101.472 147.448 101.424 146.512 101.328C146.872 102.24 146.992 102.792 147.064 103.8C147.928 103.848 148.528 103.872 149.056 103.872C150.976 103.872 151.624 103.536 151.864 102.432C152.848 103.176 152.944 103.248 153.688 104.088C154.96 102.576 155.392 101.976 156.208 100.368C157.024 101.328 157.936 102.072 158.896 102.552C160.36 103.272 162.256 103.56 165.688 103.56C166.384 103.56 167.296 103.56 168.112 103.536C168.256 102.504 168.376 101.976 168.736 100.992C167.464 101.112 166.24 101.16 164.752 101.16C163.696 101.16 163 101.136 162.184 101.04V98.52ZM155.392 95.232C155.224 96.696 154.744 98.184 154.024 99.48C153.448 100.512 152.872 101.232 151.936 102.12C151.96 101.856 151.96 101.736 151.96 101.52V94.392C152.872 94.032 153.136 93.912 153.952 93.552V94.536C154.48 94.464 154.96 94.44 155.8 94.44H159.688V100.416C158.536 99.816 157.816 99.192 157.168 98.16C157.288 97.752 157.36 97.536 157.456 97.224C157.72 96.312 157.816 96.024 157.888 95.832L155.392 95.232ZM164.416 91.056C165.4 91.056 166.168 91.08 166.792 91.128C166.696 89.688 166.696 89.616 166.696 88.728V84.768C166.696 83.856 166.72 83.184 166.816 82.608C166.12 82.68 165.496 82.704 164.512 82.704H157.36C156.448 82.704 155.752 82.68 155.032 82.608C155.08 83.208 155.104 83.928 155.104 84.864V88.656C155.08 89.928 155.056 90.744 155.032 91.104C155.704 91.056 156.088 91.056 157.048 91.056H164.416ZM157.552 84.792H164.248V85.896H157.552V84.792ZM157.552 87.864H164.248V89.016H157.552V87.864ZM189.544 89.328C190.696 89.328 191.44 89.352 192.184 89.448V87.24C191.464 87.336 191.08 87.36 189.736 87.36H181.072C181.192 87.216 181.288 87.096 181.336 87C181.504 86.784 181.624 86.616 181.648 86.568C181.96 86.136 181.96 86.136 182.128 85.944L179.56 85.344C179.32 85.848 178.96 86.448 178.312 87.36H173.704C172.432 87.36 171.856 87.336 171.28 87.24V89.448C172.072 89.376 172.864 89.328 173.92 89.328H176.728C175.84 90.288 175.432 90.696 174.544 91.416C177.856 91.848 178.288 91.92 179.152 92.064C177.184 92.52 174.376 92.832 172.216 92.832C172.048 92.832 171.784 92.832 171.472 92.832C171.976 93.528 172.216 94.032 172.48 94.896C177.088 94.656 180.256 94.056 182.848 92.904C186.088 93.816 187.912 94.416 189.76 95.208L191.32 93.288C189.448 92.616 188.176 92.232 185.248 91.512C186.136 90.84 186.64 90.336 187.408 89.328H189.544ZM184.456 89.328C183.832 89.976 183.28 90.36 182.368 90.888C180.88 90.576 180.496 90.504 178.72 90.192C179.104 89.784 179.248 89.64 179.512 89.328H184.456ZM182.728 95.808V95.64C182.728 94.968 182.752 94.632 182.848 94.08H180.088C180.184 94.632 180.208 95.016 180.208 95.64V95.808H173.68C172.576 95.808 171.808 95.76 171.016 95.664V98.088C171.808 97.992 172.504 97.968 173.728 97.968H178.144C176.272 99.456 173.44 100.752 170.272 101.568C170.92 102.264 171.304 102.864 171.76 103.872C175.768 102.432 178.096 101.088 180.256 99.024C180.232 99.288 180.232 99.384 180.232 99.528C180.232 99.816 180.232 99.816 180.232 100.128C180.208 100.512 180.208 100.608 180.208 100.896V101.952C180.208 102.864 180.184 103.368 180.064 103.968H182.848C182.776 103.632 182.728 102.912 182.728 101.952V100.872C182.728 100.56 182.68 99.672 182.656 98.976C184.144 100.272 184.912 100.848 186.256 101.616C187.936 102.576 189.136 103.104 191.584 103.848C191.992 102.84 192.424 102.072 192.904 101.448C189.616 100.728 187.456 99.816 184.744 97.968H189.64C190.84 97.968 191.608 98.016 192.376 98.088V95.664C191.584 95.76 190.816 95.808 189.64 95.808H182.728ZM174.232 83.208C173.176 83.208 172.432 83.184 171.592 83.112C171.664 83.712 171.688 84.144 171.688 84.792V85.56C171.688 86.064 171.664 86.448 171.592 86.904H174.184V85.296H189.376V86.928H191.944C191.896 86.52 191.872 86.088 191.872 85.512V84.816C191.872 84.072 191.896 83.664 191.968 83.112C191.176 83.184 190.552 83.208 189.376 83.208H182.944C182.944 82.464 182.968 82.08 183.064 81.6H180.136C180.208 82.128 180.256 82.464 180.256 83.208H174.232ZM217.216 85.848C216.64 85.944 216.112 85.968 214.96 85.968H210.784C211.048 85.032 211.264 84.216 211.408 83.592C211.6 82.776 211.648 82.56 211.744 82.272L209.104 81.744C209.08 82.44 208.84 83.88 208.528 85.008C207.784 87.912 206.776 90.048 205.288 91.92C205.96 92.424 206.488 92.952 207.016 93.648C207.52 92.976 207.688 92.736 208.12 92.064C208.552 94.344 209.008 95.664 210.136 97.704C209.2 98.832 208.12 99.792 206.728 100.704C206.176 101.064 205.864 101.232 204.832 101.736C205.432 102.504 205.648 102.888 206.128 104.136C208.216 103.056 210.04 101.592 211.576 99.84C212.824 101.472 214.456 102.912 216.256 103.968C216.688 102.912 217.096 102.168 217.648 101.424C215.776 100.488 214.384 99.336 213.088 97.68C214.6 95.064 215.344 92.256 215.536 88.272C216.472 88.296 216.736 88.296 217.216 88.368V85.848ZM213.088 88.272C212.968 91.272 212.536 93.312 211.6 95.328C210.568 93.288 210.064 91.584 209.68 89.016C209.8 88.704 209.8 88.704 209.992 88.272H213.088ZM205.552 100.392C204.736 99.864 204.568 99.768 203.608 99.312C204.352 98.256 204.568 97.752 205.048 96.24C206.08 96.24 206.488 96.264 206.992 96.36V93.936C206.536 94.032 206.056 94.056 205.216 94.056H201.424C201.616 93.6 201.712 93.432 201.928 92.832L199.432 92.352C199.144 93.216 199.048 93.504 198.808 94.056H197.008C196.12 94.056 195.64 94.032 195.112 93.936V96.36C195.664 96.264 196.144 96.24 197.008 96.24H197.704C197.128 97.248 196.912 97.56 196.144 98.616C197.848 99.24 198.496 99.504 199.696 100.032C198.376 100.872 197.104 101.352 194.944 101.808C195.472 102.528 195.832 103.176 196.192 104.016C199 103.224 200.416 102.528 201.928 101.16C202.936 101.712 203.272 101.928 204.16 102.624L205.552 100.392ZM202.552 96.24C202.312 97.08 201.976 97.704 201.472 98.376C200.752 98.064 200.44 97.944 199.432 97.584C199.864 96.936 199.936 96.816 200.272 96.24H202.552ZM202.456 86.304V83.424C202.456 82.704 202.48 82.296 202.552 81.84H199.936C200.032 82.32 200.056 82.728 200.056 83.472V86.304H197.2C196.288 86.304 195.736 86.28 195.184 86.184V88.488C195.712 88.392 196.312 88.368 197.176 88.368H198.472C197.68 89.52 196.552 90.384 194.632 91.368C195.4 92.136 195.664 92.472 196.192 93.36C198.04 92.088 198.808 91.344 200.104 89.592C200.056 90.024 200.032 90.408 200.032 90.624V91.536C200.032 91.8 200.008 92.064 199.96 92.328H202.528C202.456 92.04 202.432 91.752 202.432 91.44V90.576C202.432 90.384 202.408 90.096 202.36 89.592C202.96 90.504 203.296 90.864 204.496 91.872C205.144 90.744 205.24 90.6 205.888 89.904C204.712 89.256 204.208 88.896 203.776 88.368H205.384C206.128 88.368 206.56 88.392 206.92 88.44V86.232C206.632 86.28 206.104 86.304 205.384 86.304H202.456ZM195.784 82.848C196.528 83.952 196.912 84.696 197.392 86.04L199.504 85.248C199.024 83.976 198.736 83.4 197.824 82.08L195.784 82.848ZM204.616 82.032C204.208 83.208 203.68 84.192 202.912 85.248L204.952 86.16C205.696 85.056 205.864 84.768 206.776 82.92L204.616 82.032Z" fill="#1C9E3B"/>
</svg>
