<svg width="554" height="258" viewBox="0 0 554 258" fill="none" xmlns="http://www.w3.org/2000/svg">
<rect y="206.002" width="263" height="51" fill="#F3F3F4"/>
<rect x="291" y="0.00244141" width="263" height="257" fill="#38A973"/>
<g filter="url(#filter0_d)">
<path fill-rule="evenodd" clip-rule="evenodd" d="M255.783 51.3803C247.167 57.1197 228.286 69.6741 213.826 79.2796C197.288 90.264 187.934 97.051 188.613 97.575C189.206 98.0338 193.811 100.387 198.845 102.805C203.879 105.224 208.278 107.569 208.621 108.015C209.579 109.267 199.764 131.463 193.367 142.506C186.093 155.064 181.09 161.702 171.228 171.883C162.722 180.664 148.653 190.634 138.856 194.823C130.817 198.262 118.038 201.665 113.5 201.575C111.111 201.529 109.688 202.021 109.518 202.952C109.077 205.383 129.776 207.715 141.21 206.524C163.155 204.237 182.005 196.756 203.95 181.627C220.584 170.16 229.502 162.018 245.877 143.352C251.555 136.879 256.474 131.634 256.81 131.695C257.145 131.755 261.815 133.942 267.188 136.553C272.561 139.165 277.334 141.37 277.794 141.453C278.508 141.583 272.499 42.4559 271.725 41.3423C271.573 41.1232 264.398 45.6399 255.783 51.3803Z" fill="#38A973"/>
<path fill-rule="evenodd" clip-rule="evenodd" d="M255.783 51.3803C247.167 57.1197 228.286 69.6741 213.826 79.2796C197.288 90.264 187.934 97.051 188.613 97.575C189.206 98.0338 193.811 100.387 198.845 102.805C203.879 105.224 208.278 107.569 208.621 108.015C209.579 109.267 199.764 131.463 193.367 142.506C186.093 155.064 181.09 161.702 171.228 171.883C162.722 180.664 148.653 190.634 138.856 194.823C130.817 198.262 118.038 201.665 113.5 201.575C111.111 201.529 109.688 202.021 109.518 202.952C109.077 205.383 129.776 207.715 141.21 206.524C163.155 204.237 182.005 196.756 203.95 181.627C220.584 170.16 229.502 162.018 245.877 143.352C251.555 136.879 256.474 131.634 256.81 131.695C257.145 131.755 261.815 133.942 267.188 136.553C272.561 139.165 277.334 141.37 277.794 141.453C278.508 141.583 272.499 42.4559 271.725 41.3423C271.573 41.1232 264.398 45.6399 255.783 51.3803Z" stroke="white" stroke-width="6"/>
</g>
<defs>
<filter id="filter0_d" x="74.5098" y="6.33447" width="238.343" height="235.51" filterUnits="userSpaceOnUse" color-interpolation-filters="sRGB">
<feFlood flood-opacity="0" result="BackgroundImageFix"/>
<feColorMatrix in="SourceAlpha" type="matrix" values="0 0 0 0 0 0 0 0 0 0 0 0 0 0 0 0 0 0 127 0"/>
<feOffset/>
<feGaussianBlur stdDeviation="16"/>
<feColorMatrix type="matrix" values="0 0 0 0 0 0 0 0 0 0 0 0 0 0 0 0 0 0 0.15 0"/>
<feBlend mode="normal" in2="BackgroundImageFix" result="effect1_dropShadow"/>
<feBlend mode="normal" in="SourceGraphic" in2="effect1_dropShadow" result="shape"/>
</filter>
</defs>
</svg>
