<?xml version="1.0" encoding="UTF-8"?>
<svg width="420px" height="280px" viewBox="0 0 420 280" version="1.1" xmlns="http://www.w3.org/2000/svg" xmlns:xlink="http://www.w3.org/1999/xlink">
    <!-- Generator: sketchtool 64 (101010) - https://sketch.com -->
    <title>F2FF4000-AE36-4506-82A1-80D414CA0864</title>
    <desc>Created with sketchtool.</desc>
    <defs>
        <linearGradient x1="50%" y1="0.142457637%" x2="50%" y2="100%" id="linearGradient-1">
            <stop stop-color="#FF2700" offset="0.0475084459%"></stop>
            <stop stop-color="#FF5800" offset="32.3382775%"></stop>
            <stop stop-color="#FF8200" offset="100%"></stop>
        </linearGradient>
        <linearGradient x1="50%" y1="100%" x2="50%" y2="-30.7228445%" id="linearGradient-2">
            <stop stop-color="#0C9F35" offset="0.0316722973%"></stop>
            <stop stop-color="#8EDB2D" offset="100%"></stop>
        </linearGradient>
        <linearGradient x1="42.4270177%" y1="15.2051717%" x2="59.9254975%" y2="100%" id="linearGradient-3">
            <stop stop-color="#FF0000" offset="0%"></stop>
            <stop stop-color="#21D700" offset="100%"></stop>
        </linearGradient>
    </defs>
    <g id="Web" stroke="none" stroke-width="1" fill="none" fill-rule="evenodd">
        <g id="TOP_new" transform="translate(-100.000000, -2411.000000)">
            <g id="image/interview/80percent_small" transform="translate(100.000000, 2411.000000)">
                <rect id="Rectangle" fill="#FFFFFF" x="0" y="0" width="420" height="280"></rect>
                <g id="Group-2" transform="translate(4.000000, 7.000000)">
                    <g id="Group" transform="translate(32.000000, 5.000000)" stroke-dasharray="3" stroke-linecap="round" stroke-linejoin="bevel">
                        <line x1="0.258411844" y1="169.5" x2="383.741588" y2="169.5" id="Line" stroke="#B7B7B7"></line>
                        <line x1="0.258411844" y1="135.5" x2="383.741588" y2="135.5" id="Line" stroke="#B7B7B7"></line>
                        <line x1="0.258411844" y1="102.5" x2="383.741588" y2="102.5" id="Line" stroke="#B7B7B7"></line>
                        <line x1="0.258411844" y1="203.5" x2="383.741588" y2="203.5" id="Line" stroke="#B7B7B7"></line>
                        <line x1="0.258411844" y1="68.5" x2="383.741588" y2="68.5" id="Line" stroke="#B7B7B7"></line>
                        <line x1="0.258411844" y1="34.5" x2="383.741588" y2="34.5" id="Line" stroke="#B7B7B7"></line>
                        <line x1="0.258411844" y1="1" x2="383.741588" y2="1" id="Line" stroke="#B7B7B7"></line>
                        <line x1="0.258411844" y1="237.5" x2="383.741588" y2="237.5" id="Line" stroke="#303030"></line>
                    </g>
                    <rect id="Rectangle" fill="url(#linearGradient-1)" x="82" y="39" width="90" height="202"></rect>
                    <path d="M24.3910035,-1.15463195e-13 C25.16609,1.57488987 26.6920415,3.35572687 28,4.32488987 C27.7093426,4.56718062 27.2733564,5.0154185 27.0553633,5.33039648 C26.7283737,5.05176211 26.3771626,4.71255507 26.0380623,4.33700441 C26.0380623,4.44603524 26.0380623,4.70044053 26.0259516,4.80947137 C25.8685121,8.48017621 25.6989619,9.88546256 25.2871972,10.3579295 C25.0086505,10.7092511 24.7301038,10.7940529 24.2941176,10.8546256 C23.8823529,10.9030837 23.1435986,10.8909692 22.416955,10.8546256 C22.4048443,10.5154185 22.2474048,10.0429515 22.0415225,9.71585903 C22.7802768,9.78854626 23.4705882,9.80066079 23.7491349,9.80066079 C23.9913495,9.80066079 24.1366782,9.76431718 24.2698962,9.63105727 C24.5484429,9.34030837 24.7058824,8.20154185 24.8269896,5.39096916 L24.8269896,5.39096916 L22.0294118,5.39096916 C21.7266436,7.74118943 20.9515571,9.86123348 17.8391003,11 C17.7179931,10.7092511 17.3788927,10.2246696 17.1245675,9.99449339 C19.9100346,9.07378855 20.5519031,7.30506608 20.8062284,5.39096916 L20.8062284,5.39096916 L18.5415225,5.39096916 L18.5415225,4.45814978 C18.1903114,4.8215859 17.8148789,5.14867841 17.4394464,5.43942731 C17.233564,5.19713656 16.7491349,4.74889868 16.482699,4.54295154 C17.9844291,3.5253304 19.316609,1.86563877 20.067474,0.0242290749 L20.067474,0.0242290749 L21.266436,0.375550661 C20.6366782,1.84140969 19.7283737,3.19823789 18.6989619,4.28854626 L18.6989619,4.28854626 L25.9896194,4.28854626 C24.9844291,3.18612335 23.9913495,1.780837 23.3010381,0.436123348 L23.3010381,0.436123348 Z M2.85813149,0.896475771 C4.4567474,0.896475771 5.58304498,1.72026432 5.58304498,3.19823789 C5.58304498,4.22797357 4.98961938,4.94273128 4.0449827,5.29405286 L4.0449827,5.29405286 L4.0449827,5.35462555 C5.07439446,5.60903084 5.88581315,6.38436123 5.88581315,7.58370044 C5.88581315,9.19493392 4.54152249,10.1398678 2.90657439,10.1398678 C1.5017301,10.1398678 0.593425606,9.58259912 -7.45625783e-13,8.91629956 L-7.45625783e-13,8.91629956 L0.678200692,8.01982379 C1.19896194,8.55286344 1.8650519,9.00110132 2.78546713,9.00110132 C3.79065744,9.00110132 4.48096886,8.4438326 4.48096886,7.52312775 C4.48096886,6.52973568 3.85121107,5.8876652 1.84083045,5.8876652 L1.84083045,5.8876652 L1.84083045,4.85792952 C3.59688581,4.85792952 4.17820069,4.19162996 4.17820069,3.29515419 C4.17820069,2.50770925 3.65743945,2.01101322 2.80968858,1.99889868 C2.11937716,2.01101322 1.53806228,2.35022026 1.02941176,2.8469163 L1.02941176,2.8469163 L0.302768166,1.9746696 C1.00519031,1.34471366 1.82871972,0.896475771 2.85813149,0.896475771 Z M12.3892734,1.0660793 L12.3892734,2.24118943 L9.08304498,2.24118943 L8.87716263,4.530837 C9.25259516,4.33700441 9.61591696,4.21585903 10.100346,4.21585903 C11.5899654,4.21585903 12.8131488,5.10022026 12.8131488,7.05066079 C12.8131488,9.0253304 11.3719723,10.1398678 9.80968858,10.1398678 C8.40484429,10.1398678 7.52076125,9.57048458 6.89100346,8.95264317 L6.89100346,8.95264317 L7.55709343,8.04405286 C8.06574394,8.55286344 8.70761246,9.00110132 9.64013841,9.00110132 C10.6453287,9.00110132 11.4083045,8.28634361 11.4083045,7.09911894 C11.4083045,5.91189427 10.7301038,5.23348018 9.71280277,5.23348018 C9.14359862,5.23348018 8.80449827,5.4030837 8.28373702,5.74229075 L8.28373702,5.74229075 L7.60553633,5.29405286 L7.87197232,1.0660793 L12.3892734,1.0660793 Z" id="Combined-Shape" fill="#787878" fill-rule="nonzero"></path>
                    <path d="M24.3910035,34 C25.16609,35.5748899 26.6920415,37.3557269 28,38.3248899 C27.7093426,38.5671806 27.2733564,39.0154185 27.0553633,39.3303965 C26.7283737,39.0517621 26.3771626,38.7125551 26.0380623,38.3370044 C26.0380623,38.4460352 26.0380623,38.7004405 26.0259516,38.8094714 C25.8685121,42.4801762 25.6989619,43.8854626 25.2871972,44.3579295 C25.0086505,44.7092511 24.7301038,44.7940529 24.2941176,44.8546256 C23.8823529,44.9030837 23.1435986,44.8909692 22.416955,44.8546256 C22.4048443,44.5154185 22.2474048,44.0429515 22.0415225,43.715859 C22.7802768,43.7885463 23.4705882,43.8006608 23.7491349,43.8006608 C23.9913495,43.8006608 24.1366782,43.7643172 24.2698962,43.6310573 C24.5484429,43.3403084 24.7058824,42.2015419 24.8269896,39.3909692 L24.8269896,39.3909692 L22.0294118,39.3909692 C21.7266436,41.7411894 20.9515571,43.8612335 17.8391003,45 C17.7179931,44.7092511 17.3788927,44.2246696 17.1245675,43.9944934 C19.9100346,43.0737885 20.5519031,41.3050661 20.8062284,39.3909692 L20.8062284,39.3909692 L18.5415225,39.3909692 L18.5415225,38.4581498 C18.1903114,38.8215859 17.8148789,39.1486784 17.4394464,39.4394273 C17.233564,39.1971366 16.7491349,38.7488987 16.482699,38.5429515 C17.9844291,37.5253304 19.316609,35.8656388 20.067474,34.0242291 L20.067474,34.0242291 L21.266436,34.3755507 C20.6366782,35.8414097 19.7283737,37.1982379 18.6989619,38.2885463 L18.6989619,38.2885463 L25.9896194,38.2885463 C24.9844291,37.1861233 23.9913495,35.780837 23.3010381,34.4361233 L23.3010381,34.4361233 Z M2.85813149,34.8964758 C4.4567474,34.8964758 5.58304498,35.7202643 5.58304498,37.1982379 C5.58304498,38.2279736 4.98961938,38.9427313 4.0449827,39.2940529 L4.0449827,39.2940529 L4.0449827,39.3546256 C5.07439446,39.6090308 5.88581315,40.3843612 5.88581315,41.5837004 C5.88581315,43.1949339 4.54152249,44.1398678 2.90657439,44.1398678 C1.5017301,44.1398678 0.593425606,43.5825991 -7.45625783e-13,42.9162996 L-7.45625783e-13,42.9162996 L0.678200692,42.0198238 C1.19896194,42.5528634 1.8650519,43.0011013 2.78546713,43.0011013 C3.79065744,43.0011013 4.48096886,42.4438326 4.48096886,41.5231278 C4.48096886,40.5297357 3.85121107,39.8876652 1.84083045,39.8876652 L1.84083045,39.8876652 L1.84083045,38.8579295 C3.59688581,38.8579295 4.17820069,38.19163 4.17820069,37.2951542 C4.17820069,36.5077093 3.65743945,36.0110132 2.80968858,35.9988987 C2.11937716,36.0110132 1.53806228,36.3502203 1.02941176,36.8469163 L1.02941176,36.8469163 L0.302768166,35.9746696 C1.00519031,35.3447137 1.82871972,34.8964758 2.85813149,34.8964758 Z M10.0155709,34.8964758 C11.7595156,34.8964758 12.8979239,36.410793 12.8979239,39.4878855 C12.8979239,42.589207 11.7595156,44.1398678 10.0155709,44.1398678 C8.25951557,44.1398678 7.13321799,42.589207 7.13321799,39.4878855 C7.13321799,36.3986784 8.25951557,34.8964758 10.0155709,34.8964758 Z M10.0155709,35.9988987 C9.10726644,35.9988987 8.46539792,36.9317181 8.46539792,39.4878855 C8.46539792,42.0682819 9.10726644,43.0374449 10.0155709,43.0374449 C10.9238754,43.0374449 11.5657439,42.0682819 11.5657439,39.4878855 C11.5657439,36.9317181 10.9238754,35.9988987 10.0155709,35.9988987 Z" id="Combined-Shape" fill="#787878" fill-rule="nonzero"></path>
                    <path d="M24.3753258,67 C25.1537793,68.5748899 26.6863597,70.3557269 28,71.3248899 C27.7080799,71.5671806 27.2701998,72.0154185 27.0512598,72.3303965 C26.7228497,72.0517621 26.3701129,71.7125551 26.0295395,71.3370044 C26.0295395,71.4460352 26.0295395,71.7004405 26.0173762,71.8094714 C25.8592528,75.4801762 25.6889661,76.8854626 25.2754127,77.3579295 C24.995656,77.7092511 24.7158992,77.7940529 24.2780191,77.8546256 C23.8644657,77.9030837 23.1225022,77.8909692 22.392702,77.8546256 C22.3805387,77.5154185 22.2224153,77.0429515 22.0156386,76.715859 C22.7576021,76.7885463 23.4509123,76.8006608 23.730669,76.8006608 C23.9739357,76.8006608 24.1198957,76.7643172 24.2536924,76.6310573 C24.5334492,76.3403084 24.6915725,75.2015419 24.8132059,72.3909692 L24.8132059,72.3909692 L22.0034752,72.3909692 C21.6993918,74.7411894 20.9209383,76.8612335 17.7949609,78 C17.6733275,77.7092511 17.3327541,77.2246696 17.0773241,76.9944934 C19.8748914,76.0737885 20.5195482,74.3050661 20.7749783,72.3909692 L20.7749783,72.3909692 L18.5004344,72.3909692 L18.5004344,71.4581498 C18.1476977,71.8215859 17.7706342,72.1486784 17.3935708,72.4394273 C17.1867941,72.1971366 16.7002606,71.7488987 16.4326672,71.5429515 C17.9409209,70.5253304 19.2788879,68.8656388 20.0330148,67.0242291 L20.0330148,67.0242291 L21.2371851,67.3755507 C20.6046916,68.8414097 19.6924414,70.1982379 18.6585578,71.2885463 L18.6585578,71.2885463 L25.9808862,71.2885463 C24.9713293,70.1861233 23.9739357,68.780837 23.2806255,67.4361233 L23.2806255,67.4361233 Z M12.3214596,68.0660793 L12.3214596,69.2411894 L9.00086881,69.2411894 L8.79409209,71.530837 C9.17115552,71.3370044 9.5360556,71.215859 10.0225891,71.215859 C11.5186794,71.215859 12.7471764,72.1002203 12.7471764,74.0506608 C12.7471764,76.0253304 11.2997394,77.1398678 9.73066898,77.1398678 C8.31972198,77.1398678 7.43179844,76.5704846 6.79930495,75.9526432 L6.79930495,75.9526432 L7.46828844,75.0440529 C7.97914857,75.5528634 8.62380539,76.0011013 9.56038228,76.0011013 C10.5699392,76.0011013 11.3362294,75.2863436 11.3362294,74.0991189 C11.3362294,72.9118943 10.6550825,72.2334802 9.63336229,72.2334802 C9.06168549,72.2334802 8.72111208,72.4030837 8.19808862,72.7422907 L8.19808862,72.7422907 L7.51694179,72.2940529 L7.78453519,68.0660793 L12.3214596,68.0660793 Z M2.72458732,67.8964758 C4.36663771,67.8964758 5.42484796,68.9625551 5.42484796,70.5737885 C5.42484796,72.2940529 4.05039096,74.0748899 2.15291051,75.8799559 C2.61511729,75.8314978 3.17463076,75.7951542 3.61251086,75.7951542 L3.61251086,75.7951542 L5.85056473,75.7951542 L5.85056473,76.9823789 L0.0729800174,76.9823789 L0.0729800174,76.1707048 C2.71242398,73.8447137 4.07471764,72.1123348 4.07471764,70.6464758 C4.07471764,69.6773128 3.55169418,69.0110132 2.55430061,69.0110132 C1.84882711,69.0110132 1.26498697,69.4592511 0.790616855,70.0044053 L0.790616855,70.0044053 L4.24993374e-13,69.2290749 C0.766290182,68.4052863 1.55690704,67.8964758 2.72458732,67.8964758 Z" id="Combined-Shape" fill="#787878" fill-rule="nonzero"></path>
                    <path d="M24.3753258,101 C25.1537793,102.57489 26.6863597,104.355727 28,105.32489 C27.7080799,105.567181 27.2701998,106.015419 27.0512598,106.330396 C26.7228497,106.051762 26.3701129,105.712555 26.0295395,105.337004 C26.0295395,105.446035 26.0295395,105.700441 26.0173762,105.809471 C25.8592528,109.480176 25.6889661,110.885463 25.2754127,111.35793 C24.995656,111.709251 24.7158992,111.794053 24.2780191,111.854626 C23.8644657,111.903084 23.1225022,111.890969 22.392702,111.854626 C22.3805387,111.515419 22.2224153,111.042952 22.0156386,110.715859 C22.7576021,110.788546 23.4509123,110.800661 23.730669,110.800661 C23.9739357,110.800661 24.1198957,110.764317 24.2536924,110.631057 C24.5334492,110.340308 24.6915725,109.201542 24.8132059,106.390969 L24.8132059,106.390969 L22.0034752,106.390969 C21.6993918,108.741189 20.9209383,110.861233 17.7949609,112 C17.6733275,111.709251 17.3327541,111.22467 17.0773241,110.994493 C19.8748914,110.073789 20.5195482,108.305066 20.7749783,106.390969 L20.7749783,106.390969 L18.5004344,106.390969 L18.5004344,105.45815 C18.1476977,105.821586 17.7706342,106.148678 17.3935708,106.439427 C17.1867941,106.197137 16.7002606,105.748899 16.4326672,105.542952 C17.9409209,104.52533 19.2788879,102.865639 20.0330148,101.024229 L20.0330148,101.024229 L21.2371851,101.375551 C20.6046916,102.84141 19.6924414,104.198238 18.6585578,105.288546 L18.6585578,105.288546 L25.9808862,105.288546 C24.9713293,104.186123 23.9739357,102.780837 23.2806255,101.436123 L23.2806255,101.436123 Z M9.9374457,101.896476 C11.6889661,101.896476 12.8323197,103.410793 12.8323197,106.487885 C12.8323197,109.589207 11.6889661,111.139868 9.9374457,111.139868 C8.17376195,111.139868 7.04257168,109.589207 7.04257168,106.487885 C7.04257168,103.398678 8.17376195,101.896476 9.9374457,101.896476 Z M2.72458732,101.896476 C4.36663771,101.896476 5.42484796,102.962555 5.42484796,104.573789 C5.42484796,106.294053 4.05039096,108.07489 2.15291051,109.879956 C2.61511729,109.831498 3.17463076,109.795154 3.61251086,109.795154 L3.61251086,109.795154 L5.85056473,109.795154 L5.85056473,110.982379 L0.0729800174,110.982379 L0.0729800174,110.170705 C2.71242398,107.844714 4.07471764,106.112335 4.07471764,104.646476 C4.07471764,103.677313 3.55169418,103.011013 2.55430061,103.011013 C1.84882711,103.011013 1.26498697,103.459251 0.790616855,104.004405 L0.790616855,104.004405 L4.24993374e-13,103.229075 C0.766290182,102.405286 1.55690704,101.896476 2.72458732,101.896476 Z M9.9374457,102.998899 C9.02519548,102.998899 8.38053866,103.931718 8.38053866,106.487885 C8.38053866,109.068282 9.02519548,110.037445 9.9374457,110.037445 C10.8496959,110.037445 11.4943527,109.068282 11.4943527,106.487885 C11.4943527,103.931718 10.8496959,102.998899 9.9374457,102.998899 Z" id="Combined-Shape" fill="#787878" fill-rule="nonzero"></path>
                    <path d="M24.4303461,134 C25.1969831,135.57489 26.7062999,137.355727 28,138.32489 C27.7125111,138.567181 27.2812777,139.015419 27.065661,139.330396 C26.742236,139.051762 26.3948536,138.712555 26.0594499,138.337004 C26.0594499,138.446035 26.0594499,138.700441 26.0474712,138.809471 C25.891748,142.480176 25.7240461,143.885463 25.3167702,144.35793 C25.04126,144.709251 24.7657498,144.794053 24.3345164,144.854626 C23.9272405,144.903084 23.1965395,144.890969 22.4778172,144.854626 C22.4658385,144.515419 22.3101154,144.042952 22.1064774,143.715859 C22.8371783,143.788546 23.5199645,143.800661 23.7954747,143.800661 C24.0350488,143.800661 24.1787933,143.764317 24.310559,143.631057 C24.5860692,143.340308 24.7417924,142.201542 24.8615794,139.390969 L24.8615794,139.390969 L22.0944987,139.390969 C21.7950311,141.741189 21.028394,143.861233 17.9498669,145 C17.8300799,144.709251 17.4946761,144.22467 17.2431233,143.994493 C19.9982254,143.073789 20.6330967,141.305066 20.8846495,139.390969 L20.8846495,139.390969 L18.6446318,139.390969 L18.6446318,138.45815 C18.2972493,138.821586 17.9259095,139.148678 17.5545697,139.439427 C17.3509317,139.197137 16.8717835,138.748899 16.608252,138.542952 C18.0936114,137.52533 19.4112689,135.865639 20.1539485,134.024229 L20.1539485,134.024229 L21.3398403,134.375551 C20.7169476,135.84141 19.8185448,137.198238 18.8003549,138.288546 L18.8003549,138.288546 L26.011535,138.288546 C25.0173026,137.186123 24.0350488,135.780837 23.3522626,134.436123 L23.3522626,134.436123 Z M12.5594499,135.066079 L12.5594499,136.241189 L9.28926353,136.241189 L9.08562555,138.530837 C9.45696539,138.337004 9.81632653,138.215859 10.2954747,138.215859 C11.7688554,138.215859 12.9787045,139.10022 12.9787045,141.050661 C12.9787045,143.02533 11.5532387,144.139868 10.0079858,144.139868 C8.61845608,144.139868 7.74401065,143.570485 7.12111801,142.952643 L7.12111801,142.952643 L7.77994676,142.044053 C8.28305235,142.552863 8.91792369,143.001101 9.84028394,143.001101 C10.8345164,143.001101 11.5891748,142.286344 11.5891748,141.099119 C11.5891748,139.911894 10.9183673,139.23348 9.91215617,139.23348 C9.34915705,139.23348 9.01375333,139.403084 8.49866903,139.742291 L8.49866903,139.742291 L7.82786158,139.294053 L8.09139308,135.066079 L12.5594499,135.066079 Z M4.30612245,135.066079 L4.30612245,142.831498 L6.0310559,142.831498 L6.0310559,143.982379 L1,143.982379 L1,142.831498 L2.92857143,142.831498 L2.92857143,136.628855 L1.34738243,136.628855 L1.34738243,135.744493 C2.17391304,135.587004 2.76086957,135.381057 3.26397516,135.066079 L3.26397516,135.066079 L4.30612245,135.066079 Z" id="Combined-Shape" fill="#787878" fill-rule="nonzero"></path>
                    <path d="M24.4303461,168 C25.1969831,169.57489 26.7062999,171.355727 28,172.32489 C27.7125111,172.567181 27.2812777,173.015419 27.065661,173.330396 C26.742236,173.051762 26.3948536,172.712555 26.0594499,172.337004 C26.0594499,172.446035 26.0594499,172.700441 26.0474712,172.809471 C25.891748,176.480176 25.7240461,177.885463 25.3167702,178.35793 C25.04126,178.709251 24.7657498,178.794053 24.3345164,178.854626 C23.9272405,178.903084 23.1965395,178.890969 22.4778172,178.854626 C22.4658385,178.515419 22.3101154,178.042952 22.1064774,177.715859 C22.8371783,177.788546 23.5199645,177.800661 23.7954747,177.800661 C24.0350488,177.800661 24.1787933,177.764317 24.310559,177.631057 C24.5860692,177.340308 24.7417924,176.201542 24.8615794,173.390969 L24.8615794,173.390969 L22.0944987,173.390969 C21.7950311,175.741189 21.028394,177.861233 17.9498669,179 C17.8300799,178.709251 17.4946761,178.22467 17.2431233,177.994493 C19.9982254,177.073789 20.6330967,175.305066 20.8846495,173.390969 L20.8846495,173.390969 L18.6446318,173.390969 L18.6446318,172.45815 C18.2972493,172.821586 17.9259095,173.148678 17.5545697,173.439427 C17.3509317,173.197137 16.8717835,172.748899 16.608252,172.542952 C18.0936114,171.52533 19.4112689,169.865639 20.1539485,168.024229 L20.1539485,168.024229 L21.3398403,168.375551 C20.7169476,169.84141 19.8185448,171.198238 18.8003549,172.288546 L18.8003549,172.288546 L26.011535,172.288546 C25.0173026,171.186123 24.0350488,169.780837 23.3522626,168.436123 L23.3522626,168.436123 Z M10.2116238,168.896476 C11.9365572,168.896476 13.0625555,170.410793 13.0625555,173.487885 C13.0625555,176.589207 11.9365572,178.139868 10.2116238,178.139868 C8.47471162,178.139868 7.3606921,176.589207 7.3606921,173.487885 C7.3606921,170.398678 8.47471162,168.896476 10.2116238,168.896476 Z M4.30612245,169.066079 L4.30612245,176.831498 L6.0310559,176.831498 L6.0310559,177.982379 L1,177.982379 L1,176.831498 L2.92857143,176.831498 L2.92857143,170.628855 L1.34738243,170.628855 L1.34738243,169.744493 C2.17391304,169.587004 2.76086957,169.381057 3.26397516,169.066079 L3.26397516,169.066079 L4.30612245,169.066079 Z M10.2116238,169.998899 C9.31322094,169.998899 8.6783496,170.931718 8.6783496,173.487885 C8.6783496,176.068282 9.31322094,177.037445 10.2116238,177.037445 C11.1100266,177.037445 11.744898,176.068282 11.744898,173.487885 C11.744898,170.931718 11.1100266,169.998899 10.2116238,169.998899 Z" id="Combined-Shape" fill="#787878" fill-rule="nonzero"></path>
                    <path d="M24.4096386,201 C25.1807229,202.57489 26.6987952,204.355727 28,205.32489 C27.7108434,205.567181 27.2771084,206.015419 27.060241,206.330396 C26.7349398,206.051762 26.3855422,205.712555 26.0481928,205.337004 C26.0481928,205.446035 26.0481928,205.700441 26.0361446,205.809471 C25.8795181,209.480176 25.7108434,210.885463 25.3012048,211.35793 C25.0240964,211.709251 24.746988,211.794053 24.313253,211.854626 C23.9036145,211.903084 23.1686747,211.890969 22.4457831,211.854626 C22.4337349,211.515419 22.2771084,211.042952 22.0722892,210.715859 C22.8072289,210.788546 23.4939759,210.800661 23.7710843,210.800661 C24.0120482,210.800661 24.1566265,210.764317 24.2891566,210.631057 C24.5662651,210.340308 24.7228916,209.201542 24.8433735,206.390969 L24.8433735,206.390969 L22.060241,206.390969 C21.7590361,208.741189 20.9879518,210.861233 17.8915663,212 C17.7710843,211.709251 17.4337349,211.22467 17.1807229,210.994493 C19.9518072,210.073789 20.5903614,208.305066 20.8433735,206.390969 L20.8433735,206.390969 L18.5903614,206.390969 L18.5903614,205.45815 C18.2409639,205.821586 17.8674699,206.148678 17.4939759,206.439427 C17.2891566,206.197137 16.8072289,205.748899 16.5421687,205.542952 C18.0361446,204.52533 19.3614458,202.865639 20.1084337,201.024229 L20.1084337,201.024229 L21.3012048,201.375551 C20.6746988,202.84141 19.7710843,204.198238 18.746988,205.288546 L18.746988,205.288546 L26,205.288546 C25,204.186123 24.0120482,202.780837 23.3253012,201.436123 L23.3253012,201.436123 Z M12.4698795,202.066079 L12.4698795,203.241189 L9.18072289,203.241189 L8.97590361,205.530837 C9.34939759,205.337004 9.71084337,205.215859 10.1927711,205.215859 C11.6746988,205.215859 12.8915663,206.10022 12.8915663,208.050661 C12.8915663,210.02533 11.4578313,211.139868 9.90361446,211.139868 C8.5060241,211.139868 7.62650602,210.570485 7,209.952643 L7,209.952643 L7.6626506,209.044053 C8.1686747,209.552863 8.80722892,210.001101 9.73493976,210.001101 C10.7349398,210.001101 11.4939759,209.286344 11.4939759,208.099119 C11.4939759,206.911894 10.8192771,206.23348 9.80722892,206.23348 C9.24096386,206.23348 8.90361446,206.403084 8.38554217,206.742291 L8.38554217,206.742291 L7.71084337,206.294053 L7.97590361,202.066079 L12.4698795,202.066079 Z" id="Combined-Shape" fill="#787878" fill-rule="nonzero"></path>
                    <path d="M24.3679629,235 C25.1479977,236.57489 26.6836912,238.355727 28,239.32489 C27.7074869,239.567181 27.2687174,240.015419 27.0493326,240.330396 C26.7202554,240.051762 26.3668021,239.712555 26.0255369,239.337004 C26.0255369,239.446035 26.0255369,239.700441 26.0133488,239.809471 C25.8549042,243.480176 25.6842716,244.885463 25.2698781,245.35793 C24.9895531,245.709251 24.7092281,245.794053 24.2704585,245.854626 C23.856065,245.903084 23.1125943,245.890969 22.3813117,245.854626 C22.3691236,245.515419 22.210679,245.042952 22.0034823,244.715859 C22.746953,244.788546 23.4416715,244.800661 23.7219965,244.800661 C23.9657574,244.800661 24.1120139,244.764317 24.2460824,244.631057 C24.5264074,244.340308 24.684852,243.201542 24.8067324,240.390969 L24.8067324,240.390969 L21.9912943,240.390969 C21.6865932,242.741189 20.9065583,244.861233 17.774231,246 C17.6523506,245.709251 17.3110853,245.22467 17.0551364,244.994493 C19.8583865,244.073789 20.5043529,242.305066 20.7603018,240.390969 L20.7603018,240.390969 L18.4811376,240.390969 L18.4811376,239.45815 C18.1276843,239.821586 17.7498549,240.148678 17.3720255,240.439427 C17.1648288,240.197137 16.677307,239.748899 16.4091701,239.542952 C17.9204875,238.52533 19.2611724,236.865639 20.0168311,235.024229 L20.0168311,235.024229 L21.2234475,235.375551 C20.5896692,236.84141 19.6755659,238.198238 18.6395821,239.288546 L18.6395821,239.288546 L25.9767847,239.288546 C24.965177,238.186123 23.9657574,236.780837 23.2710389,235.436123 L23.2710389,235.436123 Z M9.9007545,235.896476 C11.6558328,235.896476 12.801509,237.410793 12.801509,240.487885 C12.801509,243.589207 11.6558328,245.139868 9.9007545,245.139868 C8.1334881,245.139868 7,243.589207 7,240.487885 C7,237.398678 8.1334881,235.896476 9.9007545,235.896476 Z M9.9007545,236.998899 C8.98665119,236.998899 8.34068485,237.931718 8.34068485,240.487885 C8.34068485,243.068282 8.98665119,244.037445 9.9007545,244.037445 C10.8148578,244.037445 11.4608241,243.068282 11.4608241,240.487885 C11.4608241,237.931718 10.8148578,236.998899 9.9007545,236.998899 Z" id="Combined-Shape" fill="#787878" fill-rule="nonzero"></path>
                    <path d="M112.690495,253.142857 L113.683425,252.714286 C113.469756,252.273109 113.004713,251.466387 112.665357,251 L111.672427,251.403361 C112.024352,251.882353 112.426551,252.613445 112.690495,253.142857 Z M107.223095,254.693277 C108.404556,254.693277 109.950511,254.605042 110.817753,254.542017 L110.817753,253.042017 C110.943441,253.294118 111.069128,253.533613 111.169678,253.735294 L112.187745,253.294118 C111.94894,252.827731 111.496465,252.033613 111.182247,251.567227 L110.189317,251.970588 C110.365279,252.222689 110.55381,252.55042 110.729772,252.878151 C109.774548,252.966387 108.404556,253.042017 107.210526,253.042017 C105.903378,253.042017 104.747054,252.991597 103.829537,252.890756 L103.829537,254.554622 C104.835035,254.630252 105.915947,254.693277 107.223095,254.693277 Z M107.27337,262.508403 C109.020424,262.508403 110.516104,262.344538 111.597015,262.092437 L111.584446,260.327731 C110.478397,260.630252 108.894737,260.819328 107.210526,260.819328 C105.413197,260.819328 104.671642,260.239496 104.671642,259.445378 C104.671642,259.029412 104.759623,258.638655 104.872742,258.184874 L103.238806,258.033613 C103.138256,258.512605 103,259.117647 103,259.836134 C103,261.55042 104.420267,262.508403 107.27337,262.508403 Z M124.869599,257.428571 L124.869599,253.659664 L122.142184,253.659664 L122.305577,253.268908 L125.887667,253.268908 L125.887667,252.260504 L124.040063,252.260504 C124.216025,252.021008 124.404556,251.731092 124.593087,251.415966 L123.197958,251.201681 C123.07227,251.504202 122.858602,251.920168 122.657502,252.260504 L120.935585,252.260504 C120.809898,251.932773 120.571092,251.516807 120.357423,251.214286 L119.138256,251.441176 C119.289081,251.680672 119.452474,251.983193 119.565593,252.260504 L117.692852,252.260504 L117.692852,253.268908 L120.935585,253.268908 C120.910448,253.407563 120.872742,253.533613 120.847604,253.659664 L118.685782,253.659664 L118.685782,257.428571 L124.869599,257.428571 Z M116.51139,253.810924 L117.529458,252.915966 C117.177533,252.436975 116.410841,251.794118 115.782404,251.365546 L114.814611,252.184874 C115.443048,252.651261 116.184603,253.344538 116.51139,253.810924 Z M123.424195,254.705882 L120.068342,254.705882 L120.068342,254.327731 L123.424195,254.327731 L123.424195,254.705882 Z M122.569521,262.798319 C123.07227,262.596639 123.210526,262.243697 123.210526,261.57563 L123.210526,260.567227 L125.900236,260.567227 L125.900236,259.432773 L123.210526,259.432773 L123.210526,258.903361 C124.153181,258.890756 125.05813,258.865546 125.724273,258.840336 C125.787117,258.512605 125.963079,257.970588 126.088767,257.693277 C124.354281,257.819328 121.073841,257.857143 119.553024,257.794118 C118.484682,257.756303 117.730558,257.478992 117.315789,256.785714 L117.315789,254.340336 L114.512962,254.340336 L114.512962,255.47479 L115.958366,255.47479 L115.958366,257 C115.430479,257.302521 114.877455,257.579832 114.412412,257.806723 L114.915161,258.991597 C115.61901,258.563025 116.234878,258.172269 116.838178,257.756303 C117.441477,258.55042 118.296151,258.827731 119.565593,258.878151 C120.143755,258.890756 120.923016,258.903361 121.765122,258.903361 L121.765122,259.432773 L114.475255,259.432773 L114.475255,260.567227 L117.252946,260.567227 L116.586803,261.121849 C117.177533,261.537815 117.931658,262.180672 118.258445,262.596639 L119.339356,261.676471 C119.050275,261.348739 118.534957,260.920168 118.032207,260.567227 L121.765122,260.567227 L121.765122,261.537815 C121.765122,261.676471 121.702278,261.726891 121.501178,261.726891 C121.312647,261.739496 120.621367,261.739496 120.005499,261.701681 C120.19403,262.079832 120.407698,262.596639 120.470542,263 C121.400628,263 122.066771,262.987395 122.569521,262.798319 Z M123.424195,255.726891 L120.068342,255.726891 L120.068342,255.336134 L123.424195,255.336134 L123.424195,255.726891 Z M123.424195,256.760504 L120.068342,256.760504 L120.068342,256.357143 L123.424195,256.357143 L123.424195,256.760504 Z M128.212883,262.97479 C130.399843,261.663866 131.908091,259.571429 132.850746,256.747899 C133.542027,259.004202 134.874313,261.386555 137.476041,262.962185 C137.739984,262.571429 138.355852,261.915966 138.682639,261.651261 C134.057345,258.915966 133.717989,254.315126 133.717989,251.932773 L129.369207,251.932773 L129.369207,253.457983 L132.234878,253.457983 C132.272584,253.886555 132.322859,254.340336 132.410841,254.819328 L131.644148,254.680672 C130.952867,257.995798 129.457188,260.428571 126.842891,261.752101 C127.232522,262.042017 127.936371,262.659664 128.212883,262.97479 Z M151,254.441176 L151,253.092437 L148.448547,253.092437 C148.762765,252.651261 149.102121,252.159664 149.403771,251.668067 L147.782404,251.189076 C147.531029,251.768908 147.12883,252.512605 146.751767,253.092437 L143.257659,253.092437 L143.94894,252.852941 C143.735271,252.37395 143.232522,251.693277 142.780047,251.214286 L141.35978,251.705882 C141.711705,252.121849 142.076198,252.663866 142.302435,253.092437 L139.625295,253.092437 L139.625295,254.441176 L151,254.441176 Z M149.692852,262.697479 C150.195601,262.457983 150.333857,262.092437 150.333857,261.348739 L150.333857,255.084034 L148.863315,255.084034 L148.863315,261.323529 C148.863315,261.5 148.800471,261.55042 148.599372,261.55042 C148.385703,261.563025 147.732129,261.563025 147.091123,261.537815 C147.317361,261.928571 147.556167,262.546218 147.631579,262.94958 C148.536528,262.962185 149.21524,262.92437 149.692852,262.697479 Z M144.728201,262.722689 C145.155538,262.508403 145.281225,262.155462 145.281225,261.512605 L145.281225,255.310924 L140.316575,255.310924 L140.316575,262.92437 L141.736842,262.92437 L141.736842,260.378151 L143.835821,260.378151 L143.835821,261.5 C143.835821,261.651261 143.785546,261.701681 143.634721,261.701681 C143.471328,261.714286 142.968578,261.714286 142.503535,261.689076 C142.692066,262.029412 142.905734,262.584034 142.981147,262.962185 C143.74784,262.962185 144.326002,262.936975 144.728201,262.722689 Z M147.732129,260.579832 L147.732129,255.436975 L146.362137,255.436975 L146.362137,260.579832 L147.732129,260.579832 Z M143.835821,257.352941 L141.736842,257.352941 L141.736842,256.571429 L143.835821,256.571429 L143.835821,257.352941 Z M143.835821,259.281513 L141.736842,259.281513 L141.736842,258.462185 L143.835821,258.462185 L143.835821,259.281513 Z" id="ご導入前" fill="#434343" fill-rule="nonzero"></path>
                    <path d="M292.619964,253.131661 L293.605667,252.705329 C293.393553,252.266458 292.931895,251.46395 292.595009,251 L291.609306,251.401254 C291.958669,251.877743 292.357941,252.605016 292.619964,253.131661 Z M287.192358,254.673981 C288.36522,254.673981 289.899922,254.586207 290.760853,254.523511 L290.760853,253.031348 C290.885625,253.282132 291.010398,253.520376 291.110216,253.721003 L292.120873,253.282132 C291.883806,252.818182 291.434624,252.028213 291.122693,251.564263 L290.13699,251.965517 C290.311671,252.216301 290.49883,252.54232 290.673512,252.868339 C289.72524,252.956113 288.36522,253.031348 287.17988,253.031348 C285.882246,253.031348 284.734338,252.981191 283.823499,252.880878 L283.823499,254.53605 C284.821679,254.611285 285.894723,254.673981 287.192358,254.673981 Z M287.242267,262.448276 C288.976605,262.448276 290.461398,262.285266 291.534442,262.034483 L291.521965,260.278997 C290.423967,260.579937 288.851833,260.768025 287.17988,260.768025 C285.395633,260.768025 284.659475,260.191223 284.659475,259.401254 C284.659475,258.987461 284.746816,258.598746 284.859111,258.147335 L283.237068,257.996865 C283.13725,258.473354 283,259.075235 283,259.789969 C283,261.495298 284.40993,262.448276 287.242267,262.448276 Z M304.710424,257.394984 L304.710424,253.645768 L302.002859,253.645768 L302.165064,253.257053 L305.721081,253.257053 L305.721081,252.253918 L303.886925,252.253918 C304.061606,252.015674 304.248765,251.727273 304.435924,251.413793 L303.050949,251.200627 C302.926176,251.501567 302.714063,251.915361 302.514427,252.253918 L300.805043,252.253918 C300.68027,251.9279 300.443202,251.514107 300.231089,251.213166 L299.020795,251.438871 C299.170522,251.677116 299.332727,251.978056 299.445022,252.253918 L297.585911,252.253918 L297.585911,253.257053 L300.805043,253.257053 C300.780088,253.394984 300.742657,253.520376 300.717702,253.645768 L298.571614,253.645768 L298.571614,257.394984 L304.710424,257.394984 Z M296.413049,253.796238 L297.423707,252.905956 C297.074344,252.429467 296.313231,251.789969 295.689368,251.363636 L294.72862,252.178683 C295.352482,252.642633 296.08864,253.332288 296.413049,253.796238 Z M303.275539,254.68652 L299.944112,254.68652 L299.944112,254.310345 L303.275539,254.310345 L303.275539,254.68652 Z M302.427086,262.736677 C302.926176,262.53605 303.063426,262.184953 303.063426,261.520376 L303.063426,260.517241 L305.733559,260.517241 L305.733559,259.388715 L303.063426,259.388715 L303.063426,258.862069 C303.99922,258.84953 304.897583,258.824451 305.558877,258.799373 C305.621263,258.473354 305.795945,257.934169 305.920717,257.658307 C304.198856,257.783699 300.942293,257.821317 299.432545,257.758621 C298.371978,257.721003 297.623343,257.445141 297.211593,256.755486 L297.211593,254.322884 L294.429166,254.322884 L294.429166,255.451411 L295.86405,255.451411 L295.86405,256.968652 C295.340005,257.269592 294.791006,257.545455 294.329348,257.77116 L294.828438,258.949843 C295.527164,258.523511 296.13855,258.134796 296.737458,257.721003 C297.336366,258.510972 298.184819,258.786834 299.445022,258.836991 C300.018976,258.84953 300.792566,258.862069 301.628542,258.862069 L301.628542,259.388715 L294.391734,259.388715 L294.391734,260.517241 L297.149207,260.517241 L296.487913,261.068966 C297.074344,261.482759 297.822979,262.122257 298.147388,262.53605 L299.220432,261.62069 C298.933455,261.294671 298.421887,260.868339 297.922797,260.517241 L301.628542,260.517241 L301.628542,261.482759 C301.628542,261.62069 301.566155,261.670846 301.366519,261.670846 C301.179361,261.683386 300.493112,261.683386 299.881726,261.645768 C300.068885,262.021944 300.280998,262.53605 300.343384,262.937304 C301.266701,262.937304 301.927996,262.924765 302.427086,262.736677 Z M303.275539,255.702194 L299.944112,255.702194 L299.944112,255.31348 L303.275539,255.31348 L303.275539,255.702194 Z M303.275539,256.730408 L299.944112,256.730408 L299.944112,256.329154 L303.275539,256.329154 L303.275539,256.730408 Z M308.029374,262.912226 C310.200416,261.60815 311.697687,259.526646 312.633481,256.717868 C313.31973,258.962382 314.642319,261.332288 317.22511,262.899687 C317.487133,262.510972 318.098518,261.858934 318.422927,261.595611 C313.831297,258.874608 313.494411,254.297806 313.494411,251.9279 L309.177281,251.9279 L309.177281,253.445141 L312.022095,253.445141 C312.059527,253.871473 312.109436,254.322884 312.196777,254.799373 L311.435664,254.661442 C310.749415,257.959248 309.264622,260.37931 306.669353,261.695925 C307.056148,261.984326 307.754874,262.598746 308.029374,262.912226 Z M323.139329,263 C324.424487,262.711599 325.63478,262.272727 326.670393,261.658307 C327.643618,262.272727 328.791526,262.711599 330.114115,262.974922 C330.301274,262.586207 330.688069,262.009404 331,261.695925 C329.839615,261.520376 328.791526,261.206897 327.893164,260.780564 C328.704185,260.065831 329.36548,259.175549 329.789706,258.0721 L328.866389,257.658307 L328.629322,257.708464 L326.370938,257.708464 C326.54562,257.470219 326.707824,257.219436 326.857551,256.968652 C327.668573,256.943574 328.517026,256.918495 329.340525,256.880878 C329.515207,257.181818 329.652456,257.470219 329.752274,257.708464 L331,257.00627 C330.650637,256.203762 329.827138,255.075235 329.103457,254.260188 L327.95555,254.899687 C328.167663,255.15047 328.379776,255.413793 328.579413,255.702194 L326.345984,255.739812 C327.394073,254.84953 328.504549,253.783699 329.402911,252.830721 L328.0928,252.103448 C327.556278,252.793103 326.845074,253.583072 326.083962,254.322884 C325.884325,254.122257 325.63478,253.909091 325.372758,253.695925 C325.896803,253.169279 326.508188,252.492163 327.04471,251.840125 L325.759553,251.175549 C325.435144,251.739812 324.9111,252.429467 324.424487,252.99373 C324.187419,252.830721 323.950351,252.680251 323.738238,252.54232 L322.852352,253.507837 C323.600988,253.996865 324.474396,254.69906 325.048349,255.288401 C324.873668,255.451411 324.686509,255.61442 324.511827,255.76489 C323.800624,255.777429 323.151807,255.777429 322.59033,255.777429 L322.715103,257.094044 L325.210554,257.018809 C324.511827,257.971787 323.488692,258.799373 322.428126,259.338558 C322.715103,259.601881 323.189238,260.153605 323.388874,260.442006 C323.763192,260.216301 324.13751,259.952978 324.511827,259.664577 C324.798804,260.065831 325.13569,260.429467 325.497531,260.755486 C324.586691,261.219436 323.538602,261.545455 322.428126,261.733542 C322.690148,262.034483 323.00208,262.623824 323.139329,263 Z M319.895243,254.811912 C320.930855,254.047022 322.09124,252.830721 322.877307,251.752351 L321.567195,251.238245 C321.043151,252.053292 320.007538,253.094044 319.121653,253.721003 C319.346244,253.984326 319.708084,254.510972 319.895243,254.811912 Z M322.141149,262.962382 L322.141149,255.915361 C322.490512,255.413793 322.814921,254.899687 323.08942,254.398119 L321.791786,253.909091 C321.142969,255.125392 320.057447,256.341693 319.009358,257.131661 C319.246426,257.445141 319.645698,258.197492 319.782948,258.523511 C320.107356,258.247649 320.431765,257.946708 320.756174,257.595611 L320.756174,262.962382 L322.141149,262.962382 Z M326.657915,260.053292 C326.171302,259.689655 325.747076,259.288401 325.422667,258.836991 L325.435144,258.824451 L327.855732,258.824451 C327.531323,259.288401 327.132051,259.689655 326.657915,260.053292 Z" id="ご導入後" fill="#434343" fill-rule="nonzero"></path>
                    <rect id="Rectangle" fill="url(#linearGradient-2)" x="262" y="201" width="90" height="40"></rect>
                    <path d="M270.518792,32 L270.518792,28.3383298 C272.351612,29.9250535 274.762169,31.1456103 277.212569,31.7762313 C277.571165,31.1252677 278.268433,30.108137 278.806326,29.5792291 C276.495379,29.2130621 274.184432,28.4197002 272.491066,27.3618844 L278.268433,27.3618844 L278.268433,25.3683084 L270.518792,25.3683084 L270.518792,24.4732334 L276.495379,24.4732334 L276.495379,22.7237687 L270.518792,22.7237687 L270.518792,21.8083512 L277.431711,21.8083512 L277.431711,19.9164882 L273.527008,19.9164882 C273.825837,19.4282655 274.144588,18.879015 274.463339,18.2890792 L278.208667,18.2890792 L278.208667,16.3158458 L275.618813,16.3158458 C276.077018,15.6038544 276.614911,14.6884368 277.172725,13.7526767 L274.682481,13.1423983 C274.403574,14.0374732 273.905525,15.25803 273.427398,16.0920771 L274.144588,16.3158458 L272.371534,16.3158458 L272.371534,13 L270.140275,13 L270.140275,16.3158458 L268.666051,16.3158458 L268.666051,13 L266.454713,13 L266.454713,16.3158458 L264.641816,16.3158458 L265.617991,15.9496788 C265.339084,15.1563169 264.681659,13.9561028 264.103923,13.0813704 L262.071883,13.7933619 C262.510166,14.5663812 263.028137,15.5428266 263.307045,16.3158458 L260.637503,16.3158458 L260.637503,18.2890792 L264.801191,18.2890792 L264.562128,18.3297645 C264.821113,18.7976445 265.080099,19.4079229 265.239474,19.9164882 L261.454303,19.9164882 L261.454303,21.8083512 L268.187924,21.8083512 L268.187924,22.7237687 L262.4504,22.7237687 L262.4504,24.4732334 L268.187924,24.4732334 L268.187924,25.3683084 L260.577737,25.3683084 L260.577737,27.3618844 L266.295338,27.3618844 C264.58205,28.4197002 262.231259,29.2740899 260,29.74197 C260.498049,30.2301927 261.175395,31.1659529 261.514069,31.7558887 C263.884781,31.1252677 266.335182,29.9453961 268.187924,28.4603854 L268.187924,32 L270.518792,32 Z M271.136373,19.9164882 L267.410967,19.9164882 L267.749641,19.8554604 C267.610187,19.4079229 267.351201,18.8179872 267.072294,18.2890792 L271.833641,18.2890792 C271.6145,18.8383298 271.375436,19.4282655 271.136373,19.9164882 Z M281.993839,31.9186296 C283.229,31.9186296 284.125488,31.8779443 284.802834,31.4914347 C285.500103,31.1252677 285.659478,30.4743041 285.659478,29.375803 L285.659478,22.2152034 L286.715342,22.2152034 C286.536044,23.2526767 286.296981,24.2698073 286.077839,25.0224839 L287.671596,25.7751606 C288.030191,24.859743 288.368864,23.6391863 288.647772,22.3779443 C288.886835,22.7034261 289.086055,23.0085653 289.205586,23.232334 C290.719655,22.8051392 292.09427,22.2558887 293.269665,21.5235546 C294.464983,22.2762313 295.819675,22.8865096 297.333744,23.2730193 C297.652495,22.6627409 298.30992,21.7066381 298.827891,21.2184154 C297.49312,20.9539615 296.257959,20.5471092 295.162251,20.0182013 C295.979051,19.1841542 296.636476,18.2077088 297.154446,17.0481799 L298.30992,17.0481799 L298.30992,15.0342612 L292.432943,15.0342612 C292.71185,14.5663812 292.950914,14.0985011 293.170055,13.6102784 L290.958718,13 C290.181762,14.8715203 288.707537,16.7023555 287.153625,17.8415418 C287.71144,18.1670236 288.62785,18.8179872 289.086055,19.2044968 C289.384884,18.9400428 289.683713,18.6552463 289.982543,18.3297645 C290.400904,18.9400428 290.879031,19.509636 291.397001,20.0182013 C290.679811,20.4047109 289.843089,20.7098501 288.966523,20.9539615 L289.046211,20.4860814 L287.61183,19.9978587 L287.293079,20.0995717 L286.336825,20.0995717 L287.313001,19.0620985 C286.934483,18.7773019 286.436435,18.4721627 285.858698,18.1670236 C286.974327,17.1905782 288.089957,15.9496788 288.767303,14.8104925 L287.253235,13.8340471 L286.89464,13.9154176 L280.459848,13.9154176 L280.459848,15.9496788 L285.241117,15.9496788 C284.8626,16.3972163 284.424317,16.8447537 283.986034,17.2312634 C283.448141,16.987152 282.890327,16.7633833 282.4122,16.5802998 L280.918053,18.1263383 C282.153214,18.6349036 283.647361,19.4079229 284.76299,20.0995717 L280.200863,20.0995717 L280.200863,22.2152034 L282.691107,22.2152034 C281.993839,23.8222698 280.957897,25.4089936 279.862189,26.4057816 C280.220785,27.0567452 280.738755,28.0535332 280.937975,28.745182 C281.894229,27.8501071 282.730951,26.487152 283.428219,24.9817987 L283.428219,29.3351178 C283.428219,29.5792291 283.348532,29.6199143 283.109468,29.640257 C282.850483,29.640257 282.053604,29.640257 281.316492,29.6199143 C281.615321,30.2708779 281.934073,31.2473233 281.993839,31.9186296 Z M293.209899,18.7773019 C292.552475,18.2687366 291.99466,17.6788009 291.556377,17.0481799 L294.524748,17.0481799 C294.186075,17.6991435 293.747792,18.2890792 293.209899,18.7773019 Z M287.990347,32 C291.138016,30.738758 292.552475,28.7655246 293.229821,26.3447537 L295.540768,26.3447537 C295.321627,28.2366167 295.062641,29.111349 294.783734,29.375803 C294.584514,29.5588865 294.425139,29.5995717 294.146231,29.5995717 C293.82748,29.5995717 293.150133,29.5792291 292.432943,29.4978587 C292.791538,30.108137 293.050524,31.0642398 293.070446,31.735546 C293.986856,31.7762313 294.803656,31.7558887 295.301705,31.6948608 C295.899363,31.6134904 296.317724,31.4507495 296.756007,30.9828694 C297.333744,30.3319058 297.692339,28.7655246 298.011091,25.2462527 C298.050934,24.9614561 298.090778,24.3308351 298.090778,24.3308351 L293.648182,24.3308351 C293.72787,23.7408994 293.787636,23.130621 293.847402,22.5203426 L291.476689,22.5203426 C291.436845,23.1509636 291.377079,23.7408994 291.27747,24.3308351 L288.368864,24.3308351 L288.368864,26.3447537 L290.779421,26.3447537 C290.16184,27.9314775 289.006367,29.2334047 286.615732,30.1284797 C287.113781,30.5760171 287.731362,31.4304069 287.990347,32 Z M312.135757,31.9796574 C313.609982,31.9796574 314.685767,31.9186296 315.462723,31.5728051 C316.23968,31.2066381 316.458821,30.5963597 316.458821,29.4368308 L316.458821,25.0021413 L318.371329,25.0021413 L318.371329,22.9068522 L316.458821,22.9068522 L316.458821,21.1573876 L318.510783,21.1573876 L318.510783,19.0417559 L313.968577,19.0417559 L313.968577,17.251606 L317.952968,17.251606 L317.952968,15.1359743 L313.968577,15.1359743 L313.968577,13 L311.637708,13 L311.637708,15.1359743 L307.812693,15.1359743 L307.812693,17.251606 L311.637708,17.251606 L311.637708,19.0417559 L307.135346,19.0417559 L307.135346,21.1573876 L314.167796,21.1573876 L314.167796,22.9068522 L307.17519,22.9068522 L307.17519,25.0021413 L314.167796,25.0021413 L314.167796,29.375803 C314.167796,29.6605996 314.068186,29.74197 313.749435,29.74197 C313.450606,29.74197 312.334976,29.74197 311.378723,29.7012848 C311.697474,30.3522484 312.056069,31.3083512 312.135757,31.9796574 Z M302.752516,29.8640257 L302.752516,28.0738758 L306.796673,28.0738758 L306.796673,14.2408994 L300.561101,14.2408994 L300.561101,29.8640257 L302.752516,29.8640257 Z M304.585336,19.9775161 L302.752516,19.9775161 L302.752516,16.3972163 L304.585336,16.3972163 L304.585336,19.9775161 Z M304.585336,25.9175589 L302.752516,25.9175589 L302.752516,22.0931478 L304.585336,22.0931478 L304.585336,25.9175589 Z M310.243171,29.7826552 L312.275211,28.5824411 C311.856849,27.5856531 310.781064,26.2430407 309.864654,25.2462527 L307.972068,26.3650964 C308.868556,27.4025696 309.884576,28.8468951 310.243171,29.7826552 Z M323.152598,32 L323.152598,21.1167024 L328.431916,21.1167024 L328.431916,13.7730193 L320.801807,13.7730193 L320.801807,32 L323.152598,32 Z M332.914356,32 C334.627644,32 335.783118,31.9389722 336.560074,31.5321199 C337.356952,31.1456103 337.615938,30.4336188 337.615938,29.1316916 L337.615938,13.7730193 L329.806531,13.7730193 L329.806531,21.1573876 L335.225303,21.1573876 L335.225303,29.111349 C335.225303,29.4368308 335.105771,29.5588865 334.747176,29.5588865 C334.488191,29.5792291 333.751078,29.5792291 332.974122,29.5588865 L332.974122,22.3372591 L325.304169,22.3372591 L325.304169,31.1456103 L327.45574,31.1456103 L327.45574,30.108137 L332.396385,30.108137 C332.635449,30.738758 332.85459,31.4914347 332.914356,32 Z M326.220579,16.6006424 L323.152598,16.6006424 L323.152598,15.5224839 L326.220579,15.5224839 L326.220579,16.6006424 Z M335.225303,16.6006424 L332.057712,16.6006424 L332.057712,15.5224839 L335.225303,15.5224839 L335.225303,16.6006424 Z M326.220579,19.3875803 L323.152598,19.3875803 L323.152598,18.2280514 L326.220579,18.2280514 L326.220579,19.3875803 Z M335.225303,19.4282655 L332.057712,19.4282655 L332.057712,18.2280514 L335.225303,18.2280514 L335.225303,19.4282655 Z M330.742863,25.3479657 L327.45574,25.3479657 L327.45574,24.127409 L330.742863,24.127409 L330.742863,25.3479657 Z M330.742863,28.3383298 L327.45574,28.3383298 L327.45574,27.0770878 L330.742863,27.0770878 L330.742863,28.3383298 Z M349.788252,31.2880086 C351.640994,31.2880086 354.051551,31.1252677 355.3664,30.9625268 L355.446087,28.3383298 C353.712877,28.7044968 351.521462,28.9282655 349.848018,28.9282655 C347.915588,28.9282655 346.979257,28.6231263 346.979257,27.5042827 C346.979257,26.5074946 347.776135,25.7141328 349.230437,24.9004283 C349.210516,25.7751606 349.190594,26.7109208 349.15075,27.3008565 L351.521462,27.3008565 C351.50154,26.385439 351.461696,24.9004283 351.441774,23.7815846 C352.657014,23.2119914 353.772643,22.764454 354.649209,22.4186296 C355.326556,22.133833 356.362497,21.7269807 357,21.5642398 L356.003902,19.2248394 C355.286712,19.5706638 354.589443,19.9164882 353.832409,20.2623126 C353.015609,20.6284797 352.178887,20.9743041 351.162867,21.4625268 C350.724584,20.4250535 349.728486,19.8961456 348.533169,19.8961456 C347.875745,19.8961456 346.819881,20.0385439 346.30191,20.3029979 C346.720271,19.7130621 347.11871,18.9807281 347.437461,18.2687366 C349.549189,18.1873662 351.979667,18.0246253 353.872253,17.7398287 L353.892175,15.3800857 C352.158965,15.7055675 350.166769,15.8683084 348.314028,15.9700214 C348.553091,15.1563169 348.692545,14.4646681 348.792154,13.9764454 L346.2023,13.7526767 C346.182378,14.3222698 346.042925,15.1359743 345.803861,16.0513919 L344.847607,16.0513919 C343.85151,16.0513919 342.377285,15.990364 341.381187,15.8276231 L341.381187,18.1873662 C342.385254,18.2822984 343.719051,18.3240685 344.540319,18.329216 L344.947217,18.3297645 C344.070651,20.1199143 342.676114,21.9100642 340.604231,23.862955 L342.715958,25.4700214 C343.393305,24.5952891 343.951119,23.862955 344.548778,23.2526767 C345.305812,22.5203426 346.521052,21.869379 347.636681,21.869379 C348.174574,21.869379 348.692545,22.0524625 349.011296,22.5610278 C346.760115,23.7408994 344.36948,25.3683084 344.36948,27.9314775 C344.36948,30.5353319 346.700349,31.2880086 349.788252,31.2880086 Z" id="業務時間を" fill="#434343" fill-rule="nonzero"></path>
                    <path d="M277.010731,95 C286.193766,95 292.315789,89.8160622 292.315789,82.9637306 C292.315789,76.8860104 289.137046,73.1917098 284.957588,70.9870466 L284.957588,70.6891192 C287.959734,68.6036269 290.490956,65.0880829 290.490956,60.857513 C290.490956,53.6476684 285.251916,49 277.363924,49 C269.24047,49 263.47164,53.5880829 263.47164,60.9766839 C263.47164,65.6839378 265.767399,69.0803109 269.181604,71.642487 L269.181604,71.9404145 C265.119877,74.1450777 262,77.6010363 262,83.142487 C262,90.1735751 268.416352,95 277.010731,95 Z M279.795432,67.9111111 C275.387885,66.1893378 272.610526,64.2894501 272.610526,60.786532 C272.610526,57.6398429 274.723734,56.1555556 277.138828,56.1555556 C280.338828,56.1555556 282.210526,58.1741863 282.210526,61.3802469 C282.210526,63.6363636 281.485998,65.8924804 279.795432,67.9111111 Z M277.374801,87.3333333 C273.970654,87.3333333 271.094737,85.2724014 271.094737,81.6804916 C271.094737,78.9129544 272.268581,76.2631848 274.029346,74.5555556 C279.370335,76.8520225 282.715789,78.500768 282.715789,82.328213 C282.715789,85.8023554 280.368102,87.3333333 277.374801,87.3333333 Z M313.254969,95 C322.436952,95 328.694737,87.015544 328.694737,71.761658 C328.694737,56.626943 322.436952,49 313.254969,49 C304.072985,49 297.873684,56.507772 297.873684,71.761658 C297.873684,87.015544 304.072985,95 313.254969,95 Z M313.00248,86.8222222 C309.917994,86.8222222 307.473684,83.9591773 307.473684,71.7912363 C307.473684,59.6829421 309.917994,57.1777778 313.00248,57.1777778 C316.086966,57.1777778 318.589474,59.6829421 318.589474,71.7912363 C318.589474,83.9591773 316.086966,86.8222222 313.00248,86.8222222 Z M337.031579,85.8 C340.119298,85.8 342.336842,83.1907563 342.336842,78.8710084 C342.336842,74.5222689 340.119298,72 337.031579,72 C333.97193,72 331.726316,74.5222689 331.726316,78.8710084 C331.726316,83.1907563 333.97193,85.8 337.031579,85.8 Z M340.618947,94.4888889 L351.936842,72.5111111 L349.079354,72.5111111 L337.789474,94.4888889 L340.618947,94.4888889 Z M337.01808,83.2444444 C336.073122,83.2444444 335.263158,82.1854516 335.263158,79.1261391 C335.263158,76.0374101 336.073122,75.0666667 337.01808,75.0666667 C337.990036,75.0666667 338.8,76.0374101 338.8,79.1261391 C338.8,82.1854516 337.990036,83.2444444 337.01808,83.2444444 Z M352.708735,94.4888889 C355.760311,94.4888889 358,91.8796452 358,87.5598973 C358,83.2111578 355.760311,80.6888889 352.708735,80.6888889 C349.657159,80.6888889 347.389474,83.2111578 347.389474,87.5598973 C347.389474,91.8796452 349.657159,94.4888889 352.708735,94.4888889 Z M352.694737,91.9333333 C351.730144,91.9333333 350.926316,90.8743405 350.926316,87.815028 C350.926316,84.726299 351.730144,83.7555556 352.694737,83.7555556 C353.65933,83.7555556 354.463158,84.726299 354.463158,87.815028 C354.463158,90.8743405 353.65933,91.9333333 352.694737,91.9333333 Z" id="80％" fill="#0C9F35" fill-rule="nonzero"></path>
                    <path d="M261.043932,132.542017 C263.444976,131.554622 266.472379,130.294118 269.186603,129.07563 L268.476729,126.071429 C267.641583,126.407563 266.76468,126.764706 265.908656,127.10084 L265.491083,116.260504 L262.275772,116.386555 L262.755981,128.319328 C261.732927,128.697479 260.793388,129.012605 260,129.264706 L261.043932,132.542017 Z M268.163549,135 C270.668987,133.802521 272.589822,132.226891 274.072205,130.210084 C275.471074,131.890756 276.869943,133.676471 277.579817,134.978992 L280.168769,132.415966 C279.270987,130.966387 277.433667,128.970588 275.805133,127.205882 C277.099609,124.327731 277.85124,120.819328 278.268813,116.596639 L274.886472,116.302521 C274.197477,124.705882 272.067856,129.810924 265.741627,132.268908 C266.472379,132.920168 267.745977,134.327731 268.163549,135 Z M269.833841,124.138655 L272.819487,122.521008 C272.193127,121.05042 270.877773,118.991597 269.54154,117.457983 L266.722923,118.823529 C267.975642,120.420168 269.311875,122.668067 269.833841,124.138655 Z M300.546324,133.928571 L300.546324,130.840336 L291.881688,130.840336 L291.881688,124.138655 L299.063941,124.138655 L299.063941,121.05042 L291.881688,121.05042 L291.881688,115.252101 L288.603741,115.252101 L288.603741,130.840336 L281.275337,130.840336 L281.275337,133.928571 L300.546324,133.928571 Z M305.640713,134.663866 L305.640713,130.441176 L309.127447,130.441176 L309.127447,131.470588 C309.127447,131.743697 309.043932,131.806723 308.77251,131.827731 C308.501087,131.827731 307.624184,131.827731 306.956068,131.785714 C307.311005,132.542017 307.665942,133.802521 307.749456,134.621849 C309.169204,134.621849 310.192258,134.579832 311.006525,134.117647 C311.84167,133.655462 312.050457,132.857143 312.050457,131.533613 L312.050457,120.756303 L308.856024,120.756303 L308.856024,115 L305.8495,115 L305.8495,120.756303 L302.759461,120.756303 L302.759461,134.663866 L305.640713,134.663866 Z M315.203132,134.957983 C317.123967,134.957983 318.627229,134.852941 319.608525,134.369748 C320.568943,133.865546 320.882123,133.046218 320.882123,131.344538 L320.882123,115.420168 L317.875598,115.420168 L317.875598,131.323529 C317.875598,131.722689 317.708569,131.848739 317.311875,131.848739 L316.933888,131.848235 C316.303854,131.846218 315.211483,131.836134 314.1592,131.785714 C314.597651,132.647059 315.07786,134.07563 315.203132,134.957983 Z M311.528491,120.567227 C312.008699,119.495798 312.572423,117.878151 313.115268,116.281513 L310.108743,115.651261 C309.899957,116.995798 309.440626,118.781513 309.002175,119.957983 L311.528491,120.567227 Z M303.010004,120.735294 L305.640713,119.768908 C305.411048,118.676471 304.889082,117.058824 304.325359,115.819328 L301.8408,116.659664 C302.341888,117.920168 302.863854,119.642857 303.010004,120.735294 Z M316.247064,129.516807 L316.247064,117.605042 L313.303175,117.605042 L313.303175,129.516807 L316.247064,129.516807 Z M309.127447,124.453782 L305.640713,124.453782 L305.640713,123.592437 L309.127447,123.592437 L309.127447,124.453782 Z M309.127447,127.89916 L305.640713,127.89916 L305.640713,126.995798 L309.127447,126.995798 L309.127447,127.89916 Z M328.962157,134.915966 C330.61157,131.953782 330.882993,127.184874 330.882993,123.991597 L330.882993,120.630252 L335.935624,120.630252 C336.102653,124.012605 336.394954,126.932773 336.812527,129.201681 C336.561983,129.60084 336.269682,129.957983 335.977381,130.315126 L335.977381,124.621849 L331.23793,124.621849 L331.23793,131.722689 L333.158765,131.722689 L333.158765,130.693277 L335.643323,130.693277 C334.870813,131.554622 333.99391,132.289916 333.012614,132.89916 C333.576338,133.361345 334.599391,134.348739 334.996085,134.852941 C335.977381,134.138655 336.875163,133.298319 337.668552,132.352941 C338.336668,133.991597 339.171814,134.87395 340.299261,134.894958 C341.176164,134.894958 342.387125,134.096639 342.950848,130.021008 C342.512397,129.789916 341.301435,129.012605 340.842105,128.42437 C340.758591,130.294118 340.591562,131.281513 340.341018,131.260504 C340.111353,131.260504 339.860809,130.630252 339.631144,129.537815 C340.842105,127.436975 341.739887,124.978992 342.387125,122.205882 L339.798173,121.722689 C339.568508,122.794118 339.297086,123.823529 338.983906,124.789916 C338.858634,123.529412 338.754241,122.121849 338.670726,120.630252 L342.282732,120.630252 L342.282732,117.962185 L341.510222,117.962185 L342.575033,116.911765 C342.011309,116.302521 340.862984,115.52521 339.944324,115.063025 L338.545455,116.386555 L338.524576,115.273109 L335.768595,115.273109 C335.789474,116.197479 335.810352,117.10084 335.831231,117.962185 L328.252284,117.962185 L328.252284,123.991597 C328.252284,126.806723 328.14789,130.714286 326.686385,133.382353 C327.312745,133.655462 328.481949,134.453782 328.962157,134.915966 Z M327.041322,119.516807 L328.857764,117.079832 C328.085254,116.386555 326.519356,115.588235 325.350152,115.105042 L323.658982,117.331933 C324.849065,117.89916 326.352327,118.823529 327.041322,119.516807 Z M340.320139,117.962185 L338.566333,117.962185 L338.545455,116.659664 C339.150935,117.037815 339.798173,117.521008 340.320139,117.962185 Z M326.018269,125.12605 L327.813832,122.668067 C327.041322,121.995798 325.517181,121.218487 324.347977,120.777311 L322.677686,123.02521 C323.84689,123.55042 325.350152,124.453782 326.018269,125.12605 Z M335.622445,123.718487 L335.622445,121.533613 L331.467595,121.533613 L331.467595,123.718487 L335.622445,123.718487 Z M325.433667,134.537815 C326.268813,132.352941 327.062201,129.936975 327.751196,127.584034 L325.308395,126.029412 C324.515007,128.613445 323.450196,131.323529 322.677686,133.02521 L325.433667,134.537815 Z M334.014789,128.508403 L333.158765,128.508403 L333.158765,126.785714 L334.014789,126.785714 L334.014789,128.508403 Z M354.851675,127.394958 L355.707699,120.756303 L355.832971,117.268908 L351.260548,117.268908 L351.38582,120.756303 L352.241844,127.394958 L354.851675,127.394958 Z M353.53632,133.235294 C354.956068,133.235294 356,132.268908 356,130.92437 C356,129.621849 354.956068,128.613445 353.53632,128.613445 C352.116572,128.613445 351.07264,129.621849 351.07264,130.92437 C351.07264,132.268908 352.116572,133.235294 353.53632,133.235294 Z" id="以上削減！" fill="#0C9F35" fill-rule="nonzero"></path>
                </g>
                <polygon id="Path-3" fill="url(#linearGradient-3)" opacity="0.192057292" points="176 47 266 208 266 249 176 249"></polygon>
                <g id="Group-3" transform="translate(229.660355, 130.671492) rotate(59.000000) translate(-229.660355, -130.671492) translate(150.660355, 123.171492)" fill="#565656">
                    <polygon id="Fill-1" points="0.900029719 4.50863129 155.773914 8.56884416 155.773914 6.56884416 0.900029719 2.50863129"></polygon>
                    <path d="M148.297759,13.9753489 C147.973539,13.5300389 148.071199,12.9011489 148.520419,12.5808489 L154.891519,7.96364886 C155.055579,7.84645886 155.149329,7.70973886 155.149329,7.59645886 C155.149329,7.47926886 155.055579,7.34645886 154.895419,7.22536886 L148.516519,2.55736886 C148.071209,2.23314886 147.973549,1.60424886 148.301679,1.15896886 C148.625899,0.713658864 149.250899,0.615998864 149.700079,0.940218864 L156.078979,5.60821886 C156.762569,6.10821886 157.153179,6.83481886 157.153179,7.59651886 C157.153179,8.35823886 156.758649,9.08091886 156.071179,9.58091886 L149.700079,14.1981189 C149.520389,14.3270289 149.313359,14.3895289 149.110239,14.3895289 C148.801669,14.3895289 148.496979,14.2448789 148.297759,13.9753489 Z" id="Fill-2" transform="translate(152.629934, 7.569216) rotate(4.000000) translate(-152.629934, -7.569216) "></path>
                </g>
            </g>
        </g>
    </g>
</svg>