<svg xmlns="http://www.w3.org/2000/svg" width="76" height="90" viewBox="0 0 76 90">
    <g fill="none" fill-rule="evenodd">
        <path fill="#25B347" d="M38.41 0C13.476 0 .824 10.955.824 27.778s9.744 25.89 34.904 52.742h5.369C66.256 53.667 76 44.601 76 27.778S63.347 0 38.41 0"/>
        <path fill="#A0D55C" d="M38.41 0C13.476 0 .824 10.955.824 27.778s9.744 25.89 34.903 52.742h2.685V0"/>
        <path fill="#FFFFFE" d="M28.54 72.871c2.242 2.385 4.634 4.924 7.186 7.65h5.37c2.553-2.726 4.945-5.265 7.186-7.65H28.54"/>
        <path fill="#E5FFC3" d="M28.54 72.871c2.242 2.385 4.634 4.924 7.186 7.65h2.685v-7.65h-9.87"/>
        <path fill="#D9DC1B" d="M44.687 89.244H32.135v-12.55h12.552z"/>
        <path fill="#EAED33" d="M38.41 89.244h-6.275v-12.55h6.276z"/>
        <path fill="#D9DC1B" d="M38.41 0C27.133 0 18.367 2.242 12.148 6.254 14.985 18.05 25.666 26.82 38.411 26.82c12.746 0 23.427-8.77 26.264-20.567C58.455 2.24 49.691 0 38.411 0"/>
        <path fill="#25B347" d="M38.41 0c-6.402 0-11.995.722-16.772 2.081 1.032 8.29 8.148 14.706 16.773 14.706S54.152 10.37 55.185 2.081C50.407.722 44.815 0 38.41 0"/>
        <path fill="#EAED33" d="M38.41 0C27.133 0 18.367 2.242 12.148 6.254 14.985 18.05 25.666 26.82 38.411 26.82V0"/>
        <path fill="#8EDB2D" d="M38.41 0c-6.402 0-11.995.722-16.772 2.081 1.032 8.29 8.148 14.706 16.773 14.706V0"/>
    </g>
</svg>
