<svg xmlns="http://www.w3.org/2000/svg" width="76" height="90" viewBox="0 0 76 90">
    <g fill="none" fill-rule="evenodd">
        <path fill="#95B33D" d="M37.59 0c24.935 0 37.587 10.977 37.587 27.834 0 16.858-9.744 25.942-34.904 52.85h-5.369C9.744 53.775 0 44.691 0 27.833 0 10.977 12.653 0 37.59 0"/>
        <path fill="#7D983D" d="M37.59 0c24.935 0 37.587 10.977 37.587 27.834 0 16.858-9.744 25.942-34.903 52.85H37.59V0"/>
        <path fill="#FFFFFE" d="M47.46 73.019c-2.242 2.39-4.634 4.933-7.186 7.664h-5.37c-2.553-2.73-4.945-5.274-7.186-7.664H47.46"/>
        <path fill="#FAEABE" d="M47.46 73.019c-2.242 2.39-4.634 4.933-7.186 7.664H37.59V73.02h9.87"/>
        <path fill="#F6BF4A" d="M31.313 89.425h12.552V76.849H31.313z"/>
        <path fill="#EFA72D" d="M37.59 89.425h6.275V76.849h-6.276z"/>
        <path fill="#F6BF4A" d="M37.59 0c11.278 0 20.044 2.246 26.263 6.266-2.838 11.82-13.519 20.609-26.264 20.609-12.746 0-23.427-8.789-26.264-20.61C17.545 2.246 26.309 0 37.589 0"/>
        <path fill="#95B33D" d="M37.59 0c6.402 0 11.995.724 16.772 2.085-1.032 8.306-8.148 14.736-16.773 14.736s-15.741-6.43-16.774-14.736C25.593.724 31.185 0 37.59 0"/>
        <path fill="#EFA72D" d="M37.59 0c11.278 0 20.044 2.246 26.263 6.266-2.838 11.82-13.519 20.609-26.264 20.609V0"/>
        <path fill="#7D983D" d="M37.59 0c6.402 0 11.995.724 16.772 2.085-1.032 8.306-8.148 14.736-16.773 14.736V0"/>
    </g>
</svg>
