<svg xmlns="http://www.w3.org/2000/svg" width="200" height="100" viewBox="0 0 200 100">
    <g fill="none" fill-rule="evenodd">
        <path fill="#FFF" d="M0 0H200V100H0z"/>
        <g>
            <path fill="#F3FDF6" fill-rule="nonzero" d="M.99 49c-.547 0-.99-.391-.99-.875V.875C0 .394.443 0 .99 0h93.021c.546 0 .989.394.989.875v47.25c0 .484-.443.875-.989.875H.991z" transform="translate(11 15)"/>
            <path fill="#1C9E3B" d="M57.611 35.5h-19.25c-.864-.008-1.561-.71-1.561-1.575V25.7h2.1v7.7h18.2v-7.7h2.1v8.225c0 .42-.168.823-.466 1.119-.299.295-.703.46-1.123.456zm-5.467-13.342l-3.108 3.108V14.5h-2.1v10.766L43.8 22.158l-1.484 1.484L48 29.284l5.6-5.642-1.456-1.484z" transform="translate(11 15)"/>
            <path stroke="#F3FDF6" d="M94.011 50H.991C.442 50 0 49.609 0 49.125V1.875C0 1.394.443 1 .99 1h93.021c.546 0 .989.394.989.875v47.25c0 .484-.443.875-.989.875z" transform="translate(11 15)"/>
            <path stroke="#1C9E3B" stroke-dasharray="4 3" stroke-width="2" d="M94.011 50H.991C.442 50 0 49.609 0 49.125V1.875C0 1.394.443 1 .99 1h93.021c.546 0 .989.394.989.875v47.25c0 .484-.443.875-.989.875z" transform="translate(11 15)"/>
        </g>
        <path fill="#FF7000" d="M145.65 48.586l.844 1.414.313-1.616c.008-.04.193-1.007.193-2.543 0-3.382-.911-9.813-6.984-14.862-.16-.15-3.935-3.589-11.953-3.53V19L114 33.132l14.063 14.132v-8.568c2.184-.342 11.113-.985 17.587 9.89"/>
        <g>
            <path fill="#FFF" stroke="#FF7000" stroke-linejoin="round" stroke-width="1.7" d="M0 0H128V30H0z" transform="translate(52 55)"/>
            <path fill="#475059" fill-rule="nonzero" d="M19 21c3.31 0 6-2.69 6-6s-2.69-6-6-6-6 2.69-6 6 2.69 6 6 6zm0-2c-2.204 0-4-1.796-4-4 0-2.204 1.796-4 4-4 2.204 0 4 1.796 4 4 0 2.204-1.796 4-4 4zm12 2c3.31 0 6-2.69 6-6s-2.69-6-6-6-6 2.69-6 6 2.69 6 6 6zm0-2c-2.204 0-4-1.796-4-4 0-2.204 1.796-4 4-4 2.204 0 4 1.796 4 4 0 2.204-1.796 4-4 4zm11-5.36v-.36h1.111c-.05.067-.086.133-.123.187.382.213 1.086.693 1.395.973.247-.4.469-.893.666-1.44H46v1.533h-2.58V16l-.024-.044c-.235-.434-1.05-1.827-1.396-2.316zm.888 1.941v.265h1.809c-.611 1.301-1.577 2.514-2.689 3.209.379.328.917.972 1.185 1.402.893-.67 1.638-1.642 2.249-2.766V21h1.735v-3.322c.428 1.06.953 2.02 1.54 2.703.293-.467.88-1.112 1.283-1.44-.807-.733-1.564-1.907-2.053-3.095h1.71v-1.654h-2.48v-1.453h2.236v-1.655h-2.236V9h-1.735v2.084h-.464c.085-.379.146-.758.207-1.15l-1.613-.29c-.134 1.074-.39 2.173-.794 2.994v-1.326h-1.295V9h-1.736v2.312h-1.49v1.692h1.393c-.318 1.415-.929 3.07-1.65 4.004.281.506.66 1.352.819 1.883.342-.544.66-1.264.928-2.072V21h1.736v-5.242c.159.379.293.745.39 1.036l1.015-1.213zM60.764 21c1.35 0 1.966-.553 2.236-3.07-.527-.188-1.208-.64-1.632-1.068-.064 1.534-.205 2.213-.437 2.213-.758 0-1.426-2.817-1.67-6.213h3.366v-1.787H61.51l.899-.754c-.347-.403-1.066-.956-1.606-1.321l-1.233.994c.41.302.899.717 1.246 1.081h-1.632c-.013-.654-.013-1.32.013-1.974H57.18c0 .654.013 1.32.026 1.974H51v1.787h6.296C57.578 17.214 58.49 21 60.764 21zm-9.3 0c1.556-.347 3.623-.8 5.536-1.253l-.119-1.72c-.677.133-1.366.253-2.043.373v-2.533h1.746V14H51.5v1.867h1.616v2.84c-.796.133-1.533.253-2.115.333l.463 1.96zm12.601-6c.706-.348 1.4-.79 2.031-1.259v.991h5.746v-1.098c.656.469 1.338.897 1.994 1.219.322-.59.718-1.286 1.164-1.782-1.969-.696-3.827-2.102-5.152-4.071h-1.907c-.891 1.513-2.823 3.402-4.941 4.366.372.415.854 1.165 1.065 1.634zM71 13h-4c.792-.654 1.47-1.346 1.955-2 .486.667 1.214 1.359 2.045 2zm2.213 8L75 19.93c-.578-.939-1.682-2.19-2.773-3.17h2.72V15H64v1.76h2.826c-.21.653-.487 1.357-.776 1.97-.736.027-1.406.053-2.01.066l.25 1.852c2.246-.105 5.427-.248 8.45-.418.184.274.354.535.473.77zM68 19c.277-.63.565-1.329.841-2H71l-1.173.753c.287.343.586.726.874 1.124-.908.04-1.826.082-2.701.123zm12.017 2v-4.484c.328.404.644.808.871 1.124L82 16.15c-.253-.253-1.162-1.062-1.768-1.554.568-.821 1.048-1.73 1.402-2.678l-1.023-.67-.316.064h-.278V9h-1.82v2.312h-1.704v1.654h2.816c-.783 1.34-2.008 2.527-3.309 3.196.265.354.695 1.276.846 1.769.455-.278.91-.62 1.352-1.011V21h1.819zM88 20v-1.727h-2.484V14.18h2.178v-1.69h-2.178V9H83.68v3.49h-2.166v1.69h2.166v4.093H81V20h7zM97.5 17c.863 0 1.5-.665 1.5-1.507 0-.828-.637-1.493-1.5-1.493s-1.5.665-1.5 1.493c0 .842.637 1.507 1.5 1.507zm5 0c.863 0 1.5-.665 1.5-1.507 0-.828-.637-1.493-1.5-1.493s-1.5.665-1.5 1.493c0 .842.637 1.507 1.5 1.507zm5 0c.863 0 1.5-.665 1.5-1.507 0-.828-.637-1.493-1.5-1.493s-1.5.665-1.5 1.493c0 .842.637 1.507 1.5 1.507z" transform="translate(52 55)"/>
        </g>
        <g>
            <path fill="#FEFEFE" d="M22.662 9.314l-4.917-7.781c-.876-1.386-2.17-1.9-3.642-1.26-.75.45-.897.776-1.133 1.316C12.065.302 10.299-.06 8.957.788c-.578.366-.988.899-1.204 1.496-.961-.775-2.348-.894-3.449-.198-1.217.767-1.683 2.283-1.18 3.58-.612-.031-1.215.125-1.741.455-1.384.875-1.8 2.709-.925 4.094l1.578 2.495L1.519 15c-.715 3.167 1.282 6.325 4.45 7.04l6.29 1.42c1.875.42 3.803.09 5.43-.938l2.766-1.748c1.93-1.222 2.817-2.781 3.32-5.01.503-2.229.108-4.522-1.113-6.45" transform="translate(166 50)"/>
            <path fill="#4D4F58" d="M19.757 19.668l-2.765 1.748c-1.331.841-2.91 1.112-4.445.767l-6.29-1.42c-2.465-.555-4.017-3.012-3.462-5.476l.229-1.014 1.133 1.797c.192.305.598.396.903.203.152-.098.25-.246.288-.413.037-.16.013-.337-.085-.49l-3.7-5.853c-.235-.376-.311-.82-.213-1.251.096-.43.357-.8.73-1.036.75-.475 1.816-.234 2.29.515l1.227 1.942c.192.305.596.396.901.2.152-.093.252-.243.29-.406.036-.164.011-.341-.085-.495L4.487 5.48c-.488-.772-.257-1.798.517-2.288.772-.488 1.799-.26 2.288.515l2.216 3.509c.192.304.597.397.901.203.155-.1.252-.247.289-.41.038-.163.012-.34-.084-.495L9.14 4.182c-.236-.374-.314-.818-.216-1.25.098-.433.357-.8.733-1.038.772-.486 1.8-.256 2.288.515l1.475 2.335c.192.303.598.395.903.203.152-.098.252-.246.288-.41.036-.166.013-.34-.085-.493l-.238-.377c-.754-1.124-.488-1.641.287-2.13.915-.623 1.592-.055 2.065.696l4.918 7.78c1.032 1.635 1.367 3.573.943 5.46-.426 1.89-1.11 3.163-2.744 4.195m2.905-10.354l-4.918-7.781c-.876-1.386-2.168-1.9-3.64-1.26-.752.45-.898.776-1.134 1.316C12.065.3 10.299-.061 8.957.787c-.579.367-.987.9-1.204 1.496-.961-.774-2.348-.894-3.45-.197-1.216.77-1.682 2.283-1.18 3.58-.61-.032-1.215.124-1.74.454-1.384.876-1.8 2.71-.925 4.095l1.577 2.495L1.52 15c-.715 3.166 1.282 6.325 4.45 7.04l6.29 1.42c1.875.42 3.803.09 5.43-.938l2.766-1.748c1.93-1.219 2.816-2.782 3.32-5.01.503-2.229.107-4.52-1.113-6.45" transform="translate(166 50)"/>
            <path stroke="#4D4F58" stroke-width=".25" d="M19.757 19.668l-2.765 1.748c-1.331.841-2.91 1.112-4.445.767l-6.29-1.42c-2.465-.555-4.017-3.012-3.462-5.476l.229-1.014 1.133 1.797c.192.305.598.396.903.203.152-.098.25-.246.288-.413.037-.16.013-.337-.085-.49l-3.7-5.853c-.235-.376-.311-.82-.213-1.251.096-.43.357-.8.73-1.036.75-.475 1.816-.234 2.29.515l1.227 1.942c.192.305.596.396.901.2.152-.093.252-.243.29-.406.036-.164.011-.341-.085-.495L4.487 5.48c-.488-.772-.257-1.798.517-2.288.772-.488 1.799-.26 2.288.515l2.216 3.509c.192.304.597.397.901.203.155-.1.252-.247.289-.41.038-.163.012-.34-.084-.495L9.14 4.182c-.236-.374-.314-.818-.216-1.25.098-.433.357-.8.733-1.038.772-.486 1.8-.256 2.288.515l1.475 2.335c.192.303.598.395.903.203.152-.098.252-.246.288-.41.036-.166.013-.34-.085-.493l-.238-.377c-.754-1.124-.488-1.641.287-2.13.915-.623 1.592-.055 2.065.696l4.918 7.78c1.032 1.635 1.367 3.573.943 5.46-.426 1.89-1.11 3.163-2.744 4.195zm2.905-10.354l-4.918-7.781c-.876-1.386-2.168-1.9-3.64-1.26-.752.45-.898.776-1.134 1.316C12.065.3 10.299-.061 8.957.787c-.579.367-.987.9-1.204 1.496-.961-.774-2.348-.894-3.45-.197-1.216.77-1.682 2.283-1.18 3.58-.61-.032-1.215.124-1.74.454-1.384.876-1.8 2.71-.925 4.095l1.577 2.495L1.52 15c-.715 3.166 1.282 6.325 4.45 7.04l6.29 1.42c1.875.42 3.803.09 5.43-.938l2.766-1.748c1.93-1.219 2.816-2.782 3.32-5.01.503-2.229.107-4.52-1.113-6.45z" transform="translate(166 50)"/>
        </g>
    </g>
</svg>
