<svg xmlns="http://www.w3.org/2000/svg" width="240" height="120" viewBox="0 0 240 120">
    <g fill="none" fill-rule="evenodd">
        <path fill="#FFF" d="M0 0H240V120H0z"/>
        <g>
            <g>
                <path fill="#EDF4EF" d="M1.02 1.02H185.82000000000002V45.42H1.02z" transform="translate(8.4 4.8) translate(33.78 50.4)"/>
                <path fill="#97A099" d="M186.84 5.82h-2.04v-4.8h2.04v4.8zm0 7.2h-2.04v-4.8h2.04v4.8zm0 7.2h-2.04v-4.8h2.04v4.8zm0 7.2h-2.04v-4.8h2.04v4.8zm0 7.2h-2.04v-4.8h2.04v4.8zm0 7.2h-2.04v-4.8h2.04v4.8zm-4.62 4.62V44.4h3.6l-1.02 1.02v-1.2h2.04v1.2c0 .564-.456 1.02-1.02 1.02h-3.6zm-7.2 0V44.4h4.8v2.04h-4.8zm-7.2 0V44.4h4.8v2.04h-4.8zm-7.2 0V44.4h4.8v2.04h-4.8zm-7.2 0V44.4h4.8v2.04h-4.8zm-7.2 0V44.4h4.8v2.04h-4.8zm-7.2 0V44.4h4.8v2.04h-4.8zm-7.2 0V44.4h4.8v2.04h-4.8zm-7.2 0V44.4h4.8v2.04h-4.8zm-7.2 0V44.4h4.8v2.04h-4.8zm-7.2 0V44.4h4.8v2.04h-4.8zm-7.2 0V44.4h4.8v2.04h-4.8zm-7.2 0V44.4h4.8v2.04h-4.8zm-7.2 0V44.4h4.8v2.04h-4.8zm-7.2 0V44.4h4.8v2.04h-4.8zm-7.2 0V44.4h4.8v2.04h-4.8zm-7.2 0V44.4h4.8v2.04h-4.8zm-7.2 0V44.4h4.8v2.04h-4.8zm-7.2 0V44.4h4.8v2.04h-4.8zm-7.2 0V44.4h4.8v2.04h-4.8zm-7.2 0V44.4h4.8v2.04h-4.8zm-7.2 0V44.4h4.8v2.04h-4.8zm-7.2 0V44.4h4.8v2.04h-4.8zm-7.2 0V44.4h4.8v2.04h-4.8zm-7.2 0V44.4h4.8v2.04h-4.8zm-7.2 0V44.4h4.8v2.04h-4.8zM0 39.42h2.04v4.8H0v-4.8zm0-7.2h2.04v4.8H0v-4.8zm0-7.2h2.04v4.8H0v-4.8zm0-7.2h2.04v4.8H0v-4.8zm0-7.2h2.04v4.8H0v-4.8zm0-7.2h2.04v4.8H0v-4.8zM5.82 0v2.04h-4.8V0h4.8zm7.2 0v2.04h-4.8V0h4.8zm7.2 0v2.04h-4.8V0h4.8zm7.2 0v2.04h-4.8V0h4.8zm7.2 0v2.04h-4.8V0h4.8zm7.2 0v2.04h-4.8V0h4.8zm7.2 0v2.04h-4.8V0h4.8zm7.2 0v2.04h-4.8V0h4.8zm7.2 0v2.04h-4.8V0h4.8zm7.2 0v2.04h-4.8V0h4.8zm7.2 0v2.04h-4.8V0h4.8zm7.2 0v2.04h-4.8V0h4.8zm7.2 0v2.04h-4.8V0h4.8zm7.2 0v2.04h-4.8V0h4.8zm7.2 0v2.04h-4.8V0h4.8zm7.2 0v2.04h-4.8V0h4.8zm7.2 0v2.04h-4.8V0h4.8zm7.2 0v2.04h-4.8V0h4.8zm7.2 0v2.04h-4.8V0h4.8zm7.2 0v2.04h-4.8V0h4.8zm7.2 0v2.04h-4.8V0h4.8zm7.2 0v2.04h-4.8V0h4.8zm7.2 0v2.04h-4.8V0h4.8zm7.2 0v2.04h-4.8V0h4.8zm7.2 0v2.04h-4.8V0h4.8zm7.2 0v2.04h-4.8V0h4.8z" transform="translate(8.4 4.8) translate(33.78 50.4)"/>
            </g>
            <g>
                <path fill="#FFF" stroke="#FF7000" stroke-linejoin="round" stroke-width="1.7" d="M6 4.8H190.8V49.199999999999996H6z" transform="translate(8.4 4.8) translate(0 7.2)"/>
                <g>
                    <path fill="#FFF" d="M2.914 1.457H10.199V10.199000000000002H2.914z" transform="translate(8.4 4.8) translate(0 7.2) translate(1.2)"/>
                    <path fill="#FF7000" fill-rule="nonzero" d="M10.469 0H0v10.469h10.469V0zM8.448 2.02v6.428H2.02V2.02h6.428z" transform="translate(8.4 4.8) translate(0 7.2) translate(1.2)"/>
                </g>
                <g>
                    <path fill="#FFF" d="M2.4 0H9.685V8.742H2.4z" transform="translate(8.4 4.8) translate(0 7.2) translate(1.2 21.6)"/>
                    <path fill="#FF7000" fill-rule="nonzero" d="M10.469 0H0v10.469h10.469V0zM8.448 2.02v6.428H2.02V2.02h6.428z" transform="translate(8.4 4.8) translate(0 7.2) translate(1.2 21.6)"/>
                </g>
                <g>
                    <path fill="#FFF" d="M2.914 1.457H10.199V10.199000000000002H2.914z" transform="translate(8.4 4.8) translate(0 7.2) translate(.99 42.853)"/>
                    <path fill="#FF7000" fill-rule="nonzero" d="M10.469 0H0v10.469h10.469V0zM8.448 2.02v6.427H2.02V2.02h6.428z" transform="translate(8.4 4.8) translate(0 7.2) translate(.99 42.853)"/>
                </g>
                <g>
                    <path fill="#FFF" d="M1.2 1.2H8.485V9.942H1.2z" transform="translate(8.4 4.8) translate(0 7.2) translate(98.4)"/>
                    <path fill="#FF7000" fill-rule="nonzero" d="M10.469 0H0v10.469h10.469V0zM8.448 2.02v6.428H2.02V2.02h6.428z" transform="translate(8.4 4.8) translate(0 7.2) translate(98.4)"/>
                </g>
                <g>
                    <path fill="#FFF" d="M1.2 1.2H8.485V9.942H1.2z" transform="translate(8.4 4.8) translate(0 7.2) translate(98.4 43.2)"/>
                    <path fill="#FF7000" fill-rule="nonzero" d="M10.469 0H0v10.469h10.469V0zM8.448 2.02v6.427H2.02V2.02h6.428z" transform="translate(8.4 4.8) translate(0 7.2) translate(98.4 43.2)"/>
                </g>
                <g>
                    <path fill="#FFF" d="M0.391 1.01H7.676V9.752H0.391z" transform="translate(8.4 4.8) translate(0 7.2) translate(185.01)"/>
                    <path fill="#FF7000" fill-rule="nonzero" d="M10.469 0H0v10.469h10.469V0zM8.448 2.02v6.428H2.02V2.02h6.428z" transform="translate(8.4 4.8) translate(0 7.2) translate(185.01)"/>
                </g>
                <g>
                    <path fill="#FFF" d="M0 0H7.285V8.742H0z" transform="translate(8.4 4.8) translate(0 7.2) translate(185.01 21.6)"/>
                    <path fill="#FF7000" fill-rule="nonzero" d="M10.469 0H0v10.469h10.469V0zM8.448 2.02v6.428H2.02V2.02h6.428z" transform="translate(8.4 4.8) translate(0 7.2) translate(185.01 21.6)"/>
                </g>
                <g>
                    <path fill="#FFF" d="M0.391 1.106H7.676V9.848H0.391z" transform="translate(8.4 4.8) translate(0 7.2) translate(184.8 43.205)"/>
                    <path fill="#FF7000" fill-rule="nonzero" d="M10.469 0H0v10.469h10.469V0zM8.448 2.019v6.428H2.02V2.02h6.428z" transform="translate(8.4 4.8) translate(0 7.2) translate(184.8 43.205)"/>
                </g>
                <path fill="#475059" fill-rule="nonzero" d="M46.082 34.811c4.238 0 7.681-3.443 7.681-7.681 0-4.238-3.443-7.682-7.681-7.682-4.239 0-7.682 3.444-7.682 7.682s3.443 7.681 7.682 7.681zm0-2.483c-2.864 0-5.199-2.334-5.199-5.198 0-2.864 2.335-5.198 5.199-5.198s5.198 2.334 5.198 5.198c0 2.864-2.334 5.198-5.198 5.198zm16.555 2.483c4.238 0 7.681-3.443 7.681-7.681 0-4.238-3.443-7.682-7.681-7.682-4.239 0-7.682 3.444-7.682 7.682s3.443 7.681 7.682 7.681zm0-2.483c-2.864 0-5.199-2.334-5.199-5.198 0-2.864 2.335-5.198 5.199-5.198s5.198 2.334 5.198 5.198c0 2.864-2.334 5.198-5.198 5.198zm13.21-7.367v-.447h1.49c-.066.083-.115.166-.165.232.513.265 1.457.86 1.87 1.208.332-.496.63-1.109.895-1.787h1.274v1.903h-3.46v1.821l-.031-.054c-.316-.539-1.41-2.27-1.873-2.876zm1.904 2.93v.348h2.45c-.827 1.705-2.135 3.294-3.642 4.205.514.43 1.242 1.275 1.606 1.838 1.209-.878 2.219-2.153 3.046-3.626v4.337h2.351V30.64c.58 1.39 1.291 2.648 2.086 3.542.397-.612 1.192-1.457 1.738-1.887-1.092-.96-2.119-2.5-2.78-4.056h2.317V26.07h-3.36v-1.903h3.029v-2.17h-3.03v-2.73h-2.35v2.73h-.63c.116-.496.199-.993.282-1.506l-2.186-.38c-.182 1.407-.53 2.847-1.076 3.923v-1.738h-1.755v-3.03h-2.35v3.03h-2.02v2.218h1.887c-.43 1.854-1.258 4.023-2.235 5.248.381.662.894 1.771 1.11 2.467.463-.712.893-1.656 1.258-2.715v5.48h2.35v-6.87c.216.496.398.976.53 1.357l1.374-1.59zm23.111 7.102c1.738 0 2.533-.728 2.88-4.039-.678-.248-1.555-.844-2.102-1.407-.083 2.02-.265 2.914-.563 2.914-.976 0-1.837-3.709-2.152-8.179h4.338v-2.35h-1.44l1.158-.994c-.447-.53-1.374-1.258-2.07-1.738l-1.589 1.308c.53.397 1.16.943 1.606 1.424h-2.102c-.017-.861-.017-1.739.016-2.6h-2.599c0 .861.017 1.739.033 2.6H88.28v2.35h8.112c.364 5.728 1.54 10.711 4.47 10.711zm-11.986-.446c2.169-.43 5.05-.994 7.715-1.557l-.166-2.135c-.943.165-1.903.314-2.847.463v-3.145h2.433v-2.318h-7.085v2.318h2.251v3.526c-1.109.166-2.135.315-2.946.414l.645 2.434zm16.886-7.831c.944-.43 1.871-.977 2.715-1.556v1.225h7.682v-1.358c.877.58 1.788 1.11 2.665 1.507.43-.729.96-1.59 1.556-2.202-2.632-.86-5.115-2.6-6.886-5.033h-2.55c-1.192 1.871-3.774 4.205-6.605 5.397.496.513 1.142 1.44 1.423 2.02zm9.205-2.533h-5.182c1.027-.844 1.904-1.738 2.533-2.583.63.861 1.573 1.755 2.649 2.583zm2.102 10.81l2.252-1.357c-.728-1.192-2.12-2.781-3.493-4.023h3.427v-2.235h-13.79v2.235h3.559c-.265.828-.613 1.722-.977 2.5-.927.033-1.771.066-2.533.083l.315 2.35c2.83-.132 6.837-.314 10.644-.53.232.348.447.68.596.977zm-6.34-2.963c.414-.761.844-1.606 1.258-2.417h3.228l-1.755.91c.43.415.878.878 1.308 1.358-1.357.05-2.731.1-4.04.15zm15.264 2.98v-5.877c.43.53.844 1.06 1.142 1.473l1.457-1.953c-.331-.331-1.523-1.39-2.318-2.036.745-1.076 1.374-2.268 1.838-3.51l-1.341-.877-.414.082h-.364v-3.03h-2.384v3.03h-2.235v2.17h3.692c-1.027 1.754-2.633 3.31-4.338 4.187.348.464.91 1.673 1.11 2.318.595-.364 1.191-.811 1.77-1.324v5.347h2.385zm10.876-.48v-2.367h-3.36V26.55h2.946v-2.317h-2.946v-4.785h-2.484v4.785h-2.93v2.317h2.93v5.613H127.4v2.367h9.47zM150.938 29.658c1.23 0 2.138-.989 2.138-2.24 0-1.23-.908-2.218-2.138-2.218s-2.138.988-2.138 2.219c0 1.25.908 2.239 2.138 2.239zm7.705 0c1.23 0 2.138-.989 2.138-2.24 0-1.23-.908-2.218-2.138-2.218s-2.138.988-2.138 2.219c0 1.25.908 2.239 2.138 2.239zm7.705 0c1.23 0 2.138-.989 2.138-2.24 0-1.23-.908-2.218-2.138-2.218s-2.138.988-2.138 2.219c0 1.25.908 2.239 2.138 2.239z" transform="translate(8.4 4.8) translate(0 7.2)"/>
            </g>
        </g>
        <g>
            <path fill="#575757" d="M24.82 3.266c.37-.37.972-.37 1.342 0 .37.37.37.971 0 1.341l-2.42 2.42c-.185.186-.428.278-.671.278-.243 0-.485-.092-.671-.277-.37-.37-.37-.971 0-1.341l2.42-2.42zM15.825 7.637c-.147 0-.297-.03-.439-.094L12.04 6.017c-.485-.223-.682-.761-.44-1.204.243-.443.833-.623 1.32-.402l3.345 1.527c.486.222.683.76.44 1.204-.171.314-.518.495-.88.495zM21.29 13.719c.444-.244.984-.046 1.204.44l1.525 3.346c.223.486.043 1.076-.401 1.32-.129.07-.266.103-.4.103-.33 0-.647-.2-.803-.545l-1.526-3.346c-.222-.485-.042-1.075.402-1.318zM19.675 5.958c-.061.013-.123.02-.184.02-.434 0-.825-.315-.913-.77l-.793-4.064c-.1-.518.228-1.022.731-1.125.513-.105.996.233 1.096.75l.793 4.065c.102.517-.225 1.021-.73 1.124zM28.951 12.358c-.102.504-.6.834-1.124.73l-4.066-.791c-.518-.102-.853-.592-.75-1.097.091-.442.49-.749.938-.749.062 0 .125.006.188.019l4.066.792c.515.1.851.59.748 1.096z" transform="translate(105.6 78)"/>
            <path fill="#475059" d="M2.843 29.188l3.99-3.617c.462-.464 1.213-.464 1.675 0l3.535 3.546c.047.047.102.071.167.071.038 0 .167-.01.225-.148l8.153-19.634-19.568 8.18c-.097.042-.131.12-.143.177-.012.058-.01.141.066.217l3.535 3.546c.462.464.462 1.218 0 1.681l-3.99 3.618c-.65.65-.65 1.712-.002 2.363.63.632 1.728.632 2.357 0z" transform="translate(105.6 78)"/>
        </g>
    </g>
</svg>
