<svg xmlns="http://www.w3.org/2000/svg" width="200" height="100" viewBox="0 0 200 100">
    <g fill="none" fill-rule="evenodd">
        <path fill="#FFF" d="M0 0H200V100H0z"/>
        <g>
            <g>
                <path fill="#EDF4EF" d="M0.85 0.85H154.85V37.85H0.85z" transform="translate(7 4) translate(28.15 42)"/>
                <path fill="#97A099" d="M155.7 4.85H154v-4h1.7v4zm0 6H154v-4h1.7v4zm0 6H154v-4h1.7v4zm0 6H154v-4h1.7v4zm0 6H154v-4h1.7v4zm0 6H154v-4h1.7v4zm-3.85 3.85V37h3l-.85.85v-1h1.7v1c0 .47-.38.85-.85.85h-3zm-6 0V37h4v1.7h-4zm-6 0V37h4v1.7h-4zm-6 0V37h4v1.7h-4zm-6 0V37h4v1.7h-4zm-6 0V37h4v1.7h-4zm-6 0V37h4v1.7h-4zm-6 0V37h4v1.7h-4zm-6 0V37h4v1.7h-4zm-6 0V37h4v1.7h-4zm-6 0V37h4v1.7h-4zm-6 0V37h4v1.7h-4zm-6 0V37h4v1.7h-4zm-6 0V37h4v1.7h-4zm-6 0V37h4v1.7h-4zm-6 0V37h4v1.7h-4zm-6 0V37h4v1.7h-4zm-6 0V37h4v1.7h-4zm-6 0V37h4v1.7h-4zm-6 0V37h4v1.7h-4zm-6 0V37h4v1.7h-4zm-6 0V37h4v1.7h-4zm-6 0V37h4v1.7h-4zm-6 0V37h4v1.7h-4zm-6 0V37h4v1.7h-4zm-6 0V37h4v1.7h-4zM0 32.85h1.7v4H0v-4zm0-6h1.7v4H0v-4zm0-6h1.7v4H0v-4zm0-6h1.7v4H0v-4zm0-6h1.7v4H0v-4zm0-6h1.7v4H0v-4zM4.85 0v1.7h-4V0h4zm6 0v1.7h-4V0h4zm6 0v1.7h-4V0h4zm6 0v1.7h-4V0h4zm6 0v1.7h-4V0h4zm6 0v1.7h-4V0h4zm6 0v1.7h-4V0h4zm6 0v1.7h-4V0h4zm6 0v1.7h-4V0h4zm6 0v1.7h-4V0h4zm6 0v1.7h-4V0h4zm6 0v1.7h-4V0h4zm6 0v1.7h-4V0h4zm6 0v1.7h-4V0h4zm6 0v1.7h-4V0h4zm6 0v1.7h-4V0h4zm6 0v1.7h-4V0h4zm6 0v1.7h-4V0h4zm6 0v1.7h-4V0h4zm6 0v1.7h-4V0h4zm6 0v1.7h-4V0h4zm6 0v1.7h-4V0h4zm6 0v1.7h-4V0h4zm6 0v1.7h-4V0h4zm6 0v1.7h-4V0h4zm6 0v1.7h-4V0h4z" transform="translate(7 4) translate(28.15 42)"/>
            </g>
            <g>
                <path fill="#FFF" stroke="#FF7000" stroke-linejoin="round" stroke-width="1.7" d="M5 4H159V41H5z" transform="translate(7 4) translate(0 6)"/>
                <g>
                    <path fill="#FFF" d="M2.428 1.214H8.498999999999999V8.499H2.428z" transform="translate(7 4) translate(0 6) translate(1)"/>
                    <path fill="#FF7000" fill-rule="nonzero" d="M8.724 0H0v8.724h8.724V0zM7.04 1.683V7.04H1.683V1.683H7.04z" transform="translate(7 4) translate(0 6) translate(1)"/>
                </g>
                <g>
                    <path fill="#FFF" d="M2 0H8.071V7.285H2z" transform="translate(7 4) translate(0 6) translate(1 18)"/>
                    <path fill="#FF7000" fill-rule="nonzero" d="M8.724 0H0v8.724h8.724V0zM7.04 1.683V7.04H1.683V1.683H7.04z" transform="translate(7 4) translate(0 6) translate(1 18)"/>
                </g>
                <g>
                    <path fill="#FFF" d="M2.428 1.214H8.498999999999999V8.499H2.428z" transform="translate(7 4) translate(0 6) translate(.825 35.711)"/>
                    <path fill="#FF7000" fill-rule="nonzero" d="M8.724 0H0v8.724h8.724V0zM7.04 1.683v5.356H1.683V1.683H7.04z" transform="translate(7 4) translate(0 6) translate(.825 35.711)"/>
                </g>
                <g>
                    <path fill="#FFF" d="M1 1H7.071V8.285H1z" transform="translate(7 4) translate(0 6) translate(82)"/>
                    <path fill="#FF7000" fill-rule="nonzero" d="M8.724 0H0v8.724h8.724V0zM7.04 1.683V7.04H1.683V1.683H7.04z" transform="translate(7 4) translate(0 6) translate(82)"/>
                </g>
                <g>
                    <path fill="#FFF" d="M1 1H7.071V8.285H1z" transform="translate(7 4) translate(0 6) translate(82 36)"/>
                    <path fill="#FF7000" fill-rule="nonzero" d="M8.724 0H0v8.724h8.724V0zM7.04 1.683v5.356H1.683V1.683H7.04z" transform="translate(7 4) translate(0 6) translate(82 36)"/>
                </g>
                <g>
                    <path fill="#FFF" d="M0.326 0.842H6.396999999999999V8.127H0.326z" transform="translate(7 4) translate(0 6) translate(154.175)"/>
                    <path fill="#FF7000" fill-rule="nonzero" d="M8.724 0H0v8.724h8.724V0zM7.04 1.683V7.04H1.683V1.683H7.04z" transform="translate(7 4) translate(0 6) translate(154.175)"/>
                </g>
                <g>
                    <path fill="#FFF" d="M0 0H6.071V7.285H0z" transform="translate(7 4) translate(0 6) translate(154.175 18)"/>
                    <path fill="#FF7000" fill-rule="nonzero" d="M8.724 0H0v8.724h8.724V0zM7.04 1.683V7.04H1.683V1.683H7.04z" transform="translate(7 4) translate(0 6) translate(154.175 18)"/>
                </g>
                <g>
                    <path fill="#FFF" d="M0.326 0.921H6.396999999999999V8.206H0.326z" transform="translate(7 4) translate(0 6) translate(154 36.004)"/>
                    <path fill="#FF7000" fill-rule="nonzero" d="M8.724 0H0v8.724h8.724V0zM7.04 1.683v5.356H1.683V1.683H7.04z" transform="translate(7 4) translate(0 6) translate(154 36.004)"/>
                </g>
                <path fill="#475059" fill-rule="nonzero" d="M38.401 29.01c3.532 0 6.402-2.87 6.402-6.402s-2.87-6.401-6.402-6.401c-3.531 0-6.401 2.87-6.401 6.401 0 3.532 2.87 6.401 6.401 6.401zm0-2.07c-2.386 0-4.332-1.945-4.332-4.332 0-2.386 1.946-4.332 4.332-4.332 2.387 0 4.332 1.946 4.332 4.332 0 2.387-1.945 4.332-4.332 4.332zm13.796 2.07c3.532 0 6.401-2.87 6.401-6.402s-2.87-6.401-6.4-6.401c-3.533 0-6.402 2.87-6.402 6.401 0 3.532 2.87 6.401 6.401 6.401zm0-2.07c-2.387 0-4.332-1.945-4.332-4.332 0-2.386 1.945-4.332 4.332-4.332 2.387 0 4.332 1.946 4.332 4.332 0 2.387-1.945 4.332-4.332 4.332zm11.01-6.139v-.373h1.24c-.054.07-.096.138-.137.194.428.22 1.214.717 1.559 1.007.276-.414.524-.925.745-1.49h1.062v1.586h-2.883v1.518l-.027-.046c-.262-.449-1.174-1.89-1.56-2.396zm1.586 2.442v.29h2.042c-.69 1.42-1.78 2.745-3.036 3.504.428.358 1.035 1.062 1.339 1.531 1.007-.731 1.848-1.793 2.538-3.021v3.614h1.96v-3.628c.482 1.159 1.075 2.207 1.737 2.952.331-.51.994-1.214 1.449-1.572-.91-.8-1.766-2.084-2.318-3.38h1.932v-1.808h-2.8V20.14h2.524V18.33h-2.525v-2.276h-1.959v2.276h-.524c.096-.413.165-.827.234-1.255l-1.82-.317c-.152 1.172-.442 2.373-.897 3.27v-1.45h-1.463v-2.524h-1.959v2.525h-1.683v1.848h1.573c-.359 1.546-1.049 3.353-1.863 4.374.318.552.745 1.476.925 2.055.386-.593.745-1.38 1.048-2.262v4.566h1.96v-5.725c.179.414.33.814.44 1.131l1.146-1.324zm19.259 5.918c1.448 0 2.11-.607 2.4-3.366-.565-.207-1.297-.704-1.752-1.173-.069 1.684-.22 2.428-.469 2.428-.814 0-1.531-3.09-1.793-6.815h3.614v-1.959h-1.2l.966-.827c-.373-.442-1.145-1.049-1.725-1.449l-1.324 1.09c.441.331.965.786 1.338 1.186h-1.752c-.014-.717-.014-1.448.014-2.166h-2.166c0 .718.014 1.449.027 2.166h-6.663v1.96h6.76c.303 4.773 1.283 8.925 3.725 8.925zm-9.988-.372c1.807-.359 4.207-.828 6.428-1.297l-.138-1.78c-.786.138-1.586.262-2.372.387v-2.622h2.028v-1.931h-5.905v1.931h1.876v2.939c-.924.138-1.78.262-2.455.345l.538 2.028zm14.071-6.526c.787-.358 1.56-.814 2.263-1.296v1.02h6.401v-1.13c.731.482 1.49.923 2.221 1.255.359-.607.8-1.325 1.297-1.835-2.193-.718-4.263-2.166-5.739-4.194h-2.125c-.993 1.559-3.145 3.504-5.504 4.497.414.428.952 1.2 1.186 1.683zm7.67-2.11h-4.317c.855-.704 1.586-1.449 2.11-2.153.525.718 1.311 1.463 2.208 2.153zm1.753 9.008l1.876-1.131c-.607-.993-1.766-2.318-2.91-3.352h2.855v-1.863H87.887v1.863h2.966c-.22.69-.51 1.434-.814 2.083-.772.027-1.476.055-2.11.069l.262 1.959c2.359-.11 5.697-.262 8.87-.442.193.29.373.566.497.814zm-5.284-2.47c.345-.634.704-1.337 1.049-2.013h2.69l-1.463.758c.36.345.732.732 1.09 1.132-1.131.041-2.276.082-3.366.124zm12.72 2.484v-4.897c.359.441.703.882.952 1.227l1.214-1.628c-.276-.275-1.27-1.158-1.932-1.696.621-.897 1.145-1.89 1.532-2.925l-1.118-.731-.345.069h-.303v-2.525h-1.987v2.525h-1.862V20.4h3.076c-.855 1.462-2.193 2.759-3.614 3.49.29.387.759 1.394.924 1.932.497-.304.993-.676 1.476-1.104v4.456h1.987zm9.064-.4v-1.973h-2.8v-4.677h2.455v-1.931h-2.456v-3.987h-2.07v3.987h-2.441v1.931h2.442v4.677h-3.022v1.973h7.892zM125.782 24.715c1.025 0 1.781-.824 1.781-1.866 0-1.025-.756-1.849-1.781-1.849-1.026 0-1.782.824-1.782 1.849 0 1.042.756 1.866 1.782 1.866zm6.42 0c1.026 0 1.782-.824 1.782-1.866 0-1.025-.756-1.849-1.782-1.849-1.025 0-1.781.824-1.781 1.849 0 1.042.756 1.866 1.781 1.866zm6.421 0c1.026 0 1.782-.824 1.782-1.866 0-1.025-.756-1.849-1.782-1.849-1.025 0-1.781.824-1.781 1.849 0 1.042.756 1.866 1.781 1.866z" transform="translate(7 4) translate(0 6)"/>
            </g>
        </g>
        <g>
            <path fill="#575757" d="M20.684 2.722c.308-.309.81-.309 1.117 0 .309.308.309.81 0 1.117l-2.016 2.018c-.154.154-.357.23-.56.23-.202 0-.403-.076-.559-.23-.308-.309-.308-.81 0-1.118l2.018-2.017zM13.188 6.365c-.123 0-.248-.026-.366-.079l-2.788-1.272c-.405-.185-.57-.634-.367-1.003.203-.37.693-.519 1.1-.335l2.788 1.272c.404.185.568.634.366 1.003-.143.262-.432.414-.733.414zM17.742 11.432c.37-.203.82-.038 1.003.367l1.271 2.789c.185.404.036.896-.334 1.099-.108.058-.222.086-.334.086-.275 0-.54-.166-.67-.454l-1.27-2.789c-.185-.403-.036-.895.334-1.098zM16.396 4.965c-.051.011-.103.016-.153.016-.362 0-.688-.262-.762-.64l-.66-3.388c-.084-.431.19-.851.609-.937.427-.088.83.194.914.624l.66 3.388c.085.431-.187.851-.608.937zM24.126 10.299c-.086.419-.5.695-.937.608l-3.388-.66c-.431-.084-.711-.493-.625-.913.076-.37.409-.625.781-.625.052 0 .105.005.157.016l3.389.66c.429.084.709.492.623.914z" transform="translate(88 65)"/>
            <path fill="#475059" d="M2.37 24.323l3.324-3.014c.385-.387 1.011-.387 1.396 0l2.945 2.955c.04.04.086.06.14.06.032 0 .14-.01.188-.124l6.794-16.362L.85 14.655c-.081.035-.11.1-.12.148-.01.048-.007.117.056.18l2.945 2.956c.386.386.386 1.014 0 1.4L.407 22.354c-.542.543-.542 1.427-.002 1.97.525.526 1.44.526 1.964 0z" transform="translate(88 65)"/>
        </g>
    </g>
</svg>
