<svg xmlns="http://www.w3.org/2000/svg" width="200" height="100" viewBox="0 0 200 100">
    <g fill="none" fill-rule="evenodd">
        <path fill="#FFF" d="M0 0H200V100H0z"/>
        <circle cx="28" cy="33" r="19" fill="#FF7000"/>
        <circle cx="76" cy="33" r="19" fill="#93C256"/>
        <circle cx="124" cy="33" r="19" fill="#97A099"/>
        <circle cx="172" cy="33" r="19" fill="#1C9E3B"/>
        <path fill="#FFF" d="M34.73 28.09c-.816-.859-1.95-1.343-3.135-1.34-1.222 0-2.39.503-3.23 1.39L28 28.5l-.365-.375c-.842-.883-2.01-1.38-3.23-1.375-1.185-.003-2.319.481-3.135 1.34-1.715 1.853-1.69 4.721.055 6.545L27.46 41c.141.147.336.23.54.23.204 0 .399-.083.54-.23l6.135-6.365c1.746-1.824 1.77-4.692.055-6.545zM74.486 24.148l-6 3.508c-.92.538-1.486 1.524-1.486 2.59v9.029c0 .621.504 1.225 1.125 1.225h15.75C84.5 40.5 85 40 85 39.275v-9.03c0-1.065-.566-2.05-1.486-2.589l-6-3.508c-.935-.547-2.093-.547-3.028 0zm9.014 5.187L76 34.5l-7.5-5.165 6.5-3.757c.618-.357 1.382-.357 2 0l6.5 3.757zM68.5 39v-7.845l7 4.805c.15.091.323.141.5.145.2-.001.397-.06.565-.17l6.935-4.78V39h-15zM130.865 39.5h-13.75c-.617-.005-1.115-.508-1.115-1.125V32.5h1.5V38h13v-5.5h1.5v5.875c0 .3-.12.588-.333.8-.213.21-.502.328-.802.325zm-3.905-9.53l-2.22 2.22V24.5h-1.5v7.69L121 29.97l-1.06 1.06 4.06 4.03 4-4.03-1.04-1.06zM164.915 29.1l10.57.001c1.03 0 1.86.867 1.912 1.82l.003.096v6.492c0 .915-.76 1.852-1.773 1.912l-.102.003h-4.834l-3.88 3.282c-.285.24-.682.294-1.02.137-.314-.145-.524-.447-.553-.786l-.003-.08v-2.554h-.32c-1.03 0-1.86-.867-1.912-1.82l-.003-.096v-6.492c0-.958.796-1.855 1.813-1.912l.102-.003zm-.013 1.544l-.031.003c-.148.026-.295.175-.323.32l-.005.048v6.492c0 .159.163.34.328.369l.044.004h1.862v2.833l3.349-2.832h5.399c.128 0 .298-.17.328-.326l.004-.046v-6.492c0-.159-.163-.34-.328-.369l-.044-.004h-10.583zm3.613-5.144l10.57.001c1.03 0 1.86.867 1.912 1.82l.003.096v6.492c0 .915-.76 1.852-1.773 1.912l-.102.003-.697-.001V34.28l.697.001c.128 0 .298-.17.328-.326l.004-.046v-6.492c0-.159-.163-.34-.328-.369l-.044-.004h-10.583l-.031.003c-.148.026-.295.175-.323.32l-.005.048-.001.656H166.6v-.656c0-.958.796-1.855 1.813-1.912l.102-.003z"/>
        <g>
            <path fill="#4D4F58" d="M65.327 45.38c4.182-5.18 7.433-12.979 6.613-20.304C70.555 12.706 60.253 2.89 47.835 2.06 32.069 1.005 19.005 14.069 20.06 29.835c.83 12.418 10.646 22.72 23.016 24.105 7.325.82 14.123-1.431 19.304-5.613l16.4 16.4c.364.364.954.364 1.316 0l1.632-1.63c.363-.363.363-.953 0-1.316l-16.4-16.401z" transform="translate(54 30)"/>
            <path fill="#FFF" d="M46 51c-12.681 0-23-10.319-23-23S33.319 5 46 5s23 10.319 23 23-10.319 23-23 23" transform="translate(54 30)"/>
        </g>
        <path fill="#FF7000" d="M114.293 47c2.235 0 4.058 1.812 4.058 4.054 0 2.243-1.823 4.055-4.058 4.055-.484 0-.938-.085-1.37-.243l-5.85 7.034c.547.695.875 1.569.875 2.517 0 2.243-1.813 4.054-4.057 4.054-2.235 0-4.048-1.811-4.048-4.054 0-.569.116-1.116.326-1.61l-3.457-3.37c-.642.422-1.403.665-2.213.665-1.096 0-2.098-.431-2.825-1.138l-1.77 1.379c.136.41.211.842.211 1.306 0 2.232-1.813 4.043-4.057 4.043-2.245 0-4.058-1.812-4.058-4.043 0-2.243 1.813-4.055 4.058-4.055 1.011 0 1.94.37 2.645.98l1.877-1.464c-.095-.337-.137-.695-.137-1.063 0-2.242 1.813-4.054 4.058-4.054 2.234 0 4.057 1.812 4.057 4.054 0 .642-.158 1.263-.432 1.8l3.382 3.296c.674-.484 1.497-.779 2.383-.779.515 0 1.011.095 1.465.275l5.818-6.99c-.59-.706-.938-1.601-.938-2.591 0-2.243 1.813-4.054 4.057-4.054V47zm-10.4 15.595c-1 0-1.813.822-1.813 1.822 0 1.011.812 1.822 1.814 1.822 1.011 0 1.823-.81 1.823-1.822 0-1-.812-1.822-1.823-1.822zm-17.832-2.77c-1.002 0-1.824.81-1.824 1.822 0 1.001.822 1.812 1.824 1.812 1.001 0 1.823-.812 1.823-1.812 0-1.012-.822-1.822-1.823-1.822zm8.441-5.601c-1.011 0-1.823.81-1.823 1.821 0 1 .812 1.822 1.823 1.822 1.002 0 1.824-.822 1.824-1.822 0-1.011-.822-1.821-1.824-1.821zm19.793-4.99c-1.011 0-1.823.822-1.823 1.822s.812 1.822 1.823 1.822c1.002 0 1.823-.822 1.823-1.822s-.821-1.822-1.823-1.822z"/>
    </g>
</svg>
