<svg xmlns="http://www.w3.org/2000/svg" width="272" height="144" viewBox="0 0 272 144">
    <g fill="none" fill-rule="evenodd" transform="translate(8 15)">
        <circle cx="26.725" cy="26.725" r="26.725" fill="#FF7000"/>
        <circle cx="94.242" cy="26.725" r="26.725" fill="#93C256"/>
        <circle cx="161.758" cy="26.725" r="26.725" fill="#97A099"/>
        <circle cx="229.275" cy="26.725" r="26.725" fill="#1C9E3B"/>
        <path fill="#FFF" d="M36.192 19.819c-1.149-1.208-2.744-1.89-4.41-1.885-1.718.001-3.361.708-4.543 1.955l-.514.507-.513-.528c-1.185-1.241-2.828-1.94-4.543-1.934-1.667-.004-3.262.677-4.41 1.885-2.412 2.606-2.378 6.64.077 9.206l8.63 8.953c.199.206.473.323.76.323.286 0 .56-.117.759-.323l8.63-8.953c2.455-2.566 2.489-6.6.077-9.206zM92.727 13.914l-9.659 5.648c-.92.538-1.486 1.524-1.486 2.59v13.4c0 .873.709 1.723 1.583 1.723h22.154c.879 0 1.582-.704 1.582-1.724v-13.4c0-1.065-.565-2.051-1.486-2.59l-9.659-5.647c-.935-.547-2.093-.547-3.029 0zm12.064 7.656l-10.55 7.265-10.549-7.265 9.549-5.519c.62-.358 1.382-.358 2.002 0l9.548 5.519zM83.692 35.165V24.13l9.846 6.759c.213.128.455.199.704.204.282-.002.558-.085.794-.24l9.755-6.723v11.035H83.692zM171.415 35.868h-19.341c-.869-.008-1.569-.714-1.569-1.582v-8.264h2.11v7.736h18.286v-7.736h2.11v8.264c0 .422-.169.826-.468 1.124-.3.297-.706.462-1.128.458zm-5.493-13.405l-3.123 3.123V14.769h-2.11v10.817l-3.15-3.123-1.492 1.491 5.711 5.669 5.627-5.669-1.463-1.49zM219.31 21.24l14.866.001c1.45 0 2.617 1.22 2.69 2.56l.004.134v9.132c0 1.288-1.067 2.606-2.494 2.69l-.144.004h-6.799l-5.458 4.616c-.4.337-.959.414-1.434.193-.442-.203-.736-.628-.778-1.106l-.005-.111v-3.594h-.449c-1.45 0-2.616-1.219-2.69-2.56l-.004-.134v-9.131c0-1.348 1.12-2.61 2.55-2.69l.144-.004zm14.866 2.172h-14.885l-.045.003c-.208.037-.414.247-.454.451l-.006.068v9.131c0 .223.23.478.46.518l.063.006h2.62l-.001 3.986 4.71-3.984h7.594c.181 0 .42-.239.462-.459l.006-.065v-9.132c0-.223-.23-.477-.46-.518l-.064-.005zm-9.803-7.236l14.867.002c1.45 0 2.617 1.218 2.69 2.56l.004.134v9.131c0 1.289-1.068 2.606-2.494 2.69l-.144.004h-.979v-2.17h.98c.18 0 .419-.239.46-.459l.007-.065v-9.131c0-.223-.23-.478-.461-.518l-.063-.006h-14.885l-.045.004c-.208.036-.415.246-.454.45l-.007.068v.922h-2.17v-.922c0-1.348 1.12-2.61 2.55-2.69l.144-.004z"/>
        <path fill="#4D4F58" d="M155.185 86.337c5.882-7.288 10.456-18.257 9.302-28.56-1.948-17.399-16.439-31.207-33.906-32.374-22.177-1.484-40.553 16.891-39.068 39.068 1.167 17.467 14.975 31.958 32.374 33.906 10.303 1.154 19.866-2.013 27.153-7.895l23.07 23.07c.51.51 1.34.51 1.85 0l2.295-2.295c.51-.51.51-1.34 0-1.851l-23.07-23.07z"/>
        <path fill="#FFF" d="M128 94.242c-17.838 0-32.352-14.514-32.352-32.352 0-17.837 14.514-32.352 32.352-32.352 17.838 0 32.352 14.515 32.352 32.352 0 17.838-14.514 32.352-32.352 32.352"/>
        <path fill="#FF7000" d="M148.105 46.418c3.143 0 5.707 2.548 5.707 5.702 0 3.155-2.564 5.703-5.707 5.703-.681 0-1.32-.12-1.928-.341l-8.228 9.894c.77.978 1.23 2.207 1.23 3.54 0 3.155-2.55 5.703-5.707 5.703-3.142 0-5.693-2.548-5.693-5.703 0-.8.164-1.57.459-2.265l-4.863-4.739c-.903.593-1.973.934-3.113.934-1.542 0-2.95-.606-3.973-1.6l-2.49 1.94c.192.577.297 1.184.297 1.836 0 3.14-2.55 5.687-5.707 5.687s-5.708-2.548-5.708-5.687c0-3.154 2.551-5.702 5.708-5.702 1.423 0 2.728.52 3.72 1.378l2.64-2.06c-.133-.474-.192-.977-.192-1.495 0-3.154 2.551-5.702 5.708-5.702 3.143 0 5.707 2.548 5.707 5.702 0 .904-.222 1.776-.608 2.532l4.757 4.636c.948-.68 2.106-1.095 3.351-1.095.726 0 1.423.133 2.062.386l8.183-9.833c-.83-.992-1.32-2.251-1.32-3.644 0-3.154 2.551-5.702 5.708-5.702v-.005zm-14.628 21.936c-1.409 0-2.55 1.156-2.55 2.562 0 1.423 1.141 2.562 2.55 2.562 1.423 0 2.565-1.14 2.565-2.562 0-1.406-1.142-2.562-2.565-2.562zm-25.084-3.897c-1.408 0-2.564 1.14-2.564 2.563 0 1.408 1.156 2.548 2.564 2.548 1.409 0 2.565-1.142 2.565-2.548 0-1.423-1.156-2.563-2.565-2.563zm11.874-7.879c-1.423 0-2.565 1.14-2.565 2.563 0 1.406 1.142 2.562 2.565 2.562 1.408 0 2.565-1.156 2.565-2.562 0-1.423-1.156-2.563-2.565-2.563zm27.84-7.018c-1.423 0-2.564 1.156-2.564 2.563 0 1.406 1.141 2.562 2.564 2.562 1.409 0 2.565-1.156 2.565-2.562 0-1.407-1.156-2.563-2.565-2.563z"/>
    </g>
</svg>
