<svg xmlns="http://www.w3.org/2000/svg" width="20" height="20" viewBox="0 0 20 20">
    <path fill="#FFF" fill-rule="evenodd" d="M15.984 1.016l-11.92.063c-1.641.008-2.971 1.335-2.983 2.977L1.018 12.5v.018C1.018 13.888 2.13 15 3.5 15v2.255c0 .247.091.485.257.669.37.41 1.001.443 1.412.074L8.5 15H16c1.657 0 3-1.343 3-3V4c-.009-1.657-1.359-2.993-3.016-2.984zM4.5 2.5h11c1.105 0 2 .895 2 2v7c0 1.105-.895 2-2 2H8l-3 3v-3h-.5c-1.105 0-2-.895-2-2v-7c0-1.105.895-2 2-2zM6 7c-.552 0-1 .448-1 1s.448 1 1 1 1-.448 1-1-.448-1-1-1zm4 0c-.552 0-1 .448-1 1s.448 1 1 1 1-.448 1-1-.448-1-1-1zm4 0c-.552 0-1 .448-1 1s.448 1 1 1 1-.448 1-1-.448-1-1-1z"/>
</svg>
