<svg width="20" height="21" viewBox="0 0 20 21" fill="none" xmlns="http://www.w3.org/2000/svg">
<g clip-path="url(#clip0_5776_743)">
<mask id="mask0_5776_743" style="mask-type:luminance" maskUnits="userSpaceOnUse" x="0" y="0" width="20" height="21">
<path d="M9.98764 18.8317C11.0822 18.8331 12.1662 18.6182 13.1775 18.1993C14.1887 17.7805 15.1072 17.1659 15.8801 16.3909C16.6551 15.6179 17.2697 14.6994 17.6886 13.6882C18.1075 12.677 18.3224 11.5929 18.321 10.4984C18.3224 9.40383 18.1074 8.31979 17.6886 7.30856C17.2697 6.29733 16.6551 5.37884 15.8801 4.60588C15.1072 3.83089 14.1887 3.2163 13.1775 2.79741C12.1662 2.37853 11.0822 2.16363 9.98764 2.16505C8.89309 2.16365 7.80905 2.37857 6.79782 2.79745C5.78658 3.21633 4.8681 3.83091 4.09514 4.60588C3.32017 5.37884 2.70558 6.29733 2.2867 7.30856C1.86783 8.31979 1.65291 9.40383 1.6543 10.4984C1.65289 11.5929 1.86779 12.677 2.28667 13.6882C2.70555 14.6994 3.32015 15.6179 4.09514 16.3909C4.8681 17.1658 5.78658 17.7804 6.79782 18.1993C7.80905 18.6182 8.89309 18.8331 9.98764 18.8317Z" fill="white" stroke="white" stroke-width="2.41905" stroke-linejoin="round"/>
<path d="M6.6543 10.501L9.1543 13.001L14.1543 8.00098" stroke="black" stroke-width="2.41905" stroke-linecap="round" stroke-linejoin="round"/>
</mask>
<g mask="url(#mask0_5776_743)">
<path d="M-0.00390625 0.498047H19.9961V20.498H-0.00390625V0.498047Z" fill="#007E47"/>
</g>
</g>
<defs>
<clipPath id="clip0_5776_743">
<rect width="20" height="20" fill="white" transform="translate(0 0.5)"/>
</clipPath>
</defs>
</svg>
