<svg width="185" height="188" viewBox="0 0 185 188" fill="none" xmlns="http://www.w3.org/2000/svg">
<rect x="71.8284" y="5.17578" width="18.538" height="13.5425" fill="#76C489" fill-opacity="0.7"/>
<path d="M81.0976 177.688C125.887 177.688 162.195 141.517 162.195 96.8979C162.195 52.2786 125.887 16.1074 81.0976 16.1074C36.3087 16.1074 0 52.2786 0 96.8979C0 141.517 36.3087 177.688 81.0976 177.688Z" fill="#1C9E3B"/>
<path d="M81.0969 171.919C122.687 171.919 156.402 138.331 156.402 96.8988C156.402 55.4664 122.687 21.8789 81.0969 21.8789C39.5072 21.8789 5.79199 55.4664 5.79199 96.8988C5.79199 138.331 39.5072 171.919 81.0969 171.919Z" fill="#9FD6AC"/>
<path d="M81.0967 169.214C121.187 169.214 153.686 136.837 153.686 96.8988C153.686 56.9604 121.187 24.584 81.0967 24.584C41.0066 24.584 8.50708 56.9604 8.50708 96.8988C8.50708 136.837 41.0066 169.214 81.0967 169.214Z" fill="white"/>
<path d="M81.0978 50.7285C82.6974 50.7285 83.9941 52.0203 83.9941 53.6139V94.6135H78.2014V53.6139C78.2014 52.0203 79.4982 50.7285 81.0978 50.7285Z" fill="#256860"/>
<path d="M110.589 96.7292C110.589 98.3228 109.292 99.6147 107.693 99.6147H81.0968V93.8438H107.693C109.292 93.8438 110.589 95.1356 110.589 96.7292Z" fill="#256860"/>
<path d="M81.0977 103.571C84.7968 103.571 87.7955 100.584 87.7955 96.899C87.7955 93.2139 84.7968 90.2266 81.0977 90.2266C77.3986 90.2266 74.3999 93.2139 74.3999 96.899C74.3999 100.584 77.3986 103.571 81.0977 103.571Z" fill="#E76F51"/>
<path d="M83.9863 36.3053C83.9863 34.7118 82.6896 33.4199 81.0899 33.4199C79.4903 33.4199 78.1936 34.7118 78.1936 36.3053V42.0761C78.1936 43.6697 79.4903 44.9615 81.0899 44.9615C82.6896 44.9615 83.9863 43.6697 83.9863 42.0761V36.3053Z" fill="#A4D8B0" fill-opacity="0.4"/>
<path d="M36.0351 52.0166C37.1662 50.8899 39 50.8899 40.1311 52.0166L44.2272 56.0967C45.3583 57.2234 45.3583 59.0502 44.2272 60.1769C43.0961 61.3036 41.2622 61.3036 40.1311 60.1769L36.0351 56.0967C34.904 54.97 34.904 53.1433 36.0351 52.0166Z" fill="#A4D8B0" fill-opacity="0.4"/>
<path d="M17.3772 96.9055C17.3772 95.3119 18.6739 94.0201 20.2735 94.0201H26.0662C27.6658 94.0201 28.9626 95.3119 28.9626 96.9055C28.9626 98.4991 27.6658 99.791 26.0662 99.791H20.2735C18.6739 99.791 17.3772 98.4991 17.3772 96.9055Z" fill="#A4D8B0" fill-opacity="0.4"/>
<path d="M36.0457 141.79C34.9146 140.663 34.9146 138.836 36.0457 137.71L40.1418 133.629C41.2729 132.502 43.1067 132.502 44.2378 133.629C45.3689 134.756 45.3689 136.583 44.2378 137.71L40.1418 141.79C39.0107 142.917 37.1768 142.917 36.0457 141.79Z" fill="#A4D8B0" fill-opacity="0.4"/>
<path d="M78.209 157.492C78.209 159.085 79.5058 160.377 81.1054 160.377C82.705 160.377 84.0017 159.085 84.0017 157.492V151.721C84.0017 150.127 82.705 148.835 81.1054 148.835C79.5058 148.835 78.209 150.127 78.209 151.721V157.492Z" fill="#A4D8B0" fill-opacity="0.4"/>
<path d="M126.159 141.779C125.028 142.905 123.194 142.905 122.063 141.779L117.967 137.698C116.836 136.571 116.836 134.744 117.967 133.617C119.098 132.491 120.932 132.491 122.063 133.617L126.159 137.698C127.29 138.825 127.29 140.652 126.159 141.779Z" fill="#A4D8B0" fill-opacity="0.4"/>
<path d="M144.817 96.8913C144.817 98.4849 143.52 99.7768 141.921 99.7768H136.128C134.528 99.7768 133.232 98.4849 133.232 96.8913C133.232 95.2977 134.528 94.0059 136.128 94.0059H141.921C143.52 94.0059 144.817 95.2977 144.817 96.8913Z" fill="#A4D8B0" fill-opacity="0.4"/>
<path d="M126.15 52.0071C127.281 53.134 127.281 54.961 126.15 56.0878L122.054 60.1685C120.923 61.2953 119.089 61.2953 117.958 60.1685C116.827 59.0416 116.827 57.2147 117.958 56.0878L122.054 52.0071C123.185 50.8803 125.019 50.8803 126.15 52.0071Z" fill="#A4D8B0" fill-opacity="0.4"/>
<rect x="53.2903" width="55.6139" height="17.3021" rx="4" fill="#1C9E3B"/>
<path fill-rule="evenodd" clip-rule="evenodd" d="M149.773 124.451C133.712 124.451 120.692 137.471 120.692 153.532C120.692 169.594 133.712 182.614 149.773 182.614C165.835 182.614 178.855 169.594 178.855 153.532C178.855 137.471 165.835 124.451 149.773 124.451Z" fill="#1C9E3B"/>
<path fill-rule="evenodd" clip-rule="evenodd" d="M145.087 163.413L143.251 161.577L161.043 143.72C161.651 143.112 162.638 143.112 163.246 143.72L163.981 144.454C164.589 145.063 164.589 146.049 163.981 146.658L147.291 163.413C146.682 164.021 145.696 164.021 145.087 163.413Z" fill="white"/>
<path fill-rule="evenodd" clip-rule="evenodd" d="M149.124 161.576L147.288 163.412C146.68 164.02 145.693 164.02 145.085 163.412L137.774 156.101C137.166 155.493 137.166 154.506 137.774 153.898L138.508 153.163C139.117 152.555 140.103 152.555 140.712 153.163L149.124 161.576Z" fill="white"/>
</svg>
