<svg width="42" height="42" viewBox="0 0 42 42" fill="none" xmlns="http://www.w3.org/2000/svg">
<path fill-rule="evenodd" clip-rule="evenodd" d="M21.0001 4.33561C11.7953 4.33561 4.33342 11.7975 4.33342 21.0023C4.33342 30.207 11.7953 37.6689 21.0001 37.6689C30.2048 37.6689 37.6668 30.207 37.6668 21.0023C37.6668 11.7975 30.2048 4.33561 21.0001 4.33561ZM0.166748 21.0023C0.166748 9.49635 9.49415 0.168945 21.0001 0.168945C32.506 0.168945 41.8334 9.49635 41.8334 21.0023C41.8334 32.5082 32.506 41.8356 21.0001 41.8356C9.49415 41.8356 0.166748 32.5082 0.166748 21.0023ZM21.0001 10.5856C22.1507 10.5856 23.0834 11.5184 23.0834 12.6689V20.1393L28.7232 25.7791C29.5368 26.5927 29.5368 27.9118 28.7232 28.7254C27.9096 29.539 26.5905 29.539 25.7769 28.7254L19.5269 22.4754C19.1362 22.0847 18.9167 21.5548 18.9167 21.0023V12.6689C18.9167 11.5184 19.8495 10.5856 21.0001 10.5856Z" fill="#1C9E3B"/>
</svg>
