<svg xmlns="http://www.w3.org/2000/svg" width="200" height="100" viewBox="0 0 200 100">
    <g fill="none" fill-rule="evenodd">
        <path fill="#FFF" d="M0 0H200V100H0z"/>
        <g transform="translate(55 54)">
            <rect width="90.514" height="18" fill="#FF7000" rx="9"/>
            <path fill="#FFF" fill-rule="nonzero" d="M22.032 12.738c.556 0 .947-.278.947-1.346 0-.295-.026-.955-.043-1.641.53-.148 1.085-.235 1.615-.235.747 0 1.268.339 1.268.92 0 .626-.556.982-1.25 1.104-.305.052-.67.06-1.06.06l.4 1.104c.338-.018.729-.053 1.128-.14 1.364-.338 1.894-1.102 1.894-2.119 0-1.18-1.043-1.884-2.363-1.884-.477 0-1.068.078-1.65.226v-.304c0-.252 0-.513.009-.773.564-.07 1.155-.157 1.641-.27l-.026-1.076c-.451.13-1.016.243-1.58.32.008-.216.017-.425.026-.616.017-.217.052-.59.07-.747h-1.182c.026.157.06.574.06.756 0 .148 0 .4-.008.703-.174.01-.339.018-.495.018-.313 0-.686-.009-1.19-.07l.018 1.042c.373.035.807.044 1.198.044.139 0 .295-.009.46-.017v.72c0 .2 0 .4.01.6C20.876 9.577 20 10.35 20 11.106c0 .911 1.19 1.632 2.032 1.632zm5.072-4.394l.521-.886c-.451-.322-1.45-.886-2.11-1.207l-.478.842c.539.26 1.66.895 2.067 1.25zm-5.41 3.23c-.226 0-.626-.243-.626-.503 0-.304.348-.66.877-.93.018.452.026.843.026 1.06 0 .295-.121.373-.277.373zm7.998 1.529v-4.55h2.293V5.32h-3.317v7.782h1.024zm4.108 0c.8 0 1.347-.026 1.703-.2.364-.165.486-.46.486-1.033V5.32h-3.405v3.24h2.354v3.291c0 .157-.06.209-.226.209-.165.009-.755.017-1.259-.018.148.278.313.765.347 1.06zm1.138-6.522h-1.372v-.478h1.372v.478zm-3.917 0h-1.329v-.47h1.33v.47zm0 1.19h-1.329v-.496h1.33v.495zm3.917.008h-1.372v-.504h1.372v.504zm-3.387 4.586v-.487h2.397V9.151h-3.361v3.214h.964zm1.433-1.338h-1.433v-1.024h1.433v1.024zm6.774 1.468c.695 0 1.233-.53 1.807-2.023l-.869-1.043c-.165.678-.504 1.685-.912 1.685-.538 0-.799-.842-.92-2.084-.052-.617-.061-1.268-.052-1.824 0-.235.043-.738.104-1.042l-1.32-.018c.052.261.06.626.06.869 0 .53.018 1.528.096 2.319.243 2.31 1.068 3.161 2.006 3.161zm3.891-1.32l1.138-.434c-.096-1.32-.756-3.396-1.572-4.395l-1.094.365c.937 1.06 1.398 3.083 1.528 4.464zm2.527-2.24c.46-.253.921-.54 1.347-.852v.608h4.325v-.6c.434.313.886.6 1.328.826.183-.321.417-.66.67-.93C52.463 7.433 51.056 6.33 50.127 5H49.06c-.652 1.06-2.041 2.371-3.535 3.092.226.217.512.59.651.842zm5.246-1.156h-3.509c.713-.564 1.32-1.181 1.729-1.763.417.573 1.06 1.199 1.78 1.763zm-3.457 5.333v-.322h3.431v.322h1.06V9.55h-5.507v3.56h1.016zm3.431-1.234h-3.43v-1.415h3.43v1.415zm5.897.86c-.017-.19-.052-.503-.06-.66-.053-.807-.053-1.528-.053-2.232 0-.226.009-.469.018-.712.72-.669 1.528-1.103 2.44-1.103.86 0 1.398.608 1.398 1.277 0 1.346-1.077 1.954-2.588 2.188l.513 1.043c2.136-.426 3.222-1.468 3.222-3.205 0-1.381-1.042-2.32-2.371-2.32-.773 0-1.66.244-2.528.895l.018-.251c.147-.226.33-.504.443-.652l-.322-.408c.07-.538.14-.981.191-1.225l-1.259-.034c.044.26.035.52.035.764 0 .096-.018.339-.035.66-.365.052-.738.096-.99.113-.304.017-.504.017-.747.009l.104 1.103c.487-.061 1.147-.148 1.564-.2l-.035.6c-.486.72-1.355 1.866-1.841 2.457l.677.955c.295-.417.721-1.042 1.086-1.589-.018.73-.018 1.225-.035 1.893 0 .14-.009.452-.026.634h1.181zm10.04-.139c.816 0 1.867-.07 2.449-.139l.043-1.18c-.642.12-1.728.225-2.57.225-1.294 0-1.364-.191-1.39-1.033-.017-.365-.009-1.156 0-1.946.738-.078 1.58-.156 2.336-.217-.008.408-.026.799-.06 1.033-.026.165-.096.2-.27.2-.173 0-.52-.052-.79-.104l-.026.947c.304.052.99.13 1.294.13.443 0 .66-.113.747-.565.07-.364.104-1.068.13-1.72.252-.017.478-.025.66-.034.235-.009.686-.017.834-.009v-1.06l-.825.062c-.2.008-.417.026-.651.043l.026-.93c.008-.234.026-.607.052-.737h-1.164c.026.156.06.564.06.781v.973c-.78.07-1.615.148-2.344.217.008-.339.008-.625.008-.825 0-.365.018-.608.053-.895h-1.216c.043.304.07.6.07.956v.868l-.652.061c-.434.035-.834.052-1.077.052l.113 1.103c.226-.035.764-.121 1.033-.156l.582-.061.001 1.17c.001.354.004.654.008.836.035 1.485.304 1.954 2.536 1.954z"/>
        </g>
        <g fill="#4D4F58" fill-rule="nonzero">
            <path d="M88.183 71.968c0 2.637-2.636 2.637-2.636 2.637H64.454s-2.637 0-2.637-2.637H.001v1.863c0 6.82 6.62 5.82 6.62 5.82h136.535s6.844 1 6.844-5.82v-1.863H88.183zM17.334 10.924V6.607c0-1.734 1.413-3.152 3.147-3.152h108.583c1.734 0 3.152 1.412 3.152 3.152v62.645h3.113V7.347c0-3.866-3.134-7-7-7H21.23c-3.866 0-7 3.135-7 7l-.003 61.9h3.114l-.007-58.323zM74.404 1c.414 0 .75.336.75.75s-.34.75-.75.75c-.414 0-.75-.336-.75-.75s.336-.75.75-.75z" transform="translate(25 10)"/>
        </g>
        <g>
            <path fill="#0C9F35" d="M1.852 0C.83 0 0 .83 0 1.852v19.314c0 1.02.83 1.85 1.852 1.85h25.89c.49 0 .96-.198 1.306-.544.348-.346.543-.816.543-1.306V1.852c0-.492-.195-.961-.543-1.306C28.702.197 28.231 0 27.741 0H1.851z" transform="translate(145 25)"/>
            <path fill="#FFF" d="M2.468 4.827L2.468 2.465 27.125 2.465 27.125 4.827 14.796 13.316z" transform="translate(145 25)"/>
            <path fill="#FFF" d="M15.725 15.676l11.4-7.858V20.55H2.468V7.818l11.505 7.9c.248.15.532.228.823.238.33 0 .652-.1.93-.28z" transform="translate(145 25)"/>
        </g>
        <g>
            <path fill="#FFF" d="M15.854 12.921l1.386-1.385c.316-.316.454-.768.367-1.208-.087-.44-.386-.806-.8-.978L5.387 4.592c-.226-.096-.49-.043-.664.132-.174.174-.227.436-.132.664l4.76 11.419c.207.501.694.826 1.238.826.357 0 .694-.14.947-.393l1.386-1.385 1.123 1.122c.784.784 2.149.784 2.933 0 .808-.808.808-2.124 0-2.932l-1.124-1.124zM2.522 1.788c-.203-.203-.532-.203-.734 0-.203.203-.203.532 0 .734l1.325 1.325c.1.102.234.152.367.152.133 0 .265-.05.367-.152.203-.202.203-.531 0-.734L2.522 1.788zM7.992 4.18c.08 0 .163-.016.24-.05l1.832-.836c.266-.122.373-.417.24-.66-.133-.242-.455-.34-.722-.22l-1.831.837c-.266.121-.374.416-.241.659.094.171.284.27.482.27zM3.909 7.51c-.242-.133-.538-.025-.659.24l-.835 1.833c-.121.266-.023.589.22.722.07.038.146.056.22.056.18 0 .353-.109.439-.298l.835-1.832c.121-.265.023-.588-.22-.721zM6.408 3.262c.034.007.068.01.101.01.238 0 .452-.172.5-.42L7.443.625c.055-.283-.124-.56-.4-.616-.28-.057-.545.128-.6.41l-.434 2.226c-.056.283.123.56.4.616zM3.262 6.409c-.056-.275-.33-.457-.616-.4l-2.225.434c-.284.055-.468.324-.41.6.05.242.268.41.512.41.034 0 .069-.003.104-.01l2.225-.434c.282-.055.466-.323.41-.6z" transform="matrix(-1 0 0 1 69 58)"/>
            <path fill="#475059" d="M15.167 16.283l-2.184-1.98c-.253-.255-.664-.255-.917 0l-1.935 1.94c-.026.027-.056.04-.091.04-.021 0-.092-.006-.124-.082L5.453 5.453l10.712 4.479c.054.022.072.065.079.096.006.032.005.078-.037.12l-1.934 1.94c-.253.254-.253.667 0 .92l2.184 1.98c.356.357.356.938 0 1.295-.344.345-.945.345-1.29 0z" transform="matrix(-1 0 0 1 69 58)"/>
        </g>
        <path fill="#1C9E3B" d="M140.25 40.75c.69 0 1.25.56 1.25 1.25 0 .647-.492 1.18-1.122 1.244l-.128.006h-17c-.69 0-1.25-.56-1.25-1.25 0-.647.492-1.18 1.122-1.244l.128-.006h17zm0-6c.69 0 1.25.56 1.25 1.25 0 .647-.492 1.18-1.122 1.244l-.128.006h-12c-.69 0-1.25-.56-1.25-1.25 0-.647.492-1.18 1.122-1.244l.128-.006h12zm0-5.75c.69 0 1.25.56 1.25 1.25 0 .647-.492 1.18-1.122 1.244l-.128.006h-8c-.69 0-1.25-.56-1.25-1.25 0-.647.492-1.18 1.122-1.244l.128-.006h8z"/>
        <path fill="#FF7000" d="M113.184 32.774c0-7.044-3.382-12.774-11.698-12.774h-2.102c-8.316 0-11.698 5.73-11.698 12.774v1.029C85.562 34.356 84 36.119 84 38.226c0 1.686 1.01 3.152 2.496 3.958v.115c0 2.088 1.856 3.785 4.136 3.785h9.855c.572 1.084 1.772 1.84 3.169 1.84 1.946 0 3.52-1.452 3.52-3.24 0-1.787-1.574-3.24-3.52-3.24-1.731 0-3.17 1.152-3.467 2.663h-9.557c-.973 0-1.787-.554-2.046-1.307.162.015.321.044.49.044h.917c.549 0 .997-.443.997-.986V34.59c0-.544-.448-.987-.997-.987h-.312v-.831c0-5.956 2.488-10.799 9.703-10.799h2.102c7.216 0 9.703 4.843 9.703 10.799v.831l-.193.004c-.549 0-.997.444-.997.987v7.268c0 .543.448.987.997.987h.928c2.792 0 5.076-2.073 5.076-4.621 0-2.149-1.633-3.944-3.816-4.46v-.994z"/>
    </g>
</svg>
