<svg xmlns="http://www.w3.org/2000/svg" width="250" height="125" viewBox="0 0 250 125">
    <g fill="none" fill-rule="evenodd">
        <path fill="#FFF" d="M0 0H250V125H0z"/>
        <g>
            <path fill="#4D4F58" d="M64.8 0c1.491 0 2.7 1.12 2.7 2.5v41.25c0 1.38-1.209 2.5-2.7 2.5H2.7c-1.491 0-2.7-1.12-2.7-2.5V2.5C0 1.12 1.209 0 2.7 0h62.1zm0 2.25H2.7c-.124 0-.229.078-.26.184l-.01.066v41.25c0 .115.084.212.198.241L2.7 44h62.1c.124 0 .229-.078.26-.184l.01-.066V2.5c0-.115-.084-.212-.198-.241L64.8 2.25z" transform="translate(12.5 12.5)"/>
            <path fill="#4D4F58" d="M56.875 11.375c.621 0 1.125.504 1.125 1.125 0 .574-.43 1.047-.984 1.116l-.141.009h-20c-.621 0-1.125-.504-1.125-1.125 0-.574.43-1.047.984-1.116l.141-.009h20z" transform="translate(12.5 12.5)"/>
            <path fill="#93C256" fill-rule="nonzero" d="M25.826 16.94c2.865.046 4.86 2.025 4.86 4.849v3.896c0 .312-.253.565-.565.565h-2.823v-2.823c0-.311-.252-.564-.564-.564-.312 0-.565.253-.565.564v2.823h-7.903v-2.823c0-.311-.252-.564-.564-.564-.312 0-.565.253-.565.564v2.823h-2.822c-.312 0-.565-.253-.565-.565V21.79c0-2.824 1.994-4.803 4.859-4.85.984.905 2.272 1.408 3.609 1.408 1.336 0 2.625-.503 3.608-1.407zm-3.609-8.19c2.339 0 4.234 1.895 4.234 4.234 0 2.338-1.895 4.234-4.234 4.234-2.338 0-4.234-1.895-4.234-4.234S19.88 8.75 22.217 8.75z" transform="translate(12.5 12.5)"/>
            <path fill="#4D4F58" d="M56.875 17.625c.621 0 1.125.504 1.125 1.125 0 .574-.43 1.047-.984 1.116l-.141.009h-20c-.621 0-1.125-.504-1.125-1.125 0-.574.43-1.047.984-1.116l.141-.009h20zM56.875 23.875c.621 0 1.125.504 1.125 1.125 0 .574-.43 1.047-.984 1.116l-.141.009h-20c-.621 0-1.125-.504-1.125-1.125 0-.574.43-1.047.984-1.116l.141-.009h20zM56.875 30c.621 0 1.125.504 1.125 1.125 0 .574-.43 1.047-.984 1.116l-.141.009h-46.25c-.621 0-1.125-.504-1.125-1.125 0-.574.43-1.047.984-1.116l.141-.009h46.25zM56.875 36.25c.621 0 1.125.504 1.125 1.125 0 .574-.43 1.047-.984 1.116l-.141.009h-46.25c-.621 0-1.125-.504-1.125-1.125 0-.574.43-1.047.984-1.116l.141-.009h46.25z" transform="translate(12.5 12.5)"/>
        </g>
        <g>
            <path fill="#4D4F58" d="M64.8 0c1.491 0 2.7 1.12 2.7 2.5v41.25c0 1.38-1.209 2.5-2.7 2.5H2.7c-1.491 0-2.7-1.12-2.7-2.5V2.5C0 1.12 1.209 0 2.7 0h62.1zm0 2.25H2.7c-.124 0-.229.078-.26.184l-.01.066v41.25c0 .115.084.212.198.241L2.7 44h62.1c.124 0 .229-.078.26-.184l.01-.066V2.5c0-.115-.084-.212-.198-.241L64.8 2.25z" transform="translate(91.25 12.5)"/>
            <path fill="#4D4F58" d="M56.875 11.375c.621 0 1.125.504 1.125 1.125 0 .574-.43 1.047-.984 1.116l-.141.009h-20c-.621 0-1.125-.504-1.125-1.125 0-.574.43-1.047.984-1.116l.141-.009h20z" transform="translate(91.25 12.5)"/>
            <path fill="#97A099" d="M25.826 16.94c2.865.046 4.86 2.025 4.86 4.849v3.896c0 .312-.253.565-.565.565h-2.823v-2.823c0-.311-.252-.564-.564-.564-.312 0-.565.253-.565.564v2.823h-7.903v-2.823c0-.311-.252-.564-.564-.564-.312 0-.565.253-.565.564v2.823h-2.822c-.312 0-.565-.253-.565-.565V21.79c0-2.824 1.994-4.803 4.859-4.85.984.905 2.272 1.408 3.609 1.408 1.336 0 2.625-.503 3.608-1.407zm-3.609-8.19c2.339 0 4.234 1.895 4.234 4.234 0 2.338-1.895 4.234-4.234 4.234-2.338 0-4.234-1.895-4.234-4.234S19.88 8.75 22.217 8.75z" transform="translate(91.25 12.5)"/>
            <path fill="#4D4F58" d="M56.875 17.625c.621 0 1.125.504 1.125 1.125 0 .574-.43 1.047-.984 1.116l-.141.009h-20c-.621 0-1.125-.504-1.125-1.125 0-.574.43-1.047.984-1.116l.141-.009h20zM56.875 23.875c.621 0 1.125.504 1.125 1.125 0 .574-.43 1.047-.984 1.116l-.141.009h-20c-.621 0-1.125-.504-1.125-1.125 0-.574.43-1.047.984-1.116l.141-.009h20zM56.875 30c.621 0 1.125.504 1.125 1.125 0 .574-.43 1.047-.984 1.116l-.141.009h-46.25c-.621 0-1.125-.504-1.125-1.125 0-.574.43-1.047.984-1.116l.141-.009h46.25zM56.875 36.25c.621 0 1.125.504 1.125 1.125 0 .574-.43 1.047-.984 1.116l-.141.009h-46.25c-.621 0-1.125-.504-1.125-1.125 0-.574.43-1.047.984-1.116l.141-.009h46.25z" transform="translate(91.25 12.5)"/>
        </g>
        <g>
            <path fill="#4D4F58" d="M64.8 0c1.491 0 2.7 1.12 2.7 2.5v41.25c0 1.38-1.209 2.5-2.7 2.5H2.7c-1.491 0-2.7-1.12-2.7-2.5V2.5C0 1.12 1.209 0 2.7 0h62.1zm0 2.25H2.7c-.124 0-.229.078-.26.184l-.01.066v41.25c0 .115.084.212.198.241L2.7 44h62.1c.124 0 .229-.078.26-.184l.01-.066V2.5c0-.115-.084-.212-.198-.241L64.8 2.25z" transform="translate(170 12.5)"/>
            <path fill="#4D4F58" d="M56.875 11.375c.621 0 1.125.504 1.125 1.125 0 .574-.43 1.047-.984 1.116l-.141.009h-20c-.621 0-1.125-.504-1.125-1.125 0-.574.43-1.047.984-1.116l.141-.009h20z" transform="translate(170 12.5)"/>
            <path fill="#FF7000" d="M25.826 16.94c2.865.046 4.86 2.025 4.86 4.849v3.896c0 .312-.253.565-.565.565h-2.823v-2.823c0-.311-.252-.564-.564-.564-.312 0-.565.253-.565.564v2.823h-7.903v-2.823c0-.311-.252-.564-.564-.564-.312 0-.565.253-.565.564v2.823h-2.822c-.312 0-.565-.253-.565-.565V21.79c0-2.824 1.994-4.803 4.859-4.85.984.905 2.272 1.408 3.609 1.408 1.336 0 2.625-.503 3.608-1.407zm-3.609-8.19c2.339 0 4.234 1.895 4.234 4.234 0 2.338-1.895 4.234-4.234 4.234-2.338 0-4.234-1.895-4.234-4.234S19.88 8.75 22.217 8.75z" transform="translate(170 12.5)"/>
            <path fill="#4D4F58" d="M56.875 17.625c.621 0 1.125.504 1.125 1.125 0 .574-.43 1.047-.984 1.116l-.141.009h-20c-.621 0-1.125-.504-1.125-1.125 0-.574.43-1.047.984-1.116l.141-.009h20zM56.875 23.875c.621 0 1.125.504 1.125 1.125 0 .574-.43 1.047-.984 1.116l-.141.009h-20c-.621 0-1.125-.504-1.125-1.125 0-.574.43-1.047.984-1.116l.141-.009h20zM56.875 30c.621 0 1.125.504 1.125 1.125 0 .574-.43 1.047-.984 1.116l-.141.009h-46.25c-.621 0-1.125-.504-1.125-1.125 0-.574.43-1.047.984-1.116l.141-.009h46.25zM56.875 36.25c.621 0 1.125.504 1.125 1.125 0 .574-.43 1.047-.984 1.116l-.141.009h-46.25c-.621 0-1.125-.504-1.125-1.125 0-.574.43-1.047.984-1.116l.141-.009h46.25z" transform="translate(170 12.5)"/>
        </g>
        <g>
            <path fill="#4D4F58" d="M64.8 0c1.491 0 2.7 1.12 2.7 2.5v41.25c0 1.38-1.209 2.5-2.7 2.5H2.7c-1.491 0-2.7-1.12-2.7-2.5V2.5C0 1.12 1.209 0 2.7 0h62.1zm0 2.25H2.7c-.124 0-.229.078-.26.184l-.01.066v41.25c0 .115.084.212.198.241L2.7 44h62.1c.124 0 .229-.078.26-.184l.01-.066V2.5c0-.115-.084-.212-.198-.241L64.8 2.25z" transform="translate(12.5 66.25)"/>
            <path fill="#4D4F58" d="M56.875 11.375c.621 0 1.125.504 1.125 1.125 0 .574-.43 1.047-.984 1.116l-.141.009h-20c-.621 0-1.125-.504-1.125-1.125 0-.574.43-1.047.984-1.116l.141-.009h20z" transform="translate(12.5 66.25)"/>
            <path fill="#1C9E3B" d="M25.826 16.94c2.865.046 4.86 2.025 4.86 4.849v3.896c0 .312-.253.565-.565.565h-2.823v-2.823c0-.311-.252-.564-.564-.564-.312 0-.565.253-.565.564v2.823h-7.903v-2.823c0-.311-.252-.564-.564-.564-.312 0-.565.253-.565.564v2.823h-2.822c-.312 0-.565-.253-.565-.565V21.79c0-2.824 1.994-4.803 4.859-4.85.984.905 2.272 1.408 3.609 1.408 1.336 0 2.625-.503 3.608-1.407zm-3.609-8.19c2.339 0 4.234 1.895 4.234 4.234 0 2.338-1.895 4.234-4.234 4.234-2.338 0-4.234-1.895-4.234-4.234S19.88 8.75 22.217 8.75z" transform="translate(12.5 66.25)"/>
            <path fill="#4D4F58" d="M56.875 17.625c.621 0 1.125.504 1.125 1.125 0 .574-.43 1.047-.984 1.116l-.141.009h-20c-.621 0-1.125-.504-1.125-1.125 0-.574.43-1.047.984-1.116l.141-.009h20zM56.875 23.875c.621 0 1.125.504 1.125 1.125 0 .574-.43 1.047-.984 1.116l-.141.009h-20c-.621 0-1.125-.504-1.125-1.125 0-.574.43-1.047.984-1.116l.141-.009h20zM56.875 30c.621 0 1.125.504 1.125 1.125 0 .574-.43 1.047-.984 1.116l-.141.009h-46.25c-.621 0-1.125-.504-1.125-1.125 0-.574.43-1.047.984-1.116l.141-.009h46.25zM56.875 36.25c.621 0 1.125.504 1.125 1.125 0 .574-.43 1.047-.984 1.116l-.141.009h-46.25c-.621 0-1.125-.504-1.125-1.125 0-.574.43-1.047.984-1.116l.141-.009h46.25z" transform="translate(12.5 66.25)"/>
        </g>
        <g>
            <path fill="#4D4F58" d="M64.8 0c1.491 0 2.7 1.12 2.7 2.5v41.25c0 1.38-1.209 2.5-2.7 2.5H2.7c-1.491 0-2.7-1.12-2.7-2.5V2.5C0 1.12 1.209 0 2.7 0h62.1zm0 2.25H2.7c-.124 0-.229.078-.26.184l-.01.066v41.25c0 .115.084.212.198.241L2.7 44h62.1c.124 0 .229-.078.26-.184l.01-.066V2.5c0-.115-.084-.212-.198-.241L64.8 2.25z" transform="translate(91.25 66.25)"/>
            <path fill="#4D4F58" d="M56.875 11.375c.621 0 1.125.504 1.125 1.125 0 .574-.43 1.047-.984 1.116l-.141.009h-20c-.621 0-1.125-.504-1.125-1.125 0-.574.43-1.047.984-1.116l.141-.009h20z" transform="translate(91.25 66.25)"/>
            <path fill="#FF7000" d="M25.826 16.94c2.865.046 4.86 2.025 4.86 4.849v3.896c0 .312-.253.565-.565.565h-2.823v-2.823c0-.311-.252-.564-.564-.564-.312 0-.565.253-.565.564v2.823h-7.903v-2.823c0-.311-.252-.564-.564-.564-.312 0-.565.253-.565.564v2.823h-2.822c-.312 0-.565-.253-.565-.565V21.79c0-2.824 1.994-4.803 4.859-4.85.984.905 2.272 1.408 3.609 1.408 1.336 0 2.625-.503 3.608-1.407zm-3.609-8.19c2.339 0 4.234 1.895 4.234 4.234 0 2.338-1.895 4.234-4.234 4.234-2.338 0-4.234-1.895-4.234-4.234S19.88 8.75 22.217 8.75z" transform="translate(91.25 66.25)"/>
            <path fill="#4D4F58" d="M56.875 17.625c.621 0 1.125.504 1.125 1.125 0 .574-.43 1.047-.984 1.116l-.141.009h-20c-.621 0-1.125-.504-1.125-1.125 0-.574.43-1.047.984-1.116l.141-.009h20zM56.875 23.875c.621 0 1.125.504 1.125 1.125 0 .574-.43 1.047-.984 1.116l-.141.009h-20c-.621 0-1.125-.504-1.125-1.125 0-.574.43-1.047.984-1.116l.141-.009h20zM56.875 30c.621 0 1.125.504 1.125 1.125 0 .574-.43 1.047-.984 1.116l-.141.009h-46.25c-.621 0-1.125-.504-1.125-1.125 0-.574.43-1.047.984-1.116l.141-.009h46.25zM56.875 36.25c.621 0 1.125.504 1.125 1.125 0 .574-.43 1.047-.984 1.116l-.141.009h-46.25c-.621 0-1.125-.504-1.125-1.125 0-.574.43-1.047.984-1.116l.141-.009h46.25z" transform="translate(91.25 66.25)"/>
        </g>
        <g>
            <path fill="#4D4F58" d="M64.8 0c1.491 0 2.7 1.12 2.7 2.5v41.25c0 1.38-1.209 2.5-2.7 2.5H2.7c-1.491 0-2.7-1.12-2.7-2.5V2.5C0 1.12 1.209 0 2.7 0h62.1zm0 2.25H2.7c-.124 0-.229.078-.26.184l-.01.066v41.25c0 .115.084.212.198.241L2.7 44h62.1c.124 0 .229-.078.26-.184l.01-.066V2.5c0-.115-.084-.212-.198-.241L64.8 2.25z" transform="translate(170 66.25)"/>
            <path fill="#4D4F58" d="M56.875 11.375c.621 0 1.125.504 1.125 1.125 0 .574-.43 1.047-.984 1.116l-.141.009h-20c-.621 0-1.125-.504-1.125-1.125 0-.574.43-1.047.984-1.116l.141-.009h20z" transform="translate(170 66.25)"/>
            <path fill="#93C256" fill-rule="nonzero" d="M25.826 16.94c2.865.046 4.86 2.025 4.86 4.849v3.896c0 .312-.253.565-.565.565h-2.823v-2.823c0-.311-.252-.564-.564-.564-.312 0-.565.253-.565.564v2.823h-7.903v-2.823c0-.311-.252-.564-.564-.564-.312 0-.565.253-.565.564v2.823h-2.822c-.312 0-.565-.253-.565-.565V21.79c0-2.824 1.994-4.803 4.859-4.85.984.905 2.272 1.408 3.609 1.408 1.336 0 2.625-.503 3.608-1.407zm-3.609-8.19c2.339 0 4.234 1.895 4.234 4.234 0 2.338-1.895 4.234-4.234 4.234-2.338 0-4.234-1.895-4.234-4.234S19.88 8.75 22.217 8.75z" transform="translate(170 66.25)"/>
            <path fill="#4D4F58" d="M56.875 17.625c.621 0 1.125.504 1.125 1.125 0 .574-.43 1.047-.984 1.116l-.141.009h-20c-.621 0-1.125-.504-1.125-1.125 0-.574.43-1.047.984-1.116l.141-.009h20zM56.875 23.875c.621 0 1.125.504 1.125 1.125 0 .574-.43 1.047-.984 1.116l-.141.009h-20c-.621 0-1.125-.504-1.125-1.125 0-.574.43-1.047.984-1.116l.141-.009h20zM56.875 30c.621 0 1.125.504 1.125 1.125 0 .574-.43 1.047-.984 1.116l-.141.009h-46.25c-.621 0-1.125-.504-1.125-1.125 0-.574.43-1.047.984-1.116l.141-.009h46.25zM56.875 36.25c.621 0 1.125.504 1.125 1.125 0 .574-.43 1.047-.984 1.116l-.141.009h-46.25c-.621 0-1.125-.504-1.125-1.125 0-.574.43-1.047.984-1.116l.141-.009h46.25z" transform="translate(170 66.25)"/>
        </g>
    </g>
</svg>
