<svg xmlns="http://www.w3.org/2000/svg" width="272" height="144" viewBox="0 0 272 144">
    <g fill="none" fill-rule="evenodd">
        <g>
            <path fill="#F7FAF8" d="M1.209 1.209H220.231V53.831H1.209z" transform="translate(8 11) translate(34.346 59.733)"/>
            <path fill="#97A099" d="M220.231 1.21V53.83H1.21V1.21h219.022zm-2.418 2.417H3.627v47.786h214.186V3.627z" transform="translate(8 11) translate(34.346 59.733)"/>
        </g>
        <g transform="translate(8 11) translate(0 12.8)">
            <path fill="#FFF1E7" d="M1.422 1.422H220.444V54.044H1.422z"/>
            <path fill="#475059" fill-rule="nonzero" d="M154.712 30.883c1.458 0 2.534-1.171 2.534-2.653 0-1.459-1.076-2.63-2.534-2.63-1.458 0-2.534 1.171-2.534 2.63 0 1.482 1.076 2.653 2.534 2.653zm9.132 0c1.458 0 2.533-1.171 2.533-2.653 0-1.459-1.075-2.63-2.533-2.63-1.459 0-2.534 1.171-2.534 2.63 0 1.482 1.075 2.653 2.534 2.653zm9.131 0c1.459 0 2.534-1.171 2.534-2.653 0-1.459-1.075-2.63-2.534-2.63-1.458 0-2.534 1.171-2.534 2.63 0 1.482 1.076 2.653 2.534 2.653z"/>
            <path fill="#FF7000" fill-rule="nonzero" d="M220.444.213H1.422C.754.213.213.754.213 1.423v52.621c0 .668.541 1.21 1.21 1.21h219.021c.668 0 1.21-.542 1.21-1.21V1.422c0-.668-.542-1.209-1.21-1.209zm-1.21 2.418v50.203H2.631V2.631h216.603z"/>
            <circle cx="209.067" cy="41.244" r="25.6" fill="#FF7000"/>
            <path fill="#FFF" d="M220.799 33.778c.59 0 1.068.48 1.068 1.069v18.13c0 .59-.474 1.067-1.068 1.067h-14.931c-.59 0-1.068-.48-1.068-1.068v-18.13c0-.59.475-1.068 1.068-1.068h14.93zm-1.065 2.134h-12.8v16h12.8v-16zm-7.468-7.468c.59 0 1.068.475 1.068 1.065v3.202H211.2v-2.134h-12.8v17.067h5.333v2.133h-6.398c-.59 0-1.068-.475-1.068-1.065V29.51c0-.588.474-1.065 1.068-1.065h14.93z"/>
            <path fill="#475059" fill-rule="nonzero" d="M23.71 38.358v-7.287c.686-.208 1.37-.415 2.035-.623l-.394-2.658-1.64.436v-2.844h1.142c-.25.374-.52.727-.79 1.038.623.374 1.786 1.225 2.264 1.682.768-.976 1.474-2.2 2.076-3.592h.623c-.914 2.865-2.43 5.71-4.402 7.267.79.415 1.744 1.121 2.305 1.682 2.035-1.973 3.695-5.627 4.568-8.949h.56c-1.038 4.692-3.031 9.198-6.312 11.544.83.415 1.869 1.163 2.43 1.744 2.823-2.388 4.754-6.665 5.896-11.066-.25 5.419-.56 7.599-.976 8.16-.249.31-.436.414-.726.414h-.237c-.387-.002-.905-.015-1.466-.083.457.83.768 2.097.83 2.949.914.02 1.765.02 2.367-.125.727-.166 1.205-.436 1.724-1.225.768-1.059 1.1-4.547 1.453-13.786.02-.353.042-1.308.042-1.308H29.42c.25-.83.478-1.703.665-2.575l-2.72-.519c-.436 2.243-1.163 4.464-2.16 6.187v-2.304h-1.494v-3.883h-2.762v3.883h-.581c.104-.768.187-1.537.249-2.284l-2.491-.415c-.146 2.408-.457 4.983-1.06 6.602.582.312 1.64.997 2.098 1.37.27-.685.498-1.494.706-2.408h1.08v3.592c-1.371.353-2.617.664-3.634.872l.706 2.886c.893-.25 1.89-.54 2.927-.851v6.477h2.762zm19.476-.02V24.012c.789-1.433 1.474-2.949 2.014-4.402l-2.845-.893c-.996 2.865-2.72 5.73-4.505 7.537.498.747 1.308 2.43 1.578 3.177.29-.312.602-.665.893-1.038v9.945h2.865zm9.488 0v-6.873h5.17v-2.948h-5.17v-3.031h4.132v-2.948h-4.132v-3.634h-3.052v3.634h-1.121c.208-.706.374-1.412.519-2.097l-2.907-.603c-.457 2.45-1.329 5.087-2.408 6.665.726.312 2.034.997 2.637 1.433.394-.685.789-1.516 1.162-2.45h2.118v3.031h-5.44v2.948h5.44v6.873h3.052zm24.479.02v-9.716h-6.852c1.89-1.952 3.405-4.298 4.402-7.039l-2.097-1.1-.498.145h-4.07c.332-.477.665-.976.955-1.495l-3.384-.664c-1.225 2.325-3.467 4.775-6.914 6.56.685.52 1.682 1.641 2.118 2.388.747-.456 1.433-.913 2.097-1.411.955.789 2.055 1.723 2.803 2.533-2.056 1.495-4.464 2.657-7.018 3.405.623.623 1.391 1.868 1.765 2.699 1.495-.52 2.928-1.121 4.277-1.869v5.544h3.031v-.79h6.25v.81h3.135zm-8.99-11.896c-.83-.79-1.993-1.682-2.97-2.388.25-.25.5-.498.748-.768h4.61c-.644 1.142-1.454 2.2-2.388 3.156zm5.855 8.367h-6.25v-3.467h6.25v3.467zm15.51-3.426c1.598 0 2.906-1.308 2.906-2.907 0-1.598-1.308-2.906-2.907-2.906-1.598 0-2.906 1.308-2.906 2.906 0 1.6 1.308 2.907 2.906 2.907zm30.707 6.333V34.87h-5.128v-3.508h4.256v-2.845h-4.256v-3.073h4.816V22.58h-4.588l.914-1.017c-1.08-.935-3.281-2.201-4.797-2.97l-1.993 2.16c.893.498 1.952 1.183 2.886 1.827h-5.149v2.865h4.838v3.073h-4.173v2.845h4.173v3.508h-5.274v2.866h13.475zm-14.347.56V23.451c.706-1.266 1.329-2.595 1.848-3.862l-2.803-.913c-1.08 2.865-2.948 5.73-4.858 7.536.498.748 1.287 2.409 1.536 3.136.478-.478.955-.997 1.412-1.578v10.526h2.865zm33.427.083v-9.82h1.62v-2.907h-6.312v-2.346c2.16-.54 4.443-1.288 6.333-2.222l-2.637-2.263c-1.163.727-2.886 1.453-4.672 2.014l-1.972-.457v5.897c0 3.052-.27 7.163-3.177 10.028.706.353 1.827 1.391 2.222 2.035 2.74-2.658 3.592-6.582 3.82-9.78h1.786v9.821h2.99zm-8.263-16.07v-2.72h-9.364v2.72h9.364zM123.225 38.4c1.245-1.972 1.702-4.88 1.868-7.433h5.585v-7.433h-8.388v5.128c0 2.409-.103 5.69-1.432 7.932.623.332 1.89 1.287 2.367 1.806zm4.547-10.111h-2.616v-2.077h2.616v2.077z"/>
        </g>
        <path fill="#FF7000" d="M182.357 75.134l.909-1.523.337 1.741c.009.043.208 1.085.208 2.74 0 3.643-.981 10.573-7.524 16.012-.173.163-4.24 3.867-12.879 3.805v9.102l-15.152-15.226 15.152-15.227v9.232c2.354.37 11.974 1.061 18.949-10.656" transform="translate(8 11)"/>
        <path fill="#97A099" d="M51.2 75.378v2.02h1.01c1.136 0 2.02.884 2.02 2.02v9.091H51.2v2.02h3.03v9.091c0 1.137-.884 2.02-2.02 2.02H51.2v2.02h1.01c1.21 0 2.288-.551 3.03-1.402.743.85 1.821 1.403 3.03 1.403h1.01v-2.02h-1.01c-1.136 0-2.02-.884-2.02-2.02v-9.092h3.03v-2.02h-3.03v-9.09c0-1.137.884-2.021 2.02-2.021h1.01v-2.02h-1.01c-1.209 0-2.287.552-3.03 1.403-.742-.851-1.82-1.403-3.03-1.403H51.2zM85.626 98.03c-.04-.596-.08-1.652-.08-2.349V85.367c0-.577.04-1.373.06-1.831-.296.017-.973.034-1.525.039H73.84c-.697 0-1.732-.04-2.469-.119v2.768c.557-.04 1.633-.08 2.469-.08h8.94v8.243H73.6c-.896 0-1.792-.06-2.489-.12v2.848c.657-.06 1.792-.12 2.569-.12h9.08c0 .379 0 .717-.02 1.036h2.886zm11.107.42c2.19 0 5.217-.14 7.089-.42v-2.906c-1.633.438-4.859.697-6.93.697-.896 0-1.712-.04-2.31-.12-.895-.179-1.293-.398-1.293-1.254v-3.684c2.588-.637 5.794-1.632 7.805-2.429.657-.239 1.553-.617 2.33-.936l-.817-1.931c.358.239.796.378 1.274.378 1.314 0 2.39-1.075 2.39-2.389 0-1.314-1.076-2.39-2.39-2.39s-2.37 1.076-2.37 2.39c0 .597.22 1.155.578 1.573-.677.398-1.274.677-1.911.916-1.772.757-4.54 1.633-6.89 2.21v-3.763c0-.558.06-1.454.16-2.07H90.5c.1.616.16 1.632.16 2.07v10.851c0 1.713.995 2.668 2.727 2.967.856.14 2.051.24 3.345.24zm7.148-13.84c-.617 0-1.135-.517-1.135-1.154 0-.637.518-1.155 1.135-1.155.637 0 1.155.518 1.155 1.155s-.518 1.155-1.155 1.155zm18.116 3.565c1.433 0 2.588-1.135 2.588-2.589 0-1.433-1.155-2.588-2.588-2.588-1.454 0-2.589 1.155-2.589 2.588 0 1.454 1.135 2.589 2.589 2.589zm0-1.314c-.717 0-1.274-.578-1.274-1.275 0-.696.557-1.254 1.274-1.254.697 0 1.254.558 1.254 1.254 0 .697-.557 1.275-1.254 1.275zm1.374 10.632l2.05-2.33c-1.871-1.672-3.544-3.444-4.818-4.818-1.155-1.274-2.748-3.305-4.082-4.62-1.433-1.393-2.727-1.254-4.101.3-1.215 1.433-2.748 3.464-3.644 4.4-.597.637-1.075 1.075-1.673 1.533l2.37 2.469c.358-.518.796-1.314 1.254-1.951.836-1.115 2.27-3.047 3.047-4.042.577-.737.955-.817 1.652-.06.936 1.035 2.41 2.907 3.624 4.34 1.254 1.494 2.887 3.445 4.32 4.78z" transform="translate(8 11)"/>
    </g>
</svg>
