<svg xmlns="http://www.w3.org/2000/svg" width="200" height="100" viewBox="0 0 200 100">
    <g fill="none" fill-rule="evenodd">
        <path fill="#FFF" d="M0 0H200V100H0z"/>
        <g>
            <path fill="#4D4F58" fill-rule="nonzero" d="M94.105 0c14.494 0 26.272 11.696 26.375 26.19.1 14.217-11.228 25.85-25.39 26.18l-.521.007H41.096c-.51-.034-1.006.17-1.346.554-3.428 3.611-6.89 7.2-10.297 10.796-.644.76-1.588 1.203-2.58 1.212-.833 0-1.628-.337-2.21-.934-.578-.597-.894-1.402-.872-2.234v-8.973c0-.528-.136-.758-.62-.877l-.153-.034-.05-.008C10.17 50.055.67 39.088.687 26.162.71 12.02 11.956.449 26.09.026l.943-.023.253-.003h66.82zm0 2l-67.05.003c-.226.003-.529.01-.905.022-13.056.39-23.442 11.078-23.461 24.14-.017 11.93 8.75 22.05 20.56 23.734l.183.032c1.459.28 2.285 1.253 2.354 2.671l.005.196-.001 9.025c-.008.293.104.578.306.786.206.212.485.33.758.33.36-.003.706-.144.966-.392l.105-.112.076-.084 10.253-10.747c.7-.79 1.702-1.235 2.75-1.23l.111.003h53.532c13.256-.094 23.927-10.917 23.834-24.174C118.385 12.81 107.5 2.001 94.105 2.001z" transform="translate(24 10)"/>
            <path fill="#4D4F58" d="M44.11 17.624l-.002 22.025c0 .203-.165.37-.366.37h-6.648c-.203 0-.367-.167-.367-.37V34.89c0-.204-.166-.365-.368-.365h-2.545c-.203 0-.368.16-.368.365v4.759c0 .203-.164.37-.367.37h-6.648c-.203 0-.367-.167-.367-.37V17.622c0-.202.164-.366.367-.366h17.31c.203 0 .369.164.369.368m21.69-6.193L65.8 39.649c0 .203-.166.37-.368.37h-6.647c-.204 0-.368-.167-.368-.37v-4.772c0-.202-.164-.366-.367-.366h-2.546c-.203 0-.367.164-.367.366v4.772c0 .203-.164.37-.368.37h-6.647c-.202 0-.366-.167-.366-.37V11.431c0-.203.164-.367.366-.367h17.311c.203 0 .369.164.369.367M31.439 29.605h-2.545c-.203 0-.367.166-.367.37v2.542c0 .204.164.365.367.365h2.545c.204 0 .368-.16.368-.365v-2.542c0-.204-.164-.37-.368-.37m4.921 0h-2.545c-.202 0-.368.166-.368.37v2.542c0 .204.166.365.368.365h2.545c.203 0 .369-.16.369-.365v-2.542c0-.204-.166-.37-.369-.37m4.922 0h-2.545c-.203 0-.368.166-.368.37v2.542c0 .204.165.365.368.365h2.545c.202 0 .368-.16.368-.365v-2.542c0-.204-.166-.37-.368-.37m11.848-.024h-2.547c-.203 0-.367.164-.367.367v2.551c0 .203.164.367.367.367h2.547c.202 0 .366-.164.366-.367v-2.551c0-.203-.164-.367-.366-.367m4.921 0h-2.547c-.202 0-.366.164-.366.367v2.551c0 .203.164.367.366.367h2.547c.203 0 .367-.164.367-.367v-2.551c0-.203-.164-.367-.367-.367m4.92 0h-2.545c-.203 0-.367.164-.367.367v2.551c0 .203.164.367.367.367h2.545c.204 0 .368-.164.368-.367v-2.551c0-.203-.164-.367-.368-.367m-31.532-4.89h-2.545c-.203 0-.367.16-.367.364v2.542c0 .204.164.37.367.37h2.545c.204 0 .368-.166.368-.37v-2.542c0-.204-.164-.365-.368-.365m4.921 0h-2.545c-.202 0-.368.161-.368.365v2.542c0 .204.166.37.368.37h2.545c.203 0 .369-.166.369-.37v-2.542c0-.204-.166-.365-.369-.365m4.922 0h-2.545c-.203 0-.368.161-.368.365v2.542c0 .204.165.37.368.37h2.545c.202 0 .368-.166.368-.37v-2.542c0-.204-.166-.365-.368-.365m11.848-.04h-2.547c-.203 0-.367.167-.367.37v2.551c0 .201.164.365.367.365h2.547c.202 0 .366-.164.366-.365V25.02c0-.203-.164-.37-.366-.37m4.921 0h-2.547c-.202 0-.366.167-.366.37v2.551c0 .201.164.365.366.365h2.547c.203 0 .367-.164.367-.365V25.02c0-.203-.164-.37-.367-.37m4.92 0h-2.545c-.203 0-.367.167-.367.37v2.551c0 .201.164.365.367.365h2.545c.204 0 .368-.164.368-.365V25.02c0-.203-.164-.37-.368-.37m-31.532-4.88h-2.545c-.203 0-.367.164-.367.367v2.545c0 .201.164.365.367.365h2.545c.204 0 .368-.164.368-.365v-2.545c0-.203-.164-.367-.368-.367m4.921 0h-2.545c-.202 0-.368.164-.368.367v2.545c0 .201.166.365.368.365h2.545c.203 0 .369-.164.369-.365v-2.545c0-.203-.166-.367-.369-.367m4.922 0h-2.545c-.203 0-.368.164-.368.367v2.545c0 .201.165.365.368.365h2.545c.202 0 .368-.164.368-.365v-2.545c0-.203-.166-.367-.368-.367m11.848-.048h-2.547c-.203 0-.367.163-.367.365v2.552c0 .202.164.37.367.37h2.547c.202 0 .366-.168.366-.37v-2.552c0-.202-.164-.365-.366-.365m4.921 0h-2.547c-.202 0-.366.163-.366.365v2.552c0 .202.164.37.366.37h2.547c.203 0 .367-.168.367-.37v-2.552c0-.202-.164-.365-.367-.365m4.92 0h-2.545c-.203 0-.367.163-.367.365v2.552c0 .202.164.37.367.37h2.545c.204 0 .368-.168.368-.37v-2.552c0-.202-.164-.365-.368-.365m-9.841-4.82h-2.547c-.203 0-.367.162-.367.365v2.552c0 .202.164.37.367.37h2.547c.202 0 .366-.168.366-.37v-2.552c0-.203-.164-.365-.366-.365m4.921 0h-2.547c-.202 0-.366.162-.366.365v2.552c0 .202.164.37.366.37h2.547c.203 0 .367-.168.367-.37v-2.552c0-.203-.164-.365-.367-.365m4.92 0h-2.545c-.203 0-.367.162-.367.365v2.552c0 .202.164.37.367.37h2.545c.204 0 .368-.168.368-.37v-2.552c0-.203-.164-.365-.368-.365" transform="translate(24 10)"/>
            <g>
                <path fill="#FFF" fill-rule="nonzero" d="M11.122 0c5.752 0 10.479 4.357 11.062 9.953 2.969-1.475 7.35.305 7.13 4.565l-.024.307c-.12 1.12-.264 1.928-.517 2.992l-.096.388 2.868.001c2.448 0 4.476 1.872 4.727 4.254l.02.249.007.251c0 .651-.133 1.274-.374 1.842l-.129.28-.037.067.054.177c.136.487.194 1.005.16 1.538l-.03.322-.043.29c-.051.31-.132.61-.24.894l-.117.28-.07.142.064.2c.124.418.191.86.192 1.313l-.012.342-.024.247c-.045.406-.14.793-.28 1.157l-.112.268-.084.168.023.063c.092.286.158.585.195.892l.026.31.007.25c0 2.364-1.75 4.356-4.048 4.702l-.248.03-.317.02-.141.003H24c-2.637 0-4.593-.386-6.353-1.126l-.35-.153c-.395-.18-1.366-.676-1.405-.694-.23-.092-.448-.205-.65-.336-.228.097-.47.172-.72.223l-.253.042-.194.02-.128.008-.193.007h-4.5c-1.86 0-3.433-1.318-3.782-3.112l-.037-.226-.02-.195-.008-.127-.007-.194v-9.692c0-.802.245-1.55.668-2.17C2.465 19.195 0 15.449 0 11.122 0 4.977 4.976 0 11.122 0zm15.266 14.515c.242-2.527-3.324-2.942-3.843-.624-.97 4.362-4.569 7.27-5.747 8.135-.207.148-.34.373-.373.63l-.008.131.001 10.42.01.14c.044.324.242.604.545.725l.192.087 1.042.52c1.087.527 2.609 1.104 5.387 1.155l.406.004h6.714l.175-.009c.923-.09 1.66-.88 1.66-1.826 0-.944-.736-1.736-1.66-1.826l-.175-.009h.208l.174-.007c.862-.076 1.599-.708 1.695-1.586.13-1.049-.64-1.974-1.662-2.069l-.173-.008h.208l.174-.007c.862-.076 1.599-.708 1.695-1.585.198-1.084-.605-2.014-1.606-2.104l-.16-.007h.278l.175-.009c.923-.09 1.66-.88 1.66-1.826 0-.944-.736-1.736-1.66-1.826l-.175-.009-5.816.002-.1-.008c-.291-.048-.481-.304-.42-.616.382-2.527.901-3.392 1.179-5.988zM9.254 22.268l-.128.008c-.412.056-.736.376-.796.786l-.01.14v9.692l.008.128c.055.412.376.736.786.796l.14.01h4.5l.127-.008c.412-.055.736-.376.797-.786l.01-.14v-9.692l-.008-.127c-.056-.412-.376-.736-.786-.797l-.14-.01h-4.5z" transform="translate(24 10) translate(69 6)"/>
                <path fill="#FF7000" d="M22.545 13.891c.52-2.318 4.085-1.903 3.843.624-.278 2.596-.797 3.461-1.178 5.988-.069.346.173.624.52.624l5.815-.002c1.004 0 1.834.832 1.834 1.835 0 1.005-.831 1.835-1.834 1.835h-.278c1.074 0 1.974.97 1.766 2.11-.103.936-.934 1.593-1.869 1.593h-.208c1.107 0 1.973.97 1.835 2.077-.103.936-.934 1.593-1.869 1.593h-.208c1.005 0 1.835.832 1.835 1.835 0 1.005-.832 1.835-1.835 1.835H24c-4.294 0-5.747-1.212-7.027-1.766-.347-.138-.555-.484-.555-.865l-.001-10.42c0-.311.139-.588.381-.761 1.178-.866 4.777-3.773 5.747-8.135zm-8.791 8.377c.519 0 .934.416.934.934v9.692c0 .52-.415.934-.934.934h-4.5c-.52 0-.934-.415-.934-.934v-9.692c0-.52.415-.934.934-.934zM11.122 2.919c4.534 0 8.204 3.668 8.204 8.203 0 4.535-3.668 8.204-8.204 8.204-4.533 0-8.203-3.668-8.203-8.204 0-4.533 3.67-8.203 8.203-8.203zm2.941 10.107c-.31-.277-.83-.242-1.107.104 0 .035-.657.797-1.869.797-1.176 0-1.833-.762-1.869-.797-.277-.312-.76-.381-1.107-.104-.312.277-.381.761-.104 1.108.035.035 1.142 1.35 3.045 1.384 1.973 0 3.08-1.316 3.115-1.384.277-.347.242-.83-.104-1.108zM8.354 7.557c-.692 0-1.246.554-1.246 1.247 0 .692.553 1.246 1.246 1.246s1.247-.554 1.247-1.246c0-.693-.554-1.247-1.247-1.247zm5.504-.034c-.693 0-1.247.553-1.247 1.247 0 .692.554 1.247 1.247 1.247.692 0 1.246-.555 1.246-1.247 0-.692-.554-1.247-1.246-1.247z" transform="translate(24 10) translate(69 6)"/>
            </g>
            <path fill="#93C256" d="M124.12 31.047c0 .213-.056.34-.071.458-.263 3.824-1.343 7.546-3.169 10.915-4.894 8.87-12.317 13.72-22.605 13.846H95.02c-.888 0-1.284.68-.832 1.417 2.503 4.087 6.002 6.884 10.795 7.714 2.073.256 4.162.358 6.25.309.489-.028.962.167 1.284.532 1.396 1.488 2.819 2.946 4.23 4.418 1.086 1.133 2.162 2.29 3.28 3.407.983 1.13 2.694 1.25 3.824.27.665-.604 1.014-1.48.943-2.377v-5.64c0-.675.183-.91.848-1.164 1.643-.523 3.218-1.24 4.688-2.138 9.331-6.417 10.148-20.6 1.624-28.174-2.2-1.98-4.916-3.295-7.834-3.793z" transform="translate(24 10)"/>
        </g>
        <path fill="#4D4F58" fill-rule="nonzero" d="M32.983 72.528c5.432.088 9.212 3.84 9.212 9.194v7.387c0 .592-.479 1.07-1.07 1.07h-6.422l.117-.005c.536-.059.953-.513.953-1.065v-4.28c0-.592-.478-1.071-1.07-1.071-.591 0-1.07.479-1.07 1.07v4.281c0 .592.479 1.07 1.07 1.07H17.578l.117-.005c.536-.059.953-.513.953-1.065v-4.28c0-.592-.479-1.071-1.07-1.071-.591 0-1.07.479-1.07 1.07v4.281c0 .592.479 1.07 1.07 1.07h-6.422c-.591 0-1.07-.478-1.07-1.07v-7.387c0-5.355 3.78-9.106 9.212-9.194 1.866 1.715 4.309 2.667 6.843 2.667 2.533 0 4.976-.952 6.842-2.667zM26.14 57c4.434 0 8.028 3.594 8.028 8.028 0 4.433-3.594 8.027-8.028 8.027-4.434 0-8.028-3.594-8.028-8.027 0-4.434 3.594-8.028 8.028-8.028z"/>
        <path fill="#4D4F58" d="M180.844 72.434c5.398.087 9.156 3.816 9.156 9.138v7.343c0 .588-.476 1.064-1.064 1.064h-6.383l.116-.007c.534-.057.948-.509.948-1.057V84.66c0-.588-.476-1.064-1.064-1.064-.587 0-1.063.476-1.063 1.064v4.255c0 .588.476 1.064 1.063 1.064h-17.02l.115-.007c.533-.057.948-.509.948-1.057V84.66c0-.588-.476-1.064-1.064-1.064-.588 0-1.064.476-1.064 1.064v4.255c0 .588.476 1.064 1.064 1.064h-6.383c-.588 0-1.064-.476-1.064-1.064v-7.343c0-5.322 3.758-9.05 9.157-9.138 1.854 1.704 4.282 2.651 6.8 2.651 2.52 0 4.947-.947 6.801-2.651zM174.042 57c4.407 0 7.98 3.572 7.98 7.979s-3.573 7.979-7.98 7.979-7.979-3.572-7.979-7.98c0-4.406 3.572-7.978 7.98-7.978z"/>
    </g>
</svg>
