<svg xmlns="http://www.w3.org/2000/svg" width="200" height="100" viewBox="0 0 200 100">
    <g fill="none" fill-rule="evenodd">
        <path fill="#FFF" d="M0 0H200V100H0z"/>
        <g transform="translate(10 39)">
            <path fill="#475059" d="M51.84 0C53.033 0 54 .895 54 2v33c0 1.105-.967 2-2.16 2H2.16C.967 37 0 36.105 0 35V2C0 .895.967 0 2.16 0h49.68zm0 1.8H2.16c-.1 0-.183.062-.208.147L1.944 2v33c0 .092.067.17.159.193l.057.007h49.68c.1 0 .183-.062.208-.147l.008-.053V2c0-.092-.067-.17-.159-.193L51.84 1.8z"/>
            <path fill="#4D4F58" d="M45.5 9.1c.497 0 .9.403.9.9 0 .459-.343.837-.787.893l-.113.007h-16c-.497 0-.9-.403-.9-.9 0-.459.343-.837.787-.893L29.5 9.1h16z"/>
            <rect width="17" height="12" x="8" y="9" fill="#93C256" rx="1"/>
            <rect width="38" height="6" x="8" y="24" fill="#C8CFCA" rx="1"/>
            <path fill="#4D4F58" d="M45.5 14.1c.497 0 .9.403.9.9 0 .459-.343.837-.787.893l-.113.007h-16c-.497 0-.9-.403-.9-.9 0-.459.343-.837.787-.893l.113-.007h16zM45.5 19.1c.497 0 .9.403.9.9 0 .459-.343.837-.787.893l-.113.007h-16c-.497 0-.9-.403-.9-.9 0-.459.343-.837.787-.893l.113-.007h16z"/>
        </g>
        <g transform="translate(76 39)">
            <path fill="#475059" d="M51.84 0C53.033 0 54 .895 54 2v33c0 1.105-.967 2-2.16 2H2.16C.967 37 0 36.105 0 35V2C0 .895.967 0 2.16 0h49.68zm0 1.8H2.16c-.1 0-.183.062-.208.147L1.944 2v33c0 .092.067.17.159.193l.057.007h49.68c.1 0 .183-.062.208-.147l.008-.053V2c0-.092-.067-.17-.159-.193L51.84 1.8z"/>
            <rect width="40" height="6" x="7" y="24" fill="#1C9E3B" rx="1"/>
            <path fill="#4D4F58" d="M45.9 19c.497 0 .9.403.9.9 0 .459-.343.837-.787.893l-.113.007h-16c-.497 0-.9-.403-.9-.9 0-.459.343-.837.787-.893L29.9 19h16zm-22 0c.497 0 .9.403.9.9 0 .459-.343.837-.787.893l-.113.007h-16c-.497 0-.9-.403-.9-.9 0-.459.343-.837.787-.893L7.9 19h16zm22-5c.497 0 .9.403.9.9 0 .459-.343.837-.787.893l-.113.007h-16c-.497 0-.9-.403-.9-.9 0-.459.343-.837.787-.893L29.9 14h16zm-22 0c.497 0 .9.403.9.9 0 .459-.343.837-.787.893l-.113.007h-16c-.497 0-.9-.403-.9-.9 0-.459.343-.837.787-.893L7.9 14h16zm22-5c.497 0 .9.403.9.9 0 .459-.343.837-.787.893l-.113.007h-16c-.497 0-.9-.403-.9-.9 0-.459.343-.837.787-.893L29.9 9h16zm-22 0c.497 0 .9.403.9.9 0 .459-.343.837-.787.893l-.113.007h-16c-.497 0-.9-.403-.9-.9 0-.459.343-.837.787-.893L7.9 9h16z"/>
        </g>
        <g transform="translate(85 10)">
            <circle cx="25.5" cy="25.5" r="25.5" fill="#FF7000"/>
            <path fill="#FFF" d="M34.585 18.521c-1.102-1.159-2.632-1.813-4.232-1.809-1.65.002-3.226.68-4.36 1.877l-.493.486-.493-.506c-1.137-1.192-2.713-1.863-4.36-1.857-1.6-.004-3.13.65-4.233 1.81-2.315 2.501-2.282 6.373.075 8.835l8.282 8.593c.19.198.454.31.729.31.275 0 .538-.112.729-.31l8.282-8.593c2.357-2.462 2.39-6.334.074-8.835z"/>
        </g>
        <g transform="translate(23 25)">
            <circle cx="14" cy="14" r="13.35" fill="#FFF" stroke="#EE6723" stroke-width="1.3"/>
            <path fill="#EE6723" d="M14 20.079c-.152-.004-.296-.071-.398-.184l-4.52-4.69c-1.287-1.344-1.305-3.457-.04-4.823.6-.633 1.436-.99 2.31-.987.9 0 1.761.372 2.38 1.028l.268.261.269-.28c.622-.648 1.482-1.012 2.38-1.01.873-.002 1.708.355 2.31.988 1.264 1.366 1.246 3.479-.04 4.823l-4.521 4.69c-.102.113-.246.18-.398.184zM11.351 10.5c-.57-.002-1.117.231-1.51.645-.86.935-.843 2.377.036 3.293L14 18.727l4.123-4.289c.88-.916.896-2.358.036-3.293-.393-.414-.94-.647-1.51-.645-.6.002-1.172.25-1.584.685l-.67.697c-.105.107-.249.169-.399.17-.15-.001-.293-.063-.398-.17l-.663-.697c-.412-.436-.984-.683-1.584-.685z"/>
        </g>
        <path fill="#4D4F58" d="M176.364 52.591c7.203.118 12.217 5.092 12.217 12.193v9.797c0 .784-.636 1.419-1.42 1.419h-7.096v-7.097c0-.784-.636-1.42-1.42-1.42-.784 0-1.42.636-1.42 1.42V76h-19.87v-7.097c0-.784-.635-1.42-1.42-1.42-.784 0-1.419.636-1.419 1.42V76h-7.097c-.784 0-1.419-.635-1.419-1.42v-9.796c0-7.1 5.014-12.076 12.217-12.193 2.473 2.275 5.713 3.538 9.073 3.538 3.36 0 6.6-1.263 9.074-3.538zM167.29 32c5.88 0 10.645 4.765 10.645 10.645s-4.766 10.646-10.645 10.646c-5.88 0-10.646-4.766-10.646-10.646 0-5.88 4.766-10.645 10.646-10.645z"/>
        <path fill="#FF7000" d="M124.91 44l15.922 13.473c.843.714.948 1.976.235 2.819-.38.449-.939.708-1.527.708H111l13.91-17z"/>
    </g>
</svg>
