<svg xmlns="http://www.w3.org/2000/svg" xmlns:xlink="http://www.w3.org/1999/xlink" width="200" height="100" viewBox="0 0 200 100">
    <defs>
        <path id="prefix__a" d="M1.825 12.355c-.065.028-.088.082-.098.12-.007.04-.006.097.046.147l2.407 2.416c.316.317.316.83 0 1.146l-2.716 2.464c-.444.442-.444 1.165-.003 1.609.43.43 1.177.43 1.605 0l2.72-2.464c.313-.316.825-.316 1.138 0l2.409 2.416c.032.03.07.048.114.048.026 0 .113-.007.154-.1l5.552-13.373-13.328 5.571z"/>
    </defs>
    <g fill="none" fill-rule="evenodd">
        <path fill="#FFF" d="M0 0H200V100H0z"/>
        <g>
            <path fill="#4D4F58" d="M93.057 70c.519 0 .943.473.943 1.058v.885c0 .586-.424 1.057-.943 1.057H61.941c-.52 0-.941-.471-.941-1.057v-.885c0-.585.422-1.058.94-1.058h31.117zm0-10c.519 0 .943.473.943 1.058v.885c0 .586-.424 1.057-.943 1.057H61.941c-.52 0-.941-.471-.941-1.057v-.885c0-.585.422-1.058.94-1.058h31.117zm0-10c.519 0 .943.473.943 1.058v.885c0 .586-.424 1.057-.943 1.057H61.941c-.52 0-.941-.471-.941-1.057v-.885c0-.585.422-1.058.94-1.058h31.117zm0-10c.519 0 .943.473.943 1.058v.885c0 .586-.424 1.057-.943 1.057H61.941c-.52 0-.941-.471-.941-1.057v-.885c0-.585.422-1.058.94-1.058h31.117zm0-11c.519 0 .943.473.943 1.058v.885c0 .586-.424 1.057-.943 1.057H61.941c-.52 0-.941-.471-.941-1.057v-.885c0-.585.422-1.058.94-1.058h31.117zm0-10c.519 0 .943.473.943 1.058v.885c0 .586-.424 1.057-.943 1.057H61.941c-.52 0-.941-.471-.941-1.057v-.885c0-.585.422-1.058.94-1.058h31.117zm0-10c.519 0 .943.473.943 1.058v.885c0 .586-.424 1.057-.943 1.057H61.941c-.52 0-.941-.471-.941-1.057v-.885c0-.585.422-1.058.94-1.058h31.117z" transform="translate(24 10)"/>
            <path fill="#4D4F58" d="M1.998 0C.895 0 0 .896 0 1.998v75.927c0 1.103.895 2 1.998 2H144.89c1.106 0 1.998-.897 1.998-2V1.998c0-1.102-.892-1.998-1.998-1.998H1.998zm143.481 1.998v75.927c0 .324-.264.588-.589.588H1.998c-.323 0-.588-.264-.588-.588V1.998c0-.326.265-.59.588-.59H144.89c.325 0 .589.264.589.59z" transform="translate(24 10)"/>
            <path fill="#4D4F58" d="M53.9 11.997H10.053c-.58 0-1.053-.47-1.053-1.056v-.884C9 9.472 9.472 9 10.053 9H53.9c.581 0 1.056.472 1.056 1.057v.884c0 .585-.475 1.056-1.056 1.056" transform="translate(24 10)"/>
            <path fill="#FF7000" d="M100.769 37c-.426 0-.769-1.003-.769-2.25V10.246c0-1.234.343-2.246.769-2.246h36.462c.425 0 .769 1.012.769 2.246V34.75c0 1.247-.344 2.25-.769 2.25h-36.462z" transform="translate(24 10)"/>
            <path fill="#FFF" d="M122.91 30.5c-1.008-.031-1.998-.27-2.91-.7-1.948-.895-3.721-2.131-5.235-3.65-2.835-2.86-5.765-7.97-3.375-10.38l2.025-2c.188-.188.442-.293.707-.293.266 0 .52.105.708.293l2.91 2.915c.379.38.39.991.025 1.385-.693.667-1.08 1.59-1.072 2.552.008.962.412 1.878 1.117 2.533.655.703 1.57 1.106 2.53 1.115.961.008 1.883-.379 2.55-1.07.386-.368.994-.368 1.38 0l3 3c.188.188.293.442.293.708 0 .265-.105.52-.293.707l-2 2.025c-.632.604-1.488.916-2.36.86zm-8.79-15.34l-1.67 1.67c-1.39 1.39.65 5.5 3.4 8.26 1.377 1.387 2.99 2.517 4.765 3.335.965.415 2.7 1 3.555.135l1.67-1.675-2.295-2.295c-2.013 1.686-4.99 1.513-6.795-.395-1.913-1.805-2.088-4.788-.4-6.805l-2.23-2.23z" transform="translate(24 10)"/>
            <g transform="translate(24 10) translate(92 23)">
                <path fill="#FFF" d="M15.234 5.712l-14.207 5.92c-.514.215-.886.668-.995 1.217-.108.547.064 1.109.458 1.504l1.722 1.723-1.399 1.396c-1.003 1.006-1.003 2.645 0 3.65.978.973 2.675.973 3.65 0l1.398-1.398 1.723 1.723c.317.316.735.49 1.178.49.679 0 1.283-.404 1.544-1.027l5.92-14.208c.118-.283.051-.608-.164-.825-.144-.147-.34-.224-.535-.224-.1 0-.198.02-.293.06zM18.798 2.224L17.151 3.87c-.253.253-.253.662 0 .914.127.127.291.19.457.19.165 0 .33-.063.458-.19l1.646-1.648c.253-.251.253-.662 0-.913-.126-.126-.291-.189-.457-.189-.164 0-.33.063-.457.189zM9.117 3.278c-.165.3-.032.668.3.82l2.278 1.04c.098.042.199.062.3.062.245 0 .483-.123.598-.338.166-.3.032-.667-.299-.819l-2.278-1.04c-.097-.044-.198-.065-.298-.065-.247.002-.484.125-.6.34zM17.074 9.342c-.302.166-.426.568-.273.899l1.038 2.278c.107.235.322.37.546.37.094 0 .186-.022.274-.07.301-.165.424-.567.273-.898l-1.038-2.278c-.105-.235-.322-.371-.547-.371-.09 0-.186.023-.273.07zM13.176.012c-.344.07-.569.414-.5.766l.54 2.769c.061.31.327.523.624.523.042 0 .081-.004.125-.013.344-.07.567-.413.497-.766l-.54-2.769C13.861.214 13.6 0 13.301 0c-.04 0-.084.003-.126.012zM17.88 7.973c-.07.344.158.678.51.747l2.768.539c.044.008.085.013.128.013.305 0 .577-.208.638-.51.07-.343-.158-.678-.51-.746l-2.77-.54c-.043-.01-.087-.013-.13-.013-.306 0-.574.209-.634.51z"/>
                <use fill="#4D4F58" xlink:href="#prefix__a"/>
            </g>
            <path fill="#FF7000" d="M100.769 73c-.426 0-.769-1.003-.769-2.25V46.246c0-1.234.343-2.246.769-2.246h36.462c.425 0 .769 1.012.769 2.246V70.75c0 1.247-.344 2.25-.769 2.25h-36.462z" transform="translate(24 10)"/>
            <path fill="#FFF" d="M126.875 52h-15.75c-.621 0-1.125.504-1.125 1.125v11.75c0 .621.504 1.125 1.125 1.125h15.75c.298 0 .585-.119.795-.33.211-.21.33-.497.33-.795v-11.75c0-.298-.119-.585-.33-.795-.21-.211-.497-.33-.795-.33zm-.375 1.5v1.435L119 60.1l-7.5-5.165V53.5h15zm-15 11v-7.745l7 4.805c.15.092.323.142.5.145.2-.001.397-.06.565-.17l6.935-4.78V64.5h-15z" transform="translate(24 10)"/>
            <path fill="#4D4F58" d="M53.9 21.997H10.053c-.58 0-1.053-.47-1.053-1.056v-.884C9 19.472 9.472 19 10.053 19H53.9c.581 0 1.056.472 1.056 1.057v.884c0 .585-.475 1.056-1.056 1.056" transform="translate(24 10)"/>
            <path fill="#93C256" d="M54.026 73H9.93c-.515 0-.93-.553-.93-1.241v-41.52c0-.68.415-1.239.93-1.239h44.096c.514 0 .93.558.93 1.24v41.519c0 .688-.416 1.241-.93 1.241" transform="translate(24 10)"/>
            <path fill="#FFF" d="M38.012 51.572c4.748.077 8.053 3.356 8.053 8.035v6.458c0 .516-.42.935-.936.935h-4.677v-4.677c0-.517-.419-.936-.936-.936-.517 0-.935.419-.935.936V67H25.484v-4.677c0-.517-.419-.936-.936-.936-.516 0-.935.419-.935.936V67h-4.678c-.516 0-.935-.419-.935-.935v-6.458c0-4.68 3.304-7.958 8.052-8.035 1.63 1.499 3.765 2.331 5.98 2.331 2.215 0 4.35-.832 5.98-2.331zM32.032 38c3.875 0 7.016 3.14 7.016 7.016s-3.14 7.017-7.016 7.017-7.017-3.141-7.017-7.017c0-3.875 3.141-7.016 7.017-7.016z" transform="translate(24 10)"/>
        </g>
    </g>
</svg>
