<svg xmlns="http://www.w3.org/2000/svg" width="200" height="100" viewBox="0 0 200 100">
    <g fill="none" fill-rule="evenodd">
        <path fill="#FFF" d="M0 0H200V100H0z"/>
        <g>
            <path fill="#4D4F58" d="M51.84 0C53.033 0 54 .895 54 2v33c0 1.105-.967 2-2.16 2H2.16C.967 37 0 36.105 0 35V2C0 .895.967 0 2.16 0h49.68zm0 1.8H2.16c-.1 0-.183.062-.208.147L1.944 2v33c0 .092.067.17.159.193l.057.007h49.68c.1 0 .183-.062.208-.147l.008-.053V2c0-.092-.067-.17-.159-.193L51.84 1.8z" transform="translate(10 10)"/>
            <path fill="#4D4F58" d="M45.5 9.1c.497 0 .9.403.9.9 0 .459-.343.837-.787.893l-.113.007h-16c-.497 0-.9-.403-.9-.9 0-.459.343-.837.787-.893L29.5 9.1h16z" transform="translate(10 10)"/>
            <path fill="#93C256" fill-rule="nonzero" d="M20.661 13.552c2.292.037 3.887 1.62 3.887 3.88v3.116c0 .25-.202.452-.451.452h-2.258v-2.258c0-.25-.202-.452-.452-.452s-.452.202-.452.452V21h-6.322v-2.258c0-.25-.202-.452-.452-.452s-.451.202-.451.452V21h-2.258c-.25 0-.452-.202-.452-.452v-3.117c0-2.259 1.595-3.842 3.887-3.88.787.724 1.818 1.126 2.887 1.126 1.07 0 2.1-.402 2.887-1.125zM17.774 7c1.87 0 3.387 1.516 3.387 3.387s-1.516 3.387-3.387 3.387c-1.87 0-3.387-1.516-3.387-3.387 0-1.87 1.516-3.387 3.387-3.387z" transform="translate(10 10)"/>
            <path fill="#4D4F58" d="M45.5 14.1c.497 0 .9.403.9.9 0 .459-.343.837-.787.893l-.113.007h-16c-.497 0-.9-.403-.9-.9 0-.459.343-.837.787-.893l.113-.007h16zM45.5 19.1c.497 0 .9.403.9.9 0 .459-.343.837-.787.893l-.113.007h-16c-.497 0-.9-.403-.9-.9 0-.459.343-.837.787-.893l.113-.007h16zM45.5 24c.497 0 .9.403.9.9 0 .459-.343.837-.787.893l-.113.007h-37c-.497 0-.9-.403-.9-.9 0-.459.343-.837.787-.893L8.5 24h37zM45.5 29c.497 0 .9.403.9.9 0 .459-.343.837-.787.893l-.113.007h-37c-.497 0-.9-.403-.9-.9 0-.459.343-.837.787-.893L8.5 29h37z" transform="translate(10 10)"/>
        </g>
        <g>
            <path fill="#4D4F58" d="M51.84 0C53.033 0 54 .895 54 2v33c0 1.105-.967 2-2.16 2H2.16C.967 37 0 36.105 0 35V2C0 .895.967 0 2.16 0h49.68zm0 1.8H2.16c-.1 0-.183.062-.208.147L1.944 2v33c0 .092.067.17.159.193l.057.007h49.68c.1 0 .183-.062.208-.147l.008-.053V2c0-.092-.067-.17-.159-.193L51.84 1.8z" transform="translate(73 10)"/>
            <path fill="#4D4F58" d="M45.5 9.1c.497 0 .9.403.9.9 0 .459-.343.837-.787.893l-.113.007h-16c-.497 0-.9-.403-.9-.9 0-.459.343-.837.787-.893L29.5 9.1h16z" transform="translate(73 10)"/>
            <path fill="#97A099" d="M20.661 13.552c2.292.037 3.887 1.62 3.887 3.88v3.116c0 .25-.202.452-.451.452h-2.258v-2.258c0-.25-.202-.452-.452-.452s-.452.202-.452.452V21h-6.322v-2.258c0-.25-.202-.452-.452-.452s-.451.202-.451.452V21h-2.258c-.25 0-.452-.202-.452-.452v-3.117c0-2.259 1.595-3.842 3.887-3.88.787.724 1.818 1.126 2.887 1.126 1.07 0 2.1-.402 2.887-1.125zM17.774 7c1.87 0 3.387 1.516 3.387 3.387s-1.516 3.387-3.387 3.387c-1.87 0-3.387-1.516-3.387-3.387 0-1.87 1.516-3.387 3.387-3.387z" transform="translate(73 10)"/>
            <path fill="#4D4F58" d="M45.5 14.1c.497 0 .9.403.9.9 0 .459-.343.837-.787.893l-.113.007h-16c-.497 0-.9-.403-.9-.9 0-.459.343-.837.787-.893l.113-.007h16zM45.5 19.1c.497 0 .9.403.9.9 0 .459-.343.837-.787.893l-.113.007h-16c-.497 0-.9-.403-.9-.9 0-.459.343-.837.787-.893l.113-.007h16zM45.5 24c.497 0 .9.403.9.9 0 .459-.343.837-.787.893l-.113.007h-37c-.497 0-.9-.403-.9-.9 0-.459.343-.837.787-.893L8.5 24h37zM45.5 29c.497 0 .9.403.9.9 0 .459-.343.837-.787.893l-.113.007h-37c-.497 0-.9-.403-.9-.9 0-.459.343-.837.787-.893L8.5 29h37z" transform="translate(73 10)"/>
        </g>
        <g>
            <path fill="#4D4F58" d="M51.84 0C53.033 0 54 .895 54 2v33c0 1.105-.967 2-2.16 2H2.16C.967 37 0 36.105 0 35V2C0 .895.967 0 2.16 0h49.68zm0 1.8H2.16c-.1 0-.183.062-.208.147L1.944 2v33c0 .092.067.17.159.193l.057.007h49.68c.1 0 .183-.062.208-.147l.008-.053V2c0-.092-.067-.17-.159-.193L51.84 1.8z" transform="translate(136 10)"/>
            <path fill="#4D4F58" d="M45.5 9.1c.497 0 .9.403.9.9 0 .459-.343.837-.787.893l-.113.007h-16c-.497 0-.9-.403-.9-.9 0-.459.343-.837.787-.893L29.5 9.1h16z" transform="translate(136 10)"/>
            <path fill="#FF7000" d="M20.661 13.552c2.292.037 3.887 1.62 3.887 3.88v3.116c0 .25-.202.452-.451.452h-2.258v-2.258c0-.25-.202-.452-.452-.452s-.452.202-.452.452V21h-6.322v-2.258c0-.25-.202-.452-.452-.452s-.451.202-.451.452V21h-2.258c-.25 0-.452-.202-.452-.452v-3.117c0-2.259 1.595-3.842 3.887-3.88.787.724 1.818 1.126 2.887 1.126 1.07 0 2.1-.402 2.887-1.125zM17.774 7c1.87 0 3.387 1.516 3.387 3.387s-1.516 3.387-3.387 3.387c-1.87 0-3.387-1.516-3.387-3.387 0-1.87 1.516-3.387 3.387-3.387z" transform="translate(136 10)"/>
            <path fill="#4D4F58" d="M45.5 14.1c.497 0 .9.403.9.9 0 .459-.343.837-.787.893l-.113.007h-16c-.497 0-.9-.403-.9-.9 0-.459.343-.837.787-.893l.113-.007h16zM45.5 19.1c.497 0 .9.403.9.9 0 .459-.343.837-.787.893l-.113.007h-16c-.497 0-.9-.403-.9-.9 0-.459.343-.837.787-.893l.113-.007h16zM45.5 24c.497 0 .9.403.9.9 0 .459-.343.837-.787.893l-.113.007h-37c-.497 0-.9-.403-.9-.9 0-.459.343-.837.787-.893L8.5 24h37zM45.5 29c.497 0 .9.403.9.9 0 .459-.343.837-.787.893l-.113.007h-37c-.497 0-.9-.403-.9-.9 0-.459.343-.837.787-.893L8.5 29h37z" transform="translate(136 10)"/>
        </g>
        <g>
            <path fill="#4D4F58" d="M51.84 0C53.033 0 54 .895 54 2v33c0 1.105-.967 2-2.16 2H2.16C.967 37 0 36.105 0 35V2C0 .895.967 0 2.16 0h49.68zm0 1.8H2.16c-.1 0-.183.062-.208.147L1.944 2v33c0 .092.067.17.159.193l.057.007h49.68c.1 0 .183-.062.208-.147l.008-.053V2c0-.092-.067-.17-.159-.193L51.84 1.8z" transform="translate(10 53)"/>
            <path fill="#4D4F58" d="M45.5 9.1c.497 0 .9.403.9.9 0 .459-.343.837-.787.893l-.113.007h-16c-.497 0-.9-.403-.9-.9 0-.459.343-.837.787-.893L29.5 9.1h16z" transform="translate(10 53)"/>
            <path fill="#1C9E3B" d="M20.661 13.552c2.292.037 3.887 1.62 3.887 3.88v3.116c0 .25-.202.452-.451.452h-2.258v-2.258c0-.25-.202-.452-.452-.452s-.452.202-.452.452V21h-6.322v-2.258c0-.25-.202-.452-.452-.452s-.451.202-.451.452V21h-2.258c-.25 0-.452-.202-.452-.452v-3.117c0-2.259 1.595-3.842 3.887-3.88.787.724 1.818 1.126 2.887 1.126 1.07 0 2.1-.402 2.887-1.125zM17.774 7c1.87 0 3.387 1.516 3.387 3.387s-1.516 3.387-3.387 3.387c-1.87 0-3.387-1.516-3.387-3.387 0-1.87 1.516-3.387 3.387-3.387z" transform="translate(10 53)"/>
            <path fill="#4D4F58" d="M45.5 14.1c.497 0 .9.403.9.9 0 .459-.343.837-.787.893l-.113.007h-16c-.497 0-.9-.403-.9-.9 0-.459.343-.837.787-.893l.113-.007h16zM45.5 19.1c.497 0 .9.403.9.9 0 .459-.343.837-.787.893l-.113.007h-16c-.497 0-.9-.403-.9-.9 0-.459.343-.837.787-.893l.113-.007h16zM45.5 24c.497 0 .9.403.9.9 0 .459-.343.837-.787.893l-.113.007h-37c-.497 0-.9-.403-.9-.9 0-.459.343-.837.787-.893L8.5 24h37zM45.5 29c.497 0 .9.403.9.9 0 .459-.343.837-.787.893l-.113.007h-37c-.497 0-.9-.403-.9-.9 0-.459.343-.837.787-.893L8.5 29h37z" transform="translate(10 53)"/>
        </g>
        <g>
            <path fill="#4D4F58" d="M51.84 0C53.033 0 54 .895 54 2v33c0 1.105-.967 2-2.16 2H2.16C.967 37 0 36.105 0 35V2C0 .895.967 0 2.16 0h49.68zm0 1.8H2.16c-.1 0-.183.062-.208.147L1.944 2v33c0 .092.067.17.159.193l.057.007h49.68c.1 0 .183-.062.208-.147l.008-.053V2c0-.092-.067-.17-.159-.193L51.84 1.8z" transform="translate(73 53)"/>
            <path fill="#4D4F58" d="M45.5 9.1c.497 0 .9.403.9.9 0 .459-.343.837-.787.893l-.113.007h-16c-.497 0-.9-.403-.9-.9 0-.459.343-.837.787-.893L29.5 9.1h16z" transform="translate(73 53)"/>
            <path fill="#FF7000" d="M20.661 13.552c2.292.037 3.887 1.62 3.887 3.88v3.116c0 .25-.202.452-.451.452h-2.258v-2.258c0-.25-.202-.452-.452-.452s-.452.202-.452.452V21h-6.322v-2.258c0-.25-.202-.452-.452-.452s-.451.202-.451.452V21h-2.258c-.25 0-.452-.202-.452-.452v-3.117c0-2.259 1.595-3.842 3.887-3.88.787.724 1.818 1.126 2.887 1.126 1.07 0 2.1-.402 2.887-1.125zM17.774 7c1.87 0 3.387 1.516 3.387 3.387s-1.516 3.387-3.387 3.387c-1.87 0-3.387-1.516-3.387-3.387 0-1.87 1.516-3.387 3.387-3.387z" transform="translate(73 53)"/>
            <path fill="#4D4F58" d="M45.5 14.1c.497 0 .9.403.9.9 0 .459-.343.837-.787.893l-.113.007h-16c-.497 0-.9-.403-.9-.9 0-.459.343-.837.787-.893l.113-.007h16zM45.5 19.1c.497 0 .9.403.9.9 0 .459-.343.837-.787.893l-.113.007h-16c-.497 0-.9-.403-.9-.9 0-.459.343-.837.787-.893l.113-.007h16zM45.5 24c.497 0 .9.403.9.9 0 .459-.343.837-.787.893l-.113.007h-37c-.497 0-.9-.403-.9-.9 0-.459.343-.837.787-.893L8.5 24h37zM45.5 29c.497 0 .9.403.9.9 0 .459-.343.837-.787.893l-.113.007h-37c-.497 0-.9-.403-.9-.9 0-.459.343-.837.787-.893L8.5 29h37z" transform="translate(73 53)"/>
        </g>
        <g>
            <path fill="#4D4F58" d="M51.84 0C53.033 0 54 .895 54 2v33c0 1.105-.967 2-2.16 2H2.16C.967 37 0 36.105 0 35V2C0 .895.967 0 2.16 0h49.68zm0 1.8H2.16c-.1 0-.183.062-.208.147L1.944 2v33c0 .092.067.17.159.193l.057.007h49.68c.1 0 .183-.062.208-.147l.008-.053V2c0-.092-.067-.17-.159-.193L51.84 1.8z" transform="translate(136 53)"/>
            <path fill="#4D4F58" d="M45.5 9.1c.497 0 .9.403.9.9 0 .459-.343.837-.787.893l-.113.007h-16c-.497 0-.9-.403-.9-.9 0-.459.343-.837.787-.893L29.5 9.1h16z" transform="translate(136 53)"/>
            <path fill="#93C256" fill-rule="nonzero" d="M20.661 13.552c2.292.037 3.887 1.62 3.887 3.88v3.116c0 .25-.202.452-.451.452h-2.258v-2.258c0-.25-.202-.452-.452-.452s-.452.202-.452.452V21h-6.322v-2.258c0-.25-.202-.452-.452-.452s-.451.202-.451.452V21h-2.258c-.25 0-.452-.202-.452-.452v-3.117c0-2.259 1.595-3.842 3.887-3.88.787.724 1.818 1.126 2.887 1.126 1.07 0 2.1-.402 2.887-1.125zM17.774 7c1.87 0 3.387 1.516 3.387 3.387s-1.516 3.387-3.387 3.387c-1.87 0-3.387-1.516-3.387-3.387 0-1.87 1.516-3.387 3.387-3.387z" transform="translate(136 53)"/>
            <path fill="#4D4F58" d="M45.5 14.1c.497 0 .9.403.9.9 0 .459-.343.837-.787.893l-.113.007h-16c-.497 0-.9-.403-.9-.9 0-.459.343-.837.787-.893l.113-.007h16zM45.5 19.1c.497 0 .9.403.9.9 0 .459-.343.837-.787.893l-.113.007h-16c-.497 0-.9-.403-.9-.9 0-.459.343-.837.787-.893l.113-.007h16zM45.5 24c.497 0 .9.403.9.9 0 .459-.343.837-.787.893l-.113.007h-37c-.497 0-.9-.403-.9-.9 0-.459.343-.837.787-.893L8.5 24h37zM45.5 29c.497 0 .9.403.9.9 0 .459-.343.837-.787.893l-.113.007h-37c-.497 0-.9-.403-.9-.9 0-.459.343-.837.787-.893L8.5 29h37z" transform="translate(136 53)"/>
        </g>
    </g>
</svg>
