<svg xmlns="http://www.w3.org/2000/svg" width="272" height="144" viewBox="0 0 272 144">
    <g fill="none" fill-rule="evenodd">
        <path d="M29 0L205 0 205 121 29 121z" transform="translate(8 8)"/>
        <path fill="#4F5A52" d="M3.034 0C1.359 0 0 1.356 0 3.024v114.95C0 119.644 1.359 121 3.034 121h198.932c1.68 0 3.034-1.356 3.034-3.026V3.024C205 1.356 203.645 0 201.966 0H3.034zM202.86 3.024v114.95c0 .49-.4.89-.894.89H3.034c-.49 0-.892-.4-.892-.89V3.024c0-.492.402-.891.892-.891h198.932c.494 0 .894.399.894.891z" transform="translate(8 8)"/>
        <path fill="#4F5A52" d="M18.604 18C17.72 18 17 17.214 17 16.239v-1.475c0-.976.72-1.764 1.604-1.764h91.788c.885 0 1.608.788 1.608 1.764v1.475c0 .975-.723 1.761-1.608 1.761H18.604zM189.583 29h-67.166c-.786 0-1.417-.622-1.417-1.396V12.396c0-.768.631-1.396 1.417-1.396h67.166c.784 0 1.417.628 1.417 1.396v15.208c0 .774-.633 1.396-1.417 1.396" transform="translate(8 8)"/>
        <path fill="#A8D869" d="M189.583 53h-67.166c-.786 0-1.417-.622-1.417-1.396v-15.21c0-.766.631-1.394 1.417-1.394h67.166c.784 0 1.417.628 1.417 1.394v15.21c0 .774-.633 1.396-1.417 1.396" transform="translate(8 8)"/>
        <path fill="#4F5A52" d="M189.594 110H44.406c-.773 0-1.406-.622-1.406-1.396V93.396c0-.768.633-1.396 1.406-1.396h145.188c.777 0 1.406.628 1.406 1.396v15.208c0 .774-.629 1.396-1.406 1.396" transform="translate(8 8)"/>
        <path fill="#DFE4E1" d="M151.583 85H122.42c-.787 0-1.419-.622-1.419-1.396V62.396c0-.77.632-1.396 1.419-1.396h29.164c.785 0 1.417.626 1.417 1.396v21.208c0 .774-.632 1.396-1.417 1.396" transform="translate(8 8)"/>
        <path fill="#1C9E3B" d="M189.581 85H160.42c-.787 0-1.419-.622-1.419-1.396V62.396c0-.77.632-1.396 1.419-1.396h29.162c.785 0 1.419.626 1.419 1.396v21.208c0 .774-.634 1.396-1.419 1.396" transform="translate(8 8)"/>
        <path fill="#4F5A52" d="M18.604 27C17.72 27 17 26.214 17 25.239v-1.475c0-.976.72-1.764 1.604-1.764h91.788c.885 0 1.608.788 1.608 1.764v1.475c0 .975-.723 1.761-1.608 1.761H18.604zM17.417 85C16.63 85 16 84.371 16 83.59V36.408c0-.773.631-1.408 1.417-1.408h93.166c.784 0 1.417.635 1.417 1.408V83.59c0 .781-.633 1.41-1.417 1.41H17.417z" transform="translate(8 8)"/>
        <path fill="#FEFEFE" d="M62.253 49.156L62.25 76.54c0 .252-.204.46-.452.46H53.6c-.25 0-.452-.208-.452-.46v-5.917c0-.254-.205-.454-.454-.454h-3.139c-.25 0-.454.2-.454.454v5.917c0 .252-.202.46-.452.46h-8.198c-.25 0-.452-.208-.452-.46V49.154c0-.252.202-.456.452-.456h21.347c.25 0 .454.204.454.458M89 41.456l-.002 35.084c0 .252-.204.46-.454.46h-8.196c-.252 0-.454-.208-.454-.46v-5.933c0-.252-.202-.456-.452-.456h-3.14c-.25 0-.453.204-.453.456v5.933c0 .252-.202.46-.454.46H67.2c-.25 0-.452-.208-.452-.46V41.456c0-.252.203-.456.452-.456h21.347c.25 0 .454.204.454.456M46.628 64.052h-3.139c-.25 0-.452.206-.452.46v3.16c0 .255.203.454.452.454h3.139c.252 0 .454-.2.454-.453v-3.16c0-.255-.202-.46-.454-.46m6.069 0h-3.139c-.25 0-.454.205-.454.46v3.16c0 .254.204.453.454.453h3.139c.25 0 .454-.2.454-.453v-3.16c0-.255-.205-.46-.454-.46m6.068 0h-3.138c-.25 0-.454.205-.454.46v3.16c0 .254.204.453.454.453h3.138c.25 0 .454-.2.454-.453v-3.16c0-.255-.204-.46-.454-.46m14.61-.03h-3.14c-.25 0-.452.203-.452.455v3.173c0 .252.202.455.452.455h3.14c.25 0 .452-.203.452-.455v-3.173c0-.252-.202-.456-.452-.456m6.069 0h-3.14c-.25 0-.453.204-.453.456v3.173c0 .252.203.455.452.455h3.14c.25 0 .453-.203.453-.455v-3.173c0-.252-.202-.456-.452-.456m6.067 0h-3.139c-.25 0-.452.204-.452.456v3.173c0 .252.202.455.452.455h3.139c.251 0 .454-.203.454-.455v-3.173c0-.252-.203-.456-.454-.456m-38.883-6.08h-3.139c-.25 0-.452.2-.452.453v3.16c0 .255.203.46.452.46h3.139c.252 0 .454-.205.454-.46v-3.16c0-.254-.202-.453-.454-.453m6.069 0h-3.139c-.25 0-.454.2-.454.453v3.16c0 .255.204.46.454.46h3.139c.25 0 .454-.205.454-.46v-3.16c0-.254-.205-.453-.454-.453m6.068 0h-3.138c-.25 0-.454.2-.454.453v3.16c0 .255.204.46.454.46h3.138c.25 0 .454-.205.454-.46v-3.16c0-.254-.204-.453-.454-.453m14.61-.05h-3.14c-.25 0-.452.207-.452.46v3.172c0 .25.202.454.452.454h3.14c.25 0 .452-.204.452-.454V58.35c0-.252-.202-.46-.452-.46m6.069 0h-3.14c-.25 0-.453.208-.453.46v3.173c0 .25.203.454.452.454h3.14c.25 0 .453-.204.453-.454V58.35c0-.252-.202-.46-.452-.46m6.067 0h-3.139c-.25 0-.452.208-.452.46v3.173c0 .25.202.454.452.454h3.139c.251 0 .454-.204.454-.454V58.35c0-.252-.203-.46-.454-.46m-38.883-6.066h-3.139c-.25 0-.452.203-.452.455v3.165c0 .25.203.454.452.454h3.139c.252 0 .454-.204.454-.454V52.28c0-.252-.202-.455-.454-.455m6.069 0h-3.139c-.25 0-.454.203-.454.455v3.165c0 .25.204.454.454.454h3.139c.25 0 .454-.204.454-.454V52.28c0-.252-.205-.455-.454-.455m6.068 0h-3.138c-.25 0-.454.203-.454.455v3.165c0 .25.204.454.454.454h3.138c.25 0 .454-.204.454-.454V52.28c0-.252-.204-.455-.454-.455m14.61-.06h-3.14c-.25 0-.452.202-.452.453v3.173c0 .252.202.46.452.46h3.14c.25 0 .452-.208.452-.46v-3.173c0-.251-.202-.453-.452-.453m6.069 0h-3.14c-.25 0-.453.202-.453.453v3.173c0 .252.203.46.452.46h3.14c.25 0 .453-.208.453-.46v-3.173c0-.251-.202-.453-.452-.453m6.067 0h-3.139c-.25 0-.452.202-.452.453v3.173c0 .252.202.46.452.46h3.139c.251 0 .454-.208.454-.46v-3.173c0-.251-.203-.453-.454-.453m-12.136-5.993h-3.14c-.25 0-.452.202-.452.453v3.173c0 .252.202.46.452.46h3.14c.25 0 .452-.208.452-.46v-3.173c0-.251-.202-.453-.452-.453m6.069 0h-3.14c-.25 0-.453.202-.453.453v3.173c0 .252.203.46.452.46h3.14c.25 0 .453-.208.453-.46v-3.173c0-.251-.202-.453-.452-.453m6.067 0h-3.139c-.25 0-.452.202-.452.453v3.173c0 .252.202.46.452.46h3.139c.251 0 .454-.208.454-.46v-3.173c0-.251-.203-.453-.454-.453" transform="translate(8 8)"/>
        <path fill="#FF7000" d="M253.348 106.535c.174.306.266.65.266 1.028 0 .219-.036.454-.098.69-.242.905-.947 1.761-1.875 2.298-1.658.958-3.589.708-4.31-.553-.278-.495-.336-1.102-.166-1.727.245-.914.929-1.752 1.872-2.293 1.661-.958 3.596-.706 4.311.557m-1.707 13.914c.928.539 1.631 1.395 1.875 2.3.062.236.096.467.096.69 0 .376-.09.722-.264 1.026-.715 1.263-2.652 1.515-4.31.56-.946-.544-1.628-1.382-1.875-2.294-.168-.627-.112-1.232.166-1.727.723-1.261 2.654-1.51 4.312-.555m-3.795-16.56c-1.485.856-2.574 2.226-2.99 3.756-.283 1.036-.227 2.096.14 3.01l-4.68 2.698c-4.369-2.397-10.832-5.941-11.61-6.392-1.9-1.094-4.015.704-4.102.783l-.604.519 12.579 7.236-12.577 7.24.602.517c.087.08 2.202 1.877 4.104.78.778-.446 7.239-3.994 11.608-6.389l4.682 2.695c-.367.92-.425 1.977-.14 3.015.414 1.528 1.505 2.9 2.99 3.755 2.802 1.615 6.203.965 7.572-1.446.384-.674.58-1.42.58-2.223 0-.438-.03-.893-.18-1.327-.873-2.586-2.976-3.91-5.13-4.547-.096-.025-5.232-1.302-6.353-2.016 0 0-.038-.018-.102-.054l.102-.052c1.12-.716 6.257-1.991 6.353-2.016 2.154-.637 4.259-1.963 5.13-4.549.15-.432.18-.887.18-1.327 0-.8-.196-1.547-.58-2.22-1.37-2.412-4.77-3.062-7.574-1.447" transform="translate(8 8)"/>
        <path fill="#FBE2D8" d="M17 115L197 115 197 86 17 86z" transform="translate(8 8)"/>
        <path fill="#FF7000" fill-rule="nonzero" d="M197 86v29H17V86h180zm-2 2H19v25h176V88z" transform="translate(8 8)"/>
        <path fill="#FF7000" fill-rule="nonzero" d="M244 90h-2v-3h2v3zm0 4h-2v-3h2v3zm0 4h-2v-3h2v3zm0 4h-2v-3h2v3zm0 5h-2v-3h2v3zm0 4h-2v-3h2v3zm-2 4v-2h1l-1 1v-2h2v3h-2zm-5 0v-2h3v2h-3zm-5 0v-2h3v2h-3zm-5 0v-2h3v2h-3zm-5 0v-2h3v2h-3zm-5 0v-2h3v2h-3zm-5 0v-2h3v2h-3zm-5 0v-2h3v2h-3zm-5 0v-2h3v2h-3zm-5 0v-2h3v2h-3zm-5 0v-2h3v2h-3zm-5 0v-2h3v2h-3zm-5 0v-2h3v2h-3zm-5 0v-2h3v2h-3zm-5 0v-2h3v2h-3zm-5 0v-2h3v2h-3zm-5 0v-2h3v2h-3zm-5 0v-2h3v2h-3zm-5 0v-2h3v2h-3zm-5 0v-2h3v2h-3zm-5 0v-2h3v2h-3zm-5 0v-2h3v2h-3zm-5 0v-2h3v2h-3zm-6 0v-2h3v2h-3zm-5 0v-2h3v2h-3zm-5 0v-2h3v2h-3zm-5 0v-2h3v2h-3zm-5 0v-2h3v2h-3zm-5 0v-2h3v2h-3zm-5 0v-2h3v2h-3zm-5 0v-2h3v2h-3zm-5 0v-2h3v2h-3zm-5 0v-2h3v2h-3zm-5 0v-2h3v2h-3zm-5 0v-2h3v2h-3zm-5 0v-2h3v2h-3zm-5 0v-2h3v2h-3zm-5 0v-2h3v2h-3zm-5 0v-2h3v2h-3zm-5 0v-2h3v2h-3zm-5 0v-2h3v2h-3zm-5 0v-2h3v2h-3zm-5 0v-2h3v2h-3zm-5 0v-2h3v2h-3zm-5 0v-2h3v2h-3zm-4-3h2v2l-1-1h1v2h-2v-3zm0-4h2v3h-2v-3zm0-4h2v3h-2v-3zm0-5h2v3h-2v-3zm0-4h2v3h-2v-3zm0-4h2v3h-2v-3zm2-5v2h-1l1-1v3h-2v-4h2zm4 0v2h-3v-2h3zm5 0v2h-3v-2h3zm5 0v2h-3v-2h3zm5 0v2h-3v-2h3zm5 0v2h-3v-2h3zm5 0v2h-3v-2h3zm5 0v2h-3v-2h3zm5 0v2h-3v-2h3zm5 0v2h-3v-2h3zm5 0v2h-3v-2h3zm5 0v2h-3v-2h3zm5 0v2h-3v-2h3zm5 0v2h-3v-2h3zm5 0v2h-3v-2h3zm5 0v2h-3v-2h3zm5 0v2h-3v-2h3zm5 0v2h-3v-2h3zm5 0v2h-3v-2h3zm5 0v2h-3v-2h3zm5 0v2h-3v-2h3zm5 0v2h-3v-2h3zm5 0v2h-3v-2h3zm6 0v2h-3v-2h3zm5 0v2h-3v-2h3zm5 0v2h-3v-2h3zm5 0v2h-3v-2h3zm5 0v2h-3v-2h3zm5 0v2h-3v-2h3zm5 0v2h-3v-2h3zm5 0v2h-3v-2h3zm5 0v2h-3v-2h3zm5 0v2h-3v-2h3zm5 0v2h-3v-2h3zm5 0v2h-3v-2h3zm5 0v2h-3v-2h3zm5 0v2h-3v-2h3zm5 0v2h-3v-2h3zm5 0v2h-3v-2h3zm5 0v2h-3v-2h3zm5 0v2h-3v-2h3zm5 0v2h-3v-2h3zm5 0v2h-3v-2h3zm5 0v2h-3v-2h3zm5 0v2h-3v-2h3zm4 0v2h-2v-2h2z" transform="translate(8 8)"/>
        <path fill="#FFF" d="M14 90L21 90 21 83 14 83zM14 119L21 119 21 112 14 112zM14 104L21 104 21 97 14 97zM193 90L200 90 200 83 193 83zM193 119L200 119 200 112 193 112zM193 104L200 104 200 97 193 97zM136 90L143 90 143 83 136 83zM136 119L143 119 143 112 136 112z" transform="translate(8 8)"/>
        <path fill="#FF7000" fill-rule="nonzero" d="M22 82h-9v9h9v-9zm-1.8 1.8v5.4h-5.4v-5.4h5.4zM22 111h-9v9h9v-9zm-1.8 1.8v5.4h-5.4v-5.4h5.4zM22 96h-9v9h9v-9zm-1.8 1.8v5.4h-5.4v-5.4h5.4zM201 82h-9v9h9v-9zm-1.8 1.8v5.4h-5.4v-5.4h5.4zM201 111h-9v9h9v-9zm-1.8 1.8v5.4h-5.4v-5.4h5.4zM201 96h-9v9h9v-9zm-1.8 1.8v5.4h-5.4v-5.4h5.4zM144 82h-9v9h9v-9zm-1.8 1.8v5.4h-5.4v-5.4h5.4zM144 111h-9v9h9v-9zm-1.8 1.8v5.4h-5.4v-5.4h5.4z" transform="translate(8 8)"/>
    </g>
</svg>
