<svg xmlns="http://www.w3.org/2000/svg" xmlns:xlink="http://www.w3.org/1999/xlink" width="307" height="181" viewBox="0 0 307 181">
    <defs>
        <path id="prefix__a" d="M0 0H307V180.58H0z"/>
        <path id="prefix__c" d="M0 0.364L171.818 0.364 171.818 118.863 0 118.863z"/>
        <path id="prefix__e" d="M0.776 0.528L149.72 0.528 149.72 37.221 0.776 37.221z"/>
        <path id="prefix__g" d="M150.55 18.294l1.175 1.157-21.531 20.333-1.175-1.158 21.531-20.332zM150.529.857l1.196 1.137-38.83 37.387-1.196-1.14L150.529.857zm-17.32 0l1.195 1.137-38.828 37.387-1.196-1.14L133.208.857zm-16.164 0l1.198 1.137L79.41 39.381l-1.192-1.14L117.045.857zm-16.165 0l1.196 1.137-38.828 37.387-1.196-1.14L100.88.857zm-16.548 0l1.198 1.137-38.832 37.387-1.198-1.14L84.332.857zm-16.164 0l1.195 1.137-38.828 37.387-1.2-1.14L68.168.857zm-16.935 0l1.198 1.137-38.834 37.387-1.196-1.14L51.233.857zM35.445.45l1.204 1.138L4.37 32.485l-1.205-1.138L35.445.45zM20.828.046l1.196 1.143L2.051 20.32.857 19.178 20.828.046z"/>
    </defs>
    <g fill="none" fill-rule="evenodd">
        <mask id="prefix__b" fill="#fff">
            <use xlink:href="#prefix__a"/>
        </mask>
        <path stroke="#DFE4E1" d="M0.5 0.5H306.5V180.08H0.5z"/>
        <g mask="url(#prefix__b)">
            <g>
                <path fill="#FEFEFE" d="M251.645 0v154.358V0z" transform="translate(51.468 12.641)"/>
                <g transform="translate(51.468 12.641) translate(0 20.168)">
                    <mask id="prefix__d" fill="#fff">
                        <use xlink:href="#prefix__c"/>
                    </mask>
                    <path fill="#4D4F58" d="M168.856.364H2.961C1.325.364-.001 1.693-.001 3.326V115.9c0 1.636 1.326 2.964 2.962 2.964h165.895c1.64 0 2.962-1.328 2.962-2.964V3.326c0-1.633-1.323-2.962-2.962-2.962m0 2.09c.482 0 .873.39.873.872V115.9c0 .48-.39.871-.873.871H2.961c-.478 0-.871-.39-.871-.871V3.326c0-.482.393-.873.871-.873h165.895" mask="url(#prefix__d)"/>
                    <path fill="#4D4F58" d="M79.903 18.14h-65.01c-.86 0-1.56-.7-1.56-1.566v-1.311c0-.868.7-1.568 1.56-1.568h65.01c.861 0 1.565.7 1.565 1.568v1.31c0 .868-.704 1.566-1.565 1.566M157.111 28.507H91.733c-.764 0-1.379-.615-1.379-1.379V12.11c0-.758.615-1.378 1.38-1.378h65.377c.763 0 1.38.62 1.38 1.378v15.018c0 .764-.617 1.379-1.38 1.379"/>
                    <path fill="#93C256" d="M157.111 52.207H91.733c-.764 0-1.379-.614-1.379-1.379v-15.02c0-.756.615-1.376 1.38-1.376h65.377c.763 0 1.38.62 1.38 1.377v15.02c0 .764-.617 1.378-1.38 1.378"/>
                    <path fill="#4D4F58" d="M157.111 108.492H14.708c-.759 0-1.38-.614-1.38-1.378V92.096c0-.759.621-1.379 1.38-1.379H157.11c.763 0 1.38.62 1.38 1.379v15.018c0 .764-.617 1.378-1.38 1.378"/>
                    <path fill="#DBDBDD" d="M120.08 83.313H91.733c-.764 0-1.379-.615-1.379-1.38V60.99c0-.76.615-1.379 1.38-1.379h28.346c.763 0 1.377.619 1.377 1.38v20.943c0 .764-.614 1.379-1.377 1.379"/>
                    <path fill="#3F8A37" d="M157.111 83.313h-28.347c-.764 0-1.379-.615-1.379-1.38V60.99c0-.76.615-1.379 1.379-1.379h28.347c.763 0 1.38.619 1.38 1.38v20.943c0 .764-.617 1.379-1.38 1.379"/>
                    <path fill="#4D4F58" d="M79.903 27.025h-65.01c-.86 0-1.56-.698-1.56-1.565v-1.31c0-.868.7-1.568 1.56-1.568h65.01c.861 0 1.565.7 1.565 1.567v1.31c0 .868-.704 1.566-1.565 1.566M80.089 83.313H14.71c-.764 0-1.378-.615-1.378-1.38V35.81c0-.757.614-1.377 1.378-1.377H80.09c.762 0 1.379.62 1.379 1.377v46.125c0 .764-.617 1.379-1.38 1.379"/>
                    <path fill="#FEFEFE" d="M45.194 48.555l-.002 26.642c0 .245-.2.447-.443.447h-8.042c-.245 0-.443-.202-.443-.447V69.44c0-.247-.2-.441-.446-.441H32.74c-.245 0-.445.194-.445.441v5.757c0 .245-.199.447-.444.447H23.81c-.245 0-.443-.202-.443-.447V48.553c0-.245.198-.443.443-.443h20.94c.245 0 .445.198.445.445m26.238-7.491l-.002 34.133c0 .245-.2.447-.446.447h-8.04c-.246 0-.445-.202-.445-.447v-5.772c0-.245-.198-.444-.443-.444h-3.08c-.246 0-.444.199-.444.444v5.772c0 .245-.199.447-.446.447h-8.04c-.244 0-.443-.202-.443-.447V41.064c0-.245.199-.444.444-.444h20.94c.244 0 .445.199.445.444M29.867 63.048H26.79c-.245 0-.444.2-.444.447v3.075c0 .247.199.441.444.441h3.078c.247 0 .446-.194.446-.441v-3.075c0-.247-.199-.447-.446-.447m5.953 0h-3.078c-.245 0-.446.2-.446.447v3.075c0 .247.2.441.446.441h3.078c.245 0 .446-.194.446-.441v-3.075c0-.247-.2-.447-.446-.447m5.953 0h-3.078c-.245 0-.446.2-.446.447v3.075c0 .247.2.441.446.441h3.078c.245 0 .446-.194.446-.441v-3.075c0-.247-.2-.447-.446-.447m14.332-.03h-3.08c-.246 0-.444.199-.444.444v3.086c0 .245.198.444.443.444h3.08c.246 0 .444-.199.444-.444v-3.086c0-.245-.198-.443-.443-.443m5.953 0h-3.08c-.246 0-.444.198-.444.443v3.086c0 .245.198.444.443.444h3.08c.246 0 .444-.199.444-.444v-3.086c0-.245-.198-.443-.443-.443m5.95 0H64.93c-.245 0-.443.198-.443.443v3.086c0 .245.198.444.443.444h3.079c.247 0 .445-.199.445-.444v-3.086c0-.245-.198-.443-.445-.443m-38.142-5.916H26.79c-.245 0-.444.194-.444.441v3.075c0 .247.199.447.444.447h3.078c.247 0 .446-.2.446-.447v-3.075c0-.247-.199-.441-.446-.441m5.953 0h-3.078c-.245 0-.446.194-.446.441v3.075c0 .247.2.447.446.447h3.078c.245 0 .446-.2.446-.447v-3.075c0-.247-.2-.441-.446-.441m5.953 0h-3.078c-.245 0-.446.194-.446.441v3.075c0 .247.2.447.446.447h3.078c.245 0 .446-.2.446-.447v-3.075c0-.247-.2-.441-.446-.441m14.332-.05h-3.08c-.246 0-.444.203-.444.448v3.087c0 .243.198.441.443.441h3.08c.246 0 .444-.198.444-.441V57.5c0-.245-.198-.447-.443-.447m5.953 0h-3.08c-.246 0-.444.202-.444.447v3.087c0 .243.198.441.443.441h3.08c.246 0 .444-.198.444-.441V57.5c0-.245-.198-.447-.443-.447m5.95 0H64.93c-.245 0-.443.202-.443.447v3.087c0 .243.198.441.443.441h3.079c.247 0 .445-.198.445-.441V57.5c0-.245-.198-.447-.445-.447M29.867 51.15H26.79c-.245 0-.444.199-.444.444v3.078c0 .244.199.442.444.442h3.078c.247 0 .446-.198.446-.442v-3.078c0-.245-.199-.444-.446-.444m5.953 0h-3.078c-.245 0-.446.199-.446.444v3.078c0 .244.2.442.446.442h3.078c.245 0 .446-.198.446-.442v-3.078c0-.245-.2-.444-.446-.444m5.953 0h-3.078c-.245 0-.446.199-.446.444v3.078c0 .244.2.442.446.442h3.078c.245 0 .446-.198.446-.442v-3.078c0-.245-.2-.444-.446-.444m14.332-.058h-3.08c-.246 0-.444.197-.444.442v3.086c0 .245.198.447.443.447h3.08c.246 0 .444-.202.444-.447v-3.086c0-.245-.198-.442-.443-.442m5.953 0h-3.08c-.246 0-.444.197-.444.442v3.086c0 .245.198.447.443.447h3.08c.246 0 .444-.202.444-.447v-3.086c0-.245-.198-.442-.443-.442m5.95 0H64.93c-.245 0-.443.197-.443.442v3.086c0 .245.198.447.443.447h3.079c.247 0 .445-.202.445-.447v-3.086c0-.245-.198-.442-.445-.442m-11.904-5.83h-3.08c-.246 0-.444.196-.444.441v3.086c0 .246.198.448.443.448h3.08c.246 0 .444-.202.444-.448v-3.086c0-.245-.198-.441-.443-.441m5.953 0h-3.08c-.246 0-.444.196-.444.441v3.086c0 .246.198.448.443.448h3.08c.246 0 .444-.202.444-.448v-3.086c0-.245-.198-.441-.443-.441m5.95 0H64.93c-.245 0-.443.196-.443.441v3.086c0 .246.198.448.443.448h3.079c.247 0 .445-.202.445-.448v-3.086c0-.245-.198-.441-.445-.441"/>
                </g>
                <g transform="translate(51.468 12.641) translate(9.724 94.973)">
                    <mask id="prefix__f" fill="#fff">
                        <use xlink:href="#prefix__e"/>
                    </mask>
                    <path fill="#FBE2D8" d="M-1.147 39.245L151.645 39.245 151.645 -1.5 -1.147 -1.5z" mask="url(#prefix__f)"/>
                </g>
                <g transform="translate(51.468 12.641) translate(8.682 93.93)">
                    <mask id="prefix__h" fill="#fff">
                        <use xlink:href="#prefix__g"/>
                    </mask>
                    <path fill="#FF7000" d="M-1.066 41.814L153.652 41.814 153.652 -1.983 -1.066 -1.983z" mask="url(#prefix__h)"/>
                </g>
                <g>
                    <path stroke="#ED7023" stroke-width="1.5" d="M198.188 39.201L198.188 41.146 196.243 41.146" transform="translate(51.468 12.641) translate(5.834 91.153)"/>
                    <path stroke="#ED7023" stroke-dasharray="3 2" stroke-width="1.5" d="M192.384 41.146L9.114 41.146" transform="translate(51.468 12.641) translate(5.834 91.153)"/>
                    <path stroke="#ED7023" stroke-width="1.5" d="M7.183 41.146L5.238 41.146 5.238 39.201" transform="translate(51.468 12.641) translate(5.834 91.153)"/>
                    <path stroke="#ED7023" stroke-dasharray="1.874 1.874" stroke-width="1.5" d="M5.238 35.557L5.238 8.221" transform="translate(51.468 12.641) translate(5.834 91.153)"/>
                    <path stroke="#ED7023" stroke-width="1.5" d="M5.238 6.398L5.238 4.453 7.183 4.453" transform="translate(51.468 12.641) translate(5.834 91.153)"/>
                    <path stroke="#FF7000" stroke-dasharray="3 2" stroke-width="1.5" d="M11.041 4.453L194.313 4.453" transform="translate(51.468 12.641) translate(5.834 91.153)"/>
                    <path stroke="#ED7023" stroke-width="1.5" d="M196.243 4.453L198.188 4.453 198.188 6.398" transform="translate(51.468 12.641) translate(5.834 91.153)"/>
                    <path stroke="#ED7023" stroke-dasharray="3 2" stroke-width="1.5" d="M198.188 7.358L198.188 37.383" transform="translate(51.468 12.641) translate(5.834 91.153)"/>
                    <path stroke="#FF7000" stroke-width="1.5" d="M5.239 41.146L154.084 41.146 154.084 4.456 5.239 4.456z" transform="translate(51.468 12.641) translate(5.834 91.153)"/>
                    <path fill="#FF7000" d="M212.74 32.478c.169.296.258.628.258.994 0 .212-.035.44-.095.667-.236.875-.922 1.704-1.825 2.223-1.614.926-3.492.685-4.194-.535-.27-.478-.327-1.066-.162-1.67.24-.883.904-1.694 1.822-2.217 1.617-.926 3.5-.683 4.195.538m-1.66 13.454c.902.522 1.586 1.35 1.824 2.225.06.228.093.451.093.667 0 .364-.087.698-.257.992-.696 1.221-2.58 1.465-4.195.54-.92-.524-1.583-1.335-1.824-2.216-.163-.607-.109-1.192.162-1.67.704-1.22 2.582-1.461 4.196-.538m-3.693-16.013c-1.445.828-2.505 2.153-2.91 3.633-.275 1.001-.22 2.026.137 2.911l-4.555 2.608c-4.251-2.318-10.54-5.745-11.297-6.18-1.85-1.058-3.907.68-3.993.756l-.587.502 12.24 6.997-12.238 7.002.585.5c.086.077 2.143 1.814 3.995.754.756-.432 7.044-3.862 11.295-6.179l4.557 2.606c-.358.89-.414 1.912-.136 2.916.402 1.478 1.464 2.804 2.91 3.63 2.726 1.562 6.036.934 7.368-1.398.373-.651.564-1.373.564-2.149 0-.424-.03-.863-.175-1.283-.85-2.501-2.896-3.781-4.992-4.398-.094-.023-5.092-1.258-6.183-1.948 0 0-.037-.018-.099-.053l.1-.05c1.09-.693 6.088-1.926 6.182-1.949 2.096-.616 4.144-1.898 4.992-4.4.146-.417.175-.857.175-1.283 0-.774-.19-1.495-.564-2.147-1.334-2.332-4.642-2.96-7.37-1.398" transform="translate(51.468 12.641) translate(5.834 91.153)"/>
                    <path fill="#FEFEFE" d="M149.672 9.067L158.491 9.067 158.491 0.247 149.672 0.247z" transform="translate(51.468 12.641) translate(5.834 91.153)"/>
                    <path stroke="#FF7000" stroke-width="1.5" d="M149.672 9.067L158.491 9.067 158.491 0.247 149.672 0.247z" transform="translate(51.468 12.641) translate(5.834 91.153)"/>
                    <path fill="#FEFEFE" d="M149.672 45.45L158.491 45.45 158.491 36.628 149.672 36.628z" transform="translate(51.468 12.641) translate(5.834 91.153)"/>
                    <path stroke="#FF7000" stroke-width="1.5" d="M149.672 45.45L158.491 45.45 158.491 36.628 149.672 36.628z" transform="translate(51.468 12.641) translate(5.834 91.153)"/>
                    <path fill="#FEFEFE" d="M90.433 9.067L99.255 9.067 99.255 0.247 90.433 0.247z" transform="translate(51.468 12.641) translate(5.834 91.153)"/>
                    <path stroke="#FF7000" stroke-width="1.5" d="M90.433 9.067L99.255 9.067 99.255 0.247 90.433 0.247z" transform="translate(51.468 12.641) translate(5.834 91.153)"/>
                    <path fill="#FEFEFE" d="M90.433 45.45L99.255 45.45 99.255 36.628 90.433 36.628z" transform="translate(51.468 12.641) translate(5.834 91.153)"/>
                    <path stroke="#FF7000" stroke-width="1.5" d="M90.433 45.45L99.255 45.45 99.255 36.628 90.433 36.628z" transform="translate(51.468 12.641) translate(5.834 91.153)"/>
                    <path fill="#FEFEFE" d="M149.672 27.105L158.491 27.105 158.491 18.285 149.672 18.285z" transform="translate(51.468 12.641) translate(5.834 91.153)"/>
                    <path stroke="#FF7000" stroke-width="1.5" d="M149.672 27.105L158.491 27.105 158.491 18.285 149.672 18.285z" transform="translate(51.468 12.641) translate(5.834 91.153)"/>
                    <path fill="#FEFEFE" d="M0.827 9.067L9.646 9.067 9.646 0.247 0.827 0.247z" transform="translate(51.468 12.641) translate(5.834 91.153)"/>
                    <path stroke="#FF7000" stroke-width="1.5" d="M0.827 9.067L9.646 9.067 9.646 0.247 0.827 0.247z" transform="translate(51.468 12.641) translate(5.834 91.153)"/>
                    <path fill="#FEFEFE" d="M0.827 45.45L9.646 45.45 9.646 36.628 0.827 36.628z" transform="translate(51.468 12.641) translate(5.834 91.153)"/>
                    <path stroke="#FF7000" stroke-width="1.5" d="M0.827 45.45L9.646 45.45 9.646 36.628 0.827 36.628z" transform="translate(51.468 12.641) translate(5.834 91.153)"/>
                    <path fill="#FEFEFE" d="M0.827 27.105L9.646 27.105 9.646 18.285 0.827 18.285z" transform="translate(51.468 12.641) translate(5.834 91.153)"/>
                    <path stroke="#FF7000" stroke-width="1.5" d="M0.827 27.105L9.646 27.105 9.646 18.285 0.827 18.285z" transform="translate(51.468 12.641) translate(5.834 91.153)"/>
                </g>
            </g>
        </g>
    </g>
</svg>
