<svg xmlns="http://www.w3.org/2000/svg" width="200" height="100" viewBox="0 0 200 100">
    <g fill="none" fill-rule="evenodd">
        <path fill="#FFF" d="M0 0H200V100H0z"/>
        <g>
            <g>
                <path fill="#4D4F58" fill-rule="nonzero" d="M1.241 12.84l-.06.027-.151.084c-.545.328-.938.885-1 1.484l-.003.088.01-.065c-.173.849.281 1.605 1.035 1.98L24.19 27.942c.16.082.31.134.472.162.1.016.169.022.29.023h.103c.191 0 .269-.002.392-.023.162-.028.312-.08.48-.165l32.501-14.444c.727-.363 1.19-1.058 1.19-1.858 0-.85-.529-1.588-1.303-1.785L35.298.137c-.527-.18-1.018-.18-1.492-.017L1.241 12.84zM34.793 1.468l23.07 9.73c.22.064.33.218.33.44 0 .24-.142.454-.372.57L25.219 26.696l-.025.004h-.278L24.9 26.7c-.01-.001-.025-.007-.07-.03L1.707 15.165c-.184-.092-.278-.218-.28-.354l.02-.21.01-.063c.03-.11.13-.246.273-.343l.073-.044L34.296 1.457c.147-.05.316-.05.497.011z" transform="translate(107.23 11.01) translate(.07 .94)"/>
                <path fill="#FF7000" d="M19.795 20.815l27.389-12.05 5.477 2.19-27.023 11.89c-.234.103-.499.108-.735.013l-5.108-2.043z" transform="translate(107.23 11.01) translate(.07 .94)"/>
                <path fill="#4D4F58" d="M26.932 13.364l15.046-6.688 2.15.956L29.25 14.14c-.258.113-.553.105-.805-.021l-1.513-.756zM31.111 8.445l7.046-3.202 1.91.717-6.826 3.116c-.254.115-.546.114-.799-.005l-1.33-.626zM27.764 6.993l7.045-3.201 1.911.716-6.826 3.116c-.254.116-.547.114-.8-.005l-1.33-.626z" transform="translate(107.23 11.01) translate(.07 .94)"/>
                <path fill="#FF7000" d="M7.444 15l10.371-3.823 9.427 3.841-9.475 4.211c-.245.11-.525.11-.77 0l-9.553-4.228z" transform="translate(107.23 11.01) translate(.07 .94)"/>
                <path fill="#C8CFCA" d="M19.827 10.288l6.414-2.379 5.377 1.926-5.738 2.55c-.233.104-.499.11-.736.015l-5.317-2.112z" transform="translate(107.23 11.01) translate(.07 .94)"/>
            </g>
            <g>
                <path fill="#4D4F58" fill-rule="nonzero" d="M1.241 12.84l-.06.027-.151.084c-.545.328-.938.885-1 1.484l-.003.088.01-.065c-.173.849.281 1.605 1.035 1.98L24.19 27.942c.16.082.31.134.472.162.1.016.169.022.29.023h.103c.191 0 .269-.002.392-.023.162-.028.312-.08.48-.165l32.501-14.444c.727-.363 1.19-1.058 1.19-1.858 0-.85-.529-1.588-1.303-1.785L35.298.137c-.527-.18-1.018-.18-1.492-.017L1.241 12.84zM34.793 1.468l23.07 9.73c.22.064.33.218.33.44 0 .24-.142.454-.372.57L25.219 26.696l-.025.004h-.278L24.9 26.7c-.01-.001-.025-.007-.07-.03L1.707 15.165c-.184-.092-.278-.218-.28-.354l.02-.21.01-.063c.03-.11.13-.246.273-.343l.073-.044L34.296 1.457c.147-.05.316-.05.497.011z" transform="translate(107.23 11.01) translate(27.32 51.29)"/>
                <path fill="#C8CFCA" d="M19.795 20.815l27.389-12.05 5.477 2.19-27.023 11.89c-.234.103-.499.108-.735.013l-5.108-2.043z" transform="translate(107.23 11.01) translate(27.32 51.29)"/>
                <path fill="#4D4F58" d="M26.932 13.364l15.046-6.688 2.15.956L29.25 14.14c-.258.113-.553.105-.805-.021l-1.513-.756zM31.111 8.445l7.046-3.202 1.91.717-6.826 3.116c-.254.115-.546.114-.799-.005l-1.33-.626zM27.764 6.993l7.045-3.201 1.911.716-6.826 3.116c-.254.116-.547.114-.8-.005l-1.33-.626z" transform="translate(107.23 11.01) translate(27.32 51.29)"/>
                <path fill="#1C9E3B" d="M7.444 15l10.371-3.823 9.427 3.841-9.475 4.211c-.245.11-.525.11-.77 0l-9.553-4.228z" transform="translate(107.23 11.01) translate(27.32 51.29)"/>
                <path fill="#93C256" d="M19.827 10.288l6.414-2.379 5.377 1.926-5.738 2.55c-.233.104-.499.11-.736.015l-5.317-2.112z" transform="translate(107.23 11.01) translate(27.32 51.29)"/>
            </g>
            <path fill="#4D4F58" fill-rule="nonzero" d="M57.449 44.943l-.113.03-32.225 14.346L2.332 47.933l-.101-.045c-.334-.13-.639-.041-.786.238l-.044.1c-.179.358-.094.707.206.866l.096.042 23.1 11.494.092.043.047.013.108.006.233-.003.025-.003c.02-.003.042-.01.088-.031l.054-.026 32.518-14.452.076-.035c.183-.107.291-.436.234-.708l-.025-.08-.05-.086c-.158-.237-.388-.35-.643-.336l-.111.013zm.025-6.386l-.078.034-.13.078h-.039L25.11 52.97 2.332 41.474l-.101-.046c-.334-.13-.639-.041-.786.238l-.09.207c-.114.319-.018.616.252.759l.096.042 23.1 11.494.092.043.047.013.058.005.2.001c.06 0 .086-.002.108-.006.013-.002.027-.006.05-.014l.093-.044 32.38-14.33.11-.062c.285-.178.401-.463.331-.802l-.02-.07-.032-.046c-.175-.213-.446-.332-.66-.314l-.086.016zm-.025-6.43l-.113.028-32.225 14.348L2.332 35.117l-.101-.046c-.334-.13-.639-.04-.786.238l-.044.1c-.179.358-.094.707.206.866l.096.042 23.1 11.494.092.043.047.014.108.006.233-.003.025-.003c.02-.004.042-.01.088-.032l.054-.026 32.605-14.485.061-.016c.127-.05.227-.364.152-.708l-.02-.076-.044-.075c-.159-.238-.39-.35-.644-.337l-.111.013zm0-6.356l-.113.03-32.225 14.346L2.332 28.762l-.101-.046c-.334-.13-.639-.041-.786.238l-.044.1c-.179.358-.094.707.206.866l.096.042 23.1 11.494.092.043.047.013.108.006.233-.003.025-.003c.02-.003.042-.01.088-.031l.054-.026 32.604-14.492c.19-.105.287-.378.217-.707l-.024-.086-.043-.076c-.159-.237-.39-.35-.644-.336l-.111.013zm0-6.461l-.113.029-32.225 14.347L2.332 22.3l-.101-.046c-.334-.13-.639-.04-.786.238l-.044.1c-.179.358-.094.708.206.866l.096.042 23.1 11.495.092.042.047.014.108.006.233-.003.025-.003c.02-.003.042-.01.088-.032l.054-.026 32.605-14.485.061-.016c.127-.05.227-.364.152-.707l-.02-.076-.044-.076c-.159-.237-.39-.35-.644-.337l-.111.014z" transform="translate(107.23 11.01)"/>
        </g>
        <g>
            <g>
                <path fill="#4D4F58" fill-rule="nonzero" d="M1.241 12.84l-.06.027-.151.084c-.545.328-.938.885-1 1.484l-.003.088.01-.065c-.173.849.281 1.605 1.035 1.98L24.19 27.942c.16.082.31.134.472.162.1.016.169.022.29.023h.103c.191 0 .269-.002.392-.023.162-.028.312-.08.48-.165l32.501-14.444c.727-.363 1.19-1.058 1.19-1.858 0-.85-.529-1.588-1.303-1.785L35.298.137c-.527-.18-1.018-.18-1.492-.017L1.241 12.84zM34.793 1.468l23.07 9.73c.22.064.33.218.33.44 0 .24-.142.454-.372.57L25.219 26.696l-.025.004h-.278L24.9 26.7c-.01-.001-.025-.007-.07-.03L1.707 15.165c-.184-.092-.278-.218-.28-.354l.02-.21.01-.063c.03-.11.13-.246.273-.343l.073-.044L34.296 1.457c.147-.05.316-.05.497.011z" transform="translate(45.23 52.01) translate(.07 .94)"/>
                <path fill="#C8CFCA" d="M19.795 20.815l27.389-12.05 5.477 2.19-27.023 11.89c-.234.103-.499.108-.735.013l-5.108-2.043z" transform="translate(45.23 52.01) translate(.07 .94)"/>
                <path fill="#4D4F58" d="M26.932 13.364l15.046-6.688 2.15.956L29.25 14.14c-.258.113-.553.105-.805-.021l-1.513-.756zM31.111 8.445l7.046-3.202 1.91.717-6.826 3.116c-.254.115-.546.114-.799-.005l-1.33-.626zM27.764 6.993l7.045-3.201 1.911.716-6.826 3.116c-.254.116-.547.114-.8-.005l-1.33-.626z" transform="translate(45.23 52.01) translate(.07 .94)"/>
                <path fill="#97A099" d="M7.444 15l10.371-3.823 9.427 3.841-9.475 4.211c-.245.11-.525.11-.77 0l-9.553-4.228z" transform="translate(45.23 52.01) translate(.07 .94)"/>
                <path fill="#C8CFCA" d="M19.827 10.288l6.414-2.379 5.377 1.926-5.738 2.55c-.233.104-.499.11-.736.015l-5.317-2.112z" transform="translate(45.23 52.01) translate(.07 .94)"/>
            </g>
            <path fill="#4D4F58" fill-rule="nonzero" d="M57.449 25.771l-.113.03-32.225 14.346L2.332 28.762l-.101-.046c-.334-.13-.639-.041-.786.238l-.044.1c-.179.358-.094.707.206.866l.096.042 23.1 11.494.092.043.047.013.108.006.233-.003.025-.003c.02-.003.042-.01.088-.031l.054-.026 32.604-14.492c.19-.105.287-.378.217-.707l-.024-.086-.043-.076c-.159-.237-.39-.35-.644-.336l-.111.013zm0-6.461l-.113.029-32.225 14.347L2.332 22.3l-.101-.046c-.334-.13-.639-.04-.786.238l-.044.1c-.179.358-.094.708.206.866l.096.042 23.1 11.495.092.042.047.014.108.006.233-.003.025-.003c.02-.003.042-.01.088-.032l.054-.026 32.605-14.485.061-.016c.127-.05.227-.364.152-.707l-.02-.076-.044-.076c-.159-.237-.39-.35-.644-.337l-.111.014z" transform="translate(45.23 52.01)"/>
        </g>
        <g>
            <g>
                <path fill="#4D4F58" fill-rule="nonzero" d="M1.241 12.84l-.06.027-.151.084c-.545.328-.938.885-1 1.484l-.003.088.01-.065c-.173.849.281 1.605 1.035 1.98L24.19 27.942c.16.082.31.134.472.162.1.016.169.022.29.023h.103c.191 0 .269-.002.392-.023.162-.028.312-.08.48-.165l32.501-14.444c.727-.363 1.19-1.058 1.19-1.858 0-.85-.529-1.588-1.303-1.785L35.298.137c-.527-.18-1.018-.18-1.492-.017L1.241 12.84zM34.793 1.468l23.07 9.73c.22.064.33.218.33.44 0 .24-.142.454-.372.57L25.219 26.696l-.025.004h-.278L24.9 26.7c-.01-.001-.025-.007-.07-.03L1.707 15.165c-.184-.092-.278-.218-.28-.354l.02-.21.01-.063c.03-.11.13-.246.273-.343l.073-.044L34.296 1.457c.147-.05.316-.05.497.011z" transform="translate(15.23 10.01) translate(.07 .94)"/>
                <path fill="#1C9E3B" d="M19.795 20.815l27.389-12.05 5.477 2.19-27.023 11.89c-.234.103-.499.108-.735.013l-5.108-2.043z" transform="translate(15.23 10.01) translate(.07 .94)"/>
                <path fill="#4D4F58" d="M26.932 13.364l15.046-6.688 2.15.956L29.25 14.14c-.258.113-.553.105-.805-.021l-1.513-.756zM31.111 8.445l7.046-3.202 1.91.717-6.826 3.116c-.254.115-.546.114-.799-.005l-1.33-.626zM27.764 6.993l7.045-3.201 1.911.716-6.826 3.116c-.254.116-.547.114-.8-.005l-1.33-.626z" transform="translate(15.23 10.01) translate(.07 .94)"/>
                <path fill="#93C256" d="M7.444 15l10.371-3.823 9.427 3.841-9.475 4.211c-.245.11-.525.11-.77 0l-9.553-4.228z" transform="translate(15.23 10.01) translate(.07 .94)"/>
                <path fill="#1C9E3B" d="M19.827 10.288l6.414-2.379 5.377 1.926-5.738 2.55c-.233.104-.499.11-.736.015l-5.317-2.112z" transform="translate(15.23 10.01) translate(.07 .94)"/>
            </g>
            <path fill="#4D4F58" fill-rule="nonzero" d="M57.474 38.557l-.078.034-.13.078h-.039L25.11 52.97 2.332 41.474l-.101-.046c-.334-.13-.639-.041-.786.238l-.09.207c-.114.319-.018.616.252.759l.096.042 23.1 11.494.092.043.047.013.058.005.2.001c.06 0 .086-.002.108-.006.013-.002.027-.006.05-.014l.093-.044 32.38-14.33.11-.062c.285-.178.401-.463.331-.802l-.02-.07-.032-.046c-.175-.213-.446-.332-.66-.314l-.086.016zM25.11 60.42L2.332 48.923l-.101-.046c-.334-.13-.639-.04-.786.238l-.09.207c-.114.32-.018.616.252.76l.096.04 23.1 11.496.092.042.047.014.058.005h.2c.06 0 .086-.002.108-.005.013-.003.027-.006.05-.015l.093-.043-.34-1.196zm0 8.17L2.332 57.095l-.101-.046c-.334-.13-.639-.04-.786.238l-.09.207c-.114.32-.018.616.252.76l.096.04 23.1 11.495.092.043.047.014.058.005h.2c.06 0 .086-.002.108-.005.013-.003.027-.007.05-.015l.093-.044-.34-1.195zM57.45 32.127l-.113.03-32.225 14.347L2.332 35.117l-.101-.046c-.334-.13-.639-.04-.786.238l-.044.1c-.179.358-.094.707.206.866l.096.042 23.1 11.494.092.043.047.014.108.006.233-.003.025-.003c.02-.004.042-.01.088-.032l.054-.026 32.605-14.485.061-.016c.127-.05.227-.364.152-.708l-.02-.076-.044-.075c-.159-.238-.39-.35-.644-.337l-.111.013zm0-6.355l-.113.03-32.225 14.346L2.332 28.762l-.101-.046c-.334-.13-.639-.041-.786.238l-.044.1c-.179.358-.094.707.206.866l.096.042 23.1 11.494.092.043.047.013.108.006.233-.003.025-.003c.02-.003.042-.01.088-.031l.054-.026 32.604-14.492c.19-.105.287-.378.217-.707l-.024-.086-.043-.076c-.159-.237-.39-.35-.644-.336l-.111.013zm0-6.461l-.113.029-32.225 14.347L2.332 22.3l-.101-.046c-.334-.13-.639-.04-.786.238l-.044.1c-.179.358-.094.708.206.866l.096.042 23.1 11.495.092.042.047.014.108.006.233-.003.025-.003c.02-.003.042-.01.088-.032l.054-.026 32.605-14.485.061-.016c.127-.05.227-.364.152-.707l-.02-.076-.044-.076c-.159-.237-.39-.35-.644-.337l-.111.014z" transform="translate(15.23 10.01)"/>
        </g>
    </g>
</svg>
