<svg xmlns="http://www.w3.org/2000/svg" xmlns:xlink="http://www.w3.org/1999/xlink" width="272" height="144" viewBox="0 0 272 144">
    <defs>
        <path id="prefix__a" d="M243.063 10.75l-4.634 4.534-2.194-2.145c-.121-.115-.311-.115-.433 0l-.865.845c-.118.118-.118.307 0 .423l2.735 2.67c.207.207.482.308.757.308.273 0 .547-.1.755-.308l5.178-5.06c.12-.115.12-.305 0-.42l-.864-.847c-.059-.059-.138-.087-.216-.087-.08 0-.158.028-.219.087z"/>
    </defs>
    <g fill="none" fill-rule="evenodd" transform="translate(8 14)">
        <path fill="#FF7000" d="M104.241 72.791c-9.264 0-16.776 7.51-16.776 16.775 0 9.267 7.512 16.777 16.776 16.777h38.048c9.264 0 16.776-7.51 16.776-16.777 0-9.264-7.512-16.775-16.776-16.775H104.24z"/>
        <path fill="#FFF" d="M128.173 80.788c-1.782.27-3.099 1.8-3.104 3.607 0 .389.06.775.184 1.146l-4.094 2.057c-.916-1.333-2.586-1.913-4.125-1.433-1.538.483-2.588 1.912-2.588 3.529s1.05 3.045 2.588 3.526c1.539.481 3.209-.1 4.125-1.43l4.102 2.066c-.512 1.52.016 3.2 1.3 4.154 1.288.952 3.045.964 4.344.024 1.295-.938 1.84-2.612 1.344-4.14-.495-1.524-1.915-2.556-3.515-2.55l-.006-.004c-1.197.002-2.32.593-2.998 1.582l-4.102-2.07c.124-.371.187-.762.189-1.158-.002-.389-.065-.775-.185-1.146l4.094-2.043c1.03 1.481 2.983 1.988 4.598 1.191 1.619-.797 2.414-2.655 1.876-4.38-.48-1.545-1.904-2.567-3.477-2.567-.183 0-.365.012-.55.04zm-.36 5.672c-.774-.328-1.27-1.093-1.263-1.933.016-1.139.94-2.05 2.078-2.05.84 0 1.6.507 1.92 1.286.32.78.137 1.672-.464 2.265-.394.39-.92.598-1.456.598-.274 0-.551-.054-.814-.166zm-11.636 3.279c0-1.146.928-2.074 2.074-2.074s2.074.928 2.074 2.074c0 1.148-.928 2.076-2.074 2.076s-2.074-.928-2.074-2.076zm10.538 5.995c-.33-.777-.153-1.676.443-2.274.599-.595 1.498-.772 2.275-.446.779.328 1.28 1.095 1.27 1.941-.014 1.124-.925 2.035-2.05 2.047h-.025c-.836 0-1.591-.497-1.913-1.268zM100.735 91.905l-21.728 9.053c-.787.33-1.356 1.022-1.523 1.862-.165.836.098 1.696.7 2.3l2.634 2.636-2.14 2.135c-1.534 1.538-1.534 4.044 0 5.581 1.496 1.49 4.093 1.49 5.584 0l2.137-2.137 2.636 2.635c.484.483 1.124.75 1.801.75 1.038 0 1.963-.618 2.36-1.572l9.055-21.73c.181-.431.079-.93-.25-1.261-.22-.224-.519-.342-.819-.342-.153 0-.302.03-.447.09zM106.186 86.57l-2.52 2.52c-.386.386-.386 1.012 0 1.397.195.194.446.29.699.29.253 0 .506-.096.7-.29l2.518-2.52c.387-.385.387-1.013 0-1.397-.192-.193-.445-.289-.698-.289-.251 0-.507.096-.699.289zM91.38 88.183c-.253.459-.05 1.02.457 1.254l3.485 1.59c.15.064.304.095.46.095.374 0 .737-.188.914-.518.253-.459.049-1.02-.457-1.252l-3.486-1.59c-.147-.068-.302-.1-.455-.1-.377.003-.74.191-.918.52zM103.549 97.457c-.462.253-.652.867-.418 1.374l1.587 3.485c.165.36.493.565.836.565.143 0 .285-.033.418-.106.461-.253.65-.867.418-1.374l-1.587-3.485c-.161-.359-.493-.567-.836-.567-.14 0-.285.035-.418.108zM97.587 83.186c-.526.108-.87.634-.764 1.172l.825 4.235c.094.475.5.8.955.8.063 0 .124-.005.19-.02.527-.107.868-.631.76-1.17l-.826-4.236c-.09-.47-.49-.798-.946-.798-.063 0-.13.004-.194.017zM104.781 95.363c-.108.526.241 1.036.78 1.142l4.234.824c.067.012.13.02.196.02.465 0 .881-.318.976-.78.108-.525-.242-1.037-.78-1.141l-4.236-.826c-.067-.014-.134-.02-.2-.02-.468 0-.878.32-.97.781z"/>
        <path fill="#4D4F58" d="M80.227 102.065c-.1.043-.135.125-.15.184-.01.061-.009.147.07.224l3.681 3.695c.483.485.483 1.27 0 1.753l-4.154 3.767c-.68.678-.68 1.782-.004 2.461.657.66 1.8.66 2.455 0l4.158-3.767c.481-.483 1.264-.483 1.743 0l3.683 3.695c.05.047.108.072.175.072.04 0 .173-.01.236-.153l8.49-20.452-20.383 8.52z"/>
        <path fill="#FEFEFE" d="M14.473 3.367L14.524 43.205 71.653 43.205 71.605 3.367z"/>
        <path fill="#475059" d="M71.356 9.458c1.642 0 2.973 1.232 2.973 2.753v45.423c0 1.52-1.33 2.753-2.973 2.753H2.973C1.331 60.387 0 59.155 0 57.634V12.211c0-1.52 1.331-2.753 2.973-2.753h68.383zm0 2.477H2.973c-.137 0-.252.086-.287.202l-.01.074v45.423c0 .127.092.234.218.266l.08.01h68.382c.137 0 .252-.086.287-.203l.01-.073V12.211c0-.127-.092-.234-.218-.266l-.079-.01z"/>
        <path fill="#4D4F58" d="M62.63 21.984c.684 0 1.238.554 1.238 1.238 0 .632-.472 1.153-1.083 1.23l-.156.01H40.606c-.684 0-1.239-.555-1.239-1.24 0-.631.473-1.152 1.083-1.229l.156-.01h22.023z"/>
        <rect width="23.4" height="16.518" x="11.012" y="21.846" fill="#93C256" rx="1"/>
        <rect width="52.306" height="8.259" x="11.012" y="42.493" fill="#C8CFCA" rx="1"/>
        <path fill="#4D4F58" d="M62.63 28.866c.684 0 1.238.555 1.238 1.239 0 .631-.472 1.152-1.083 1.229l-.156.01H40.606c-.684 0-1.239-.555-1.239-1.24 0-.63.473-1.152 1.083-1.228l.156-.01h22.023zM62.63 35.748c.684 0 1.238.555 1.238 1.239 0 .632-.472 1.153-1.083 1.23l-.156.009H40.606c-.684 0-1.239-.555-1.239-1.239 0-.632.473-1.153 1.083-1.23l.156-.009h22.023z"/>
        <path fill="#475059" d="M158.074 9.458c1.642 0 2.973 1.232 2.973 2.753v45.423c0 1.52-1.331 2.753-2.973 2.753H89.69c-1.642 0-2.973-1.232-2.973-2.753V12.211c0-1.52 1.33-2.753 2.973-2.753h68.383zm0 2.477H89.69c-.137 0-.252.086-.287.202l-.01.074v45.423c0 .127.092.234.218.266l.079.01h68.383c.137 0 .252-.086.287-.203l.01-.073V12.211c0-.127-.092-.234-.218-.266l-.08-.01z"/>
        <path fill="#4D4F58" d="M149.898 21.984c.684 0 1.238.554 1.238 1.238 0 .632-.472 1.153-1.083 1.23l-.155.01h-12.389c-.684 0-1.238-.555-1.238-1.24 0-.631.472-1.152 1.083-1.229l.155-.01h12.389z"/>
        <rect width="55.059" height="8.259" x="96.353" y="42.493" fill="#FF7000" rx="1"/>
        <path fill="#4D4F58" d="M149.898 28.866c.684 0 1.238.555 1.238 1.239 0 .631-.472 1.152-1.083 1.229l-.155.01h-12.389c-.684 0-1.238-.555-1.238-1.24 0-.63.472-1.152 1.083-1.228l.155-.01h12.389zM149.84 35.748c.716 0 1.296.555 1.296 1.239 0 .632-.494 1.153-1.133 1.23l-.162.009h-28.792c-.716 0-1.296-.555-1.296-1.239 0-.632.494-1.153 1.133-1.23l.163-.009h28.792z"/>
        <rect width="17.894" height="16.518" x="96.353" y="21.846" fill="#C8CFCA" rx="1"/>
        <rect width="13.765" height="9.635" x="119.753" y="21.846" fill="#C8CFCA" rx="1"/>
        <path fill="#475059" d="M244.792 9.458c1.642 0 2.973 1.232 2.973 2.753v45.423c0 1.52-1.331 2.753-2.973 2.753h-68.384c-1.642 0-2.973-1.232-2.973-2.753V12.211c0-1.52 1.331-2.753 2.973-2.753h68.384zm0 2.477h-68.384c-.136 0-.252.086-.286.202l-.01.074v45.423c0 .127.092.234.217.266l.08.01h68.383c.136 0 .252-.086.286-.203l.01-.073V12.211c0-.127-.092-.234-.217-.266l-.08-.01z"/>
        <rect width="55.059" height="8.259" x="183.071" y="42.493" fill="#1C9E3B" rx="1"/>
        <path fill="#4D4F58" d="M236.615 35.61c.684 0 1.24.555 1.24 1.24 0 .63-.473 1.152-1.084 1.229l-.156.01h-22.023c-.684 0-1.24-.555-1.24-1.24 0-.631.474-1.152 1.084-1.229l.156-.01h22.023zm-30.282 0c.684 0 1.239.555 1.239 1.24 0 .63-.473 1.152-1.084 1.229l-.155.01h-22.024c-.684 0-1.238-.555-1.238-1.24 0-.631.472-1.152 1.083-1.229l.155-.01h22.024zm30.282-6.882c.684 0 1.24.555 1.24 1.239 0 .632-.473 1.153-1.084 1.23l-.156.009h-22.023c-.684 0-1.24-.555-1.24-1.239 0-.632.474-1.153 1.084-1.23l.156-.009h22.023zm-30.282 0c.684 0 1.239.555 1.239 1.239 0 .632-.473 1.153-1.084 1.23l-.155.009h-22.024c-.684 0-1.238-.555-1.238-1.239 0-.632.472-1.153 1.083-1.23l.155-.009h22.024zm30.282-6.882c.684 0 1.24.555 1.24 1.239 0 .631-.473 1.152-1.084 1.229l-.156.01h-22.023c-.684 0-1.24-.555-1.24-1.24 0-.63.474-1.152 1.084-1.228l.156-.01h22.023zm-30.282 0c.684 0 1.239.555 1.239 1.239 0 .631-.473 1.152-1.084 1.229l-.155.01h-22.024c-.684 0-1.238-.555-1.238-1.24 0-.63.472-1.152 1.083-1.228l.155-.01h22.024z"/>
        <path fill="#FF7000" d="M68.043 1.01c5.045 0 8.704 4.09 8.973 8.566 3.054 1.032 5.26 3.9 5.26 7.293 0 4.259-3.468 7.728-7.725 7.728H55.032c-4.492 0-7.728-3.082-7.728-6.914 0-3.014 1.97-5.934 4.957-6.749.194-2.355 1.351-4.165 2.96-5.133 1.555-.932 3.464-1.095 5.186-.482 1.465-2.403 4.146-4.308 7.636-4.308"/>
        <path fill="#FEFEFE" d="M58.304 5.961c-.901 0-1.782.24-2.562.706-1.416.848-2.317 2.435-2.475 4.35l-.059.706-.681.186c-2.442.664-4.213 3.093-4.213 5.773 0 3.367 2.888 5.904 6.716 5.904h19.521c3.705 0 6.718-3.014 6.718-6.718 0-2.866-1.839-5.41-4.577-6.337l-.642-.216-.041-.678c-.224-3.744-3.266-7.616-7.965-7.616h-.006c-2.779 0-5.31 1.427-6.77 3.822l-.427.703-.772-.278c-.579-.204-1.175-.307-1.765-.307m16.247 19.644h-19.52c-4.98 0-8.734-3.406-8.734-7.923 0-3.329 2.083-6.379 5.04-7.506.359-2.27 1.562-4.156 3.367-5.24 1.584-.949 3.469-1.226 5.274-.795C61.85 1.533 64.813 0 68.044 0v.002c5.613 0 9.337 4.393 9.914 8.853 3.215 1.363 5.327 4.504 5.327 8.013 0 4.816-3.917 8.737-8.734 8.737"/>
        <path fill="#FFF" d="M69.628 10.75l-4.634 4.534-2.194-2.145c-.122-.115-.311-.115-.433 0l-.865.845c-.118.118-.118.307 0 .423l2.735 2.67c.206.207.482.308.757.308.273 0 .546-.1.755-.308l5.177-5.06c.12-.115.12-.305 0-.42l-.863-.847c-.059-.059-.139-.087-.217-.087-.08 0-.157.028-.218.087z"/>
        <path fill="#FF7000" d="M154.761 1.01c5.044 0 8.703 4.09 8.973 8.566 3.053 1.032 5.26 3.9 5.26 7.293 0 4.259-3.469 7.728-7.725 7.728h-19.52c-4.492 0-7.727-3.082-7.727-6.914 0-3.014 1.97-5.934 4.957-6.749.193-2.355 1.351-4.165 2.96-5.133 1.555-.932 3.464-1.095 5.185-.482 1.465-2.403 4.147-4.308 7.637-4.308"/>
        <path fill="#FEFEFE" d="M145.022 5.961c-.902 0-1.782.24-2.562.706-1.416.848-2.318 2.435-2.475 4.35l-.059.706-.681.186c-2.443.664-4.213 3.093-4.213 5.773 0 3.367 2.888 5.904 6.716 5.904h19.52c3.705 0 6.719-3.014 6.719-6.718 0-2.866-1.839-5.41-4.578-6.337l-.641-.216-.042-.678c-.224-3.744-3.266-7.616-7.965-7.616h-.006c-2.778 0-5.31 1.427-6.769 3.822l-.427.703-.772-.278c-.58-.204-1.175-.307-1.765-.307m16.247 19.644h-19.521c-4.98 0-8.734-3.406-8.734-7.923 0-3.329 2.084-6.379 5.04-7.506.36-2.27 1.563-4.156 3.367-5.24 1.585-.949 3.47-1.226 5.274-.795C148.57 1.533 151.531 0 154.761 0v.002c5.614 0 9.337 4.393 9.914 8.853 3.215 1.363 5.327 4.504 5.327 8.013 0 4.816-3.917 8.737-8.733 8.737"/>
        <path fill="#FFF" d="M156.346 10.75l-4.635 4.534-2.193-2.145c-.122-.115-.312-.115-.433 0l-.866.845c-.117.118-.117.307 0 .423l2.735 2.67c.207.207.482.308.757.308.274 0 .547-.1.756-.308l5.177-5.06c.12-.115.12-.305 0-.42l-.864-.847c-.058-.059-.138-.087-.216-.087-.08 0-.157.028-.218.087z"/>
        <path fill="#FF7000" d="M241.479 1.01c5.044 0 8.703 4.09 8.972 8.566 3.054 1.032 5.261 3.9 5.261 7.293 0 4.259-3.469 7.728-7.726 7.728h-19.519c-4.492 0-7.728-3.082-7.728-6.914 0-3.014 1.97-5.934 4.957-6.749.194-2.355 1.352-4.165 2.961-5.133 1.554-.932 3.464-1.095 5.185-.482 1.465-2.403 4.147-4.308 7.637-4.308"/>
        <path fill="#FEFEFE" d="M231.74 5.961c-.902 0-1.783.24-2.563.706-1.416.848-2.317 2.435-2.475 4.35l-.058.706-.682.186c-2.442.664-4.213 3.093-4.213 5.773 0 3.367 2.889 5.904 6.717 5.904h19.52c3.705 0 6.719-3.014 6.719-6.718 0-2.866-1.84-5.41-4.578-6.337l-.641-.216-.042-.678c-.224-3.744-3.266-7.616-7.965-7.616h-.006c-2.778 0-5.31 1.427-6.77 3.822l-.426.703-.773-.278c-.579-.204-1.175-.307-1.765-.307m16.247 19.644h-19.52c-4.98 0-8.734-3.406-8.734-7.923 0-3.329 2.084-6.379 5.04-7.506.36-2.27 1.562-4.156 3.367-5.24 1.585-.949 3.47-1.226 5.274-.795C235.286 1.533 238.25 0 241.48 0v.002c5.614 0 9.337 4.393 9.914 8.853 3.215 1.363 5.327 4.504 5.327 8.013 0 4.816-3.917 8.737-8.734 8.737"/>
        <mask id="prefix__b" fill="#fff">
            <use xlink:href="#prefix__a"/>
        </mask>
        <path fill="#FEFEFE" d="M233.07 19.163L246.231 19.163 246.231 8.885 233.07 8.885z" mask="url(#prefix__b)"/>
    </g>
</svg>
