<svg xmlns="http://www.w3.org/2000/svg" xmlns:xlink="http://www.w3.org/1999/xlink" width="307" height="181" viewBox="0 0 307 181">
    <defs>
        <path id="prefix__a" d="M0 0H307V180.58H0z"/>
        <path id="prefix__c" d="M12.465.753v12.548L8.81 9.676l-1.73 1.73 6.624 6.573 6.528-6.574-1.698-1.73-3.621 3.626V.753h-2.448zM24.31 13.805v8.975H3.098v-8.975H.652v9.586c0 1.008.812 1.828 1.818 1.835h22.437c.488.005.96-.186 1.308-.53.348-.349.543-.817.543-1.305v-9.586H24.31z"/>
    </defs>
    <g fill="none" fill-rule="evenodd">
        <mask id="prefix__b" fill="#fff">
            <use xlink:href="#prefix__a"/>
        </mask>
        <path stroke="#DFE4E1" d="M0.5 0.5H306.5V180.08H0.5z"/>
        <g mask="url(#prefix__b)">
            <g>
                <g>
                    <path fill="#E5F0E4" d="M189.12 109.706H66.418c-.722 0-1.306-.584-1.306-1.306V37.908c0-.718.584-1.306 1.306-1.306h122.704c.72 0 1.304.588 1.304 1.306V108.4c0 .722-.584 1.306-1.304 1.306" transform="translate(-18.059 4.515) translate(0 .053)"/>
                    <path stroke="#E5F0E4" d="M189.12 109.706H66.418c-.722 0-1.306-.584-1.306-1.306V37.908c0-.718.584-1.306 1.306-1.306h122.704c.72 0 1.304.588 1.304 1.306V108.4c0 .722-.584 1.306-1.304 1.306z" transform="translate(-18.059 4.515) translate(0 .053)"/>
                    <path stroke="#3F8A37" stroke-dasharray="4 3" stroke-width="2" d="M189.12 109.706H66.418c-.722 0-1.306-.584-1.306-1.306V37.908c0-.718.584-1.306 1.306-1.306h122.704c.72 0 1.304.588 1.304 1.306V108.4c0 .722-.584 1.306-1.304 1.306z" transform="translate(-18.059 4.515) translate(0 .053)"/>
                    <path fill="#FEFEFE" d="M161.4 151.81L286.715 151.81 286.715 65.384 161.4 65.384z" transform="translate(-18.059 4.515) translate(0 .053)"/>
                    <path fill="#4D4F58" d="M284.554 65.384H163.56c-1.192 0-2.16.966-2.16 2.161v82.102c0 1.195.968 2.163 2.16 2.163h120.994c1.192 0 2.161-.968 2.161-2.163V67.545c0-1.195-.969-2.16-2.16-2.16m0 1.525c.35 0 .635.281.635.635v82.102c0 .352-.286.637-.636.637H163.56c-.35 0-.635-.285-.635-.637V67.545c0-.354.285-.635.635-.635h120.994" transform="translate(-18.059 4.515) translate(0 .053)"/>
                    <path fill="#4D4F58" d="M219.334 78.349h-46.73c-.818 0-1.48-.664-1.48-1.483v-.277c0-.817.662-1.482 1.48-1.482h46.73c.818 0 1.483.665 1.483 1.482v.277c0 .82-.665 1.483-1.483 1.483M275.687 85.91h-47.083c-.72 0-1.306-.583-1.306-1.305V74.253c0-.722.585-1.306 1.306-1.306h47.083c.72 0 1.304.584 1.304 1.306v10.352c0 .722-.584 1.306-1.304 1.306" transform="translate(-18.059 4.515) translate(0 .053)"/>
                    <path fill="#93C256" d="M275.687 103.196h-47.083c-.72 0-1.306-.584-1.306-1.306V91.538c0-.722.585-1.306 1.306-1.306h47.083c.72 0 1.304.584 1.304 1.306v10.352c0 .722-.584 1.306-1.304 1.306" transform="translate(-18.059 4.515) translate(0 .053)"/>
                    <path fill="#4D4F58" d="M275.687 144.247h-103.26c-.72 0-1.305-.584-1.305-1.306v-10.352c0-.722.586-1.306 1.306-1.306h103.26c.72 0 1.303.584 1.303 1.306v10.352c0 .722-.584 1.306-1.304 1.306" transform="translate(-18.059 4.515) translate(0 .053)"/>
                    <path fill="#DBDBDD" d="M248.68 125.88h-20.077c-.72 0-1.304-.583-1.304-1.303V109.9c0-.72.584-1.306 1.304-1.306h20.076c.72 0 1.305.586 1.305 1.306v14.676c0 .72-.584 1.304-1.305 1.304" transform="translate(-18.059 4.515) translate(0 .053)"/>
                    <path fill="#3F8A37" d="M275.687 125.88h-20.076c-.722 0-1.304-.583-1.304-1.303V109.9c0-.72.582-1.306 1.304-1.306h20.076c.72 0 1.304.586 1.304 1.306v14.676c0 .72-.584 1.304-1.304 1.304" transform="translate(-18.059 4.515) translate(0 .053)"/>
                    <path fill="#4D4F58" d="M219.334 84.83h-46.73c-.818 0-1.48-.663-1.48-1.483v-.276c0-.818.662-1.481 1.48-1.481h46.73c.818 0 1.483.663 1.483 1.48v.277c0 .82-.665 1.483-1.483 1.483M219.511 125.88h-47.083c-.72 0-1.306-.583-1.306-1.303V91.535c0-.719.585-1.304 1.306-1.304h47.083c.722 0 1.304.585 1.304 1.304v33.042c0 .72-.582 1.304-1.304 1.304" transform="translate(-18.059 4.515) translate(0 .053)"/>
                    <path fill="#FEFEFE" d="M194.363 100.532l-.002 19.431c0 .179-.146.324-.324.324h-5.863c-.181 0-.326-.145-.326-.324v-4.198c0-.18-.144-.324-.323-.324h-2.247c-.179 0-.322.144-.322.324v4.198c0 .179-.148.324-.326.324h-5.864c-.178 0-.324-.145-.324-.324v-19.431c0-.18.146-.324.324-.324h15.272c.18 0 .325.143.325.324m19.134-5.464l-.001 24.895c0 .179-.144.324-.325.324h-5.863c-.178 0-.324-.145-.324-.324v-4.209c0-.18-.145-.324-.324-.324h-2.245c-.181 0-.325.144-.325.324v4.209c0 .179-.145.324-.326.324h-5.863c-.178 0-.324-.145-.324-.324V95.068c0-.178.146-.326.324-.326h15.272c.179 0 .324.148.324.326m-30.313 16.033h-2.246c-.179 0-.324.144-.324.324v2.244c0 .179.145.326.324.326h2.246c.178 0 .324-.147.324-.326v-2.244c0-.18-.146-.324-.324-.324m4.343 0h-2.247c-.179 0-.324.144-.324.324v2.244c0 .179.145.326.324.326h2.247c.179 0 .322-.147.322-.326v-2.244c0-.18-.143-.324-.322-.324m4.342 0h-2.248c-.178 0-.324.144-.324.324v2.244c0 .179.146.326.324.326h2.248c.178 0 .322-.147.322-.326v-2.244c0-.18-.144-.324-.322-.324m10.45-.02h-2.246c-.179 0-.324.144-.324.322v2.251c0 .18.145.324.324.324h2.245c.18 0 .326-.143.326-.324v-2.25c0-.18-.145-.323-.326-.323m4.344 0h-2.246c-.18 0-.326.144-.326.322v2.251c0 .18.146.324.326.324h2.246c.178 0 .324-.143.324-.324v-2.25c0-.18-.146-.323-.324-.323m4.341 0h-2.247c-.179 0-.322.144-.322.322v2.251c0 .18.143.324.322.324h2.247c.18 0 .323-.143.323-.324v-2.25c0-.18-.144-.323-.323-.323m-27.82-4.318h-2.245c-.179 0-.324.146-.324.324v2.244c0 .179.145.324.324.324h2.246c.178 0 .324-.145.324-.324v-2.244c0-.178-.146-.324-.324-.324m4.343 0h-2.247c-.179 0-.324.146-.324.324v2.244c0 .179.145.324.324.324h2.247c.179 0 .322-.145.322-.324v-2.244c0-.178-.143-.324-.322-.324m4.342 0h-2.248c-.178 0-.324.146-.324.324v2.244c0 .179.146.324.324.324h2.248c.178 0 .322-.145.322-.324v-2.244c0-.178-.144-.324-.322-.324m10.45-.033h-2.246c-.179 0-.324.146-.324.324v2.251c0 .179.145.323.324.323h2.245c.18 0 .326-.144.326-.323v-2.25c0-.18-.145-.325-.326-.325m4.344 0h-2.246c-.18 0-.326.146-.326.324v2.251c0 .179.146.323.326.323h2.246c.178 0 .324-.144.324-.323v-2.25c0-.18-.146-.325-.324-.325m4.341 0h-2.247c-.179 0-.322.146-.322.324v2.251c0 .179.143.323.322.323h2.247c.18 0 .323-.144.323-.323v-2.25c0-.18-.144-.325-.323-.325m-27.82-4.307h-2.245c-.179 0-.324.144-.324.326v2.244c0 .179.145.324.324.324h2.246c.178 0 .324-.145.324-.324v-2.244c0-.182-.146-.326-.324-.326m4.343 0h-2.247c-.179 0-.324.144-.324.326v2.244c0 .179.145.324.324.324h2.247c.179 0 .322-.145.322-.324v-2.244c0-.182-.143-.326-.322-.326m4.342 0h-2.248c-.178 0-.324.144-.324.326v2.244c0 .179.146.324.324.324h2.248c.178 0 .322-.145.322-.324v-2.244c0-.182-.144-.326-.322-.326m10.45-.042h-2.246c-.179 0-.324.146-.324.324v2.251c0 .179.145.324.324.324h2.245c.18 0 .326-.145.326-.324v-2.25c0-.18-.145-.325-.326-.325m4.344 0h-2.246c-.18 0-.326.146-.326.324v2.251c0 .179.146.324.326.324h2.246c.178 0 .324-.145.324-.324v-2.25c0-.18-.146-.325-.324-.325m4.341 0h-2.247c-.179 0-.322.146-.322.324v2.251c0 .179.143.324.322.324h2.247c.18 0 .323-.145.323-.324v-2.25c0-.18-.144-.325-.323-.325m-8.685-4.253h-2.245c-.179 0-.324.144-.324.324v2.253c0 .175.145.324.324.324h2.245c.18 0 .326-.15.326-.324v-2.253c0-.18-.145-.324-.326-.324m4.344 0h-2.246c-.18 0-.326.144-.326.324v2.253c0 .175.146.324.326.324h2.246c.178 0 .324-.15.324-.324v-2.253c0-.18-.146-.324-.324-.324m4.341 0h-2.247c-.179 0-.322.144-.322.324v2.253c0 .175.143.324.322.324h2.247c.18 0 .323-.15.323-.324v-2.253c0-.18-.144-.324-.323-.324" transform="translate(-18.059 4.515) translate(0 .053)"/>
                    <path fill="#408537" d="M138.97 85.393h-22.435c-1.008-.01-1.82-.827-1.82-1.835v-9.586h2.448v8.975h21.212v-8.975h2.446v9.586c0 .49-.195.956-.543 1.304-.348.341-.818.536-1.308.53zM132.6 69.844l-3.624 3.62V60.918h-2.446v12.546l-3.656-3.62-1.73 1.728 6.626 6.574 6.526-6.574-1.696-1.728z" transform="translate(-18.059 4.515) translate(0 .053)"/>
                </g>
                <g transform="translate(-18.059 4.515) translate(114.064 60.22)">
                    <mask id="prefix__d" fill="#fff">
                        <use xlink:href="#prefix__c"/>
                    </mask>
                    <path fill="#408537" d="M-3.428 29.306L30.839 29.306 30.839 -3.329 -3.428 -3.329z" mask="url(#prefix__d)"/>
                </g>
                <g>
                    <path fill="#FEFEFE" d="M185.797 9.694l-4.995-7.904c-.89-1.408-2.203-1.93-3.7-1.28-.762.456-.91.788-1.15 1.337-.92-1.308-2.714-1.677-4.077-.815-.587.373-1.004.914-1.223 1.52-.976-.786-2.385-.908-3.503-.2-1.236.779-1.71 2.318-1.2 3.635-.62-.03-1.234.128-1.768.463-1.405.89-1.827 2.752-.94 4.16l1.603 2.534-.525 2.326c-.725 3.216 1.303 6.425 4.52 7.15l6.39 1.443c1.905.427 3.863.092 5.516-.952l2.81-1.776c1.96-1.241 2.861-2.826 3.373-5.09.51-2.263.109-4.593-1.13-6.551" transform="translate(-18.059 4.515) translate(107.635 56.535)"/>
                    <path fill="#4D4F58" d="M182.846 20.211l-2.809 1.776c-1.352.855-2.956 1.13-4.515.78l-6.39-1.443c-2.503-.564-4.08-3.06-3.516-5.563l.232-1.03L167 16.557c.196.31.608.401.918.206.154-.1.254-.25.293-.42.036-.162.012-.343-.087-.497L164.365 9.9c-.24-.382-.317-.833-.217-1.271.098-.437.363-.813.742-1.052.761-.483 1.844-.238 2.325.523l1.247 1.973c.195.31.606.401.915.202.155-.093.256-.246.295-.412.037-.166.011-.346-.087-.503l-2.25-3.56c-.496-.785-.262-1.828.525-2.325.784-.496 1.827-.264 2.324.523l2.251 3.564c.195.31.606.404.916.206.156-.1.256-.25.292-.416.04-.166.013-.346-.084-.503l-1.498-2.368c-.24-.38-.319-.831-.22-1.27.1-.44.364-.814.745-1.055.785-.494 1.83-.26 2.325.523l1.497 2.373c.196.307.608.401.918.206.154-.1.256-.25.292-.416.037-.17.013-.347-.086-.501l-.241-.384c-.767-1.142-.496-1.667.29-2.164.93-.632 1.618-.055 2.099.707l4.995 7.904c1.048 1.66 1.39 3.63.958 5.547-.433 1.92-1.127 3.212-2.787 4.26m2.951-10.518l-4.996-7.904c-.89-1.407-2.203-1.93-3.698-1.28-.763.457-.912.789-1.152 1.337-.919-1.307-2.713-1.676-4.076-.814-.588.372-1.002.914-1.223 1.52-.976-.787-2.385-.908-3.503-.2-1.236.782-1.71 2.318-1.2 3.635-.62-.031-1.234.127-1.768.463-1.405.89-1.827 2.752-.94 4.159l1.603 2.534-.525 2.327c-.726 3.216 1.302 6.425 4.52 7.15l6.39 1.443c1.905.427 3.863.092 5.515-.952l2.811-1.776c1.96-1.238 2.86-2.826 3.373-5.09.51-2.263.109-4.592-1.131-6.552" transform="translate(-18.059 4.515) translate(107.635 56.535)"/>
                    <path stroke="#4D4F58" stroke-width=".25" d="M182.846 20.211l-2.809 1.776c-1.352.855-2.956 1.13-4.515.78l-6.39-1.443c-2.503-.564-4.08-3.06-3.516-5.563l.232-1.03L167 16.557c.196.31.608.401.918.206.154-.1.254-.25.293-.42.036-.162.012-.343-.087-.497L164.365 9.9c-.24-.382-.317-.833-.217-1.271.098-.437.363-.813.742-1.052.761-.483 1.844-.238 2.325.523l1.247 1.973c.195.31.606.401.915.202.155-.093.256-.246.295-.412.037-.166.011-.346-.087-.503l-2.25-3.56c-.496-.785-.262-1.828.525-2.325.784-.496 1.827-.264 2.324.523l2.251 3.564c.195.31.606.404.916.206.156-.1.256-.25.292-.416.04-.166.013-.346-.084-.503l-1.498-2.368c-.24-.38-.319-.831-.22-1.27.1-.44.364-.814.745-1.055.785-.494 1.83-.26 2.325.523l1.497 2.373c.196.307.608.401.918.206.154-.1.256-.25.292-.416.037-.17.013-.347-.086-.501l-.241-.384c-.767-1.142-.496-1.667.29-2.164.93-.632 1.618-.055 2.099.707l4.995 7.904c1.048 1.66 1.39 3.63.958 5.547-.433 1.92-1.127 3.212-2.787 4.26zm2.951-10.518l-4.996-7.904c-.89-1.407-2.203-1.93-3.698-1.28-.763.457-.912.789-1.152 1.337-.919-1.307-2.713-1.676-4.076-.814-.588.372-1.002.914-1.223 1.52-.976-.787-2.385-.908-3.503-.2-1.236.782-1.71 2.318-1.2 3.635-.62-.031-1.234.127-1.768.463-1.405.89-1.827 2.752-.94 4.159l1.603 2.534-.525 2.327c-.726 3.216 1.302 6.425 4.52 7.15l6.39 1.443c1.905.427 3.863.092 5.515-.952l2.811-1.776c1.96-1.238 2.86-2.826 3.373-5.09.51-2.263.109-4.592-1.131-6.552z" transform="translate(-18.059 4.515) translate(107.635 56.535)"/>
                    <path fill="#FF7000" d="M41.685 84.378l1.971 1.175-2.253.436c-.055.011-1.403.27-3.544.27-4.713 0-13.678-1.27-20.715-9.73-.21-.223-5.003-5.482-4.922-16.652H.446l19.699-19.592 19.698 19.592H27.9c-.477 3.043-1.373 15.482 13.785 24.5" transform="translate(-18.059 4.515) translate(107.635 56.535)"/>
                </g>
            </g>
        </g>
    </g>
</svg>
