<svg xmlns="http://www.w3.org/2000/svg" width="1199" height="336" viewBox="0 0 1199 336">
    <g fill="none" fill-rule="evenodd">
        <g>
            <path fill="#FFF" d="M1095.73 38.285h-19.14c2.811-9.228 16.33-9.228 19.14 0zm35.187 0h-22.638c1.367-13.487 21.272-13.487 22.638 0zm-109.346 0h-30.927c2.862-16.492 30.618-14.896 30.927 0z" opacity=".354" transform="translate(0 14.464)"/>
            <path fill="#000" d="M1198.073 318.348L0 318.348 95.486 247.017 119.134 258.074 210.314 176.551 239.535 206.959 293.723 176.693 300.128 184.112 432.819 77.266 514.509 145.084 541.335 122.043 577.488 157.402 632.487 112.785 703.889 172.5 873.837 207.56 977.275 161.379 1028.07 209.922 1037.458 202.621 1198.073 318.348" opacity=".118" transform="translate(0 14.464)"/>
            <g>
                <path fill="#67A843" d="M623.057 158.753H0C186.004 158.753 199.465 0 345.394 0c112.979 0 142.584 158.753 277.663 158.753" transform="translate(0 14.464) translate(71.703 162.437)"/>
                <path fill="#609E43" d="M623.057 158.753H335.186V.295C338.524.118 341.91 0 345.394 0c112.979 0 142.584 158.753 277.663 158.753" transform="translate(0 14.464) translate(71.703 162.437)"/>
                <path fill="#95B33D" d="M844.356 158.753H351.223c147.219 0 157.872-125.648 273.37-125.648 89.421 0 112.852 125.648 219.763 125.648" transform="translate(0 14.464) translate(71.703 162.437)"/>
                <path fill="#3A9946" d="M612.18 57.829L605.598 100.549 619.384 100.549 612.18 57.829" transform="translate(0 14.464) translate(71.703 162.437)"/>
                <path fill="#328140" d="M612.18 57.829L619.384 100.549 607.489 100.549 617.451 99.596 612.69 98.509 616.715 95.974 610.752 94.767 616.272 91.508 610.121 91.388 615.95 87.042 610.395 87.042 615.597 83.566 612.775 83.782 614.77 81.571 611.078 79.006 613.505 75.522 611.57 72.888 613.552 71.924 612.104 71.469 613.166 69.302 612.022 68.934 612.948 68.119 612.401 66.761 612.664 64.98 612.183 64.468 612.18 57.829" transform="translate(0 14.464) translate(71.703 162.437)"/>
                <path fill="#7D983D" d="M630.248 18.977c6.657 0 10.169 33.108 9.9 40.807h-17.631c-1.257-7.699-1.23-40.807 7.731-40.807" transform="translate(0 14.464) translate(71.703 162.437)"/>
                <path fill="#514235" d="M629.952 59.784L632.023 59.784 632.294 64.001 630.222 64.001 629.952 59.784" transform="translate(0 14.464) translate(71.703 162.437)"/>
                <path fill="#6A8039" d="M630.159 19.84c6.658 0 10.258 32.245 9.989 39.944h-9.16c.661-7.699 2.202-33.905-.83-39.945" transform="translate(0 14.464) translate(71.703 162.437)"/>
                <path fill="#7D983D" d="M278.972 3.959c8.879 0 10.726 44.151 9.71 54.417H265.17c-1.017-10.266 1.855-54.417 13.803-54.417" transform="translate(0 14.464) translate(71.703 162.437)"/>
                <path fill="#514235" d="M275.083 64.001L277.846 64.001 277.846 58.376 275.083 58.376z" transform="translate(0 14.464) translate(71.703 162.437)"/>
                <path fill="#6A8039" d="M278.78 5.108c8.88 0 10.918 43.002 9.902 53.268h-12.216c1.54-10.266 5.84-45.214 2.314-53.268" transform="translate(0 14.464) translate(71.703 162.437)"/>
                <path fill="#7BA941" d="M649.51 26.497c9.922 0 13.209 27.578 12.356 33.99h-26.277c-1.42-6.412.567-33.99 13.92-33.99" transform="translate(0 14.464) translate(71.703 162.437)"/>
                <path fill="#514235" d="M646.67 60.488L649.758 60.488 649.914 64.001 646.825 64.001 646.67 60.488" transform="translate(0 14.464) translate(71.703 162.437)"/>
                <path fill="#68903F" d="M649.326 27.215c9.923 0 13.393 26.86 12.54 33.273h-13.652c1.438-6.412 5.275-28.243 1.112-33.273" transform="translate(0 14.464) translate(71.703 162.437)"/>
                <path fill="#338158" d="M550.075 18.537L540.285 64.001 558.02 64.001 550.075 18.537" transform="translate(0 14.464) translate(71.703 162.437)"/>
                <path fill="#2B6848" d="M550.075 18.537L558.02 64.001 542.716 64.001 555.563 62.99 543.124 59.941 554.727 59.134 545.335 55.81 554.296 54.382 544.316 52.62 554.02 49.627 546.874 49.627 553.673 45.929 550.036 46.159 552.67 43.804 546.953 41.087 552.249 38.049 548.412 37.659 551.992 36.459 547.475 36.365 551.893 34.649 548.309 34.165 551.708 32.301 550.083 28.044 550.476 26.149 549.874 25.603 550.075 18.537" transform="translate(0 14.464) translate(71.703 162.437)"/>
                <path fill="#3A9946" d="M226.053 2.716L216.611 64.001 236.388 64.001 226.053 2.716" transform="translate(0 14.464) translate(71.703 162.437)"/>
                <path fill="#328140" d="M226.053 2.716L236.388 64.001 219.322 64.001 233.615 62.636 226.785 61.077 232.558 57.441 224.004 55.709 231.924 51.033 223.098 50.859 231.462 44.625 223.492 44.625 230.953 39.639 226.906 39.949 229.767 36.777 224.472 33.098 227.953 28.097 225.179 24.32 228.022 22.938 225.944 22.285 227.467 19.177 225.826 18.649 227.156 17.479 226.369 15.531 226.748 12.977 226.058 12.241 226.053 2.716M304.437 57.43c8.357 0 13.018 28.88 12.74 35.595h-22.13c-1.637-6.715-1.857-35.595 9.39-35.595" transform="translate(0 14.464) translate(71.703 162.437)"/>
                <path fill="#514235" d="M304.378 93.025L306.979 93.025 307.351 96.705 304.751 96.705 304.378 93.025" transform="translate(0 14.464) translate(71.703 162.437)"/>
                <path fill="#2D6936" d="M304.332 58.183c8.357 0 13.123 28.127 12.846 34.842h-11.5c.772-6.715 2.505-29.574-1.346-34.842" transform="translate(0 14.464) translate(71.703 162.437)"/>
                <path fill="#7D983D" d="M712.753 58.694c6.189 0 7.477 30.777 6.768 37.933h-16.39c-.708-7.156 1.293-37.933 9.622-37.933" transform="translate(0 14.464) translate(71.703 162.437)"/>
                <path fill="#514235" d="M710.042 100.549L711.968 100.549 711.968 96.627 710.042 96.627z" transform="translate(0 14.464) translate(71.703 162.437)"/>
                <path fill="#6A8039" d="M712.619 59.496c6.188 0 7.611 29.975 6.902 37.13h-8.515c1.074-7.155 4.07-31.516 1.613-37.13" transform="translate(0 14.464) translate(71.703 162.437)"/>
                <path fill="#7BA941" d="M699.137 74.405c6.916 0 9.208 19.224 8.613 23.694h-18.316c-.99-4.47.395-23.694 9.703-23.694" transform="translate(0 14.464) translate(71.703 162.437)"/>
                <path fill="#514235" d="M697.157 98.099L699.309 98.099 699.419 100.549 697.266 100.549 697.157 98.099" transform="translate(0 14.464) translate(71.703 162.437)"/>
                <path fill="#68903F" d="M699.01 74.906c6.916 0 9.335 18.723 8.74 23.193h-9.516c1.002-4.47 3.677-19.687.776-23.193" transform="translate(0 14.464) translate(71.703 162.437)"/>
                <path fill="#338158" d="M260.34 43.237c5.87 0 8.417 13.805 8.7 20.764h-18.697c-.11-6.96 2.1-20.764 9.997-20.764" transform="translate(0 14.464) translate(71.703 162.437)"/>
                <path fill="#2B6848" d="M260.213 43.739c5.86 0 8.5 13.402 8.818 20.262h-8.995c1.136-6.197 2.606-17.325.177-20.262" transform="translate(0 14.464) translate(71.703 162.437)"/>
                <path fill="#514235" d="M422.425 60.488L425.512 60.488 425.668 64.001 422.581 64.001 422.425 60.488" transform="translate(0 14.464) translate(71.703 162.437)"/>
            </g>
            <path fill="#C8C155" d="M1198.073 318.348H0c0-31.31 37.22-11.11 86.666-20.68 23.489-4.544 50.632 11.37 78.643 5.074 51.36-11.544 109.187-20.77 159.842-21.01 58.345-.277 99.836 13.072 201.658 23.07 57.93 5.69 100.86-10.722 196.854-11.858 46.44-.549 92.913 7.781 138.541 10.037 54.648 2.703 107.605-1.131 151.325-9.975 46.07-9.32 53.222 22.182 94.197 12.787 60.806-13.942 90.347-11.631 90.347 12.555" transform="translate(0 14.464)"/>
            <path fill="#155D35" d="M334.279 113.512L302.744 318.348 368.797 318.348 334.279 113.512" transform="translate(0 14.464)"/>
            <path fill="#12462A" d="M334.279 113.513L368.797 318.348 311.802 318.348 359.539 313.785 336.722 308.574 356.006 296.419 327.439 290.631 353.887 275.003 324.412 274.424 352.345 253.586 325.728 253.586 350.647 236.923 337.129 237.959 346.685 227.352 329.001 215.057 340.627 198.346 331.359 185.72 340.854 181.1 333.913 178.918 339.004 168.531 333.522 166.763 337.965 162.856 335.337 156.345 336.6 147.807 334.296 145.346 334.279 113.513" transform="translate(0 14.464)"/>
            <path fill="#2D6936" d="M786.615 294.744c12.2 0 18.827 13.163 21.317 23.604h-46.506c1.897-10.441 8.771-23.604 25.19-23.604" transform="translate(0 14.464)"/>
            <path fill="#24512C" d="M786.286 295.48c12.13 0 18.904 12.674 21.524 22.868h-20.044c2.17-8.84 3.407-19.51-1.48-22.869" transform="translate(0 14.464)"/>
            <path fill="#3A9946" d="M238.951 171.291L216.312 318.348 263.733 318.348 238.951 171.291" transform="translate(0 14.464)"/>
            <path fill="#328140" d="M238.951 171.291L263.733 318.348 222.814 318.348 257.087 315.072 240.705 311.331 254.549 302.605 234.041 298.45 253.028 287.229 231.867 286.813 251.921 271.854 232.812 271.854 250.702 259.89 240.998 260.634 247.857 253.02 235.162 244.193 243.508 232.196 236.855 223.13 243.672 219.814 238.688 218.247 242.344 210.791 238.407 209.521 241.597 206.715 239.711 202.041 240.618 195.911 238.964 194.145 238.951 171.291" transform="translate(0 14.464)"/>
            <path fill="#698F3F" d="M857.688 187.906c29.436 0 35 95.918 31.5 118.22h-77.956c-3.24-22.302 6.84-118.22 46.456-118.22" transform="translate(0 14.464)"/>
            <path fill="#567537" d="M857.037 190.405c29.437 0 35.652 93.419 32.15 115.722h-40.503c5.24-22.303 19.937-98.227 8.353-115.722" transform="translate(0 14.464)"/>
            <path fill="#177166" d="M134.611 205.916L116.885 318.348 161.108 318.348 134.611 205.916" transform="translate(0 14.464)"/>
            <path fill="#13574E" d="M161.108 318.348L134.611 205.916 133.793 217.288 136.916 218.472 134.302 219.801 137.047 219.994 134.301 225.251 139.162 228.563 134.12 234.384 140.74 241.309 137.463 245.97 142.02 252.401 133.648 250.832 142.159 258.001 131.666 264.414 144.914 265.147 137.555 271.016 149.576 276.7 145.897 278.166 150.067 280.367 138.536 283.301 150.313 283.852 144.67 285.685 151.785 288.252 128.722 294.854 153.748 297.422 133.63 297.238 153.748 301.639 131.666 303.29 153.748 305.856 143.688 307.324 152.031 310.258 135.592 313.375 153.502 315.209 116.885 318.348 161.108 318.348" transform="translate(0 14.464)"/>
            <path fill="#0C8948" d="M286.553 245.303L273.827 318.348 303.474 318.348 286.553 245.303" transform="translate(0 14.464)"/>
            <path fill="#13713F" d="M286.553 245.303L303.474 318.348 283.149 318.348 300.069 316.721 291.815 314.863 298.419 310.529 288.101 308.464 297.181 302.891 286.657 302.685 296.149 295.255 286.657 295.255 296.01 292.81 282.988 286.765 293.539 285.899 282.52 282.003 290.165 280.805 283.413 275.799 291.609 274.098 284.787 269.016 289.476 264.923 285.151 264.163 288.978 262.899 287.895 260.578 288.153 257.532 287.276 256.656 286.553 245.303" transform="translate(0 14.464)"/>
            <path fill="#698F3F" d="M1057.82 238.514c18.007 0 21.421 58.704 19.275 72.354h-47.711c-1.983-13.65 4.185-72.354 28.435-72.354" transform="translate(0 14.464)"/>
            <path fill="#567537" d="M1057.419 240.044c18.018 0 21.822 57.174 19.676 70.824h-24.792c3.214-13.65 12.201-60.117 5.116-70.824" transform="translate(0 14.464)"/>
            <path fill="#328140" d="M1101.987 260.871c28.106 0 43.789 42.265 42.854 52.092H1070.4c-5.506-9.827-6.25-52.092 31.588-52.092" transform="translate(0 14.464)"/>
            <path fill="#2D6936" d="M1101.63 261.972c28.107 0 44.146 41.164 43.211 50.991h-38.683c2.602-9.827 8.43-43.282-4.527-50.991" transform="translate(0 14.464)"/>
            <path fill="#338158" d="M930.456 127.501L885.171 318.348 967.197 318.348 930.456 127.501" transform="translate(0 14.464)"/>
            <path fill="#2B6848" d="M930.456 127.501L967.197 318.348 896.418 318.348 955.835 314.096 898.306 301.299 951.968 297.917 908.528 283.957 949.977 277.963 903.818 270.571 948.702 258.01 915.648 258.01 947.092 242.484 930.274 243.449 942.458 233.566 916.01 222.161 940.508 209.408 922.766 207.772 939.319 202.732 918.425 202.336 938.863 195.134 922.283 193.106 938.003 185.278 930.491 167.409 932.313 159.454 929.526 157.162 930.456 127.501" transform="translate(0 14.464)"/>
            <path fill="#177166" d="M803.611 244.828L792.02 318.348 820.938 318.348 803.611 244.828" transform="translate(0 14.464)"/>
            <path fill="#13574E" d="M820.938 318.348L803.611 244.828 803.076 252.263 805.12 253.038 803.41 253.908 805.204 254.033 803.409 257.471 806.587 259.636 803.29 263.442 807.62 267.971 805.477 271.019 808.456 275.225 802.982 274.199 808.548 278.886 801.686 283.08 810.349 283.559 805.537 287.396 813.398 291.113 810.991 292.073 813.718 293.512 806.178 295.43 813.879 295.791 810.189 296.989 814.842 298.668 799.761 302.986 816.125 304.664 802.97 304.543 816.125 307.422 801.686 308.501 816.125 310.18 809.547 311.139 815.002 313.058 804.253 315.096 815.965 316.296 792.02 318.348 820.938 318.348" transform="translate(0 14.464)"/>
            <path fill="#7D983D" d="M753.963 240.359c13.968 0 19.17 57.348 18.104 70.682h-36.988c-2.133-13.334.087-70.682 18.884-70.682" transform="translate(0 14.464)"/>
            <path fill="#6A8039" d="M753.72 241.853c13.968 0 19.414 55.854 18.347 69.188H752.85c1.89-13.334 6.836-58.728.87-69.188" transform="translate(0 14.464)"/>
            <path fill="#7D983D" d="M168.626 220.846c14.407 0 22.005 71.696 21.424 88.367h-38.152c-2.72-16.671-2.66-88.367 16.728-88.367" transform="translate(0 14.464)"/>
            <path fill="#6A8039" d="M168.435 222.714c14.407 0 22.196 69.83 21.615 86.499h-19.823c1.431-16.67 4.767-73.422-1.792-86.499" transform="translate(0 14.464)"/>
            <path fill="#7BA941" d="M206.872 237.131c21.472 0 28.585 59.721 26.74 73.607h-56.86c-3.074-13.886 1.225-73.607 30.12-73.607" transform="translate(0 14.464)"/>
            <path fill="#68903F" d="M206.477 238.686c21.47 0 28.98 58.166 27.136 72.052h-29.544c3.112-13.886 11.415-61.158 2.408-72.052" transform="translate(0 14.464)"/>
            <path fill="#338158" d="M272.651 219.894L251.464 318.348 289.841 318.348 272.651 219.894" transform="translate(0 14.464)"/>
            <path fill="#2B6848" d="M272.651 219.894L289.841 318.348 256.726 318.348 284.526 316.155 257.608 309.553 282.716 307.808 262.392 300.607 281.784 297.514 260.189 293.701 281.188 287.221 265.723 287.221 280.435 279.211 272.566 279.709 278.266 274.611 265.893 268.727 277.354 262.147 269.053 261.304 276.798 258.704 267.022 258.499 276.584 254.784 268.827 253.737 276.182 249.7 272.668 240.481 273.52 236.378 272.216 235.195 272.651 219.894" transform="translate(0 14.464)"/>
            <path fill="#3A9946" d="M684.849 207.816L667.423 318.348 710.899 318.348 684.849 207.816" transform="translate(0 14.464)"/>
            <path fill="#328140" d="M710.899 318.348L684.849 207.816 684.045 218.995 687.116 220.159 684.547 221.466 687.245 221.654 684.546 226.823 689.324 230.078 684.368 235.801 690.875 242.609 687.654 247.192 692.134 253.515 683.904 251.973 692.27 259.02 681.954 265.325 694.98 266.046 687.743 271.815 699.562 277.403 695.945 278.845 700.045 281.009 688.709 283.894 700.286 284.434 694.738 286.237 701.733 288.76 679.06 295.251 703.663 297.775 683.885 297.594 703.663 301.921 681.954 303.543 703.663 306.068 693.774 307.51 701.974 310.395 685.815 313.46 703.421 315.262 667.423 318.348 710.899 318.348" transform="translate(0 14.464)"/>
            <path fill="#698F3F" d="M655.267 264.28c22.21 0 26.408 39.757 23.766 49.003h-58.816c-2.445-9.246 5.16-49.004 35.05-49.004" transform="translate(0 14.464)"/>
            <path fill="#567537" d="M654.775 265.315c22.21 0 26.9 38.723 24.258 47.968h-30.56c3.954-9.245 15.043-40.716 6.302-47.968" transform="translate(0 14.464)"/>
            <path fill="#2B6848" d="M580.829 203.664L563.173 318.348 600.155 318.348 580.829 203.664" transform="translate(0 14.464)"/>
            <path fill="#24523A" d="M580.829 203.666L600.155 318.348 568.244 318.348 594.971 315.793 582.197 312.877 592.993 306.071 576.999 302.83 591.807 294.08 575.304 293.756 590.944 282.089 576.041 282.089 589.993 272.76 582.424 273.34 587.775 267.402 577.874 260.517 584.382 251.162 579.194 244.092 584.51 241.506 580.623 240.284 583.474 234.47 580.405 233.479 582.892 231.291 581.422 227.646 582.128 222.865 580.838 221.488 580.829 203.666" transform="translate(0 14.464)"/>
            <path fill="#7D983D" d="M558.537 193.026c18.517 0 23.446 92.153 21.576 113.58h-49.04c-2.37-21.427 2.543-113.58 27.464-113.58" transform="translate(0 14.464)"/>
            <path fill="#6A8039" d="M558.164 195.427c18.518 0 23.82 89.753 21.949 111.18h-25.48c2.964-21.427 11.08-94.371 3.53-111.18" transform="translate(0 14.464)"/>
            <path fill="#514235" d="M367.45 318.348L357.781 318.348 362.405 197.568 372.073 197.568 367.45 318.348" transform="translate(0 14.464)"/>
            <path fill="#567537" d="M376.948 199.735c36.985 0 51.851-49.974 49.282-61.594-23.036-10.585-56.614-9.56-97.943 0-5.903 11.62-1.112 61.594 48.66 61.594" transform="translate(0 14.464)"/>
            <path fill="#435C2E" d="M369.123 199.037c42.556 0 59.315-48.672 56.107-60.29-6.797 7.039-22.607 12.378-40.543 14.504 5.72 11.62 2.64 36.67-15.564 45.786" transform="translate(0 14.464)"/>
            <path fill="#514235" d="M365.346 213.644l3.238 3.391c23.887-10.874 20.676-9.37 44.547-20.279 1.468-.67-.228-4.76-1.848-4.023l-45.937 20.911" transform="translate(0 14.464)"/>
            <path fill="#567537" d="M405.59 190.832c18.492 0 25.925-17.887 24.64-22.047-11.517-3.788-28.306-3.422-48.97 0-2.952 4.16-.556 22.047 24.33 22.047" transform="translate(0 14.464)"/>
            <path fill="#435C2E" d="M401.677 190.583c21.279 0 29.658-17.422 28.054-21.581-3.399 2.519-11.303 4.43-20.271 5.192 2.86 4.16 1.32 13.126-7.783 16.389" transform="translate(0 14.464)"/>
            <path fill="#514235" d="M390.415 203.725c1.836-5.441 3.669-10.882 5.496-16.324.31-.924-2.19-1.864-2.533-.845l-6.953 20.605 3.99-3.436M365.44 231.55c-4.703-3.29-9.408-6.58-14.117-9.863-.799-.557-2.403 1.578-1.522 2.194l17.816 12.464-2.177-4.795" transform="translate(0 14.464)"/>
            <path fill="#338158" d="M354.104 269.4c12.941 0 17.228 35.993 16.116 44.362H335.95c-1.852-8.369.739-44.363 18.153-44.363" transform="translate(0 14.464)"/>
            <path fill="#2B6848" d="M353.866 270.337c12.941 0 17.466 35.056 16.354 43.425h-17.805c1.876-8.369 6.88-36.86 1.451-43.425" transform="translate(0 14.464)"/>
            <path fill="#7D983D" d="M1149.913 187.032c19.409 0 27.072 96.56 25.693 119.012h-51.386c-3.07-22.452-.422-119.012 25.693-119.012" transform="translate(0 14.464)"/>
            <path fill="#6A8039" d="M1149.59 189.548c19.398 0 27.395 94.046 26.016 116.496h-26.705c2.525-22.45 9.054-98.884.69-116.496" transform="translate(0 14.464)"/>
            <path fill="#7D983D" d="M306.554 227.714c13.392 0 16.18 66.646 14.646 82.142h-35.467c-1.532-15.496 2.798-82.142 20.82-82.142" transform="translate(0 14.464)"/>
            <path fill="#6A8039" d="M306.264 229.45c13.393 0 16.47 64.91 14.936 80.406h-18.428c2.325-15.496 8.81-68.25 3.492-80.406" transform="translate(0 14.464)"/>
            <path fill="#7BA941" d="M381.548 261.735c14.966 0 19.925 41.63 18.639 51.309h-39.635c-2.142-9.68.854-51.31 20.996-51.31" transform="translate(0 14.464)"/>
            <path fill="#68903F" d="M381.272 262.82c14.966 0 20.2 40.545 18.915 50.224h-20.593c2.168-9.679 7.957-42.631 1.678-50.225" transform="translate(0 14.464)"/>
            <path fill="#2D6936" d="M874.748 254.41c16.903 0 22.503 47.016 21.052 57.948h-44.764c-2.419-10.932.965-57.948 23.712-57.948" transform="translate(0 14.464)"/>
            <path fill="#24512C" d="M874.437 255.635c16.904 0 22.814 45.791 21.363 56.723h-23.258c2.45-10.932 8.987-48.147 1.895-56.723" transform="translate(0 14.464)"/>
            <path fill="#FFF" d="M946.99 21.602c-8.65-28.517-44.982-27.19-52.15 1.64-8.483-5.644-20.35-3.13-25.548 5.788-4.64-10.43-17.805-5.903-19.02 2.879-2.634-.362-5.347-.007-7.826 1.064-7.407-11.508-33.766-9.895-31.48 5.312H984.43c-1.924-18.302-22.893-27.477-37.44-16.683M386.045 50.733h-15.708c1.798-8.86 13.91-8.86 15.708 0zM326.773 40.06c-8.031-24.556-46.727-14.766-40.906 10.673h69.406c2.334-15.176-18.959-22.505-28.5-10.673zM277.33 50.733h-52.012c-2.234-10.622 11.908-16.246 20.406-10.702 9.007-16.15 36.155-7.215 31.606 10.702zM182.254 50.733h-14.152c2.078-6.822 12.073-6.822 14.152 0zm26.015 0h-16.738c1.01-9.97 15.727-9.97 16.738 0zm-86.894-4.018c-.742-13.666 12.171-16.913 19.558-5.69 6.854-3.454 15.365 3.275 10.96 9.708h-47.335c-.338-6.054 11.956-12.121 16.817-4.018z" opacity=".354" transform="translate(0 14.464)"/>
            <path fill="#514235" d="M1034.033 318.348L1042.931 318.348 1046.384 207.181 1037.486 207.181 1034.033 318.348" transform="translate(0 14.464)"/>
            <path fill="#567537" d="M1044.018 208.064c39.172 0 47.324-45.997 42.831-56.692-26.004-9.743-61.407-8.8-103.723 0-4.486 10.695 8.179 56.692 60.892 56.692" transform="translate(0 14.464)"/>
            <path fill="#435C2E" d="M1043.17 206.865c39.174 0 48.172-44.799 43.679-55.493-5.328 6.48-19.175 11.394-35.403 13.351 6.807 10.694 7.274 33.752-8.276 42.142" transform="translate(0 14.464)"/>
            <path fill="#514235" d="M1042.137 258.07h-4.315c-7.951-22.815-15.937-45.62-23.855-68.449-.487-1.404 3.312-2.874 3.853-1.326l24.317 69.776" transform="translate(0 14.464)"/>
            <path fill="#514235" d="M1024.174 212.75c2.69-4.547 5.381-9.094 8.077-13.64.457-.77 2.615.409 2.111 1.26l-10.188 17.23v-4.85M1097.816 318.348L1089.93 318.348 1093.7 219.897 1101.586 219.897 1097.816 318.348" transform="translate(0 14.464)"/>
            <path fill="#567537" d="M1105.557 221.664c30.153 0 42.265-40.735 40.174-50.207-18.774-8.628-46.147-7.792-79.837 0-4.816 9.472-.912 50.207 39.663 50.207" transform="translate(0 14.464)"/>
            <path fill="#435C2E" d="M1099.184 221.095c34.68 0 48.35-39.673 45.735-49.145-5.55 5.739-18.43 10.09-33.056 11.824 4.66 9.471 2.158 29.891-12.68 37.321" transform="translate(0 14.464)"/>
            <path fill="#514235" d="M1096.103 233.002l2.636 2.764c19.475-8.864 16.85-7.637 36.315-16.53 1.19-.547-.19-3.88-1.513-3.279l-37.438 17.045" transform="translate(0 14.464)"/>
            <path fill="#567537" d="M1077.14 246.267c10.688 0 14.981-14.58 14.236-17.97-6.651-3.088-16.361-2.79-28.307 0-1.702 3.39-.322 17.97 14.07 17.97" transform="translate(0 14.464)"/>
            <path fill="#435C2E" d="M1074.87 246.064c12.302 0 17.151-14.201 16.217-17.591-1.958 2.054-6.53 3.612-11.712 4.232 1.646 3.39.756 10.7-4.505 13.359" transform="translate(0 14.464)"/>
            <path fill="#514235" d="M1116.535 224.916c1.501-4.435 2.992-8.87 4.482-13.305.256-.754-1.79-1.52-2.069-.69l-5.66 16.798 3.247-2.803M1096.18 247.597c-3.837-2.682-7.674-5.364-11.511-8.04-.645-.453-1.958 1.288-1.235 1.79l14.515 10.16-1.768-3.91" transform="translate(0 14.464)"/>
            <path fill="#328140" d="M49.405 233.3c18.084 0 28.17 62.539 27.57 77.08H29.086c-3.541-14.541-4.017-77.08 20.319-77.08" transform="translate(0 14.464)"/>
            <path fill="#2D6936" d="M49.179 234.93c18.083 0 28.397 60.909 27.796 75.45H52.093c1.67-14.541 5.419-64.044-2.914-75.45" transform="translate(0 14.464)"/>
            <path fill="#514235" d="M839.352 256.502c-4.352-6.002-8.709-12.002-13.07-17.997-.742-1.018-3.6.912-2.785 2.036l16.491 22.735-.636-6.774" transform="translate(0 14.464)"/>
            <path fill="#514235" d="M845.633 318.348L834.711 318.348 839.934 215.512 850.856 215.512 845.633 318.348" transform="translate(0 14.464)"/>
            <path fill="#38753E" d="M846.991 248.381c38.041 0 53.332-63.867 50.69-78.718-23.695-13.528-58.232-12.219-100.74 0-6.071 14.85-1.144 78.718 50.05 78.718" transform="translate(0 14.464)"/>
            <path fill="#2E5C33" d="M838.943 247.49c43.771 0 61.008-62.204 57.71-77.054-6.992 8.998-23.254 15.821-41.701 18.538 5.882 14.85 2.715 46.866-16.009 58.516" transform="translate(0 14.464)"/>
            <path fill="#514235" d="M843.68 264.658l4.2.986c12.953-20.396 11.234-17.62 24.156-38.035.795-1.256-2.569-3.556-3.447-2.172l-24.909 39.221" transform="translate(0 14.464)"/>
            <path fill="#38753E" d="M799.686 206.947c12.486 0 17.505-12.076 16.637-14.885-7.777-2.558-19.111-2.31-33.062 0-1.993 2.809-.376 14.885 16.425 14.885" transform="translate(0 14.464)"/>
            <path fill="#2E5C33" d="M797.046 206.779c14.366 0 20.022-11.763 18.94-14.57-2.294 1.7-7.632 2.99-13.687 3.505 1.93 2.807.892 8.862-5.253 11.065" transform="translate(0 14.464)"/>
            <path fill="#514235" d="M860.395 239.344c-3.028-4.331-6.059-8.66-9.094-12.985-.515-.734-2.575.606-2.007 1.417l11.471 16.4-.37-4.832" transform="translate(0 14.464)"/>
            <path fill="#38753E" d="M875.864 234.971c17.02 0 23.862-24.217 22.68-29.848-10.601-5.129-26.055-4.633-45.074 0-2.716 5.63-.512 29.848 22.394 29.848" transform="translate(0 14.464)"/>
            <path fill="#2E5C33" d="M872.262 234.634c19.585 0 27.297-23.588 25.822-29.217-3.128 3.411-10.405 5.999-18.659 7.03 2.632 5.63 1.215 17.77-7.163 22.187" transform="translate(0 14.464)"/>
            <path fill="#514235" d="M961.755 318.348L950.784 318.348 956.029 123.953 967 123.953 961.755 318.348" transform="translate(0 14.464)"/>
            <path fill="#567537" d="M972.534 126.413c41.969 0 58.838-56.71 55.923-69.895-26.14-12.013-64.244-10.85-111.144 0-6.698 13.185-1.263 69.895 55.22 69.895" transform="translate(0 14.464)"/>
            <path fill="#435C2E" d="M963.653 125.621c48.293 0 67.309-55.232 63.67-68.417-7.714 7.988-25.655 14.046-46.008 16.46 6.49 13.185 2.996 41.614-17.662 51.957" transform="translate(0 14.464)"/>
            <path fill="#514235" d="M959.367 142.198l3.674 3.847c27.107-12.34 23.463-10.632 50.552-23.012 1.666-.762-.259-5.402-2.099-4.566l-52.127 23.73" transform="translate(0 14.464)"/>
            <path fill="#567537" d="M1005.036 116.31c20.984 0 29.42-20.299 27.963-25.019-13.072-4.299-32.123-3.883-55.574 0-3.349 4.72-.63 25.019 27.61 25.019" transform="translate(0 14.464)"/>
            <path fill="#435C2E" d="M1000.596 116.027c24.145 0 33.654-19.77 31.835-24.49-3.857 2.86-12.827 5.03-23.004 5.892 3.245 4.72 1.498 14.896-8.831 18.598" transform="translate(0 14.464)"/>
            <path fill="#514235" d="M987.815 130.94c2.083-6.173 4.164-12.347 6.238-18.524.352-1.048-2.484-2.114-2.875-.958l-7.891 23.383 4.528-3.902M959.474 162.516c-5.337-3.734-10.677-7.467-16.02-11.192-.907-.633-2.726 1.791-1.727 2.49l20.218 14.144-2.471-5.442" transform="translate(0 14.464)"/>
            <path fill="#7D983D" d="M982.703 203.068c17.034 0 20.579 84.769 18.628 104.48h-45.108c-1.951-19.711 3.556-104.48 26.48-104.48" transform="translate(0 14.464)"/>
            <path fill="#6A8039" d="M982.335 205.277c17.034 0 20.947 82.561 18.996 102.27h-23.438c2.957-19.709 11.205-86.809 4.442-102.27" transform="translate(0 14.464)"/>
            <path fill="#514235" d="M227.246 318.348L216.634 318.348 221.708 218.437 232.32 218.437 227.246 318.348" transform="translate(0 14.464)"/>
            <path fill="#38753E" d="M228.565 250.372c36.959 0 51.815-62.052 49.248-76.48-23.02-13.143-56.575-11.872-97.875 0-5.898 14.428-1.111 76.48 48.627 76.48" transform="translate(0 14.464)"/>
            <path fill="#2E5C33" d="M220.746 249.505c42.527 0 59.273-60.434 56.068-74.861-6.792 8.74-22.593 15.37-40.515 18.01 5.715 14.427 2.638 45.533-15.553 56.851" transform="translate(0 14.464)"/>
            <path fill="#514235" d="M225.347 266.186l4.081.958c12.585-19.816 10.915-17.12 23.47-36.954.772-1.22-2.495-3.455-3.35-2.11l-24.2 38.106" transform="translate(0 14.464)"/>
            <path fill="#38753E" d="M231.216 184.71c32.397 0 45.42-31.338 43.17-38.625-20.18-6.638-49.594-5.995-85.796 0-5.17 7.287-.973 38.624 42.626 38.624" transform="translate(0 14.464)"/>
            <path fill="#2E5C33" d="M224.36 184.272c37.279 0 51.958-30.521 49.15-37.808-5.955 4.415-19.805 7.763-35.515 9.097 5.01 7.286 2.312 22.996-13.634 28.711" transform="translate(0 14.464)"/>
            <path fill="#514235" d="M241.587 241.59c-2.942-4.206-5.886-8.412-8.834-12.614-.5-.715-2.503.588-1.951 1.376l11.146 15.934-.36-4.696" transform="translate(0 14.464)"/>
            <path fill="#38753E" d="M263.46 197.197c16.537 0 23.183-23.529 22.034-29-10.299-4.984-25.313-4.501-43.79 0-2.64 5.471-.498 29 21.756 29" transform="translate(0 14.464)"/>
            <path fill="#2E5C33" d="M259.96 196.869c19.029 0 26.522-22.917 25.087-28.388-3.038 3.316-10.108 5.83-18.127 6.83 2.557 5.471 1.181 17.265-6.96 21.558" transform="translate(0 14.464)"/>
            <path fill="#514235" d="M221.144 258.261c-4.228-5.83-6.48-8.928-10.718-14.754-.719-.988-3.497.888-2.705 1.98l14.04 19.355-.617-6.58" transform="translate(0 14.464)"/>
            <path fill="#698F3F" d="M1007.49 290.911c6.717 0 9.38 16.284 9.861 27.437h-23.983c1.058-11.153 5.082-27.437 14.122-27.437" transform="translate(0 14.464)"/>
            <path fill="#567537" d="M1007.29 291.678c6.691 0 9.47 15.74 10.023 26.67h-10.8c1.71-9.618 3.34-22.802.777-26.67" transform="translate(0 14.464)"/>
            <path fill="#328140" d="M974.587 285.296c17.347 0 22.78 23.618 22.135 33.052h-51.569c-.67-9.434 6.089-33.052 29.434-33.052" transform="translate(0 14.464)"/>
            <path fill="#2D6936" d="M974.19 286.046c17.335 0 23.099 22.972 22.523 32.302h-25.65c3.664-8.617 10.082-27.572 3.127-32.302" transform="translate(0 14.464)"/>
            <path fill="#7D983D" d="M254.975 284.368c6.578 0 9.277 25.379 9.134 33.98h-18.763c-.738-8.601.778-33.98 9.63-33.98" transform="translate(0 14.464)"/>
            <path fill="#6A8039" d="M254.854 285.117c6.576 0 9.382 24.702 9.254 33.231h-9.496c1.042-8.026 3.044-28.318.242-33.231" transform="translate(0 14.464)"/>
            <path fill="#698F3F" d="M474.772 298.175c8.883 0 12.015 12.696 12.244 20.173h-29.883c.843-7.477 5.682-20.173 17.639-20.173" transform="translate(0 14.464)"/>
            <path fill="#567537" d="M474.525 298.693c8.862 0 12.157 12.305 12.463 19.655h-13.954c2.266-6.554 4.915-16.813 1.49-19.655" transform="translate(0 14.464)"/>
            <path fill="#338158" d="M819.025 298.92c5.487 0 7.869 12.915 8.134 19.428h-17.481c-.103-6.513 1.962-19.429 9.347-19.429" transform="translate(0 14.464)"/>
            <path fill="#2B6848" d="M818.905 299.39c5.48 0 7.947 12.54 8.245 18.958h-8.41c1.062-5.798 2.437-16.21.165-18.958" transform="translate(0 14.464)"/>
            <path fill="#7BA941" d="M1079.62 260.43c16.372 0 23.145 39.962 23.468 57.918h-50.318c-.768-17.956 4.805-57.917 26.85-57.917" transform="translate(0 14.464)"/>
            <path fill="#68903F" d="M1080.098 264.028c16.327 0 21.944 36.979 22.022 54.32h-23.635c3.248-15.77 8.409-46.104 1.613-54.32" transform="translate(0 14.464)"/>
            <path fill="#2D6936" d="M234.379 294.744c11.44 0 17.657 13.163 19.991 23.604h-43.612c1.779-10.441 8.225-23.604 23.62-23.604" transform="translate(0 14.464)"/>
            <path fill="#24512C" d="M234.07 295.48c11.376 0 17.728 12.674 20.185 22.868h-18.796c2.035-8.84 3.195-19.51-1.388-22.869" transform="translate(0 14.464)"/>
            <path fill="#7D983D" d="M840.785 290.54c7.355 0 11.366 14.01 13.169 27.808h-31.328c2.68-13.798 8.259-27.808 18.159-27.808" transform="translate(0 14.464)"/>
            <path fill="#6A8039" d="M840.508 291.646c7.277 0 11.37 13.357 13.277 26.702h-12.426c1.369-11.243 1.842-22.598-.851-26.702" transform="translate(0 14.464)"/>
            <path fill="#698F3F" d="M24.285 290.911c7.163 0 10.002 16.284 10.516 27.437H9.225c1.13-11.153 5.42-27.437 15.06-27.437" transform="translate(0 14.464)"/>
            <path fill="#567537" d="M24.072 291.678c7.135 0 10.097 15.74 10.687 26.67H23.243c1.824-9.618 3.561-22.802.83-26.67" transform="translate(0 14.464)"/>
            <path fill="#328140" d="M113.2 285.296c18.499 0 24.292 23.618 23.604 33.052h-54.99c-.716-9.434 6.493-33.052 31.387-33.052" transform="translate(0 14.464)"/>
            <path fill="#2D6936" d="M112.777 286.046c18.486 0 24.63 22.972 24.017 32.302h-27.352c3.908-8.617 10.75-27.572 3.335-32.302" transform="translate(0 14.464)"/>
            <path fill="#7D983D" d="M285.106 284.368c7.015 0 9.892 25.379 9.74 33.98h-20.008c-.786-8.601.83-33.98 10.268-33.98" transform="translate(0 14.464)"/>
            <path fill="#6A8039" d="M284.977 285.117c7.012 0 10.004 24.702 9.868 33.231h-10.126c1.111-8.026 3.246-28.318.258-33.231" transform="translate(0 14.464)"/>
            <path fill="#698F3F" d="M1178.687 295.73c10.622 0 14.36 14.235 14.637 22.618H1157.6c1.012-8.383 6.796-22.617 21.088-22.617" transform="translate(0 14.464)"/>
            <path fill="#567537" d="M1178.387 296.313c10.6 0 14.537 13.794 14.904 22.035h-16.684c2.714-7.348 5.873-18.85 1.78-22.035" transform="translate(0 14.464)"/>
            <path fill="#338158" d="M137.239 298.92c5.85 0 8.39 12.915 8.673 19.428h-18.641c-.11-6.513 2.092-19.429 9.968-19.429" transform="translate(0 14.464)"/>
            <path fill="#2B6848" d="M137.11 299.39c5.843 0 8.475 12.54 8.792 18.958h-8.967c1.132-5.798 2.598-16.21.176-18.958" transform="translate(0 14.464)"/>
            <path fill="#7BA941" d="M720.628 260.43c17.463 0 24.68 39.962 25.033 57.918h-53.664c-.82-17.956 5.13-57.917 28.63-57.917" transform="translate(0 14.464)"/>
            <path fill="#68903F" d="M721.138 264.028c17.414 0 23.4 36.979 23.482 54.32h-25.198c3.466-15.77 8.962-46.104 1.716-54.32" transform="translate(0 14.464)"/>
            <path fill="#7D983D" d="M360.42 290.54c7.844 0 12.12 14.01 14.044 27.808h-33.406c2.857-13.798 8.806-27.808 19.363-27.808" transform="translate(0 14.464)"/>
            <path fill="#6A8039" d="M360.125 291.646c7.761 0 12.124 13.357 14.159 26.702h-13.252c1.46-11.243 1.965-22.598-.907-26.702" transform="translate(0 14.464)"/>
            <g>
                <path fill="#B27538" d="M52.616 46.161c-4.35 1.905-7.464 6.993-7.464 12.973s3.114 11.068 7.464 12.972V46.161" transform="translate(0 14.464) translate(1001.02 231.417)"/>
                <path fill="#5F3924" d="M65.992 53.111c-.107.237-.226.467-.355.683-.689 1.162-1.667 2.018-2.842 2.348-2.826.8-5.718-1.709-6.462-5.595-.742-3.888.945-7.686 3.768-8.478l.225-.057c.361-.08.722-.108 1.075-.084 2.363.144 4.53 2.448 5.16 5.736.373 1.966.128 3.903-.57 5.447" transform="translate(0 14.464) translate(1001.02 231.417)"/>
                <path fill="#E0E0E0" d="M65.637 53.794c-.689 1.162-1.667 2.018-2.842 2.348-2.826.8-5.718-1.709-6.462-5.595-.742-3.888 2.32-7.11 3.258-8.104 3.97 2.758 5.874 6.537 6.046 11.351" transform="translate(0 14.464) translate(1001.02 231.417)"/>
                <path fill="#B27538" d="M23.848 57.844V85.98c0 1.14-.93 2.07-2.07 2.07-1.14 0-2.07-.93-2.07-2.07V57.844c0-.466.154-.903.42-1.246.376-.498.975-.825 1.65-.825 1.14 0 2.07.93 2.07 2.071" transform="translate(0 14.464) translate(1001.02 231.417)"/>
                <path fill="#D19656" d="M63.752 51.809c-.09 1.528-.439 2.99-.997 4.34-.255.627-.554 1.23-.898 1.807-.42.697-.896 1.356-1.422 1.965-.26.305-.537.593-.824.87-1.302 1.268-2.852 2.276-4.574 2.94-.171.072-.348.139-.525.2-.61.21-1.24.376-1.894.498-.725.139-1.478.221-2.247.232-.11.011-.221.011-.332.011H28.416c-.427 0-.876-.005-1.34-.026-.172-.006-.349-.017-.532-.028-.886-.05-1.793-.145-2.696-.294-1.412-.221-2.818-.576-4.14-1.097-4.042-1.605-7.259-4.823-7.259-10.937 0-6.147 2.425-10.116 2.564-14.148l.006-.293c.016-2.122-.638-3.688-2.564-3.362-5.149.886-7.356-.25-8.299-1.457-.78-.997-.697-2.048-.697-2.048l2.066-1.307 8.114-5.145.77-.52 3.964-.46.171.006c.46.005.881.044 1.274.116.266.045.52.11.764.183.969.3 1.727.809 2.33 1.467 3.892 4.232 1.473 14.58 9.472 14.58h9.44c2.291-1.71 5.137-2.724 8.215-2.724 4.18 0 7.921 1.867 10.435 4.808.786.907 1.45 1.921 1.97 3.017.86 1.794 1.34 3.805 1.34 5.925 0 .294-.01.587-.032.88z" transform="translate(0 14.464) translate(1001.02 231.417)"/>
                <path fill="#E0E0E0" d="M60.435 53.326v6.595c-.26.305-.537.593-.824.87-1.302 1.268-2.852 2.276-4.574 2.94-.171.072-.348.139-.525.2-.61.21-1.24.376-1.894.498-.725.139-1.478.221-2.247.232-.11.011-.221.011-.332.011H28.416c-.427 0-.876-.005-1.34-.026-.172-.006-.349-.017-.532-.028-.886-.05-1.793-.145-2.696-.294-1.412-.221-2.818-.576-4.14-1.097-4.042-1.605-7.259-4.823-7.259-10.937 0-6.147 2.425-10.116 2.564-14.148l.006-.293c.016-2.122-.638-3.688-2.564-3.362 7.335-1.429 4.219 9.06 4.219 16.032 0 2.99 1.467 5.028 3.454 6.39 1.135.775 2.43 1.33 3.72 1.71 1.838.55 3.659.754 4.955.754h20.909c.221 0 .442-.006.66-.011.779-.034 1.532-.116 2.246-.26.626-.122 1.218-.294 1.789-.51l.105-.039c1.689-.67 3.15-1.76 4.38-3.361.248-.32.492-.67.719-1.04l.171-.277.653-.549M10.888 29.304c-.046-2.442 1.666-3.142 3.482-2.084.042 2.317-1.49 3.246-3.482 2.084" transform="translate(0 14.464) translate(1001.02 231.417)"/>
                <path fill="#212121" d="M13.08 28.016s.013.702-.351.917c-.366.214-.973-.138-.973-.138s-.013-.702.353-.917c.365-.215.971.138.971.138" transform="translate(0 14.464) translate(1001.02 231.417)"/>
                <path fill="#9E5E2A" d="M28.244 5.237c-.76 0-1.378.617-1.378 1.378V8.27c0 2.548-1.878 4.658-4.322 5.033-.875-1.366-2.19-2.42-3.745-2.965.89-1.484 1.215-3.26.891-4.977-.37-1.966-1.558-3.693-3.261-4.743-.647-.398-1.497-.196-1.895.452-.4.649-.197 1.498.45 1.896 1.059.652 1.769 1.683 1.999 2.906.229 1.222-.057 2.441-.807 3.432l-.467.62h-.83c-2.506 0-4.546-2.04-4.546-4.548V1.378C10.333.616 9.717 0 8.956 0S7.578.616 7.578 1.378v3.997c0 4.027 3.275 7.304 7.302 7.304h1.516c2.507 0 4.545 2.04 4.545 4.548 0 .14-.007.277-.02.413h-6.868c-2.81 0-5.097-2.287-5.097-5.099 0-.761-.617-1.378-1.378-1.378-.761 0-1.378.617-1.378 1.378 0 4.331 3.523 7.856 7.853 7.856h5.596c-.826.849-1.979 1.377-3.253 1.377h-8.13c-3.038 0-5.51-2.472-5.51-5.511 0-.761-.617-1.379-1.378-1.379-.76 0-1.378.618-1.378 1.379 0 4.559 3.708 8.268 8.266 8.268h8.13c4.026 0 7.301-3.276 7.301-7.304 0-.45-.046-.888-.124-1.314 3.463-.817 6.05-3.934 6.05-7.644V6.615c0-.76-.618-1.378-1.379-1.378" transform="translate(0 14.464) translate(1001.02 231.417)"/>
                <path fill="#B27538" d="M19.463 26.83c.986-.007 2.285-.545 3.465-1.521 1.177-.978 1.621-2.544 1.79-3.541.092-.558.1-.938.1-.938s-2.916-.495-4.75 1.024c-1.834 1.521-2.683 3.527-1.893 4.48.284.34.735.5 1.288.496" transform="translate(0 14.464) translate(1001.02 231.417)"/>
                <path fill="#E0E0E0" d="M19.463 26.83c.986-.007 2.285-.545 3.465-1.521 1.177-.978 1.621-2.544 1.79-3.541-.97.055-2.185.307-3.12 1.082-1.555 1.292-2.403 2.934-2.135 3.98" transform="translate(0 14.464) translate(1001.02 231.417)"/>
                <path fill="#D19656" d="M31.024 88.053c-1.14 0-2.072-.932-2.072-2.073V57.845c0-1.14.932-2.072 2.072-2.072 1.139 0 2.07.932 2.07 2.072V85.98c0 1.14-.931 2.073-2.07 2.073" transform="translate(0 14.464) translate(1001.02 231.417)"/>
                <path fill="#B27538" d="M52.491 66.708v19.205c0 .989.664 1.89 1.632 2.093 1.33.279 2.511-.742 2.511-2.026V70.853c0-2.289-1.855-4.145-4.143-4.145" transform="translate(0 14.464) translate(1001.02 231.417)"/>
                <path fill="#D19656" d="M61.82 46.161c-4.351 1.905-7.465 6.993-7.465 12.973s3.114 11.068 7.465 12.972V46.161" transform="translate(0 14.464) translate(1001.02 231.417)"/>
                <path fill="#D19656" d="M61.695 66.708v19.205c0 .989.664 1.89 1.632 2.093 1.329.279 2.511-.742 2.511-2.026V70.853c0-2.289-1.855-4.145-4.143-4.145" transform="translate(0 14.464) translate(1001.02 231.417)"/>
                <path fill="#5F3924" d="M5.95 30.949c0 1.058-.78 1.932-1.794 2.081-.78-.997-.697-2.048-.697-2.048l2.066-1.307c.265.355.426.798.426 1.274" transform="translate(0 14.464) translate(1001.02 231.417)"/>
            </g>
            <g>
                <path fill="#E0E0E0" d="M69.106 33.708c.031 2.047-.552 3.958-1.524 5.398-.153.23-.315.44-.485.639-.897 1.052-2.037 1.747-3.284 1.876-2.995.31-5.482-2.732-5.554-6.792-.052-3.098 1.317-5.897 3.3-7.184.619-.4 1.29-.655 1.997-.726l.238-.018c.376-.018.746.018 1.1.104 2.363.561 4.153 3.27 4.212 6.703" transform="translate(0 14.464) matrix(-1 0 0 1 1165.633 244.768)"/>
                <path fill="#5F3924" d="M68.09 35.506c.013 1.262-.169 2.482-.508 3.6-.153.23-.315.44-.485.639-.897 1.052-2.037 1.747-3.284 1.876-2.995.31-5.482-2.732-5.554-6.792-.052-3.098 1.317-5.897 3.3-7.184l.29-.04.269-.02c.43-.024.848.015 1.245.113 2.675.638 4.684 3.794 4.728 7.808" transform="translate(0 14.464) matrix(-1 0 0 1 1165.633 244.768)"/>
                <path fill="#C47833" d="M24.983 41.14v30.829c0 1.25-1.019 2.27-2.268 2.27-1.25 0-2.269-1.02-2.269-2.27V41.14c0-.51.17-.988.46-1.365.414-.545 1.069-.904 1.81-.904 1.248 0 2.267 1.02 2.267 2.269" transform="translate(0 14.464) matrix(-1 0 0 1 1165.633 244.768)"/>
                <path fill="#E29447" d="M35.114 41.142V71.97c0 1.25-1.02 2.271-2.267 2.271-1.25 0-2.27-1.02-2.27-2.271V41.142c0-1.251 1.02-2.272 2.27-2.272.66 0 1.259.288 1.667.746.373.4.6.935.6 1.526" transform="translate(0 14.464) matrix(-1 0 0 1 1165.633 244.768)"/>
                <path fill="#C47833" d="M56.503 50.86V28.34c-4.766 2.088-8.178 7.662-8.178 14.214 0 6.489 3.348 12.013 8.041 14.148v15.193c0 1.084.728 2.073 1.789 2.294 1.456.305 2.75-.813 2.75-2.22V55.395c0-2.46-1.958-4.46-4.402-4.533" transform="translate(0 14.464) matrix(-1 0 0 1 1165.633 244.768)"/>
                <path fill="#E29447" d="M70.99 55.394V71.97c0 1.405-1.296 2.522-2.753 2.218-1.06-.222-1.788-1.21-1.788-2.29V56.702c-4.675-2.126-8.014-7.62-8.038-14.073v-.074c0-3.06.744-5.903 2.023-8.283 1.457-2.712 3.61 1.597 6.152.483v16.105c2.444.072 4.404 2.072 4.404 4.533" transform="translate(0 14.464) matrix(-1 0 0 1 1165.633 244.768)"/>
                <path fill="#E29447" d="M66.586 34.07v.685c0 3.469-1.712 6.559-4.335 8.458-1.089.793-2.339 1.384-3.687 1.704-.78.19-1.598.292-2.428.292H26.04c-5.747 0-10.45-4.705-10.45-10.454v-.684c0-5.75 4.703-10.454 10.45-10.454h30.097c1.364 0 2.667.262 3.865.749 3.85 1.543 6.585 5.32 6.585 9.705" transform="translate(0 14.464) matrix(-1 0 0 1 1165.633 244.768)"/>
                <path fill="#5F3924" d="M65.499 34.764c.29 3.876-1.052 7.137-2.996 7.282-1.945.145-3.756-2.879-4.047-6.755-.289-3.876 1.052-7.137 2.997-7.283 1.944-.146 3.756 2.88 4.046 6.756" transform="translate(0 14.464) matrix(-1 0 0 1 1165.633 244.768)"/>
                <path fill="#E0E0E0" d="M66.586 34.07v16.79c-1.72-1.879-3.201-4.502-4.335-7.647-.173-.479-.34-.964-.494-1.467-.553-1.785-1-3.712-1.323-5.748-.07-.445-.134-.895-.194-1.352-.259-2.03-.397-4.15-.397-6.336v-.041c.001-1.946 2.383-2.897 3.745-1.507 1.852 1.887 2.998 4.47 2.998 7.309" transform="translate(0 14.464) matrix(-1 0 0 1 1165.633 244.768)"/>
                <path fill="#5F3924" d="M52.928 36.27H38.863c-3.191 0-5.802 2.61-5.802 5.802 0 1.54 1.26 2.8 2.799 2.8h17.068c1.54 0 2.799-1.26 2.799-2.8v-3.004c0-1.54-1.26-2.799-2.799-2.799" transform="translate(0 14.464) matrix(-1 0 0 1 1165.633 244.768)"/>
                <path fill="#E0E0E0" d="M58.556 44.917c-.773.19-1.59.292-2.42.292H35.114v15.185c-1.19-.405-2.053-1.537-2.053-2.861V42.536c0-1.089.583-2.048 1.453-2.579.457-.287 1-.45 1.575-.45h16.906c3.008 0 5.476 2.422 5.561 5.41" transform="translate(0 14.464) matrix(-1 0 0 1 1165.633 244.768)"/>
                <path fill="#E29447" d="M15.492 21.37l-.579-2.049H8.661l-.344 4.912c-.626 8.95 6.464 16.557 15.434 16.557V27.62c-3.84 0-7.214-2.552-8.259-6.25" transform="translate(0 14.464) matrix(-1 0 0 1 1165.633 244.768)"/>
                <path fill="#4E342E" d="M7.73 0c-.643 3.584-.634 3.461-.652 3.904-.194 3.626 3.26 3.994 3.844 9.934H8.466c.372-5.457-3.36-6.388-1.885-10.636.088-.258.04-.119 1.15-3.202M15.894 0c.643 3.584.633 3.461.65 3.904.196 3.626-3.257 3.994-3.842 9.934h2.455c-.37-5.457 3.36-6.388 1.885-10.636-.088-.258-.04-.119-1.148-3.202" transform="translate(0 14.464) matrix(-1 0 0 1 1165.633 244.768)"/>
                <path fill="#C47833" d="M5.29 11.336c2.229 1.604 2.782 4.65 2.782 4.65s-3.064.444-5.291-1.16c-.345-.249-.648-.53-.917-.83C.394 12.354 0 10.175 0 10.175s2.191-.318 4.214.555c.37.16.732.358 1.077.606" transform="translate(0 14.464) matrix(-1 0 0 1 1165.633 244.768)"/>
                <path fill="#E29447" d="M4.214 10.73c1.47 1.642 1.864 3.821 1.864 3.821s-2.19.318-4.214-.555C.394 12.354 0 10.175 0 10.175s2.191-.318 4.214.555" transform="translate(0 14.464) matrix(-1 0 0 1 1165.633 244.768)"/>
                <path fill="#C47833" d="M18.333 11.336c-2.228 1.604-2.78 4.65-2.78 4.65s3.063.444 5.292-1.16c.344-.249.647-.53.915-.83 1.47-1.642 1.865-3.821 1.865-3.821s-2.192-.318-4.214.555c-.37.16-.733.358-1.078.606" transform="translate(0 14.464) matrix(-1 0 0 1 1165.633 244.768)"/>
                <path fill="#E29447" d="M19.41 10.73c-1.468 1.642-1.864 3.821-1.864 3.821s2.192.318 4.214-.555c1.47-1.642 1.865-3.821 1.865-3.821s-2.192-.318-4.214.555" transform="translate(0 14.464) matrix(-1 0 0 1 1165.633 244.768)"/>
                <path fill="#C47833" d="M17.189 17.632c-.03.18-.072.358-.125.539l-2.69 8.87c-.768 2.535-4.356 2.535-5.125 0L6.56 18.17c-.053-.18-.096-.36-.125-.539-.268-1.629.484-3.198 1.776-4.063.64-.43 1.417-.683 2.266-.683h2.67c.85 0 1.625.254 2.266.683 1.292.865 2.044 2.434 1.776 4.063" transform="translate(0 14.464) matrix(-1 0 0 1 1165.633 244.768)"/>
                <path fill="#E0E0E0" d="M17.189 17.632c-.03.18-.072.358-.125.539l-2.69 8.87c-.768 2.535-4.356 2.535-5.125 0L6.56 18.17c-.053-.18-.096-.36-.125-.539.184-1.127.835-2.125 1.776-2.753.64-.43 1.417-.684 2.266-.684h2.67c.85 0 1.625.254 2.266.684.94.628 1.592 1.626 1.776 2.753" transform="translate(0 14.464) matrix(-1 0 0 1 1165.633 244.768)"/>
                <path fill="#5F3924" d="M9.724 19.897c0 .408-.329.737-.736.737s-.736-.33-.736-.737.329-.737.736-.737.736.33.736.737M15.373 19.897c0 .408-.33.737-.737.737-.406 0-.736-.33-.736-.737s.33-.737.736-.737c.407 0 .737.33.737.737M12.992 25.375c.555-.448 1.009-1.063 1.28-1.806.272-.742.322-1.506.185-2.206l-1.465 4.012M10.632 25.375c-.555-.448-1.009-1.063-1.28-1.806-.272-.742-.322-1.506-.186-2.206l1.466 4.012" transform="translate(0 14.464) matrix(-1 0 0 1 1165.633 244.768)"/>
                <path fill="#C47833" d="M13.147 12.886h-2.67c-.85 0-1.626.254-2.266.683 0 .879.458 1.97 1.106 2.882.836 1.176 1.332 2.557 1.51 3.987l.27 2.162-.238 3.395.953 1.087.952-1.087-.237-3.395.27-2.157c.177-1.432.675-2.814 1.51-3.99.648-.912 1.106-2.004 1.106-2.862-.641-.451-1.417-.705-2.266-.705" transform="translate(0 14.464) matrix(-1 0 0 1 1165.633 244.768)"/>
                <path fill="#5F3924" d="M12.948 25.995h-.36l-.767.768-.785-.768h-.36v.359l.892.892v.724c0 .14.115.254.254.254.14 0 .254-.115.254-.254v-.744l.872-.872v-.359" transform="translate(0 14.464) matrix(-1 0 0 1 1165.633 244.768)"/>
            </g>
            <g>
                <path fill="#5D3326" d="M39.894 19.771l-3.43-.679s3.025 5.308-1.055 8.937l-3.556-2.497-.451-.314-3.016-1.127-7.24-2.698-14.485-5.406s-.814-5.413 1.434-9.883l3.058 2.409s.064-1.257.663-2.799c.679-1.747 2.054-3.859 4.822-4.898l1.337 3.055s.506-.675 1.37-1.463c1.422-1.29 3.81-2.882 6.523-2.275l-.443 3.596s3.99-3.055 7.93-.818L31.33 6.242s5.506-1.257 8.036 3.214l-3.851 1.625s5.484 2.305 4.379 8.69" transform="translate(0 14.464) translate(950.97 288.159)"/>
                <path fill="#5D3326" d="M36.156 19.021c-.578 2.594-2.126 4.927-4.303 6.51-.995.734-2.126 1.308-3.353 1.673-1.017.31-2.105.477-3.244.477H1.649c-1.307 0-2.092-1.437-1.38-2.522.958-1.454 2.017-3.037 3.14-4.65 1.046-1.5 2.143-3.038 3.252-4.522 2.358-3.154 4.78-6.087 6.901-8.06.987-.918 1.907-1.626 2.725-2.058 1.464-.766 3-1.252 4.548-1.47 1.257-.176 2.522-.18 3.759-.013 1.096.139 2.163.411 3.188.8.726.273 1.426.608 2.093 1.002 2.012 1.177 3.746 2.87 4.986 5.01l.24.432c.102.193.199.386.292.583.632 1.337.957 2.707 1.012 4.06.046.93-.042 1.856-.249 2.748" transform="translate(0 14.464) translate(950.97 288.159)"/>
                <path fill="#6D3D2D" d="M32.613 16.683c0 1.303-.739 2.602-2.22 3.125-1.379.487-2.222 1.773-2.222 3.126 0 .386.067.775.215 1.157.03.087.067.176.11.264.231.486.337.971.337 1.44 0 .5-.118.977-.333 1.409-1.017.31-2.105.477-3.244.477H4.426c-.646-.904-.853-2.128-.28-3.326.22-.46.325-.943.325-1.42 0-.914-.384-1.798-1.063-2.427 1.047-1.5 2.144-3.037 3.253-4.52 0 0-.814-5.414 1.434-9.884l3.058 2.409s.064-1.257.663-2.799c.679-1.747 2.054-3.859 4.822-4.898l1.337 3.055s.506-.675 1.37-1.463c.047.097.085.193.123.298.261.734.755 1.316 1.367 1.693.932.582 2.134.7 3.21.193.186-.089.367-.156.549-.206l.843-.13h.059c.874 0 1.683.356 2.286.93.967.918 1.401 2.389.714 3.826-.22.46-.325.942-.325 1.42 0 1.353.843 2.64 2.223 3.125 1.388.49 2.122 1.664 2.21 2.883.005.08.009.164.009.243" transform="translate(0 14.464) translate(950.97 288.159)"/>
                <path fill="#8D5B49" d="M23.543 18.464c0 1.131-.646 2.262-1.932 2.72-.164.057-.317.13-.464.209-.924.52-1.472 1.49-1.472 2.514 0 .414.092.833.283 1.235.202.424.295.847.295 1.258 0 .456-.114.892-.32 1.281H1.648c-1.307 0-2.092-1.437-1.38-2.522.958-1.454 2.017-3.037 3.14-4.65 1.046-1.5 2.143-3.038 3.252-4.522 0 0-.814-5.413 1.434-9.883l3.058 2.409s.064-1.257.663-2.799c.113.176.206.369.282.582.266.747.806 1.312 1.464 1.63.764.37 1.688.407 2.523.013.426-.201.852-.293 1.265-.293 1.983 0 3.582 2.108 2.608 4.14-.19.401-.283.82-.283 1.235 0 1.182.734 2.3 1.936 2.724 1.286.456 1.932 1.588 1.932 2.719" transform="translate(0 14.464) translate(950.97 288.159)"/>
            </g>
            <g>
                <g>
                    <path fill="#563E2D" d="M7.775 31.773c1.123 3.836 3.222 7.865 6.116 12.05l-3.718 10.59 3.993 19.809 2.8 3.593h4.525l-5.44-6.984c-2.696-8.863-1.91-16.484 4.698-22.025 3.227-6.02 4.458-11.71 3.472-17.033H7.775zm4.01-16.843c-.115-.303-.23-.605-.343-.908L0 23.516c4.22 2.346 8.146-.55 11.784-8.586zM41.72 35.85l7.387-1.433-5.445 34.697 1.771 4.214 3.762 4.463H43.67l-.38-3.416-1.745-5.261.175-33.264z" transform="translate(0 14.464) translate(36 56.532) translate(182 184.898)"/>
                    <path fill="#815D3F" d="M71.156 15.428L57.514 10.06c.77 5.107 3.617 7.346 7.935 7.559-.21.217-.405.446-.585.687l-8.332-2.168c-2.365-2.807-5.904-4.59-9.86-4.59-2.84 0-5.464.918-7.594 2.474H11.442c-9.073 8.32-9.102 18.491-3.56 29.8L2.03 54.413v19.809l2.074 3.593H8.63c-1.344-2.327-2.687-4.656-4.03-6.984-.912-8.863 1.41-16.484 9.136-22.025 2.997-4.062 5.053-7.974 6.102-11.725 2.89 1.95 6.657 3.129 10.774 3.129 4.497 0 8.573-1.406 11.55-3.685 1.404.524 2.923.811 4.51.811 4.429 0 8.336-2.234 10.656-5.639l9.714-2.799c1.06.613 2.292.964 3.606.964 1.157 0 2.252-.274 3.223-.76l6.27 2.407c.716.605 1.64.968 2.649.968 2.27 0 4.11-1.84 4.11-4.11 0-1.32-.62-2.494-1.586-3.246L75.2 17.026c-1.12-.91-2.517-1.492-4.045-1.598" transform="translate(0 14.464) translate(36 56.532) translate(182 184.898)"/>
                    <path fill="#563E2D" d="M71.673 14.208c-6.175-1.12-10.858-6.525-10.858-13.024C60.815.53 61.345 0 62 0c.632 0 1.177.357 1.182 1.184.015 2.135.635 4.125 1.697 5.805V1.184c0-.654.53-1.184 1.184-1.184.653 0 1.182.53 1.182 1.184v8.465c.636.514 1.331.958 2.073 1.319-.152-.477-.235-.986-.235-1.515v-8.27C69.082.53 69.61 0 70.265 0c.653 0 1.183.53 1.183 1.184v8.269c0 1.414 1.128 2.564 2.533 2.6 2.48.062 5.056-.9 6.964-2.47v-8.4c0-.653.53-1.183 1.183-1.183s1.184.53 1.184 1.184v5.685c1.016-1.654 1.602-3.601 1.602-5.685 0-.654.53-1.184 1.184-1.184.616 0 1.165.405 1.175 1.127.057 4.152-3.325 12.563-12.072 13.248v2.65c-1.073.533-3.077.282-3.528-1.543v-1.274M73.76 21.09c.582 0 1.057-.475 1.057-1.06 0-.582-.475-1.058-1.057-1.058-.584 0-1.06.476-1.06 1.059 0 .584.476 1.06 1.06 1.06" transform="translate(0 14.464) translate(36 56.532) translate(182 184.898)"/>
                    <path fill="#815D3F" d="M43.939 35.85L51.101 34.417 51.101 69.114 53.533 73.328 57.995 77.791 52.47 77.791 51.556 74.375 48.983 69.114 43.939 35.85" transform="translate(0 14.464) translate(36 56.532) translate(182 184.898)"/>
                    <path fill="#563E2D" d="M46.672 13.357c2.266 0 4.372.68 6.127 1.848v18.474c-1.755 1.167-3.861 1.848-6.127 1.848-1.66 0-3.234-.365-4.648-1.02l-4.408-16.455c2.007-2.84 5.314-4.695 9.056-4.695M12.99 15.56c3.15 4.195 5.016 9.409 5.016 15.06 0 5.65-1.866 10.864-5.016 15.06-3.933-3.812-6.378-9.15-6.378-15.06S9.057 19.37 12.99 15.56M57.753 11.292c1.165 4.827 4.532 6.614 9.414 6.311-1.954-3.368-5.388-5.768-9.414-6.311zm1.473 16.09H65.2c.524.602 1.146 1.115 1.84 1.516l-9.713 2.8c.88-1.29 1.532-2.747 1.898-4.316zm-17.064 9.143c-2.977 2.279-7.053 3.685-11.55 3.685-4.118 0-7.883-1.178-10.774-3.129.746-2.671.981-5.26.678-7.763 3.738 2.21 8.095 3.478 12.75 3.478 1.152 0 2.286-.078 3.397-.228 1.436 1.766 3.328 3.146 5.499 3.957z" transform="translate(0 14.464) translate(36 56.532) translate(182 184.898)"/>
                </g>
                <g>
                    <path fill="#444951" d="M27.607 2.195c.013.343.258.523.258.523.886-.05 1.565-.075 1.812-.371-.273-.182-.913-.437-2.07-.152" transform="translate(0 14.464) translate(36 56.532) translate(296.561 69.19)"/>
                    <path fill="#6A727F" d="M29.677 2.347c-.25-.533-1.622-.529-1.622-.529-.397-.018-.46.124-.444.56 1.158-.285 2.066-.031 2.066-.031" transform="translate(0 14.464) translate(36 56.532) translate(296.561 69.19)"/>
                    <path fill="#252438" d="M26.873 8.112c.267-.184.526-.378.773-.586.207-1.451-.918-4.077.339-4.815-.023-.333-.083-.366-.083-.502 0-.137.185-.2.283-.395-3.222-4.797-7.687 1.375-8.401 1.918-.264 1.154-2.916 2.748-5.775 4.38h12.864" transform="translate(0 14.464) translate(36 56.532) translate(296.561 69.19)"/>
                    <path fill="#304956" d="M21.814 10.643v6.733l-1.403-1.764c-1.239-1.556-.694-4.21.989-4.819l.414-.15" transform="translate(0 14.464) translate(36 56.532) translate(296.561 69.19)"/>
                    <path fill="#365866" d="M20.087 10.643v6.733l-1.404-1.764c-1.238-1.556-.693-4.21.99-4.819l.414-.15" transform="translate(0 14.464) translate(36 56.532) translate(296.561 69.19)"/>
                    <path fill="#FFCF48" d="M27.645 7.524c-.48-1.606-1.99-2.288-3.77-2.324-.85.718-1.894.89-3.07 1.272l.162.01c-.069 0-.137.002-.205.003-.8.256-1.658.422-2.555.483-.642.248-1.185.579-1.585.968l-.832-.86c-1.664.996-3.589 2.038-5.247 3.033l-2.778 2.452h12.792c4.952-.165 6.695-2.277 7.088-5.037" transform="translate(0 14.464) translate(36 56.532) translate(296.561 69.19)"/>
                    <path fill="#304956" d="M10.828 9.913L0 16.905c2.354 0 4.66-.688 6.652-1.984l7.76-5.05-3.584.042" transform="translate(0 14.464) translate(36 56.532) translate(296.561 69.19)"/>
                    <path fill="#365866" d="M24.24 7.16c-.013.055-.03.109-.048.162-.455 1.348-1.75 2.788-4.27 2.788h-9.379l5.05-3.485c1.896-.708 3.51-1.562 4.191-2.892l.102-.064c.34-.21.683-.335 1.02-.393l.07-.011c.328-.047.649-.03.953.042.812.19 1.514.76 1.946 1.49.12.202-.416.429-.34.652.186.55.274.959.706 1.712" transform="translate(0 14.464) translate(36 56.532) translate(296.561 69.19)"/>
                    <path fill="#BBBC47" d="M24.24 7.16c-1.108 1.996-5.386 1.997-8.648-.535l4.192-2.892.102-.064c.34-.21.683-.335 1.02-.393l.07-.011c.328-.047.649-.03.953.042.812.19 1.514.76 1.946 1.49.12.202.22.417.294.64.187.55.228 1.147.072 1.724" transform="translate(0 14.464) translate(36 56.532) translate(296.561 69.19)"/>
                    <path fill="#252438" d="M24.082 5.207c-1.577 0-3.53-.366-4.298-1.474.795-.696 1.339-1.065 2.302-.655 1.868.796 2.042 2.13 1.996 2.13" transform="translate(0 14.464) translate(36 56.532) translate(296.561 69.19)"/>
                    <path fill="#FFF" d="M25.887 2.04h-3.361c-.82 0-1.28.987-.759 1.641.394.494 1.142.908 2.543.908 1.07 0 1.78-.553 2.232-1.143.436-.569.047-1.407-.655-1.407" transform="translate(0 14.464) translate(36 56.532) translate(296.561 69.19)"/>
                    <path fill="#CCC" d="M25.25 1.707c0 .311.243.563.544.563.301 0 .545-.252.545-.563 0-.312-.244-.564-.545-.564-.301 0-.545.252-.545.564" transform="translate(0 14.464) translate(36 56.532) translate(296.561 69.19)"/>
                    <path fill="#3A3A3A" d="M25.384 1.707c0 .234.184.423.41.423.227 0 .41-.19.41-.423 0-.234-.183-.424-.41-.424-.226 0-.41.19-.41.424" transform="translate(0 14.464) translate(36 56.532) translate(296.561 69.19)"/>
                    <path fill="#FFF" d="M20.77 8.6c-.086.272-1.225.131-2.545-.313-1.32-.445-2.321-1.025-2.235-1.297.085-.272 1.225-.132 2.545.313 1.32.444 2.32 1.025 2.235 1.297" transform="translate(0 14.464) translate(36 56.532) translate(296.561 69.19)"/>
                </g>
                <g>
                    <path fill="#444951" d="M27.607 2.195c.013.343.258.523.258.523.886-.05 1.565-.075 1.812-.371-.273-.182-.913-.437-2.07-.152" transform="translate(0 14.464) translate(36 56.532) matrix(-1 0 0 1 859.357 94.78)"/>
                    <path fill="#6A727F" d="M29.677 2.347c-.25-.533-1.622-.529-1.622-.529-.397-.018-.46.124-.444.56 1.158-.285 2.066-.031 2.066-.031" transform="translate(0 14.464) translate(36 56.532) matrix(-1 0 0 1 859.357 94.78)"/>
                    <path fill="#252438" d="M26.873 8.112c.267-.184.526-.378.773-.586.207-1.451-.918-4.077.339-4.815-.023-.333-.083-.366-.083-.502 0-.137.185-.2.283-.395-3.222-4.797-7.687 1.375-8.401 1.918-.264 1.154-2.916 2.748-5.775 4.38h12.864" transform="translate(0 14.464) translate(36 56.532) matrix(-1 0 0 1 859.357 94.78)"/>
                    <path fill="#304956" d="M21.814 10.643v6.733l-1.403-1.764c-1.239-1.556-.694-4.21.989-4.819l.414-.15" transform="translate(0 14.464) translate(36 56.532) matrix(-1 0 0 1 859.357 94.78)"/>
                    <path fill="#365866" d="M20.087 10.643v6.733l-1.404-1.764c-1.238-1.556-.693-4.21.99-4.819l.414-.15" transform="translate(0 14.464) translate(36 56.532) matrix(-1 0 0 1 859.357 94.78)"/>
                    <path fill="#FFCF48" d="M27.645 7.524c-.48-1.606-1.99-2.288-3.77-2.324-.85.718-1.894.89-3.07 1.272l.162.01c-.069 0-.137.002-.205.003-.8.256-1.658.422-2.555.483-.642.248-1.185.579-1.585.968l-.832-.86c-1.664.996-3.589 2.038-5.247 3.033l-2.778 2.452h12.792c4.952-.165 6.695-2.277 7.088-5.037" transform="translate(0 14.464) translate(36 56.532) matrix(-1 0 0 1 859.357 94.78)"/>
                    <path fill="#304956" d="M10.828 9.913L0 16.905c2.354 0 4.66-.688 6.652-1.984l7.76-5.05-3.584.042" transform="translate(0 14.464) translate(36 56.532) matrix(-1 0 0 1 859.357 94.78)"/>
                    <path fill="#365866" d="M24.24 7.16c-.013.055-.03.109-.048.162-.455 1.348-1.75 2.788-4.27 2.788h-9.379l5.05-3.485c1.896-.708 3.51-1.562 4.191-2.892l.102-.064c.34-.21.683-.335 1.02-.393l.07-.011c.328-.047.649-.03.953.042.812.19 1.514.76 1.946 1.49.12.202-.416.429-.34.652.186.55.274.959.706 1.712" transform="translate(0 14.464) translate(36 56.532) matrix(-1 0 0 1 859.357 94.78)"/>
                    <path fill="#BBBC47" d="M24.24 7.16c-1.108 1.996-5.386 1.997-8.648-.535l4.192-2.892.102-.064c.34-.21.683-.335 1.02-.393l.07-.011c.328-.047.649-.03.953.042.812.19 1.514.76 1.946 1.49.12.202.22.417.294.64.187.55.228 1.147.072 1.724" transform="translate(0 14.464) translate(36 56.532) matrix(-1 0 0 1 859.357 94.78)"/>
                    <path fill="#252438" d="M24.082 5.207c-1.577 0-3.53-.366-4.298-1.474.795-.696 1.339-1.065 2.302-.655 1.868.796 2.042 2.13 1.996 2.13" transform="translate(0 14.464) translate(36 56.532) matrix(-1 0 0 1 859.357 94.78)"/>
                    <path fill="#FFF" d="M25.887 2.04h-3.361c-.82 0-1.28.987-.759 1.641.394.494 1.142.908 2.543.908 1.07 0 1.78-.553 2.232-1.143.436-.569.047-1.407-.655-1.407" transform="translate(0 14.464) translate(36 56.532) matrix(-1 0 0 1 859.357 94.78)"/>
                    <path fill="#CCC" d="M25.25 1.707c0 .311.243.563.544.563.301 0 .545-.252.545-.563 0-.312-.244-.564-.545-.564-.301 0-.545.252-.545.564" transform="translate(0 14.464) translate(36 56.532) matrix(-1 0 0 1 859.357 94.78)"/>
                    <path fill="#3A3A3A" d="M25.384 1.707c0 .234.184.423.41.423.227 0 .41-.19.41-.423 0-.234-.183-.424-.41-.424-.226 0-.41.19-.41.424" transform="translate(0 14.464) translate(36 56.532) matrix(-1 0 0 1 859.357 94.78)"/>
                    <path fill="#FFF" d="M20.77 8.6c-.086.272-1.225.131-2.545-.313-1.32-.445-2.321-1.025-2.235-1.297.085-.272 1.225-.132 2.545.313 1.32.444 2.32 1.025 2.235 1.297" transform="translate(0 14.464) translate(36 56.532) matrix(-1 0 0 1 859.357 94.78)"/>
                </g>
                <g>
                    <path fill="#5C322B" d="M36.126 59.495h-22.26C6.611 59.495.675 53.56.675 46.301c0-7.257 5.936-13.195 13.191-13.195h22.26c7.254 0 13.19 5.938 13.19 13.195 0 7.258-5.936 13.194-13.19 13.194" transform="translate(0 14.464) translate(36 56.532) translate(94.133 203.812)"/>
                    <path fill="#6D3F37" d="M44.721 25.616c0 5.029-1.072 13.61-3.67 21.397-1.325 3.977-3.054 7.747-5.237 10.731-.547.746-1.236 1.336-1.975 1.75h-4.832c-.557-.507-.896-1.286-.878-2.353.013-.584.015-3.145.015-3.741 0-2.246-.071-4.398-.198-6.387-.445-6.94-1.598-11.879-2.948-11.879-1.355 0-2.505 4.939-2.95 11.88-.127 1.988-.198 4.14-.198 6.386 0 .6.003 3.16.015 3.744.02 1.064-.321 1.843-.875 2.35h-4.838c-.739-.417-1.425-1.004-1.969-1.746-2.185-2.982-3.914-6.755-5.24-10.735-2.6-7.787-3.673-16.368-3.673-21.397 0-10.898 8.832-23.132 19.728-23.132 10.894 0 19.723 12.234 19.723 23.132" transform="translate(0 14.464) translate(36 56.532) translate(94.133 203.812)"/>
                    <path fill="#7D4D42" d="M20.913 12.117c-1.944 1.561-4.796 1.248-6.355-.696l-3.264-4.07c-1.56-1.945-1.248-4.798.696-6.357 1.944-1.561 4.796-1.249 6.355.696l3.265 4.07c1.56 1.945 1.248 4.797-.697 6.357" transform="translate(0 14.464) translate(36 56.532) translate(94.133 203.812)"/>
                    <path fill="#8C594A" d="M19.462 10.308c-.944.759-2.338.606-3.095-.34l-3.265-4.07c-.758-.944-.606-2.338.34-3.095.944-.76 2.337-.607 3.095.339l3.264 4.07c.759.944.606 2.338-.34 3.096" transform="translate(0 14.464) translate(36 56.532) translate(94.133 203.812)"/>
                    <path fill="#7D4D42" d="M29.08 12.117c1.944 1.561 4.794 1.248 6.355-.696l3.264-4.07c1.56-1.945 1.247-4.798-.697-6.357-1.944-1.561-4.795-1.249-6.355.696l-3.265 4.07c-1.56 1.945-1.247 4.797.697 6.357" transform="translate(0 14.464) translate(36 56.532) translate(94.133 203.812)"/>
                    <path fill="#8C594A" d="M30.53 10.308c.945.759 2.338.606 3.096-.34l3.265-4.07c.758-.944.605-2.338-.34-3.095-.945-.76-2.337-.607-3.096.339l-3.264 4.07c-.759.944-.605 2.338.339 3.096" transform="translate(0 14.464) translate(36 56.532) translate(94.133 203.812)"/>
                    <path fill="#7D4D42" d="M38.838 14.109c0 7.646-11.836 18.06-13.842 18.06-2.006 0-13.843-10.414-13.843-18.06 0-7.647 6.198-11.625 13.843-11.625S38.838 6.462 38.838 14.11" transform="translate(0 14.464) translate(36 56.532) translate(94.133 203.812)"/>
                    <path fill="#8C594A" d="M36.787 12.057c0 6.514-10.082 15.385-11.79 15.385-1.71 0-11.793-8.87-11.793-15.385 0-6.514 5.28-9.656 11.792-9.656 6.513 0 11.791 3.142 11.791 9.656" transform="translate(0 14.464) translate(36 56.532) translate(94.133 203.812)"/>
                    <path fill="#512B25" d="M21.92 11.374c0 .518-.42.94-.94.94s-.94-.422-.94-.94c0-.52.42-.94.94-.94s.94.42.94.94M29.951 11.374c0 .518-.42.94-.94.94-.518 0-.94-.422-.94-.94 0-.52.422-.94.94-.94.52 0 .94.42.94.94" transform="translate(0 14.464) translate(36 56.532) translate(94.133 203.812)"/>
                    <path fill="#BC8A78" d="M27.31 20.94c0 1.278-1.036 2.314-2.314 2.314s-2.314-1.036-2.314-2.314 1.036-2.315 2.314-2.315 2.314 1.037 2.314 2.315" transform="translate(0 14.464) translate(36 56.532) translate(94.133 203.812)"/>
                    <path fill="#D0A697" d="M29.006 19.165c0 .676-.167 1.313-.462 1.872-.473.896-1.636 1.103-2.439.485-.353-.272-.725-.429-1.11-.429-.385 0-.757.157-1.11.429-.803.618-1.965.411-2.439-.485-.295-.559-.461-1.196-.461-1.872 0-2.216 1.795-7.407 4.01-7.407 2.216 0 4.011 5.191 4.011 7.407" transform="translate(0 14.464) translate(36 56.532) translate(94.133 203.812)"/>
                    <path fill="#512B25" d="M24.996 17.076c-1.58 0-2.982.738-2.982 1.647 0 1.446 1.796.55 2.647 1.57.172.207.499.207.671 0 .851-1.02 2.646-.124 2.646-1.57 0-.91-1.401-1.647-2.982-1.647" transform="translate(0 14.464) translate(36 56.532) translate(94.133 203.812)"/>
                </g>
                <g>
                    <path fill="#424242" d="M52.803 52.881l-.001-10.645c0-.667-.27-10.887-.708-11.325-.438-.438-1.042-.71-1.704-.71-1.324 0-2.41 1.086-2.41 2.414v18.706c-1.019.046-1.84.887-1.84 1.917v.131c0 1.059.866 1.925 1.925 1.925h2.778v-.045c1.112-.214 1.96-1.195 1.96-2.368M12.39 30.203c-1.327 0-2.412 1.085-2.412 2.412v18.698c-1.063 0-1.93.866-1.93 1.925v.131c0 1.059.867 1.925 1.924 1.925h2.78v-.036c1.156-.178 2.05-1.173 2.05-2.377V32.615c0-1.327-1.086-2.412-2.412-2.412" transform="translate(0 14.464) translate(36 56.532) translate(.704 207.15)"/>
                    <path fill="#FFA726" d="M78.593 34.157c-.104.068-2.478 3.503-8.074 5.193-3.582 1.089-8.55 1.104-13.086-1.187-1.335-.64-2.54-1.404-3.621-2.251-3.723-2.898-5.967-6.763-6.856-9.89-1.223-4.126-.188-7.025.995-7.206 1.335-.13 2.973 1.84 5.285 4.238 2.153 2.237 4.892 4.85 8.517 6.478 2.854 1.433 5.69 2.66 8.487 3.438 4.218 1.226 8.217 1.165 8.353 1.187" transform="translate(0 14.464) translate(36 56.532) translate(.704 207.15)"/>
                    <path fill="#F5F5F5" d="M70.24 32.971c4.303 1.25 8.376 1.159 8.36 1.186.009-.104-2.344 3.458-8.081 5.194-.86-.924-1.258-2.024-1.248-3.17.01-1.15.406-2.226.968-3.21" transform="translate(0 14.464) translate(36 56.532) translate(.704 207.15)"/>
                    <path fill="#FB8C00" d="M53.83 26.22l-.018 9.692c-3.723-2.898-5.967-6.763-6.856-9.89-1.223-4.126-.188-7.025.995-7.206 1.335-.13 2.973 1.84 5.285 4.238.384.984.593 2.053.593 3.166" transform="translate(0 14.464) translate(36 56.532) translate(.704 207.15)"/>
                    <path fill="#424242" d="M.944 0s5.283.257 7.292 3.429c2.009 3.173-.017 8.06-.017 8.06S2.936 11.234.927 8.062C-1.083 4.888.943 0 .943 0" transform="translate(0 14.464) translate(36 56.532) translate(.704 207.15)"/>
                    <path fill="#EEE" d="M.944 0s4.071 1.125 6.08 4.298C9.033 7.47 8.219 11.49 8.219 11.49S2.936 11.233.927 8.06C-1.083 4.889.943 0 .943 0" transform="translate(0 14.464) translate(36 56.532) translate(.704 207.15)"/>
                    <path fill="#BDBDBD" d="M2.18 2.651s3.094.15 4.271 2.01c1.177 1.858-.01 4.72-.01 4.72s-3.094-.15-4.271-2.008c-1.177-1.859.01-4.722.01-4.722" transform="translate(0 14.464) translate(36 56.532) translate(.704 207.15)"/>
                    <path fill="#424242" d="M21.243 0S15.96.257 13.95 3.429c-2.009 3.173.018 8.06.018 8.06s5.283-.256 7.292-3.428C23.269 4.888 21.243 0 21.243 0" transform="translate(0 14.464) translate(36 56.532) translate(.704 207.15)"/>
                    <path fill="#EEE" d="M21.243 0s-4.07 1.125-6.08 4.298C13.155 7.47 13.97 11.49 13.97 11.49s5.283-.257 7.292-3.43C23.269 4.889 21.243 0 21.243 0" transform="translate(0 14.464) translate(36 56.532) translate(.704 207.15)"/>
                    <path fill="#BDBDBD" d="M20.008 2.651s-3.095.15-4.272 2.01c-1.177 1.858.01 4.72.01 4.72s3.095-.15 4.272-2.008c1.177-1.859-.01-4.722-.01-4.722" transform="translate(0 14.464) translate(36 56.532) translate(.704 207.15)"/>
                    <path fill="#424242" d="M44.633 30.91c-.438-.437-1.042-.709-1.704-.709-1.324 0-2.409 1.086-2.409 2.414v18.706c-1.019.046-1.84.887-1.84 1.917v.131c0 1.059.866 1.925 1.924 1.925h2.78v-.045c1.111-.214 1.959-1.195 1.959-2.368V42.267c0-.666-.272-10.918-.71-11.356" transform="translate(0 14.464) translate(36 56.532) translate(.704 207.15)"/>
                    <path fill="#FB8C00" d="M45.342 33.883v8.384c-.723.235-1.49.362-2.29.362-.89 0-1.74-.16-2.532-.445-2.884-1.057-4.946-3.861-4.946-7.154 0-.392.04-.771.095-1.147h9.673" transform="translate(0 14.464) translate(36 56.532) translate(.704 207.15)"/>
                    <path fill="#F5F5F5" d="M43.438 27.342l-32.85-9.926-3.623-1.131v9.935c0 4.847 3.96 8.81 8.802 8.81H43.49l-.052-7.688" transform="translate(0 14.464) translate(36 56.532) translate(.704 207.15)"/>
                    <path fill="#FFA726" d="M43.986 17.416H20.86c-1.814 0-3.285-1.472-3.285-3.287v-1.756c0-2.708-1.969-5.087-4.656-5.413-3.203-.388-5.955 2.134-5.955 5.27v4.057l3.625 1.13h.263v4.914c0 2.599 1.141 4.942 2.946 6.557.77.69 1.37 1.551 1.787 2.498.682 1.552 2.45 2.662 4.522 2.662 1.335 0 2.543-.458 3.416-1.199 1.361-1.155 3.133-1.71 4.918-1.71h11.236c1.843 0 3.331 1.503 3.316 3.347l-.004.544c0 3.293 2.063 6.097 4.947 7.154.792.286 1.641.445 2.532.445.799 0 1.61-.158 2.333-.393l-.014-16.016c0-4.842-3.962-8.804-8.802-8.804" transform="translate(0 14.464) translate(36 56.532) translate(.704 207.15)"/>
                    <path fill="#424242" d="M20.108 30.203c-1.327 0-2.412 1.085-2.412 2.412v18.698c-1.063 0-1.929.866-1.929 1.925v.131c0 1.059.866 1.925 1.923 1.925h2.78v-.036c1.155-.178 2.05-1.173 2.05-2.377V32.615c0-1.327-1.086-2.412-2.412-2.412" transform="translate(0 14.464) translate(36 56.532) translate(.704 207.15)"/>
                    <path fill="#FFA726" d="M22.188 11.174s-.228.321-.644.829c-1.53 1.866-5.632 6.234-10.452 6.234-4.814 0-8.918-4.368-10.448-6.234-.416-.508-.644-.83-.644-.83S4.967 4.11 11.092 4.11c6.129 0 11.096 7.065 11.096 7.065" transform="translate(0 14.464) translate(36 56.532) translate(.704 207.15)"/>
                    <path fill="#E0E0E0" d="M21.544 12.003c-1.53 1.866-5.632 6.234-10.452 6.234-4.814 0-8.918-4.368-10.448-6.234.84-.262 1.712-.413 2.613-.413 1.754 0 3.414.578 4.887 1.407 1.1.615 4.718.677 5.764.076 1.508-.868 3.215-1.483 5.025-1.483.9 0 1.773.151 2.611.413" transform="translate(0 14.464) translate(36 56.532) translate(.704 207.15)"/>
                    <path fill="#424242" d="M9.246 9.577s-.887.73-1.674.512c-.786-.217-1.173-1.3-1.173-1.3s.888-.73 1.675-.512c.786.218 1.172 1.3 1.172 1.3M12.941 9.577s.889.73 1.675.512c.785-.217 1.172-1.3 1.172-1.3s-.887-.73-1.674-.512c-.786.218-1.173 1.3-1.173 1.3" transform="translate(0 14.464) translate(36 56.532) translate(.704 207.15)"/>
                    <path fill="#F5F5F5" d="M12.931 10.976c-.782 0-1.463.339-1.837.845-.375-.506-1.056-.845-1.837-.845-1.183 0-2.143.777-2.143 1.735 0 .958.96 1.736 2.143 1.736.781 0 1.462-.34 1.837-.846.374.507 1.055.846 1.837.846 1.183 0 2.142-.778 2.142-1.736s-.959-1.735-2.142-1.735" transform="translate(0 14.464) translate(36 56.532) translate(.704 207.15)"/>
                    <path fill="#424242" d="M12.556 11.867c0 .6-.655 1.086-1.462 1.086-.808 0-1.463-.487-1.463-1.086 0-.6.655-1.086 1.463-1.086.807 0 1.462.486 1.462 1.086" transform="translate(0 14.464) translate(36 56.532) translate(.704 207.15)"/>
                </g>
                <g fill="#92BE99">
                    <path d="M851.625 71.421c-.031.514-.096 1.115-.098 1.716-.006 1.4.813 2.36 1.935 3.127.371.253.793.081 1.196-.015.397-.095.803-.164 1.21-.214.397-.049.728.101 1.002.38.084.086.195.16.309.205.259.106.218.25.06.393-.285.26-.568.527-.881.755-.353.258-.725.497-1.112.704-.303.162-.347.298-.116.56.682.772 1.54 1.198 2.603 1.283.655.053 1.242.282 1.544.892.142.286.23.6.308.909.6 2.36 1.326 4.702 1.291 7.165-.011.835-.034 1.671-.097 2.503-.015.197-.172.47-.343.544-.14.062-.45-.066-.593-.199-.812-.75-1.351-1.642-1.58-2.719-.228-1.066-.405-2.18-1.086-3.08-.427-.564-1.01-1.045-1.598-1.47-1.292-.933-2.64-1.795-3.946-2.712-.327-.229-.566-.568-.871-.829-.114-.096-.32-.187-.452-.156-1.226.289-2.333.787-3.09 1.8-.52.696-.544.756-1.296.044-.349-.33-.626-.74-.88-1.146-.242-.385-.12-.588.35-.715.682-.186 1.367-.376 1.927-.813.347-.271.682-.563.98-.88.29-.312.442-.655.196-1.1-.741-1.34-.877-2.829-1.155-4.29-.157-.821-.395-1.673-.82-2.392-.35-.593-1.013-1.025-1.563-1.502-.963-.833-1.99-1.604-2.766-2.615-.068-.088-.137-.18-.177-.28-.126-.313.01-.555.351-.515.687.082 1.379.185 2.041.369.95.264 1.906.543 2.804.933 1.271.551 2.5 1.194 3.73 1.828.585.302.773.829.683 1.532M841.387 45.374c-.275.089-.568.135-.825.262-.435.216-.453.573-.025.806.531.29 1.075.633 1.65.74 1.36.254 2.125 1.203 2.784 2.315.77 1.3 1.525 2.612 2.276 3.925.122.214.214.453.275.693.028.11-.016.296-.093.362-.07.059-.273.05-.347-.015-.506-.444-.723-.811-1.226-1.258-.51-.453-.943-.981-1.379-1.283-.435-.302-.784-.315-.954-.315-1.564-.003-2.82-.769-4.005-1.718-.612-.49-1.22-.985-1.832-1.474-.545-.435-.862-.426-1.549.015-.245.157-.372.366-.396.671-.027.349-.11.692-.144 1.04-.03.31-.197.45-.47.466-.477.03-.975.146-1.427.045-.76-.169-1.036-.868-1.258-1.564-.037-.118-.05-.246-.072-.37-.117-.677-.011-.872.577-.947.588-.076 1.11-.423 1.628-.708.439-.24.542-.634.248-1.042-.38-.528-.84-.996-1.287-1.468-.542-.57-1.18-1.058-1.499-1.817-.24-.573-.468-1.158-.63-1.758-.21-.784-.368-1.586-.516-2.387-.252-1.361-.874-2.483-1.902-3.368-.17-.148-.485-.294-.32-.586.16-.283.434-.077.657-.015 1.246.352 2.276 1.13 3.336 1.846.596.403 1.178.83 1.762 1.252.718.519 1.09 1.29 1.39 2.107.265.723.437 1.499.797 2.166.336.623.85 1.147 1.314 1.688.287.336.703.372 1.11.345.457-.03.914-.081 1.371-.129.466-.048.888.036 1.24.388.23.23.472.45.779.74-.369.125-.702.24-1.038.35zM14.875 48.935c-.552.898-1.2 1.442-1.915 1.9-1.672 1.073-3.477 1.734-5.5 1.717-.756-.006-.88.124-1.04.863-.027.127-.058.255-.066.383-.035.583-.386.802-.924.802-1.195 0-2.402-.015-3.484-.578-.393-.204-.83-.596-.95-.992-.208-.685-.266-1.443-.237-2.165.027-.667.377-.871 1.032-.73.634.136 1.254.338 1.88.513.107.03.209.078.316.108 1.168.328 1.621.052 1.453-1.118-.2-1.4-.54-2.79-.952-4.144-.548-1.806-1.181-3.574-1.152-5.51.007-.48-.347-.992-.615-1.443-.707-1.188-1.06-2.496-1.22-3.83-.123-1.024-.568-1.856-1.078-2.692L0 31.32l.084-.168c.206.071.47.084.608.222 1.286 1.279 2.587 2.547 3.812 3.883 1.2 1.31 2.346 2.672 3.454 4.059.332.416.545.975.662 1.501.197.883.267 1.792.404 2.689.027.18.115.35.215.642.346-.665.616-1.201.902-1.73.5-.924 1.022-1.837 1.512-2.767.378-.717.304-1.461.08-2.213-.052-.177.012-.388.023-.583.202.089.454.128.597.274.739.755.878 1.773 1.118 2.734.279 1.11.476 2.242.741 3.357.26 1.09-.295 1.891-.901 2.68-.371.481-.8.923-1.136 1.427-.418.627-.194.967.544 1.085.694.112 1.37.328 2.156.523M622.657 47.045c-.393.284-.787.56-1.17.853-.107.081-.191.203-.267.32-.089.138-.06.224.08.348.546.48 1.067.993 1.593 1.498.046.044.077.124.084.191.007.073-.005.162-.042.22-.015.023-.122-.006-.18-.03-.498-.213-.985-.468-1.497-.632-.31-.1-.683-.153-.984-.063-.58.174-1.098.066-1.633-.146-.16-.063-.351-.057-.527-.05-.171.009-.34.074-.511.09-.482.048-.9.188-1.148.694-.049.1-.254.19-.362.165-.504-.118-.813-.319-.893-.93-.027-.209.025-.326.224-.39.358-.115.717-.237 1.061-.391.19-.085.366-.225.525-.368.195-.177.264-.398.188-.689-.31-1.18-.427-2.375-.249-3.6.045-.312-.007-.663-.094-.97-.278-.986-.446-1.983-.34-3.01.1-.964.346-1.891.752-2.764.043-.091.133-.157.201-.235.08.095.203.176.235.287.164.58.286 1.172.46 1.748.222.74.46 1.477.73 2.199.194.522.493 1.002.663 1.53.112.348.107.75.102 1.126-.006.513-.077 1.026-.091 1.54-.008.274.029.554.075.826.064.38.234.45.556.289.555-.279 1.131-.45 1.723-.157.28.138.525.355.736.5M592.437 57.183c2.27-.006 3.816.15 5.324.567.54.15.863.462.914.98.048.501.031 1.007.084 1.507.093.875.487 1.568 1.443 1.925.425.158.825.19 1.244.023.385-.152.736-.162 1.137.037.21.105.564.069.811-.012.414-.135.792-.36 1.188-.542.483-.223.83-.188 1.075.255.263.474.483 1.002.547 1.524.105.858.07 1.73.09 2.596.002.097.007.207-.037.29-.069.131-.155.31-.278.347-.104.032-.312-.076-.404-.175-.73-.784-1.441-1.58-2.159-2.373-.087-.096-.164-.202-.265-.284-.482-.386-.636-.383-1.044.073-.57.633-1.207 1.193-2.027 1.54-.48.203-.986.386-1.502.482-.67.124-1.197.39-1.584.903-.323.43-.503.446-.975.143-.249-.16-.529-.283-.769-.453-.131-.093-.209-.25-.31-.379.118-.075.23-.16.355-.224.486-.253 1.001-.465 1.455-.758.414-.268.388-.685.177-1.062-.424-.756-.883-1.497-1.316-2.25-.363-.628-.706-1.265-1.065-1.895-.426-.747-1.222-.859-2.02-.964-.799-.106-1.614-.157-2.392-.34-.518-.12-.992-.416-1.467-.663-.101-.052-.15-.227-.168-.352-.004-.036.184-.127.29-.137 1.446-.136 2.894-.262 3.648-.33M50.046 45.823l-.744.952c.244.046.374.112.474.081.566-.172.98.046 1.417.399 2.38 1.918 4.783 3.805 7.169 5.714.461.37.895.776 1.314 1.194.13.13.169.35.248.525-.135.065-.181.103-.198.093-1.338-.814-2.9-.693-4.354-1.017-1.596-.355-3.097-.87-4.438-1.824-.253-.18-.62-.303-.927-.29-.738.031-1.484.108-2.206.261-.781.167-1.526.232-2.303-.028-.453-.151-.947-.233-1.423-.238-.279-.003-.649.13-.824.332-.675.78-1.307 1.598-1.915 2.431-.356.489-.56.546-1.105.26-1.008-.53-1.355-1.95-1.296-2.83.027-.403.33-.47.643-.574.732-.242 1.451-.521 2.173-.792.06-.022.102-.091.15-.137-.034-.05-.05-.1-.075-.105-.822-.166-.833-.17-.541-.928.573-1.487 1.69-2.546 2.88-3.532.375-.311.697-.13.76.359.102.79.456.961 1.167.556.29-.165.58-.332.85-.526.96-.689 2.01-.425 3.104-.336M315.878 57.647c-.174.076-.345.211-.521.219-1.849.077-3.701.24-5.538-.147-.249-.052-.51-.074-.764-.065-1.759.068-3.476-.214-5.201-.503-.68-.114-1.413.047-2.118.115-.326.032-.653.12-.963.228-.153.054-.369.203-.376.32-.01.149.157.313.258.464.083.124.18.24.27.358-.127.082-.247.217-.383.236-.884.118-1.767.179-2.632-.144-.875-.327-1.33-1.023-1.678-1.81-.125-.282-.22-.582-.287-.884-.102-.465.113-.642.58-.495.343.108.678.245 1.024.343.166.048.373.096.52.04.21-.081.49-.23.537-.402.039-.143-.173-.432-.347-.536-.833-.497-1.683-.967-2.542-1.421-1.11-.587-1.865-1.503-2.372-2.585-.67-1.427-1.238-2.902-1.835-4.362-.081-.2-.106-.433-.101-.65.002-.117.12-.233.187-.35.108.082.255.141.32.248.41.684.737 1.425 1.214 2.06 1.067 1.422 2.437 2.558 3.84 3.652.633.495 1.301.949 1.91 1.47.271.234.456.577.64.891.175.3.37.5.75.555.618.09 1.192.303 1.593.822.236.304.546.434.942.407.782-.051 1.578-.006 2.344-.136 1.257-.214 2.418.068 3.499.6 2.149 1.058 4.416 1.394 6.783 1.293.131-.005.262 0 .394 0l.053.17M223.977 0c.442.584.886 1.166 1.326 1.752.334.443.649.901 1.001 1.329.103.125.306.17.464.25.07-.16.168-.315.202-.483.049-.244.052-.497.085-.863.282.18.494.262.632.412.832.895 1.635 1.817 2.472 2.707.452.48.593 1.007.57 1.664-.026.789.087 1.583.162 2.373.047.485.312.638.772.423.235-.11.472-.233.722-.29.356-.08.736-.178 1.084-.128.28.04.527.293.789.451-.124.194-.231.4-.376.578-.34.415-.728.794-1.043 1.227-.836 1.15-2.025 1.705-3.363 1.984-.723.151-1.232.567-1.687 1.095-.6.696-.73.697-1.315.009-.791-.93-.71-1.174.465-1.46.176-.044.339-.142.506-.218.401-.182.372-.43.148-.753-.675-.97-1.367-1.93-1.982-2.937-.292-.478-.482-1.039-.62-1.586-.315-1.254-.56-2.525-.854-3.784-.175-.75-.452-1.481-.56-2.239-.067-.474.094-.98.153-1.473l.247-.04zM620.052 62.816l-.296.535c.114.036.201.095.27.079.473-.114.821.104 1.197.358 1.141.77 2.315 1.49 3.461 2.254.797.53 1.573 1.093 2.349 1.656.135.098.22.267.395.488-.206 0-.315.016-.418-.003-.407-.075-.809-.208-1.218-.234-1.246-.08-2.484-.192-3.668-.616-.28-.1-.57-.215-.808-.387-.544-.393-1.112-.306-1.68-.13-.804.252-1.596.537-2.455.268-1.077-.339-1.496.462-1.965 1.154-.159.233-.277.496-.39.757-.175.409-.41.519-.813.349-.565-.24-1.157-1.226-1.026-1.822.041-.184.278-.365.469-.466.302-.16.645-.239.96-.376.114-.05.198-.17.385-.337-.599-.039-.542-.283-.428-.64.295-.928.863-1.669 1.5-2.373.477-.529.662-.502.894.152.13.37.383.296.61.159.346-.209.658-.473 1-.687.51-.317 1.05-.194 1.675-.138M281.948 30.962c-.197-.01-.396-.005-.59-.032-1.015-.139-1.976-.087-2.905.458-.424.249-.98.294-1.483.385-1.054.19-2.002.507-2.416 1.633-.181.491-.637.584-1.008.402-.344-.169-.585-.553-.844-.865-.017-.02.186-.237.299-.35.455-.452.927-.886 1.367-1.352.25-.265.194-.564.002-.865-.348-.544-.717-1.081-.99-1.662-.28-.597-.441-1.248-.684-1.864-.192-.488-.356-1.012-.66-1.426-1.329-1.81-1.868-3.831-1.743-6.046.01-.158.14-.31.215-.464.168.088.389.136.495.272.815 1.05 1.584 2.136 2.418 3.17.427.53.947.987 1.444 1.458.515.489.801 1.082.99 1.759.212.76.466 1.513.778 2.236.204.472.48.473.863.117.654-.61 1.382-1.004 2.316-.778.445.108.492.278.23.664-.257.381-.499.773-.741 1.164-.173.28-.062.429.228.535.678.25 1.356.503 2.016.795.2.09.344.308.514.467l-.111.189M23.357 30.679c1.54-.84 3.002-1.88 4.913-1.739.762.057.952.282.789 1.013-.16.717-.223 1.426.184 2.1.288.476.558.531.95.123.267-.279.492-.598.732-.903.235-.299.531-.286.666.019.259.586.644.696 1.208.516.127-.04.285.018.564.042-.242.585-.402 1.133-.684 1.609-.274.46-.346.897-.15 1.37.446 1.073.917 2.136 1.365 3.208.082.197.105.418.155.627l-.164.093c-.219-.15-.45-.286-.654-.453-.627-.51-1.324-.963-1.847-1.565-.8-.923-1.593-.73-2.629-.453-.892.24-1.578.573-2.176 1.243-.365.41-1.145.418-1.614.132-.627-.382-1.036-1.107-.914-1.648.101-.45.44-.584.86-.657.542-.093 1.079-.226 1.608-.378.125-.036.292-.216.29-.328-.002-.13-.14-.298-.266-.382-1.052-.702-1.248-1.369-.704-2.485.341-.702.135-1-.664-.945-.315.022-.627.091-.942.103-.283.01-.567-.03-.851-.047l-.025-.215M572.386 26.03c.158.36.298.736.484 1.089.379.718.744 1.45 1.189 2.128.317.484.383.99.418 1.53.02.317.056.638.134.946.11.43.25.446.676.286.316-.119.669-.165 1.008-.185.115-.007.29.142.343.26.034.078-.088.24-.168.345-.078.102-.194.176-.287.269-.263.265-.221.453.097.648.375.23.732.49 1.097.738l-.075.187c-.196-.027-.408-.016-.587-.087-.49-.194-.959-.205-1.458-.022-.224.083-.496.105-.734.07-.716-.105-1.328.004-1.818.596-.09.11-.389.127-.553.074-.148-.048-.331-.25-.336-.39-.005-.138.17-.313.308-.419.229-.175.541-.265.722-.474.132-.151.208-.471.14-.653-.281-.743-.45-1.486-.502-2.286-.037-.576-.325-1.134-.495-1.702-.284-.946-.168-1.872.15-2.786.014-.039.052-.071.084-.1.02-.016.052-.02.163-.062M308.757 22.54c.062-.115.096-.262.19-.34.28-.23.496-.17.633.182.246.634.502 1.265.76 1.895.215.528.194 1.046-.043 1.56-.07.15-.157.296-.205.453-.332 1.076-.238 1.209.868 1.313.2.018.423.05.583.156.133.087.234.282.261.444.013.076-.17.209-.286.277-.384.223-.756.5-1.173.623-.61.18-1.254.34-1.882.333-.608-.007-1.168.005-1.723.281-.176.088-.545.109-.625.006-.164-.212-.275-.538-.242-.796.017-.133.386-.302.604-.315.77-.044.785-.126.578-.869-.3-1.073-.65-2.138-.38-3.31.194-.839.151-1.728.259-2.59.067-.543.205-1.08.343-1.612.025-.093.259-.23.312-.2.142.08.295.223.343.373.178.561.312 1.137.472 1.705.032.116.102.222.155.332l.198.099M325.113 20.026c.848 2.02 2.21 3.471 3.764 4.758.582.482 1.195.926 1.795 1.386.097.074.229.124.29.221.79 1.26 2.082 1.878 3.28 2.611.219.133.48.254.727.269.51.03 1.033.042 1.534-.041 1.697-.282 3.19.258 4.728.91 1.147.487 2.446.617 3.682.884.323.07.664.058.995.117-1.621.162-3.217.31-4.862-.034-1.42-.297-2.917-.197-4.365-.386-1.154-.15-2.271-.173-3.393.149-.352.1-.63.182-.357.634.28.465-.072.666-.411.713-1.783.25-3.255-.462-3.637-2.425-.1-.512.194-.654.656-.566.357.069.717.154 1.076.16.159.003.406-.14.455-.276.045-.124-.078-.39-.206-.482-.455-.323-.917-.664-1.425-.88-1.791-.766-2.83-2.161-3.466-3.953-.284-.804-.662-1.574-.99-2.363-.173-.414-.42-.836.13-1.406" transform="translate(0 14.464) translate(36 56.532) translate(212.03 .21)"/>
                </g>
            </g>
        </g>
        <path fill="#514235" d="M844.104 320.59L853.263 320.59 853.192 332.812 844.031 332.812 844.104 320.59M1049.5 325.332L1055.106 325.332 1055.061 332.812 1049.455 332.812 1049.5 325.332M1101.786 327.427L1110.54 327.427 1111.786 332.812 1103.043 332.812 1101.786 327.427M750.676 325.505L755.023 325.505 755.316 332.812 750.969 332.812 750.676 325.505M167.986 323.677L172.469 323.677 173.054 332.812 168.572 332.812 167.986 323.677M200.728 325.202L207.409 325.202 207.746 332.812 201.065 332.812 200.728 325.202M645.018 327.746L651.929 327.746 651.876 332.812 644.964 332.812 645.018 327.746M551.751 321.07L557.514 321.07 557.651 332.812 551.888 332.812 551.751 321.07M1145.887 320.508L1151.926 320.508 1152.382 332.812 1146.343 332.812 1145.887 320.508M300.688 332.812L304.856 332.812 304.856 324.32 300.688 324.32zM377.265 327.507L381.922 327.507 382.157 332.812 377.499 332.812 377.265 327.507M869.911 326.822L875.172 326.822 875.437 332.812 870.177 332.812 869.911 326.822M49.28 324.844L54.907 324.844 55.713 332.812 50.086 332.812 49.28 324.844M975.243 332.812L980.544 332.812 980.544 322.011 975.243 322.011z"/>
        <path fill="#4F2E1D" d="M1055.61 333.934h-4.864c.334-1.669 1.801-3.288 4.323-4.144l.54 4.144M1022.797 333.934h-4.864c.335-1.669 1.802-3.288 4.323-4.144l.541 4.144M1032.044 333.934h-4.864c.335-1.669 1.801-3.288 4.324-4.144l.54 4.144M1064.813 333.934h-4.864c.335-1.669 1.801-3.288 4.324-4.144l.54 4.144M1106.968 333.472h5.33c-.368-1.829-1.975-3.601-4.738-4.541l-.592 4.541M1142.92 333.471h5.328c-.367-1.828-1.974-3.601-4.737-4.54l-.592 4.54M1132.788 333.471h5.329c-.367-1.828-1.974-3.601-4.737-4.54l-.592 4.54M1096.884 333.472h5.33c-.367-1.829-1.975-3.601-4.737-4.541l-.593 4.541"/>
        <path fill="#8D5B49" d="M964.09 329.5v3.284c0 .424-.345.767-.771.767-.426 0-.776-.343-.776-.767V329.5c0-.423.35-.767.776-.767.426 0 .772.344.772.767"/>
        <path fill="#8D5B49" d="M964.09 332.783c0 .422-.347.768-.773.768h-2.038c-.426 0-.774-.346-.774-.768 0-.422.348-.768.774-.768h2.038c.426 0 .774.346.774.768M976.08 329.5v3.284c0 .424-.35.767-.776.767-.426 0-.773-.343-.773-.767V329.5c0-.423.347-.767.773-.767.425 0 .776.344.776.767"/>
        <path fill="#8D5B49" d="M976.078 332.783c0 .422-.348.768-.773.768h-2.039c-.426 0-.773-.346-.773-.768 0-.422.347-.768.773-.768h2.039c.425 0 .773.346.773.768"/>
        <path fill="#A17362" d="M966.552 329.5v3.284c0 .424-.346.767-.772.767-.426 0-.776-.343-.776-.767V329.5c0-.423.35-.767.776-.767.426 0 .772.344.772.767"/>
        <path fill="#A17362" d="M966.552 332.783c0 .422-.348.768-.773.768h-2.04c-.424 0-.773-.346-.773-.768 0-.422.349-.768.774-.768h2.04c.424 0 .772.346.772.768M978.54 329.5v3.284c0 .424-.349.767-.775.767-.426 0-.772-.343-.772-.767V329.5c0-.423.346-.767.772-.767.426 0 .776.344.776.767"/>
        <path fill="#A17362" d="M978.54 332.783c0 .422-.348.768-.774.768h-2.039c-.425 0-.773-.346-.773-.768 0-.422.348-.768.773-.768h2.039c.426 0 .773.346.773.768"/>
        <path fill="#D7AFA1" d="M963.177 328c0 .791-.084 1.562-.253 2.304h-10.306c-.396 0-.746-.134-1.02-.352-.625-.49-.856-1.416-.359-2.17.22-.332.44-.67.667-1.014 1.708-2.569 3.69-5.443 5.724-8.158 3.312 1.84 5.547 5.355 5.547 9.39"/>
        <path fill="#EDC5B9" d="M955.65 328.993c0 .836-1.023 1.513-2.285 1.513-.712 0-1.348-.216-1.767-.554-.324-.261-.518-.595-.518-.96 0-.834 1.023-1.512 2.285-1.512 1.262 0 2.285.678 2.285 1.513"/>
        <path fill="#423636" d="M958.625 324.647c0 .618-.504 1.118-1.125 1.118s-1.124-.5-1.124-1.118c0-.617.503-1.116 1.124-1.116.621 0 1.125.5 1.125 1.116"/>
        <path fill="#D7AFA1" d="M959.418 323.435c-.538-.673-.424-1.66.254-2.194l.837-.66c.677-.535 1.672-.421 2.21.251.538.673.423 1.66-.254 2.195l-.837.66c-.678.534-1.672.42-2.21-.252"/>
        <path fill="#A17362" d="M960.652 323.187c-.226 0-.435-.1-.573-.273-.12-.15-.174-.34-.152-.533.022-.193.118-.365.27-.484l.837-.66c.162-.129.335-.155.45-.155.227 0 .436.098.574.271.12.15.174.34.151.533-.022.194-.118.365-.268.485l-.838.66c-.163.128-.335.156-.451.156"/>
        <path fill="#5C322B" d="M182.587 334.303H127.67c-2.638 0-4.797-2.158-4.797-4.798v-1.442c0-3.434 2.807-6.242 6.238-6.242h52.033c3.433 0 6.24 2.808 6.24 6.242v1.442c0 2.64-2.159 4.798-4.797 4.798"/>
        <path fill="#5C322B" d="M152.18 321.821c-.126 1.988-.197 4.141-.197 6.386 0 .6.003 3.16.015 3.745.019 1.064-.321 1.843-.875 2.35h-4.838c-.739-.417-1.425-1.004-1.97-1.747-2.185-2.981-3.913-6.754-5.24-10.734h13.106M171.184 321.821c-1.325 3.977-3.054 7.747-5.237 10.731-.547.746-1.236 1.336-1.976 1.75h-4.831c-.557-.507-.897-1.286-.879-2.353.014-.584.016-3.145.016-3.742 0-2.245-.071-4.398-.198-6.386h13.105"/>
        <path fill="#D0A697" d="M124.546 319.277c.524 1.2.673 2.293.334 2.44-.339.149-1.038-.705-1.562-1.904-.24-.547-.33-1.104-.357-1.546-.024-.374.436-.576.694-.303.306.32.652.765.89 1.313M122.846 320.613c.376 1.254.393 2.356.04 2.463-.356.106-.947-.824-1.323-2.08-.172-.571-.194-1.134-.168-1.577.02-.374.501-.518.726-.217.265.356.554.838.725 1.411M121.584 322.936c.375 1.254.392 2.357.038 2.463-.355.106-.947-.824-1.322-2.08-.171-.571-.194-1.134-.169-1.577.022-.374.503-.518.726-.217.265.356.555.838.727 1.411M125.567 319.425c.664 1.128 1.461 1.89 1.78 1.702.319-.187.038-1.254-.626-2.382-.302-.515-.7-.915-1.042-1.197-.29-.238-.72.017-.653.385.081.436.238.977.54 1.492M128.128 320.077c.665 1.129 1.462 1.891 1.78 1.703.319-.188.04-1.255-.625-2.383-.303-.514-.7-.913-1.041-1.196-.29-.238-.722.017-.653.385.08.436.237.977.54 1.49"/>
        <path fill="#6D3F37" d="M130.416 333.567l-.69.301c-2.641 1.154-5.748-.064-6.901-2.708l-2.298-5.264c-.952-2.183.054-4.748 2.235-5.7l2.365-1.034c2.183-.952 4.746.054 5.698 2.236l2.298 5.265c1.154 2.644-.064 5.75-2.707 6.904"/>
        <path fill="#8C594A" d="M124.32 330.159l-.29-.663c-.796-1.824.045-3.969 1.868-4.764l.546-.24c1.824-.796 3.968.045 4.764 1.87l.29.663c.796 1.824-.045 3.968-1.87 4.765l-.545.238c-1.823.797-3.968-.044-4.763-1.869M125.437 323.05c-.356.156-.775-.008-.93-.363l-.57-1.306c-.154-.356.01-.775.365-.93.356-.155.774.008.929.364l.57 1.307c.155.356-.008.774-.364.929M123.834 324.307c-.356.154-.774-.01-.929-.365l-.57-1.305c-.155-.356.008-.775.364-.93.356-.155.774.009.93.365l.57 1.305c.154.356-.01.774-.365.93M122.52 326.224c-.356.156-.774-.01-.93-.365l-.569-1.305c-.155-.356.009-.775.365-.93.356-.155.774.009.929.365l.57 1.306c.155.355-.009.773-.365.929M127.48 322.715c.356-.156.52-.574.365-.93l-.571-1.306c-.155-.356-.573-.52-.929-.364-.356.155-.52.574-.365.93l.571 1.305c.155.356.573.52.929.365M129.779 323.054c.356-.155.52-.573.363-.929l-.569-1.306c-.156-.356-.574-.52-.929-.364-.356.155-.52.573-.365.929l.57 1.305c.156.356.574.52.93.365"/>
        <path fill="#D0A697" d="M185.711 319.277c-.524 1.2-.674 2.293-.334 2.44.339.149 1.038-.705 1.562-1.904.238-.547.33-1.104.357-1.546.024-.374-.437-.576-.695-.303-.306.32-.652.765-.89 1.313M187.41 320.613c-.375 1.254-.393 2.356-.038 2.463.354.106.946-.824 1.321-2.08.172-.571.195-1.134.17-1.577-.023-.374-.503-.518-.727-.217-.265.356-.555.838-.726 1.411M188.673 322.936c-.376 1.254-.392 2.357-.038 2.463.354.106.946-.824 1.322-2.08.171-.571.194-1.134.169-1.577-.022-.374-.503-.518-.726-.217-.265.356-.555.838-.727 1.411M184.69 319.425c-.665 1.128-1.461 1.89-1.78 1.702-.318-.187-.04-1.254.626-2.382.302-.515.7-.915 1.04-1.197.29-.238.723.017.654.385-.08.436-.237.977-.54 1.492M182.128 320.077c-.664 1.129-1.462 1.891-1.78 1.703-.32-.188-.039-1.255.625-2.383.304-.514.7-.913 1.042-1.196.29-.238.722.017.653.385-.08.436-.238.977-.54 1.49"/>
        <path fill="#6D3F37" d="M179.84 333.567l.69.301c2.642 1.154 5.747-.064 6.902-2.708l2.298-5.264c.952-2.183-.053-4.748-2.236-5.7l-2.365-1.034c-2.182-.952-4.745.054-5.697 2.236l-2.298 5.265c-1.154 2.644.064 5.75 2.707 6.904"/>
        <path fill="#8C594A" d="M185.937 330.159l.29-.663c.796-1.824-.045-3.969-1.87-4.764l-.544-.24c-1.824-.796-3.969.045-4.764 1.87l-.29.663c-.796 1.824.045 3.968 1.868 4.765l.546.238c1.824.797 3.968-.044 4.764-1.869M184.82 323.05c.356.156.773-.008.93-.363l.569-1.306c.155-.356-.008-.775-.364-.93-.356-.155-.774.008-.93.364l-.57 1.307c-.155.356.01.774.365.929M186.422 324.307c.356.154.774-.01.93-.365l.57-1.305c.155-.356-.01-.775-.365-.93-.355-.155-.773.009-.93.365l-.569 1.305c-.155.356.01.774.364.93M187.737 326.224c.356.156.773-.01.928-.365l.57-1.305c.156-.356-.008-.775-.364-.93-.356-.155-.774.009-.93.365l-.57 1.306c-.155.355.01.773.366.929M182.777 322.715c-.356-.156-.52-.574-.365-.93l.57-1.306c.156-.356.574-.52.93-.364.356.155.52.574.363.93l-.569 1.305c-.156.356-.574.52-.929.365M180.478 323.054c-.356-.155-.52-.573-.365-.929l.571-1.306c.155-.356.573-.52.929-.364.356.155.52.573.365.929l-.571 1.305c-.155.356-.573.52-.929.365"/>
        <path fill="#6D3F37" d="M154.76 334.303c-.153-1.784-1.65-3.186-3.474-3.186-1.824 0-3.32 1.402-3.474 3.186h6.948M155.58 334.303c.153-1.784 1.649-3.186 3.474-3.186 1.824 0 3.32 1.402 3.474 3.186h-6.948"/>
    </g>
</svg>
