<svg xmlns="http://www.w3.org/2000/svg" xmlns:xlink="http://www.w3.org/1999/xlink" width="961" height="128" viewBox="0 0 961 128">
    <defs>
        <path id="prefix__a" d="M0 0H961V128H0z"/>
    </defs>
    <g fill="none" fill-rule="evenodd">
        <mask id="prefix__b" fill="#fff">
            <use xlink:href="#prefix__a"/>
        </mask>
        <g mask="url(#prefix__b)">
            <g>
                <path fill="#95B33D" d="M960.849 260.326H720.377c71.79 0 76.985-61.243 133.304-61.243 43.607 0 55.036 61.243 107.168 61.243" transform="translate(0 -133.12)"/>
                <path fill="#89A53E" d="M960.849 260.326H860.838v-60.659c37.883 6.212 50.845 60.66 100.01 60.66" transform="translate(0 -133.12)"/>
                <path fill="#67A843" d="M782.362 260.326H508.018c81.902 0 87.828-69.87 152.083-69.87 49.747 0 62.783 69.87 122.26 69.87" transform="translate(0 -133.12)"/>
                <path fill="#609E43" d="M782.362 260.326H659.1v-69.853c.336-.003.663-.017 1.001-.017 49.747 0 62.783 69.87 122.26 69.87" transform="translate(0 -133.12)"/>
                <path fill="#67A843" d="M533.113 260.326H55.02c142.728 0 153.057-121.76 265.033-121.76 86.693 0 109.41 121.76 213.06 121.76" transform="translate(0 -133.12)"/>
                <path fill="#609E43" d="M533.113 260.326H312.22V138.791c2.561-.135 5.16-.226 7.833-.226 86.693 0 109.41 121.761 213.06 121.761" transform="translate(0 -133.12)"/>
                <path fill="#95B33D" d="M702.924 260.326H324.526c112.966 0 121.14-96.37 209.767-96.37 68.615 0 86.594 96.37 168.63 96.37" transform="translate(0 -133.12)"/>
                <path fill="#89A53E" d="M702.924 260.326H544.082v-95.682c60.75 8.59 80.85 95.682 158.842 95.682" transform="translate(0 -133.12)"/>
                <path fill="#3A9946" d="M524.767 182.919L519.716 215.685 530.295 215.685 524.767 182.919" transform="translate(0 -133.12)"/>
                <path fill="#328140" d="M524.767 182.919L530.295 215.685 521.168 215.685 528.812 214.954 525.159 214.12 528.247 212.176 523.672 211.25 527.907 208.75 523.187 208.658 527.66 205.325 523.398 205.325 527.389 202.659 525.223 202.825 526.754 201.129 523.922 199.161 525.784 196.489 524.299 194.469 525.82 193.73 524.709 193.381 525.524 191.719 524.646 191.436 525.357 190.812 524.937 189.77 525.139 188.404 524.77 188.011 524.767 182.919" transform="translate(0 -133.12)"/>
                <path fill="#95B33D" d="M213.82 260.326H.81c63.59 0 68.192-54.25 118.083-54.25 38.626 0 48.748 54.25 94.928 54.25" transform="translate(0 -133.12)"/>
                <path fill="#89A53E" d="M213.82 260.326h-95.122V206.08c.065 0 .128-.004.194-.004 38.626 0 48.748 54.25 94.928 54.25" transform="translate(0 -133.12)"/>
                <path fill="#698F3F" d="M436.892 153.398c24.16 0 28.727 78.627 25.852 96.91h-63.978c-2.66-18.283 5.614-96.91 38.126-96.91" transform="translate(0 -133.12)"/>
                <path fill="#514235" d="M425.743 250.308L433.261 250.308 433.203 260.326 425.684 260.326 425.743 250.308" transform="translate(0 -133.12)"/>
                <path fill="#567537" d="M436.357 155.446c24.16 0 29.262 76.58 26.387 94.86h-33.241c4.3-18.28 16.363-80.518 6.854-94.86" transform="translate(0 -133.12)"/>
                <path fill="#2D6936" d="M261.775 207.914c13.873 0 18.468 38.54 17.277 47.501h-36.737c-1.986-8.96.791-47.501 19.46-47.501" transform="translate(0 -133.12)"/>
                <path fill="#514235" d="M257.805 255.415L262.122 255.415 262.34 260.326 258.024 260.326 257.805 255.415" transform="translate(0 -133.12)"/>
                <path fill="#24512C" d="M261.52 208.918c13.873 0 18.723 37.537 17.532 46.497h-19.088c2.01-8.96 7.376-39.468 1.556-46.497" transform="translate(0 -133.12)"/>
                <path fill="#177166" d="M570.171 168.161L555.623 260.326 591.917 260.326 570.171 168.161" transform="translate(0 -133.12)"/>
                <path fill="#13574E" d="M591.917 260.326L570.171 168.161 569.5 177.483 572.063 178.454 569.918 179.544 572.171 179.7 569.917 184.011 573.906 186.725 569.768 191.498 575.202 197.173 572.512 200.995 576.252 206.267 569.381 204.981 576.366 210.857 567.755 216.114 578.627 216.715 572.587 221.525 582.454 226.186 579.433 227.388 582.857 229.192 573.392 231.597 583.058 232.047 578.427 233.551 584.266 235.655 565.338 241.067 585.877 243.171 569.366 243.021 585.877 246.629 567.755 247.981 585.877 250.086 577.621 251.289 584.468 253.694 570.976 256.25 585.675 257.753 555.623 260.326 591.917 260.326" transform="translate(0 -133.12)"/>
                <path fill="#0C8948" d="M548.06 200.448L537.615 260.326 561.947 260.326 548.06 200.448" transform="translate(0 -133.12)"/>
                <path fill="#13713F" d="M548.06 200.448L561.947 260.326 545.266 260.326 559.153 258.992 552.379 257.469 557.798 253.916 549.331 252.224 556.782 247.656 548.145 247.486 555.935 241.395 548.145 241.395 555.821 239.391 545.135 234.437 553.794 233.726 544.75 230.532 551.024 229.551 545.484 225.446 552.21 224.051 546.61 219.886 550.46 216.532 546.909 215.909 550.05 214.873 549.161 212.969 549.373 210.473 548.653 209.754 548.06 200.448" transform="translate(0 -133.12)"/>
                <path fill="#698F3F" d="M47.228 194.882c14.787 0 17.582 48.123 15.823 59.313H23.894c-1.627-11.19 3.435-59.313 23.334-59.313" transform="translate(0 -133.12)"/>
                <path fill="#514235" d="M40.405 254.195L45.007 254.195 44.971 260.326 40.369 260.326 40.405 254.195" transform="translate(0 -133.12)"/>
                <path fill="#567537" d="M46.902 196.136c14.786 0 17.908 46.87 16.149 58.058H42.706c2.632-11.189 10.015-49.28 4.196-58.058" transform="translate(0 -133.12)"/>
                <path fill="#328140" d="M854.74 222.338c10.06 0 15.665 27.934 15.336 34.429h-26.63c-1.97-6.495-2.235-34.43 11.294-34.43" transform="translate(0 -133.12)"/>
                <path fill="#514235" d="M854.676 256.767L857.798 256.767 858.245 260.326 855.124 260.326 854.676 256.767" transform="translate(0 -133.12)"/>
                <path fill="#2D6936" d="M854.612 223.066c10.06 0 15.793 27.206 15.464 33.7h-13.839c.931-6.494 3.013-28.605-1.625-33.7" transform="translate(0 -133.12)"/>
                <path fill="#338158" d="M103.023 199.238L89.861 260.326 113.702 260.326 103.023 199.238" transform="translate(0 -133.12)"/>
                <path fill="#2B6848" d="M103.023 199.238L113.702 260.326 93.13 260.326 110.399 258.965 93.678 254.869 109.275 253.786 96.65 249.318 108.696 247.399 95.28 245.034 108.326 241.012 98.719 241.012 107.858 236.043 102.97 236.352 106.511 233.188 98.824 229.538 105.944 225.456 100.788 224.932 105.599 223.319 99.526 223.192 105.466 220.887 100.648 220.237 105.217 217.732 103.033 212.012 103.563 209.466 102.753 208.732 103.023 199.238" transform="translate(0 -133.12)"/>
                <path fill="#177166" d="M903.386 215.135L896.256 260.326 914.048 260.326 903.386 215.135" transform="translate(0 -133.12)"/>
                <path fill="#13574E" d="M914.048 260.326L903.386 215.135 903.057 219.706 904.317 220.182 903.258 220.716 904.362 220.794 903.258 222.907 905.22 224.238 903.185 226.578 905.85 229.36 904.536 231.235 906.37 233.819 903.002 233.189 906.425 236.07 902.199 238.648 907.53 238.942 904.572 241.302 909.41 243.586 907.922 244.175 909.602 245.06 904.965 246.239 909.702 246.461 907.429 247.198 910.296 248.229 901.012 250.883 911.09 251.915 902.993 251.841 911.09 253.61 902.199 254.273 911.09 255.305 907.037 255.895 910.396 257.074 903.778 258.327 910.989 259.064 896.256 260.326 914.048 260.326" transform="translate(0 -133.12)"/>
                <path fill="#7D983D" d="M538.631 153.12c5.109 0 7.803 25.394 7.597 31.298h-13.53c-.963-5.904-.942-31.298 5.933-31.298" transform="translate(0 -133.12)"/>
                <path fill="#514235" d="M538.404 184.418L539.993 184.418 540.201 187.653 538.611 187.653 538.404 184.418" transform="translate(0 -133.12)"/>
                <path fill="#6A8039" d="M538.563 153.782c5.109 0 7.871 24.732 7.665 30.636h-7.029c.508-5.904 1.69-26.004-.636-30.636" transform="translate(0 -133.12)"/>
                <path fill="#7D983D" d="M269.085 141.601c6.813 0 8.23 33.864 7.451 41.738h-18.042c-.78-7.874 1.423-41.738 10.591-41.738" transform="translate(0 -133.12)"/>
                <path fill="#514235" d="M266.101 187.653L268.221 187.653 268.221 183.339 266.101 183.339z" transform="translate(0 -133.12)"/>
                <path fill="#6A8039" d="M268.938 142.483c6.813 0 8.378 32.982 7.598 40.856h-9.374c1.182-7.874 4.481-34.679 1.776-40.856" transform="translate(0 -133.12)"/>
                <path fill="#7BA941" d="M553.411 158.888c7.614 0 10.136 21.152 9.482 26.07H542.73c-1.09-4.918.434-26.07 10.681-26.07" transform="translate(0 -133.12)"/>
                <path fill="#514235" d="M551.232 184.958L553.602 184.958 553.721 187.653 551.352 187.653 551.232 184.958" transform="translate(0 -133.12)"/>
                <path fill="#68903F" d="M553.27 159.439c7.615 0 10.277 20.602 9.623 25.52h-10.476c1.104-4.918 4.048-21.662.853-25.52" transform="translate(0 -133.12)"/>
                <path fill="#338158" d="M477.112 152.783L469.599 187.653 483.208 187.653 477.112 152.783" transform="translate(0 -133.12)"/>
                <path fill="#2B6848" d="M477.112 152.783L483.208 187.653 471.465 187.653 481.323 186.877 471.778 184.539 480.681 183.92 473.474 181.37 480.351 180.275 472.693 178.924 480.139 176.629 474.656 176.629 479.873 173.792 477.082 173.968 479.103 172.163 474.716 170.079 478.78 167.748 475.836 167.449 478.583 166.529 475.117 166.457 478.507 165.141 475.757 164.77 478.365 163.34 477.118 160.075 477.42 158.621 476.958 158.202 477.112 152.783" transform="translate(0 -133.12)"/>
                <path fill="#3A9946" d="M876.228 176.195L869.994 215.685 885.549 215.685 876.228 176.195" transform="translate(0 -133.12)"/>
                <path fill="#328140" d="M885.549 215.685L876.228 176.195 875.936 180.188 877.041 180.605 876.119 181.071 877.087 181.139 876.119 182.986 877.826 184.149 876.055 186.193 878.383 188.626 877.233 190.263 878.83 192.522 875.891 191.971 878.885 194.488 875.197 196.741 879.852 196.998 877.26 199.059 881.486 201.056 880.199 201.571 881.66 202.344 877.607 203.375 881.751 203.567 879.761 204.212 882.271 205.113 874.156 207.432 882.956 208.334 875.882 208.27 882.956 209.816 875.197 210.395 882.956 211.297 879.423 211.812 882.354 212.843 876.575 213.937 882.874 214.581 869.994 215.685 885.549 215.685" transform="translate(0 -133.12)"/>
                <path fill="#698F3F" d="M863.923 180.523c7.942 0 9.448 25.855 8.499 31.866H851.39c-.876-6.01 1.844-31.866 12.533-31.866" transform="translate(0 -133.12)"/>
                <path fill="#514235" d="M860.254 212.389L862.728 212.389 862.709 215.685 860.235 215.685 860.254 212.389" transform="translate(0 -133.12)"/>
                <path fill="#567537" d="M863.75 181.197c7.942 0 9.621 25.181 8.672 31.192h-10.927c1.415-6.01 5.377-26.477 2.255-31.192" transform="translate(0 -133.12)"/>
                <path fill="#3A9946" d="M228.479 140.648L221.233 187.653 236.409 187.653 228.479 140.648" transform="translate(0 -133.12)"/>
                <path fill="#328140" d="M228.479 140.648L236.409 187.653 223.314 187.653 234.282 186.606 229.04 185.411 233.47 182.622 226.907 181.293 232.983 177.707 226.211 177.574 232.629 172.792 226.513 172.792 232.239 168.968 229.133 169.206 231.329 166.772 227.265 163.951 229.936 160.116 227.808 157.218 229.989 156.158 228.395 155.658 229.564 153.274 228.304 152.869 229.325 151.971 228.721 150.477 229.012 148.518 228.482 147.954 228.479 140.648" transform="translate(0 -133.12)"/>
                <path fill="#7D983D" d="M174.357 165.827c13.98 0 16.89 69.488 15.288 85.646h-37.02c-1.602-16.158 2.918-85.646 21.732-85.646" transform="translate(0 -133.12)"/>
                <path fill="#514235" d="M168.235 260.326L172.585 260.326 172.585 251.472 168.235 251.472z" transform="translate(0 -133.12)"/>
                <path fill="#6A8039" d="M174.055 167.637c13.98 0 17.192 67.678 15.59 83.835H170.41c2.426-16.157 9.196-71.16 3.645-83.835" transform="translate(0 -133.12)"/>
                <path fill="#2B6848" d="M813.595 183.716L801.786 260.326 826.521 260.326 813.595 183.716" transform="translate(0 -133.12)"/>
                <path fill="#24523A" d="M813.595 183.716L826.521 260.326 805.177 260.326 823.053 258.619 814.509 256.671 821.73 252.125 811.033 249.959 820.937 244.114 809.9 243.898 820.359 236.105 810.392 236.105 819.724 229.872 814.662 230.26 818.24 226.293 811.618 221.695 815.972 215.445 812.501 210.722 816.057 208.995 813.457 208.179 815.364 204.293 813.311 203.632 814.975 202.171 813.991 199.736 814.463 196.543 813.601 195.623 813.595 183.716" transform="translate(0 -133.12)"/>
                <path fill="#7D983D" d="M317.074 187.415c10.788 0 16.475 53.614 16.04 66.08H304.55c-2.035-12.466-1.99-66.08 12.524-66.08" transform="translate(0 -133.12)"/>
                <path fill="#514235" d="M316.595 253.494L319.952 253.494 320.39 260.326 317.033 260.326 316.595 253.494" transform="translate(0 -133.12)"/>
                <path fill="#6A8039" d="M316.931 188.813c10.787 0 16.618 52.216 16.184 64.681h-14.842c1.072-12.465 3.57-54.903-1.342-64.681" transform="translate(0 -133.12)"/>
                <path fill="#7BA941" d="M697.466 198.347c4.589 0 6.108 12.748 5.714 15.713h-12.152c-.657-2.965.262-15.713 6.438-15.713" transform="translate(0 -133.12)"/>
                <path fill="#514235" d="M696.152 214.06L697.58 214.06 697.652 215.685 696.224 215.685 696.152 214.06" transform="translate(0 -133.12)"/>
                <path fill="#68903F" d="M697.38 198.68c4.59 0 6.194 12.415 5.8 15.38h-6.314c.665-2.965 2.44-13.055.515-15.38" transform="translate(0 -133.12)"/>
                <path fill="#328140" d="M674.329 185.561c6.413 0 9.99 22.15 9.776 27.3h-16.981c-1.256-5.15-1.425-27.3 7.205-27.3" transform="translate(0 -133.12)"/>
                <path fill="#514235" d="M674.284 212.862L676.28 212.862 676.565 215.685 674.57 215.685 674.284 212.862" transform="translate(0 -133.12)"/>
                <path fill="#2D6936" d="M674.249 186.138c6.412 0 10.07 21.574 9.856 26.724h-8.823c.591-5.15 1.921-22.683-1.033-26.724" transform="translate(0 -133.12)"/>
                <path fill="#328140" d="M726.452 219.307c6.413 0 9.99 22.15 9.776 27.3h-16.981c-1.256-5.15-1.425-27.3 7.205-27.3" transform="translate(0 -133.12)"/>
                <path fill="#514235" d="M726.407 246.607L728.403 246.607 728.688 249.43 726.693 249.43 726.407 246.607" transform="translate(0 -133.12)"/>
                <path fill="#2D6936" d="M726.372 219.884c6.412 0 10.07 21.573 9.856 26.723h-8.823c.591-5.15 1.921-22.683-1.033-26.723" transform="translate(0 -133.12)"/>
                <path fill="#328140" d="M288.625 182.613c6.413 0 9.99 22.15 9.777 27.301H281.42c-1.256-5.15-1.425-27.3 7.205-27.3" transform="translate(0 -133.12)"/>
                <path fill="#514235" d="M288.58 209.914L290.576 209.914 290.862 212.737 288.866 212.737 288.58 209.914" transform="translate(0 -133.12)"/>
                <path fill="#2D6936" d="M288.545 183.19c6.412 0 10.07 21.574 9.857 26.724h-8.824c.592-5.15 1.922-22.683-1.033-26.723" transform="translate(0 -133.12)"/>
                <path fill="#7D983D" d="M90.461 178.04c5.57 0 6.728 27.68 6.091 34.117H81.804c-.638-6.436 1.163-34.117 8.657-34.117" transform="translate(0 -133.12)"/>
                <path fill="#514235" d="M88.022 215.684L89.756 215.684 89.756 212.157 88.022 212.157z" transform="translate(0 -133.12)"/>
                <path fill="#6A8039" d="M90.341 178.761c5.57 0 6.848 26.96 6.211 33.396h-7.663c.967-6.436 3.663-28.347 1.452-33.396" transform="translate(0 -133.12)"/>
                <path fill="#3A9946" d="M131.255 168.679L124.009 215.685 139.185 215.685 131.255 168.679" transform="translate(0 -133.12)"/>
                <path fill="#328140" d="M131.255 168.679L139.185 215.685 126.091 215.685 137.058 214.637 131.816 213.441 136.247 210.652 129.684 209.323 135.759 205.737 128.988 205.605 135.405 200.823 129.29 200.823 135.015 196.999 131.91 197.236 134.105 194.803 130.042 191.981 132.713 188.146 130.584 185.248 132.765 184.189 131.171 183.688 132.34 181.305 131.081 180.899 132.102 180.001 131.498 178.508 131.788 176.548 131.259 175.984 131.255 168.679" transform="translate(0 -133.12)"/>
                <path fill="#7D983D" d="M601.94 183.583c4.75 0 5.738 23.605 5.194 29.094h-12.577c-.544-5.489.992-29.094 7.383-29.094" transform="translate(0 -133.12)"/>
                <path fill="#514235" d="M599.86 215.685L601.338 215.685 601.338 212.677 599.86 212.677z" transform="translate(0 -133.12)"/>
                <path fill="#6A8039" d="M601.837 184.198c4.749 0 5.84 22.99 5.297 28.478H600.6c.824-5.488 3.123-24.173 1.237-28.478" transform="translate(0 -133.12)"/>
                <path fill="#7BA941" d="M591.492 195.633c5.307 0 7.065 14.744 6.61 18.173h-14.055c-.76-3.429.303-18.173 7.445-18.173" transform="translate(0 -133.12)"/>
                <path fill="#514235" d="M589.973 213.806L591.624 213.806 591.708 215.685 590.056 215.685 589.973 213.806" transform="translate(0 -133.12)"/>
                <path fill="#68903F" d="M591.394 196.017c5.308 0 7.163 14.36 6.707 17.789H590.8c.769-3.429 2.822-15.1.595-17.79" transform="translate(0 -133.12)"/>
                <path fill="#7D983D" d="M836.367 196.395c11.463 0 15.735 47.01 14.859 57.941h-30.357c-1.752-10.93.071-57.94 15.498-57.94" transform="translate(0 -133.12)"/>
                <path fill="#514235" d="M833.669 254.336L837.236 254.336 837.476 260.326 833.909 260.326 833.669 254.336" transform="translate(0 -133.12)"/>
                <path fill="#6A8039" d="M836.168 197.62c11.464 0 15.934 45.786 15.058 56.716h-15.773c1.552-10.93 5.611-48.142.715-56.716" transform="translate(0 -133.12)"/>
                <path fill="#698F3F" d="M802.945 239.552c10.054 0 13.788 15.276 13.018 18.828h-26.627c-1.533-3.552.077-18.828 13.609-18.828" transform="translate(0 -133.12)"/>
                <path fill="#514235" d="M800.564 258.38L803.692 258.38 803.902 260.326 800.773 260.326 800.564 258.38" transform="translate(0 -133.12)"/>
                <path fill="#567537" d="M802.77 239.95c10.054 0 13.963 14.878 13.193 18.43h-13.834c1.363-3.552 4.933-15.643.64-18.43" transform="translate(0 -133.12)"/>
                <path fill="#698F3F" d="M594.019 237.834c5.512 0 7.699 13.35 8.094 22.492h-19.685c.87-9.143 4.172-22.492 11.59-22.492" transform="translate(0 -133.12)"/>
                <path fill="#567537" d="M593.855 238.462c5.492 0 7.772 12.903 8.226 21.864h-8.864c1.404-7.884 2.74-18.692.638-21.864" transform="translate(0 -133.12)"/>
                <path fill="#7D983D" d="M496.196 193.996c12.855 0 18.128 49.54 17.85 66.33h-36.671c-1.44-16.79 1.522-66.33 18.821-66.33" transform="translate(0 -133.12)"/>
                <path fill="#6A8039" d="M495.959 195.458c12.85 0 18.334 48.22 18.085 64.868h-18.56c2.037-15.666 5.95-55.278.475-64.868" transform="translate(0 -133.12)"/>
                <path fill="#698F3F" d="M237.44 243.789c7.29 0 9.86 10.407 10.049 16.537h-24.527c.692-6.13 4.664-16.537 14.477-16.537" transform="translate(0 -133.12)"/>
                <path fill="#567537" d="M237.236 244.215c7.274 0 9.979 10.086 10.23 16.111h-11.453c1.86-5.373 4.034-13.783 1.223-16.111" transform="translate(0 -133.12)"/>
                <path fill="#338158" d="M358.105 244.4c4.503 0 6.458 10.587 6.676 15.926h-14.348c-.084-5.339 1.61-15.926 7.672-15.926" transform="translate(0 -133.12)"/>
                <path fill="#2B6848" d="M358.006 244.786c4.497 0 6.523 10.279 6.767 15.54h-6.902c.872-4.754 2-13.289.135-15.54" transform="translate(0 -133.12)"/>
                <path fill="#7BA941" d="M68.41 227.608c9.262 0 13.09 22.575 13.277 32.718H53.223c-.434-10.143 2.722-32.718 15.187-32.718" transform="translate(0 -133.12)"/>
                <path fill="#68903F" d="M68.68 229.64c9.236 0 12.411 20.89 12.454 30.686H67.77c1.839-8.91 4.753-26.044.91-30.686" transform="translate(0 -133.12)"/>
                <path fill="#2D6936" d="M197.196 240.977c9.39 0 14.49 10.79 16.408 19.35H177.81c1.46-8.56 6.75-19.35 19.386-19.35" transform="translate(0 -133.12)"/>
                <path fill="#24512C" d="M196.944 241.58c9.335 0 14.548 10.389 16.565 18.746h-15.426c1.67-7.247 2.621-15.994-1.14-18.746" transform="translate(0 -133.12)"/>
                <path fill="#7D983D" d="M120.745 237.53c6.038 0 9.328 11.485 10.809 22.796h-25.711c2.198-11.31 6.778-22.796 14.902-22.796" transform="translate(0 -133.12)"/>
                <path fill="#6A8039" d="M120.518 238.438c5.972 0 9.33 10.949 10.897 21.888h-10.199c1.125-9.216 1.512-18.526-.698-21.888" transform="translate(0 -133.12)"/>
                <path fill="#328140" d="M478.642 238.096c11.682 0 15.34 15.884 14.905 22.23H458.82c-.451-6.346 4.1-22.23 19.821-22.23" transform="translate(0 -133.12)"/>
                <path fill="#2D6936" d="M478.374 238.6c11.674 0 15.554 15.45 15.167 21.726h-17.273c2.468-5.795 6.789-18.544 2.106-21.726" transform="translate(0 -133.12)"/>
                <path fill="#698F3F" d="M663.933 200.963c5.283 0 7.377 8.738 7.755 14.722h-18.86c.832-5.984 3.997-14.722 11.105-14.722" transform="translate(0 -133.12)"/>
                <path fill="#567537" d="M663.776 201.375c5.263 0 7.447 8.444 7.882 14.31h-8.493c1.345-5.16 2.626-12.234.611-14.31" transform="translate(0 -133.12)"/>
                <path fill="#328140" d="M699.15 233.232c11.717 0 15.386 19.36 14.95 27.094h-34.827c-.453-7.734 4.111-27.094 19.878-27.094" transform="translate(0 -133.12)"/>
                <path fill="#2D6936" d="M698.882 233.847c11.709 0 15.6 18.83 15.211 26.48H696.77c2.476-7.064 6.809-22.602 2.112-26.48" transform="translate(0 -133.12)"/>
                <path fill="#7D983D" d="M919.351 232.471c5.395 0 7.613 20.805 7.495 27.855h-15.4c-.603-7.05.639-27.855 7.905-27.855" transform="translate(0 -133.12)"/>
                <path fill="#6A8039" d="M919.25 233.085c5.396 0 7.696 20.25 7.596 27.241h-7.796c.858-6.579 2.501-23.213.2-27.24" transform="translate(0 -133.12)"/>
                <path fill="#698F3F" d="M782.407 243.789c7.29 0 9.861 10.407 10.05 16.537H767.93c.692-6.13 4.664-16.537 14.477-16.537" transform="translate(0 -133.12)"/>
                <path fill="#567537" d="M782.204 244.215c7.273 0 9.977 10.086 10.23 16.111H780.98c1.86-5.373 4.034-13.783 1.223-16.111" transform="translate(0 -133.12)"/>
                <path fill="#338158" d="M254.789 171.727c4.504 0 6.458 10.588 6.675 15.926h-14.347c-.084-5.338 1.611-15.926 7.672-15.926" transform="translate(0 -133.12)"/>
                <path fill="#2B6848" d="M254.69 172.112c4.498 0 6.523 10.28 6.767 15.541h-6.902c.872-4.753 2-13.288.136-15.54" transform="translate(0 -133.12)"/>
                <path fill="#38753E" d="M653.706 212.849c17.516 0 24.755 32.757 25.109 47.477h-53.828c-.82-14.72 5.147-47.477 28.719-47.477" transform="translate(0 -133.12)"/>
                <path fill="#2E5C33" d="M654.217 215.798c17.466 0 23.471 30.312 23.553 44.528h-25.274c3.477-12.928 8.99-37.793 1.721-44.528" transform="translate(0 -133.12)"/>
                <path fill="#2D6936" d="M885.384 240.977c9.393 0 14.496 10.79 16.413 19.35h-35.792c1.451-8.56 6.746-19.35 19.38-19.35" transform="translate(0 -133.12)"/>
                <path fill="#24512C" d="M885.138 241.58c9.329 0 14.541 10.389 16.559 18.746H886.27c1.67-7.247 2.629-15.994-1.132-18.746" transform="translate(0 -133.12)"/>
                <path fill="#7D983D" d="M364.27 164.858c6.036 0 9.328 11.484 10.807 22.795h-25.71c2.198-11.31 6.777-22.795 14.902-22.795" transform="translate(0 -133.12)"/>
                <path fill="#6A8039" d="M364.042 165.766c5.973 0 9.331 10.948 10.897 21.887H364.74c1.124-9.217 1.512-18.525-.698-21.887" transform="translate(0 -133.12)"/>
                <path fill="#7BA941" d="M381.34 158.888c7.613 0 10.136 21.152 9.482 26.07H370.66c-1.09-4.918.435-26.07 10.681-26.07" transform="translate(0 -133.12)"/>
                <path fill="#514235" d="M379.161 184.958L381.53 184.958 381.65 187.653 379.281 187.653 379.161 184.958" transform="translate(0 -133.12)"/>
                <path fill="#68903F" d="M381.2 159.439c7.614 0 10.276 20.602 9.622 25.52h-10.476c1.104-4.918 4.048-21.662.854-25.52" transform="translate(0 -133.12)"/>
            </g>
        </g>
    </g>
</svg>
