<svg width="401" height="534" viewBox="0 0 401 534" fill="none" xmlns="http://www.w3.org/2000/svg">
<path fill-rule="evenodd" clip-rule="evenodd" d="M29.481 27.5175C27.0671 9.85361 34.3954 0.688004 51.534 0.00359951L53.7273 0.00354612C115.344 0.00204674 166.368 19.1354 206.833 57.3864C193.764 73.6984 189.719 83.1519 184.83 94.5781L184.83 94.5783L184.83 94.5789L184.827 94.5868L184.826 94.5886C183.54 97.593 182.196 100.734 180.614 104.172C151.609 84.2171 120.784 66.5368 88.1051 51.165C115.275 73.411 145.42 94.289 178.54 113.833C171.551 136.576 170.106 152.427 176.073 180.077C176.008 180.05 175.663 180.047 175.06 180.043C164.325 179.958 71.947 179.228 29.481 27.5175ZM222.019 245.622C215.233 236.984 157.874 163.973 247.666 35.2386C253.685 28.7236 259.618 25.4745 265.45 25.4743C271.282 25.4742 277.012 28.723 282.656 35.2378C322.407 84.1588 340.292 136.894 336.295 193.425C315.581 193.425 305.778 196.19 293.946 199.527L293.944 199.527C290.801 200.414 287.515 201.341 283.843 202.267C280.919 166.922 275.105 131.543 266.384 96.1812C266.383 131.543 269.272 168.376 275.103 206.679C253.255 215.52 240.129 224.36 222.65 246.471C222.63 246.399 222.407 246.116 222.019 245.622ZM-120.329 162.297C-130.344 176.336 -127.709 187.844 -112.458 196.787C32.009 256.388 89.4194 183.104 96.0363 174.658L96.0366 174.657L96.037 174.657L96.0383 174.655C96.4039 174.188 96.614 173.92 96.6747 173.884C71.4602 161.642 59.9838 150.715 46.5693 131.171C10.9655 145.535 -23.8732 156.685 -57.9296 164.638C-25.8452 148.067 6.91919 134.369 40.3466 123.544C38.6504 120.192 37.0397 117.207 35.4996 114.353L35.4983 114.351L35.4977 114.35L35.4975 114.349C29.5823 103.387 24.7065 94.3511 20.013 73.8528C-35.3647 82.6437 -82.1397 112.125 -120.329 162.297ZM-71.2327 413.402C-87.7253 419.78 -98.1987 414.599 -102.704 397.893C-117.223 336.3 -110.437 280.983 -82.3309 231.94C-63.696 241.135 -53.6837 242.994 -41.5994 245.238L-41.5992 245.238L-41.599 245.238C-38.402 245.832 -35.06 246.453 -31.3749 247.243C-44.0765 280.314 -54.1598 314.668 -61.6418 350.338C-46.3048 318.549 -32.957 284.179 -21.5984 247.14C1.88195 248.884 17.5073 246.763 42.8073 234.656C42.7944 234.728 42.8715 235.081 43.006 235.697C45.3581 246.457 65.261 337.508 -71.2327 413.402ZM24.5161 373.541C46.3465 405.38 64.9293 437.184 80.2648 468.972C57.0741 441.066 36.5189 411.878 18.5651 381.39C15.6753 383.845 13.1312 386.13 10.6984 388.315L10.6982 388.316C1.50783 396.571 -6.09437 403.399 -24.7409 412.58C-3.82917 465.178 35.1054 504.643 92.046 530.975C107.824 537.678 118.315 532.514 123.484 515.465C148.415 359.868 65.0958 319.711 55.3267 315.002C54.7742 314.736 54.457 314.583 54.4078 314.529C48.2693 342.162 40.3288 355.911 24.5161 373.541ZM151.607 415.007C148.02 391.478 142.443 376.567 125.101 354.372C125.173 354.368 125.493 354.214 126.05 353.945C130.212 351.936 147.624 343.53 174.239 343.53C210.301 343.529 263.23 358.934 322.992 426.528C332.82 441.319 330.201 452.811 315.102 461.002C259.027 489.166 204.211 494.913 150.636 478.259C155.282 457.871 154.828 447.59 154.281 435.192C154.136 431.889 153.983 428.435 153.919 424.6C188.638 429.695 224.02 431.9 260.049 431.232C225.976 423.282 189.845 417.879 151.607 415.007Z" fill="black" fill-opacity="0.02"/>
<path d="M199.6 325.139C227.652 324.968 242.718 329.692 263.322 341.271C289.16 312.653 315.695 287.259 342.93 265.053C321.2 294.115 297.647 320.874 272.253 345.347C286.688 356.279 295.601 360.355 312.149 380.906C358.199 348.553 387.547 301.447 400.159 239.59C403.074 222.553 395.712 213.411 378.072 212.15C213.372 223.152 200.367 324.013 199.6 325.139Z" fill="black" fill-opacity="0.02"/>
</svg>
