<svg xmlns="http://www.w3.org/2000/svg" width="163" height="40" viewBox="0 0 163 40">
    <g fill="none">
        <path fill="#FFF" d="M13.348 0c-1.287.051-1.837.737-1.655 2.057 3.367 11.982 10.912 11.37 11.004 11.409-.448-2.068-.34-3.253.185-4.954-2.486-1.461-4.749-3.023-6.789-4.686 2.454 1.15 4.768 2.472 6.945 3.964.57-1.235.729-1.958 1.968-3.499C21.97 1.431 18.138 0 13.513 0h-.165zm14.723 2.635c-7.126 10.178-1.906 15.698-1.878 15.796 1.312-1.653 2.298-2.314 3.938-2.975-.438-2.865-.655-5.619-.655-8.263.655 2.644 1.091 5.29 1.31 7.933 1.314-.33 1.97-.661 3.938-.661.3-4.228-1.042-8.171-4.026-11.83-.424-.487-.854-.73-1.292-.73-.438 0-.883.243-1.335.73zM.447 12.136c-.752 1.05-.554 1.91.59 2.58 11.447 4.704 15.613-1.662 15.7-1.713-1.893-.915-2.755-1.733-3.762-3.194-2.672 1.074-5.288 1.908-7.844 2.502 2.408-1.239 4.868-2.263 7.377-3.072-.616-1.214-1.082-1.784-1.526-3.716C6.824 6.18 3.313 8.384.447 12.136zM1.77 29.754c.338 1.25 1.125 1.637 2.363 1.16 10.832-6 8.542-13.267 8.56-13.366-1.899.905-3.072 1.063-4.835.933-.852 2.77-1.854 5.34-3.005 7.717.561-2.667 1.318-5.236 2.271-7.71-1.322-.282-2.056-.274-3.825-1.144C1.19 21.012.68 25.148 1.77 29.754zm9.55-1.82c1.639 2.38 3.034 4.758 4.185 7.136-1.74-2.087-3.284-4.27-4.632-6.55-1.036.877-1.48 1.464-3.25 2.332 1.57 3.934 4.492 6.885 8.767 8.854 1.184.501 1.972.115 2.36-1.16 1.977-12.293-5.117-14.95-5.186-15.026-.461 2.067-1.057 3.095-2.244 4.413zm7.55-1.434c1.303 1.66 1.721 2.774 1.99 4.534 2.871.215 5.583.619 8.141 1.213-2.704.05-5.36-.115-7.967-.496.023 1.363.196 2.082-.246 4.013 4.022 1.245 8.137.816 12.346-1.29 1.134-.613 1.33-1.472.592-2.578-4.486-5.055-8.46-6.207-11.167-6.207-2.265 0-3.642.808-3.688.81z"/>
        <path fill="#8FDE29" d="M24.478 24.318c2.1-.013 3.229.342 4.772 1.21 1.935-2.146 3.922-4.05 5.962-5.715-1.627 2.18-3.391 4.186-5.293 6.02 1.081.82 1.749 1.126 2.988 2.667 3.449-2.426 5.647-5.958 6.591-10.596.218-1.277-.333-1.963-1.654-2.057-12.335.825-13.309 8.387-13.366 8.471z"/>
        <path fill="#FFF" d="M70.954 10.45H53.707v8.681h15.897v2.75H53.707V32.91h-2.7V7.762h19.947v2.688zm19.312 15.076c0 4.881-3.1 7.384-8.102 7.384H80.14c-5.248 0-8.163-2.503-8.163-7.384v-4.294c0-4.727 3.007-7.415 8.163-7.415h2.025c4.757 0 8.102 2.472 8.102 7.415v4.294zm-2.7-.216v-3.831c0-3.522-2.118-4.974-5.678-4.974h-1.473c-3.836 0-5.77 1.576-5.77 4.974v3.83c0 3.523 2.149 4.944 5.77 4.944h1.473c3.56 0 5.677-1.39 5.677-4.943zm18.636-8.774h-4.91c-4.082 0-6.077 1.977-6.077 4.51V32.91h-2.67V13.848h2.67v2.44c1.136-1.42 2.947-2.44 6.077-2.44h4.91v2.688zm19.557 7.847h-16.173v.865c0 3.77 2.148 5.16 5.708 5.16h2.21c3.682 0 5.002-.897 5.462-2.781h2.701c-.583 3.336-2.731 5.283-8.163 5.283h-2.21c-5.83 0-8.378-3.028-8.378-7.724V21.51c0-4.943 3.376-7.631 8.378-7.631h2.087c5.463 0 8.378 2.472 8.378 7.785v2.719zm-2.67-2.1v-.619c0-3.923-2.087-5.252-5.708-5.252h-2.087c-3.314 0-5.708 1.39-5.708 5.098v.772h13.503zm22.657 5.776c0 3.09-1.995 4.882-7.58 4.882h-3.161c-6.629 0-7.641-2.78-7.641-6.18h2.762c0 2.287.797 3.74 5.37 3.74h2.302c3.682 0 5.063-.742 5.063-2.596v-.649c0-2.502-1.657-3.058-7.058-3.09-5.585-.061-8.133-1.235-8.133-4.788v-.927c0-2.75 2.21-4.696 7.673-4.696h2.73c5.586 0 7.243 2.132 7.243 5.561h-2.792c0-2.379-1.566-3.12-4.818-3.12h-2.118c-3.713 0-5.033 1.05-5.033 2.502v.526c0 2.039 1.136 2.75 6.629 2.842 6.045.093 8.562.989 8.562 5.067v.926zm16.795-11.523h-8.255v10.288c0 2.811.767 3.367 3.652 3.367h3.959v2.688h-4.389c-4.358 0-5.892-1.298-5.892-5.53V16.536h-4.572v-2.688h4.572V9.307h2.67v4.541h8.255v2.688z"/>
    </g>
</svg>
