<svg xmlns="http://www.w3.org/2000/svg" width="200" height="100" viewBox="0 0 200 100">
    <g fill="none" fill-rule="evenodd">
        <path fill="#FFF" d="M0 0H200V100H0z"/>
        <path fill="#4D4F58" fill-rule="nonzero" d="M28.261 76.706c4.095.066 6.945 2.894 6.945 6.93v5.57c0 .446-.36.807-.807.807h-4.84l.1-.006c.398-.05.706-.39.706-.8v-3.228c0-.446-.361-.807-.807-.807-.446 0-.807.361-.807.807v3.227c0 .446.361.807.807.807h-12.91l.101-.006c.398-.05.706-.39.706-.8v-3.228c0-.446-.361-.807-.807-.807-.446 0-.807.361-.807.807v3.227c0 .446.361.807.807.807h-4.841c-.446 0-.807-.36-.807-.807v-5.57c0-4.036 2.85-6.864 6.945-6.93 1.406 1.293 3.248 2.01 5.158 2.01 1.91 0 3.752-.717 5.158-2.01zM23.103 65c3.342 0 6.051 2.71 6.051 6.052 0 3.342-2.709 6.051-6.051 6.051-3.343 0-6.052-2.709-6.052-6.051 0-3.343 2.71-6.052 6.052-6.052z"/>
        <path fill="#4D4F58" d="M61.122 76.612c4.062.066 6.89 2.871 6.89 6.875v5.525c0 .442-.359.8-.8.8h-4.803l.1-.006c.395-.05.7-.386.7-.794V85.81c0-.442-.358-.8-.8-.8-.442 0-.8.358-.8.8v3.202c0 .442.358.8.8.8H49.603l.1-.006c.395-.05.7-.386.7-.794V85.81c0-.442-.358-.8-.8-.8-.442 0-.8.358-.8.8v3.202c0 .442.358.8.8.8H44.8c-.442 0-.8-.358-.8-.8v-5.525c0-4.004 2.827-6.81 6.89-6.875 1.394 1.282 3.22 1.995 5.116 1.995 1.895 0 3.722-.713 5.116-1.995zM56.005 65c3.316 0 6.003 2.687 6.003 6.003 0 3.316-2.687 6.003-6.003 6.003-3.315 0-6.003-2.687-6.003-6.003 0-3.316 2.688-6.003 6.003-6.003z"/>
        <g fill-rule="nonzero">
            <path stroke="#4D4F58" stroke-width="2" d="M29.476 1.267H16.04c-1.592-.013-3.163.26-4.648.812-5.236 1.995-8.373 5.853-9.834 11.16-.262.94-.45 1.891-.558 2.856v3.125c.17 1.112.397 2.215.68 3.306 1.844 6.004 5.712 9.973 12.663 12.11v7.473c-.012.36.123.708.373.965.245.253.584.397.938.397.446-.004.878-.207 1.21-.598 1.354-1.43 2.72-2.857 4.088-4.287 1.208-1.263 2.417-2.527 3.62-3.794.453-.505 1.104-.776 1.778-.743h3.41c3.874.079 7.616-1.408 10.38-4.123 2.736-2.725 4.482-6.297 4.953-10.138.474-3.84-.353-7.73-2.347-11.044-3.007-4.887-7.397-7.506-13.27-7.477z" transform="translate(10 10)"/>
            <path fill="#93C256" d="M54.974 21.896c-1.65-1.485-3.688-2.471-5.876-2.845 0 .16-.042.256-.053.344-.198 2.868-1.007 5.66-2.377 8.187-3.67 6.652-9.238 10.289-16.953 10.384h-2.442c-.666 0-.963.51-.624 1.063 1.877 3.065 4.502 5.163 8.097 5.785v.002c1.554.19 3.12.267 4.687.23.367-.021.722.125.963.399 1.047 1.116 2.114 2.21 3.172 3.314.815.849 1.622 1.717 2.46 2.555.738.847 2.021.937 2.868.201.5-.452.761-1.109.708-1.782v-4.23c0-.506.137-.682.636-.873 1.232-.392 2.413-.93 3.515-1.603 6.999-4.813 7.611-15.45 1.219-21.13z" transform="translate(10 10)"/>
        </g>
        <g fill-rule="nonzero">
            <path fill="#FFF" d="M9.746 0c2.36 0 4.386.679 5.936 2.07 1.574 1.4 2.37 3.226 2.37 5.376 0 1.858-.571 3.496-1.725 4.86l-.312.356c-.416.457-.91.875-1.85 1.59l-.453.34c-.149.113-.262.204-.347.274l-.16.138-.005.197.001.12.164 8.203h-8.41c.267-7.376.571-11.417.913-12.121l.134-.262.133-.238-5.773-.787.55-2.821c.422-2.16 1.052-3.51 2.36-4.875C4.854.822 7.16 0 9.746 0z" transform="translate(23.638 16)"/>
            <path fill="#93C256" d="M11.103 18.46v2.8H7.216v-2.8h3.887zM9.746 2.262c1.832 0 3.318.498 4.433 1.499 1.085.964 1.612 2.172 1.612 3.685 0 1.314-.379 2.42-1.148 3.35l-.3.342c-.359.391-.858.799-2 1.653-1.173.892-1.405 1.297-1.405 2.41l.004.28c.006.188.019.386.04.636l.06.69h-3.75l.05-.497c.016-.16.025-.293.031-.425l.008-.364v-.55c0-1.335.292-2.373.928-3.266l.137-.186c.35-.465.623-.714 1.525-1.392l.37-.276c1.216-.896 1.625-1.515 1.625-2.382 0-1.116-.87-1.856-2.262-1.856-1.03 0-1.77.378-2.202 1.094-.237.4-.339.716-.41 1.362l-.066.674-3.985-.544.092-.47c.344-1.762.79-2.719 1.747-3.717 1.123-1.135 2.847-1.75 4.866-1.75z" transform="translate(23.638 16)"/>
        </g>
        <g>
            <path fill="#4D4F58" d="M1.767 0C.79 0 0 .792 0 1.767v77.147c0 .975.791 1.767 1.767 1.767h107.367c.978 0 1.767-.792 1.767-1.767V1.767c0-.975-.79-1.767-1.767-1.767H1.767zm107.888 1.767v77.147c0 .286-.233.52-.521.52H1.767c-.286 0-.52-.234-.52-.52V1.767c0-.288.234-.521.52-.521h107.367c.288 0 .52.233.52.52z" transform="translate(79 10)"/>
            <path fill="#4D4F58" d="M50.714 12.65H11.938c-.514 0-.931-.416-.931-.933v-.782c0-.517.417-.935.931-.935h38.776c.514 0 .934.418.934.935v.782c0 .517-.42.934-.934.934M71.676 20.603H56.324c-.18 0-.324-.367-.324-.823v-8.958c0-.452.144-.822.324-.822h15.352c.18 0 .324.37.324.822v8.958c0 .456-.145.823-.324.823" transform="translate(79 10)"/>
            <path fill="#93C256" d="M71.676 34.733H56.324c-.18 0-.324-.367-.324-.823v-8.959c0-.451.144-.821.324-.821h15.352c.18 0 .324.37.324.821v8.96c0 .455-.145.822-.324.822" transform="translate(79 10)"/>
            <path fill="#4D4F58" d="M100.227 69.703h-88.29c-.47 0-.855-.415-.855-.931V58.633c0-.512.384-.93.855-.93h88.29c.472 0 .855.418.855.93v10.139c0 .516-.383.93-.855.93" transform="translate(79 10)"/>
            <path fill="#C8CFCA" d="M71.292 53.286H56.709c-.393 0-.709-.367-.709-.822V39.97c0-.453.316-.822.71-.822h14.582c.392 0 .708.369.708.822v12.493c0 .455-.316.822-.708.822" transform="translate(79 10)"/>
            <path fill="#1C9E3B" d="M99.982 53.32H77.198c-.614 0-1.108-.366-1.108-.822V40.006c0-.453.494-.822 1.108-.822h22.784c.613 0 1.108.369 1.108.822v12.492c0 .456-.495.823-1.108.823" transform="translate(79 10)"/>
            <path fill="#4D4F58" d="M50.714 20.61H11.938c-.514 0-.931-.417-.931-.934v-.782c0-.517.417-.935.931-.935h38.776c.514 0 .934.418.934.935v.782c0 .517-.42.934-.934.934M100.117 32.109c.514 0 .934.417.934.935v.782c0 .517-.42.933-.934.933H77.3c-.513 0-.931-.416-.931-.933v-.782c0-.518.418-.935.931-.935h22.817zm0-7.075c.514 0 .934.418.934.935v.782c0 .517-.42.934-.934.934H77.3c-.513 0-.931-.417-.931-.934v-.782c0-.517.418-.935.931-.935h22.817zm0-7.075c.514 0 .934.418.934.935v.782c0 .517-.42.934-.934.934H77.3c-.513 0-.931-.417-.931-.934v-.782c0-.517.418-.935.931-.935h22.817zm0-7.959c.514 0 .934.418.934.935v.782c0 .517-.42.934-.934.934H77.3c-.513 0-.931-.417-.931-.934v-.782c0-.517.418-.935.931-.935h22.817zM50.819 53.286H11.822c-.455 0-.822-.367-.822-.822V24.95c0-.45.367-.821.822-.821H50.82c.455 0 .822.37.822.821v27.513c0 .455-.367.822-.822.822" transform="translate(79 10)"/>
            <path fill="#FEFEFE" d="M30.005 32.554v15.891c0 .146-.12.267-.265.267h-4.797c-.146 0-.264-.12-.264-.267v-3.433c0-.148-.12-.264-.266-.264h-1.836c-.147 0-.266.116-.266.264v3.433c0 .146-.118.267-.265.267H17.25c-.146 0-.265-.12-.265-.267V32.553c0-.146.119-.265.265-.265h12.49c.146 0 .265.119.265.266m15.65-4.468v20.36c0 .145-.12.266-.267.266h-4.795c-.147 0-.266-.12-.266-.267v-3.443c0-.146-.118-.264-.264-.264h-1.838c-.146 0-.264.118-.264.264v3.443c0 .146-.119.267-.266.267H32.9c-.147 0-.265-.12-.265-.267v-20.36c0-.145.118-.264.265-.264h12.49c.146 0 .265.119.265.265M20.863 41.199h-1.836c-.146 0-.265.12-.265.266V43.3c0 .148.119.264.265.264h1.836c.148 0 .266-.116.266-.264v-1.834c0-.147-.118-.266-.266-.266m3.551 0h-1.836c-.146 0-.266.12-.266.266V43.3c0 .148.12.264.266.264h1.836c.146 0 .266-.116.266-.264v-1.834c0-.147-.12-.266-.266-.266m3.55 0H26.13c-.147 0-.266.12-.266.266V43.3c0 .148.12.264.266.264h1.836c.146 0 .266-.116.266-.264v-1.834c0-.147-.12-.266-.266-.266m8.548-.018h-1.837c-.147 0-.265.119-.265.265v1.84c0 .147.118.265.265.265h1.837c.146 0 .265-.118.265-.264v-1.841c0-.146-.119-.265-.265-.265m3.55 0h-1.837c-.146 0-.264.119-.264.265v1.84c0 .147.118.265.264.265h1.838c.146 0 .264-.118.264-.264v-1.841c0-.146-.118-.265-.264-.265m3.55 0h-1.837c-.146 0-.264.119-.264.265v1.84c0 .147.118.265.264.265h1.837c.147 0 .265-.118.265-.264v-1.841c0-.146-.118-.265-.265-.265m-22.75-3.529h-1.837c-.146 0-.265.116-.265.264v1.834c0 .147.119.267.265.267h1.836c.148 0 .266-.12.266-.267v-1.834c0-.148-.118-.264-.266-.264m3.551 0h-1.836c-.146 0-.266.116-.266.264v1.834c0 .147.12.267.266.267h1.836c.146 0 .266-.12.266-.267v-1.834c0-.148-.12-.264-.266-.264m3.55 0H26.13c-.147 0-.266.116-.266.264v1.834c0 .147.12.267.266.267h1.836c.146 0 .266-.12.266-.267v-1.834c0-.148-.12-.264-.266-.264m8.548-.029h-1.837c-.147 0-.265.121-.265.267v1.841c0 .145.118.263.265.263h1.837c.146 0 .265-.118.265-.263v-1.84c0-.147-.119-.268-.265-.268m3.55 0h-1.837c-.146 0-.264.121-.264.267v1.841c0 .145.118.263.264.263h1.838c.146 0 .264-.118.264-.263v-1.84c0-.147-.118-.268-.264-.268m3.55 0h-1.837c-.146 0-.264.121-.264.267v1.841c0 .145.118.263.264.263h1.837c.147 0 .265-.118.265-.263v-1.84c0-.147-.118-.268-.265-.268m-22.75-3.52h-1.837c-.146 0-.265.118-.265.264v1.837c0 .145.119.263.265.263h1.836c.148 0 .266-.118.266-.263v-1.837c0-.146-.118-.264-.266-.264m3.551 0h-1.836c-.146 0-.266.118-.266.264v1.837c0 .145.12.263.266.263h1.836c.146 0 .266-.118.266-.263v-1.837c0-.146-.12-.264-.266-.264m3.55 0H26.13c-.147 0-.266.118-.266.264v1.837c0 .145.12.263.266.263h1.836c.146 0 .266-.118.266-.263v-1.837c0-.146-.12-.264-.266-.264m8.548-.035h-1.837c-.147 0-.265.117-.265.263v1.841c0 .146.118.267.265.267h1.837c.146 0 .265-.12.265-.267v-1.84c0-.147-.119-.264-.265-.264m3.55 0h-1.837c-.146 0-.264.117-.264.263v1.841c0 .146.118.267.264.267h1.838c.146 0 .264-.12.264-.267v-1.84c0-.147-.118-.264-.264-.264m3.55 0h-1.837c-.146 0-.264.117-.264.263v1.841c0 .146.118.267.264.267h1.837c.147 0 .265-.12.265-.267v-1.84c0-.147-.118-.264-.265-.264m-7.1-3.478h-1.838c-.147 0-.265.117-.265.264v1.84c0 .147.118.267.265.267h1.837c.146 0 .265-.12.265-.267v-1.84c0-.147-.119-.264-.265-.264m3.55 0h-1.837c-.146 0-.264.117-.264.264v1.84c0 .147.118.267.264.267h1.838c.146 0 .264-.12.264-.267v-1.84c0-.147-.118-.264-.264-.264m3.55 0h-1.837c-.146 0-.264.117-.264.264v1.84c0 .147.118.267.264.267h1.837c.147 0 .265-.12.265-.267v-1.84c0-.147-.118-.264-.265-.264" transform="translate(79 10)"/>
        </g>
        <circle cx="135" cy="49" r="16" fill="#FFF"/>
        <path fill="#FF7000" d="M135 37c-3.183 0-6.235 1.265-8.485 3.515C124.265 42.765 123 45.817 123 49s1.265 6.235 3.515 8.485C128.765 59.735 131.817 61 135 61s6.235-1.265 8.485-3.515C145.735 55.235 147 52.183 147 49s-1.265-6.235-3.515-8.485C141.235 38.265 138.183 37 135 37zm-3.05 16.678v-8.95l8.135 4.475-8.136 4.475z"/>
    </g>
</svg>
