<svg xmlns="http://www.w3.org/2000/svg" xmlns:xlink="http://www.w3.org/1999/xlink" width="389" height="192" viewBox="0 0 389 192">
    <defs>
        <path id="prefix__a" d="M0 0H388V191.423H0z"/>
    </defs>
    <g fill="none" fill-rule="evenodd" transform="translate(.61 .334)">
        <mask id="prefix__b" fill="#fff">
            <use xlink:href="#prefix__a"/>
        </mask>
        <g mask="url(#prefix__b)">
            <g>
                <g>
                    <path fill="#D1D1D1" d="M130.456 73.152L130.456 66.443 130.456 22.86 130.456 5.615 130.46 0.07 68.919 0.07 68.919 50.307 0.13 50.307 0.13 58.68 3.177 58.68 3.177 132.76 68.919 132.76 130.456 132.76 136.342 132.76 173.443 132.76 173.443 91.228 176.386 91.228 176.386 86.404 130.456 86.404z" transform="translate(0 1.484) translate(0 56.193)"/>
                    <path fill="#FFF" d="M3.177 58.68H68.60300000000001V61.674H3.177z" transform="translate(0 1.484) translate(0 56.193)"/>
                    <path fill="#9C9C9D" d="M73.964 5.615H79.009V132.76H73.964z" transform="translate(0 1.484) translate(0 56.193)"/>
                    <path fill="#FFF" d="M12.532 79.972H66.397V85.073H12.532zM15.711 108.843H25.552V119.23H15.711zM28.116 108.843H37.957V119.23H28.116zM40.768 108.843H50.609V119.23H40.768zM53.42 108.843H63.261V119.23H53.42zM15.711 88.487H25.552V98.874H15.711zM28.116 88.487H37.957V98.874H28.116zM40.768 88.487H50.609V98.874H40.768zM53.42 88.487H63.261V98.874H53.42z" transform="translate(0 1.484) translate(0 56.193)"/>
                    <path fill="#FFF" d="M15.711 69.642H25.552V80.029H15.711zM28.116 69.642H37.957V80.029H28.116zM40.768 69.642H50.609V80.029H40.768zM53.42 69.642H63.261V80.029H53.42zM83.645 109.262H92.783V119.649H83.645zM94.61 109.262H103.748V119.649H94.61zM105.435 109.262H114.57300000000001V119.649H105.435zM115.978 109.262H125.116V119.649H115.978zM83.645 89.971H92.783V100.358H83.645zM94.61 89.971H103.748V100.358H94.61zM105.435 89.971H114.57300000000001V100.358H105.435zM115.978 89.971H125.116V100.358H115.978zM83.645 69.939H92.783V80.326H83.645zM94.61 69.939H103.748V80.326H94.61zM105.435 69.939H114.57300000000001V80.326H105.435zM115.978 69.939H125.116V80.326H115.978zM83.645 50.648H92.783V61.035000000000004H83.645zM94.61 50.648H103.748V61.035000000000004H94.61zM105.435 50.648H114.57300000000001V61.035000000000004H105.435zM115.978 50.648H125.116V61.035000000000004H115.978zM83.645 31.357H92.783V41.744H83.645zM94.61 31.357H103.748V41.744H94.61zM105.435 31.357H114.57300000000001V41.744H105.435zM115.978 31.357H125.116V41.744H115.978zM83.645 11.325H92.783V21.712H83.645zM94.61 11.325H103.748V21.712H94.61zM105.435 11.325H114.57300000000001V21.712H105.435zM115.978 11.325H125.116V21.712H115.978z" transform="translate(0 1.484) translate(0 56.193)"/>
                    <path fill="#529CBE" d="M16.893 70.657H24.145V79.972H16.893zM29.506 70.657H36.758V79.972H29.506zM42.118 70.657H49.370000000000005V79.972H42.118zM54.678 70.657H61.93V79.972H54.678z" transform="translate(0 1.484) translate(0 56.193)"/>
                    <path fill="#FFF" d="M12.532 119.175H66.397V124.276H12.532z" transform="translate(0 1.484) translate(0 56.193)"/>
                    <path fill="#529CBE" d="M54.678 109.915H61.93V119.23H54.678zM16.893 109.915H24.145V119.23H16.893zM29.506 109.915H36.758V119.23H29.506zM42.118 109.915H49.370000000000005V119.23H42.118zM54.678 89.787H61.93V99.102H54.678zM16.893 89.787H24.145V99.102H16.893zM29.506 89.787H36.758V99.102H29.506zM42.118 89.787H49.370000000000005V99.102H42.118z" transform="translate(0 1.484) translate(0 56.193)"/>
                    <path fill="#FFF" d="M12.532 98.936H66.397V104.037H12.532z" transform="translate(0 1.484) translate(0 56.193)"/>
                    <path fill="#529CBE" d="M84.684 12.38H91.93599999999999V21.695H84.684zM95.51 12.38H102.762V21.695H95.51zM106.283 12.38H113.535V21.695H106.283zM117.056 12.38H124.30799999999999V21.695H117.056z" transform="translate(0 1.484) translate(0 56.193)"/>
                    <path fill="#FFF" d="M83.055 21.474H125.93700000000001V26.132H83.055z" transform="translate(0 1.484) translate(0 56.193)"/>
                    <path fill="#529CBE" d="M84.684 32.009H91.93599999999999V41.324H84.684zM95.51 32.009H102.762V41.324H95.51zM106.283 32.009H113.535V41.324H106.283zM117.056 32.009H124.30799999999999V41.324H117.056z" transform="translate(0 1.484) translate(0 56.193)"/>
                    <path fill="#FFF" d="M83.055 41.102H125.93700000000001V45.76H83.055z" transform="translate(0 1.484) translate(0 56.193)"/>
                    <path fill="#529CBE" d="M84.684 51.638H91.93599999999999V60.952999999999996H84.684zM95.51 51.638H102.762V60.952999999999996H95.51zM106.283 51.638H113.535V60.952999999999996H106.283zM117.056 51.638H124.30799999999999V60.952999999999996H117.056z" transform="translate(0 1.484) translate(0 56.193)"/>
                    <path fill="#FFF" d="M83.055 60.731H125.93700000000001V65.389H83.055z" transform="translate(0 1.484) translate(0 56.193)"/>
                    <path fill="#529CBE" d="M84.684 71.267H91.93599999999999V80.582H84.684zM95.51 71.267H102.762V80.582H95.51zM106.283 71.267H113.535V80.582H106.283zM117.056 71.267H124.30799999999999V80.582H117.056z" transform="translate(0 1.484) translate(0 56.193)"/>
                    <path fill="#FFF" d="M83.055 80.36H125.93700000000001V85.018H83.055z" transform="translate(0 1.484) translate(0 56.193)"/>
                    <path fill="#529CBE" d="M84.684 90.896H91.93599999999999V100.211H84.684zM95.51 90.896H102.762V100.211H95.51zM106.283 90.896H113.535V100.211H106.283zM117.056 90.896H124.30799999999999V100.211H117.056z" transform="translate(0 1.484) translate(0 56.193)"/>
                    <path fill="#FFF" d="M83.055 99.989H125.93700000000001V104.647H83.055z" transform="translate(0 1.484) translate(0 56.193)"/>
                    <path fill="#529CBE" d="M84.684 110.469H91.93599999999999V119.78399999999999H84.684zM95.51 110.469H102.762V119.78399999999999H95.51zM106.283 110.469H113.535V119.78399999999999H106.283zM117.056 110.469H124.30799999999999V119.78399999999999H117.056z" transform="translate(0 1.484) translate(0 56.193)"/>
                    <path fill="#FFF" d="M83.055 119.563H125.93700000000001V124.221H83.055zM130.929 91.173H173.443V93.668H130.929z" transform="translate(0 1.484) translate(0 56.193)"/>
                    <path fill="#529CBE" d="M139.337 115.238H164.24599999999998V132.76H139.337z" transform="translate(0 1.484) translate(0 56.193)"/>
                    <path fill="#FFF" d="M155.208 127.77c0 .413-.318.748-.71.748-.392 0-.71-.335-.71-.749v-4.325c0-.413.318-.748.71-.748.392 0 .71.335.71.748v4.325zM149.742 127.77c0 .413-.317.748-.709.748-.392 0-.71-.335-.71-.749v-4.325c0-.413.318-.748.71-.748.392 0 .71.335.71.748v4.325z" transform="translate(0 1.484) translate(0 56.193)"/>
                    <path fill="#529CBE" d="M136.079 95.276H167.452V113.02H136.079z" transform="translate(0 1.484) translate(0 56.193)"/>
                    <path fill="#FFF" d="M142.228 94.555H144.33V113.74000000000001H142.228zM159.202 94.555H161.304V113.74000000000001H159.202zM150.741 94.555H152.84300000000002V132.75900000000001H150.741z" transform="translate(0 1.484) translate(0 56.193)"/>
                </g>
                <g>
                    <path fill="#E7E5E5" d="M24.598 68.363H87.999V90.95400000000001H24.598zM86.583 11.341L86.583 63.554 24.522 63.554 24.522 6.047 45.809 6.047 45.809 11.301z" transform="translate(0 1.484) translate(257.26 98.484)"/>
                    <path fill="#E7E5E5" d="M86.583 41.166H119.08699999999999V90.91399999999999H86.583z" transform="translate(0 1.484) translate(257.26 98.484)"/>
                    <path fill="#000" d="M86.621 39.549H119.08699999999999V42.135H86.621z" opacity=".3" transform="translate(0 1.484) translate(257.26 98.484)"/>
                    <path fill="#8B8C8D" d="M86.621 36.033H120.619V41.206H86.621z" transform="translate(0 1.484) translate(257.26 98.484)"/>
                    <path fill="#000" d="M86.583 36.033H88.65V90.95400000000001H86.583z" opacity=".3" transform="translate(0 1.484) translate(257.26 98.484)"/>
                    <path fill="#E7E5E5" d="M1.704 26.052H24.522000000000002V90.91399999999999H1.704z" transform="translate(0 1.484) translate(257.26 98.484)"/>
                    <path fill="#000" d="M1.704 24.92H24.522000000000002V27.264000000000003H1.704z" opacity=".3" transform="translate(0 1.484) translate(257.26 98.484)"/>
                    <path fill="#8B8C8D" d="M0.172 21.849H24.522000000000002V26.052H0.172z" transform="translate(0 1.484) translate(257.26 98.484)"/>
                    <path fill="#000" d="M21.995 21.849H24.522000000000002V90.914H21.995z" opacity=".3" transform="translate(0 1.484) translate(257.26 98.484)"/>
                    <path fill="#FFF" d="M7.507 31.142H17.348V42.271H7.507zM73.383 20.775H81.396V31.162H73.383zM63.964 20.775H71.977V31.162H63.964zM54.404 20.775H62.417V31.162H54.404zM44.986 20.775H52.998999999999995V31.162H44.986zM73.383 35.762H81.396V46.149H73.383zM63.964 35.762H71.977V46.149H63.964zM54.404 35.762H62.417V46.149H54.404zM44.986 35.762H52.998999999999995V46.149H44.986zM73.383 50.452H81.396V60.839H73.383zM91.377 43.775H102.62299999999999V52.678H91.377zM104.591 43.775H115.83699999999999V52.678H104.591zM91.377 53.42H102.62299999999999V62.323H91.377zM104.591 53.42H115.83699999999999V62.323H104.591zM89.971 71.969H101.217V83.83999999999999H89.971zM103.186 71.969H114.432V83.83999999999999H103.186zM63.964 50.452H71.977V60.839H63.964zM54.404 50.452H62.417V60.839H54.404zM44.986 50.452H52.998999999999995V60.839H44.986zM7.507 44.517H17.348V56.091H7.507zM7.507 58.614H17.348V69.743H7.507zM7.507 71.989H17.348V83.563H7.507z" transform="translate(0 1.484) translate(257.26 98.484)"/>
                    <path fill="#529CBE" d="M8.212 31.75H16.442999999999998V41.53H8.212zM8.212 45.571H16.442999999999998V55.351H8.212zM8.212 59.351H16.442999999999998V69.131H8.212zM8.212 73.173H16.442999999999998V82.953H8.212zM92.555 44.601H101.70500000000001V51.673H92.555zM105.496 44.601H114.646V51.673H105.496zM92.555 54.138H101.70500000000001V61.21H92.555zM105.496 54.138H114.646V61.21H105.496zM91.33 73.173H100.48V82.023H91.33zM104.271 73.173H113.421V82.023H104.271zM45.809 21.849H52.471V30.698999999999998H45.809zM55.227 21.849H61.888999999999996V30.698999999999998H55.227zM64.645 21.849H71.307V30.698999999999998H64.645zM74.063 21.849H80.72500000000001V30.698999999999998H74.063zM45.809 51.39H52.471V60.24H45.809zM55.227 51.39H61.888999999999996V60.24H55.227zM64.645 51.39H71.307V60.24H64.645zM74.063 51.39H80.72500000000001V60.24H74.063zM45.809 36.599H52.471V45.449H45.809zM55.227 36.599H61.888999999999996V45.449H55.227zM64.645 36.599H71.307V45.449H64.645zM74.063 36.599H80.72500000000001V45.449H74.063zM39.492 73.173H60.81699999999999V90.914H39.492z" transform="translate(0 1.484) translate(257.26 98.484)"/>
                    <path fill="#FFF" d="M51.054 90.914L49.293 90.914 49.293 74.183 40.41 74.183 40.41 90.914 38.611 90.914 38.611 72.243 51.054 72.243z" transform="translate(0 1.484) translate(257.26 98.484)"/>
                    <path fill="#FFF" d="M61.697 90.914L59.898 90.914 59.898 74.183 51.054 74.183 51.054 90.914 49.293 90.914 49.293 72.243 61.697 72.243z" transform="translate(0 1.484) translate(257.26 98.484)"/>
                    <path fill="#000" d="M118.436 65.939H119.96700000000001V90.91399999999999H118.436z" opacity=".3" transform="translate(0 1.484) translate(257.26 98.484)"/>
                    <path fill="#E7E5E5" d="M119.087 65.939H128.161V91.16499999999999H119.087z" transform="translate(0 1.484) translate(257.26 98.484)"/>
                    <path fill="#8B8C8D" d="M21.153 63.554H130.573V68.363H21.153z" transform="translate(0 1.484) translate(257.26 98.484)"/>
                    <path fill="#FBFFFE" d="M51.551 80.851H52.551V84.731H51.551zM47.876 80.851H48.876V84.731H47.876z" transform="translate(0 1.484) translate(257.26 98.484)"/>
                    <path fill="#8B8C8D" d="M45.464 5.724H87.999V11.301H45.464z" transform="translate(0 1.484) translate(257.26 98.484)"/>
                    <path fill="#000" d="M45.464 5.724H47.492999999999995V11.301H45.464zM24.522 6.047H45.464V7.502H24.522z" opacity=".3" transform="translate(0 1.484) translate(257.26 98.484)"/>
                    <path fill="#8B8C8D" d="M23.067 0.47H46.919V6.047H23.067z" transform="translate(0 1.484) translate(257.26 98.484)"/>
                    <path fill="#000" d="M45.464 11.341L45.464 63.554 47.455 63.554 47.455 12.796 86.583 12.796 86.583 11.341z" opacity=".4" transform="translate(0 1.484) translate(257.26 98.484)"/>
                </g>
                <g transform="translate(0 1.484) translate(120.899)">
                    <path fill="#D1D1D1" d="M158.232 9.761L135.018 9.761 129.572 0.355 73.297 0.355 67.906 9.761 53.219 9.761 53.219 55.633 46.727 55.633 46.727 182.913 164.558 182.913 164.558 26.542 158.232 26.542z"/>
                    <path fill="#232528" d="M130.507 71.659H164.558V79.44000000000001H130.507z" opacity=".5"/>
                    <path fill="#232528" d="M130.507 93.144H164.558V100.867H130.507z" opacity=".4"/>
                    <path fill="#232528" d="M130.507 114.686H164.558V122.409H130.507zM130.507 136.17H164.558V143.951H130.507zM130.507 50.117H164.558V57.839999999999996H130.507zM130.507 28.633H164.558V36.414H130.507z" opacity=".5"/>
                    <path fill="#529CBE" d="M55.969 59.466H64.881V70.266H55.969z"/>
                    <path fill="#FFF" fill-rule="nonzero" d="M65.376 70.73h-9.847V59.117h9.847V70.73zm-8.912-.987h8.032V59.93h-8.032v9.813z"/>
                    <path fill="#529CBE" d="M67.906 59.466H76.81800000000001V70.266H67.906z"/>
                    <path fill="#FFF" fill-rule="nonzero" d="M77.313 70.73H67.41V59.117h9.847l.055 11.613zm-8.912-.987h8.032V59.93h-8.087l.055 9.813z"/>
                    <path fill="#529CBE" d="M55.969 81.182H64.881V91.982H55.969z"/>
                    <path fill="#FFF" fill-rule="nonzero" d="M65.376 92.447h-9.847V80.834h9.847v11.613zm-8.912-.987h8.032v-9.813h-8.032v9.813z"/>
                    <path fill="#529CBE" d="M67.906 81.182H76.81800000000001V91.982H67.906z"/>
                    <path fill="#FFF" fill-rule="nonzero" d="M77.313 92.447H67.41V80.834h9.847l.055 11.613zM68.4 91.46h8.032v-9.813h-8.087l.055 9.813z"/>
                    <path fill="#529CBE" d="M55.969 102.899H64.881V113.699H55.969z"/>
                    <path fill="#FFF" fill-rule="nonzero" d="M65.376 113.873h-9.847V102.26h9.847v11.613zm-8.912-.987h8.032v-9.813h-8.032v9.813z"/>
                    <path fill="#529CBE" d="M67.906 102.899H76.81800000000001V113.699H67.906z"/>
                    <path fill="#FFF" fill-rule="nonzero" d="M77.313 113.873H67.41V102.26h9.847l.055 11.613zm-8.912-.987h8.032v-9.813h-8.087l.055 9.813z"/>
                    <path fill="#529CBE" d="M55.969 124.615H64.881V135.415H55.969z"/>
                    <path fill="#FFF" fill-rule="nonzero" d="M65.376 135.88h-9.847v-11.613h9.847v11.613zm-8.912-.987h8.032v-9.813h-8.032v9.813z"/>
                    <path fill="#529CBE" d="M67.906 124.615H76.81800000000001V135.415H67.906z"/>
                    <path fill="#FFF" fill-rule="nonzero" d="M77.313 135.88H67.41v-11.613h9.847l.055 11.613zm-8.912-.987h8.032v-9.813h-8.087l.055 9.813z"/>
                    <path fill="#529CBE" d="M55.969 37.749H64.881V48.54900000000001H55.969z"/>
                    <path fill="#FFF" fill-rule="nonzero" d="M65.376 49.014h-9.847V37.4h9.847v11.613zm-8.912-.987h8.032v-9.64h-8.032v9.64z"/>
                    <path fill="#529CBE" d="M67.906 37.749H76.81800000000001V48.54900000000001H67.906z"/>
                    <path fill="#FFF" fill-rule="nonzero" d="M77.313 49.014H67.41V37.4h9.847l.055 11.613zm-8.912-.987h8.032v-9.64h-8.087l.055 9.64z"/>
                    <path fill="#529CBE" d="M55.969 16.033H64.881V26.833000000000002H55.969z"/>
                    <path fill="#FFF" fill-rule="nonzero" d="M65.376 27.297h-9.847V15.684h9.847v11.613zm-8.912-.987h8.032v-9.813h-8.032v9.813z"/>
                    <path fill="#529CBE" d="M67.906 16.033H76.81800000000001V26.833000000000002H67.906z"/>
                    <path fill="#FFF" fill-rule="nonzero" d="M77.313 27.297H67.41V15.684h9.847l.055 11.613zM68.4 26.31h8.032v-9.813h-8.087l.055 9.813z"/>
                    <path fill="#529CBE" d="M132.982 58.885H141.894V69.685H132.982z"/>
                    <path fill="#FFF" fill-rule="nonzero" d="M142.389 70.15h-9.847V58.537h9.847V70.15zm-8.912-.987h8.032v-9.814h-8.087l.055 9.814z"/>
                    <path fill="#529CBE" d="M144.919 58.885H153.83100000000002V69.685H144.919z"/>
                    <path fill="#FFF" fill-rule="nonzero" d="M154.326 70.15h-9.902V58.537h9.847l.055 11.613zm-8.912-.987h8.032v-9.814h-8.087l.055 9.814z"/>
                    <path fill="#529CBE" d="M132.982 80.369H141.894V91.169H132.982z"/>
                    <path fill="#FFF" fill-rule="nonzero" d="M142.389 91.692h-9.847V80.079h9.847v11.613zm-8.967-1.045h8.032v-9.813h-8.032v9.813z"/>
                    <path fill="#529CBE" d="M144.919 80.369H153.83100000000002V91.169H144.919z"/>
                    <path fill="#FFF" fill-rule="nonzero" d="M154.326 91.692h-9.902V80.079h9.847l.055 11.613zm-8.967-1.045h8.032v-9.813h-8.032v9.813z"/>
                    <path fill="#FFF" d="M130.507 112.712H173.359V120.435H130.507z"/>
                    <path fill="#529CBE" d="M132.982 101.911H141.894V112.711H132.982z"/>
                    <path fill="#FFF" fill-rule="nonzero" d="M142.389 113.176h-9.847v-11.613h9.847v11.613zm-8.912-.987h8.032v-9.93h-8.087l.055 9.93z"/>
                    <path fill="#529CBE" d="M144.919 101.911H153.83100000000002V112.711H144.919z"/>
                    <path fill="#FFF" fill-rule="nonzero" d="M154.326 113.176h-9.902v-11.613h9.847l.055 11.613zm-8.912-.987h8.032v-9.93h-8.087l.055 9.93z"/>
                    <path fill="#FFF" d="M130.507 134.196H173.359V141.919H130.507z"/>
                    <path fill="#529CBE" d="M132.982 123.396H141.894V134.196H132.982z"/>
                    <path fill="#FFF" fill-rule="nonzero" d="M142.389 134.718h-9.847v-11.613h9.847v11.613zm-8.912-.987h8.032v-9.813h-8.087l.055 9.813z"/>
                    <path fill="#529CBE" d="M144.919 123.396H153.83100000000002V134.196H144.919z"/>
                    <path fill="#FFF" fill-rule="nonzero" d="M154.326 134.718h-9.902v-11.613h9.847l.055 11.613zm-8.912-.987h8.032v-9.813h-8.087l.055 9.813z"/>
                    <path fill="#529CBE" d="M132.982 37.343H141.894V48.143H132.982z"/>
                    <path fill="#FFF" fill-rule="nonzero" d="M142.389 48.665h-9.847V37.052h9.847v11.613zm-8.912-.987h8.032v-9.813h-8.087l.055 9.813z"/>
                    <path fill="#529CBE" d="M144.919 37.343H153.83100000000002V48.143H144.919z"/>
                    <path fill="#FFF" fill-rule="nonzero" d="M154.326 48.665h-9.902V37.052h9.847l.055 11.613zm-8.912-.987h8.032v-9.813h-8.087l.055 9.813z"/>
                    <path fill="#529CBE" d="M132.982 15.858H141.894V26.658H132.982z"/>
                    <path fill="#FFF" fill-rule="nonzero" d="M142.389 27.123h-9.847V15.51h9.847v11.613zm-8.912-.987h8.032v-9.813h-8.087l.055 9.813z"/>
                    <path fill="#529CBE" d="M144.919 15.858H153.83100000000002V26.658H144.919z"/>
                    <path fill="#FFF" fill-rule="nonzero" d="M154.326 27.123h-9.902V15.51h9.847l.055 11.613zm-8.912-.987h8.032v-9.813h-8.087l.055 9.813z"/>
                    <path fill="#529CBE" d="M136.228 152.08H162.743V182.913H136.228z"/>
                    <path fill="#232528" d="M118.185 9.761H126.32600000000001V182.97H118.185z" opacity=".3"/>
                    <path fill="#232528" d="M53.219 27.994H105.643V35.775H53.219zM46.617 71.717H105.642V79.44H46.617zM46.727 49.885H105.642V57.666H46.727zM46.617 93.608H105.642V101.38900000000001H46.617zM46.617 115.499H105.642V123.222H46.617zM46.617 137.331H105.642V145.054H46.617z" opacity=".5"/>
                    <path fill="#FFF" d="M49.258 26.02H105.643V33.801H49.258zM37.486 69.743H105.643V77.524H37.486zM41.502 47.911H105.643V55.634H41.502zM37.486 91.634H105.643V99.415H37.486zM37.486 113.525H105.643V121.248H37.486zM37.486 135.357H105.643V143.08H37.486z"/>
                    <path fill="#999" d="M102.947 153.358L7.946 153.358 0.299 149.467 108.943 149.467z"/>
                    <path fill="#FFF" d="M.299 146.274H108.94300000000001V149.468H.299zM134.358 150.745H138.044V182.971H134.358z"/>
                    <path fill="#F9F9F9" d="M160.872 151.441H164.55800000000002V183.609H160.872z"/>
                    <path fill="#E9E9E9" d="M7.946 153.358H102.782V182.971H7.946z"/>
                    <path fill="#529CBE" d="M15.097 155.796H38.531V182.91299999999998H15.097z"/>
                    <path fill="#FFF" d="M17.132 171.532L17.132 157.364 32.37 157.364z" opacity=".4"/>
                    <path fill="#529CBE" d="M49.423 155.796H94.531V182.91299999999998H49.423z"/>
                    <path fill="#E6E6E6" d="M0.299 182.913H170.553V189.184H0.299z"/>
                    <path fill="#FFF" d="M127.701 146.274H170.553V149.468H127.701z"/>
                    <path fill="#999" d="M164.558 153.358L134.358 153.358 127.701 149.467 170.554 149.467z"/>
                    <path fill="#232528" d="M53.219 11.736H158.287V15.22H53.219z" opacity=".4"/>
                    <path fill="#F9F9F9" d="M50.798 9.761H160.597V13.245H50.798z"/>
                    <path fill="#232528" d="M102.782 182.913L94.476 182.913 44.912 153.358 102.782 153.358zM164.558 182.913L160.872 182.971 138.043 153.358 164.558 153.358z" opacity=".2"/>
                    <path fill="#FFF" d="M50.798 9.761H160.597V13.245H50.798zM130.507 26.659H164.558V34.382H130.507zM130.507 48.143H173.359V55.866H130.507zM130.507 69.685H173.359V77.46600000000001H130.507zM130.507 91.169H173.359V98.95H130.507z"/>
                    <path fill="#009245" d="M113.784 164.738c-1.287-.76-2.89-.577-3.993.457-1.103 1.034-1.465 2.691-.903 4.13h-.55c-.479.348-.699.976-.55 1.568-.826.383-1.356 1.249-1.349 2.2.008.953.553 1.808 1.385 2.176.832.368 1.791.177 2.44-.485l6.71-4.762c1.08-.558 1.754-1.728 1.725-2.996-.028-1.27-.753-2.404-1.856-2.908-1.103-.504-2.384-.284-3.279.562l.22.058z"/>
                    <path fill="#006837" d="M115.654 164.216c.472.252.87.633 1.156 1.103.6.899.722 2.06.32 3.076-.403 1.014-1.272 1.74-2.3 1.918.738-1.063.878-2.463.365-3.665-.512-1.203-1.598-2.02-2.841-2.142.967.545 1.632 1.54 1.795 2.684.162 1.145-.197 2.302-.97 3.123l-.495.464h-.55c-.502.23-1.05.33-1.596.29.17-.386.17-.832 0-1.219-.212-.342-.552-.574-.935-.639.42.246.681.713.681 1.22s-.26.974-.68 1.22h-.661c.319.129.672.129.99 0 .537 1.068.23 2.392-.715 3.077-.325.237-.705.377-1.1.406.623.331 1.358.331 1.98 0l7.207-5.11c.994-.81 1.423-2.175 1.085-3.451-.339-1.277-1.378-2.208-2.626-2.355h-.11z"/>
                    <path fill="#009245" d="M126.986 170.197c-1.362-2.667-4.149-4.16-6.992-3.746-2.842.414-5.143 2.648-5.77 5.604-.69-.346-1.484-.373-2.193-.075-.71.297-1.27.892-1.548 1.642h-.66c-2.43 0-4.4 2.08-4.4 4.646 0 2.565 1.97 4.645 4.4 4.645h17.108c2.29.231 4.505-.928 5.718-2.99 1.213-2.063 1.213-4.673 0-6.736-1.213-2.063-3.428-3.222-5.718-2.99h.055z"/>
                    <path fill="#006837" d="M130.672 171.532c.512.956.778 2.037.77 3.136-.023 2.13-1.05 4.108-2.74 5.274-1.69 1.165-3.819 1.365-5.676.532 2.388-.837 4.153-2.984 4.6-5.599.447-2.614-.495-5.277-2.455-6.943.888 1.953.903 4.223.04 6.19-.861 1.965-2.51 3.422-4.496 3.971h-2.97c-1.083-.202-2.103-.68-2.97-1.393.589-.54.927-1.324.927-2.149 0-.824-.338-1.608-.928-2.148.485.834.52 1.876.091 2.744-.428.868-1.256 1.435-2.181 1.495h-1.65c.503.512 1.171.802 1.87.813-.15 1.573-1.05 2.957-2.384 3.673-1.336.717-2.925.667-4.217-.131.83 1.17 2.135 1.858 3.52 1.858h17.108c2.711.165 5.189-1.614 6.04-4.335.85-2.722-.138-5.708-2.41-7.278l.11.29z"/>
                    <circle cx="119.285" cy="170.545" r="1" fill="#FFF"/>
                    <circle cx="119.45" cy="168.803" r="1" fill="#FFF"/>
                    <circle cx="117.69" cy="169.906" r="1" fill="#FFF"/>
                    <circle cx="111.801" cy="166.147" r="1" fill="#FFF" transform="rotate(-40.94 111.801 166.147)"/>
                    <circle cx="111.07" cy="165.401" r="1" fill="#FFF" transform="rotate(-41.01 111.07 165.4)"/>
                    <circle cx="110.723" cy="166.622" r="1" fill="#FFF" transform="rotate(-40.98 110.723 166.622)"/>
                    <circle cx="108.022" cy="179.233" r="1" fill="#FFF" transform="rotate(-77.53 108.022 179.233)"/>
                    <circle cx="109.617" cy="179.678" r="1" fill="#FFF" transform="rotate(-77.63 109.617 179.678)"/>
                    <circle cx="108.918" cy="177.885" r="1" fill="#FFF" transform="rotate(-77.53 108.918 177.885)"/>
                    <circle cx="113.222" cy="172.79" r="1" fill="#FFF" transform="rotate(-79.35 113.222 172.79)"/>
                    <circle cx="112.844" cy="174.336" r="1" fill="#FFF" transform="rotate(-79.4 112.844 174.336)"/>
                    <circle cx="114.278" cy="173.534" r="1" fill="#FFF" transform="rotate(-79.53 114.278 173.534)"/>
                    <circle cx="129.175" cy="175.464" r="1" fill="#FFF" transform="rotate(-63.17 129.175 175.464)"/>
                    <circle cx="128.256" cy="176.945" r="1" fill="#FFF" transform="rotate(-63.33 128.256 176.945)"/>
                    <circle cx="130.456" cy="176.563" r="1" fill="#FFF" transform="rotate(-63.45 130.456 176.563)"/>
                    <circle cx="119.894" cy="179.904" r="1" fill="#FFF" transform="rotate(-8.64 119.894 179.904)"/>
                    <circle cx="118.145" cy="180.025" r="1" fill="#FFF" transform="rotate(-8.26 118.145 180.025)"/>
                    <circle cx="119.39" cy="181.698" r="1" fill="#FFF" transform="rotate(-8.84 119.39 181.698)"/>
                </g>
            </g>
        </g>
        <g mask="url(#prefix__b)">
            <g>
                <path fill="#FFAB91" d="M3.587 11.082c.083-.383.401-.668.782-.668.38 0 .698.285.78.668H3.588" transform="translate(264.993)"/>
                <path fill="#FFAB91" d="M4.806 10.748L4.803 7.638 5.15 7.801 5.15 11.082 4.806 10.748" transform="translate(264.993)"/>
                <path fill="#FFC5B6" d="M5.694 10.748L5.69 7.638 6.037 7.801 6.037 11.082 5.694 10.748" transform="translate(264.993)"/>
                <path fill="#FFC5B6" d="M4.475 11.082c.083-.383.4-.668.781-.668.38 0 .699.285.781.668H4.475" transform="translate(264.993)"/>
                <path fill="#263238" d="M2.91.941C2.022.824.999 1.044.186 1.594c-.045.03-.088.06-.13.091-.103.077-.055.25.07.256.718.035 1.295.279 1.624.746l1.58.311L2.91.941" transform="translate(264.993)"/>
                <path fill="#546E7A" d="M9.232 9.37H3.51C2.003 9.37.788 8.023.845 6.386c.014-.384.1-.75.24-1.083.022-.05.044-.1.068-.148l.019-.035c.485-.948.49-2.098.014-3.052l-.013-.028c-.09-.191-.142-.408-.142-.637C1.03.628 1.614 0 2.334 0s1.303.628 1.303 1.404v.047c.005.805.291 1.57.788 2.149.161.187.344.354.546.497L5 4.118c.042.03.082.062.122.094l4.582 3.6c.625.492.302 1.557-.472 1.557" transform="translate(264.993)"/>
                <path fill="#CFD8DC" d="M9.232 9.37H3.51C2.003 9.37.788 8.023.845 6.386c.014-.384.1-.75.24-1.083.693-1.241 2.017-1.913 3.34-1.704.161.187.344.354.546.497L5 4.118c.042.03.082.062.122.094l4.582 3.6c.625.492.302 1.557-.472 1.557" transform="translate(264.993)"/>
                <path fill="#37474F" d="M11.852 9.37H8.831c-.44 0-.8-.388-.8-.862s.36-.861.8-.861h3.021c.44 0 .8.387.8.861s-.36.862-.8.862" transform="translate(264.993)"/>
                <path fill="#263238" d="M11.437 9.37H9.246c-.319 0-.58-.282-.58-.625 0-.344.261-.625.58-.625h2.191c.32 0 .58.281.58.625 0 .343-.26.625-.58.625M2.344 1.117c0 .164-.124.298-.277.298-.152 0-.276-.134-.276-.298 0-.165.124-.298.276-.298.153 0 .277.133.277.298" transform="translate(264.993)"/>
                <path fill="#546E7A" d="M11.8 9.714l-.026.04c-.13.193-.384.237-.564.097L7.518 6.967c-.18-.14-.22-.414-.09-.608l.026-.039c.13-.194.385-.238.565-.097l3.692 2.883c.18.14.22.414.09.608" transform="translate(264.993)"/>
                <path fill="#546E7A" d="M10.54 9.896c-.137.205-.405.25-.595.102L6.289 7.144c-.19-.149-.233-.438-.095-.642.138-.205.406-.251.596-.103l3.656 2.855c.19.148.233.437.095.642" transform="translate(264.993)"/>
                <path fill="#546E7A" d="M9.203 9.987c-.138.205-.406.25-.596.102L4.951 7.235c-.19-.149-.232-.438-.095-.642.138-.205.406-.25.596-.103l3.656 2.855c.19.148.233.437.095.642" transform="translate(264.993)"/>
                <path fill="#78909C" d="M5.686 4.401l3.56 2.78c.486.38.238 1.206-.362 1.207l-1.242.005-1.526.005-1.42.004-.249.001c-.517.001-.99-.201-1.354-.539-.457-.424-.74-1.06-.717-1.766.036-1.146.894-2.086 1.957-2.144.51-.028.98.143 1.353.447" transform="translate(264.993)"/>
                <path fill="#A7B5BB" d="M7.076 5.486L6.257 4.847 7.076 5.486" transform="translate(264.993)"/>
                <path fill="#657F8B" d="M4.441 8.403h-.003c-.513 0-.984-.203-1.345-.539h.018c.98 0 1.945-.489 2.564-1.408.331-.492.523-1.046.582-1.61l.82.64c-.06.563-.253 1.117-.583 1.609-.456.677-1.099 1.12-1.798 1.307l-.249.001h-.006" transform="translate(264.993)"/>
                <path fill="#424242" d="M7.595 5.891l.818.64c-.06.562-.252 1.116-.583 1.608-.06.088-.122.173-.188.254l-1.526.005c.34-.227.647-.528.896-.898.33-.492.522-1.046.583-1.609M6.257 4.847l.82.64c-.06.562-.253 1.116-.583 1.608-.456.677-1.099 1.12-1.798 1.307l-.249.001c-.517.001-.99-.201-1.354-.539.986.006 1.96-.484 2.582-1.408.331-.492.523-1.046.582-1.61" transform="translate(264.993)"/>
                <path fill="#ECEFF1" d="M1.046 1.399l-.264.116c-.108.048-.233-.009-.278-.126-.044-.117.008-.252.117-.3L.884.975c.109-.048.234.008.278.125.045.117-.008.252-.116.3" transform="translate(264.993)"/>
                <path fill="#26A69A" d="M3.39 2.5c0 .305-.23.552-.513.552-.283 0-.513-.247-.513-.553 0-.305.23-.553.513-.553.284 0 .513.248.513.553" transform="translate(264.993)"/>
            </g>
        </g>
        <g mask="url(#prefix__b)">
            <g>
                <path fill="#FFAB91" d="M3.587 11.082c.083-.383.401-.668.782-.668.38 0 .698.285.78.668H3.588" transform="matrix(-1 0 0 1 14.76 97.195)"/>
                <path fill="#FFAB91" d="M4.806 10.748L4.803 7.638 5.15 7.801 5.15 11.082 4.806 10.748" transform="matrix(-1 0 0 1 14.76 97.195)"/>
                <path fill="#FFC5B6" d="M5.694 10.748L5.69 7.638 6.037 7.801 6.037 11.082 5.694 10.748" transform="matrix(-1 0 0 1 14.76 97.195)"/>
                <path fill="#FFC5B6" d="M4.475 11.082c.083-.383.4-.668.781-.668.38 0 .699.285.781.668H4.475" transform="matrix(-1 0 0 1 14.76 97.195)"/>
                <path fill="#263238" d="M2.91.941C2.022.824.999 1.044.186 1.594c-.045.03-.088.06-.13.091-.103.077-.055.25.07.256.718.035 1.295.279 1.624.746l1.58.311L2.91.941" transform="matrix(-1 0 0 1 14.76 97.195)"/>
                <path fill="#546E7A" d="M9.232 9.37H3.51C2.003 9.37.788 8.023.845 6.386c.014-.384.1-.75.24-1.083.022-.05.044-.1.068-.148l.019-.035c.485-.948.49-2.098.014-3.052l-.013-.028c-.09-.191-.142-.408-.142-.637C1.03.628 1.614 0 2.334 0s1.303.628 1.303 1.404v.047c.005.805.291 1.57.788 2.149.161.187.344.354.546.497L5 4.118c.042.03.082.062.122.094l4.582 3.6c.625.492.302 1.557-.472 1.557" transform="matrix(-1 0 0 1 14.76 97.195)"/>
                <path fill="#CFD8DC" d="M9.232 9.37H3.51C2.003 9.37.788 8.023.845 6.386c.014-.384.1-.75.24-1.083.693-1.241 2.017-1.913 3.34-1.704.161.187.344.354.546.497L5 4.118c.042.03.082.062.122.094l4.582 3.6c.625.492.302 1.557-.472 1.557" transform="matrix(-1 0 0 1 14.76 97.195)"/>
                <path fill="#37474F" d="M11.852 9.37H8.831c-.44 0-.8-.388-.8-.862s.36-.861.8-.861h3.021c.44 0 .8.387.8.861s-.36.862-.8.862" transform="matrix(-1 0 0 1 14.76 97.195)"/>
                <path fill="#263238" d="M11.437 9.37H9.246c-.319 0-.58-.282-.58-.625 0-.344.261-.625.58-.625h2.191c.32 0 .58.281.58.625 0 .343-.26.625-.58.625M2.344 1.117c0 .164-.124.298-.277.298-.152 0-.276-.134-.276-.298 0-.165.124-.298.276-.298.153 0 .277.133.277.298" transform="matrix(-1 0 0 1 14.76 97.195)"/>
                <path fill="#546E7A" d="M11.8 9.714l-.026.04c-.13.193-.384.237-.564.097L7.518 6.967c-.18-.14-.22-.414-.09-.608l.026-.039c.13-.194.385-.238.565-.097l3.692 2.883c.18.14.22.414.09.608" transform="matrix(-1 0 0 1 14.76 97.195)"/>
                <path fill="#546E7A" d="M10.54 9.896c-.137.205-.405.25-.595.102L6.289 7.144c-.19-.149-.233-.438-.095-.642.138-.205.406-.251.596-.103l3.656 2.855c.19.148.233.437.095.642" transform="matrix(-1 0 0 1 14.76 97.195)"/>
                <path fill="#546E7A" d="M9.203 9.987c-.138.205-.406.25-.596.102L4.951 7.235c-.19-.149-.232-.438-.095-.642.138-.205.406-.25.596-.103l3.656 2.855c.19.148.233.437.095.642" transform="matrix(-1 0 0 1 14.76 97.195)"/>
                <path fill="#78909C" d="M5.686 4.401l3.56 2.78c.486.38.238 1.206-.362 1.207l-1.242.005-1.526.005-1.42.004-.249.001c-.517.001-.99-.201-1.354-.539-.457-.424-.74-1.06-.717-1.766.036-1.146.894-2.086 1.957-2.144.51-.028.98.143 1.353.447" transform="matrix(-1 0 0 1 14.76 97.195)"/>
                <path fill="#A7B5BB" d="M7.076 5.486L6.257 4.847 7.076 5.486" transform="matrix(-1 0 0 1 14.76 97.195)"/>
                <path fill="#657F8B" d="M4.441 8.403h-.003c-.513 0-.984-.203-1.345-.539h.018c.98 0 1.945-.489 2.564-1.408.331-.492.523-1.046.582-1.61l.82.64c-.06.563-.253 1.117-.583 1.609-.456.677-1.099 1.12-1.798 1.307l-.249.001h-.006" transform="matrix(-1 0 0 1 14.76 97.195)"/>
                <path fill="#424242" d="M7.595 5.891l.818.64c-.06.562-.252 1.116-.583 1.608-.06.088-.122.173-.188.254l-1.526.005c.34-.227.647-.528.896-.898.33-.492.522-1.046.583-1.609M6.257 4.847l.82.64c-.06.562-.253 1.116-.583 1.608-.456.677-1.099 1.12-1.798 1.307l-.249.001c-.517.001-.99-.201-1.354-.539.986.006 1.96-.484 2.582-1.408.331-.492.523-1.046.582-1.61" transform="matrix(-1 0 0 1 14.76 97.195)"/>
                <path fill="#ECEFF1" d="M1.046 1.399l-.264.116c-.108.048-.233-.009-.278-.126-.044-.117.008-.252.117-.3L.884.975c.109-.048.234.008.278.125.045.117-.008.252-.116.3" transform="matrix(-1 0 0 1 14.76 97.195)"/>
                <path fill="#26A69A" d="M3.39 2.5c0 .305-.23.552-.513.552-.283 0-.513-.247-.513-.553 0-.305.23-.553.513-.553.284 0 .513.248.513.553" transform="matrix(-1 0 0 1 14.76 97.195)"/>
            </g>
        </g>
    </g>
</svg>
