<svg width="42" height="42" viewBox="0 0 42 42" fill="none" xmlns="http://www.w3.org/2000/svg">
<path fill-rule="evenodd" clip-rule="evenodd" d="M19.5267 0.77914C20.3403 -0.0344528 21.6594 -0.0344528 22.473 0.77914L41.223 19.5291C42.0366 20.3427 42.0366 21.6618 41.223 22.4754C40.4094 23.289 39.0903 23.289 38.2767 22.4754L37.6665 21.8652V37.6689C37.6665 39.9701 35.801 41.8356 33.4998 41.8356H8.49984C6.19865 41.8356 4.33317 39.9701 4.33317 37.6689V21.8652L3.72298 22.4754C2.90938 23.289 1.59029 23.289 0.776698 22.4754C-0.0368942 21.6618 -0.0368942 20.3427 0.776698 19.5291L19.5267 0.77914ZM8.49984 17.6986V37.6689H14.7498V29.3356C14.7498 27.0344 16.6153 25.1689 18.9165 25.1689H23.0832C25.3844 25.1689 27.2498 27.0344 27.2498 29.3356V37.6689H33.4998V17.6986L20.9998 5.19856L8.49984 17.6986ZM23.0832 37.6689V29.3356H18.9165V37.6689H23.0832Z" fill="#1C9E3B"/>
</svg>
