<svg xmlns="http://www.w3.org/2000/svg" width="40" height="40" viewBox="0 0 40 40">
    <path fill="#1C9E3B" fill-rule="evenodd" d="M3.059 28.471c.585 0 1.059.474 1.059 1.058v6.353h6.353c.584 0 1.058.474 1.058 1.059S11.055 38 10.47 38H3.06C2.474 38 2 37.526 2 36.94V29.53c0-.584.474-1.058 1.059-1.058zm33.882 0c.585 0 1.059.474 1.059 1.058v7.412c0 .585-.474 1.059-1.06 1.059H29.53c-.584 0-1.058-.474-1.058-1.059s.474-1.059 1.058-1.059h6.353v-6.353c0-.584.474-1.058 1.059-1.058zM21 25v3H10v-3h11zm9-6.5v3H10v-3h20zm0-6.5v3H10v-3h20zM10.471 2c.584 0 1.058.474 1.058 1.059s-.474 1.059-1.058 1.059H4.118v6.353c0 .584-.474 1.058-1.059 1.058S2 11.055 2 10.47V3.06C2 2.474 2.474 2 3.06 2h7.411zm26.47 0C37.526 2 38 2.474 38 3.06v7.411c0 .584-.474 1.058-1.059 1.058s-1.059-.474-1.059-1.058V4.118h-6.353c-.584 0-1.058-.474-1.058-1.059S28.945 2 29.53 2h7.412z"/>
</svg>
