<svg xmlns="http://www.w3.org/2000/svg" width="40" height="40" viewBox="0 0 40 40">
    <path fill="#1C9E3B" fill-rule="evenodd" d="M30.05 23.09c-2.277.004-4.407 1.125-5.7 3l-7.8-3.92c.237-.71.358-1.452.36-2.2-.004-.737-.122-1.47-.35-2.17l7.78-3.87c1.96 2.807 5.674 3.765 8.748 2.257 3.073-1.509 4.587-5.033 3.566-8.3-1.021-3.268-4.273-5.303-7.658-4.793-3.385.51-5.893 3.413-5.906 6.836.002.737.12 1.47.35 2.17L15.66 16c-1.738-2.525-4.917-3.624-7.844-2.714-2.927.91-4.921 3.619-4.921 6.684s1.994 5.774 4.92 6.684c2.928.91 6.107-.19 7.845-2.714l7.8 3.92c-.974 2.883.027 6.065 2.475 7.872 2.448 1.807 5.784 1.825 8.252.045 2.468-1.78 3.503-4.95 2.561-7.844-.942-2.893-3.645-4.847-6.688-4.833l-.01-.01zm0-17.09c1.622 0 3.084.98 3.7 2.481.616 1.5.265 3.225-.89 4.365-1.154 1.14-2.883 1.47-4.376.835-1.493-.635-2.454-2.109-2.434-3.731.027-2.19 1.81-3.95 4-3.95zM10 23.91c-2.21 0-4-1.79-4-4s1.79-4 4-4 4 1.79 4 4-1.79 4-4 4zM30.05 34c-1.627.02-3.104-.947-3.736-2.446-.632-1.5-.293-3.232.858-4.382 1.15-1.15 2.883-1.49 4.382-.858 1.5.632 2.466 2.11 2.446 3.736-.027 2.17-1.78 3.923-3.95 3.95z"/>
</svg>
