<svg xmlns="http://www.w3.org/2000/svg" width="40" height="40" viewBox="0 0 40 40">
    <path fill="#1C9E3B" fill-rule="evenodd" d="M24.5 13.5h-4c-.276 0-.5-.224-.5-.5v-1c0-.276.224-.5.5-.5h4c.276 0 .5.224.5.5v1c0 .276-.224.5-.5.5zm4 3h-8c-.276 0-.5-.224-.5-.5v-1c0-.276.224-.5.5-.5h8c.276 0 .5.224.5.5v1c0 .276-.224.5-.5.5zm-4 5h-4c-.276 0-.5-.224-.5-.5v-1c0-.276.224-.5.5-.5h4c.276 0 .5.224.5.5v1c0 .276-.224.5-.5.5zm0 8h-4c-.276 0-.5-.224-.5-.5v-1c0-.276.224-.5.5-.5h4c.276 0 .5.224.5.5v1c0 .276-.224.5-.5.5zm4 3h-8c-.276 0-.5-.224-.5-.5v-1c0-.276.224-.5.5-.5h8c.276 0 .5.224.5.5v1c0 .276-.224.5-.5.5zm0-8h-8c-.276 0-.5-.224-.5-.5v-1c0-.276.224-.5.5-.5h8c.276 0 .5.224.5.5v1c0 .276-.224.5-.5.5zM13 31h2v-2h-2v2zm3.25 2h-4.5c-.414 0-.75-.336-.75-.75v-4.5c0-.414.336-.75.75-.75h4.5c.414 0 .75.336.75.75v4.5c0 .414-.336.75-.75.75zM13 23h2v-2h-2v2zm3.25 2h-4.5c-.414 0-.75-.336-.75-.75v-4.5c0-.414.336-.75.75-.75h4.5c.414 0 .75.336.75.75v4.5c0 .414-.336.75-.75.75zM13 16.396c-.334 0-.648-.129-.884-.366l-1.47-1.469c-.195-.196-.195-.512 0-.707l.708-.708c.195-.195.511-.195.707 0l.939.94 2.939-2.94c.196-.195.512-.195.707 0l.708.708c.195.195.195.511 0 .707l-3.47 3.469c-.236.237-.55.366-.884.366zM32 35H8V7.5h5c0 .827.673 1.5 1.5 1.5h11c.827 0 1.5-.673 1.5-1.5h5V35zM15 5h3V3h4v2h3v2H15V5zm17.75-.5H27c0-.827-.673-1.5-1.5-1.5H24v-.5c0-.827-.673-1.5-1.5-1.5h-5c-.827 0-1.5.673-1.5 1.5V3h-1.5c-.827 0-1.5.673-1.5 1.5H7.25C6.009 4.5 5 5.509 5 6.75v29C5 36.991 6.009 38 7.25 38h25.5c1.241 0 2.25-1.009 2.25-2.25v-29c0-1.241-1.009-2.25-2.25-2.25z"/>
</svg>
