<svg xmlns="http://www.w3.org/2000/svg" width="40" height="40" viewBox="0 0 40 40">
    <path fill="#1C9E3B" fill-rule="evenodd" d="M33.43 22c1.213 0 2.371.48 3.23 1.34.86.855 1.34 2.02 1.34 3.232v6.856c0 1.216-.48 2.377-1.34 3.232-.859.862-2.017 1.34-3.23 1.34h-6.86c-1.21 0-2.371-.478-3.23-1.34-.858-.855-1.34-2.016-1.34-3.232v-6.856C22 24.046 24.048 22 26.57 22zm-23.328.251l.123.007c.564.06 1 .534 1 1.113l-.007.124c-.06.567-.535 1.004-1.116 1.004H6.329l.144.428c.807 2.271 2.166 4.31 3.96 5.932l.34.298c1.837 1.563 4.035 2.643 6.4 3.146l.123.034c.24.081.447.24.586.455l.063.11c.113.226.148.485.094.738l-.031.117c-.15.455-.578.772-1.064.774l-.121-.007-.118-.016-.364-.082c-5.44-1.295-9.896-5.211-11.866-10.465v4.164l-.007.123c-.06.563-.534 1-1.118 1l-.123-.006c-.563-.061-1-.537-1-1.117v-6.754l.007-.125c.03-.25.143-.488.324-.669l.094-.084c.197-.158.443-.242.698-.242h6.752zM35 27.7l-9 6.827c.343.293.794.471 1.286.473l1.384-.002L35 30.412V27.7zm-.002 4.3L31 34.998l1.952.002.164-.007c.973-.078 1.755-.833 1.868-1.793l.016-.24-.002-.96zm-2.56-7L25 30.376V33.3l10-7.527-.118-.132c-.331-.34-.778-.568-1.285-.627l-.244-.012L32.44 25zM29.7 25l-2.459.002c-1.233.003-2.237 1.066-2.239 2.378L25 28.7l4.7-3.7zM13.43 2c1.213 0 2.371.48 3.23 1.34.86.855 1.34 2.02 1.34 3.232v6.856c0 1.216-.48 2.377-1.34 3.232-.859.862-2.017 1.34-3.23 1.34H6.57c-1.21 0-2.371-.478-3.23-1.34C2.481 15.805 2 14.644 2 13.428V6.572C2 4.046 4.048 2 6.57 2zm9.606 1.467l.12.006.116.016.357.08c5.445 1.292 9.903 5.212 11.874 10.468V9.875l.006-.123c.061-.563.537-1.002 1.116-1.002l.123.006c.565.061 1.002.539 1.002 1.119v6.75l-.007.125c-.028.25-.14.49-.321.67l-.095.084c-.199.157-.445.243-.702.243h-6.747l-.123-.007c-.567-.06-1.004-.536-1.004-1.116l.006-.123c.061-.565.537-1.004 1.121-1.004h3.773l-.145-.428c-.809-2.27-2.17-4.31-3.961-5.93l-.34-.298c-1.837-1.561-4.035-2.645-6.398-3.147l-.124-.033c-.241-.08-.446-.239-.587-.453l-.063-.112c-.113-.228-.147-.487-.095-.738.11-.52.57-.889 1.098-.891zM15 7.7l-9 6.827c.343.293.794.471 1.286.473l1.384-.002L15 10.412V7.7zm-.002 4.3L11 14.998l1.952.002.164-.007c.973-.078 1.755-.833 1.868-1.793l.016-.24-.002-.96zm-2.56-7L5 10.376V13.3l10-7.527-.118-.132c-.331-.34-.778-.568-1.285-.627l-.244-.012L12.44 5zM9.7 5l-2.459.002c-1.233.003-2.237 1.066-2.239 2.378L5 8.7 9.7 5z"/>
</svg>
