<svg xmlns="http://www.w3.org/2000/svg" width="76" height="76" viewBox="0 0 76 76">
    <path fill="#1C9E3B" fill-rule="evenodd" d="M24.176 66.22c.548-1.195 1.88-1.671 3.054-1.114 3.45 1.675 6.975 2.473 10.813 2.473 3.841 0 7.443-.879 10.813-2.473 1.095-.557 2.506 0 3.054 1.115.55 1.196.08 2.55-1.096 3.108-3.997 1.915-8.306 2.871-12.771 2.871-4.465 0-8.774-.96-12.771-2.871-1.175-.558-1.644-1.912-1.096-3.108zM8.501 49.96c.159-.159.315-.081.471 0 1.334 1.037 2.978 1.594 4.78 1.594 1.803 0 3.45-.638 4.78-1.594.16-.081.316-.081.472 0 3.213 2.074 4.78 6.138 4.694 10.762 0 3.19-19.898 3.19-19.898 0 0-4.624 1.567-8.688 4.7-10.762zm48.498 0c.16-.159.316-.081.472 0 1.334 1.037 2.977 1.594 4.78 1.594 1.803 0 3.45-.638 4.78-1.594.16-.081.316-.081.472 0 3.21 2.074 4.777 6.138 4.694 10.762 0 3.19-19.898 3.19-19.898 0 0-4.624 1.566-8.688 4.7-10.762zM13.756 37.284c3.29 0 5.956 2.713 5.956 6.057 0 3.348-2.666 6.06-5.956 6.06-3.29 0-5.956-2.712-5.956-6.06 0-3.344 2.666-6.057 5.956-6.057zm48.575 0c3.29 0 5.955 2.713 5.955 6.057 0 3.348-2.665 6.06-5.955 6.06s-5.956-2.712-5.956-6.06c0-3.344 2.666-6.057 5.956-6.057zm-42.228-19.77c1.016-.798 2.507-.558 3.214.479.783 1.037.548 2.473-.472 3.27-3.76 2.871-6.659 6.695-8.382 11.16-.312.957-1.175 1.514-2.115 1.514-.315 0-.55-.078-.863-.159-1.251-.48-1.802-1.834-1.33-3.03 2.034-5.263 5.483-9.806 9.948-13.235zm32.67.475c.784-1.037 2.194-1.277 3.214-.48 4.465 3.43 7.91 7.973 9.949 13.236.471 1.195-.156 2.55-1.332 3.03-.315.078-.55.159-.863.159-.86 0-1.723-.558-2.114-1.514-1.726-4.385-4.624-8.29-8.383-11.161-1.019-.798-1.254-2.233-.47-3.27zm-19.985-1.515c.16-.159.315-.081.471 0 1.335 1.037 2.978 1.594 4.78 1.594 1.803 0 3.45-.638 4.781-1.594.16-.081.315-.081.471 0 3.134 2.074 4.701 6.138 4.701 10.762 0 3.19-19.899 3.19-19.905 0 0-4.624 1.567-8.688 4.701-10.762zM38.043 3.8C41.333 3.8 44 6.512 44 9.86c0 3.345-2.666 6.057-5.956 6.057-3.29 0-5.955-2.712-5.955-6.057 0-3.348 2.665-6.06 5.955-6.06z"/>
</svg>
