<svg xmlns="http://www.w3.org/2000/svg" width="272" height="144" viewBox="0 0 272 144">
    <g fill="none" fill-rule="evenodd">
        <path fill="#EDF4EF" d="M146.553 90H10.45C9.648 90 9 89.353 9 88.553V10.447C9 9.651 9.648 9 10.449 9h136.104c.8 0 1.447.651 1.447 1.447v78.106c0 .8-.648 1.447-1.447 1.447z"/>
        <path fill="#1C9E3B" fill-rule="nonzero" d="M149 12.237h-2.003v-1.79c0-.245-.201-.446-.445-.446V8C147.903 8 149 9.099 149 10.447v1.79zm0 7.003h-2.003v-4.002H149v4.002zm0 7.003h-2.003v-4.002H149v4.002zm0 7.003h-2.003v-4.002H149v4.002zm0 7.003h-2.003v-4.001H149v4.001zm0 7.004h-2.003V43.25H149v4.002zm0 7.003h-2.003v-4.002H149v4.002zm0 7.003h-2.003v-4.002H149v4.002zm0 7.003h-2.003V64.26H149v4.002zm0 7.004h-2.003v-4.002H149v4.002zm0 7.003h-2.003v-4.002H149v4.002zm-.302 7.462l-1.756-.963c.036-.065.055-.138.055-.215V85.27H149v3.283c0 .416-.105.82-.302 1.178zM141.037 91v-2h4.006v2h-4.006zm-7.01 0v-2h4.005v2h-4.006zm-7.012 0v-2h4.007v2h-4.007zm-7.01 0v-2h4.006v2h-4.006zm-7.011 0v-2H117v2h-4.006zm-7.01 0v-2h4.005v2h-4.006zm-7.012 0v-2h4.007v2h-4.007zm-7.01 0v-2h4.006v2h-4.006zm-7.011 0v-2h4.006v2h-4.006zm-7.01 0v-2h4.005v2H77.94zm-7.012 0v-2h4.007v2h-4.007zm-7.01 0v-2h4.006v2h-4.006zm-7.011 0v-2h4.006v2h-4.006zm-7.01 0v-2h4.005v2h-4.006zm-7.012 0v-2h4.007v2h-4.007zm-7.01 0v-2h4.006v2h-4.006zm-7.011 0v-2h4.006v2h-4.006zm-7.01 0v-2h4.005v2h-4.006zm-7.012 0v-2h4.007v2h-4.007zM8 88.153h2.003v.4c0 .247.2.446.447.446h1.389V91H10.45C9.096 91 8 89.905 8 88.553v-.4zm0-7.003h2.003v4.002H8V81.15zm0-7.003h2.003v4.002H8v-4.002zm0-7.003h2.003v4.001H8v-4.001zm0-7.004h2.003v4.002H8V60.14zm0-7.003h2.003v4.002H8v-4.002zm0-7.003h2.003v4.002H8v-4.002zm0-7.003h2.003v4.001H8v-4.001zm0-7.004h2.003v4.002H8v-4.002zm0-7.003h2.003v4.002H8v-4.002zm0-7.003h2.003v4.002H8V18.12zm0-7.003h2.003v4.002H8v-4.002zM14.573 8v2h-4.006V8h4.006zm7.01 0v2h-4.005V8h4.006zm7.011 0v2h-4.006V8h4.006zm7.011 0v2H31.6V8h4.006zm7.011 0v2H38.61V8h4.006zm7.01 0v2h-4.005V8h4.006zm7.011 0v2h-4.006V8h4.006zm7.011 0v2h-4.006V8h4.006zm7.011 0v2h-4.006V8h4.006zm7.01 0v2h-4.005V8h4.006zm7.011 0v2h-4.006V8h4.006zm7.011 0v2h-4.006V8h4.006zm7.011 0v2h-4.006V8h4.006zm7.01 0v2h-4.005V8h4.006zm7.011 0v2h-4.006V8h4.006zm7.011 0v2h-4.006V8h4.006zm7.011 0v2h-4.006V8h4.006zm7.01 0v2h-4.005V8h4.006zm7.011 0v2h-4.006V8h4.006zm5.786 0v2h-2.78V8h2.78z"/>
        <path fill="#FEFEFE" d="M116 137L255 137 255 41 116 41z"/>
        <path fill="#4F5A52" d="M252.603 41H118.397c-1.322 0-2.397 1.072-2.397 2.4v91.198c0 1.328 1.075 2.402 2.397 2.402h134.206c1.322 0 2.397-1.074 2.397-2.402V43.4c0-1.328-1.075-2.4-2.397-2.4m0 1.694c.389 0 .705.313.705.706v91.198c0 .39-.316.708-.705.708H118.397c-.389 0-.705-.317-.705-.708V43.4c0-.393.316-.706.705-.706h134.206"/>
        <path fill="#4F5A52" d="M179.359 55h-51.72c-.905 0-1.639-.818-1.639-1.83v-.34c0-1.01.734-1.83 1.64-1.83h51.719c.905 0 1.641.82 1.641 1.83v.34c0 1.012-.736 1.83-1.641 1.83M242.557 63h-52.112c-.797 0-1.445-.63-1.445-1.41V50.41c0-.78.648-1.41 1.445-1.41h52.112c.797 0 1.443.63 1.443 1.41v11.18c0 .78-.646 1.41-1.443 1.41"/>
        <path fill="#A8D869" d="M242.557 83h-52.112c-.797 0-1.445-.63-1.445-1.41V70.41c0-.78.648-1.41 1.445-1.41h52.112c.797 0 1.443.63 1.443 1.41v11.18c0 .78-.646 1.41-1.443 1.41"/>
        <path fill="#4F5A52" d="M242.559 128H128.443c-.796 0-1.443-.63-1.443-1.41v-11.18c0-.78.647-1.41 1.443-1.41H242.56c.796 0 1.441.63 1.441 1.41v11.18c0 .78-.645 1.41-1.441 1.41"/>
        <path fill="#DFE4E1" d="M212.563 108h-22.126c-.793 0-1.437-.642-1.437-1.434v-16.13c0-.792.644-1.436 1.437-1.436h22.126c.793 0 1.437.644 1.437 1.436v16.13c0 .792-.644 1.434-1.437 1.434"/>
        <path fill="#1C9E3B" d="M242.563 108h-22.126c-.796 0-1.437-.642-1.437-1.434v-16.13c0-.792.641-1.436 1.437-1.436h22.126c.793 0 1.437.644 1.437 1.436v16.13c0 .792-.644 1.434-1.437 1.434"/>
        <path fill="#4F5A52" d="M179.359 63h-51.72c-.905 0-1.639-.819-1.639-1.83v-.342c0-1.01.734-1.828 1.64-1.828h51.719c.905 0 1.641.819 1.641 1.828v.341c0 1.012-.736 1.831-1.641 1.831M179.557 108h-52.112c-.797 0-1.445-.639-1.445-1.427V70.427c0-.786.648-1.427 1.445-1.427h52.112c.799 0 1.443.64 1.443 1.427v36.146c0 .788-.644 1.427-1.443 1.427"/>
        <path fill="#FEFEFE" d="M151.712 80.346l-.002 21.299c0 .195-.162.355-.36.355h-6.524c-.2 0-.362-.16-.362-.355v-4.602c0-.198-.16-.355-.359-.355h-2.5c-.199 0-.359.157-.359.355v4.602c0 .195-.164.355-.362.355h-6.523c-.2 0-.361-.16-.361-.355v-21.3c0-.197.162-.355.36-.355h16.991c.2 0 .361.158.361.356M173 74.357l-.002 27.288c0 .195-.16.355-.36.355h-6.524c-.198 0-.36-.16-.36-.355V97.03c0-.198-.162-.355-.361-.355h-2.498c-.2 0-.36.157-.36.355v4.614c0 .195-.163.355-.363.355h-6.523c-.2 0-.361-.16-.361-.355V74.357c0-.195.162-.357.36-.357h16.991c.2 0 .361.162.361.357m-33.725 17.574h-2.498c-.199 0-.36.158-.36.355v2.46c0 .195.161.357.36.357h2.498c.199 0 .36-.162.36-.357v-2.46c0-.197-.161-.355-.36-.355m4.832 0h-2.5c-.199 0-.36.158-.36.355v2.46c0 .195.161.357.36.357h2.5c.199 0 .359-.162.359-.357v-2.46c0-.197-.16-.355-.359-.355m4.83 0h-2.5c-.199 0-.36.158-.36.355v2.46c0 .195.161.357.36.357h2.5c.199 0 .359-.162.359-.357v-2.46c0-.197-.16-.355-.359-.355m11.626-.022h-2.498c-.199 0-.36.157-.36.353v2.467c0 .198.161.356.36.356h2.498c.2 0 .363-.158.363-.356v-2.467c0-.196-.162-.353-.363-.353m4.832 0h-2.498c-.2 0-.363.157-.363.353v2.467c0 .198.162.356.363.356h2.498c.199 0 .36-.158.36-.356v-2.467c0-.196-.161-.353-.36-.353m4.83 0h-2.5c-.199 0-.358.157-.358.353v2.467c0 .198.16.356.358.356h2.5c.199 0 .359-.158.359-.356v-2.467c0-.196-.16-.353-.359-.353m-30.95-4.733h-2.498c-.199 0-.36.16-.36.356v2.459c0 .196.161.355.36.355h2.498c.199 0 .36-.16.36-.355v-2.46c0-.195-.161-.355-.36-.355m4.832 0h-2.5c-.199 0-.36.16-.36.356v2.459c0 .196.161.355.36.355h2.5c.199 0 .359-.16.359-.355v-2.46c0-.195-.16-.355-.359-.355m4.83 0h-2.5c-.199 0-.36.16-.36.356v2.459c0 .196.161.355.36.355h2.5c.199 0 .359-.16.359-.355v-2.46c0-.195-.16-.355-.359-.355m11.626-.036h-2.498c-.199 0-.36.16-.36.355v2.468c0 .195.161.353.36.353h2.498c.2 0 .363-.158.363-.353v-2.468c0-.196-.162-.355-.363-.355m4.832 0h-2.498c-.2 0-.363.16-.363.355v2.468c0 .195.162.353.363.353h2.498c.199 0 .36-.158.36-.353v-2.468c0-.196-.161-.355-.36-.355m4.83 0h-2.5c-.199 0-.358.16-.358.355v2.468c0 .195.16.353.358.353h2.5c.199 0 .359-.158.359-.353v-2.468c0-.196-.16-.355-.359-.355m-30.95-4.72h-2.498c-.199 0-.36.157-.36.357v2.459c0 .196.161.355.36.355h2.498c.199 0 .36-.16.36-.355v-2.46c0-.2-.161-.357-.36-.357m4.832 0h-2.5c-.199 0-.36.158-.36.358v2.459c0 .196.161.355.36.355h2.5c.199 0 .359-.16.359-.355v-2.46c0-.2-.16-.357-.359-.357m4.83 0h-2.5c-.199 0-.36.158-.36.358v2.459c0 .196.161.355.36.355h2.5c.199 0 .359-.16.359-.355v-2.46c0-.2-.16-.357-.359-.357m11.626-.046h-2.498c-.199 0-.36.16-.36.355v2.468c0 .195.161.355.36.355h2.498c.2 0 .363-.16.363-.355v-2.468c0-.196-.162-.355-.363-.355m4.832 0h-2.498c-.2 0-.363.16-.363.355v2.468c0 .195.162.355.363.355h2.498c.199 0 .36-.16.36-.355v-2.468c0-.196-.161-.355-.36-.355m4.83 0h-2.5c-.199 0-.358.16-.358.355v2.468c0 .195.16.355.358.355h2.5c.199 0 .359-.16.359-.355v-2.468c0-.196-.16-.355-.359-.355m-9.662-4.662h-2.498c-.199 0-.36.157-.36.355v2.47c0 .191.161.355.36.355h2.498c.2 0 .363-.164.363-.355v-2.47c0-.198-.162-.355-.363-.355m4.832 0h-2.498c-.2 0-.363.157-.363.355v2.47c0 .191.162.355.363.355h2.498c.199 0 .36-.164.36-.355v-2.47c0-.198-.161-.355-.36-.355m4.83 0h-2.5c-.199 0-.358.157-.358.355v2.47c0 .191.16.355.358.355h2.5c.199 0 .359-.164.359-.355v-2.47c0-.198-.16-.355-.359-.355"/>
        <path fill="#1C9E3B" d="M90.944 63H66.022c-1.12-.01-2.022-.913-2.022-2.024V50.401h2.72v9.9h23.563v-9.9H93v10.575c0 .54-.217 1.055-.604 1.439-.386.376-.908.591-1.452.585zm-7.078-17.153l-4.025 3.993V36h-2.717v13.84l-4.062-3.993-1.921 1.906 7.36 7.253 7.25-7.253-1.885-1.906z"/>
        <g>
            <path fill="#FEFEFE" d="M25.769 10.736l-5.533-8.754C19.251.423 17.796-.156 16.14.564c-.845.506-1.01.873-1.275 1.481C13.847.597 11.86.19 10.35 1.143c-.65.413-1.111 1.012-1.354 1.683-1.081-.87-2.642-1.005-3.88-.222-1.369.863-1.893 2.568-1.328 4.027-.688-.035-1.367.14-1.959.512C.273 8.128-.194 10.191.79 11.75l1.775 2.807-.582 2.577c-.803 3.562 1.443 7.116 5.007 7.92l7.076 1.597c2.11.473 4.278.102 6.108-1.055l3.113-1.967c2.17-1.375 3.168-3.129 3.735-5.636.566-2.507.12-5.088-1.252-7.256" transform="translate(236 31)"/>
            <path fill="#222" d="M22.5 22.384l-3.11 1.966c-1.498.947-3.275 1.25-5 .863l-7.077-1.597c-2.773-.624-4.519-3.388-3.895-6.16l.257-1.141 1.275 2.021c.217.343.674.445 1.016.229.172-.11.282-.278.325-.465.04-.18.014-.38-.096-.551l-4.162-6.585c-.265-.422-.35-.922-.24-1.408.108-.483.401-.9.822-1.165.842-.534 2.042-.263 2.574.58l1.381 2.185c.216.342.671.444 1.014.224.171-.104.284-.273.326-.457.041-.184.013-.383-.095-.557L5.322 6.423c-.55-.87-.29-2.024.581-2.575.87-.548 2.024-.291 2.575.58l2.492 3.947c.217.343.672.447 1.014.229.174-.113.284-.278.325-.462.043-.183.014-.383-.094-.556l-1.659-2.624c-.265-.42-.353-.92-.242-1.405.11-.488.401-.902.824-1.17.869-.546 2.025-.287 2.574.58l1.659 2.628c.216.34.673.444 1.016.228.171-.11.283-.277.324-.461.04-.188.014-.384-.096-.555l-.267-.424c-.849-1.265-.549-1.846.322-2.397 1.03-.7 1.791-.061 2.324.783l5.532 8.754c1.161 1.838 1.538 4.019 1.061 6.142-.48 2.126-1.248 3.558-3.086 4.719m3.268-11.649l-5.533-8.753C19.251.423 17.796-.156 16.14.564c-.845.506-1.01.873-1.275 1.48C13.847.598 11.86.19 10.35 1.145c-.65.411-1.11 1.011-1.354 1.682-1.081-.87-2.642-1.005-3.88-.222-1.37.867-1.894 2.568-1.328 4.027-.688-.035-1.367.14-1.959.512C.273 8.128-.195 10.19.79 11.749l1.775 2.807-.582 2.577c-.804 3.562 1.442 7.115 5.006 7.92l7.077 1.596c2.11.474 4.278.102 6.108-1.054l3.113-1.967c2.17-1.37 3.168-3.13 3.735-5.636.565-2.508.12-5.086-1.252-7.257" transform="translate(236 31)"/>
            <path stroke="#222" stroke-width=".25" d="M22.5 22.384l-3.11 1.966c-1.498.947-3.275 1.25-5 .863l-7.077-1.597c-2.773-.624-4.519-3.388-3.895-6.16l.257-1.141 1.275 2.021c.217.343.674.445 1.016.229.172-.11.282-.278.325-.465.04-.18.014-.38-.096-.551l-4.162-6.585c-.265-.422-.35-.922-.24-1.408.108-.483.401-.9.822-1.165.842-.534 2.042-.263 2.574.58l1.381 2.185c.216.342.671.444 1.014.224.171-.104.284-.273.326-.457.041-.184.013-.383-.095-.557L5.322 6.423c-.55-.87-.29-2.024.581-2.575.87-.548 2.024-.291 2.575.58l2.492 3.947c.217.343.672.447 1.014.229.174-.113.284-.278.325-.462.043-.183.014-.383-.094-.556l-1.659-2.624c-.265-.42-.353-.92-.242-1.405.11-.488.401-.902.824-1.17.869-.546 2.025-.287 2.574.58l1.659 2.628c.216.34.673.444 1.016.228.171-.11.283-.277.324-.461.04-.188.014-.384-.096-.555l-.267-.424c-.849-1.265-.549-1.846.322-2.397 1.03-.7 1.791-.061 2.324.783l5.532 8.754c1.161 1.838 1.538 4.019 1.061 6.142-.48 2.126-1.248 3.558-3.086 4.719zm3.269-11.649l-5.533-8.753C19.251.423 17.796-.156 16.14.564c-.845.506-1.01.873-1.275 1.48C13.847.598 11.86.19 10.35 1.145c-.65.411-1.11 1.011-1.354 1.682-1.081-.87-2.642-1.005-3.88-.222-1.37.867-1.894 2.568-1.328 4.027-.688-.035-1.367.14-1.959.512C.273 8.128-.195 10.19.79 11.749l1.775 2.807-.582 2.577c-.804 3.562 1.442 7.115 5.006 7.92l7.077 1.596c2.11.474 4.278.102 6.108-1.054l3.113-1.967c2.17-1.37 3.168-3.13 3.735-5.636.565-2.508.12-5.086-1.252-7.257z" transform="translate(236 31)"/>
        </g>
        <path fill="#FF7000" d="M105 126.217l-2.503.485c-.06.012-1.559.298-3.936.298-5.237 0-15.196-1.408-23.012-10.793-.233-.248-5.558-6.082-5.468-18.473H59.426c-.552 0-1-.448-1-1 0-.266.106-.522.295-.71L78.177 76.7c.39-.387 1.02-.387 1.41 0l19.456 19.324c.392.39.394 1.023.005 1.415-.188.189-.443.295-.71.295H87.497c-.53 3.376-1.525 17.175 15.314 27.18l2.189 1.303z"/>
    </g>
</svg>
