<svg xmlns="http://www.w3.org/2000/svg" xmlns:xlink="http://www.w3.org/1999/xlink" width="200" height="100" viewBox="0 0 200 100">
    <defs>
        <path id="prefix__a" d="M2.272 15.375c-.082.035-.11.102-.123.15-.008.05-.007.12.057.182l2.996 3.007c.392.395.392 1.033 0 1.426l-3.38 3.066c-.553.55-.553 1.45-.004 2.002.535.537 1.464.537 1.998 0l3.383-3.066c.391-.392 1.029-.392 1.418 0l2.997 3.007c.04.038.088.06.142.06.032 0 .14-.009.192-.125l6.91-16.642-16.586 6.933z"/>
    </defs>
    <g fill="none" fill-rule="evenodd">
        <path fill="#FFF" d="M0 0H200V100H0z"/>
        <g transform="translate(10 28)">
            <path fill="#475059" d="M51.84 0C53.033 0 54 .895 54 2v33c0 1.105-.967 2-2.16 2H2.16C.967 37 0 36.105 0 35V2C0 .895.967 0 2.16 0h49.68zm0 1.8H2.16c-.1 0-.183.062-.208.147L1.944 2v33c0 .092.067.17.159.193l.057.007h49.68c.1 0 .183-.062.208-.147l.008-.053V2c0-.092-.067-.17-.159-.193L51.84 1.8z"/>
            <path fill="#4D4F58" d="M45.5 9.1c.497 0 .9.403.9.9 0 .459-.343.837-.787.893l-.113.007h-16c-.497 0-.9-.403-.9-.9 0-.459.343-.837.787-.893L29.5 9.1h16z"/>
            <rect width="17" height="12" x="8" y="9" fill="#93C256" rx="1"/>
            <rect width="38" height="6" x="8" y="24" fill="#C8CFCA" rx="1"/>
            <path fill="#4D4F58" d="M45.5 14.1c.497 0 .9.403.9.9 0 .459-.343.837-.787.893l-.113.007h-16c-.497 0-.9-.403-.9-.9 0-.459.343-.837.787-.893l.113-.007h16zM45.5 19.1c.497 0 .9.403.9.9 0 .459-.343.837-.787.893l-.113.007h-16c-.497 0-.9-.403-.9-.9 0-.459.343-.837.787-.893l.113-.007h16z"/>
        </g>
        <path fill="#DFE4E1" d="M61.84 72c1.193 0 2.16.895 2.16 2v16h-1.944V74c0-.092-.067-.17-.159-.193l-.057-.007H12.16c-.1 0-.183.062-.208.147l-.008.053v16H10V74c0-1.105.967-2 2.16-2h49.68zM124.84 72c1.193 0 2.16.895 2.16 2v16h-1.944V74c0-.092-.067-.17-.159-.193l-.057-.007H75.16c-.1 0-.183.062-.208.147l-.008.053v16H73V74c0-1.105.967-2 2.16-2h49.68zM187.84 72c1.193 0 2.16.895 2.16 2v16h-1.944V74c0-.092-.067-.17-.159-.193l-.057-.007h-49.68c-.1 0-.183.062-.208.147l-.008.053v16H136V74c0-1.105.967-2 2.16-2h49.68zM61.84 20c1.193 0 2.16-.895 2.16-2v-8h-1.944v8c0 .092-.067.17-.159.193l-.057.007H12.16c-.1 0-.183-.062-.208-.147L11.944 18v-8H10v8c0 1.105.967 2 2.16 2h49.68zM124.84 20c1.193 0 2.16-.895 2.16-2v-8h-1.944v8c0 .092-.067.17-.159.193l-.057.007H75.16c-.1 0-.183-.062-.208-.147L74.944 18v-8H73v8c0 1.105.967 2 2.16 2h49.68zM187.84 20c1.193 0 2.16-.895 2.16-2v-8h-1.944v8c0 .092-.067.17-.159.193l-.057.007h-49.68c-.1 0-.183-.062-.208-.147l-.008-.053v-8H136v8c0 1.105.967 2 2.16 2h49.68z"/>
        <g transform="translate(73 28)">
            <path fill="#475059" d="M51.84 0C53.033 0 54 .895 54 2v33c0 1.105-.967 2-2.16 2H2.16C.967 37 0 36.105 0 35V2C0 .895.967 0 2.16 0h49.68zm0 1.8H2.16c-.1 0-.183.062-.208.147L1.944 2v33c0 .092.067.17.159.193l.057.007h49.68c.1 0 .183-.062.208-.147l.008-.053V2c0-.092-.067-.17-.159-.193L51.84 1.8z"/>
            <path fill="#4D4F58" d="M45.9 9.1c.497 0 .9.403.9.9 0 .459-.343.837-.787.893l-.113.007h-9c-.497 0-.9-.403-.9-.9 0-.459.343-.837.787-.893L36.9 9.1h9z"/>
            <rect width="40" height="6" x="7" y="24" fill="#FF7000" rx="1"/>
            <path fill="#4D4F58" d="M45.9 14.1c.497 0 .9.403.9.9 0 .459-.343.837-.787.893l-.113.007h-9c-.497 0-.9-.403-.9-.9 0-.459.343-.837.787-.893l.113-.007h9zM45.859 19.1c.52 0 .941.403.941.9 0 .459-.36.837-.823.893l-.118.007H24.94c-.52 0-.941-.403-.941-.9 0-.459.36-.837.823-.893l.118-.007H45.86z"/>
            <rect width="13" height="12" x="7" y="9" fill="#C8CFCA" rx="1"/>
            <rect width="10" height="7" x="24" y="9" fill="#C8CFCA" rx="1"/>
        </g>
        <g transform="translate(136 28)">
            <path fill="#475059" d="M51.84 0C53.033 0 54 .895 54 2v33c0 1.105-.967 2-2.16 2H2.16C.967 37 0 36.105 0 35V2C0 .895.967 0 2.16 0h49.68zm0 1.8H2.16c-.1 0-.183.062-.208.147L1.944 2v33c0 .092.067.17.159.193l.057.007h49.68c.1 0 .183-.062.208-.147l.008-.053V2c0-.092-.067-.17-.159-.193L51.84 1.8z"/>
            <rect width="40" height="6" x="7" y="24" fill="#1C9E3B" rx="1"/>
            <path fill="#4D4F58" d="M45.9 19c.497 0 .9.403.9.9 0 .459-.343.837-.787.893l-.113.007h-16c-.497 0-.9-.403-.9-.9 0-.459.343-.837.787-.893L29.9 19h16zm-22 0c.497 0 .9.403.9.9 0 .459-.343.837-.787.893l-.113.007h-16c-.497 0-.9-.403-.9-.9 0-.459.343-.837.787-.893L7.9 19h16zm22-5c.497 0 .9.403.9.9 0 .459-.343.837-.787.893l-.113.007h-16c-.497 0-.9-.403-.9-.9 0-.459.343-.837.787-.893L29.9 14h16zm-22 0c.497 0 .9.403.9.9 0 .459-.343.837-.787.893l-.113.007h-16c-.497 0-.9-.403-.9-.9 0-.459.343-.837.787-.893L7.9 14h16zm22-5c.497 0 .9.403.9.9 0 .459-.343.837-.787.893l-.113.007h-16c-.497 0-.9-.403-.9-.9 0-.459.343-.837.787-.893L29.9 9h16zm-22 0c.497 0 .9.403.9.9 0 .459-.343.837-.787.893l-.113.007h-16c-.497 0-.9-.403-.9-.9 0-.459.343-.837.787-.893L7.9 9h16z"/>
        </g>
        <g transform="translate(23 14)">
            <circle cx="14" cy="14" r="14" fill="#FF7000"/>
            <path fill="#FFF" d="M18.959 10.382c-.602-.633-1.437-.99-2.31-.987-.9 0-1.76.37-2.38 1.024l-.269.265-.269-.276c-.62-.65-1.481-1.017-2.38-1.013-.873-.003-1.708.354-2.31.987-1.264 1.366-1.246 3.479.04 4.823l4.521 4.69c.104.108.248.169.398.169.15 0 .294-.061.398-.17l4.52-4.69c1.287-1.343 1.305-3.456.04-4.822z"/>
        </g>
        <g transform="translate(78 34)">
            <circle cx="22" cy="22" r="22" fill="#FF7000"/>
            <path fill="#FFF" d="M28.73 17.09c-.816-.859-1.95-1.343-3.135-1.34-1.222 0-2.39.503-3.23 1.39L22 17.5l-.365-.375c-.842-.883-2.01-1.38-3.23-1.375-1.185-.003-2.319.481-3.135 1.34-1.715 1.853-1.69 4.721.055 6.545L21.46 30c.141.147.336.23.54.23.204 0 .399-.083.54-.23l6.135-6.365c1.746-1.824 1.77-4.692.055-6.545z"/>
        </g>
        <g transform="translate(149 14)">
            <circle cx="14" cy="14" r="13.35" fill="#FFF" stroke="#FF7000" stroke-width="1.3"/>
            <path fill="#FF7000" d="M14 20.079c-.152-.004-.296-.071-.398-.184l-4.52-4.69c-1.287-1.344-1.305-3.457-.04-4.823.6-.633 1.436-.99 2.31-.987.9 0 1.761.372 2.38 1.028l.268.261.269-.28c.622-.648 1.482-1.012 2.38-1.01.873-.002 1.708.355 2.31.988 1.264 1.366 1.246 3.479-.04 4.823l-4.521 4.69c-.102.113-.246.18-.398.184zM11.351 10.5c-.57-.002-1.117.231-1.51.645-.86.935-.843 2.377.036 3.293L14 18.727l4.123-4.289c.88-.916.896-2.358.036-3.293-.393-.414-.94-.647-1.51-.645-.6.002-1.172.25-1.584.685l-.67.697c-.105.107-.249.169-.399.17-.15-.001-.293-.063-.398-.17l-.663-.697c-.412-.436-.984-.683-1.584-.685z"/>
        </g>
        <g transform="translate(68 58)">
            <path fill="#FFF" d="M18.958 7.109l-17.68 7.366c-.64.268-1.103.832-1.239 1.515-.134.68.08 1.38.57 1.871l2.143 2.145-1.74 1.737c-1.249 1.252-1.249 3.291 0 4.541 1.216 1.212 3.329 1.212 4.543 0l1.738-1.738 2.145 2.144c.394.393.915.61 1.466.61.844 0 1.596-.503 1.92-1.279L20.193 8.34c.147-.351.064-.757-.204-1.027-.18-.182-.422-.278-.666-.278-.125 0-.246.024-.364.074zM23.394 2.767l-2.05 2.05c-.315.315-.315.824 0 1.137.157.158.362.237.568.237.206 0 .412-.079.57-.237l2.049-2.05c.314-.313.314-.824 0-1.137-.157-.156-.363-.235-.569-.235-.204 0-.412.079-.568.235zM11.346 4.08c-.206.373-.04.83.372 1.02l2.836 1.293c.121.053.247.079.374.079.305 0 .6-.154.744-.422.206-.373.04-.83-.372-1.019l-2.836-1.293c-.12-.056-.246-.081-.37-.081-.307.001-.603.154-.748.423zM21.248 11.626c-.376.206-.53.706-.34 1.118l1.291 2.836c.134.292.401.46.68.46.117 0 .232-.028.34-.087.376-.206.53-.705.34-1.117L22.269 12c-.131-.292-.4-.462-.68-.462-.114 0-.232.029-.34.088zM16.397.014c-.428.088-.708.516-.622.954l.671 3.445c.077.387.407.652.778.652.05 0 .1-.005.155-.016.428-.088.705-.514.618-.953L17.324.65c-.073-.383-.399-.65-.77-.65-.05 0-.105.003-.157.014zM22.25 9.922c-.087.428.197.843.634.93l3.446.67c.054.01.105.016.16.016.378 0 .717-.258.793-.635.088-.427-.196-.843-.634-.928l-3.447-.672c-.054-.011-.109-.016-.163-.016-.38 0-.714.26-.789.635z"/>
            <use fill="#4D4F58" xlink:href="#prefix__a"/>
        </g>
    </g>
</svg>
