<svg xmlns="http://www.w3.org/2000/svg" width="147" height="36" viewBox="0 0 147 36">
    <g fill="none" fill-rule="nonzero">
        <path fill="#FFF" d="M12.013 0c-1.158.046-1.653.664-1.49 1.855 3.03 10.806 9.822 10.255 9.905 10.29-.404-1.866-.306-2.935.166-4.468-2.238-1.318-4.274-2.726-6.11-4.227a44.218 44.218 0 0 1 6.25 3.575c.514-1.114.656-1.765 1.772-3.155C19.772 1.29 16.324 0 12.16 0h-.148zm13.25 2.377c-6.413 9.178-1.714 14.156-1.69 14.245 1.182-1.491 2.069-2.087 3.545-2.684a49.43 49.43 0 0 1-.59-7.451c.59 2.384.983 4.77 1.18 7.154 1.182-.298 1.773-.596 3.544-.596.27-3.813-.938-7.37-3.624-10.668-.382-.44-.769-.659-1.163-.659s-.795.22-1.201.659zM.403 10.945c-.677.947-.499 1.723.532 2.326 10.301 4.242 14.05-1.498 14.129-1.544-1.704-.826-2.479-1.563-3.385-2.881a48.225 48.225 0 0 1-7.06 2.257 44.029 44.029 0 0 1 6.64-2.771c-.556-1.095-.975-1.609-1.375-3.351-3.741.592-6.901 2.58-9.481 5.964zm1.191 15.888c.305 1.127 1.012 1.476 2.126 1.046 9.75-5.41 7.689-11.964 7.705-12.054-1.71.817-2.765.96-4.351.842a49.104 49.104 0 0 1-2.706 6.96 45.214 45.214 0 0 1 2.045-6.953c-1.19-.255-1.85-.248-3.443-1.032C1.07 18.949.612 22.68 1.593 26.833zm8.595-1.642a49.217 49.217 0 0 1 3.767 6.436 44.804 44.804 0 0 1-4.17-5.906c-.932.79-1.332 1.32-2.925 2.103 1.413 3.547 4.044 6.209 7.89 7.985 1.067.452 1.775.103 2.125-1.046 1.779-11.087-4.606-13.483-4.668-13.551-.414 1.863-.95 2.79-2.02 3.98zm6.796-1.293c1.171 1.497 1.548 2.503 1.79 4.09 2.584.193 5.025.558 7.327 1.094a43.808 43.808 0 0 1-7.17-.447c.02 1.229.176 1.877-.222 3.618 3.62 1.123 7.323.736 11.112-1.163 1.02-.553 1.197-1.328.533-2.325-4.038-4.559-7.614-5.598-10.05-5.598-2.04 0-3.279.73-3.32.731z"/>
        <path fill="#8FDE29" d="M22.03 21.931c1.89-.011 2.906.308 4.295 1.091a48.858 48.858 0 0 1 5.366-5.153 44.633 44.633 0 0 1-4.764 5.429c.973.739 1.574 1.014 2.69 2.404 3.103-2.188 5.081-5.373 5.931-9.555.197-1.152-.3-1.77-1.488-1.856-11.102.744-11.978 7.564-12.03 7.64z"/>
        <path fill="#FFF" d="M63.859 9.424H48.337v7.83h14.307v2.479H48.337v9.946h-2.43V7h17.952v2.424zm17.38 13.596c0 4.403-2.79 6.66-7.291 6.66h-1.823c-4.723 0-7.347-2.257-7.347-6.66v-3.872c0-4.263 2.707-6.687 7.347-6.687h1.823c4.28 0 7.291 2.229 7.291 6.687v3.872zm-2.43-.195v-3.454c0-3.177-1.906-4.486-5.11-4.486h-1.326c-3.452 0-5.192 1.42-5.192 4.486v3.454c0 3.177 1.933 4.458 5.192 4.458H73.7c3.204 0 5.11-1.253 5.11-4.458zm16.773-7.912h-4.42c-3.673 0-5.468 1.783-5.468 4.068v10.698H83.29V12.49h2.403v2.2c1.022-1.28 2.651-2.2 5.469-2.2h4.419v2.424zm17.601 7.077H98.628v.78c0 3.399 1.933 4.653 5.137 4.653h1.988c3.315 0 4.502-.808 4.917-2.508h2.43c-.525 3.01-2.458 4.764-7.347 4.764h-1.988c-5.248 0-7.54-2.73-7.54-6.965v-3.316c0-4.457 3.038-6.881 7.54-6.881h1.878c4.916 0 7.54 2.229 7.54 7.02v2.453zm-2.403-1.895v-.557c0-3.539-1.878-4.737-5.137-4.737h-1.878c-2.983 0-5.137 1.254-5.137 4.597v.697h12.152zm20.391 5.21c0 2.786-1.795 4.402-6.822 4.402h-2.845c-5.965 0-6.877-2.507-6.877-5.572h2.486c0 2.062.718 3.371 4.833 3.371h2.072c3.314 0 4.557-.668 4.557-2.34v-.585c0-2.257-1.491-2.759-6.352-2.786-5.027-.056-7.32-1.115-7.32-4.319v-.836c0-2.48 1.989-4.235 6.905-4.235h2.458c5.027 0 6.519 1.923 6.519 5.015h-2.514c0-2.145-1.408-2.814-4.336-2.814h-1.906c-3.342 0-4.53.948-4.53 2.257v.474c0 1.839 1.023 2.48 5.966 2.563 5.441.084 7.706.892 7.706 4.57v.835zm15.116-10.392h-7.43v9.278c0 2.535.69 3.037 3.287 3.037h3.563v2.424h-3.95c-3.922 0-5.303-1.17-5.303-4.988v-9.751h-4.115v-2.424h4.115V8.393h2.403v4.096h7.43v2.424z"/>
    </g>
</svg>
