<svg xmlns="http://www.w3.org/2000/svg" width="229" height="56" viewBox="0 0 229 56">
    <g fill="none" fill-rule="nonzero">
        <path fill="#009E3B" d="M18.725 0c-1.804.072-2.576 1.033-2.322 2.886 4.724 16.809 15.31 15.951 15.438 16.005-.628-2.9-.476-4.564.26-6.95-3.488-2.05-6.663-4.24-9.524-6.574a68.96 68.96 0 0 1 9.742 5.561c.8-1.733 1.023-2.746 2.761-4.908C30.82 2.007 25.445 0 18.956 0h-.23zM39.38 3.697c-9.996 14.277-2.673 22.021-2.633 22.16 1.84-2.32 3.223-3.248 5.523-4.175-.614-4.018-.918-7.882-.918-11.592a70.547 70.547 0 0 1 1.839 11.13c1.842-.464 2.763-.928 5.524-.928.42-5.93-1.463-11.463-5.65-16.595-.594-.683-1.197-1.024-1.812-1.024-.614 0-1.239.34-1.873 1.024zM.626 17.025c-1.054 1.473-.777 2.68.83 3.618 16.057 6.6 21.902-2.33 22.023-2.401-2.655-1.285-3.864-2.431-5.276-4.481-3.75 1.506-7.419 2.676-11.005 3.51a68.707 68.707 0 0 1 10.35-4.31c-.866-1.703-1.52-2.503-2.142-5.213-5.832.922-10.758 4.014-14.78 9.277zm1.857 24.716c.475 1.752 1.578 2.296 3.315 1.627 15.196-8.417 11.984-18.611 12.009-18.751-2.665 1.27-4.31 1.492-6.783 1.31-1.196 3.885-2.601 7.49-4.217 10.825a70.224 70.224 0 0 1 3.188-10.815c-1.855-.396-2.885-.386-5.367-1.605C1.668 29.476.954 35.279 2.483 41.74zm13.397-2.555c2.3 3.34 4.256 6.677 5.871 10.012a69.694 69.694 0 0 1-6.498-9.188c-1.453 1.23-2.077 2.054-4.56 3.272 2.202 5.517 6.303 9.658 12.3 12.42 1.66.703 2.766.162 3.31-1.627 2.774-17.246-7.178-20.973-7.275-21.08-.646 2.9-1.483 4.342-3.148 6.191zm10.593-2.01c1.827 2.328 2.414 3.892 2.792 6.36 4.027.302 7.832.869 11.42 1.703-3.794.07-7.52-.162-11.177-.696.032 1.912.274 2.92-.345 5.629 5.642 1.747 11.414 1.144 17.32-1.81 1.59-.86 1.865-2.065.83-3.617-6.293-7.09-11.867-8.707-15.665-8.707-3.178 0-5.11 1.134-5.175 1.137z"/>
        <path fill="#8FDE29" d="M34.34 34.115c2.946-.018 4.53.48 6.694 1.697 2.714-3.01 5.502-5.681 8.364-8.017a69.472 69.472 0 0 1-7.426 8.446c1.517 1.15 2.453 1.578 4.192 3.74 4.838-3.403 7.921-8.357 9.246-14.864.307-1.792-.467-2.753-2.32-2.886-17.304 1.157-18.67 11.766-18.75 11.884z"/>
        <path fill="#505050" d="M99.539 14.66H75.344v12.178h22.3v3.857h-22.3v15.473h-3.788v-35.28h27.983v3.772zm27.092 21.15c0 6.847-4.349 10.358-11.366 10.358h-2.841c-7.362 0-11.452-3.51-11.452-10.358v-6.025c0-6.63 4.219-10.401 11.452-10.401h2.841c6.673 0 11.366 3.467 11.366 10.401v6.025zm-3.789-.304v-5.374c0-4.94-2.97-6.978-7.964-6.978h-2.067c-5.381 0-8.094 2.21-8.094 6.978v5.374c0 4.941 3.014 6.935 8.094 6.935h2.067c4.994 0 7.964-1.95 7.964-6.935zm26.145-12.308h-6.889c-5.725 0-8.524 2.773-8.524 6.327v16.643h-3.745V19.427h3.745v3.424c1.593-1.994 4.133-3.424 8.524-3.424h6.889v3.77zm27.436 11.008h-22.688v1.214c0 5.287 3.013 7.237 8.007 7.237h3.1c5.166 0 7.017-1.256 7.663-3.9h3.789c-.818 4.68-3.832 7.411-11.452 7.411h-3.1c-8.18 0-11.753-4.247-11.753-10.835v-5.158c0-6.934 4.736-10.705 11.753-10.705h2.928c7.663 0 11.753 3.468 11.753 10.922v3.814zm-3.746-2.947v-.867c0-5.504-2.927-7.368-8.007-7.368h-2.928c-4.65 0-8.007 1.95-8.007 7.151v1.084h18.942zm31.784 8.105c0 4.334-2.798 6.847-10.633 6.847h-4.435c-9.299 0-10.72-3.9-10.72-8.668h3.875c0 3.207 1.12 5.244 7.534 5.244h3.23c5.165 0 7.103-1.04 7.103-3.64v-.91c0-3.51-2.325-4.291-9.902-4.334-7.836-.087-11.409-1.734-11.409-6.718v-1.3c0-3.858 3.1-6.588 10.763-6.588h3.832c7.835 0 10.16 2.99 10.16 7.801h-3.918c0-3.337-2.196-4.377-6.759-4.377h-2.97c-5.21 0-7.061 1.473-7.061 3.51v.737c0 2.86 1.593 3.857 9.3 3.987 8.48.13 12.01 1.387 12.01 7.108v1.3zm23.562-16.166h-11.58V37.63c0 3.944 1.075 4.724 5.122 4.724h5.554v3.77h-6.157c-6.113 0-8.265-1.82-8.265-7.757v-15.17h-6.415v-3.77h6.415v-6.371h3.745v6.37h11.58v3.772z"/>
    </g>
</svg>
