<svg width="746" height="132" viewBox="0 0 746 132" fill="none" xmlns="http://www.w3.org/2000/svg">
<path fill-rule="evenodd" clip-rule="evenodd" d="M38.6839 6.80337C38.0843 2.43551 39.9043 0.169133 44.1608 0H44.7055C60.0086 0 72.6809 4.7315 82.731 14.1903C79.4851 18.2237 78.4806 20.5613 77.2665 23.3867C76.9469 24.1304 76.6128 24.9079 76.2195 25.7589C69.0156 20.8245 61.3599 16.4524 53.2438 12.6511C59.9917 18.1522 67.4786 23.315 75.7044 28.148C73.9688 33.7716 73.6099 37.6913 75.0921 44.5285C75.0759 44.5217 74.9902 44.5211 74.8406 44.5199C72.1744 44.4989 49.2316 44.3179 38.6839 6.80337ZM86.5011 60.7371C84.8156 58.6011 70.5696 40.5469 92.8694 8.71449C94.3642 7.1035 95.838 6.30012 97.2864 6.30012C98.7347 6.30012 100.158 7.1035 101.56 8.71449C111.432 20.8117 115.875 33.8519 114.882 47.8307C109.738 47.8307 107.303 48.5143 104.365 49.3394L104.364 49.3394C103.584 49.5586 102.767 49.7878 101.855 50.0168C101.129 41.2768 99.6849 32.5284 97.5186 23.7842C97.5186 32.5284 98.2365 41.6362 99.6849 51.1077C94.2587 53.2937 90.9987 55.4798 86.6578 60.947C86.6528 60.9294 86.5977 60.8595 86.5016 60.7378L86.5014 60.7376L86.5012 60.7373L86.5011 60.7371ZM1.47728 40.1309C-1.00989 43.6024 -0.355371 46.448 3.4324 48.6595C39.3121 63.3982 53.5698 45.2775 55.2131 43.1889C55.3042 43.0731 55.3566 43.0066 55.3717 42.9977C49.1094 39.9702 46.2591 37.2683 42.9274 32.4354C34.085 35.9872 25.4327 38.744 16.9746 40.7102C24.9429 36.613 33.08 33.2261 41.3818 30.5495C40.9604 29.7204 40.5602 28.982 40.1776 28.276L40.1775 28.2758C38.7083 25.5651 37.4973 23.3307 36.3315 18.262C22.5781 20.4354 10.9615 27.725 1.47728 40.1309ZM13.6721 102.224C9.57607 103.801 6.97488 102.52 5.85587 98.3891C2.24968 83.1586 3.93454 69.48 10.9147 57.3532C15.5429 59.6269 18.0295 60.0867 21.0308 60.6417C21.8248 60.7885 22.6549 60.942 23.5701 61.1375C20.4158 69.3151 17.9117 77.8098 16.0537 86.6301C19.8626 78.7696 23.1774 70.2707 25.9982 61.1122C31.8297 61.5434 35.7104 61.0191 41.9938 58.0255C41.9906 58.0433 42.0097 58.1306 42.0431 58.2828C42.6274 60.9435 47.571 83.4584 13.6721 102.224ZM37.4505 92.368C42.8724 100.241 47.4878 108.106 51.2967 115.966C45.537 109.066 40.4317 101.848 35.9725 94.3088C35.2548 94.9159 34.623 95.481 34.0188 96.0213C31.7363 98.0626 29.8483 99.7511 25.2173 102.021C30.4112 115.028 40.0812 124.787 54.2231 131.298C58.1417 132.956 60.7471 131.679 62.0308 127.463C68.2217 88.9878 47.5285 79.0574 45.1022 77.893L45.1021 77.893C44.9649 77.8271 44.8862 77.7894 44.874 77.776C43.3496 84.609 41.3776 88.0086 37.4505 92.368ZM69.0155 102.622C68.1245 96.8036 66.7394 93.1165 62.4323 87.6282C62.4502 87.6272 62.5296 87.589 62.668 87.5225C63.7015 87.0258 68.0258 84.9474 74.6359 84.9474C83.5922 84.9474 96.7375 88.7571 111.58 105.472C114.021 109.129 113.371 111.971 109.621 113.996C95.6945 120.96 82.0805 122.381 68.7748 118.262C69.9284 113.221 69.8157 110.679 69.6798 107.613C69.6436 106.796 69.6057 105.942 69.5897 104.994C78.2125 106.254 87 106.799 95.9479 106.634C87.4856 104.668 78.5123 103.332 69.0155 102.622Z" fill="#009E3B"/>
<path d="M80.9827 80.414C87.9332 80.3717 91.6661 81.543 96.7714 84.414C103.173 77.3189 109.748 71.0229 116.496 65.5176C111.112 72.7227 105.276 79.3569 98.9841 85.4246C102.561 88.1349 104.769 89.1455 108.869 94.2406C120.279 86.2195 127.551 74.5409 130.675 59.2047C131.398 54.9806 129.573 52.7143 125.203 52.4014C84.3946 55.1286 81.1727 80.1349 80.9827 80.414Z" fill="#8FDE29"/>
<path fill-rule="evenodd" clip-rule="evenodd" d="M171.246 34.5544H228.306V25.6665H162.312V108.824H171.246V72.3534H223.838V63.2612H171.246V34.5544ZM265.393 108.825C281.942 108.825 292.196 100.55 292.196 84.4084V70.2083C292.196 53.8627 281.13 45.69 265.393 45.69H258.692C241.635 45.69 231.685 54.5779 231.685 70.2083V84.4084C231.685 100.55 241.33 108.825 258.692 108.825H265.393ZM283.262 83.693V71.0252C283.262 59.379 276.256 54.5775 264.479 54.5775H259.606C246.914 54.5775 240.518 59.7877 240.518 71.0252V83.693C240.518 95.3391 247.625 100.038 259.606 100.038H264.479C276.256 100.038 283.262 95.4413 283.262 83.693ZM328.674 54.6797H344.919V45.7918H328.674C318.318 45.7918 312.328 49.1631 308.572 53.8624V45.7918H299.739V108.824H308.572V69.595C308.572 61.2179 315.171 54.6797 328.674 54.6797ZM409.621 80.6282H356.115V83.4886C356.115 95.9521 363.223 100.549 375 100.549H382.31C394.493 100.549 398.859 97.5866 400.382 91.3549H409.317C407.388 102.388 400.281 108.824 382.31 108.824H375C355.709 108.824 347.282 98.8125 347.282 83.2843V71.1273C347.282 54.7818 358.451 45.8939 375 45.8939H381.904C399.976 45.8939 409.621 54.0667 409.621 71.6381V80.6282ZM400.789 71.6382V73.6814H356.116V71.1274C356.116 58.8683 364.036 54.2711 375.001 54.2711H381.905C393.885 54.2711 400.789 58.664 400.789 71.6382ZM475.746 92.7856C475.746 103.002 469.147 108.927 450.669 108.927H440.211C418.281 108.927 414.93 99.7324 414.93 88.4949H424.068C424.068 96.0547 426.708 100.856 441.836 100.856H449.45C461.634 100.856 466.202 98.4043 466.202 92.2748V90.1294C466.202 81.8545 460.72 80.0156 442.851 79.9135C424.373 79.7092 415.946 75.8271 415.946 64.0788V61.014C415.946 51.9218 423.256 45.4857 441.328 45.4857H450.364C468.842 45.4857 474.325 52.5347 474.325 63.8744H465.086C465.086 56.0082 459.908 53.5563 449.146 53.5563H442.14C429.855 53.5563 425.489 57.0297 425.489 61.8312V63.568C425.489 70.3105 429.246 72.6601 447.42 72.9666C467.421 73.2731 475.746 76.2357 475.746 89.7208V92.7856ZM504 54.6799H531.311V45.792H504V30.7746H495.167V45.792H480.039V54.6799H495.167V90.4357C495.167 104.432 500.244 108.722 514.661 108.722H529.179V99.8344H516.082C506.538 99.8344 504 97.9955 504 88.699V54.6799Z" fill="#505050"/>
<path d="M600.041 70.9215H545.957V56.283H609.09C616.011 56.283 621.086 62.9102 619.122 69.5345C616.718 77.6419 613.778 86.4337 610.51 92.4239C607.69 97.5932 601.732 101.839 596.503 104.779C590.519 108.142 583.605 109.213 576.704 109.213H557.537V102.339C557.537 97.5591 561.412 93.6841 566.193 93.6841H584.008H584.039L584.069 93.6767C594.258 91.13 601.253 82.9678 602.005 72.9705C602.091 71.8321 601.157 70.9215 600.041 70.9215ZM696.078 99.6676V108.323H649.12C637.452 108.323 627.993 98.8659 627.993 87.2006V31.3489H641.744V48.9089C641.744 51.9979 644.249 54.502 647.339 54.502H696.078V69.1405H641.994H641.744V69.3905V83.6386C641.744 89.6784 646.642 94.5746 652.683 94.5746H690.983C693.797 94.5746 696.078 96.8549 696.078 99.6676ZM553.083 31.3489H613.152V45.0969H553.083V31.3489ZM693.406 37.3324C693.406 43.5878 688.333 48.6589 682.076 48.6589C675.819 48.6589 670.747 43.5878 670.747 37.3324C670.747 31.077 675.819 26.0059 682.076 26.0059C688.333 26.0059 693.406 31.077 693.406 37.3324ZM705.235 48.6589C698.978 48.6589 693.906 43.5878 693.906 37.3324C693.906 31.077 698.978 26.0059 705.235 26.0059C711.492 26.0059 716.564 31.077 716.564 37.3324C716.564 43.5878 711.492 48.6589 705.235 48.6589ZM704.594 65.3593H745.067V78.9361H704.594V65.3593Z" fill="#8F8F8F" stroke="white" stroke-width="0.5"/>
</svg>
