<svg xmlns="http://www.w3.org/2000/svg" width="249" height="30" viewBox="0 0 249 30">
    <g fill="none" fill-rule="nonzero">
        <path fill="#C9CACA" d="M8.97 8.424h11.956c.143.002.28.06.38.162L29.419.478A1.623 1.623 0 0 0 28.258 0H1.622C1.192.002.782.174.48.478l8.11 8.108c.1-.102.238-.16.381-.162z"/>
        <path fill="#F7F8F8" d="M8.427 20.919V8.968a.543.543 0 0 1 .162-.382L.48.478A1.621 1.621 0 0 0 0 1.622v26.627c0 .432.172.846.479 1.151l8.11-8.108a.543.543 0 0 1-.162-.373z"/>
        <path fill="#B5B5B6" d="M20.926 21.462H8.97a.544.544 0 0 1-.38-.162L.478 29.408c.304.302.715.47 1.143.47h26.636c.432 0 .847-.171 1.152-.478l-8.111-8.108a.543.543 0 0 1-.373.17z"/>
        <path fill="#FFF" d="M29.888 28.249V1.622A1.621 1.621 0 0 0 29.41.478l-8.111 8.108c.102.101.16.238.162.382v11.95a.543.543 0 0 1-.162.382l8.11 8.108c.31-.307.482-.724.48-1.16zM50.773 25.135H49.67c-5.28 0-7.616-2.376-7.616-7.565v-3.786c0-5.327 2.433-7.59 7.616-7.59h1.103c5.191.033 7.624 2.433 7.624 7.59v3.738c0 5.18-2.344 7.613-7.624 7.613zm5.63-11.351c0-4.054-1.988-5.554-5.63-5.554H49.67c-3.666 0-5.677 1.5-5.677 5.554v3.738c0 4.054 1.987 5.578 5.677 5.578h1.103c3.642 0 5.63-1.524 5.63-5.578v-3.738zM69.38 25.062h-.966a5.63 5.63 0 0 1-4.404-1.865v4.865h-2.011V10.841h2.003v1.864a5.678 5.678 0 0 1 4.404-1.889h.965c3.715 0 6.156 1.776 6.156 5.44v3.317c.008 3.713-2.295 5.49-6.148 5.49zm4.103-8.457c0-2.675-1.622-3.778-4.242-3.778h-.924c-2.433 0-4.356 1.427-4.356 3.851v2.563c0 2.432 1.939 3.85 4.356 3.85h.924c2.54 0 4.242-1.086 4.242-3.753v-2.733zM80.402 18.697v.649c0 2.813 1.622 3.851 4.29 3.851h1.623c2.765 0 3.755-.665 4.104-2.075h2.044c-.438 2.489-2.052 3.94-6.132 3.94h-1.622c-4.38 0-6.294-2.262-6.294-5.765v-2.74c0-3.69 2.538-5.676 6.294-5.676h1.565c4.104 0 6.294 1.84 6.294 5.814v2.027l-12.166-.025zm10.146-2.027c0-2.927-1.565-3.916-4.29-3.916h-1.566c-2.49 0-4.29 1.038-4.29 3.803v.575h10.146v-.462zM106.94 25.062v-8.757c0-2.537-1.452-3.462-3.552-3.462h-1.274c-2.563 0-4.128 1.427-4.128 3v9.22h-2.028V10.84h2.028v1.54a6.774 6.774 0 0 1 4.38-1.54h1.176c3.48 0 5.402 1.864 5.402 5.116v9.105h-2.004zM134.557 25.038l-8.346-8.108v-1.784h4.315c3.017 0 4.404-.762 4.404-2.903v-.892c0-2.002-.924-3.137-3.852-3.137h-7.795v16.848h-2.027V6.276h9.822c4.526 0 5.856 1.84 5.856 5.051v1.014c0 3.502-2.1 4.678-6.27 4.678h-1.622l8.184 8.027-2.669-.008zM147.859 25.062h-1.525c-3.942 0-6.14-1.865-6.14-5.513v-3.244c0-3.527 2.263-5.53 6.14-5.53h1.525c3.577 0 6.091 1.841 6.091 5.53v3.244c0 3.648-2.328 5.513-6.091 5.513zm4.055-8.53c0-2.627-1.622-3.713-4.266-3.713h-1.103c-2.88 0-4.34 1.176-4.34 3.713v2.863c0 2.627 1.623 3.689 4.34 3.689h1.07c2.677 0 4.267-1.038 4.267-3.69l.032-2.862zM164.462 25.062h-1.517c-3.942 0-6.14-1.865-6.14-5.513v-3.244c0-3.527 2.263-5.53 6.14-5.53h1.525c3.577 0 6.09 1.841 6.09 5.53v3.244c-.007 3.648-2.335 5.513-6.098 5.513zm4.055-8.53c0-2.627-1.622-3.713-4.266-3.713h-1.103c-2.88 0-4.34 1.176-4.34 3.713v2.863c0 2.627 1.623 3.689 4.34 3.689h1.103c2.676 0 4.266-1.038 4.266-3.69v-2.862zM190.449 25.062V15.52a2.432 2.432 0 0 0-2.515-2.7h-1.038c-2.19 0-2.79 1.338-2.79 2.765v9.478h-1.939v-9.519c0-1.986-.9-2.724-2.433-2.724h-.9c-1.825 0-2.815.965-2.815 2.74v9.503h-2.003V10.816h1.987v1.249a4.161 4.161 0 0 1 3.017-1.249h.966a3.796 3.796 0 0 1 3.439 1.54 3.942 3.942 0 0 1 3.414-1.54h1.525c2.352 0 4.104 1.338 4.104 4.354v9.892h-2.02zM205.153 25.062V6.276h2.004v18.786zM222.583 25.062v-8.757c0-2.537-1.452-3.462-3.552-3.462h-1.265c-2.563 0-4.129 1.427-4.129 3v9.22h-2.028V10.84h2.028v1.54a6.774 6.774 0 0 1 4.38-1.54h1.176c3.48 0 5.402 1.864 5.402 5.116v9.105h-2.012zM235.43 25.086h-1.54c-4.29 0-6.205-1.937-6.205-5.675v-2.838c0-3.527 2.1-5.676 6.205-5.676h1.54c4.291 0 5.954 1.703 6.132 5.14h-2.052c-.227-2.432-1.622-3.161-4.055-3.161h-1.476c-2.725 0-4.266 1.386-4.266 3.827v2.594c0 2.433 1.427 3.827 4.266 3.827h1.476c2.904 0 3.942-1.2 4.055-3.178h2.052c-.113 3.568-1.89 5.14-6.131 5.14zM245.529 25.062v-2.554h3.3v2.562z"/>
    </g>
</svg>
