<svg width="159" height="29" viewBox="0 0 159 29" fill="none" xmlns="http://www.w3.org/2000/svg">
<path fill-rule="evenodd" clip-rule="evenodd" d="M8.20584 2.33221C8.07865 1.4092 8.4647 0.930272 9.36759 0.894531H9.48314C12.7292 0.894531 15.4173 1.89438 17.5491 3.89319C16.8606 4.74554 16.6476 5.23951 16.39 5.83657C16.3222 5.99372 16.2514 6.15801 16.1679 6.33786C14.6398 5.29512 13.0159 4.37122 11.2943 3.56795C12.7257 4.73042 14.3138 5.82141 16.0587 6.8427C15.6905 8.03109 15.6144 8.85938 15.9288 10.3042C15.9254 10.3028 15.9072 10.3026 15.8754 10.3024C15.3099 10.2979 10.4432 10.2597 8.20584 2.33221ZM18.3491 13.7295C17.9916 13.2781 14.9697 9.46292 19.6999 2.73613C20.017 2.3957 20.3296 2.22593 20.6369 2.22593C20.9441 2.22593 21.246 2.3957 21.5433 2.73613C23.6375 5.2925 24.5798 8.04812 24.3693 11.0021C23.2781 11.0021 22.7616 11.1466 22.1383 11.3209C21.9727 11.3672 21.7995 11.4157 21.606 11.4641C21.452 9.61714 21.1456 7.76845 20.6861 5.92064C20.6861 7.76845 20.8384 9.69309 21.1456 11.6946C19.9946 12.1565 19.3031 12.6185 18.3823 13.7738C18.3813 13.7701 18.3695 13.7553 18.3491 13.7295L18.3491 13.7295ZM0.313363 9.375C-0.214219 10.1086 -0.0753817 10.7099 0.728084 11.1772C8.33893 14.2918 11.3633 10.4626 11.7119 10.0212C11.7312 9.99674 11.7423 9.98269 11.7455 9.98081C10.4171 9.34105 9.81253 8.77009 9.1058 7.74879C7.23015 8.49935 5.39481 9.08193 3.60067 9.49741C5.29091 8.63159 7.01697 7.91588 8.77797 7.35028C8.68859 7.17511 8.60373 7.01912 8.52258 6.86995L8.52251 6.86983L8.5225 6.86981C8.21086 6.29699 7.95398 5.82482 7.70668 4.75371C4.7893 5.21298 2.32516 6.75341 0.313363 9.375ZM2.90031 22.4962C2.03146 22.8295 1.47969 22.5588 1.24232 21.6858C0.477375 18.4674 0.834769 15.5768 2.3154 13.0142C3.29715 13.4947 3.82462 13.5918 4.46125 13.7091L4.46133 13.7091C4.62973 13.7402 4.80578 13.7726 4.99989 13.8139C4.33078 15.542 3.79962 17.337 3.4055 19.2009C4.21344 17.5399 4.91659 15.7439 5.51493 13.8085C6.75193 13.8997 7.5751 13.7889 8.90794 13.1563C8.90726 13.16 8.91132 13.1785 8.91841 13.2106C9.04234 13.7729 10.091 18.5307 2.90031 22.4962ZM7.94415 20.4135C9.09426 22.0773 10.0733 23.7392 10.8812 25.4003C9.65946 23.942 8.57653 22.4168 7.63065 20.8237C7.47841 20.952 7.34438 21.0714 7.21621 21.1856C6.73205 21.6169 6.33156 21.9737 5.34924 22.4534C6.45098 25.2019 8.50219 27.2642 11.502 28.6402C12.3332 28.9904 12.8859 28.7206 13.1582 27.8298C14.4714 19.6992 10.0819 17.6007 9.56724 17.3547L9.56723 17.3547C9.53813 17.3408 9.52142 17.3328 9.51884 17.33C9.19548 18.7739 8.77718 19.4923 7.94415 20.4135ZM14.6394 22.5803C14.4504 21.3508 14.1566 20.5717 13.2429 19.4119C13.2467 19.4117 13.2636 19.4036 13.2929 19.3896C13.5122 19.2846 14.4294 18.8454 15.8316 18.8454C17.7314 18.8454 20.5198 19.6505 23.6683 23.1826C24.186 23.9555 24.0481 24.5559 23.2527 24.9839C20.2986 26.4555 17.4107 26.7558 14.5883 25.8855C14.833 24.8201 14.8091 24.2829 14.7803 23.6351C14.7726 23.4625 14.7646 23.282 14.7612 23.0816C16.5903 23.3479 18.4543 23.4631 20.3523 23.4283C18.5573 23.0128 16.6539 22.7304 14.6394 22.5803Z" fill="white"/>
<path d="M17.1782 17.8883C18.6526 17.8794 19.4444 18.1269 20.5273 18.7336C21.8853 17.2343 23.2799 15.9038 24.7113 14.7405C23.5692 16.263 22.3313 17.6649 20.9967 18.9472C21.7554 19.5199 22.2238 19.7335 23.0936 20.8101C25.5138 19.1151 27.0563 16.6472 27.7191 13.4064C27.8723 12.5138 27.4853 12.0349 26.5582 11.9688C17.902 12.5451 17.2185 17.8294 17.1782 17.8883Z" fill="#8FDE29"/>
<path fill-rule="evenodd" clip-rule="evenodd" d="M36.3249 8.19653H48.4284V6.31836H34.4297V23.8911H36.3249V16.1841H47.4808V14.2628H36.3249V8.19653ZM56.2952 23.8912C59.8056 23.8912 61.9808 22.1425 61.9808 18.7316V15.7308C61.9808 12.2767 59.6333 10.5497 56.2952 10.5497H54.8738C51.2557 10.5497 49.1451 12.4279 49.1451 15.7308V18.7316C49.1451 22.1425 51.191 23.8912 54.8738 23.8912H56.2952ZM60.0859 18.5804V15.9035C60.0859 13.4424 58.5999 12.4278 56.1017 12.4278H55.0679C52.3758 12.4278 51.0191 13.5288 51.0191 15.9035V18.5804C51.0191 21.0414 52.5266 22.0345 55.0679 22.0345H56.1017C58.5999 22.0345 60.0859 21.063 60.0859 18.5804ZM69.7186 12.4493H73.1644V10.5712H69.7186C67.5219 10.5712 66.2512 11.2836 65.4544 12.2766V10.5712H63.5807V23.891H65.4544V15.6012C65.4544 13.831 66.8543 12.4493 69.7186 12.4493ZM86.8891 17.9327H75.5394V18.5372C75.5394 21.1709 77.047 22.1424 79.5452 22.1424H81.0958C83.6802 22.1424 84.6063 21.5164 84.9293 20.1995H86.8245C86.4153 22.531 84.9078 23.8911 81.0958 23.8911H79.5452C75.4533 23.8911 73.6658 21.7754 73.6658 18.494V15.925C73.6658 12.4709 76.0348 10.5928 79.5452 10.5928H81.0097C84.8432 10.5928 86.8891 12.3198 86.8891 16.033V17.9327ZM85.0156 16.033V16.4648H75.5396V15.9251C75.5396 13.3345 77.2195 12.3631 79.5454 12.3631H81.0099C83.5512 12.3631 85.0156 13.2913 85.0156 16.033ZM100.916 20.502C100.916 22.6608 99.5161 23.9129 95.5964 23.9129H93.3782C88.7263 23.9129 88.0156 21.9699 88.0156 19.5953H89.9539C89.9539 21.1928 90.5139 22.2074 93.7228 22.2074H95.338C97.9224 22.2074 98.8915 21.6893 98.8915 20.394V19.9407C98.8915 18.192 97.7286 17.8034 93.9381 17.7818C90.0185 17.7387 88.231 16.9183 88.231 14.4357V13.788C88.231 11.8667 89.7816 10.5066 93.6151 10.5066H95.5318C99.4515 10.5066 100.614 11.9962 100.614 14.3925H98.6546C98.6546 12.7302 97.5563 12.2121 95.2734 12.2121H93.7874C91.1815 12.2121 90.2554 12.9461 90.2554 13.9607V14.3277C90.2554 15.7526 91.0523 16.2491 94.9073 16.3139C99.15 16.3786 100.916 17.0047 100.916 19.8543V20.502ZM106.909 12.4503H112.702V10.5721H106.909V7.39865H105.035V10.5721H101.826V12.4503H105.035V20.0061C105.035 22.9637 106.112 23.8704 109.17 23.8704H112.25V21.9922H109.472C107.447 21.9922 106.909 21.6036 106.909 19.6391V12.4503Z" fill="white"/>
<path d="M127.281 15.685H116.006V12.986H129.201C130.542 12.986 131.517 14.2643 131.14 15.5328C130.63 17.2463 130.011 19.0858 129.329 20.3313C128.759 21.3717 127.539 22.2463 126.435 22.8647C125.206 23.5528 123.777 23.7768 122.331 23.7768H118.462V22.5213C118.462 21.621 119.195 20.8895 120.101 20.8895H123.88H123.911L123.941 20.8821C126.18 20.3245 127.728 18.5318 127.894 16.3301C127.922 15.9643 127.622 15.685 127.281 15.685ZM147.456 21.9568V23.5886H137.692C135.325 23.5886 133.407 21.6775 133.407 19.3223V7.71697H135.93V11.2306C135.93 11.9931 136.551 12.6096 137.314 12.6096H147.456V15.3087H136.18H135.93V15.5587V18.5696C135.93 19.9557 137.058 21.0777 138.448 21.0777H146.572C147.061 21.0777 147.456 21.4722 147.456 21.9568ZM117.517 7.71697H129.865V10.2278H117.517V7.71697ZM146.889 8.78422C146.889 9.99628 145.902 10.9806 144.683 10.9806C143.463 10.9806 142.476 9.99628 142.476 8.78422C142.476 7.57217 143.463 6.58789 144.683 6.58789C145.902 6.58789 146.889 7.57217 146.889 8.78422ZM149.595 10.9806C148.376 10.9806 147.389 9.99628 147.389 8.78422C147.389 7.57217 148.376 6.58789 149.595 6.58789C150.814 6.58789 151.801 7.57217 151.801 8.78422C151.801 9.99628 150.814 10.9806 149.595 10.9806ZM149.656 14.904H157.847V17.3787H149.656V14.904Z" fill="white" stroke="#1C9E3B" stroke-width="0.5"/>
</svg>
