<svg xmlns="http://www.w3.org/2000/svg" xmlns:xlink="http://www.w3.org/1999/xlink" width="200" height="100" viewBox="0 0 200 100">
    <defs>
        <path id="prefix__a" d="M0 0.185L87.187 0.185 87.187 60.316 0 60.316z"/>
    </defs>
    <g fill="none" fill-rule="evenodd">
        <path fill="#FFF" d="M0 0H200V100H0z"/>
        <g transform="translate(10 10.169)">
            <mask id="prefix__b" fill="#fff">
                <use xlink:href="#prefix__a"/>
            </mask>
            <path fill="#4D4F58" d="M85.684.185H1.503C.673.185 0 .859 0 1.688v57.124c0 .83.673 1.504 1.503 1.504h84.181c.832 0 1.503-.674 1.503-1.504V1.688c0-.829-.671-1.503-1.503-1.503m0 1.06c.245 0 .443.198.443.443v57.124c0 .243-.198.442-.443.442H1.503c-.243 0-.443-.199-.443-.442V1.688c0-.245.2-.443.443-.443h84.181" mask="url(#prefix__b)"/>
            <path fill="#4D4F58" d="M40.546 9.204H7.558c-.437 0-.793-.354-.793-.794v-.665c0-.44.356-.796.793-.796h32.988c.437 0 .794.356.794.796v.665c0 .44-.357.794-.794.794M79.724 14.466H46.55c-.388 0-.7-.312-.7-.7v-7.62c0-.386.312-.7.7-.7h33.175c.387 0 .7.314.7.7v7.62c0 .388-.313.7-.7.7"/>
            <path fill="#93C256" d="M79.724 26.492H46.55c-.388 0-.7-.312-.7-.7v-7.621c0-.384.312-.699.7-.699h33.175c.387 0 .7.315.7.699v7.621c0 .388-.313.7-.7.7"/>
            <path fill="#4D4F58" d="M79.724 55.053H7.464c-.386 0-.7-.312-.7-.7v-7.62c0-.385.314-.7.7-.7h72.26c.387 0 .7.315.7.7v7.62c0 .388-.313.7-.7.7"/>
            <path fill="#DBDBDD" d="M60.933 42.276H46.55c-.388 0-.7-.312-.7-.7V30.95c0-.386.312-.7.7-.7h14.384c.387 0 .7.314.7.7v10.627c0 .388-.313.7-.7.7"/>
            <path fill="#1C9E3B" d="M79.724 42.276H65.34c-.388 0-.7-.312-.7-.7V30.95c0-.386.312-.7.7-.7h14.384c.387 0 .7.314.7.7v10.627c0 .388-.313.7-.7.7"/>
            <path fill="#4D4F58" d="M40.546 13.714H7.558c-.437 0-.793-.355-.793-.795v-.665c0-.44.356-.795.793-.795h32.988c.437 0 .794.355.794.795v.665c0 .44-.357.795-.794.795M40.64 42.276H7.465c-.388 0-.7-.312-.7-.7V18.171c0-.384.312-.699.7-.699H40.64c.387 0 .7.315.7.699v23.405c0 .388-.313.7-.7.7"/>
            <path fill="#FEFEFE" d="M22.933 24.639v13.519c0 .124-.102.227-.226.227h-4.08c-.125 0-.225-.103-.225-.227v-2.921c0-.126-.102-.224-.226-.224h-1.563c-.124 0-.226.098-.226.224v2.92c0 .125-.1.228-.225.228h-4.08c-.125 0-.225-.103-.225-.227v-13.52c0-.125.1-.225.225-.225h10.625c.125 0 .226.1.226.226m13.314-3.802v17.32c0 .125-.103.228-.227.228h-4.08c-.125 0-.226-.103-.226-.227v-2.93c0-.124-.1-.224-.225-.224h-1.563c-.124 0-.225.1-.225.225v2.929c0 .124-.1.227-.226.227h-4.08c-.124 0-.224-.103-.224-.227v-17.32c0-.125.1-.226.225-.226H36.02c.124 0 .226.101.226.225M15.156 31.993h-1.562c-.125 0-.225.101-.225.227v1.56c0 .125.1.224.225.224h1.562c.125 0 .226-.099.226-.224v-1.56c0-.126-.1-.227-.226-.227m3.02 0h-1.562c-.124 0-.226.101-.226.227v1.56c0 .125.102.224.226.224h1.563c.124 0 .226-.099.226-.224v-1.56c0-.126-.102-.227-.226-.227m3.02 0h-1.562c-.124 0-.226.101-.226.227v1.56c0 .125.102.224.226.224h1.562c.125 0 .226-.099.226-.224v-1.56c0-.126-.101-.227-.226-.227m7.273-.015h-1.564c-.124 0-.225.1-.225.225v1.566c0 .125.101.225.225.225h1.564c.124 0 .225-.1.225-.225v-1.566c0-.124-.101-.225-.225-.225m3.02 0h-1.563c-.124 0-.225.1-.225.225v1.566c0 .125.1.225.225.225h1.563c.125 0 .225-.1.225-.225v-1.566c0-.124-.1-.225-.225-.225m3.02 0h-1.562c-.124 0-.225.1-.225.225v1.566c0 .125.1.225.225.225h1.562c.126 0 .226-.1.226-.225v-1.566c0-.124-.1-.225-.226-.225m-19.354-3.002h-1.562c-.125 0-.225.099-.225.224v1.56c0 .126.1.227.225.227h1.562c.125 0 .226-.101.226-.227V29.2c0-.125-.1-.224-.226-.224m3.02 0h-1.562c-.124 0-.226.099-.226.224v1.56c0 .126.102.227.226.227h1.563c.124 0 .226-.101.226-.227V29.2c0-.125-.102-.224-.226-.224m3.02 0h-1.562c-.124 0-.226.099-.226.224v1.56c0 .126.102.227.226.227h1.562c.125 0 .226-.101.226-.227V29.2c0-.125-.101-.224-.226-.224m7.273-.025h-1.564c-.124 0-.225.103-.225.227v1.566c0 .124.101.224.225.224h1.564c.124 0 .225-.1.225-.224v-1.566c0-.124-.101-.227-.225-.227m3.02 0h-1.563c-.124 0-.225.103-.225.227v1.566c0 .124.1.224.225.224h1.563c.125 0 .225-.1.225-.224v-1.566c0-.124-.1-.227-.225-.227m3.02 0h-1.562c-.124 0-.225.103-.225.227v1.566c0 .124.1.224.225.224h1.562c.126 0 .226-.1.226-.224v-1.566c0-.124-.1-.227-.226-.227m-19.354-2.995h-1.562c-.125 0-.225.1-.225.225v1.562c0 .124.1.224.225.224h1.562c.125 0 .226-.1.226-.224v-1.562c0-.124-.1-.225-.226-.225m3.02 0h-1.562c-.124 0-.226.1-.226.225v1.562c0 .124.102.224.226.224h1.563c.124 0 .226-.1.226-.224v-1.562c0-.124-.102-.225-.226-.225m3.02 0h-1.562c-.124 0-.226.1-.226.225v1.562c0 .124.102.224.226.224h1.562c.125 0 .226-.1.226-.224v-1.562c0-.124-.101-.225-.226-.225m7.273-.03h-1.564c-.124 0-.225.1-.225.225v1.566c0 .124.101.227.225.227h1.564c.124 0 .225-.103.225-.227V26.15c0-.125-.101-.224-.225-.224m3.02 0h-1.563c-.124 0-.225.1-.225.224v1.566c0 .124.1.227.225.227h1.563c.125 0 .225-.103.225-.227V26.15c0-.125-.1-.224-.225-.224m3.02 0h-1.562c-.124 0-.225.1-.225.224v1.566c0 .124.1.227.225.227h1.562c.126 0 .226-.103.226-.227V26.15c0-.125-.1-.224-.226-.224m-6.04-2.959h-1.564c-.124 0-.225.1-.225.224v1.566c0 .124.101.227.225.227h1.564c.124 0 .225-.103.225-.227v-1.566c0-.124-.101-.224-.225-.224m3.02 0h-1.563c-.124 0-.225.1-.225.224v1.566c0 .124.1.227.225.227h1.563c.125 0 .225-.103.225-.227v-1.566c0-.124-.1-.224-.225-.224m3.02 0h-1.562c-.124 0-.225.1-.225.224v1.566c0 .124.1.227.225.227h1.562c.126 0 .226-.103.226-.227v-1.566c0-.124-.1-.224-.226-.224"/>
        </g>
        <g>
            <path fill="#4D4F58" d="M70.2 52.806c.391 0 .711.357.711.799v.667c0 .442-.32.797-.711.797H46.726c-.391 0-.71-.355-.71-.797v-.667c0-.442.319-.799.71-.799H70.2zm0-7.543c.391 0 .711.356.711.798v.667c0 .442-.32.798-.711.798H46.726c-.391 0-.71-.356-.71-.798v-.667c0-.442.319-.798.71-.798H70.2z" transform="translate(111 29)"/>
            <path fill="#4D4F58" d="M1.507 0C.675 0 0 .676 0 1.507v57.278c0 .832.675 1.508 1.507 1.508h75.356c.834 0 1.507-.676 1.507-1.508V1.507C78.37.676 77.697 0 76.863 0H1.507zm75.8 1.507v57.278c0 .244-.198.443-.444.443H1.507c-.243 0-.443-.199-.443-.443V1.507c0-.245.2-.444.443-.444h75.356c.246 0 .445.199.445.444z" transform="translate(111 29)"/>
            <path fill="#4D4F58" d="M40.66 9.05H7.585c-.438 0-.795-.355-.795-.796v-.667c0-.441.357-.798.795-.798h33.077c.438 0 .796.357.796.798v.667c0 .441-.358.796-.796.796" transform="translate(111 29)"/>
            <path fill="#FF7000" d="M46.52 20.368c-.279 0-.503-.47-.503-1.053V7.84c0-.578.224-1.052.504-1.052h23.886c.279 0 .504.474.504 1.052v11.474c0 .584-.225 1.053-.504 1.053H46.521zM46.52 39.982c-.279 0-.503-.47-.503-1.053V27.455c0-.578.224-1.052.504-1.052h23.886c.279 0 .504.474.504 1.052v11.474c0 .583-.225 1.053-.504 1.053H46.521z" transform="translate(111 29)"/>
            <path fill="#FFF" d="M60.611 17.426c-.456-.014-.904-.122-1.317-.317-.882-.405-1.684-.964-2.37-1.652-1.283-1.294-2.609-3.607-1.527-4.698l.916-.905c.085-.085.2-.133.32-.133s.236.048.32.133l1.318 1.319c.171.172.176.449.011.627-.313.302-.489.72-.485 1.155.004.436.187.85.506 1.147.296.318.71.5 1.145.504.435.004.852-.171 1.154-.484.175-.167.45-.167.625 0l1.357 1.358c.085.085.133.2.133.32s-.048.235-.133.32l-.905.917c-.286.273-.673.414-1.068.39zm-3.979-6.943l-.755.756c-.63.629.294 2.49 1.538 3.738.624.628 1.354 1.14 2.157 1.51.437.188 1.222.452 1.61.061l.755-.758-1.039-1.039c-.91.763-2.259.685-3.075-.179-.866-.817-.945-2.167-.181-3.08l-1.01-1.01zM62.406 30.024h-7.13c-.28 0-.508.228-.508.51v5.318c0 .28.228.509.509.509h7.129c.135 0 .264-.054.36-.15.095-.095.149-.224.149-.36v-5.318c0-.135-.054-.264-.15-.36-.095-.095-.224-.149-.36-.149zm-.17.68v.649L58.84 33.69l-3.394-2.337v-.65h6.789zm-6.79 4.978v-3.506l3.169 2.175c.068.042.146.064.226.066.091 0 .18-.027.256-.077l3.139-2.164v3.506h-6.79z" transform="translate(111 29)"/>
            <path fill="#4D4F58" d="M40.66 16.594H7.585c-.438 0-.795-.355-.795-.796v-.667c0-.442.357-.798.795-.798h33.077c.438 0 .796.356.796.798v.667c0 .441-.358.796-.796.796" transform="translate(111 29)"/>
            <path fill="#93C256" d="M40.756 55.07H7.49c-.389 0-.702-.418-.702-.937V22.812c0-.514.313-.935.702-.935h33.265c.388 0 .701.421.701.935v31.321c0 .52-.313.936-.701.936" transform="translate(111 29)"/>
            <path fill="#FFF" d="M28.676 38.904c3.581.059 6.074 2.532 6.074 6.062v4.871c0 .39-.316.706-.706.706h-3.528v-3.528c0-.39-.316-.706-.706-.706-.39 0-.706.316-.706.706v3.528h-9.88v-3.528c0-.39-.315-.706-.705-.706-.39 0-.706.316-.706.706v3.528h-3.529c-.39 0-.705-.316-.705-.706v-4.87c0-3.531 2.493-6.004 6.074-6.063 1.23 1.131 2.84 1.76 4.511 1.76 1.671 0 3.282-.629 4.512-1.76zm-4.512-10.238c2.923 0 5.293 2.37 5.293 5.293 0 2.924-2.37 5.293-5.293 5.293-2.924 0-5.293-2.37-5.293-5.293s2.37-5.293 5.293-5.293z" transform="translate(111 29)"/>
        </g>
        <g transform="translate(79 29)">
            <path fill="#FFF" fill-rule="nonzero" d="M21 0C9.402 0 0 9.402 0 21s9.402 21 21 21 21-9.402 21-21S32.598 0 21 0zm0 1.68c10.67 0 19.32 8.65 19.32 19.32S31.67 40.32 21 40.32 1.68 31.67 1.68 21 10.33 1.68 21 1.68z"/>
            <circle cx="21" cy="21" r="19.32" fill="#FF7000"/>
            <path fill="#FFF" d="M18.598 27.594c-.413 0-.808-.163-1.1-.454l-5.494-5.493c-.16-.164-.16-.425 0-.588l1.192-1.193c.164-.16.425-.16.588 0l4.52 4.494c.166.161.43.161.596 0l9.316-9.29c.076-.082.182-.128.294-.128.111 0 .217.046.294.128l1.192 1.184c.161.166.161.43 0 .596l-10.29 10.29c-.295.291-.694.454-1.108.454z"/>
        </g>
    </g>
</svg>
