<svg xmlns="http://www.w3.org/2000/svg" width="21" height="16" viewBox="0 0 21 16">
    <path fill="#FFF" fill-rule="evenodd" d="M1.268 0C.568 0 0 .537 0 1.2c0 .663.568 1.2 1.268 1.2h18.264c.7 0 1.268-.537 1.268-1.2 0-.663-.568-1.2-1.268-1.2H1.268zm0 6.4C.568 6.4 0 6.937 0 7.6c0 .663.568 1.2 1.268 1.2h18.264c.7 0 1.268-.537 1.268-1.2 0-.663-.568-1.2-1.268-1.2H1.268zm0 6.4C.568 12.8 0 13.337 0 14c0 .663.568 1.2 1.268 1.2h18.264c.7 0 1.268-.537 1.268-1.2 0-.663-.568-1.2-1.268-1.2H1.268z"/>
</svg>
