<svg width="56" height="56" viewBox="0 0 56 56" fill="none" xmlns="http://www.w3.org/2000/svg">
<g filter="url(#filter0_d)">
<path d="M28 3C15.8497 3 6 12.8497 6 25C6 37.1503 15.8497 47 28 47C40.1503 47 50 37.1503 50 25C50 12.8497 40.1503 3 28 3Z" fill="#EBF6F0"/>
<path d="M28 3.5C16.1259 3.5 6.5 13.1259 6.5 25C6.5 36.8741 16.1259 46.5 28 46.5C39.8741 46.5 49.5 36.8741 49.5 25C49.5 13.1259 39.8741 3.5 28 3.5Z" stroke="#38A973"/>
</g>
<path d="M25.4484 18.6495L32.4219 25.623L25.4993 32.5456" stroke="#38A973" stroke-width="3" stroke-linecap="round" stroke-linejoin="round"/>
<defs>
<filter id="filter0_d" x="0" y="0" width="56" height="56" filterUnits="userSpaceOnUse" color-interpolation-filters="sRGB">
<feFlood flood-opacity="0" result="BackgroundImageFix"/>
<feColorMatrix in="SourceAlpha" type="matrix" values="0 0 0 0 0 0 0 0 0 0 0 0 0 0 0 0 0 0 127 0" result="hardAlpha"/>
<feOffset dy="3"/>
<feGaussianBlur stdDeviation="3"/>
<feColorMatrix type="matrix" values="0 0 0 0 0 0 0 0 0 0 0 0 0 0 0 0 0 0 0.161 0"/>
<feBlend mode="normal" in2="BackgroundImageFix" result="effect1_dropShadow"/>
<feBlend mode="normal" in="SourceGraphic" in2="effect1_dropShadow" result="shape"/>
</filter>
</defs>
</svg>
