<svg xmlns="http://www.w3.org/2000/svg" xmlns:xlink="http://www.w3.org/1999/xlink" width="307" height="181" viewBox="0 0 307 181">
    <defs>
        <path id="prefix__a" d="M0 0H307V180.58H0z"/>
    </defs>
    <g fill="none" fill-rule="evenodd">
        <path stroke="#DFE4E1" d="M0.5 0.5H306.5V180.08H0.5z"/>
        <g>
            <g transform="translate(67.72 30.7)">
                <path fill="#475059" fill-rule="nonzero" d="M169.76 120.027H1.396c-.687 0-1.244-.556-1.245-1.243L.001 1.247C-.002.559.555 0 1.243 0h168.365c.687 0 1.244.557 1.245 1.244l.151 117.537c0 .687-.556 1.245-1.244 1.246h-.001zM167.54 2.333H3.134c-.688 0-1.246.557-1.246 1.245v.002l.145 113.086c0 .687.558 1.243 1.245 1.243h164.406c.688 0 1.245-.557 1.245-1.245v-.001l-.144-113.086c0-.687-.558-1.244-1.245-1.244z"/>
                <rect width="67.116" height="4.04" x="14.131" y="14.141" fill="#475059" rx="1.952"/>
                <rect width="67.116" height="4.04" x="14.131" y="26.262" fill="#475059" rx="1.952"/>
                <path fill="#475059" d="M15.08 85.028h65.455c.459 0 .83-.371.83-.83V36.7c0-.458-.371-.83-.83-.83H15.08c-.458 0-.83.372-.83.83v47.498c0 .459.372.83.83.83z"/>
                <path fill="#FFF" d="M45.43 50.456l-.002 26.572H36.81v-6.415h-3.83v6.415h-8.617V50.456H45.43zm25.322-7.228l-.002 33.8h-8.618v-6.43h-3.83v6.43h-8.618v-33.8h21.068zM31.067 64.872h-3.83V68.7h3.83v-3.827zm5.745 0h-3.83V68.7h3.83v-3.827zm5.745 0h-3.83V68.7h3.83v-3.827zm13.831-.028h-3.83v3.836h3.83v-3.836zm5.746 0h-3.83v3.836h3.83v-3.836zm5.745 0h-3.83v3.836h3.83v-3.836zm-36.812-5.712h-3.83v3.826h3.83v-3.826zm5.745 0h-3.83v3.826h3.83v-3.826zm5.745 0h-3.83v3.826h3.83v-3.826zm13.831-.044h-3.83v3.837h3.83v-3.837zm5.746 0h-3.83v3.837h3.83v-3.837zm5.745 0h-3.83v3.837h3.83v-3.837zm-36.812-5.697h-3.83v3.826h3.83v-3.826zm5.745 0h-3.83v3.826h3.83v-3.826zm5.745 0h-3.83v3.826h3.83v-3.826zm13.831-.058h-3.83v3.836h3.83v-3.836zm5.746 0h-3.83v3.836h3.83v-3.836zm5.745 0h-3.83v3.836h3.83v-3.836zm-11.49-5.628h-3.83v3.837h3.83v-3.837zm5.745 0h-3.83v3.837h3.83v-3.837zm5.745 0h-3.83v3.837h3.83v-3.837z"/>
                <rect width="69.415" height="16.162" x="88.261" y="14.141" fill="#475059" rx=".83"/>
                <rect width="143.426" height="16.162" x="14.131" y="91.582" fill="#475059" rx=".83"/>
                <rect width="69.415" height="16.162" x="88.261" y="36.363" fill="#9ED656" rx=".83"/>
                <rect width="31.26" height="26.936" x="126.416" y="58.586" fill="#1C9E3B" rx=".83"/>
                <rect width="31.26" height="26.936" x="88.261" y="58.586" fill="#BAC2C8" rx=".83"/>
                <g>
                    <path fill="#FFF" d="M3.285 4.378H145.567V36.847H3.285z" transform="translate(10.579 70.046)"/>
                    <path stroke="#FF7000" stroke-linejoin="round" stroke-width="2.773" d="M4.378 4.174H146.66000000000003V37.183H4.378z" transform="translate(10.579 70.046)"/>
                    <path fill="#FFF" stroke="#FF7000" stroke-width="2.311" d="M141.259 0H149.986V8.727H141.259zM141.259 33.009H149.986V41.736000000000004H141.259zM79.034 0H87.76100000000001V8.727H79.034zM141.259 16.315H149.986V25.042H141.259zM79.034 32.63H87.76100000000001V41.357H79.034zM.379 0H9.106V8.727H.379zM.379 32.63H9.106V41.357H.379z" transform="translate(10.579 70.046)"/>
                    <path fill="#FFF" stroke="#EE6723" stroke-width="2.311" d="M0 16.315H8.727V25.042H0z" transform="translate(10.579 70.046)"/>
                    <path fill="#475059" fill-rule="nonzero" d="M23.972 26.613c3.362 0 6.094-2.732 6.094-6.094s-2.732-6.094-6.094-6.094-6.094 2.732-6.094 6.094 2.732 6.094 6.094 6.094zm0-1.97c-2.272 0-4.124-1.852-4.124-4.124 0-2.272 1.852-4.124 4.124-4.124 2.272 0 4.124 1.852 4.124 4.124 0 2.272-1.852 4.124-4.124 4.124zm13.133 1.97c3.363 0 6.094-2.732 6.094-6.094s-2.731-6.094-6.094-6.094c-3.362 0-6.094 2.732-6.094 6.094s2.732 6.094 6.094 6.094zm0-1.97c-2.272 0-4.124-1.852-4.124-4.124 0-2.272 1.852-4.124 4.124-4.124 2.273 0 4.124 1.852 4.124 4.124 0 2.272-1.851 4.124-4.124 4.124zM47.586 18.8v-.355h1.182c-.052.066-.092.131-.131.184.407.21 1.156.683 1.484.959.263-.394.499-.88.71-1.419h1.01v1.51h-2.744v1.445l-.026-.043c-.25-.427-1.118-1.8-1.485-2.281zm1.51 2.324v.276h1.944c-.656 1.353-1.694 2.614-2.89 3.336.408.342.986 1.011 1.275 1.458.959-.696 1.76-1.707 2.416-2.876v3.44h1.865v-3.453c.46 1.103 1.025 2.1 1.655 2.81.315-.486.946-1.156 1.38-1.497-.868-.762-1.682-1.983-2.207-3.218h1.839v-1.72h-2.667v-1.51h2.404v-1.721h-2.404V14.28h-1.865v2.167h-.499c.092-.394.158-.788.224-1.195l-1.734-.302c-.144 1.116-.42 2.259-.854 3.112v-1.379h-1.392v-2.403h-1.865v2.403H44.12v1.76h1.497c-.341 1.471-.998 3.192-1.773 4.163.302.526.71 1.406.88 1.957.368-.564.71-1.313.998-2.154v4.348h1.865v-5.45c.17.393.315.774.42 1.076l1.09-1.26zm18.335 5.635c1.38 0 2.01-.578 2.285-3.205-.538-.197-1.234-.67-1.668-1.116-.065 1.602-.21 2.311-.446 2.311-.775 0-1.458-2.942-1.708-6.488h3.442v-1.865h-1.143l.92-.788c-.355-.42-1.09-.998-1.642-1.379l-1.261 1.038c.42.315.92.748 1.274 1.13h-1.668c-.013-.684-.013-1.38.013-2.063h-2.062c0 .683.013 1.38.026 2.062H57.45v1.865h6.435c.289 4.544 1.221 8.498 3.546 8.498zm-9.509-.355c1.72-.341 4.006-.788 6.12-1.234l-.13-1.695c-.75.132-1.511.25-2.26.368v-2.495h1.931v-1.84h-5.621v1.84h1.786v2.797c-.88.131-1.694.25-2.338.328l.512 1.931zm13.397-6.212c.748-.342 1.484-.775 2.154-1.235v.972h6.094v-1.077c.696.46 1.418.88 2.114 1.195.342-.577.762-1.26 1.235-1.746-2.089-.683-4.059-2.062-5.464-3.993H75.43c-.946 1.484-2.995 3.336-5.24 4.282.393.407.905 1.142 1.129 1.602zm7.302-2.01h-4.11c.813-.67 1.51-1.379 2.009-2.048.499.683 1.247 1.392 2.101 2.048zm1.668 8.577l1.786-1.077c-.578-.946-1.68-2.207-2.771-3.192h2.719v-1.773h-10.94v1.773h2.823c-.21.657-.486 1.366-.775 1.983-.735.027-1.405.053-2.01.066l.25 1.865c2.246-.105 5.424-.25 8.445-.42.184.276.355.538.473.775zm-5.03-2.351c.328-.604.67-1.274.998-1.918h2.561l-1.392.723c.341.328.696.696 1.037 1.077-1.077.039-2.167.078-3.204.118zm12.11 2.364v-4.663c.34.42.669.84.905 1.17l1.156-1.55c-.263-.263-1.208-1.104-1.839-1.616.591-.854 1.09-1.8 1.458-2.784l-1.064-.696-.328.065h-.289v-2.403h-1.891v2.403h-1.773v1.72h2.929c-.815 1.393-2.089 2.628-3.441 3.324.275.367.722 1.326.88 1.838.472-.289.945-.643 1.405-1.05v4.242h1.891zm8.628-.381v-1.878H93.33V20.06h2.338v-1.84H93.33v-3.795h-1.97v3.796h-2.325v1.839h2.325v4.452h-2.877v1.878h7.513zM113.03 22.238c.801 0 1.392-.643 1.392-1.458 0-.8-.591-1.444-1.392-1.444-.801 0-1.392.643-1.392 1.444 0 .815.59 1.458 1.392 1.458zm5.017 0c.801 0 1.392-.643 1.392-1.458 0-.8-.59-1.444-1.392-1.444-.801 0-1.392.643-1.392 1.444 0 .815.59 1.458 1.392 1.458zm5.017 0c.801 0 1.392-.643 1.392-1.458 0-.8-.59-1.444-1.392-1.444-.801 0-1.392.643-1.392 1.444 0 .815.59 1.458 1.392 1.458z" transform="translate(10.579 70.046)"/>
                </g>
            </g>
        </g>
    </g>
</svg>
