<svg xmlns="http://www.w3.org/2000/svg" width="200" height="100" viewBox="0 0 200 100">
    <g fill="none" fill-rule="evenodd">
        <path fill="#FFF" d="M0 0H200V100H0z"/>
        <g>
            <path fill="#4D4F58" d="M1.998 0C.895 0 0 .896 0 1.998v75.927c0 1.103.895 2 1.998 2H144.89c1.106 0 1.998-.897 1.998-2V1.998c0-1.102-.892-1.998-1.998-1.998H1.998zm143.481 1.998v75.927c0 .324-.264.588-.589.588H1.998c-.323 0-.588-.264-.588-.588V1.998c0-.326.265-.59.588-.59H144.89c.325 0 .589.264.589.59z" transform="translate(24 10)"/>
            <path fill="#4D4F58" d="M53.9 9.997H10.053C9.473 9.997 9 9.527 9 8.941v-.884C9 7.472 9.472 7 10.053 7H53.9c.581 0 1.056.472 1.056 1.057v.884c0 .585-.475 1.056-1.056 1.056" transform="translate(24 10)"/>
            <path fill="#93C256" d="M99.153 18.99H61.732c-.438 0-.79-.415-.79-.93V7.93c0-.512.352-.93.79-.93h37.421c.437 0 .79.418.79.93v10.13c0 .515-.353.93-.79.93" transform="translate(24 10)"/>
            <path fill="#4D4F58" d="M136.765 72.93H10.215c-.673 0-1.224-.415-1.224-.93V61.87c0-.51.55-.93 1.225-.93h126.55c.677 0 1.225.42 1.225.93V72c0 .515-.548.93-1.226.93" transform="translate(24 10)"/>
            <path fill="#C8CFCA" d="M136.493 55.986h-30.986c-.835 0-1.507-.415-1.507-.93V40.93c0-.513.672-.93 1.507-.93h30.986c.833 0 1.507.417 1.507.93v14.126c0 .515-.674.93-1.507.93" transform="translate(24 10)"/>
            <path fill="#4D4F58" d="M53.9 18.997H10.053c-.58 0-1.053-.47-1.053-1.056v-.884C9 16.472 9.472 16 10.053 16H53.9c.581 0 1.056.472 1.056 1.057v.884c0 .585-.475 1.056-1.056 1.056M137.029 32c.534 0 .971.473.971 1.058v.885c0 .586-.437 1.057-.971 1.057h-32.06c-.535 0-.969-.471-.969-1.057v-.885c0-.585.434-1.058.97-1.058h32.059zm0-8c.534 0 .971.473.971 1.058v.885c0 .586-.437 1.057-.971 1.057h-32.06c-.535 0-.969-.471-.969-1.057v-.885c0-.585.434-1.058.97-1.058h32.059zm0-8c.534 0 .971.473.971 1.058v.885c0 .586-.437 1.057-.971 1.057h-32.06c-.535 0-.969-.471-.969-1.057v-.885c0-.585.434-1.058.97-1.058h32.059zm0-9c.534 0 .971.473.971 1.058v.885c0 .586-.437 1.057-.971 1.057h-32.06c-.535 0-.969-.471-.969-1.057v-.885c0-.585.434-1.058.97-1.058h32.059zM54.019 55.947H9.923c-.516 0-.93-.415-.93-.93v-31.11c0-.51.414-.93.93-.93h44.096c.514 0 .93.42.93.93v31.11c0 .515-.416.93-.93.93" transform="translate(24 10)"/>
            <path fill="#FEFEFE" d="M30.483 32.503l-.001 17.97c0 .165-.135.301-.3.301H24.76c-.165 0-.3-.136-.3-.301V46.59c0-.167-.134-.298-.3-.298h-2.076c-.165 0-.3.131-.3.298v3.883c0 .165-.134.301-.3.301H16.06c-.166 0-.3-.136-.3-.301v-17.97c0-.166.134-.3.3-.3h14.123c.165 0 .3.134.3.3m17.697-5.052l-.002 23.022c0 .165-.135.301-.3.301h-5.423c-.166 0-.3-.136-.3-.301V46.58c0-.166-.134-.3-.3-.3h-2.077c-.165 0-.3.134-.3.3v3.893c0 .165-.133.301-.3.301h-5.422c-.165 0-.3-.136-.3-.301V27.45c0-.166.135-.3.3-.3h14.123c.165 0 .3.134.3.3M20.147 42.278h-2.077c-.165 0-.299.136-.299.302v2.074c0 .167.134.298.3.298h2.076c.166 0 .3-.131.3-.298V42.58c0-.166-.134-.302-.3-.302m4.015 0h-2.077c-.165 0-.3.136-.3.302v2.074c0 .167.135.298.3.298h2.077c.165 0 .3-.131.3-.298V42.58c0-.166-.135-.302-.3-.302m4.015 0h-2.077c-.165 0-.3.136-.3.302v2.074c0 .167.135.298.3.298h2.077c.165 0 .3-.131.3-.298V42.58c0-.166-.135-.302-.3-.302m9.666-.02h-2.078c-.165 0-.299.135-.299.3v2.082c0 .165.134.299.3.299h2.077c.165 0 .299-.134.299-.3v-2.081c0-.165-.134-.3-.3-.3m4.016 0H39.78c-.165 0-.299.135-.299.3v2.082c0 .165.134.299.3.299h2.077c.165 0 .3-.134.3-.3v-2.081c0-.165-.135-.3-.3-.3m4.014 0h-2.076c-.166 0-.3.135-.3.3v2.082c0 .165.134.299.3.299h2.076c.167 0 .3-.134.3-.3v-2.081c0-.165-.133-.3-.3-.3m-25.725-3.99h-2.077c-.165 0-.299.132-.299.298v2.074c0 .167.134.302.3.302h2.076c.166 0 .3-.135.3-.302v-2.074c0-.166-.134-.298-.3-.298m4.015 0h-2.077c-.165 0-.3.132-.3.298v2.074c0 .167.135.302.3.302h2.077c.165 0 .3-.135.3-.302v-2.074c0-.166-.135-.298-.3-.298m4.015 0h-2.077c-.165 0-.3.132-.3.298v2.074c0 .167.135.302.3.302h2.077c.165 0 .3-.135.3-.302v-2.074c0-.166-.135-.298-.3-.298m9.666-.032h-2.078c-.165 0-.299.136-.299.301v2.082c0 .164.134.298.3.298h2.077c.165 0 .299-.134.299-.298v-2.082c0-.165-.134-.301-.3-.301m4.016 0H39.78c-.165 0-.299.136-.299.301v2.082c0 .164.134.298.3.298h2.077c.165 0 .3-.134.3-.298v-2.082c0-.165-.135-.301-.3-.301m4.014 0h-2.076c-.166 0-.3.136-.3.301v2.082c0 .164.134.298.3.298h2.076c.167 0 .3-.134.3-.298v-2.082c0-.165-.133-.301-.3-.301m-25.725-3.981h-2.077c-.165 0-.299.133-.299.299v2.076c0 .164.134.298.3.298h2.076c.166 0 .3-.134.3-.298v-2.076c0-.166-.134-.3-.3-.3m4.015 0h-2.077c-.165 0-.3.134-.3.3v2.076c0 .164.135.298.3.298h2.077c.165 0 .3-.134.3-.298v-2.076c0-.166-.135-.3-.3-.3m4.015 0h-2.077c-.165 0-.3.134-.3.3v2.076c0 .164.135.298.3.298h2.077c.165 0 .3-.134.3-.298v-2.076c0-.166-.135-.3-.3-.3m9.666-.039h-2.078c-.165 0-.299.133-.299.298v2.082c0 .165.134.301.3.301h2.077c.165 0 .299-.136.299-.301v-2.082c0-.165-.134-.298-.3-.298m4.016 0H39.78c-.165 0-.299.133-.299.298v2.082c0 .165.134.301.3.301h2.077c.165 0 .3-.136.3-.301v-2.082c0-.165-.135-.298-.3-.298m4.014 0h-2.076c-.166 0-.3.133-.3.298v2.082c0 .165.134.301.3.301h2.076c.167 0 .3-.136.3-.301v-2.082c0-.165-.133-.298-.3-.298m-8.03-3.932h-2.077c-.165 0-.299.132-.299.298v2.081c0 .165.134.302.3.302h2.077c.165 0 .299-.137.299-.302v-2.081c0-.166-.134-.298-.3-.298m4.016 0H39.78c-.165 0-.299.132-.299.298v2.081c0 .165.134.302.3.302h2.077c.165 0 .3-.137.3-.302v-2.081c0-.166-.135-.298-.3-.298m4.014 0h-2.076c-.166 0-.3.132-.3.298v2.081c0 .165.134.302.3.302h2.076c.167 0 .3-.137.3-.302v-2.081c0-.166-.133-.298-.3-.298" transform="translate(24 10)"/>
        </g>
        <g>
            <path fill="#FFE5D8" d="M3.429 29.386L35.059 29.386 35.061 2.995 3.429 2.995z" transform="translate(85.35 34)"/>
            <path fill="#FF7000" d="M1.932 29.2v1.496h1.497v1.498H.434v-2.995h1.498zm36.124 0v2.994H35.06v-1.498h1.497v-1.497h1.498zM9.23 30.696v1.497H6.236v-1.497h2.995zm5.802 0v1.497H12.04v-1.497h2.994zm5.99 0v1.497h-2.995v-1.497h2.995zm5.802 0v1.497h-2.994v-1.497h2.994zm5.616 0v1.497h-2.995v-1.497h2.995zm-30.51-7.3v2.995H.434v-2.995H1.93zm36.125 0v2.995h-1.498v-2.995h1.498zM1.93 17.594v2.995H.434v-2.995H1.93zm36.125 0v2.995h-1.498v-2.995h1.498zM1.93 11.604V14.6H.434v-2.995H1.93zm36.125 0V14.6h-1.498v-2.995h1.498zM1.93 5.803v2.995H.434V5.802H1.93zm36.125 0v2.995h-1.498V5.802h1.498zM3.429 0v1.498H1.932v1.497H.434V0h2.995zm34.627 0v2.995h-1.498V1.498H35.06V0h2.995zM9.23 0v1.497H6.236V0h2.995zm5.802 0v1.497H12.04V0h2.994zm5.99 0v1.497h-2.995V0h2.995zm5.802 0v1.497h-2.994V0h2.994zm5.616 0v1.497h-2.995V0h2.995z" transform="translate(85.35 34)"/>
            <path fill="#475059" d="M7.734 7.3h17.594v4.398h-1.467s0-2.932-1.466-2.932h-4.399v13.195s0 1.467 1.467 1.467h1.466v1.466h-4.398l-4.399-.001v-1.467H13.6c1.466 0 1.466-1.466 1.466-1.466V8.766h-4.4C9.2 8.766 9.2 11.698 9.2 11.698H7.734V7.3z" transform="translate(85.35 34)"/>
            <g fill="#4D4F58">
                <path d="M.465 22.15c-.251 0-.455-.204-.455-.455 0-.252.204-.456.455-.456 1.254 0 2.275-1.02 2.275-2.275V3.497c0-1.254-1.021-2.274-2.275-2.274-.251 0-.455-.204-.455-.456 0-.25.204-.454.455-.454 1.756 0 3.184 1.428 3.184 3.184v15.467c0 1.757-1.428 3.186-3.184 3.186z" transform="translate(85.35 34) translate(26.315 5.008)"/>
                <path d="M5.924 22.15c-1.756 0-3.184-1.43-3.184-3.185V3.498C2.74 1.74 4.168.313 5.924.313c.25 0 .455.203.455.454 0 .252-.204.456-.455.456-1.254 0-2.275 1.02-2.275 2.275v15.467c0 1.254 1.021 2.275 2.275 2.275.25 0 .455.204.455.455 0 .25-.204.454-.455.454z" transform="translate(85.35 34) translate(26.315 5.008)"/>
                <path d="M5.014 13.05h-3.64c-.25 0-.455-.203-.455-.454s.204-.455.456-.455h3.64c.25 0 .454.204.454.455 0 .25-.204.454-.455.454z" transform="translate(85.35 34) translate(26.315 5.008)"/>
            </g>
        </g>
    </g>
</svg>
