<svg xmlns="http://www.w3.org/2000/svg" xmlns:xlink="http://www.w3.org/1999/xlink" width="200" height="100" viewBox="0 0 200 100">
    <defs>
        <path id="prefix__a" d="M29.82 23.623c0-1.177-.463-2.215-1.241-2.934.78-1.8 1.218-3.782 1.218-5.865 0-8.168-6.644-14.812-14.812-14.812S.173 6.658.173 14.824c0 4.892 2.389 9.23 6.059 11.93.026.147.06.294.102.438.139.477.333.904.576 1.274 1.329 2.026 2.834 4.32 4.327 6.558 1.514 2.265 3.703 3.671 6.51 4.185.353.062.674.104.987.144.15.02.3.04.449.062.117.017.236.025.355.025h1.672c.132 0 .263-.008.395-.03.148-.025.295-.047.442-.07.255-.04.507-.079.76-.12 3.544-.612 6.22-3.277 6.819-6.795.122-.703.186-1.414.187-2.11.009-2.64.009-2.972.009-4.039-.002-.549-.002-1.294-.002-2.653z"/>
    </defs>
    <g fill="none" fill-rule="evenodd">
        <path fill="#FFF" d="M0 0H200V100H0z"/>
        <g transform="translate(73 10)">
            <path fill="#4D4F58" d="M51.84 0C53.033 0 54 .895 54 2v33c0 1.105-.967 2-2.16 2H2.16C.967 37 0 36.105 0 35V2C0 .895.967 0 2.16 0h49.68zm0 1.8H2.16c-.1 0-.183.062-.208.147L1.944 2v33c0 .092.067.17.159.193l.057.007h49.68c.1 0 .183-.062.208-.147l.008-.053V2c0-.092-.067-.17-.159-.193L51.84 1.8z"/>
            <path fill="#4D4F58" d="M45.5 9.1c.497 0 .9.403.9.9 0 .459-.343.837-.787.893l-.113.007h-16c-.497 0-.9-.403-.9-.9 0-.459.343-.837.787-.893L29.5 9.1h16z"/>
            <rect width="17" height="12" x="8" y="9" fill="#C8CFCA" rx="1"/>
            <rect width="38" height="6" x="8" y="24" fill="#C8CFCA" rx="1"/>
            <path fill="#4D4F58" d="M45.5 14.1c.497 0 .9.403.9.9 0 .459-.343.837-.787.893l-.113.007h-16c-.497 0-.9-.403-.9-.9 0-.459.343-.837.787-.893l.113-.007h16zM45.5 19.1c.497 0 .9.403.9.9 0 .459-.343.837-.787.893l-.113.007h-16c-.497 0-.9-.403-.9-.9 0-.459.343-.837.787-.893l.113-.007h16z"/>
        </g>
        <g transform="translate(10 10)">
            <path fill="#4D4F58" d="M51.84 0C53.033 0 54 .895 54 2v33c0 1.105-.967 2-2.16 2H2.16C.967 37 0 36.105 0 35V2C0 .895.967 0 2.16 0h49.68zm0 1.8H2.16c-.1 0-.183.062-.208.147L1.944 2v33c0 .092.067.17.159.193l.057.007h49.68c.1 0 .183-.062.208-.147l.008-.053V2c0-.092-.067-.17-.159-.193L51.84 1.8z"/>
            <path fill="#4D4F58" d="M45.5 9.1c.497 0 .9.403.9.9 0 .459-.343.837-.787.893l-.113.007h-16c-.497 0-.9-.403-.9-.9 0-.459.343-.837.787-.893L29.5 9.1h16z"/>
            <rect width="17" height="12" x="8" y="9" fill="#93C256" rx="1"/>
            <rect width="38" height="6" x="8" y="24" fill="#C8CFCA" rx="1"/>
            <path fill="#4D4F58" d="M45.5 14.1c.497 0 .9.403.9.9 0 .459-.343.837-.787.893l-.113.007h-16c-.497 0-.9-.403-.9-.9 0-.459.343-.837.787-.893l.113-.007h16zM45.5 19.1c.497 0 .9.403.9.9 0 .459-.343.837-.787.893l-.113.007h-16c-.497 0-.9-.403-.9-.9 0-.459.343-.837.787-.893l.113-.007h16z"/>
        </g>
        <g transform="translate(73 53)">
            <path fill="#4D4F58" d="M51.84 0C53.033 0 54 .895 54 2v33c0 1.105-.967 2-2.16 2H2.16C.967 37 0 36.105 0 35V2C0 .895.967 0 2.16 0h49.68zm0 1.8H2.16c-.1 0-.183.062-.208.147L1.944 2v33c0 .092.067.17.159.193l.057.007h49.68c.1 0 .183-.062.208-.147l.008-.053V2c0-.092-.067-.17-.159-.193L51.84 1.8z"/>
            <path fill="#4D4F58" d="M45.9 9.1c.497 0 .9.403.9.9 0 .459-.343.837-.787.893l-.113.007h-9c-.497 0-.9-.403-.9-.9 0-.459.343-.837.787-.893L36.9 9.1h9z"/>
            <rect width="40" height="6" x="7" y="24" fill="#FF7000" rx="1"/>
            <path fill="#4D4F58" d="M45.9 14.1c.497 0 .9.403.9.9 0 .459-.343.837-.787.893l-.113.007h-9c-.497 0-.9-.403-.9-.9 0-.459.343-.837.787-.893l.113-.007h9zM45.859 19.1c.52 0 .941.403.941.9 0 .459-.36.837-.823.893l-.118.007H24.94c-.52 0-.941-.403-.941-.9 0-.459.36-.837.823-.893l.118-.007H45.86z"/>
            <rect width="13" height="12" x="7" y="9" fill="#FF7000" rx="1"/>
            <rect width="10" height="7" x="24" y="9" fill="#C8CFCA" rx="1"/>
        </g>
        <g transform="translate(136 10)">
            <path fill="#4D4F58" d="M51.84 0C53.033 0 54 .895 54 2v33c0 1.105-.967 2-2.16 2H2.16C.967 37 0 36.105 0 35V2C0 .895.967 0 2.16 0h49.68zm0 1.8H2.16c-.1 0-.183.062-.208.147L1.944 2v33c0 .092.067.17.159.193l.057.007h49.68c.1 0 .183-.062.208-.147l.008-.053V2c0-.092-.067-.17-.159-.193L51.84 1.8z"/>
            <path fill="#4D4F58" d="M45.9 9.1c.497 0 .9.403.9.9 0 .459-.343.837-.787.893l-.113.007h-9c-.497 0-.9-.403-.9-.9 0-.459.343-.837.787-.893L36.9 9.1h9z"/>
            <rect width="40" height="6" x="7" y="24" fill="#FF7000" rx="1"/>
            <path fill="#4D4F58" d="M45.9 14.1c.497 0 .9.403.9.9 0 .459-.343.837-.787.893l-.113.007h-9c-.497 0-.9-.403-.9-.9 0-.459.343-.837.787-.893l.113-.007h9zM45.859 19.1c.52 0 .941.403.941.9 0 .459-.36.837-.823.893l-.118.007H24.94c-.52 0-.941-.403-.941-.9 0-.459.36-.837.823-.893l.118-.007H45.86z"/>
            <rect width="13" height="12" x="7" y="9" fill="#C8CFCA" rx="1"/>
            <rect width="10" height="7" x="24" y="9" fill="#C8CFCA" rx="1"/>
        </g>
        <g transform="translate(136 53)">
            <path fill="#4D4F58" d="M51.84 0C53.033 0 54 .895 54 2v33c0 1.105-.967 2-2.16 2H2.16C.967 37 0 36.105 0 35V2C0 .895.967 0 2.16 0h49.68zm0 1.8H2.16c-.1 0-.183.062-.208.147L1.944 2v33c0 .092.067.17.159.193l.057.007h49.68c.1 0 .183-.062.208-.147l.008-.053V2c0-.092-.067-.17-.159-.193L51.84 1.8z"/>
            <rect width="40" height="6" x="7" y="24" fill="#93C256" rx="1"/>
            <path fill="#4D4F58" d="M45.9 19c.497 0 .9.403.9.9 0 .459-.343.837-.787.893l-.113.007h-16c-.497 0-.9-.403-.9-.9 0-.459.343-.837.787-.893L29.9 19h16zm-22 0c.497 0 .9.403.9.9 0 .459-.343.837-.787.893l-.113.007h-16c-.497 0-.9-.403-.9-.9 0-.459.343-.837.787-.893L7.9 19h16zm22-5c.497 0 .9.403.9.9 0 .459-.343.837-.787.893l-.113.007h-16c-.497 0-.9-.403-.9-.9 0-.459.343-.837.787-.893L29.9 14h16zm-22 0c.497 0 .9.403.9.9 0 .459-.343.837-.787.893l-.113.007h-16c-.497 0-.9-.403-.9-.9 0-.459.343-.837.787-.893L7.9 14h16zm22-5c.497 0 .9.403.9.9 0 .459-.343.837-.787.893l-.113.007h-16c-.497 0-.9-.403-.9-.9 0-.459.343-.837.787-.893L29.9 9h16zm-22 0c.497 0 .9.403.9.9 0 .459-.343.837-.787.893l-.113.007h-16c-.497 0-.9-.403-.9-.9 0-.459.343-.837.787-.893L7.9 9h16z"/>
        </g>
        <g transform="translate(10 53)">
            <path fill="#4D4F58" d="M51.84 0C53.033 0 54 .895 54 2v33c0 1.105-.967 2-2.16 2H2.16C.967 37 0 36.105 0 35V2C0 .895.967 0 2.16 0h49.68zm0 1.8H2.16c-.1 0-.183.062-.208.147L1.944 2v33c0 .092.067.17.159.193l.057.007h49.68c.1 0 .183-.062.208-.147l.008-.053V2c0-.092-.067-.17-.159-.193L51.84 1.8z"/>
            <rect width="40" height="6" x="7" y="24" fill="#1C9E3B" rx="1"/>
            <path fill="#4D4F58" d="M45.9 19c.497 0 .9.403.9.9 0 .459-.343.837-.787.893l-.113.007h-16c-.497 0-.9-.403-.9-.9 0-.459.343-.837.787-.893L29.9 19h16zm-22 0c.497 0 .9.403.9.9 0 .459-.343.837-.787.893l-.113.007h-16c-.497 0-.9-.403-.9-.9 0-.459.343-.837.787-.893L7.9 19h16zm22-5c.497 0 .9.403.9.9 0 .459-.343.837-.787.893l-.113.007h-16c-.497 0-.9-.403-.9-.9 0-.459.343-.837.787-.893L29.9 14h16zm-22 0c.497 0 .9.403.9.9 0 .459-.343.837-.787.893l-.113.007h-16c-.497 0-.9-.403-.9-.9 0-.459.343-.837.787-.893L7.9 14h16zm22-5c.497 0 .9.403.9.9 0 .459-.343.837-.787.893l-.113.007h-16c-.497 0-.9-.403-.9-.9 0-.459.343-.837.787-.893L29.9 9h16zm-22 0c.497 0 .9.403.9.9 0 .459-.343.837-.787.893l-.113.007h-16c-.497 0-.9-.403-.9-.9 0-.459.343-.837.787-.893L7.9 9h16z"/>
        </g>
        <g transform="translate(103 23)">
            <mask id="prefix__b" fill="#fff">
                <use xlink:href="#prefix__a"/>
            </mask>
            <use fill="#4D4F58" fill-rule="nonzero" xlink:href="#prefix__a"/>
            <path fill="#FF7000" d="M6 27l.7-3 .3-1.8 3-.2 1.2-.5L11 18v-7l4-1 4 1 1 6 1.4 1.8 2.1.1 2 .5 3.3 1.4L33 9l-4-9-16-3L1 1l-7 13 4 7 8 6z" mask="url(#prefix__b)"/>
            <path fill="#FFF" fill-rule="nonzero" d="M27.342 30.305c-.004.567-.057 1.143-.154 1.706-.424 2.484-2.306 4.344-4.797 4.774-.391.066-.788.126-1.182.188h-1.672c-.449-.065-.902-.114-1.348-.193-2.057-.375-3.726-1.37-4.896-3.125-1.452-2.173-2.885-4.355-4.316-6.54-.12-.184-.208-.398-.27-.61-.268-.923.277-1.877 1.184-2.051.132-.025.26-.039.382-.039.552 0 1.022.25 1.382.717.601.777 1.169 1.578 1.748 2.367l.186.251c.015-.008.032-.012.047-.02V15.169c0-.14 0-.28.01-.42.054-.651.688-1.202 1.336-1.202.057 0 .114.005.17.013.767.12 1.228.653 1.228 1.437.001 2.196 0 5.872.003 8.07 0 .114.007.235.042.342.057.178.19.273.38.288h.04c.183 0 .317-.092.389-.254.045-.1.048-.225.048-.342 0-.757-.002-.994-.002-.994l-.003.703.002-.995c0-.495.167-.927.59-1.222.153-.105.339-.172.51-.258h.555c.02.015.036.032.057.04.722.248 1.057.719 1.057 1.475l-.002.982-.002-.724v.983c0 .07-.003.139.005.208.03.237.213.395.442.395.015 0 .029 0 .044-.002.243-.022.383-.187.4-.489v-.008c.002-.017.002-.037.002-.055v-.467c.01-.324.09-.628.298-.891.274-.347.671-.536 1.086-.536.15 0 .303.025.454.076.569.195.936.75.936 1.41-.002.744-.004.982-.004.982l-.001-.725s-.002.238-.002.983c0 .085 0 .17.008.256.027.222.173.34.38.38.022.005.044.007.066.007.164 0 .338-.116.395-.28.037-.107.045-.226.045-.342 0-.1 0-.187.002-.26v.5c.001 0 .005-.15.005-.584.003-.241.045-.498.142-.719.218-.493.716-.791 1.23-.791.096 0 .19.01.283.031.668.146 1.09.712 1.09 1.447-.001 3.998.004 2.695-.008 6.688z"/>
            <path fill="#FFF" fill-rule="nonzero" d="M2.642 14.826c0-6.817 5.526-12.343 12.343-12.343s12.343 5.526 12.343 12.343c0 1.731-.363 3.373-1.006 4.868-.115-.01-.23-.02-.348-.02-.357 0-.705.049-1.04.144-.383-.363-.845-.648-1.362-.827-.086-.028-.171-.052-.257-.075.407-.822.702-1.716.85-2.67.316-2.053-.046-4.097-1.049-5.912-.22-.397-.721-.542-1.118-.321-.399.22-.542.721-.322 1.118.826 1.492 1.124 3.174.863 4.863-.166 1.065-.55 2.041-1.094 2.897-.048.011-.1.016-.149.03-.338-.312-.743-.568-1.208-.764-.355-.187-.752-.286-1.157-.286h-.082c0-1.06 0-2.067-.002-2.873 0-2.005-1.33-3.562-3.313-3.875-.187-.029-.373-.044-.554-.044-1.939 0-3.643 1.559-3.799 3.474-.018.246-.018.454-.018.62v6.267c-.768-.442-1.463-1.012-2.04-1.706-.292-.348-.81-.395-1.16-.103-.349.291-.396.81-.105 1.16.402.48.853.909 1.335 1.294-1.001.256-1.879.894-2.424 1.79-.022.035-.037.07-.057.105-2.498-2.258-4.07-5.521-4.07-9.154z"/>
            <path fill="#FF7000" fill-rule="nonzero" d="M6.902 17.484c.444-.1.723-.54.623-.984-.21-.932-.241-1.888-.094-2.843.645-4.165 4.555-7.03 8.725-6.384.983.152 1.909.485 2.754.99.392.235.896.108 1.13-.282.235-.39.106-.898-.283-1.13-1.027-.615-2.154-1.022-3.348-1.206-5.06-.783-9.82 2.699-10.603 7.761-.178 1.159-.14 2.32.115 3.456.085.383.425.644.802.644.057-.001.117-.008.18-.022z"/>
        </g>
    </g>
</svg>
