<svg xmlns="http://www.w3.org/2000/svg" xmlns:xlink="http://www.w3.org/1999/xlink" width="200" height="100" viewBox="0 0 200 100">
    <defs>
        <path id="prefix__a" d="M0 0.218L102.573 0.218 102.573 70.959 0 70.959z"/>
        <path id="prefix__c" d="M15.126 20.297c-2.85 0-5.17-2.32-5.17-5.17 0-2.852 2.32-5.171 5.17-5.171s5.17 2.32 5.17 5.17-2.32 5.17-5.17 5.17m9.238 3.07l-4.146-4.145c1.057-1.31 1.627-3.028 1.42-4.88-.35-3.127-2.955-5.608-6.094-5.818-3.985-.267-7.288 3.036-7.021 7.02.21 3.14 2.691 5.744 5.818 6.094 1.852.208 3.57-.362 4.88-1.419l4.145 4.146c.092.092.241.092.333 0l.665-.665c.092-.092.092-.24 0-.333"/>
    </defs>
    <g fill="none" fill-rule="evenodd">
        <path fill="#FFF" d="M0 0H200V100H0z"/>
        <g>
            <g transform="translate(10 13.265) translate(0 .198)">
                <mask id="prefix__b" fill="#fff">
                    <use xlink:href="#prefix__a"/>
                </mask>
                <path fill="#4D4F58" d="M100.805.218H1.768C.79.218-.001 1.01-.001 1.986V69.19c0 .976.792 1.77 1.769 1.77h99.037c.978 0 1.768-.794 1.768-1.77V1.986c0-.975-.79-1.768-1.768-1.768m0 1.247c.288 0 .52.233.52.52l.001 67.205c0 .287-.233.52-.521.52H1.768c-.286 0-.52-.233-.52-.52V1.986c0-.288.234-.521.52-.521h99.037" mask="url(#prefix__b)"/>
                <path fill="#4D4F58" d="M47.7 10.829H8.892c-.514 0-.932-.417-.932-.935v-.782c0-.518.418-.936.932-.936h38.81c.514 0 .934.418.934.936v.782c0 .518-.42.935-.934.935M93.793 17.018h-39.03c-.456 0-.823-.367-.823-.823V7.23c0-.453.367-.823.823-.823h39.03c.455 0 .823.37.823.823v8.965c0 .456-.368.823-.823.823"/>
                <path fill="#93C256" d="M93.793 31.167h-39.03c-.456 0-.823-.367-.823-.823v-8.967c0-.451.367-.822.823-.822h39.03c.455 0 .823.37.823.822v8.967c0 .456-.368.823-.823.823"/>
                <path fill="#4D4F58" d="M93.793 64.768H8.78c-.453 0-.823-.366-.823-.823V54.98c0-.453.37-.823.823-.823h85.013c.455 0 .823.37.823.823v8.965c0 .457-.368.823-.823.823"/>
                <path fill="#DBDBDD" d="M71.686 49.736H54.763c-.456 0-.823-.366-.823-.823V36.41c0-.454.367-.823.823-.823h16.923c.455 0 .822.37.822.823v12.503c0 .457-.367.823-.822.823"/>
                <path fill="#1C9E3B" d="M93.793 49.736H76.87c-.456 0-.823-.366-.823-.823V36.41c0-.454.367-.823.823-.823h16.923c.455 0 .823.37.823.823v12.503c0 .457-.368.823-.823.823"/>
                <path fill="#4D4F58" d="M47.7 16.134H8.892c-.514 0-.932-.417-.932-.935v-.782c0-.518.418-.936.932-.936h38.81c.514 0 .934.418.934.936v.782c0 .518-.42.935-.934.935M47.812 49.736H8.782c-.456 0-.823-.366-.823-.823V21.377c0-.451.367-.822.823-.822h39.03c.455 0 .823.37.823.822v27.536c0 .457-.368.823-.823.823"/>
                <path fill="#FEFEFE" d="M26.98 28.987v15.905c0 .146-.12.267-.265.267h-4.801c-.147 0-.265-.121-.265-.267v-3.437c0-.148-.12-.264-.266-.264h-1.838c-.146 0-.266.116-.266.264v3.437c0 .146-.118.267-.264.267h-4.801c-.146 0-.265-.121-.265-.267V28.986c0-.147.119-.265.265-.265h12.5c.147 0 .266.118.266.266m15.664-4.472l-.001 20.377c0 .146-.12.267-.266.267h-4.8c-.147 0-.266-.121-.266-.267v-3.446c0-.147-.118-.265-.265-.265h-1.839c-.146 0-.264.118-.264.265v3.446c0 .146-.119.267-.266.267h-4.8c-.146 0-.265-.121-.265-.267V24.515c0-.147.119-.265.265-.265h12.5c.147 0 .267.118.267.265M17.83 37.639h-1.837c-.147 0-.265.12-.265.267v1.835c0 .148.118.264.265.264h1.837c.148 0 .266-.116.266-.264v-1.835c0-.148-.118-.267-.266-.267m3.554 0h-1.838c-.146 0-.265.12-.265.267v1.835c0 .148.12.264.265.264h1.838c.147 0 .266-.116.266-.264v-1.835c0-.148-.12-.267-.266-.267m3.554 0H23.1c-.146 0-.266.12-.266.267v1.835c0 .148.12.264.266.264h1.838c.146 0 .266-.116.266-.264v-1.835c0-.148-.12-.267-.266-.267m8.556-.018h-1.84c-.146 0-.264.119-.264.265v1.842c0 .147.118.265.265.265h1.839c.146 0 .264-.118.264-.265v-1.842c0-.146-.118-.265-.264-.265m3.554 0h-1.84c-.146 0-.264.119-.264.265v1.842c0 .147.118.265.265.265h1.839c.146 0 .264-.118.264-.265v-1.842c0-.146-.118-.265-.264-.265m3.552 0h-1.838c-.146 0-.264.119-.264.265v1.842c0 .147.118.265.264.265H40.6c.148 0 .266-.118.266-.265v-1.842c0-.146-.118-.265-.266-.265M17.83 34.09h-1.837c-.147 0-.265.117-.265.264v1.836c0 .147.118.267.265.267h1.837c.148 0 .266-.12.266-.267v-1.836c0-.147-.118-.264-.266-.264m3.554 0h-1.838c-.146 0-.265.117-.265.264v1.836c0 .147.12.267.265.267h1.838c.147 0 .266-.12.266-.267v-1.836c0-.147-.12-.264-.266-.264m3.554 0H23.1c-.146 0-.266.117-.266.264v1.836c0 .147.12.267.266.267h1.838c.146 0 .266-.12.266-.267v-1.836c0-.147-.12-.264-.266-.264m8.556-.029h-1.84c-.146 0-.264.121-.264.267v1.843c0 .145.118.264.265.264h1.839c.146 0 .264-.119.264-.264v-1.843c0-.146-.118-.267-.264-.267m3.554 0h-1.84c-.146 0-.264.121-.264.267v1.843c0 .145.118.264.265.264h1.839c.146 0 .264-.119.264-.264v-1.843c0-.146-.118-.267-.264-.267m3.552 0h-1.838c-.146 0-.264.121-.264.267v1.843c0 .145.118.264.264.264H40.6c.148 0 .266-.119.266-.264v-1.843c0-.146-.118-.267-.266-.267m-22.77-3.523h-1.837c-.147 0-.265.118-.265.264v1.838c0 .145.118.264.265.264h1.837c.148 0 .266-.119.266-.264v-1.838c0-.146-.118-.264-.266-.264m3.554 0h-1.838c-.146 0-.265.118-.265.264v1.838c0 .145.12.264.265.264h1.838c.147 0 .266-.119.266-.264v-1.838c0-.146-.12-.264-.266-.264m3.554 0H23.1c-.146 0-.266.118-.266.264v1.838c0 .145.12.264.266.264h1.838c.146 0 .266-.119.266-.264v-1.838c0-.146-.12-.264-.266-.264m8.556-.035h-1.84c-.146 0-.264.117-.264.263v1.843c0 .146.118.267.265.267h1.839c.146 0 .264-.12.264-.267v-1.843c0-.146-.118-.263-.264-.263m3.554 0h-1.84c-.146 0-.264.117-.264.263v1.843c0 .146.118.267.265.267h1.839c.146 0 .264-.12.264-.267v-1.843c0-.146-.118-.263-.264-.263m3.552 0h-1.838c-.146 0-.264.117-.264.263v1.843c0 .146.118.267.264.267H40.6c.148 0 .266-.12.266-.267v-1.843c0-.146-.118-.263-.266-.263m-7.106-3.48h-1.84c-.146 0-.264.116-.264.263v1.842c0 .147.118.267.265.267h1.839c.146 0 .264-.12.264-.267v-1.842c0-.147-.118-.264-.264-.264m3.554 0h-1.84c-.146 0-.264.117-.264.264v1.842c0 .147.118.267.265.267h1.839c.146 0 .264-.12.264-.267v-1.842c0-.147-.118-.264-.264-.264m3.552 0h-1.838c-.146 0-.264.117-.264.264v1.842c0 .147.118.267.264.267H40.6c.148 0 .266-.12.266-.267v-1.842c0-.147-.118-.264-.266-.264"/>
            </g>
            <g>
                <g transform="translate(10 13.265) translate(83.258 14.62) translate(.124 31.307)">
                    <path fill="#FFF" fill-rule="nonzero" d="M16.47 3.927c6.928 0 12.544 5.616 12.544 12.543 0 6.928-5.616 12.544-12.544 12.544-6.927 0-12.543-5.616-12.543-12.544 0-6.927 5.616-12.543 12.543-12.543zM16.361 0C7.325 0 0 7.325 0 16.361c0 9.036 7.325 16.362 16.361 16.362 9.036 0 16.362-7.326 16.362-16.362C32.723 7.325 25.397 0 16.36 0z"/>
                    <path fill="#1C9E3B" d="M16.361 1.963C8.41 1.963 1.963 8.41 1.963 16.361c0 7.952 6.447 14.398 14.398 14.398 7.952 0 14.398-6.446 14.398-14.398 0-7.951-6.446-14.398-14.398-14.398"/>
                    <use fill="#FFF" xlink:href="#prefix__c"/>
                </g>
                <g>
                    <path fill="#FFE5D8" d="M4.396 37.675L44.948 37.675 44.95 3.84 4.396 3.84z" transform="translate(10 13.265) translate(83.258 14.62) translate(46.448)"/>
                    <path fill="#FF7000" d="M2.477 37.435v1.919h1.919v1.92H.556v-3.84h1.92zm46.312 0v3.84H44.95v-1.921h1.919v-1.92h1.92zm-36.954 1.92v1.92h-3.84v-1.92h3.84zm7.439 0v1.92h-3.84v-1.92h3.84zm7.679 0v1.92h-3.84v-1.92h3.84zm7.438 0v1.92h-3.839v-1.92h3.84zm7.2 0v1.92h-3.84v-1.92h3.84zm-39.115-9.36v3.84H.556v-3.84h1.92zm46.313 0v3.84h-1.92v-3.84h1.92zM2.476 22.558v3.84H.556v-3.84h1.92zm46.313 0v3.84h-1.92v-3.84h1.92zM2.476 14.878v3.84H.556v-3.84h1.92zm46.313 0v3.84h-1.92v-3.84h1.92zM2.476 7.439v3.84H.556v-3.84h1.92zm46.313 0v3.84h-1.92v-3.84h1.92zM4.396 0v1.92h-1.92v1.92H.557V0h3.84zm44.393 0v3.84h-1.92V1.92H44.95V0h3.84zM11.835 0v1.92h-3.84V0h3.84zm7.439 0v1.92h-3.84V0h3.84zm7.679 0v1.92h-3.84V0h3.84zm7.438 0v1.92h-3.839V0h3.84zm7.2 0v1.92h-3.84V0h3.84z" transform="translate(10 13.265) translate(83.258 14.62) translate(46.448)"/>
                    <path fill="#475059" d="M9.915 9.359h22.557v5.639h-1.88s0-3.759-1.88-3.759h-5.64v16.916s0 1.88 1.88 1.88h1.88v1.88h-5.639l-5.639-.001v-1.88h1.88c1.88 0 1.88-1.88 1.88-1.88l-.001-16.915h-5.64c-1.878 0-1.878 3.759-1.878 3.759h-1.88v-5.64z" transform="translate(10 13.265) translate(83.258 14.62) translate(46.448)"/>
                    <g fill="#4D4F58">
                        <path d="M.596 28.397c-.322 0-.583-.262-.583-.583 0-.323.261-.584.583-.584 1.607 0 2.916-1.31 2.916-2.917V4.483c0-1.607-1.309-2.915-2.916-2.915-.322 0-.583-.262-.583-.584C.013.662.274.4.596.4c2.251 0 4.082 1.832 4.082 4.082v19.83c0 2.252-1.83 4.084-4.082 4.084z" transform="translate(10 13.265) translate(83.258 14.62) translate(46.448) translate(33.737 6.421)"/>
                        <path d="M7.595 28.397c-2.252 0-4.083-1.832-4.083-4.083V4.484c0-2.252 1.831-4.083 4.083-4.083.321 0 .583.261.583.583 0 .322-.262.584-.583.584-1.608 0-2.917 1.309-2.917 2.916v19.83c0 1.608 1.31 2.917 2.917 2.917.321 0 .583.261.583.583 0 .321-.262.583-.583.583z" transform="translate(10 13.265) translate(83.258 14.62) translate(46.448) translate(33.737 6.421)"/>
                        <path d="M6.428 16.731H1.76c-.321 0-.582-.261-.582-.583 0-.321.261-.582.584-.582h4.666c.321 0 .583.261.583.582 0 .322-.262.583-.584.583z" transform="translate(10 13.265) translate(83.258 14.62) translate(46.448) translate(33.737 6.421)"/>
                    </g>
                </g>
                <path fill="#475059" d="M31.569 27.241l-6.96-6.239 6.96-6.24v12.48zm7.28-4.632v-3.31h3.308v3.31h-3.309zm-5.295 0v-3.31h3.309v3.31h-3.309z" transform="translate(10 13.265) translate(83.258 14.62)"/>
            </g>
        </g>
    </g>
</svg>
