<svg xmlns="http://www.w3.org/2000/svg" xmlns:xlink="http://www.w3.org/1999/xlink" width="166" height="20" viewBox="0 0 166 20">
    <defs>
        <path id="prefix__a" d="M0 0H166V20H0z"/>
    </defs>
    <g fill="none" fill-rule="evenodd">
        <mask id="prefix__b" fill="#fff">
            <use xlink:href="#prefix__a"/>
        </mask>
        <g fill-rule="nonzero" mask="url(#prefix__b)">
            <path fill="#C9CACA" d="M5.98 5.616h7.97c.096.001.188.04.255.108L19.612.32c-.205-.206-.483-.32-.773-.319H1.08C.795.001.521.116.32.319l5.407 5.405c.067-.068.159-.107.254-.108z"/>
            <path fill="#F7F8F8" d="M5.618 13.946V5.978c.001-.095.04-.187.108-.254L.32.32C.116.52.001.795 0 1.08v17.751c0 .289.115.565.319.768l5.407-5.405c-.067-.066-.105-.155-.108-.25z"/>
            <path fill="#B5B5B6" d="M13.95 14.308H5.98c-.095-.001-.187-.04-.254-.108L.32 19.605c.203.201.477.314.762.314H18.84c.288 0 .564-.115.767-.319L14.2 14.195c-.065.068-.154.11-.249.113z"/>
            <path fill="#FFF" d="M19.925 18.832V1.082c0-.287-.116-.561-.319-.763L14.2 5.724c.068.067.107.159.108.254v7.968c0 .096-.04.187-.108.254l5.407 5.405c.206-.204.321-.483.32-.773zM33.849 16.757h-.736c-3.52 0-5.077-1.584-5.077-5.043V9.189c0-3.551 1.622-5.06 5.077-5.06h.736c3.46.022 5.083 1.622 5.083 5.06v2.492c0 3.454-1.563 5.076-5.083 5.076zM37.6 9.189c0-2.703-1.324-3.703-3.752-3.703h-.736c-2.444 0-3.785 1-3.785 3.703v2.492c0 2.703 1.325 3.719 3.785 3.719h.736c2.428 0 3.752-1.016 3.752-3.719V9.19zM46.253 16.708h-.644c-1.114.043-2.19-.413-2.936-1.243v3.243h-1.34V7.227h1.335V8.47c.745-.832 1.82-1.293 2.936-1.26h.643c2.477 0 4.105 1.185 4.105 3.628v2.21c.005 2.476-1.53 3.66-4.1 3.66zm2.736-5.638c0-1.784-1.082-2.519-2.828-2.519h-.616c-1.623 0-2.904.952-2.904 2.568v1.708c0 1.622 1.292 2.568 2.904 2.568h.616c1.692 0 2.828-.725 2.828-2.503V11.07zM53.601 12.465v.432c0 1.876 1.082 2.568 2.86 2.568h1.082c1.844 0 2.504-.443 2.736-1.384h1.363c-.292 1.66-1.368 2.627-4.088 2.627h-1.082c-2.92 0-4.196-1.508-4.196-3.843v-1.827c0-2.46 1.693-3.784 4.196-3.784h1.044c2.736 0 4.196 1.227 4.196 3.876v1.351l-8.11-.016zm6.765-1.351c0-1.952-1.044-2.611-2.86-2.611h-1.044c-1.66 0-2.86.692-2.86 2.535v.384h6.764v-.308zM71.293 16.708V10.87c0-1.692-.967-2.308-2.368-2.308h-.849c-1.708 0-2.752.952-2.752 2v6.146h-1.352V7.227h1.352v1.027c.822-.676 1.856-1.04 2.92-1.027h.784c2.32 0 3.601 1.243 3.601 3.41v6.071h-1.336zM89.705 16.692l-5.564-5.406v-1.189h2.877c2.011 0 2.936-.508 2.936-1.935v-.594c0-1.336-.617-2.092-2.569-2.092H82.19v11.232h-1.352V4.184h6.548c3.017 0 3.904 1.227 3.904 3.367v.676c0 2.335-1.4 3.119-4.18 3.119h-1.081l5.456 5.351-1.78-.005zM98.573 16.708h-1.017c-2.628 0-4.093-1.243-4.093-3.676V10.87c0-2.351 1.508-3.686 4.093-3.686h1.017c2.384 0 4.06 1.227 4.06 3.686v2.162c0 2.433-1.551 3.676-4.06 3.676zm2.703-5.686c0-1.752-1.081-2.476-2.844-2.476h-.735c-1.92 0-2.893.784-2.893 2.476v1.908c0 1.751 1.081 2.46 2.893 2.46h.713c1.785 0 2.845-.693 2.845-2.46l.021-1.908zM109.641 16.708h-1.011c-2.628 0-4.093-1.243-4.093-3.676V10.87c0-2.351 1.508-3.686 4.093-3.686h1.017c2.384 0 4.06 1.227 4.06 3.686v2.162c-.005 2.433-1.557 3.676-4.066 3.676zm2.704-5.686c0-1.752-1.082-2.476-2.844-2.476h-.736c-1.92 0-2.893.784-2.893 2.476v1.908c0 1.751 1.082 2.46 2.893 2.46h.736c1.784 0 2.844-.693 2.844-2.46v-1.908zM126.966 16.708v-6.362c.052-.47-.103-.939-.425-1.285-.322-.345-.78-.534-1.252-.515h-.692c-1.46 0-1.86.892-1.86 1.843v6.32h-1.292v-6.347c0-1.324-.6-1.816-1.622-1.816h-.6c-1.217 0-1.877.643-1.877 1.827v6.335h-1.335V7.211h1.325v.832c.529-.54 1.255-.84 2.011-.832h.643c.893-.088 1.765.303 2.293 1.027.537-.704 1.393-1.09 2.276-1.027h1.017c1.568 0 2.736.892 2.736 2.903v6.594h-1.346zM136.769 16.708L136.769 4.184 138.104 4.184 138.104 16.708zM148.389 16.708V10.87c0-1.692-.968-2.308-2.368-2.308h-.844c-1.709 0-2.752.952-2.752 2v6.146h-1.352V7.227h1.352v1.027c.822-.676 1.856-1.04 2.92-1.027h.784c2.32 0 3.6 1.243 3.6 3.41v6.071h-1.34zM156.954 16.724h-1.028c-2.86 0-4.136-1.292-4.136-3.783v-1.892c0-2.352 1.4-3.784 4.136-3.784h1.028c2.86 0 3.969 1.135 4.088 3.427h-1.368c-.152-1.622-1.082-2.108-2.704-2.108h-.984c-1.817 0-2.844.924-2.844 2.551v1.73c0 1.621.951 2.551 2.844 2.551h.984c1.936 0 2.628-.8 2.704-2.119h1.368c-.076 2.379-1.26 3.427-4.088 3.427zM163.686 16.708L163.686 15.005 165.886 15.005 165.886 16.714z"/>
        </g>
    </g>
</svg>
