<svg xmlns="http://www.w3.org/2000/svg" xmlns:xlink="http://www.w3.org/1999/xlink" width="200" height="100" viewBox="0 0 200 100">
    <defs>
        <path id="prefix__a" d="M0 0.158L74.65 0.158 74.65 51.642 0 51.642z"/>
    </defs>
    <g fill="none" fill-rule="evenodd">
        <path fill="#FFF" d="M0 0H200V100H0z"/>
        <path fill="#FFF" d="M0 0H200V100H0z"/>
        <g transform="translate(115 25.144)">
            <mask id="prefix__b" fill="#fff">
                <use xlink:href="#prefix__a"/>
            </mask>
            <path fill="#4D4F58" d="M73.363.158H1.286C.576.158 0 .735 0 1.445v48.91c0 .71.576 1.287 1.286 1.287h72.077c.712 0 1.287-.577 1.287-1.287V1.445c0-.71-.575-1.287-1.287-1.287m0 .908c.21 0 .38.17.38.38v48.909c0 .208-.17.378-.38.378H1.286c-.207 0-.378-.17-.378-.378V1.445c0-.21.17-.38.378-.38h72.077" mask="url(#prefix__b)"/>
            <path fill="#4D4F58" d="M34.715 7.88H6.471c-.374 0-.679-.302-.679-.68v-.569c0-.377.305-.68.679-.68h28.244c.375 0 .68.303.68.68v.57c0 .377-.305.68-.68.68M68.26 12.385H39.855c-.332 0-.599-.267-.599-.599V5.262c0-.33.267-.6.6-.6H68.26c.332 0 .6.27.6.6v6.524c0 .332-.268.6-.6.6"/>
            <path fill="#93C256" d="M68.26 22.683H39.855c-.332 0-.599-.267-.599-.6v-6.525c0-.329.267-.598.6-.598H68.26c.332 0 .6.27.6.598v6.525c0 .333-.268.6-.6.6"/>
            <path fill="#FF7000" d="M68.26 47.137H6.39c-.33 0-.6-.267-.6-.6v-6.524c0-.33.27-.6.6-.6h61.87c.332 0 .6.27.6.6v6.525c0 .332-.268.599-.6.599"/>
            <path fill="#DBDBDD" d="M52.172 36.197H39.855c-.332 0-.599-.267-.599-.6v-9.099c0-.33.267-.599.6-.599h12.316c.33 0 .598.27.598.6v9.099c0 .332-.267.599-.598.599"/>
            <path fill="#1C9E3B" d="M68.26 36.197H55.944c-.332 0-.599-.267-.599-.6v-9.099c0-.33.267-.599.6-.599H68.26c.332 0 .6.27.6.6v9.099c0 .332-.268.599-.6.599"/>
            <path fill="#4D4F58" d="M34.715 11.742H6.471c-.374 0-.679-.304-.679-.68v-.57c0-.377.305-.68.679-.68h28.244c.375 0 .68.303.68.68v.57c0 .376-.305.68-.68.68M34.796 36.197H6.391c-.332 0-.599-.267-.599-.6V15.559c0-.329.267-.598.6-.598h28.404c.331 0 .6.27.6.598v20.04c0 .332-.269.599-.6.599"/>
            <path fill="#FEFEFE" d="M19.636 21.096l-.001 11.575c0 .106-.087.194-.193.194h-3.494c-.106 0-.192-.088-.192-.194V30.17c0-.107-.087-.192-.194-.192h-1.337c-.107 0-.194.085-.194.192v2.5c0 .107-.086.195-.193.195h-3.494c-.106 0-.192-.088-.192-.194V21.095c0-.106.086-.193.192-.193h9.098c.107 0 .194.087.194.194m11.399-3.255v14.83c0 .106-.088.194-.194.194h-3.493c-.108 0-.194-.088-.194-.194v-2.508c0-.106-.086-.193-.193-.193h-1.338c-.106 0-.193.087-.193.193v2.508c0 .106-.086.194-.193.194h-3.493c-.107 0-.193-.088-.193-.194V17.84c0-.106.086-.193.193-.193h9.097c.107 0 .194.087.194.193m-18.058 9.551h-1.338c-.107 0-.193.087-.193.195v1.336c0 .107.086.191.193.191h1.338c.107 0 .193-.084.193-.191v-1.336c0-.108-.086-.195-.193-.195m2.586 0h-1.338c-.106 0-.193.087-.193.195v1.336c0 .107.087.191.193.191h1.338c.106 0 .193-.084.193-.191v-1.336c0-.108-.087-.195-.193-.195m2.586 0h-1.337c-.107 0-.194.087-.194.195v1.336c0 .107.087.191.194.191h1.337c.107 0 .194-.084.194-.191v-1.336c0-.108-.087-.195-.194-.195m6.227-.012h-1.339c-.106 0-.192.086-.192.192v1.341c0 .107.086.193.192.193h1.339c.106 0 .193-.086.193-.193v-1.34c0-.107-.087-.193-.193-.193m2.586 0h-1.338c-.107 0-.193.086-.193.192v1.341c0 .107.086.193.193.193h1.338c.107 0 .193-.086.193-.193v-1.34c0-.107-.086-.193-.193-.193m2.586 0H28.21c-.106 0-.192.086-.192.192v1.341c0 .107.086.193.192.193h1.338c.107 0 .193-.086.193-.193v-1.34c0-.107-.086-.193-.193-.193m-16.571-2.57h-1.338c-.107 0-.193.084-.193.191v1.336c0 .107.086.194.193.194h1.338c.107 0 .193-.087.193-.194v-1.336c0-.107-.086-.192-.193-.192m2.586 0h-1.338c-.106 0-.193.085-.193.192v1.336c0 .107.087.194.193.194h1.338c.106 0 .193-.087.193-.194v-1.336c0-.107-.087-.192-.193-.192m2.586 0h-1.337c-.107 0-.194.085-.194.192v1.336c0 .107.087.194.194.194h1.337c.107 0 .194-.087.194-.194v-1.336c0-.107-.087-.192-.194-.192m6.227-.02h-1.339c-.106 0-.192.087-.192.194v1.34c0 .106.086.192.192.192h1.339c.106 0 .193-.086.193-.191v-1.341c0-.107-.087-.195-.193-.195m2.586 0h-1.338c-.107 0-.193.088-.193.195v1.34c0 .106.086.192.193.192h1.338c.107 0 .193-.086.193-.191v-1.341c0-.107-.086-.195-.193-.195m2.586 0H28.21c-.106 0-.192.088-.192.195v1.34c0 .106.086.192.192.192h1.338c.107 0 .193-.086.193-.191v-1.341c0-.107-.086-.195-.193-.195m-16.571-2.564h-1.338c-.107 0-.193.086-.193.192v1.338c0 .106.086.192.193.192h1.338c.107 0 .193-.086.193-.192v-1.338c0-.106-.086-.192-.193-.192m2.586 0h-1.338c-.106 0-.193.086-.193.192v1.338c0 .106.087.192.193.192h1.338c.106 0 .193-.086.193-.192v-1.338c0-.106-.087-.192-.193-.192m2.586 0h-1.337c-.107 0-.194.086-.194.192v1.338c0 .106.087.192.194.192h1.337c.107 0 .194-.086.194-.192v-1.338c0-.106-.087-.192-.194-.192m6.227-.026h-1.339c-.106 0-.192.086-.192.192v1.341c0 .107.086.195.192.195h1.339c.106 0 .193-.088.193-.195v-1.34c0-.107-.087-.193-.193-.193m2.586 0h-1.338c-.107 0-.193.086-.193.192v1.341c0 .107.086.195.193.195h1.338c.107 0 .193-.088.193-.195v-1.34c0-.107-.086-.193-.193-.193m2.586 0H28.21c-.106 0-.192.086-.192.192v1.341c0 .107.086.195.192.195h1.338c.107 0 .193-.088.193-.195v-1.34c0-.107-.086-.193-.193-.193m-5.172-2.533h-1.339c-.106 0-.192.086-.192.192v1.341c0 .107.086.194.192.194h1.339c.106 0 .193-.087.193-.194v-1.34c0-.107-.087-.193-.193-.193m2.586 0h-1.338c-.107 0-.193.086-.193.192v1.341c0 .107.086.194.193.194h1.338c.107 0 .193-.087.193-.194v-1.34c0-.107-.086-.193-.193-.193m2.586 0H28.21c-.106 0-.192.086-.192.192v1.341c0 .107.086.194.192.194h1.338c.107 0 .193-.087.193-.194v-1.34c0-.107-.086-.193-.193-.193"/>
        </g>
        <g transform="translate(10 11)">
            <rect width="76" height="10" x="20" y="2" fill="#FF7000" rx="1"/>
            <path fill="#FFF" fill-rule="nonzero" d="M51.418 9.513V8.465h-.974V4.102h-.953c-.378.233-.756.378-1.338.487v.8h.996v3.076H48v1.048h3.418zm2.655.102c1.142 0 1.92-.975 1.92-2.837 0-1.847-.778-2.778-1.92-2.778s-1.913.916-1.913 2.778.77 2.837 1.913 2.837zm0-1.004c-.386 0-.691-.35-.691-1.833 0-1.476.305-1.782.69-1.782.386 0 .699.306.699 1.782 0 1.484-.313 1.833-.698 1.833zm5.854-2.735c.437 0 .771-.334.771-.756 0-.436-.334-.77-.77-.77-.437 0-.772.334-.772.77 0 .422.335.756.771.756zm0 3.419c.437 0 .771-.335.771-.757 0-.436-.334-.77-.77-.77-.437 0-.772.334-.772.77 0 .422.335.757.771.757zm7.622.218V8.465h-.974V4.102h-.953c-.378.233-.757.378-1.338.487v.8h.996v3.076h-1.15v1.048h3.42z"/>
            <rect width="76" height="20" x="20" y="19" fill="#FF7000" rx="1"/>
            <path fill="#FFF" fill-rule="nonzero" d="M51.418 31.513v-1.048h-.974v-4.363h-.953c-.378.233-.756.378-1.338.487v.8h.996v3.076H48v1.048h3.418zm2.655.102c1.142 0 1.92-.975 1.92-2.837 0-1.847-.778-2.778-1.92-2.778s-1.913.916-1.913 2.778.77 2.837 1.913 2.837zm0-1.004c-.386 0-.691-.35-.691-1.833 0-1.476.305-1.782.69-1.782.386 0 .699.306.699 1.782 0 1.484-.313 1.833-.698 1.833zm5.854-2.735c.437 0 .771-.334.771-.756 0-.436-.334-.77-.77-.77-.437 0-.772.334-.772.77 0 .422.335.756.771.756zm0 3.419c.437 0 .771-.335.771-.757 0-.436-.334-.77-.77-.77-.437 0-.772.334-.772.77 0 .422.335.757.771.757zm7.695.218v-1.091h-.997c-.24 0-.61.036-.88.073.83-.837 1.63-1.862 1.63-2.793 0-1.033-.728-1.702-1.775-1.702-.77 0-1.265.276-1.796.836l.705.699c.255-.277.546-.524.916-.524.43 0 .706.269.706.764 0 .785-.91 1.767-2.262 2.996v.742h3.753z"/>
            <rect width="76" height="30" x="20" y="46" fill="#FF7000" rx="1"/>
            <path fill="#FFF" fill-rule="nonzero" d="M51.418 63.513v-1.048h-.974v-4.363h-.953c-.378.233-.756.378-1.338.487v.8h.996v3.076H48v1.048h3.418zm2.655.102c1.142 0 1.92-.975 1.92-2.837 0-1.847-.778-2.778-1.92-2.778s-1.913.916-1.913 2.778.77 2.837 1.913 2.837zm0-1.004c-.386 0-.691-.35-.691-1.833 0-1.476.305-1.782.69-1.782.386 0 .699.306.699 1.782 0 1.484-.313 1.833-.698 1.833zm5.854-2.735c.437 0 .771-.334.771-.756 0-.436-.334-.77-.77-.77-.437 0-.772.334-.772.77 0 .422.335.756.771.756zm0 3.419c.437 0 .771-.335.771-.757 0-.436-.334-.77-.77-.77-.437 0-.772.334-.772.77 0 .422.335.757.771.757zm5.666.32c1.076 0 2-.568 2-1.579 0-.698-.444-1.134-1.048-1.316v-.036c.582-.233.873-.655.873-1.193 0-.967-.734-1.491-1.854-1.491-.64 0-1.179.247-1.68.67l.654.792c.327-.284.604-.451.967-.451.4 0 .619.204.619.574 0 .43-.291.713-1.215.713v.91c1.135 0 1.382.276 1.382.741 0 .407-.327.618-.83.618-.421 0-.8-.21-1.126-.523l-.597.814c.393.458.997.757 1.855.757z"/>
            <circle cx="7.03" cy="7.03" r="7.03" fill="#93C256"/>
            <path fill="#FFF" fill-rule="nonzero" d="M8.801 9.697V8.65h-.974V4.286h-.953c-.378.233-.756.378-1.338.487v.8h.996V8.65H5.383v1.047h3.418z"/>
            <circle cx="7.03" cy="29.03" r="7.03" fill="#93C256"/>
            <path fill="#FFF" fill-rule="nonzero" d="M8.874 31.697v-1.09h-.996c-.24 0-.611.035-.88.072.829-.837 1.629-1.862 1.629-2.793 0-1.033-.728-1.702-1.775-1.702-.77 0-1.265.277-1.796.837l.705.698c.255-.277.546-.524.917-.524.429 0 .705.27.705.764 0 .785-.91 1.767-2.262 2.996v.742h3.753z"/>
            <circle cx="7.03" cy="61.03" r="7.03" fill="#93C256"/>
            <path fill="#FFF" fill-rule="nonzero" d="M6.845 63.799c1.076 0 2-.567 2-1.578 0-.699-.444-1.135-1.047-1.317v-.036c.581-.233.872-.655.872-1.193 0-.967-.734-1.49-1.854-1.49-.64 0-1.178.247-1.68.668l.654.793c.328-.284.604-.45.968-.45.4 0 .618.203.618.574 0 .429-.291.712-1.215.712v.91c1.135 0 1.382.276 1.382.741 0 .408-.327.619-.83.619-.42 0-.8-.211-1.126-.524l-.597.814c.393.459.997.757 1.855.757z"/>
        </g>
    </g>
</svg>
