<svg xmlns="http://www.w3.org/2000/svg" width="59" height="59" viewBox="0 0 59 59">
    <defs>
        <filter id="a" width="135.6%" height="135.6%" x="-17.8%" y="-17.8%" filterUnits="objectBoundingBox">
            <feOffset in="SourceAlpha" result="shadowOffsetOuter1"/>
            <feGaussianBlur in="shadowOffsetOuter1" result="shadowBlurOuter1" stdDeviation="2.5"/>
            <feColorMatrix in="shadowBlurOuter1" result="shadowMatrixOuter1" values="0 0 0 0 0 0 0 0 0 0 0 0 0 0 0 0 0 0 0.298049607 0"/>
            <feMerge>
                <feMergeNode in="shadowMatrixOuter1"/>
                <feMergeNode in="SourceGraphic"/>
            </feMerge>
        </filter>
    </defs>
    <path fill="#FFF" fill-rule="evenodd" d="M29.412 2.94c14.62 0 26.47 11.845 26.47 26.457 0 14.611-11.85 26.456-26.47 26.456S2.942 44.008 2.942 29.397c0-14.612 11.85-26.457 26.47-26.457zm-4.883 16.908a1 1 0 0 0-1 1v17.097a1 1 0 0 0 1.504.864l14.662-8.549a1 1 0 0 0 0-1.727l-14.662-8.549a1 1 0 0 0-.504-.136z" filter="url(#a)"/>
</svg>
