<svg xmlns="http://www.w3.org/2000/svg" width="340" height="200" viewBox="0 0 340 200">
    <defs>
        <path id="a" d="M0 0h340v199.991H0z"/>
    </defs>
    <g fill="none" fill-rule="evenodd">
        <path stroke="#C1C1C1" d="M.5.5h339v198.991H.5z"/>
        <g transform="translate(75 34)">
            <path fill="#475059" fill-rule="nonzero" d="M188.142 132.93H1.412a1.245 1.245 0 0 1-1.244-1.244L0 1.246A1.245 1.245 0 0 1 1.245 0h186.73c.686 0 1.244.557 1.244 1.244l.168 130.438c0 .688-.556 1.246-1.244 1.247h-.001zm-2.46-130.346H3.337A1.245 1.245 0 0 0 2.091 3.83l.16 125.51c.001.686.558 1.243 1.246 1.243h182.346c.688 0 1.245-.558 1.245-1.245v-.002l-.16-125.51c0-.687-.558-1.243-1.245-1.243z"/>
            <rect width="74.33" height="4.475" x="15.65" y="15.661" fill="#475059" rx="1.952"/>
            <rect width="74.33" height="4.475" x="15.65" y="29.085" fill="#475059" rx="1.952"/>
            <path fill="#475059" d="M16.611 94.168h72.67a.83.83 0 0 0 .83-.83V40.556a.83.83 0 0 0-.83-.83h-72.67a.83.83 0 0 0-.83.83v52.782c0 .458.372.83.83.83z"/>
            <path fill="#FFF" d="M50.313 55.88l-.002 29.428h-9.544v-7.104h-4.241v7.104h-9.544V55.879h23.331zm28.044-8.005l-.002 37.433H68.81v-7.12h-4.24v7.12h-9.545V47.875h23.332zm-43.95 23.97h-4.242v4.239h4.241v-4.238zm6.362 0h-4.241v4.239h4.241v-4.238zm6.363 0H42.89v4.239h4.24v-4.238zm15.318-.031h-4.242v4.248h4.242v-4.248zm6.362 0h-4.24v4.248h4.24v-4.248zm6.363 0h-4.24v4.248h4.24v-4.248zm-40.769-6.326h-4.241v4.238h4.241v-4.238zm6.363 0h-4.241v4.238h4.241v-4.238zm6.363 0H42.89v4.238h4.24v-4.238zm15.318-.048h-4.242v4.248h4.242V65.44zm6.362 0h-4.24v4.248h4.24V65.44zm6.363 0h-4.24v4.248h4.24V65.44zm-40.769-6.31h-4.241v4.238h4.241V59.13zm6.363 0h-4.241v4.238h4.241V59.13zm6.363 0H42.89v4.238h4.24V59.13zm15.318-.064h-4.242v4.248h4.242v-4.248zm6.362 0h-4.24v4.248h4.24v-4.248zm6.363 0h-4.24v4.248h4.24v-4.248zM62.45 52.833h-4.242v4.249h4.242v-4.249zm6.362 0h-4.24v4.249h4.24v-4.249zm6.363 0h-4.24v4.249h4.24v-4.249z"/>
            <rect width="76.876" height="17.899" x="97.748" y="15.661" fill="#475059" rx=".83"/>
            <rect width="158.843" height="17.899" x="15.65" y="101.426" fill="#475059" rx=".83"/>
            <rect width="76.876" height="17.899" x="97.748" y="40.272" fill="#9ED656" rx=".83"/>
            <rect width="34.62" height="29.831" x="140.005" y="64.883" fill="#1C9E3B" rx=".83"/>
            <rect width="34.62" height="29.831" x="97.748" y="64.883" fill="#BAC2C8" rx=".83"/>
            <path fill="#FFF" d="M15.354 82.424H172.93v35.96H15.354z"/>
            <path stroke="#FF7000" stroke-linejoin="round" stroke-width="2.773" d="M16.564 82.198H174.14v36.558H16.564z"/>
            <path fill="#FFF" stroke="#FF7000" stroke-width="2.311" d="M168.159 77.576h9.665v9.665h-9.665zM168.159 114.133h9.665v9.665h-9.665zM99.246 77.576h9.665v9.665h-9.665zM168.159 95.644h9.665v9.665h-9.665zM99.246 113.713h9.665v9.665h-9.665zM12.136 77.576h9.665v9.665h-9.665zM12.136 113.713h9.665v9.665h-9.665zM11.716 95.644h9.665v9.665h-9.665z"/>
            <path fill="#475059" fill-rule="nonzero" d="M38.264 107.05a6.754 6.754 0 0 0 6.75-6.75 6.754 6.754 0 0 0-6.75-6.748 6.754 6.754 0 0 0-6.749 6.749 6.754 6.754 0 0 0 6.75 6.749zm0-2.182a4.575 4.575 0 0 1-4.567-4.567 4.575 4.575 0 0 1 4.567-4.568 4.575 4.575 0 0 1 4.568 4.568 4.575 4.575 0 0 1-4.568 4.567zm14.546 2.182a6.754 6.754 0 0 0 6.749-6.75 6.754 6.754 0 0 0-6.75-6.748 6.754 6.754 0 0 0-6.748 6.749 6.754 6.754 0 0 0 6.749 6.749zm0-2.182a4.575 4.575 0 0 1-4.568-4.567 4.575 4.575 0 0 1 4.568-4.568 4.575 4.575 0 0 1 4.567 4.568 4.575 4.575 0 0 1-4.567 4.567zm11.607-6.473v-.393h1.31c-.06.073-.103.146-.146.204.45.233 1.28.756 1.643 1.062.291-.436.553-.975.786-1.571h1.12v1.673h-3.04v1.6l-.028-.048c-.277-.474-1.238-1.994-1.645-2.527zm1.673 2.575v.305h2.152c-.727 1.498-1.876 2.895-3.2 3.695.451.378 1.091 1.12 1.411 1.614 1.062-.77 1.95-1.89 2.677-3.185v3.81h2.065v-3.825c.51 1.222 1.135 2.328 1.833 3.113.349-.538 1.047-1.28 1.527-1.658-.96-.844-1.862-2.197-2.443-3.564h2.036V99.37h-2.953v-1.673h2.662v-1.905h-2.662v-2.4H69.13v2.4h-.553c.102-.437.175-.873.247-1.324l-1.92-.335c-.16 1.237-.465 2.502-.945 3.448v-1.528h-1.542v-2.661h-2.065v2.661h-1.775v1.95h1.658c-.378 1.629-1.105 3.534-1.963 4.61.334.582.785 1.557.974 2.168.407-.626.786-1.455 1.106-2.386v4.815h2.065v-6.037c.19.437.35.859.465 1.193l1.208-1.396zm20.305 6.24c1.527 0 2.226-.64 2.531-3.55-.596-.218-1.367-.741-1.847-1.236-.073 1.775-.233 2.56-.495 2.56-.858 0-1.614-3.258-1.89-7.185h3.81v-2.066H87.24l1.018-.872c-.393-.466-1.207-1.106-1.818-1.528l-1.397 1.15c.466.349 1.019.829 1.411 1.25h-1.847a39.847 39.847 0 0 1 .015-2.283h-2.284c0 .756.015 1.527.03 2.283H75.34V97.8h7.127c.32 5.033 1.353 9.41 3.927 9.41zm-10.53-.393c1.905-.378 4.436-.873 6.777-1.367l-.145-1.877c-.83.146-1.673.277-2.502.408v-2.764h2.138v-2.036h-6.225v2.036h1.978v3.098c-.974.146-1.876.277-2.589.364l.567 2.138zm14.836-6.88c.829-.378 1.643-.858 2.385-1.367v1.076h6.75v-1.193c.77.51 1.57.975 2.341 1.324.378-.64.844-1.396 1.367-1.935a12.274 12.274 0 0 1-6.05-4.421h-2.24c-1.048 1.643-3.317 3.694-5.804 4.741.436.451 1.003 1.266 1.25 1.775zm8.087-2.225h-4.553c.902-.742 1.673-1.528 2.226-2.27.552.757 1.381 1.542 2.327 2.27zm1.847 9.498l1.978-1.193c-.64-1.047-1.861-2.444-3.069-3.535h3.011v-1.963H90.44v1.963h3.127a19.093 19.093 0 0 1-.858 2.197c-.815.029-1.556.058-2.226.073l.277 2.065c2.487-.116 6.007-.276 9.353-.465.203.305.392.596.523.858zm-5.57-2.604c.363-.669.741-1.41 1.105-2.124h2.836l-1.542.8c.378.364.771.771 1.15 1.193-1.193.044-2.4.087-3.55.131zm13.41 2.618v-5.163c.378.465.742.93 1.004 1.294l1.28-1.716c-.291-.291-1.338-1.222-2.037-1.79a14.148 14.148 0 0 0 1.615-3.083l-1.178-.77-.364.072h-.32v-2.662h-2.094v2.662h-1.964v1.905h3.244c-.902 1.542-2.313 2.91-3.811 3.68.305.408.8 1.47.974 2.037a11.1 11.1 0 0 0 1.557-1.164v4.698h2.094zm9.557-.422v-2.08h-2.953v-4.93h2.589v-2.037h-2.59v-4.203h-2.181v4.203h-2.575v2.037h2.575v4.93h-3.185v2.08h8.32zM136.895 102.204c.888 0 1.542-.712 1.542-1.614 0-.887-.654-1.6-1.542-1.6-.887 0-1.541.713-1.541 1.6 0 .902.654 1.614 1.541 1.614zm5.557 0c.887 0 1.542-.712 1.542-1.614 0-.887-.655-1.6-1.542-1.6-.888 0-1.542.713-1.542 1.6 0 .902.654 1.614 1.542 1.614zm5.556 0c.887 0 1.542-.712 1.542-1.614 0-.887-.655-1.6-1.542-1.6s-1.542.713-1.542 1.6c0 .902.655 1.614 1.542 1.614z"/>
        </g>
    </g>
</svg>
