<svg xmlns="http://www.w3.org/2000/svg" xmlns:xlink="http://www.w3.org/1999/xlink" width="340" height="200" viewBox="0 0 340 200">
    <defs>
        <path id="a" d="M0 0h340v199.991H0z"/>
        <path id="c" d="M14.804 1.834V15.73l-4.047-4.014-1.916 1.915 7.336 7.281 7.23-7.28-1.88-1.916-4.011 4.014V1.834h-2.712zm13.12 14.455v9.94H4.43v-9.94H1.72v10.617c0 1.116.9 2.023 2.014 2.032h24.85a2.029 2.029 0 0 0 1.448-.588c.386-.386.602-.904.602-1.444V16.289h-2.711z"/>
    </defs>
    <g fill="none" fill-rule="evenodd">
        <mask id="b" fill="#fff">
            <use xlink:href="#a"/>
        </mask>
        <path stroke="#C1C1C1" d="M.5.5h339v198.991H.5z"/>
        <g mask="url(#b)">
            <path fill="#E5F0E4" d="M189.45 126.557H53.557c-.8 0-1.447-.647-1.447-1.447V47.041c0-.795.647-1.446 1.447-1.446H189.45c.797 0 1.444.65 1.444 1.446v78.07c0 .799-.647 1.446-1.444 1.446"/>
            <path stroke="#E5F0E4" d="M189.45 126.557H53.557c-.8 0-1.447-.647-1.447-1.447V47.041c0-.795.647-1.446 1.447-1.446H189.45c.797 0 1.444.65 1.444 1.446v78.07c0 .799-.647 1.446-1.444 1.446z"/>
            <path stroke="#3F8A37" stroke-dasharray="4,3" stroke-width="2" d="M189.45 126.557H53.557c-.8 0-1.447-.647-1.447-1.447V47.041c0-.795.647-1.446 1.447-1.446H189.45c.797 0 1.444.65 1.444 1.446v78.07c0 .799-.647 1.446-1.444 1.446z"/>
            <path fill="#FEFEFE" d="M158.75 173.186h138.785V77.471H158.749z"/>
            <path fill="#4D4F58" d="M295.142 77.471h-134a2.392 2.392 0 0 0-2.393 2.393v90.927a2.394 2.394 0 0 0 2.393 2.395h134a2.394 2.394 0 0 0 2.393-2.395V79.864a2.392 2.392 0 0 0-2.393-2.393m0 1.69c.387 0 .703.311.703.703v90.927c0 .39-.316.706-.703.706h-134a.706.706 0 0 1-.704-.706V79.864c0-.392.316-.704.704-.704h134"/>
            <path fill="#4D4F58" d="M222.91 91.829h-51.752a1.64 1.64 0 0 1-1.64-1.642v-.306c0-.906.734-1.643 1.64-1.643h51.753c.905 0 1.642.737 1.642 1.643v.306c0 .907-.737 1.642-1.642 1.642M285.321 100.204h-52.144a1.447 1.447 0 0 1-1.447-1.446V87.293c0-.8.649-1.447 1.447-1.447h52.144c.798 0 1.445.647 1.445 1.447v11.465c0 .8-.647 1.446-1.445 1.446"/>
            <path fill="#93C256" d="M285.321 119.347h-52.144a1.447 1.447 0 0 1-1.447-1.446v-11.465c0-.8.649-1.447 1.447-1.447h52.144c.798 0 1.445.647 1.445 1.447V117.9c0 .8-.647 1.446-1.445 1.446"/>
            <path fill="#4D4F58" d="M285.321 164.81H170.962a1.447 1.447 0 0 1-1.446-1.446V151.9c0-.8.649-1.447 1.446-1.447h114.36c.797 0 1.444.647 1.444 1.447v11.464c0 .8-.647 1.447-1.445 1.447"/>
            <path fill="#DBDBDD" d="M255.41 144.47h-22.234a1.444 1.444 0 0 1-1.444-1.444v-16.253c0-.797.647-1.446 1.444-1.446h22.234c.798 0 1.445.649 1.445 1.446v16.253c0 .798-.647 1.444-1.445 1.444"/>
            <path fill="#3F8A37" d="M285.321 144.47h-22.234c-.8 0-1.444-.646-1.444-1.444v-16.253c0-.797.645-1.446 1.444-1.446h22.234c.798 0 1.445.649 1.445 1.446v16.253c0 .798-.647 1.444-1.445 1.444"/>
            <path fill="#4D4F58" d="M222.91 99.007h-51.752a1.64 1.64 0 0 1-1.64-1.643v-.306c0-.905.734-1.64 1.64-1.64h51.753c.905 0 1.642.735 1.642 1.64v.306c0 .908-.737 1.643-1.642 1.643M223.107 144.47h-52.145a1.446 1.446 0 0 1-1.446-1.444v-36.594c0-.795.649-1.444 1.446-1.444h52.145c.8 0 1.444.649 1.444 1.444v36.594c0 .798-.644 1.444-1.444 1.444"/>
            <path fill="#FEFEFE" d="M195.255 116.396l-.002 21.52a.36.36 0 0 1-.359.36h-6.493a.36.36 0 0 1-.361-.36v-4.649c0-.2-.16-.359-.357-.359h-2.49a.357.357 0 0 0-.356.36v4.649a.361.361 0 0 1-.361.359h-6.494a.36.36 0 0 1-.359-.36v-21.52c0-.2.161-.359.36-.359h16.913c.198 0 .36.16.36.36m21.19-6.051l-.001 27.57c0 .198-.16.36-.36.36h-6.493a.36.36 0 0 1-.359-.36v-4.66c0-.2-.16-.36-.359-.36h-2.487c-.2 0-.359.16-.359.36v4.66a.36.36 0 0 1-.36.36h-6.494a.36.36 0 0 1-.36-.36v-27.57c0-.198.162-.361.36-.361h16.914c.198 0 .359.163.359.36m-33.573 17.757h-2.486a.358.358 0 0 0-.36.36v2.484c0 .198.162.36.36.36h2.486a.361.361 0 0 0 .36-.36v-2.485c0-.2-.162-.359-.36-.359m4.81 0h-2.488a.358.358 0 0 0-.36.36v2.484c0 .198.162.36.36.36h2.489a.36.36 0 0 0 .357-.36v-2.485c0-.2-.16-.359-.357-.359m4.808 0h-2.489a.358.358 0 0 0-.359.36v2.484c0 .198.161.36.36.36h2.488a.36.36 0 0 0 .357-.36v-2.485c0-.2-.16-.359-.357-.359m11.573-.022h-2.487a.358.358 0 0 0-.359.357v2.492c0 .2.161.36.36.36h2.486c.2 0 .361-.16.361-.36v-2.492a.358.358 0 0 0-.361-.357m4.81 0h-2.487c-.2 0-.36.159-.36.357v2.492c0 .2.16.36.36.36h2.487c.198 0 .36-.16.36-.36v-2.492a.358.358 0 0 0-.36-.357m4.809 0h-2.49a.356.356 0 0 0-.356.357v2.492c0 .2.159.36.357.36h2.489c.197 0 .357-.16.357-.36v-2.492a.356.356 0 0 0-.357-.357m-30.81-4.782h-2.487a.36.36 0 0 0-.36.359v2.485a.36.36 0 0 0 .36.359h2.486a.36.36 0 0 0 .36-.36v-2.484a.36.36 0 0 0-.36-.36m4.81 0h-2.488a.36.36 0 0 0-.36.36v2.485a.36.36 0 0 0 .36.359h2.489a.358.358 0 0 0 .357-.36v-2.484a.358.358 0 0 0-.357-.36m4.808 0h-2.489a.36.36 0 0 0-.359.36v2.485a.36.36 0 0 0 .36.359h2.488a.358.358 0 0 0 .357-.36v-2.484a.358.358 0 0 0-.357-.36m11.573-.036h-2.487a.36.36 0 0 0-.359.36v2.492c0 .198.161.357.36.357h2.486c.2 0 .361-.16.361-.357v-2.493a.36.36 0 0 0-.361-.359m4.81 0h-2.487a.36.36 0 0 0-.36.36v2.492c0 .198.16.357.36.357h2.487c.198 0 .36-.16.36-.357v-2.493a.36.36 0 0 0-.36-.359m4.809 0h-2.49a.358.358 0 0 0-.356.36v2.492c0 .198.159.357.357.357h2.489c.197 0 .357-.16.357-.357v-2.493a.358.358 0 0 0-.357-.359m-30.81-4.77h-2.487a.359.359 0 0 0-.36.362v2.484a.36.36 0 0 0 .36.36h2.486a.36.36 0 0 0 .36-.36v-2.484a.359.359 0 0 0-.36-.361m4.81 0h-2.488a.359.359 0 0 0-.36.36v2.485a.36.36 0 0 0 .36.36h2.489a.358.358 0 0 0 .357-.36v-2.484a.357.357 0 0 0-.357-.361m4.808 0h-2.489a.359.359 0 0 0-.359.36v2.485a.36.36 0 0 0 .36.36h2.488a.358.358 0 0 0 .357-.36v-2.484a.357.357 0 0 0-.357-.361m11.573-.047h-2.487a.36.36 0 0 0-.359.359v2.493a.36.36 0 0 0 .36.359h2.486a.36.36 0 0 0 .361-.36v-2.492a.36.36 0 0 0-.361-.36m4.81 0h-2.487a.36.36 0 0 0-.36.36v2.493a.36.36 0 0 0 .36.359h2.487a.36.36 0 0 0 .36-.36v-2.492a.36.36 0 0 0-.36-.36m4.809 0h-2.49a.358.358 0 0 0-.356.36v2.493c0 .197.159.359.357.359h2.489a.358.358 0 0 0 .357-.36v-2.492a.358.358 0 0 0-.357-.36m-9.62-4.71h-2.486a.358.358 0 0 0-.359.36v2.494c0 .194.161.36.36.36h2.486c.2 0 .361-.166.361-.36v-2.495c0-.2-.161-.359-.361-.359m4.81 0h-2.487c-.2 0-.36.16-.36.36v2.494c0 .194.16.36.36.36h2.487a.362.362 0 0 0 .36-.36v-2.495c0-.2-.162-.359-.36-.359m4.809 0h-2.49a.357.357 0 0 0-.356.36v2.494c0 .194.159.36.357.36h2.489a.36.36 0 0 0 .357-.36v-2.495c0-.2-.16-.359-.357-.359"/>
            <path fill="#408537" d="M133.908 99.63h-24.847a2.033 2.033 0 0 1-2.015-2.032V86.982h2.71v9.94h23.493v-9.94h2.71v10.616c0 .543-.217 1.06-.602 1.445a2.043 2.043 0 0 1-1.449.587zm-7.056-17.22l-4.013 4.01V72.524h-2.709v13.894l-4.05-4.008-1.915 1.913 7.338 7.28 7.228-7.28-1.879-1.913z"/>
            <g transform="translate(105.325 70.692)">
                <mask id="d" fill="#fff">
                    <use xlink:href="#c"/>
                </mask>
                <path fill="#408537" d="M-2.797 33.456h37.95V-2.687h-37.95z" mask="url(#d)"/>
            </g>
            <g>
                <path fill="#FEFEFE" d="M304.974 78.348l-5.532-8.754c-.986-1.559-2.44-2.138-4.097-1.418-.844.506-1.01.873-1.275 1.481a3.34 3.34 0 0 0-5.869.782 3.343 3.343 0 0 0-3.88-.223 3.342 3.342 0 0 0-1.328 4.027 3.343 3.343 0 0 0-2.999 5.118l1.775 2.808-.581 2.576c-.804 3.562 1.442 7.116 5.006 7.92l7.077 1.597a8.054 8.054 0 0 0 6.108-1.055l3.113-1.966c2.17-1.375 3.168-3.13 3.735-5.637a9.556 9.556 0 0 0-1.253-7.256"/>
                <path fill="#4D4F58" d="M301.706 89.996l-3.111 1.966a6.594 6.594 0 0 1-5 .863l-7.077-1.597a5.16 5.16 0 0 1-3.894-6.16l.257-1.141 1.275 2.022a.738.738 0 0 0 1.016.228.744.744 0 0 0 .228-1.016l-4.161-6.585a1.857 1.857 0 0 1-.241-1.408c.108-.483.402-.9.822-1.165.842-.534 2.042-.263 2.574.58l1.382 2.185a.731.731 0 0 0 1.013.224.725.725 0 0 0 .327-.457.744.744 0 0 0-.096-.557l-2.493-3.943a1.869 1.869 0 0 1 .581-2.575 1.868 1.868 0 0 1 2.575.58l2.493 3.947a.734.734 0 0 0 1.338-.232.734.734 0 0 0-.094-.557l-1.658-2.624a1.851 1.851 0 0 1-.243-1.405c.11-.488.402-.902.824-1.17a1.873 1.873 0 0 1 2.575.58l1.658 2.628a.74.74 0 0 0 1.016.228.738.738 0 0 0 .229-1.016l-.268-.424c-.848-1.265-.548-1.846.323-2.397 1.03-.7 1.79-.061 2.323.783l5.533 8.754a8.1 8.1 0 0 1 1.06 6.142c-.479 2.126-1.248 3.558-3.086 4.719m3.268-11.649l-5.532-8.753c-.986-1.559-2.44-2.138-4.097-1.418-.844.506-1.01.873-1.275 1.481a3.34 3.34 0 0 0-5.869.781 3.343 3.343 0 0 0-3.88-.222 3.343 3.343 0 0 0-1.328 4.027 3.343 3.343 0 0 0-2.999 5.118l1.775 2.807-.581 2.577c-.804 3.562 1.442 7.115 5.006 7.92l7.077 1.597a8.054 8.054 0 0 0 6.107-1.055l3.113-1.967c2.17-1.37 3.168-3.13 3.736-5.636a9.557 9.557 0 0 0-1.253-7.257"/>
                <path stroke="#4D4F58" stroke-width=".25" d="M301.706 89.996l-3.111 1.966a6.594 6.594 0 0 1-5 .863l-7.077-1.597a5.16 5.16 0 0 1-3.894-6.16l.257-1.141 1.275 2.022a.738.738 0 0 0 1.016.228.744.744 0 0 0 .228-1.016l-4.161-6.585a1.857 1.857 0 0 1-.241-1.408c.108-.483.402-.9.822-1.165.842-.534 2.042-.263 2.574.58l1.382 2.185a.731.731 0 0 0 1.013.224.725.725 0 0 0 .327-.457.744.744 0 0 0-.096-.557l-2.493-3.943a1.869 1.869 0 0 1 .581-2.575 1.868 1.868 0 0 1 2.575.58l2.493 3.947a.734.734 0 0 0 1.338-.232.734.734 0 0 0-.094-.557l-1.658-2.624a1.851 1.851 0 0 1-.243-1.405c.11-.488.402-.902.824-1.17a1.873 1.873 0 0 1 2.575.58l1.658 2.628a.74.74 0 0 0 1.016.228.738.738 0 0 0 .229-1.016l-.268-.424c-.848-1.265-.548-1.846.323-2.397 1.03-.7 1.79-.061 2.323.783l5.533 8.754a8.1 8.1 0 0 1 1.06 6.142c-.479 2.126-1.248 3.558-3.086 4.719zm3.268-11.649l-5.532-8.753c-.986-1.559-2.44-2.138-4.097-1.418-.844.506-1.01.873-1.275 1.481a3.34 3.34 0 0 0-5.869.781 3.343 3.343 0 0 0-3.88-.222 3.343 3.343 0 0 0-1.328 4.027 3.343 3.343 0 0 0-2.999 5.118l1.775 2.807-.581 2.577c-.804 3.562 1.442 7.115 5.006 7.92l7.077 1.597a8.054 8.054 0 0 0 6.107-1.055l3.113-1.967c2.17-1.37 3.168-3.13 3.736-5.636a9.557 9.557 0 0 0-1.253-7.257z"/>
                <path fill="#FF7000" d="M145.371 161.06l2.183 1.301-2.495.484c-.06.012-1.554.297-3.925.297-5.22 0-15.149-1.405-22.942-10.775-.232-.247-5.54-6.071-5.45-18.442H99.7l21.816-21.697 21.815 21.697h-13.227c-.528 3.37-1.52 17.147 15.267 27.135"/>
            </g>
        </g>
    </g>
</svg>
