<svg xmlns="http://www.w3.org/2000/svg" xmlns:xlink="http://www.w3.org/1999/xlink" width="340" height="200" viewBox="0 0 340 200">
    <defs>
        <path id="a" d="M0 0h340v199.991H0z"/>
        <path id="c" d="M0 .404h190.287V131.64H0z"/>
        <path id="e" d="M.86 1.585h164.954v40.637H.859z"/>
        <path id="g" d="M167.733 22.26l1.3 1.282L145.19 46.06l-1.301-1.282 23.845-22.518zm-.024-19.311l1.325 1.26-43.004 41.405-1.324-1.262 43.003-41.403zm-19.182 0l1.325 1.26-43.002 41.405-1.324-1.262 43.001-41.403zm-17.9 0l1.326 1.26-43.008 41.405-1.32-1.262 43.001-41.403zm-17.903 0l1.324 1.26-43.001 41.405-1.325-1.262 43.002-41.403zm-18.327 0l1.326 1.26-43.005 41.405-1.327-1.262L94.397 2.949zm-17.901 0l1.322 1.26-43.001 41.405-1.329-1.262L76.496 2.949zm-18.756 0l1.327 1.26L16.06 45.614l-1.325-1.262L57.74 2.949zm-17.485-.45l1.334 1.26-35.75 34.218-1.335-1.26L40.255 2.498zM24.067 2.05l1.325 1.267-22.12 21.187-1.323-1.264L24.067 2.05z"/>
    </defs>
    <g fill="none" fill-rule="evenodd">
        <mask id="b" fill="#fff">
            <use xlink:href="#a"/>
        </mask>
        <path stroke="#C1C1C1" d="M.5.5h339v198.991H.5z"/>
        <g mask="url(#b)">
            <path fill="#FEFEFE" d="M335.695 14v170.95V14z"/>
            <g transform="translate(57 36.335)">
                <mask id="d" fill="#fff">
                    <use xlink:href="#c"/>
                </mask>
                <path fill="#4D4F58" d="M187.007.404H3.279A3.282 3.282 0 0 0 0 3.684v124.673a3.283 3.283 0 0 0 3.28 3.283h183.728a3.28 3.28 0 0 0 3.28-3.283V3.684a3.28 3.28 0 0 0-3.28-3.28m0 2.313c.534 0 .967.433.967.967v124.673a.967.967 0 0 1-.967.965H3.279a.967.967 0 0 1-.965-.965V3.684c0-.534.435-.967.965-.967h183.728" mask="url(#d)"/>
            </g>
            <path fill="#4D4F58" d="M145.491 56.424H73.495a1.73 1.73 0 0 1-1.73-1.734V53.24c0-.96.776-1.736 1.73-1.736h71.996c.955 0 1.734.775 1.734 1.736v1.451c0 .961-.78 1.734-1.734 1.734M231 67.907h-72.406c-.847 0-1.527-.68-1.527-1.527V49.748c0-.84.68-1.527 1.527-1.527H231c.844 0 1.527.687 1.527 1.527V66.38c0 .846-.683 1.527-1.527 1.527"/>
            <path fill="#93C256" d="M231 94.155h-72.406c-.847 0-1.527-.681-1.527-1.528V75.993c0-.838.68-1.525 1.527-1.525H231c.844 0 1.527.687 1.527 1.525v16.634c0 .847-.683 1.528-1.527 1.528"/>
            <path fill="#4D4F58" d="M231 156.49H73.288c-.84 0-1.527-.68-1.527-1.527V138.33c0-.84.687-1.527 1.527-1.527H231c.844 0 1.527.687 1.527 1.527v16.632c0 .846-.683 1.527-1.527 1.527"/>
            <path fill="#DBDBDD" d="M189.988 128.603h-31.394c-.847 0-1.527-.68-1.527-1.527v-23.194c0-.843.68-1.528 1.527-1.528h31.394c.844 0 1.525.685 1.525 1.528v23.194c0 .847-.68 1.527-1.525 1.527"/>
            <path fill="#3F8A37" d="M231 128.603h-31.395c-.846 0-1.527-.68-1.527-1.527v-23.194c0-.843.68-1.528 1.527-1.528H231c.844 0 1.527.685 1.527 1.528v23.194c0 .847-.683 1.527-1.527 1.527"/>
            <path fill="#4D4F58" d="M145.491 66.266H73.495a1.73 1.73 0 0 1-1.73-1.734V63.08c0-.96.776-1.736 1.73-1.736h71.996c.955 0 1.734.776 1.734 1.736v1.452c0 .96-.78 1.734-1.734 1.734M145.698 128.603H73.292c-.847 0-1.527-.68-1.527-1.527V75.994c0-.838.68-1.525 1.527-1.525h72.406c.844 0 1.527.687 1.527 1.525v51.082c0 .847-.683 1.527-1.527 1.527"/>
            <path fill="#FEFEFE" d="M107.052 90.11l-.002 29.505a.496.496 0 0 1-.49.496h-8.907a.495.495 0 0 1-.491-.496v-6.375a.49.49 0 0 0-.493-.489h-3.41a.49.49 0 0 0-.493.489v6.375c0 .272-.22.496-.491.496h-8.906a.495.495 0 0 1-.491-.496V90.108a.49.49 0 0 1 .49-.491h23.191c.272 0 .493.22.493.493m29.058-8.297l-.002 37.802a.496.496 0 0 1-.493.496h-8.904a.495.495 0 0 1-.494-.496v-6.392a.49.49 0 0 0-.49-.491h-3.412a.49.49 0 0 0-.492.49v6.393c0 .272-.22.496-.493.496h-8.904a.495.495 0 0 1-.49-.496V81.813a.49.49 0 0 1 .49-.49h23.19c.272 0 .494.219.494.49M90.078 106.16h-3.41a.493.493 0 0 0-.49.496v3.405c0 .273.219.489.49.489h3.41a.488.488 0 0 0 .493-.49v-3.404a.494.494 0 0 0-.493-.496m6.593 0h-3.41a.495.495 0 0 0-.493.496v3.405a.49.49 0 0 0 .493.489h3.41a.49.49 0 0 0 .493-.49v-3.404a.495.495 0 0 0-.493-.496m6.593 0h-3.41a.495.495 0 0 0-.493.496v3.405a.49.49 0 0 0 .493.489h3.41a.49.49 0 0 0 .493-.49v-3.404a.495.495 0 0 0-.493-.496m15.871-.032h-3.411a.49.49 0 0 0-.491.491v3.418c0 .272.22.491.49.491h3.412a.49.49 0 0 0 .492-.49v-3.419a.49.49 0 0 0-.492-.491m6.593 0h-3.411a.49.49 0 0 0-.491.491v3.418c0 .272.22.491.49.491h3.412a.49.49 0 0 0 .491-.49v-3.419a.49.49 0 0 0-.49-.491m6.59 0h-3.41a.49.49 0 0 0-.49.491v3.418c0 .272.22.491.49.491h3.41c.274 0 .493-.22.493-.49v-3.419a.491.491 0 0 0-.493-.491m-42.241-6.552h-3.41a.488.488 0 0 0-.49.489v3.405c0 .274.219.496.49.496h3.41a.494.494 0 0 0 .493-.496v-3.405a.488.488 0 0 0-.493-.489m6.593 0h-3.41a.49.49 0 0 0-.493.489v3.405c0 .274.222.496.493.496h3.41a.495.495 0 0 0 .493-.496v-3.405a.49.49 0 0 0-.493-.489m6.593 0h-3.41a.49.49 0 0 0-.493.489v3.405c0 .274.222.496.493.496h3.41a.495.495 0 0 0 .493-.496v-3.405a.49.49 0 0 0-.493-.489m15.871-.054h-3.411a.495.495 0 0 0-.491.496v3.418c0 .269.22.489.49.489h3.412a.49.49 0 0 0 .492-.49v-3.417a.495.495 0 0 0-.492-.496m6.593 0h-3.411a.495.495 0 0 0-.491.496v3.418c0 .269.22.489.49.489h3.412a.49.49 0 0 0 .491-.49v-3.417a.495.495 0 0 0-.49-.496m6.59 0h-3.41a.495.495 0 0 0-.49.496v3.418c0 .269.22.489.49.489h3.41a.49.49 0 0 0 .493-.49v-3.417a.495.495 0 0 0-.493-.496m-42.241-6.537h-3.41a.49.49 0 0 0-.49.491v3.41c0 .269.219.489.49.489h3.41a.49.49 0 0 0 .493-.49v-3.409a.491.491 0 0 0-.493-.49m6.593 0h-3.41a.493.493 0 0 0-.493.49v3.41c0 .269.222.489.493.489h3.41c.271 0 .493-.22.493-.49v-3.409a.493.493 0 0 0-.493-.49m6.593 0h-3.41a.493.493 0 0 0-.493.49v3.41c0 .269.222.489.493.489h3.41c.271 0 .493-.22.493-.49v-3.409a.493.493 0 0 0-.493-.49m15.871-.065h-3.411a.489.489 0 0 0-.491.489v3.418c0 .271.22.495.49.495h3.412a.495.495 0 0 0 .492-.495V93.41a.489.489 0 0 0-.492-.49m6.593 0h-3.411a.489.489 0 0 0-.491.49v3.418c0 .271.22.495.49.495h3.412a.495.495 0 0 0 .491-.495V93.41a.489.489 0 0 0-.49-.49m6.59 0h-3.41a.489.489 0 0 0-.49.49v3.418c0 .271.22.495.49.495h3.41a.495.495 0 0 0 .493-.495V93.41a.49.49 0 0 0-.493-.49m-13.184-6.457h-3.411a.489.489 0 0 0-.491.49v3.417c0 .272.22.496.49.496h3.412a.495.495 0 0 0 .492-.496v-3.418a.489.489 0 0 0-.492-.489m6.593 0h-3.411a.489.489 0 0 0-.491.49v3.417c0 .272.22.496.49.496h3.412a.495.495 0 0 0 .491-.496v-3.418a.489.489 0 0 0-.49-.489m6.59 0h-3.41a.489.489 0 0 0-.49.49v3.417c0 .272.22.496.49.496h3.41a.495.495 0 0 0 .493-.496v-3.418a.49.49 0 0 0-.493-.489"/>
            <g transform="translate(67.77 118.182)">
                <mask id="f" fill="#fff">
                    <use xlink:href="#e"/>
                </mask>
                <path fill="#FBE2D8" d="M-1.27 44.464h169.216V-.661H-1.27z" mask="url(#f)"/>
            </g>
            <g transform="translate(65.615 116.028)">
                <mask id="h" fill="#fff">
                    <use xlink:href="#g"/>
                </mask>
                <path fill="#DF602C" d="M-.18 48.309h171.348V-.196H-.18z" mask="url(#h)"/>
            </g>
            <g>
                <path stroke="#FF7000" stroke-width="1.5" d="M282.953 158.366v2.154h-2.154"/>
                <path stroke="#FF7000" stroke-dasharray="3,2" stroke-width="1.5" d="M276.525 160.52H73.555"/>
                <path stroke="#FF7000" stroke-width="1.5" d="M71.416 160.52h-2.154v-2.154"/>
                <path stroke="#FF7000" stroke-dasharray="1.874,1.874" stroke-width="1.5" d="M69.263 154.33v-30.274"/>
                <path stroke="#FF7000" stroke-width="1.5" d="M69.262 122.037v-2.154h2.154"/>
                <path stroke="#FF7000" stroke-dasharray="3,2" stroke-width="1.5" d="M75.69 119.883h202.972"/>
                <path stroke="#FF7000" stroke-width="1.5" d="M280.799 119.883h2.154v2.154"/>
                <path stroke="#FF7000" stroke-dasharray="3,2" stroke-width="1.5" d="M282.953 123.1v33.252"/>
                <path stroke="#FF7000" stroke-width="1.5" d="M69.264 160.52h164.845v-40.635H69.264z"/>
                <path fill="#FF7000" d="M299.069 150.92c.187.328.286.696.286 1.1 0 .236-.039.488-.105.74-.261.969-1.021 1.886-2.02 2.461-1.788 1.026-3.87.759-4.647-.592-.299-.53-.361-1.18-.178-1.85.265-.978 1.001-1.876 2.018-2.455 1.79-1.026 3.875-.756 4.646.596m-1.84 14.9c1 .578 1.758 1.495 2.02 2.465.067.252.104.5.104.738 0 .403-.097.774-.284 1.099-.771 1.352-2.859 1.622-4.646.599-1.019-.582-1.753-1.48-2.02-2.456-.181-.672-.121-1.32.178-1.85.78-1.35 2.86-1.618 4.648-.594m-4.09-17.735c-1.6.917-2.774 2.384-3.222 4.023-.306 1.11-.246 2.244.15 3.224l-5.044 2.889c-4.708-2.568-11.673-6.363-12.511-6.845-2.049-1.172-4.327.754-4.422.838l-.65.555 13.556 7.75-13.554 7.754.648.553c.095.086 2.373 2.01 4.424.836.838-.478 7.801-4.278 12.51-6.843l5.046 2.886c-.396.985-.459 2.118-.15 3.229.445 1.637 1.62 3.106 3.221 4.021 3.02 1.73 6.686 1.034 8.161-1.548a4.72 4.72 0 0 0 .625-2.38c0-.47-.033-.957-.194-1.422-.941-2.77-3.207-4.187-5.529-4.87-.103-.026-5.639-1.393-6.847-2.158 0 0-.041-.02-.11-.058l.11-.056c1.208-.767 6.744-2.132 6.847-2.158 2.322-.683 4.59-2.102 5.529-4.872.161-.463.194-.95.194-1.422 0-.857-.211-1.656-.625-2.378-1.477-2.582-5.141-3.278-8.163-1.548"/>
                <path fill="#FEFEFE" d="M229.222 124.992h9.767v-9.768h-9.767z"/>
                <path stroke="#FF7000" stroke-width="1.5" d="M229.222 124.992h9.767v-9.768h-9.767z"/>
                <path fill="#FEFEFE" d="M229.222 165.286h9.767v-9.77h-9.767z"/>
                <path stroke="#FF7000" stroke-width="1.5" d="M229.222 165.286h9.767v-9.77h-9.767z"/>
                <path fill="#FEFEFE" d="M163.615 124.992h9.77v-9.768h-9.77z"/>
                <path stroke="#FF7000" stroke-width="1.5" d="M163.615 124.992h9.77v-9.768h-9.77z"/>
                <path fill="#FEFEFE" d="M163.615 165.286h9.77v-9.77h-9.77z"/>
                <path stroke="#FF7000" stroke-width="1.5" d="M163.615 165.286h9.77v-9.77h-9.77z"/>
                <path fill="#FEFEFE" d="M229.222 144.969h9.767V135.2h-9.767z"/>
                <path stroke="#FF7000" stroke-width="1.5" d="M229.222 144.969h9.767V135.2h-9.767z"/>
                <path fill="#FEFEFE" d="M64.377 124.992h9.768v-9.768h-9.768z"/>
                <path stroke="#FF7000" stroke-width="1.5" d="M64.377 124.992h9.768v-9.768h-9.768z"/>
                <path fill="#FEFEFE" d="M64.377 165.286h9.768v-9.77h-9.768z"/>
                <path stroke="#FF7000" stroke-width="1.5" d="M64.377 165.286h9.768v-9.77h-9.768z"/>
                <path fill="#FEFEFE" d="M64.377 144.969h9.768V135.2h-9.768z"/>
                <path stroke="#FF7000" stroke-width="1.5" d="M64.377 144.969h9.768V135.2h-9.768z"/>
            </g>
        </g>
    </g>
</svg>
