<svg xmlns="http://www.w3.org/2000/svg" xmlns:xlink="http://www.w3.org/1999/xlink" width="340" height="200" viewBox="0 0 340 200">
    <defs>
        <path id="a" d="M0 .354h312.716v1.5H0z"/>
        <path id="b" d="M.548 1.746l14.445 23.48c.079.125.194.155.279.162a.332.332 0 0 0 .285-.147l4.128-5.816a1.665 1.665 0 0 1 2.339-.39l5.944 4.8c1.05.767 2.53.523 3.287-.546.736-1.036.486-2.587-.536-3.331l-5.945-4.799a1.71 1.71 0 0 1-.382-2.367l4.128-5.816a.326.326 0 0 0 .06-.252.337.337 0 0 0-.257-.285L1.718.083a1.132 1.132 0 0 0-.259-.031C.644.052.08.988.548 1.746z"/>
        <path id="d" d="M.107.823L11.16 18.56a.24.24 0 0 0 .203.117.234.234 0 0 0 .209-.104l2.997-4.173a1.221 1.221 0 0 1 1.701-.277l4.318 3.443c.767.55 1.838.375 2.39-.392.534-.743.352-1.856-.392-2.391l-4.318-3.442a1.216 1.216 0 0 1-.277-1.697l2.999-4.174a.233.233 0 0 0 .044-.182.25.25 0 0 0-.188-.205L.493.282a.359.359 0 0 0-.385.54v.001z"/>
        <path id="f" d="M.107.823L11.16 18.56a.24.24 0 0 0 .203.117.234.234 0 0 0 .209-.104l2.997-4.173a1.221 1.221 0 0 1 1.701-.277l4.318 3.443c.767.55 1.838.375 2.39-.392.534-.743.352-1.856-.392-2.391l-4.318-3.442a1.216 1.216 0 0 1-.277-1.697l2.999-4.174a.233.233 0 0 0 .044-.182.25.25 0 0 0-.188-.205L.493.282a.359.359 0 0 0-.385.54v.001z"/>
    </defs>
    <g fill="none" fill-rule="evenodd">
        <path fill="#FFF" stroke="#D3D3D3" d="M0 0h340v200H0z"/>
        <path fill="#FEFEFE" d="M13 1.5h313H13z"/>
        <path stroke="#FF7000" d="M291 130v1h-1"/>
        <path stroke="#FF7000" stroke-dasharray="2.027,2.027" d="M288 130.5h-30"/>
        <path stroke="#FF7000" d="M256 131h-1v-1"/>
        <path stroke="#FF7000" stroke-dasharray="2.027,2.027" d="M255.5 127V97"/>
        <path stroke="#FF7000" d="M255 95v-1h1"/>
        <path stroke="#FF7000" stroke-dasharray="2.027,2.027" d="M259 94.5h30"/>
        <path stroke="#FF7000" d="M290 94h1v1"/>
        <path stroke="#FF7000" stroke-dasharray="2.027,2.027" d="M291.5 98v30"/>
        <path fill="#FBE2D8" d="M257 129h33V96h-33z"/>
        <path fill="#4D4F58" d="M232.068 35.866H48.758a3.274 3.274 0 0 0-3.273 3.277v124.533a3.275 3.275 0 0 0 3.273 3.278h183.31a3.277 3.277 0 0 0 3.273-3.278V39.143a3.276 3.276 0 0 0-3.273-3.277m0 2.312c.531 0 .964.433.964.965v124.533a.965.965 0 0 1-.964.965H48.758a.965.965 0 0 1-.963-.965V39.143c0-.532.432-.965.963-.965h183.31"/>
        <path fill="#FBE2D8" d="M61.125 66.356a.269.269 0 0 1-.269-.267V48.245a.27.27 0 0 1 .269-.268h73.468a.27.27 0 0 1 .268.268V66.09c0 .147-.12.267-.268.267H61.125z"/>
        <path fill="#FF7000" d="M134.593 47.336H61.124a.91.91 0 0 0-.91.91V66.09c0 .503.409.911.91.911h73.469a.91.91 0 0 0 .91-.91V48.246a.91.91 0 0 0-.91-.91zm-73.095 18.38h72.722V48.62H61.498v17.095z"/>
        <path fill="#93C256" d="M219.701 93.217h-73.47a.91.91 0 0 1-.908-.91V74.463c0-.502.408-.911.908-.911h73.47a.91.91 0 0 1 .91.91v17.843a.91.91 0 0 1-.91.911"/>
        <path fill="#FBE2D8" d="M61.125 154.84a.269.269 0 0 1-.269-.267V136.73c0-.146.121-.267.269-.267H219.7c.148 0 .268.12.268.267v17.844c0 .147-.12.267-.268.267H61.125z"/>
        <path fill="#FF7000" d="M219.701 135.82H61.125a.909.909 0 0 0-.91.911v17.843c0 .502.407.91.91.91H219.7a.91.91 0 0 0 .91-.91V136.73a.909.909 0 0 0-.91-.91zM61.498 154.2h157.83v-17.095H61.498V154.2z"/>
        <path fill="#FBE2D8" d="M146.232 126.985a.269.269 0 0 1-.267-.269v-24.395c0-.148.12-.269.267-.269h32.552c.146 0 .267.12.267.269v24.395c0 .148-.12.269-.267.269h-32.552z"/>
        <path fill="#FF7000" d="M178.784 101.41h-32.552a.91.91 0 0 0-.909.91v24.397c0 .502.407.91.909.91h32.552a.909.909 0 0 0 .909-.91V102.32a.91.91 0 0 0-.909-.91zm-32.178 24.932h31.804v-23.648h-31.804v23.648z"/>
        <path fill="#FBE2D8" d="M187.15 126.985a.269.269 0 0 1-.268-.269v-24.395c0-.148.12-.269.268-.269H219.7c.148 0 .268.12.268.269v24.395c0 .148-.12.269-.268.269H187.15z"/>
        <path fill="#FF7000" d="M219.701 101.41H187.15a.91.91 0 0 0-.91.91v24.397c0 .502.407.91.91.91h32.551a.91.91 0 0 0 .91-.91V102.32a.91.91 0 0 0-.91-.91zm-32.178 24.932h31.805v-23.648h-31.805v23.648z"/>
        <path fill="#4D4F58" d="M134.593 127.627H61.124a.91.91 0 0 1-.91-.91V74.464c0-.502.409-.91.91-.91h73.469a.91.91 0 0 1 .91.91v52.253a.91.91 0 0 1-.91.91"/>
        <path fill="#FEFEFE" d="M95.423 89.176l-.002 29.474c0 .271-.22.492-.491.492h-8.885a.49.49 0 0 1-.49-.492v-6.37a.49.49 0 0 0-.491-.49H81.66a.489.489 0 0 0-.49.49v6.37c0 .271-.221.492-.492.492h-8.884a.492.492 0 0 1-.492-.492V89.176c0-.272.22-.492.492-.492H94.93c.272 0 .492.22.492.492m28.991-8.284l-.002 37.758c0 .271-.22.492-.492.492h-8.884a.493.493 0 0 1-.492-.492v-6.385a.49.49 0 0 0-.49-.492h-3.403c-.27 0-.491.22-.491.492v6.385c0 .271-.22.492-.49.492h-8.885a.493.493 0 0 1-.491-.492V80.892c0-.271.22-.491.491-.491h23.138c.27 0 .491.22.491.49m-45.926 24.317h-3.403c-.271 0-.49.22-.49.493v3.403c0 .272.219.492.49.492h3.403c.272 0 .491-.22.491-.492V105.7a.491.491 0 0 0-.491-.493m6.578 0h-3.404a.49.49 0 0 0-.489.493v3.403a.49.49 0 0 0 .49.492h3.403c.271 0 .492-.22.492-.492V105.7a.492.492 0 0 0-.492-.493m6.578 0H88.24a.49.49 0 0 0-.49.493v3.403a.49.49 0 0 0 .49.492h3.403c.27 0 .49-.22.49-.492V105.7a.491.491 0 0 0-.49-.493m15.835-.031h-3.404a.49.49 0 0 0-.49.49v3.415c0 .271.22.492.49.492h3.404c.27 0 .49-.22.49-.492v-3.415c0-.27-.22-.49-.49-.49m6.577 0h-3.402a.49.49 0 0 0-.492.49v3.415c0 .271.22.492.492.492h3.402c.27 0 .491-.22.491-.492v-3.415c0-.27-.22-.49-.491-.49m6.577 0h-3.402c-.27 0-.491.22-.491.49v3.415c0 .271.22.492.491.492h3.402a.492.492 0 0 0 .491-.492v-3.415a.49.49 0 0 0-.491-.49m-42.145-6.55h-3.403c-.271 0-.49.221-.49.494v3.403c0 .272.219.49.49.49h3.403a.489.489 0 0 0 .491-.49V99.12a.492.492 0 0 0-.491-.493m6.578 0h-3.404a.49.49 0 0 0-.489.493v3.403c0 .272.218.49.49.49h3.403a.49.49 0 0 0 .492-.49V99.12a.493.493 0 0 0-.492-.493m6.578 0H88.24a.491.491 0 0 0-.49.493v3.403c0 .272.218.49.49.49h3.403c.27 0 .49-.218.49-.49V99.12a.492.492 0 0 0-.49-.493m15.835-.05h-3.404c-.27 0-.49.222-.49.493v3.413c0 .272.22.492.49.492h3.404c.27 0 .49-.22.49-.492v-3.413a.492.492 0 0 0-.49-.492m6.577 0h-3.402a.492.492 0 0 0-.492.492v3.413c0 .272.22.492.492.492h3.402c.27 0 .491-.22.491-.492v-3.413a.493.493 0 0 0-.491-.492m6.577 0h-3.402a.493.493 0 0 0-.491.492v3.413c0 .272.22.492.491.492h3.402c.272 0 .491-.22.491-.492v-3.413a.492.492 0 0 0-.491-.492m-42.145-6.531h-3.403c-.271 0-.49.22-.49.492v3.404c0 .27.219.49.49.49h3.403a.49.49 0 0 0 .491-.49V92.54a.492.492 0 0 0-.491-.492m6.578 0h-3.404a.49.49 0 0 0-.489.492v3.404c0 .27.218.49.49.49h3.403c.271 0 .492-.22.492-.49V92.54a.493.493 0 0 0-.492-.492m6.578 0H88.24a.49.49 0 0 0-.49.492v3.404c0 .27.218.49.49.49h3.403c.27 0 .49-.22.49-.49V92.54a.492.492 0 0 0-.49-.492m15.835-.065h-3.404c-.27 0-.49.217-.49.49v3.416c0 .27.22.49.49.49h3.404a.49.49 0 0 0 .49-.49v-3.416a.49.49 0 0 0-.49-.49m6.577 0h-3.402a.489.489 0 0 0-.492.49v3.416c0 .27.22.49.492.49h3.402a.49.49 0 0 0 .491-.49v-3.416a.49.49 0 0 0-.491-.49m6.577 0h-3.402a.49.49 0 0 0-.491.49v3.416c0 .27.22.49.491.49h3.402a.49.49 0 0 0 .491-.49v-3.416c0-.273-.219-.49-.491-.49m-13.154-6.451h-3.404a.49.49 0 0 0-.49.492v3.413c0 .272.22.492.49.492h3.404c.27 0 .49-.22.49-.492v-3.413a.492.492 0 0 0-.49-.492m6.577 0h-3.402a.491.491 0 0 0-.492.492v3.413c0 .272.22.492.492.492h3.402c.27 0 .491-.22.491-.492v-3.413a.492.492 0 0 0-.491-.492m6.577 0h-3.402c-.27 0-.491.22-.491.492v3.413c0 .272.22.492.491.492h3.402c.272 0 .491-.22.491-.492v-3.413a.491.491 0 0 0-.491-.492"/>
        <path fill="#FBE2D8" d="M146.232 66.356a.269.269 0 0 1-.267-.267V48.245a.27.27 0 0 1 .267-.268h73.47a.27.27 0 0 1 .268.268V66.09c0 .147-.12.267-.269.267h-73.47z"/>
        <path fill="#FF7000" d="M219.701 47.336h-73.47a.91.91 0 0 0-.908.91V66.09c0 .503.408.911.908.911h73.47a.91.91 0 0 0 .91-.91V48.246a.91.91 0 0 0-.91-.91zm-73.095 18.38h72.722V48.62h-72.722v17.095z"/>
        <path fill="#FEFEFE" d="M254.448 164.81c0 11.061-8.956 20.028-20.006 20.028-11.048 0-20.005-8.967-20.005-20.028 0-11.06 8.957-20.029 20.005-20.029 11.05 0 20.006 8.968 20.006 20.03"/>
        <path fill="#3F8A37" d="M252.225 164.81c0 9.832-7.96 17.802-17.782 17.802-9.821 0-17.783-7.97-17.783-17.802 0-9.833 7.962-17.802 17.783-17.802 9.821 0 17.782 7.97 17.782 17.802"/>
        <path fill="#FEFEFE" d="M227.328 163.213a5.53 5.53 0 0 1 5.521-5.526c3.044 0 5.519 2.48 5.519 5.526 0 3.049-2.475 5.528-5.519 5.528a5.531 5.531 0 0 1-5.521-5.528m15.662 9.088l-4.675-4.679a7.013 7.013 0 0 0 1.514-5.213c-.373-3.34-3.151-5.989-6.5-6.214-4.252-.286-7.775 3.244-7.49 7.5.223 3.35 2.87 6.132 6.207 6.505a6.978 6.978 0 0 0 5.206-1.513l4.673 4.679a.25.25 0 0 0 .354 0l.71-.71a.253.253 0 0 0 0-.355"/>
        <path fill="#4D4F58" d="M270.93 106.926h-1.222c-.73 0-1.265.078-1.609.233-.342.158-.631.473-.863.94-.233.47-.374 1.026-.422 1.67H265.6v-4.143h14.55v4.143h-1.214c-.229-1.117-.55-1.87-.965-2.26-.412-.39-1.075-.583-1.983-.583h-1.253v10.28c0 .666.113 1.13.337 1.392.225.26.698.392 1.42.392h.377v1.188h-8.032v-1.188h.344c.73 0 1.203-.135 1.42-.405.219-.267.328-.727.328-1.378v-10.281z"/>
        <path fill="#FEFEFE" d="M156.722 83.628c0-1.044-.474-1.673-1.252-1.673-.783 0-1.265.637-1.265 1.673 0 1.045.482 1.697 1.265 1.697.778 0 1.252-.644 1.252-1.697m1.336-.015c0 1.699-1.034 2.824-2.593 2.824-1.574 0-2.59-1.1-2.59-2.803 0-1.697 1.016-2.784 2.595-2.784 1.581 0 2.588 1.08 2.588 2.763M162.381 83.628c0-1.044-.474-1.673-1.252-1.673-.783 0-1.265.637-1.265 1.673 0 1.045.482 1.697 1.265 1.697.778 0 1.252-.644 1.252-1.697m1.336-.015c0 1.699-1.034 2.824-2.593 2.824-1.575 0-2.59-1.1-2.59-2.803 0-1.697 1.015-2.784 2.595-2.784 1.58 0 2.588 1.08 2.588 2.763M167.193 83.241h1.842v-.225h-1.842v.225zm0-.765h1.842v-.219h-1.842v.219zm0-.76h1.842v-.218h-1.842v.218zm2.806 1.597c0 .224.006.404.02.558a7.797 7.797 0 0 0-.592-.02h-2.608c-.23 0-.436.007-.59.02.013-.187.02-.34.02-.567v-1.94c0-.212-.007-.393-.02-.553.154.013.348.019.604.019h2.6c.245 0 .424-.006.585-.02-.013.174-.019.335-.019.56v1.943zm-1.902 2.596c0 .38.013.606.04.798h-1.047c.026-.199.037-.431.037-.798V84.9h-1.052l.758.348c-.47.63-.918 1.035-1.54 1.408a4.43 4.43 0 0 0-.677-.758 3.24 3.24 0 0 0 .997-.65c.148-.135.212-.212.314-.347h-.29c-.32 0-.513.006-.704.025.024-.192.03-.36.03-.713v-2.289a5.29 5.29 0 0 0-.03-.706h1.007a6.33 6.33 0 0 0-.025.693v2.155h3.86c.416 0 .622-.008.795-.032v.905a6.503 6.503 0 0 0-.79-.038h-.507c.399.438.681.63 1.38.932-.263.29-.385.45-.622.823-.41-.237-.585-.359-.848-.585a5.211 5.211 0 0 1-.776-.81l.712-.36h-1.022v1.01zM176.51 83.628c0-1.044-.475-1.673-1.254-1.673-.782 0-1.264.637-1.264 1.673 0 1.045.482 1.697 1.264 1.697.78 0 1.254-.644 1.254-1.697m1.336-.015c0 1.699-1.034 2.824-2.595 2.824-1.573 0-2.588-1.1-2.588-2.803 0-1.697 1.015-2.784 2.593-2.784 1.581 0 2.59 1.08 2.59 2.763M182.169 83.628c0-1.044-.475-1.673-1.254-1.673-.783 0-1.264.637-1.264 1.673 0 1.045.481 1.697 1.264 1.697.78 0 1.254-.644 1.254-1.697m1.336-.015c0 1.699-1.035 2.824-2.595 2.824-1.573 0-2.588-1.1-2.588-2.803 0-1.697 1.015-2.784 2.593-2.784 1.581 0 2.59 1.08 2.59 2.763M187.828 83.628c0-1.044-.475-1.673-1.254-1.673-.783 0-1.264.637-1.264 1.673 0 1.045.481 1.697 1.264 1.697.779 0 1.254-.644 1.254-1.697m1.336-.015c0 1.699-1.035 2.824-2.595 2.824-1.573 0-2.588-1.1-2.588-2.803 0-1.697 1.015-2.784 2.593-2.784 1.581 0 2.59 1.08 2.59 2.763M193.487 83.628c0-1.044-.475-1.673-1.254-1.673-.783 0-1.264.637-1.264 1.673 0 1.045.481 1.697 1.264 1.697.779 0 1.254-.644 1.254-1.697m1.336-.015c0 1.699-1.035 2.824-2.595 2.824-1.573 0-2.588-1.1-2.588-2.803 0-1.697 1.015-2.784 2.593-2.784 1.581 0 2.59 1.08 2.59 2.763M198.17 82.733c0-.154-.008-.243-.021-.379h1.055c-.014.077-.02.167-.02.379h1.476c.303 0 .476-.006.65-.027-.02.181-.026.335-.026.58v1.916c0 .753-.212.93-1.08.93-.147 0-.3-.004-.559-.016a3.019 3.019 0 0 0-.23-.947c.185.027.43.052.559.052.27 0 .327-.038.327-.213v-1.387h-1.118v2.198c0 .348.014.598.045.875h-1.103c.03-.277.045-.534.045-.869v-2.204h-1.009v1.742c0 .393.006.58.032.823h-1.08a7.93 7.93 0 0 0 .04-.816v-2.083c0-.2-.007-.386-.026-.58.224.02.417.026.707.026h1.336zm0-1.671c0-.148-.015-.296-.039-.411h1.104a2.117 2.117 0 0 0-.038.404v.244h1.63c.38 0 .624-.012.888-.038v.984a7.466 7.466 0 0 0-.861-.032h-4.226c-.302 0-.585.011-.867.032v-.984c.289.026.513.038.892.038h1.517v-.237zM246.455 107.394l-5.96-4.742a1.676 1.676 0 0 1-.382-2.34l4.137-5.747a.339.339 0 0 0-.198-.53l-26.669-6.281c-.95-.224-1.692.816-1.174 1.642l14.48 23.2a.34.34 0 0 0 .28.161.323.323 0 0 0 .287-.145l4.138-5.745a1.684 1.684 0 0 1 2.344-.386l5.96 4.74a2.366 2.366 0 0 0 3.296-.535c.736-1.025.486-2.558-.54-3.292"/>
        <g transform="translate(216 87)">
            <mask id="c" fill="#fff">
                <use xlink:href="#b"/>
            </mask>
            <path fill="#FEFEFE" d="M34.715 25.827L29.258-7.956-3.543-2.492l5.455 33.783z" mask="url(#c)"/>
        </g>
        <g fill="#4D4F58">
            <path d="M242.586 104.783l-4.318-3.442a1.219 1.219 0 0 1-.278-1.7l2.998-4.173a.226.226 0 0 0 .046-.18.246.246 0 0 0-.188-.203l-20.354-4.801a.359.359 0 0 0-.385.54l11.053 17.734a.236.236 0 0 0 .202.118.229.229 0 0 0 .208-.104l2.999-4.172a1.221 1.221 0 0 1 1.7-.28l4.319 3.444a1.716 1.716 0 0 0 2.39-.39c.533-.744.351-1.857-.392-2.39"/>
        </g>
        <g>
            <g transform="translate(220 90)">
                <mask id="e" fill="#fff">
                    <use xlink:href="#d"/>
                </mask>
                <path fill="#4D4F58" d="M-4.483-2.89L23.09-7.426l4.577 27.987L.094 25.096z" mask="url(#e)"/>
            </g>
            <g transform="translate(220 90)">
                <mask id="g" fill="#fff">
                    <use xlink:href="#f"/>
                </mask>
                <path fill="#FEFEFE" d="M24.652-9.607l-3.739.614-23.834 3.92-3.739.613.613 3.752 3.963 24.237.614 3.75 3.74-.615 23.833-3.92 3.74-.615-.613-3.75-3.965-24.237-.613-3.75zm-3.126 4.365l3.964 24.236-23.833 3.92-3.965-24.237 23.834-3.92z" mask="url(#g)"/>
            </g>
        </g>
        <g>
            <path fill="#FEFEFE" d="M218.1 83.56h-.002a1.241 1.241 0 0 1-1.423-1.022l-.377-2.299a1.237 1.237 0 0 1 1.022-1.422h.004a1.238 1.238 0 0 1 1.422 1.02l.378 2.3a1.24 1.24 0 0 1-1.024 1.423M212.872 90.849v.003a1.24 1.24 0 0 1-1.022 1.423l-2.299.377a1.239 1.239 0 0 1-1.423-1.023v-.003a1.238 1.238 0 0 1 1.02-1.422l2.301-.377a1.24 1.24 0 0 1 1.423 1.022M213.757 85.962v.003a1.24 1.24 0 0 1-1.73.284l-1.891-1.36a1.238 1.238 0 0 1-.285-1.728l.002-.003a1.239 1.239 0 0 1 1.729-.283l1.891 1.358c.557.4.684 1.171.284 1.73M222.008 84.756l-.003-.002a1.241 1.241 0 0 1-.284-1.729l1.36-1.891a1.237 1.237 0 0 1 1.73-.284l.002.001a1.24 1.24 0 0 1 .283 1.73l-1.358 1.89a1.24 1.24 0 0 1-1.73.285M215.245 94.166l.003.003c.557.398.683 1.172.284 1.73l-1.359 1.89c-.4.557-1.174.684-1.73.285l-.002-.003a1.238 1.238 0 0 1-.283-1.73l1.358-1.89a1.238 1.238 0 0 1 1.73-.285"/>
            <path fill="#FF7000" d="M255.01 83.825c-1.183.022-1.62.043-2.197.117l-.042-2.34c.617.08.966.086 2.237.063l5.14-.092-.09-5.022-4.986.088c-1.182.024-1.671.044-2.21.105l-.042-2.34c.618.08 1.031.099 2.251.074l5.898-.107c.693-.01 1.053-.03 1.424-.061-.018.45-.025.668-.014 1.31l.121 6.707c.02 1.08.037 1.375.116 2.117l-2.416.046-.014-.757-5.177.092zM274.388 74.053a.735.735 0 0 0 .732.707.738.738 0 0 0 .72-.734.737.737 0 0 0-.733-.719.74.74 0 0 0-.719.746zm2.17-.039a1.448 1.448 0 0 1-1.411 1.478c-.797.014-1.478-.642-1.492-1.425a1.47 1.47 0 0 1 1.439-1.478 1.439 1.439 0 0 1 1.464 1.425zm-8.256 3.131c1.765-.366 4.533-1.548 5.214-2.214l1.438 1.99c-.408.202-.446.213-1.21.602a25.602 25.602 0 0 1-5.405 1.754l.026 1.441c.015.808.015.808.069.986.082.245.25.345.624.389.45.043.85.061 1.364.052a28.66 28.66 0 0 0 2.502-.173c.95-.122 1.449-.22 2.203-.452l.133 2.375c-.309.007-.682.039-1.322.113-1.283.14-2.72.245-3.749.263-1.759.032-2.649-.107-3.246-.508-.404-.288-.643-.709-.745-1.376-.044-.256-.063-.627-.077-1.359l-.1-5.59c-.017-.86-.05-1.296-.11-1.708l2.403-.042c-.056.398-.063.72-.045 1.724l.033 1.733zM277.645 77.567c.607.08 1.301.093 2.637.069l6.14-.111c1.285-.024 1.774-.058 2.633-.163l.043 2.48c-.616-.053-1.183-.055-2.646-.03l-6.116.11c-1.439.028-1.862.047-2.646.126l-.045-2.48zM294.155 83.81l-.045-2.429 2.583-.046.043 2.429-2.581.046zm.158-3.304c.02-.296.02-.373.014-.669-.003-.141-.003-.141-.068-.913l-.332-4.068a29.003 29.003 0 0 0-.185-1.734l2.993-.053a33.407 33.407 0 0 0-.122 1.739l-.183 4.078c-.016.514-.024.811-.02 1.017.002.14.004.256.035.562l-2.132.04z"/>
        </g>
    </g>
</svg>
