<svg xmlns="http://www.w3.org/2000/svg" width="340" height="200" viewBox="0 0 340 200">
    <g fill="none" fill-rule="evenodd">
        <path fill="#FFF" stroke="#D3D3D3" d="M0 0h340v200H0z"/>
        <g transform="translate(50 21)">
            <rect width="65.769" height="30.819" x="82.291" y="125.661" fill="#FF7000" rx="15.41"/>
            <path fill="#FFF" d="M120.193 142.699a3.35 3.35 0 0 0-2.754 1.454l-3.768-1.9c.114-.344.173-.704.174-1.067a3.472 3.472 0 0 0-.17-1.051l3.76-1.876a3.346 3.346 0 0 0 4.225 1.094 3.368 3.368 0 0 0 1.724-4.024 3.352 3.352 0 0 0-3.7-2.323 3.36 3.36 0 0 0-2.854 3.314c.001.357.058.712.17 1.052l-3.76 1.89a3.376 3.376 0 0 0-3.789-1.316 3.392 3.392 0 0 0-2.377 3.24c0 1.486.963 2.8 2.377 3.24a3.376 3.376 0 0 0 3.79-1.315l3.768 1.9a3.4 3.4 0 0 0 1.196 3.816 3.373 3.373 0 0 0 3.986.022 3.4 3.4 0 0 0 1.238-3.802 3.383 3.383 0 0 0-3.231-2.343l-.005-.005zm-.093-8.142a1.906 1.906 0 1 1 0 3.813 1.906 1.906 0 0 1 0-3.813zm-9.531 8.578a1.906 1.906 0 1 1 0-3.812 1.906 1.906 0 0 1 0 3.812zm9.555 4.766a1.906 1.906 0 1 1-.047-3.812 1.906 1.906 0 0 1 .047 3.812zM61.833 8.666H1.538l.053 42.046h60.296z"/>
            <path fill="#475059" fill-rule="nonzero" d="M62.793 51.773H.856a.801.801 0 0 1-.8-.8L0 7.967a.801.801 0 0 1 .801-.802h61.937c.442 0 .8.358.801.8l.056 43.006a.801.801 0 0 1-.802.802zm-1.59-43.07H2.512a.801.801 0 0 0-.801.802l.05 39.93c.001.442.36.8.802.8h58.693a.801.801 0 0 0 .8-.802l-.05-39.93c0-.442-.36-.8-.801-.8z"/>
            <rect width="24.96" height="1.502" x="5.255" y="12.42" fill="#475059" rx=".751"/>
            <rect width="24.96" height="1.502" x="5.255" y="16.925" fill="#475059" rx=".751"/>
            <path fill="#475059" d="M5.833 38.766h23.892c.295 0 .534-.24.534-.534V21.03a.534.534 0 0 0-.534-.534H5.833a.534.534 0 0 0-.534.534v17.202c0 .295.239.534.534.534z"/>
            <path fill="#FFF" d="M16.895 25.917l-.001 9.875h-3.205v-2.384h-1.424v2.384H9.06v-9.875h7.835zm9.416-2.686v12.561h-3.205v-2.389h-1.424v2.39h-3.205V23.23h7.834zm-14.758 8.044h-1.424v1.422h1.424v-1.422zm2.137 0h-1.425v1.422h1.425v-1.422zm2.136 0h-1.424v1.422h1.424v-1.422zm5.144-.01h-1.424v1.425h1.424v-1.426zm2.137 0h-1.425v1.425h1.425v-1.426zm2.136 0H23.82v1.425h1.424v-1.426zm-13.69-2.124h-1.424v1.422h1.424v-1.422zm2.137 0h-1.425v1.422h1.425v-1.422zm2.136 0h-1.424v1.422h1.424v-1.422zm5.144-.016h-1.424v1.426h1.424v-1.426zm2.137 0h-1.425v1.426h1.425v-1.426zm2.136 0H23.82v1.426h1.424v-1.426zm-13.69-2.117h-1.424v1.422h1.424v-1.422zm2.137 0h-1.425v1.422h1.425v-1.422zm2.136 0h-1.424v1.422h1.424v-1.422zm5.144-.022h-1.424v1.426h1.424v-1.426zm2.137 0h-1.425v1.426h1.425v-1.426zm2.136 0H23.82v1.426h1.424v-1.426zm-4.273-2.091h-1.424v1.425h1.424v-1.425zm2.137 0h-1.425v1.425h1.425v-1.425zm2.136 0H23.82v1.425h1.424v-1.425z"/>
            <rect width="25.815" height="6.007" x="32.823" y="12.42" fill="#475059" rx=".534"/>
            <rect width="53.339" height="6.007" x="5.255" y="41.202" fill="#475059" rx=".534"/>
            <rect width="25.815" height="6.007" x="32.823" y="20.679" fill="#9ED656" rx=".534"/>
            <rect width="11.625" height="10.011" x="47.013" y="28.938" fill="#1C9E3B" rx=".534"/>
            <rect width="11.625" height="10.011" x="32.823" y="28.938" fill="#BAC2C8" rx=".534"/>
            <path fill="#FFF" fill-rule="nonzero" d="M60.335 2.732a8.436 8.436 0 1 1 0 16.872 8.436 8.436 0 0 1 0-16.872zm0-2.573c-6.08 0-11.01 4.929-11.01 11.01 0 6.08 4.93 11.008 11.01 11.008s11.01-4.929 11.01-11.009S66.414.158 60.334.158z"/>
            <path fill="#FF7000" d="M60.335 1.446c-5.37 0-9.722 4.353-9.722 9.722 0 5.37 4.353 9.722 9.722 9.722 5.37 0 9.722-4.352 9.722-9.722 0-5.37-4.352-9.722-9.722-9.722"/>
            <path fill="#FFF" d="M64.545 9.519l-4.627 4.522a.964.964 0 0 1-.675.273.963.963 0 0 1-.676-.273l-2.441-2.387a.263.263 0 0 1 0-.377l.772-.755a.278.278 0 0 1 .386 0l1.959 1.914 4.143-4.05a.278.278 0 0 1 .386 0l.773.755a.263.263 0 0 1 0 .378M146.38 8.666H86.085l.053 42.046h60.295z"/>
            <path fill="#475059" fill-rule="nonzero" d="M147.34 51.773H85.403a.801.801 0 0 1-.8-.8l-.056-43.006a.801.801 0 0 1 .801-.802h61.937c.442 0 .8.358.801.8l.055 43.006a.801.801 0 0 1-.8.802zm-1.59-43.07H87.058a.801.801 0 0 0-.802.802l.052 39.93c0 .442.359.8.8.8h58.694a.801.801 0 0 0 .8-.801v-.001l-.05-39.93c-.001-.442-.36-.8-.802-.8z"/>
            <rect width="24.96" height="1.502" x="89.802" y="12.42" fill="#475059" rx=".751"/>
            <rect width="24.96" height="1.502" x="89.802" y="16.925" fill="#475059" rx=".751"/>
            <path fill="#475059" d="M90.38 38.766h23.891c.295 0 .534-.24.534-.534V21.03a.534.534 0 0 0-.534-.534H90.38a.534.534 0 0 0-.534.534v17.202c0 .295.239.534.534.534z"/>
            <path fill="#FFF" d="M101.441 25.917v9.875h-3.205v-2.384h-1.424v2.384h-3.205v-9.875h7.834zm9.417-2.686v12.561h-3.205v-2.389h-1.425v2.39h-3.204V23.23h7.834zM96.1 31.275h-1.424v1.422H96.1v-1.422zm2.136 0h-1.424v1.422h1.424v-1.422zm2.137 0h-1.424v1.422h1.424v-1.422zm5.144-.01h-1.424v1.425h1.424v-1.426zm2.136 0h-1.424v1.425h1.424v-1.426zm2.137 0h-1.424v1.425h1.424v-1.426zM96.1 29.14h-1.424v1.422H96.1v-1.422zm2.136 0h-1.424v1.422h1.424v-1.422zm2.137 0h-1.424v1.422h1.424v-1.422zm5.144-.016h-1.424v1.426h1.424v-1.426zm2.136 0h-1.424v1.426h1.424v-1.426zm2.137 0h-1.424v1.426h1.424v-1.426zM96.1 27.008h-1.424v1.422H96.1v-1.422zm2.136 0h-1.424v1.422h1.424v-1.422zm2.137 0h-1.424v1.422h1.424v-1.422zm5.144-.022h-1.424v1.426h1.424v-1.426zm2.136 0h-1.424v1.426h1.424v-1.426zm2.137 0h-1.424v1.426h1.424v-1.426zm-4.273-2.091h-1.424v1.425h1.424v-1.425zm2.136 0h-1.424v1.425h1.424v-1.425zm2.137 0h-1.424v1.425h1.424v-1.425z"/>
            <rect width="25.815" height="6.007" x="117.37" y="12.42" fill="#475059" rx=".534"/>
            <rect width="53.339" height="6.007" x="89.802" y="41.202" fill="#475059" rx=".534"/>
            <rect width="25.815" height="6.007" x="117.37" y="20.679" fill="#9ED656" rx=".534"/>
            <rect width="11.625" height="10.011" x="131.559" y="28.938" fill="#1C9E3B" rx=".534"/>
            <rect width="11.625" height="10.011" x="117.37" y="28.938" fill="#BAC2C8" rx=".534"/>
            <path fill="#FFF" fill-rule="nonzero" d="M144.882 2.732a8.436 8.436 0 1 1 0 16.872 8.436 8.436 0 0 1 0-16.872zm0-2.573c-6.08 0-11.01 4.929-11.01 11.01 0 6.08 4.93 11.008 11.01 11.008s11.01-4.929 11.01-11.009-4.93-11.01-11.01-11.01z"/>
            <path fill="#FF7000" d="M144.882 1.446c-5.37 0-9.722 4.353-9.722 9.722 0 5.37 4.352 9.722 9.722 9.722 5.37 0 9.722-4.352 9.722-9.722 0-5.37-4.353-9.722-9.722-9.722"/>
            <path fill="#FFF" d="M149.091 9.519l-4.626 4.522a.964.964 0 0 1-.675.273.963.963 0 0 1-.676-.273l-2.442-2.387a.263.263 0 0 1 0-.377l.773-.755a.278.278 0 0 1 .386 0l1.959 1.914 4.143-4.05a.278.278 0 0 1 .386 0l.772.755a.263.263 0 0 1 0 .378M229.593 8.666h-60.296l.054 42.046h60.295z"/>
            <path fill="#475059" fill-rule="nonzero" d="M230.553 51.773h-61.937a.801.801 0 0 1-.802-.8l-.055-43.006a.801.801 0 0 1 .801-.802h61.937c.442 0 .8.358.802.8l.055 43.006a.801.801 0 0 1-.801.802zm-1.59-43.07H170.27a.801.801 0 0 0-.801.801v.001l.051 39.93c0 .442.36.8.801.8h58.693a.801.801 0 0 0 .801-.801v-.001l-.051-39.93c0-.442-.36-.8-.801-.8z"/>
            <rect width="24.96" height="1.502" x="173.014" y="12.42" fill="#475059" rx=".751"/>
            <rect width="24.96" height="1.502" x="173.014" y="16.925" fill="#475059" rx=".751"/>
            <path fill="#475059" d="M173.592 38.766h23.892c.295 0 .534-.24.534-.534V21.03a.534.534 0 0 0-.534-.534h-23.892a.534.534 0 0 0-.534.534v17.202c0 .295.239.534.534.534z"/>
            <path fill="#FFF" d="M184.654 25.917v9.875h-3.206v-2.384h-1.424v2.384h-3.205v-9.875h7.835zm9.417-2.686l-.001 12.561h-3.205v-2.389h-1.424v2.39h-3.205V23.23h7.835zm-14.759 8.044h-1.424v1.422h1.424v-1.422zm2.137 0h-1.424v1.422h1.424v-1.422zm2.136 0h-1.424v1.422h1.424v-1.422zm5.144-.01h-1.424v1.425h1.424v-1.426zm2.137 0h-1.424v1.425h1.424v-1.426zm2.136 0h-1.424v1.425h1.424v-1.426zm-13.69-2.124h-1.424v1.422h1.424v-1.422zm2.137 0h-1.424v1.422h1.424v-1.422zm2.136 0h-1.424v1.422h1.424v-1.422zm5.144-.016h-1.424v1.426h1.424v-1.426zm2.137 0h-1.424v1.426h1.424v-1.426zm2.136 0h-1.424v1.426h1.424v-1.426zm-13.69-2.117h-1.424v1.422h1.424v-1.422zm2.137 0h-1.424v1.422h1.424v-1.422zm2.136 0h-1.424v1.422h1.424v-1.422zm5.144-.022h-1.424v1.426h1.424v-1.426zm2.137 0h-1.424v1.426h1.424v-1.426zm2.136 0h-1.424v1.426h1.424v-1.426zm-4.273-2.091h-1.424v1.425h1.424v-1.425zm2.137 0h-1.424v1.425h1.424v-1.425zm2.136 0h-1.424v1.425h1.424v-1.425z"/>
            <rect width="25.815" height="6.007" x="200.582" y="12.42" fill="#475059" rx=".534"/>
            <rect width="53.339" height="6.007" x="173.014" y="41.202" fill="#475059" rx=".534"/>
            <rect width="25.815" height="6.007" x="200.582" y="20.679" fill="#9ED656" rx=".534"/>
            <rect width="11.625" height="10.011" x="214.772" y="28.938" fill="#1C9E3B" rx=".534"/>
            <rect width="11.625" height="10.011" x="200.582" y="28.938" fill="#BAC2C8" rx=".534"/>
            <path fill="#FFF" fill-rule="nonzero" d="M228.094 2.732a8.436 8.436 0 1 1 0 16.872 8.436 8.436 0 0 1 0-16.872zm0-2.573c-6.08 0-11.009 4.929-11.009 11.01 0 6.08 4.93 11.008 11.01 11.008s11.008-4.929 11.008-11.009S234.174.158 228.094.158z"/>
            <path fill="#FF7000" d="M228.094 1.446c-5.37 0-9.722 4.353-9.722 9.722 0 5.37 4.353 9.722 9.722 9.722 5.37 0 9.723-4.352 9.723-9.722 0-5.37-4.353-9.722-9.723-9.722"/>
            <path fill="#FFF" d="M232.304 9.519l-4.626 4.522a.964.964 0 0 1-.676.273.963.963 0 0 1-.676-.273l-2.441-2.387a.263.263 0 0 1 0-.377l.772-.755a.278.278 0 0 1 .386 0l1.959 1.914 4.143-4.05a.278.278 0 0 1 .386 0l.773.755a.263.263 0 0 1 0 .378M61.833 71.433H1.538l.053 42.046h60.296z"/>
            <path fill="#475059" fill-rule="nonzero" d="M62.793 114.54H.856a.801.801 0 0 1-.8-.8L0 70.734a.801.801 0 0 1 .801-.803h61.937c.442 0 .8.359.801.8l.056 43.007a.801.801 0 0 1-.8.802h-.002zm-1.59-43.07H2.512a.801.801 0 0 0-.801.802l.05 39.93c.001.442.36.8.802.8h58.693a.801.801 0 0 0 .8-.802l-.05-39.93c0-.442-.36-.8-.801-.8z"/>
            <rect width="24.96" height="1.502" x="5.255" y="75.187" fill="#475059" rx=".751"/>
            <rect width="24.96" height="1.502" x="5.255" y="79.692" fill="#475059" rx=".751"/>
            <path fill="#475059" d="M5.833 101.533h23.892c.295 0 .534-.24.534-.535V83.797a.534.534 0 0 0-.534-.534H5.833a.534.534 0 0 0-.534.534v17.201c0 .295.239.535.534.535z"/>
            <path fill="#FFF" d="M16.895 88.684l-.001 9.875h-3.205v-2.384h-1.424v2.384H9.06v-9.875h7.835zm9.416-2.687V98.56h-3.205v-2.39h-1.424v2.39h-3.205V85.997h7.834zm-14.758 8.045h-1.424v1.422h1.424v-1.422zm2.137 0h-1.425v1.422h1.425v-1.422zm2.136 0h-1.424v1.422h1.424v-1.422zm5.144-.011h-1.424v1.426h1.424V94.03zm2.137 0h-1.425v1.426h1.425V94.03zm2.136 0H23.82v1.426h1.424V94.03zm-13.69-2.123h-1.424v1.422h1.424v-1.422zm2.137 0h-1.425v1.422h1.425v-1.422zm2.136 0h-1.424v1.422h1.424v-1.422zm5.144-.016h-1.424v1.426h1.424v-1.426zm2.137 0h-1.425v1.426h1.425v-1.426zm2.136 0H23.82v1.426h1.424v-1.426zm-13.69-2.118h-1.424v1.423h1.424v-1.423zm2.137 0h-1.425v1.423h1.425v-1.423zm2.136 0h-1.424v1.423h1.424v-1.423zm5.144-.021h-1.424v1.426h1.424v-1.426zm2.137 0h-1.425v1.426h1.425v-1.426zm2.136 0H23.82v1.426h1.424v-1.426zM20.97 87.66h-1.424v1.426h1.424v-1.426zm2.137 0h-1.425v1.426h1.425v-1.426zm2.136 0H23.82v1.426h1.424v-1.426z"/>
            <rect width="25.815" height="6.007" x="32.823" y="75.187" fill="#475059" rx=".534"/>
            <rect width="53.339" height="6.007" x="5.255" y="103.968" fill="#475059" rx=".534"/>
            <rect width="25.815" height="6.007" x="32.823" y="83.446" fill="#9ED656" rx=".534"/>
            <rect width="11.625" height="10.011" x="47.013" y="91.705" fill="#1C9E3B" rx=".534"/>
            <rect width="11.625" height="10.011" x="32.823" y="91.705" fill="#BAC2C8" rx=".534"/>
            <path fill="#FFF" fill-rule="nonzero" d="M60.335 65.5a8.436 8.436 0 1 1 0 16.87 8.436 8.436 0 0 1 0-16.87zm0-2.574c-6.08 0-11.01 4.929-11.01 11.009s4.93 11.009 11.01 11.009 11.01-4.93 11.01-11.01-4.93-11.008-11.01-11.008z"/>
            <path fill="#FF7000" d="M60.335 64.212c-5.37 0-9.722 4.353-9.722 9.723 0 5.37 4.353 9.722 9.722 9.722 5.37 0 9.722-4.353 9.722-9.722 0-5.37-4.352-9.723-9.722-9.723"/>
            <path fill="#FFF" d="M64.545 72.286l-4.627 4.521a.964.964 0 0 1-.675.273.963.963 0 0 1-.676-.273l-2.441-2.386a.263.263 0 0 1 0-.377l.772-.755a.278.278 0 0 1 .386 0l1.959 1.914 4.143-4.05a.278.278 0 0 1 .386 0l.773.755a.263.263 0 0 1 0 .378M146.38 71.433H86.085l.053 42.046h60.295z"/>
            <path fill="#475059" fill-rule="nonzero" d="M147.34 114.54H85.403a.801.801 0 0 1-.8-.8l-.056-43.006a.801.801 0 0 1 .801-.803h61.937c.442 0 .8.359.801.8l.055 43.007a.801.801 0 0 1-.8.802zm-1.59-43.07H87.058a.801.801 0 0 0-.802.802l.052 39.93c0 .442.359.8.8.8h58.694a.801.801 0 0 0 .8-.801v-.001l-.05-39.93c-.001-.442-.36-.8-.802-.8z"/>
            <rect width="24.96" height="1.502" x="89.802" y="75.187" fill="#475059" rx=".751"/>
            <rect width="24.96" height="1.502" x="89.802" y="79.692" fill="#475059" rx=".751"/>
            <path fill="#475059" d="M90.38 101.533h23.891c.295 0 .534-.24.534-.535V83.797a.534.534 0 0 0-.534-.534H90.38a.534.534 0 0 0-.534.534v17.201c0 .295.239.535.534.535z"/>
            <path fill="#FFF" d="M101.441 88.684v9.875h-3.205v-2.384h-1.424v2.384h-3.205v-9.875h7.834zm9.417-2.687V98.56h-3.205v-2.39h-1.425v2.39h-3.204V85.997h7.834zM96.1 94.042h-1.424v1.422H96.1v-1.422zm2.136 0h-1.424v1.422h1.424v-1.422zm2.137 0h-1.424v1.422h1.424v-1.422zm5.144-.011h-1.424v1.426h1.424V94.03zm2.136 0h-1.424v1.426h1.424V94.03zm2.137 0h-1.424v1.426h1.424V94.03zM96.1 91.908h-1.424v1.422H96.1v-1.422zm2.136 0h-1.424v1.422h1.424v-1.422zm2.137 0h-1.424v1.422h1.424v-1.422zm5.144-.016h-1.424v1.426h1.424v-1.426zm2.136 0h-1.424v1.426h1.424v-1.426zm2.137 0h-1.424v1.426h1.424v-1.426zM96.1 89.774h-1.424v1.423H96.1v-1.423zm2.136 0h-1.424v1.423h1.424v-1.423zm2.137 0h-1.424v1.423h1.424v-1.423zm5.144-.021h-1.424v1.426h1.424v-1.426zm2.136 0h-1.424v1.426h1.424v-1.426zm2.137 0h-1.424v1.426h1.424v-1.426zm-4.273-2.092h-1.424v1.426h1.424v-1.426zm2.136 0h-1.424v1.426h1.424v-1.426zm2.137 0h-1.424v1.426h1.424v-1.426z"/>
            <rect width="25.815" height="6.007" x="117.37" y="75.187" fill="#475059" rx=".534"/>
            <rect width="53.339" height="6.007" x="89.802" y="103.968" fill="#475059" rx=".534"/>
            <rect width="25.815" height="6.007" x="117.37" y="83.446" fill="#9ED656" rx=".534"/>
            <rect width="11.625" height="10.011" x="131.559" y="91.705" fill="#1C9E3B" rx=".534"/>
            <rect width="11.625" height="10.011" x="117.37" y="91.705" fill="#BAC2C8" rx=".534"/>
            <path fill="#FFF" fill-rule="nonzero" d="M144.882 65.5a8.436 8.436 0 1 1 0 16.87 8.436 8.436 0 0 1 0-16.87zm0-2.574c-6.08 0-11.01 4.929-11.01 11.009s4.93 11.009 11.01 11.009 11.01-4.93 11.01-11.01-4.93-11.008-11.01-11.008z"/>
            <path fill="#FF7000" d="M144.882 64.212c-5.37 0-9.722 4.353-9.722 9.723 0 5.37 4.352 9.722 9.722 9.722 5.37 0 9.722-4.353 9.722-9.722 0-5.37-4.353-9.723-9.722-9.723"/>
            <path fill="#FFF" d="M149.091 72.286l-4.626 4.521a.964.964 0 0 1-.675.273.963.963 0 0 1-.676-.273l-2.442-2.386a.263.263 0 0 1 0-.377l.773-.755a.278.278 0 0 1 .386 0l1.959 1.914 4.143-4.05a.278.278 0 0 1 .386 0l.772.755a.263.263 0 0 1 0 .378M229.593 71.433h-60.296l.054 42.046h60.295z"/>
            <path fill="#475059" fill-rule="nonzero" d="M230.553 114.54h-61.937a.801.801 0 0 1-.802-.8l-.055-43.006a.801.801 0 0 1 .801-.803h61.937c.442 0 .8.359.802.8l.055 43.007a.801.801 0 0 1-.8.802h-.001zm-1.59-43.07H170.27a.801.801 0 0 0-.801.8v.002l.051 39.93c0 .442.36.8.801.8h58.693a.801.801 0 0 0 .801-.801v-.001l-.051-39.93c0-.442-.36-.8-.801-.8z"/>
            <rect width="24.96" height="1.502" x="173.014" y="75.187" fill="#475059" rx=".751"/>
            <rect width="24.96" height="1.502" x="173.014" y="79.692" fill="#475059" rx=".751"/>
            <path fill="#475059" d="M173.592 101.533h23.892c.295 0 .534-.24.534-.535V83.797a.534.534 0 0 0-.534-.534h-23.892a.534.534 0 0 0-.534.534v17.201c0 .295.239.535.534.535z"/>
            <path fill="#FFF" d="M184.654 88.684v9.875h-3.206v-2.384h-1.424v2.384h-3.205v-9.875h7.835zm9.417-2.687l-.001 12.562h-3.205v-2.39h-1.424v2.39h-3.205V85.997h7.835zm-14.759 8.045h-1.424v1.422h1.424v-1.422zm2.137 0h-1.424v1.422h1.424v-1.422zm2.136 0h-1.424v1.422h1.424v-1.422zm5.144-.011h-1.424v1.426h1.424V94.03zm2.137 0h-1.424v1.426h1.424V94.03zm2.136 0h-1.424v1.426h1.424V94.03zm-13.69-2.123h-1.424v1.422h1.424v-1.422zm2.137 0h-1.424v1.422h1.424v-1.422zm2.136 0h-1.424v1.422h1.424v-1.422zm5.144-.016h-1.424v1.426h1.424v-1.426zm2.137 0h-1.424v1.426h1.424v-1.426zm2.136 0h-1.424v1.426h1.424v-1.426zm-13.69-2.118h-1.424v1.423h1.424v-1.423zm2.137 0h-1.424v1.423h1.424v-1.423zm2.136 0h-1.424v1.423h1.424v-1.423zm5.144-.021h-1.424v1.426h1.424v-1.426zm2.137 0h-1.424v1.426h1.424v-1.426zm2.136 0h-1.424v1.426h1.424v-1.426zm-4.273-2.092h-1.424v1.426h1.424v-1.426zm2.137 0h-1.424v1.426h1.424v-1.426zm2.136 0h-1.424v1.426h1.424v-1.426z"/>
            <rect width="25.815" height="6.007" x="200.582" y="75.187" fill="#475059" rx=".534"/>
            <rect width="53.339" height="6.007" x="173.014" y="103.968" fill="#475059" rx=".534"/>
            <rect width="25.815" height="6.007" x="200.582" y="83.446" fill="#9ED656" rx=".534"/>
            <rect width="11.625" height="10.011" x="214.772" y="91.705" fill="#1C9E3B" rx=".534"/>
            <rect width="11.625" height="10.011" x="200.582" y="91.705" fill="#BAC2C8" rx=".534"/>
            <path fill="#FFF" fill-rule="nonzero" d="M228.094 65.5a8.436 8.436 0 1 1 0 16.87 8.436 8.436 0 0 1 0-16.87zm0-2.574c-6.08 0-11.009 4.929-11.009 11.009s4.93 11.009 11.01 11.009 11.008-4.93 11.008-11.01-4.929-11.008-11.009-11.008z"/>
            <path fill="#FF7000" d="M228.094 64.212c-5.37 0-9.722 4.353-9.722 9.723 0 5.37 4.353 9.722 9.722 9.722 5.37 0 9.723-4.353 9.723-9.722 0-5.37-4.353-9.723-9.723-9.723"/>
            <path fill="#FFF" d="M232.304 72.286l-4.626 4.521a.964.964 0 0 1-.676.273.963.963 0 0 1-.676-.273l-2.441-2.386a.263.263 0 0 1 0-.377l.772-.755a.278.278 0 0 1 .386 0l1.959 1.914 4.143-4.05a.278.278 0 0 1 .386 0l.773.755a.263.263 0 0 1 0 .378"/>
            <g>
                <path fill="#FFF" d="M76.185 157.777l-2.42-2.421a2.343 2.343 0 0 1 .755-3.822l19.96-8.316a1.063 1.063 0 1 1 1.392 1.392l-8.318 19.958a2.337 2.337 0 0 1-2.166 1.444 2.326 2.326 0 0 1-1.655-.687l-2.422-2.42-1.963 1.961c-1.37 1.37-3.756 1.37-5.127 0a3.63 3.63 0 0 1 0-5.125l1.964-1.964zM99.488 138.317a.908.908 0 0 1 1.283 1.284l-2.315 2.316a.905.905 0 0 1-1.284 0 .908.908 0 0 1 0-1.284l2.316-2.316zM89.928 142.5c-.141 0-.285-.029-.42-.09l-3.202-1.46c-.464-.213-.653-.729-.42-1.153.232-.424.796-.595 1.262-.384l3.201 1.461c.465.212.653.728.421 1.152a.954.954 0 0 1-.842.474zM97.064 148.319c.424-.233.941-.044 1.151.42l1.46 3.203c.212.464.04 1.029-.384 1.262a.8.8 0 0 1-.383.099.85.85 0 0 1-.769-.521l-1.46-3.202c-.212-.464-.04-1.028.385-1.261zM92.695 140.893a.846.846 0 0 1-.176.018c-.416 0-.789-.3-.874-.735l-.758-3.89a.914.914 0 0 1 .7-1.075c.49-.101.952.223 1.048.717l.758 3.89a.911.911 0 0 1-.698 1.075zM98.195 146.394a.91.91 0 0 1 1.076-.699l3.89.758a.892.892 0 0 1 .717 1.05.91.91 0 0 1-1.077.698l-3.89-.758a.893.893 0 0 1-.716-1.049z"/>
                <path fill="#475059" d="M77.386 163.652l3.818-3.461a1.132 1.132 0 0 1 1.603 0l3.381 3.393a.217.217 0 0 0 .16.068c.037 0 .16-.01.216-.142l7.8-18.786-18.722 7.827a.225.225 0 0 0-.137.17.22.22 0 0 0 .063.207l3.382 3.393a1.14 1.14 0 0 1 0 1.608l-3.818 3.462a1.604 1.604 0 0 0-.001 2.26c.602.605 1.653.605 2.255.001z"/>
            </g>
        </g>
    </g>
</svg>
