<svg xmlns="http://www.w3.org/2000/svg" xmlns:xlink="http://www.w3.org/1999/xlink" width="340" height="200" viewBox="0 0 340 200">
    <defs>
        <path id="a" d="M3.144.32a2.998 2.998 0 0 0-2.998 3v124.608a2.998 2.998 0 0 0 2.998 2.998h189.68a3 3 0 0 0 3.003-2.998V30.201h-3.23v97.496H3.376V3.551h164.242V.32H3.144z"/>
        <path id="c" d="M1.753.135c-.895 0-1.62.722-1.62 1.61 0 .897.725 1.619 1.62 1.619h65.533c.892 0 1.614-.722 1.614-1.62 0-.887-.722-1.61-1.614-1.61H1.753z"/>
        <path id="e" d="M2.872.322A2.593 2.593 0 0 0 .28 2.915v27.04a2.593 2.593 0 0 0 2.592 2.59h36.246c.686 0 1.345-.278 1.83-.762.486-.485.76-1.142.76-1.828V2.915a2.57 2.57 0 0 0-.76-1.828 2.578 2.578 0 0 0-1.83-.765H2.872zm.864 6.759V3.773h34.519v3.308l-17.26 11.884L3.735 7.081zm18.56 15.187l15.959-11v17.824H3.735V11.267l16.108 11.06c.347.21.744.32 1.152.334a2.38 2.38 0 0 0 1.3-.393z"/>
        <path id="g" d="M.333 16.227c0 8.786 7.104 15.89 15.892 15.89 8.785 0 15.89-7.104 15.89-15.89 0-8.79-7.105-15.894-15.89-15.894C7.437.333.333 7.437.333 16.227zm9.053-2.574l6.126-6.124c.446-.446 1.063-.446 1.507 0l6.126 6.124c.713.71.18 1.865-.709 1.865h-2.754v8.524c0 .619-.441 1.067-1.062 1.067h-4.617c-.62 0-1.066-.448-1.066-1.067v-8.524h-2.753c-.978 0-1.422-1.154-.798-1.865z"/>
        <path id="i" d="M35.315.32L2.03 14.238a.433.433 0 0 0-.267.332.423.423 0 0 0 .126.403l6.59 6.615a2.217 2.217 0 0 1 0 3.135l-7.44 6.754a3.122 3.122 0 0 0-.004 4.406c1.175 1.175 3.222 1.175 4.397 0l7.442-6.747a2.209 2.209 0 0 1 3.128 0l6.595 6.613a.403.403 0 0 0 .31.134c.071 0 .314-.02.419-.278L37.198 2.202c.413-.993-.358-1.993-1.32-1.993-.184 0-.375.033-.563.112z"/>
        <path id="k" d="M27.529.248L1.724 11.036a.315.315 0 0 0-.195.242.32.32 0 0 0 .092.298l4.854 4.868c.637.64.637 1.675 0 2.312l-5.482 4.97a2.306 2.306 0 0 0-.002 3.246c.865.868 2.377.868 3.24 0l5.482-4.969a1.621 1.621 0 0 1 2.299 0l4.857 4.87a.316.316 0 0 0 .23.1.324.324 0 0 0 .308-.205L28.159.873a.477.477 0 0 0-.442-.661.483.483 0 0 0-.188.036z"/>
    </defs>
    <g fill="none" fill-rule="evenodd">
        <path fill="#FFF" stroke="#D3D3D3" d="M0 0h340v200H0z"/>
        <g transform="translate(61.979 33.193)">
            <mask id="b" fill="#fff">
                <use xlink:href="#a"/>
            </mask>
            <path fill="#4D4F58" d="M-2.122 133.198h200.214V-1.945H-2.122z" mask="url(#b)"/>
        </g>
        <g transform="translate(125.532 177.411)">
            <mask id="d" fill="#fff">
                <use xlink:href="#c"/>
            </mask>
            <path fill="#4D4F58" d="M-2.131 5.63h73.298v-7.765H-2.13z" mask="url(#d)"/>
        </g>
        <path fill="#4D4F58" d="M136.281 180.775h47.074v-19.85h-47.074v19.85zm3.234-3.229h40.611v-13.385h-40.611v13.385zM233.61 47.868H86.318a2.628 2.628 0 0 0-2.628 2.63v99.946a2.628 2.628 0 0 0 2.628 2.63H233.61a2.63 2.63 0 0 0 2.632-2.63V50.498a2.63 2.63 0 0 0-2.632-2.63m0 1.856c.426 0 .776.343.776.774v99.946c0 .429-.35.776-.776.776H86.318a.774.774 0 0 1-.771-.776V50.498a.77.77 0 0 1 .771-.774H233.61"/>
        <path fill="#4D4F58" d="M154.216 63.65H97.33a1.805 1.805 0 0 1-1.806-1.806v-.336c0-.996.81-1.805 1.806-1.805h56.886c.996 0 1.805.81 1.805 1.805v.336c0 .998-.81 1.805-1.805 1.805M222.816 72.855H165.5a1.59 1.59 0 0 1-1.59-1.59V58.663c0-.879.713-1.59 1.59-1.59h57.317c.88 0 1.59.711 1.59 1.59v12.602c0 .88-.71 1.59-1.59 1.59"/>
        <path fill="#93C256" d="M222.816 93.895H165.5c-.877 0-1.59-.709-1.59-1.588V79.703a1.59 1.59 0 0 1 1.59-1.588h57.317c.88 0 1.59.711 1.59 1.588v12.604c0 .88-.71 1.588-1.59 1.588"/>
        <path fill="#4D4F58" d="M222.816 143.869H97.114c-.877 0-1.59-.709-1.59-1.588V129.68c0-.879.713-1.59 1.59-1.59h125.702c.88 0 1.59.711 1.59 1.59v12.602c0 .88-.71 1.588-1.59 1.588"/>
        <path fill="#DBDBDD" d="M189.938 121.513h-24.437c-.879 0-1.59-.711-1.59-1.59V102.06c0-.877.711-1.59 1.59-1.59h24.437c.88 0 1.59.713 1.59 1.59v17.863c0 .879-.71 1.59-1.59 1.59"/>
        <path fill="#3F8A37" d="M222.816 121.513H198.38c-.88 0-1.59-.711-1.59-1.59V102.06c0-.877.71-1.59 1.59-1.59h24.437c.88 0 1.59.713 1.59 1.59v17.863c0 .879-.71 1.59-1.59 1.59"/>
        <path fill="#4D4F58" d="M154.216 71.54H97.33a1.805 1.805 0 0 1-1.806-1.806v-.336c0-.996.81-1.805 1.806-1.805h56.886c.996 0 1.805.81 1.805 1.805v.336c0 .998-.81 1.805-1.805 1.805M154.43 121.513H97.112c-.874 0-1.59-.711-1.59-1.59V79.702c0-.875.716-1.588 1.59-1.588h57.32c.879 0 1.59.713 1.59 1.588v40.22c0 .88-.711 1.59-1.59 1.59"/>
        <path fill="#FEFEFE" d="M123.815 90.654v23.655a.395.395 0 0 1-.395.394h-7.14a.395.395 0 0 1-.394-.394v-5.11a.392.392 0 0 0-.395-.395h-2.733a.392.392 0 0 0-.392.394v5.11c0 .218-.18.395-.397.395h-7.14a.397.397 0 0 1-.395-.394V90.654c0-.22.18-.397.395-.397h18.591c.22 0 .395.177.395.397m23.296-6.65l-.002 30.305a.394.394 0 0 1-.395.394h-7.14a.393.393 0 0 1-.392-.394v-5.124c0-.22-.18-.397-.395-.397h-2.735a.396.396 0 0 0-.395.397v5.124a.395.395 0 0 1-.395.394h-7.137a.394.394 0 0 1-.395-.394V84.003c0-.217.175-.394.395-.394h18.591c.218 0 .395.177.395.394m-36.903 19.518h-2.733a.391.391 0 0 0-.395.394v2.732c0 .217.175.394.395.394h2.733a.393.393 0 0 0 .393-.394v-2.732a.39.39 0 0 0-.393-.394m5.286 0h-2.736a.392.392 0 0 0-.392.394v2.732c0 .217.177.394.392.394h2.736a.395.395 0 0 0 .394-.394v-2.732a.392.392 0 0 0-.394-.394m5.285 0h-2.734a.392.392 0 0 0-.394.394v2.732c0 .217.177.394.394.394h2.734a.395.395 0 0 0 .395-.394v-2.732a.392.392 0 0 0-.395-.394m12.723-.025h-2.733a.393.393 0 0 0-.395.392v2.74c0 .22.177.395.395.395h2.733a.394.394 0 0 0 .395-.394v-2.74a.393.393 0 0 0-.395-.393m5.285 0h-2.733a.392.392 0 0 0-.395.392v2.74c0 .22.175.395.395.395h2.733a.396.396 0 0 0 .397-.394v-2.74a.395.395 0 0 0-.397-.393m5.286 0h-2.734a.393.393 0 0 0-.395.392v2.74c0 .22.178.395.395.395h2.734c.22 0 .394-.175.394-.394v-2.74a.392.392 0 0 0-.394-.393m-33.865-5.256h-2.733a.394.394 0 0 0-.395.395v2.729c0 .22.175.396.395.396h2.733a.394.394 0 0 0 .393-.396v-2.73a.393.393 0 0 0-.393-.394m5.286 0h-2.736a.395.395 0 0 0-.392.395v2.729c0 .22.177.396.392.396h2.736a.396.396 0 0 0 .394-.396v-2.73a.395.395 0 0 0-.394-.394m5.285 0h-2.734a.395.395 0 0 0-.394.395v2.729c0 .22.177.396.394.396h2.734a.396.396 0 0 0 .395-.396v-2.73a.395.395 0 0 0-.395-.394m12.723-.04h-2.733a.395.395 0 0 0-.395.394v2.74c0 .218.177.39.395.39h2.733a.391.391 0 0 0 .395-.39v-2.74a.395.395 0 0 0-.395-.394m5.285 0h-2.733a.394.394 0 0 0-.395.394v2.74c0 .218.175.39.395.39h2.733a.393.393 0 0 0 .397-.39v-2.74a.397.397 0 0 0-.397-.394m5.286 0h-2.734a.395.395 0 0 0-.395.394v2.74c0 .218.178.39.395.39h2.734a.39.39 0 0 0 .394-.39v-2.74a.394.394 0 0 0-.394-.394m-33.865-5.243h-2.733a.392.392 0 0 0-.395.395v2.733c0 .218.175.395.395.395h2.733a.393.393 0 0 0 .393-.395v-2.733a.392.392 0 0 0-.393-.395m5.286 0h-2.736a.393.393 0 0 0-.392.395v2.733c0 .218.177.395.392.395h2.736a.395.395 0 0 0 .394-.395v-2.733a.394.394 0 0 0-.394-.395m5.285 0h-2.734a.394.394 0 0 0-.394.395v2.733c0 .218.177.395.394.395h2.734a.395.395 0 0 0 .395-.395v-2.733a.394.394 0 0 0-.395-.395m12.723-.052h-2.733a.395.395 0 0 0-.395.395v2.74c0 .218.177.395.395.395h2.733a.395.395 0 0 0 .395-.395V93.3a.395.395 0 0 0-.395-.395m5.285 0h-2.733a.394.394 0 0 0-.395.395v2.74c0 .218.175.395.395.395h2.733a.397.397 0 0 0 .397-.395V93.3a.397.397 0 0 0-.397-.395m5.286 0h-2.734a.395.395 0 0 0-.395.395v2.74c0 .218.178.395.395.395h2.734c.22 0 .394-.177.394-.395V93.3a.394.394 0 0 0-.394-.395m-10.571-5.177h-2.733a.395.395 0 0 0-.395.394v2.74c0 .216.177.397.395.397h2.733a.399.399 0 0 0 .395-.396v-2.74a.395.395 0 0 0-.395-.395m5.285 0h-2.733a.394.394 0 0 0-.395.394v2.74c0 .216.175.397.395.397h2.733a.4.4 0 0 0 .397-.396v-2.74a.397.397 0 0 0-.397-.395m5.286 0h-2.734a.395.395 0 0 0-.395.394v2.74c0 .216.178.397.395.397h2.734c.22 0 .394-.181.394-.396v-2.74a.394.394 0 0 0-.394-.395"/>
        <g transform="translate(240.984 21.214)">
            <mask id="f" fill="#fff">
                <use xlink:href="#e"/>
            </mask>
            <path fill="#3B9438" d="M-5.471 38.297h52.93V-5.43H-5.47z" mask="url(#f)"/>
        </g>
        <path fill="#FEFEFE" d="M309.204 56.145c0 10.53-8.539 19.069-19.069 19.069s-19.069-8.539-19.069-19.069 8.539-19.07 19.069-19.07 19.07 8.54 19.07 19.07"/>
        <g transform="translate(273.912 39.92)">
            <mask id="h" fill="#fff">
                <use xlink:href="#g"/>
            </mask>
            <path fill="#FF7000" d="M-2.979 35.428h38.405V-2.977H-2.979z" mask="url(#h)"/>
        </g>
        <path fill="#FEFEFE" d="M49.473 177.416l7.443-6.75a2.209 2.209 0 0 1 3.128 0l6.592 6.614a.443.443 0 0 0 .731-.141l13.872-33.403c.493-1.186-.7-2.375-1.886-1.877l-33.281 13.912a.437.437 0 0 0-.27.33.438.438 0 0 0 .126.405l6.593 6.615a2.218 2.218 0 0 1 0 3.133l-7.443 6.754a3.127 3.127 0 0 0-.002 4.408c1.175 1.178 3.222 1.178 4.397 0"/>
        <g transform="translate(44.04 141.534)">
            <mask id="j" fill="#fff">
                <use xlink:href="#i"/>
            </mask>
            <path fill="#FEFEFE" d="M-2.97 39.862h44.608V-4.12H-2.969z" mask="url(#j)"/>
        </g>
        <g fill="#4D4F58">
            <path d="M53.139 172.667l5.48-4.97a1.627 1.627 0 0 1 2.303 0l4.855 4.871a.329.329 0 0 0 .538-.105l10.752-25.895a.48.48 0 0 0-.628-.626L50.634 156.73a.322.322 0 0 0-.197.242.321.321 0 0 0 .092.299l4.854 4.87a1.639 1.639 0 0 1 0 2.31l-5.48 4.969a2.301 2.301 0 0 0-.002 3.247c.863.867 2.372.867 3.238 0"/>
        </g>
        <g transform="translate(48.908 145.695)">
            <mask id="l" fill="#fff">
                <use xlink:href="#k"/>
            </mask>
            <path fill="#4D4F58" d="M-5.32 33.264h39.57V-5.847H-5.32z" mask="url(#l)"/>
            <path fill="#FEFEFE" d="M37.614-9.21H-8.682V36.631H37.614V-9.21zM-1.954 29.904h32.841V-2.483H-1.954v32.387z" mask="url(#l)"/>
        </g>
    </g>
</svg>
