<svg xmlns="http://www.w3.org/2000/svg" width="250" height="125" viewBox="0 0 250 125">
    <g fill="none" fill-rule="evenodd">
        <path fill="#FFF" d="M0 0H250V125H0z"/>
        <g>
            <g>
                <path fill="#EDF4EF" d="M1.063 1.063H193.563V47.313H1.063z" transform="translate(8.75 5) translate(35.187 52.5)"/>
                <path fill="#97A099" d="M194.626 6.063H192.5v-5h2.126v5zm0 7.5H192.5v-5h2.126v5zm0 7.5H192.5v-5h2.126v5zm0 7.5H192.5v-5h2.126v5zm0 7.5H192.5v-5h2.126v5zm0 7.5H192.5v-5h2.126v5zm-4.813 4.813V46.25h3.75l-1.063 1.063v-1.25h2.126v1.25c0 .587-.476 1.063-1.063 1.063h-3.75zm-7.5 0V46.25h5v2.126h-5zm-7.5 0V46.25h5v2.126h-5zm-7.5 0V46.25h5v2.126h-5zm-7.5 0V46.25h5v2.126h-5zm-7.5 0V46.25h5v2.126h-5zm-7.5 0V46.25h5v2.126h-5zm-7.5 0V46.25h5v2.126h-5zm-7.5 0V46.25h5v2.126h-5zm-7.5 0V46.25h5v2.126h-5zm-7.5 0V46.25h5v2.126h-5zm-7.5 0V46.25h5v2.126h-5zm-7.5 0V46.25h5v2.126h-5zm-7.5 0V46.25h5v2.126h-5zm-7.5 0V46.25h5v2.126h-5zm-7.5 0V46.25h5v2.126h-5zm-7.5 0V46.25h5v2.126h-5zm-7.5 0V46.25h5v2.126h-5zm-7.5 0V46.25h5v2.126h-5zm-7.5 0V46.25h5v2.126h-5zm-7.5 0V46.25h5v2.126h-5zm-7.5 0V46.25h5v2.126h-5zm-7.5 0V46.25h5v2.126h-5zm-7.5 0V46.25h5v2.126h-5zm-7.5 0V46.25h5v2.126h-5zm-7.5 0V46.25h5v2.126h-5zM0 41.063h2.126v5H0v-5zm0-7.5h2.126v5H0v-5zm0-7.5h2.126v5H0v-5zm0-7.5h2.126v5H0v-5zm0-7.5h2.126v5H0v-5zm0-7.5h2.126v5H0v-5zM6.063 0v2.126h-5V0h5zm7.5 0v2.126h-5V0h5zm7.5 0v2.126h-5V0h5zm7.5 0v2.126h-5V0h5zm7.5 0v2.126h-5V0h5zm7.5 0v2.126h-5V0h5zm7.5 0v2.126h-5V0h5zm7.5 0v2.126h-5V0h5zm7.5 0v2.126h-5V0h5zm7.5 0v2.126h-5V0h5zm7.5 0v2.126h-5V0h5zm7.5 0v2.126h-5V0h5zm7.5 0v2.126h-5V0h5zm7.5 0v2.126h-5V0h5zm7.5 0v2.126h-5V0h5zm7.5 0v2.126h-5V0h5zm7.5 0v2.126h-5V0h5zm7.5 0v2.126h-5V0h5zm7.5 0v2.126h-5V0h5zm7.5 0v2.126h-5V0h5zm7.5 0v2.126h-5V0h5zm7.5 0v2.126h-5V0h5zm7.5 0v2.126h-5V0h5zm7.5 0v2.126h-5V0h5zm7.5 0v2.126h-5V0h5zm7.5 0v2.126h-5V0h5z" transform="translate(8.75 5) translate(35.187 52.5)"/>
            </g>
            <g>
                <path fill="#FFF" stroke="#FF7000" stroke-linejoin="round" stroke-width="1.417" d="M6.25 5H198.75V51.25H6.25z" transform="translate(8.75 5) translate(0 7.5)"/>
                <g>
                    <path fill="#FFF" d="M3.035 1.518H10.623000000000001V10.624H3.035z" transform="translate(8.75 5) translate(0 7.5) translate(1.25)"/>
                    <path fill="#FF7000" fill-rule="nonzero" d="M10.905 0H0v10.905h10.905V0zM8.8 2.104V8.8H2.104V2.104H8.8z" transform="translate(8.75 5) translate(0 7.5) translate(1.25)"/>
                </g>
                <g>
                    <path fill="#FFF" d="M2.5 0H10.088000000000001V9.106H2.5z" transform="translate(8.75 5) translate(0 7.5) translate(1.25 22.5)"/>
                    <path fill="#FF7000" fill-rule="nonzero" d="M10.905 0H0v10.905h10.905V0zM8.8 2.104V8.8H2.104V2.104H8.8z" transform="translate(8.75 5) translate(0 7.5) translate(1.25 22.5)"/>
                </g>
                <g>
                    <path fill="#FFF" d="M3.035 1.518H10.623000000000001V10.624H3.035z" transform="translate(8.75 5) translate(0 7.5) translate(1.031 44.639)"/>
                    <path fill="#FF7000" fill-rule="nonzero" d="M10.905 0H0v10.905h10.905V0zM8.8 2.103V8.8H2.104V2.103H8.8z" transform="translate(8.75 5) translate(0 7.5) translate(1.031 44.639)"/>
                </g>
                <g>
                    <path fill="#FFF" d="M1.25 1.25H8.838000000000001V10.356H1.25z" transform="translate(8.75 5) translate(0 7.5) translate(102.5)"/>
                    <path fill="#FF7000" fill-rule="nonzero" d="M10.905 0H0v10.905h10.905V0zM8.8 2.104V8.8H2.104V2.104H8.8z" transform="translate(8.75 5) translate(0 7.5) translate(102.5)"/>
                </g>
                <g>
                    <path fill="#FFF" d="M1.25 1.25H8.838000000000001V10.356H1.25z" transform="translate(8.75 5) translate(0 7.5) translate(102.5 45)"/>
                    <path fill="#FF7000" fill-rule="nonzero" d="M10.905 0H0v10.905h10.905V0zM8.8 2.103V8.8H2.104V2.103H8.8z" transform="translate(8.75 5) translate(0 7.5) translate(102.5 45)"/>
                </g>
                <g>
                    <path fill="#FFF" d="M0.407 1.052H7.995V10.158H0.407z" transform="translate(8.75 5) translate(0 7.5) translate(192.719)"/>
                    <path fill="#FF7000" fill-rule="nonzero" d="M10.905 0H0v10.905h10.905V0zM8.8 2.104V8.8H2.104V2.104H8.8z" transform="translate(8.75 5) translate(0 7.5) translate(192.719)"/>
                </g>
                <g>
                    <path fill="#FFF" d="M0 0H7.588V9.106H0z" transform="translate(8.75 5) translate(0 7.5) translate(192.719 22.5)"/>
                    <path fill="#FF7000" fill-rule="nonzero" d="M10.905 0H0v10.905h10.905V0zM8.8 2.104V8.8H2.104V2.104H8.8z" transform="translate(8.75 5) translate(0 7.5) translate(192.719 22.5)"/>
                </g>
                <g>
                    <path fill="#FFF" d="M0.407 1.152H7.995V10.258H0.407z" transform="translate(8.75 5) translate(0 7.5) translate(192.5 45.005)"/>
                    <path fill="#FF7000" fill-rule="nonzero" d="M10.905 0H0v10.905h10.905V0zM8.8 2.103V8.8H2.104V2.103H8.8z" transform="translate(8.75 5) translate(0 7.5) translate(192.5 45.005)"/>
                </g>
                <path fill="#475059" fill-rule="nonzero" d="M48.002 36.262c4.414 0 8.001-3.587 8.001-8.002 0-4.414-3.587-8.001-8.001-8.001-4.415 0-8.002 3.587-8.002 8.001 0 4.415 3.587 8.002 8.002 8.002zm0-2.587c-2.984 0-5.415-2.431-5.415-5.415 0-2.983 2.431-5.415 5.415-5.415 2.983 0 5.414 2.432 5.414 5.415 0 2.984-2.431 5.415-5.414 5.415zm17.244 2.587c4.415 0 8.002-3.587 8.002-8.002 0-4.414-3.587-8.001-8.002-8.001-4.414 0-8.001 3.587-8.001 8.001 0 4.415 3.587 8.002 8.001 8.002zm0-2.587c-2.983 0-5.414-2.431-5.414-5.415 0-2.983 2.431-5.415 5.414-5.415 2.984 0 5.415 2.432 5.415 5.415 0 2.984-2.431 5.415-5.415 5.415zm13.762-7.674v-.465h1.552c-.07.086-.12.172-.173.241.535.276 1.518.897 1.949 1.259.345-.517.655-1.156.931-1.863h1.328v1.984h-3.604v1.897l-.033-.058c-.328-.56-1.468-2.363-1.95-2.995zm1.983 3.053v.362h2.552c-.862 1.776-2.224 3.431-3.794 4.38.535.448 1.294 1.328 1.673 1.914 1.259-.914 2.31-2.242 3.173-3.777v4.519h2.449v-4.536c.603 1.449 1.345 2.76 2.173 3.69.414-.638 1.241-1.517 1.81-1.965-1.138-1-2.207-2.604-2.897-4.225h2.415v-2.26h-3.501v-1.983H90.2v-2.259h-3.156V20.07h-2.449v2.845h-.655c.12-.517.207-1.034.293-1.569l-2.276-.397c-.19 1.466-.552 2.967-1.121 4.087v-1.81h-1.828v-3.156h-2.449v3.156h-2.104v2.31h1.966c-.448 1.932-1.31 4.191-2.328 5.467.397.69.931 1.845 1.155 2.57.483-.742.932-1.725 1.311-2.828v5.708h2.449v-7.157c.224.517.414 1.017.552 1.414l1.43-1.655zm24.074 7.398c1.81 0 2.638-.76 3-4.208-.707-.259-1.62-.88-2.19-1.466-.086 2.104-.276 3.035-.586 3.035-1.018 0-1.914-3.863-2.242-8.519h4.518v-2.449h-1.5l1.207-1.034c-.466-.552-1.431-1.31-2.156-1.811l-1.655 1.362c.552.414 1.207.983 1.673 1.483h-2.19c-.018-.896-.018-1.81.017-2.707h-2.708c0 .897.018 1.81.035 2.707h-8.33v2.45h8.45c.38 5.966 1.604 11.157 4.657 11.157zm-12.486-.466c2.26-.448 5.26-1.035 8.037-1.621l-.173-2.225c-.983.173-1.983.328-2.966.483v-3.276h2.535v-2.415h-7.38v2.415h2.344v3.673c-1.155.172-2.224.327-3.07.431l.673 2.535zm17.59-8.157c.983-.448 1.949-1.017 2.828-1.62v1.275H121V26.07c.914.604 1.862 1.156 2.776 1.57.449-.76 1-1.656 1.621-2.294-2.742-.897-5.328-2.708-7.174-5.243h-2.655c-1.242 1.95-3.932 4.38-6.88 5.622.516.535 1.189 1.5 1.482 2.104zm9.588-2.638h-5.397c1.069-.88 1.983-1.811 2.638-2.69.655.896 1.638 1.827 2.76 2.69zm2.19 11.26l2.346-1.414c-.76-1.241-2.208-2.897-3.639-4.19h3.57v-2.328h-14.365v2.328h3.707c-.276.862-.638 1.793-1.017 2.604-.966.034-1.845.069-2.639.086l.328 2.449c2.949-.138 7.122-.328 11.089-.552.241.362.465.707.62 1.018zm-6.604-3.086c.43-.794.88-1.673 1.31-2.518h3.363l-1.828.948c.448.432.914.914 1.362 1.415-1.414.051-2.845.103-4.207.155zm15.9 3.104v-6.122c.448.552.879 1.104 1.19 1.535l1.517-2.035c-.345-.345-1.587-1.449-2.415-2.121.776-1.121 1.432-2.363 1.915-3.656l-1.397-.914-.431.086h-.38v-3.156h-2.483v3.156h-2.328v2.26h3.846c-1.07 1.827-2.742 3.448-4.519 4.362.363.483.949 1.742 1.156 2.414.62-.38 1.241-.845 1.845-1.38v5.57h2.483zm11.33-.5v-2.466h-3.502v-5.846h3.07v-2.415h-3.07V20.26h-2.586v4.983h-3.053v2.415h3.053v5.846h-3.777v2.466h9.864zM157.227 30.893c1.282 0 2.227-1.03 2.227-2.332 0-1.281-.945-2.311-2.227-2.311S155 27.28 155 28.561c0 1.303.945 2.332 2.227 2.332zm8.026 0c1.282 0 2.227-1.03 2.227-2.332 0-1.281-.945-2.311-2.227-2.311s-2.227 1.03-2.227 2.311c0 1.303.945 2.332 2.227 2.332zm8.026 0c1.282 0 2.227-1.03 2.227-2.332 0-1.281-.945-2.311-2.227-2.311s-2.227 1.03-2.227 2.311c0 1.303.945 2.332 2.227 2.332z" transform="translate(8.75 5) translate(0 7.5)"/>
            </g>
        </g>
        <g>
            <path fill="#575757" d="M25.855 3.402c.385-.385 1.011-.385 1.397 0 .385.386.385 1.012 0 1.397l-2.52 2.522c-.194.192-.447.289-.7.289-.253 0-.505-.097-.699-.29-.385-.385-.385-1.011 0-1.396l2.522-2.522zM16.485 7.956c-.154 0-.31-.032-.458-.099l-3.485-1.59c-.506-.231-.711-.792-.459-1.254.254-.461.868-.648 1.375-.418l3.485 1.59c.506.232.711.793.459 1.254-.18.327-.54.517-.917.517zM22.178 14.29c.461-.253 1.025-.047 1.253.459l1.59 3.486c.23.505.044 1.12-.419 1.374-.134.073-.277.107-.417.107-.343 0-.674-.207-.836-.567l-1.59-3.486c-.23-.504-.044-1.12.419-1.373zM20.495 6.206c-.064.014-.128.02-.192.02-.452 0-.859-.327-.951-.8l-.825-4.235c-.106-.539.236-1.064.76-1.171.535-.11 1.038.243 1.143.78l.825 4.235c.107.539-.234 1.064-.76 1.171zM30.158 12.873c-.107.524-.627.87-1.172.761l-4.235-.825c-.54-.106-.889-.617-.78-1.142.094-.461.51-.78.975-.78.065 0 .131.006.197.02l4.235.824c.537.105.887.616.78 1.142z" transform="translate(110 81.25)"/>
            <path fill="#475059" d="M2.962 30.404l4.156-3.768c.481-.483 1.263-.483 1.745 0l3.681 3.694c.05.05.107.074.175.074.04 0 .174-.01.234-.154l8.493-20.452-20.383 8.521c-.102.044-.137.124-.15.184-.012.06-.009.147.07.226l3.681 3.694c.482.483.482 1.268 0 1.751L.508 27.943c-.677.678-.677 1.783-.001 2.461.656.658 1.799.658 2.455 0z" transform="translate(110 81.25)"/>
        </g>
    </g>
</svg>
