<svg width="412" height="215" viewBox="0 0 412 215" fill="none" xmlns="http://www.w3.org/2000/svg">
<rect x="250" y="193" width="123" height="16" fill="#EFCB68"/>
<path d="M264.152 103.6V117.136C264.152 118.6 264.128 119.32 264.008 120.016H266.912C266.792 119.344 266.744 118.576 266.744 117.136V114.376H270.68C271.592 114.376 272.288 114.424 273.08 114.52V111.904C272.36 112.024 271.712 112.048 270.68 112.048H266.744V108.976H270.632C271.544 108.976 272.264 109.024 273.032 109.12V106.528C272.312 106.624 271.664 106.672 270.656 106.672H266.744V103.6H271.304C272.36 103.6 273.2 103.648 273.896 103.72V101.128C273.224 101.224 272.48 101.272 271.304 101.272H264.776C264.992 100.744 265.016 100.672 265.376 99.664C265.544 99.184 265.616 98.968 265.856 98.392L263.144 97.6C263.024 98.44 262.664 99.64 262.064 101.08C261.032 103.504 259.856 105.328 258.032 107.2C258.848 108.04 259.184 108.472 259.76 109.456C261.392 107.608 262.64 105.736 263.696 103.6H264.152ZM257.12 97.528C256.976 98.464 256.64 99.448 256.112 100.696C254.888 103.456 253.328 105.712 251.552 107.32C252.152 108.328 252.488 109.024 252.824 110.128C253.688 109.24 254.288 108.496 255.128 107.368C255.056 109.384 255.056 109.504 255.056 110.104V116.944C255.056 118.192 255.008 119.008 254.888 119.92H257.768C257.648 119.032 257.6 118.072 257.6 116.944V103.648C258.848 100.84 258.848 100.84 259.232 99.808C259.448 99.232 259.52 99.064 259.784 98.464L257.12 97.528ZM285.8 107.44V108.592H281.048C279.968 108.592 279.272 108.568 278.6 108.472V110.632C279.272 110.536 279.992 110.512 281.048 110.512H285.8V111.712H279.44C278.144 111.712 277.328 111.664 276.56 111.568V113.968C277.472 113.872 278.336 113.824 279.464 113.824H283.928C282.008 115.432 279.584 116.488 276.08 117.232C276.704 117.976 277.16 118.696 277.544 119.536C279.44 118.984 280.904 118.36 282.44 117.52C283.88 116.728 284.768 116.032 285.896 114.88C285.824 115.864 285.824 115.96 285.824 116.512V117.664C285.824 118.624 285.776 119.416 285.68 120.112H288.512C288.392 119.44 288.344 118.696 288.344 117.688V116.512C288.344 115.936 288.344 115.72 288.272 114.808C290.432 116.992 293.144 118.456 297.176 119.56C297.584 118.552 297.872 118.024 298.544 117.112C296.336 116.728 295.088 116.392 293.552 115.744C292.184 115.168 291.104 114.52 290.288 113.824H295.112C296.216 113.824 297.104 113.872 297.992 113.968V111.568C297.296 111.664 296.456 111.712 295.088 111.712H288.392V110.512H293.408C294.464 110.512 295.208 110.536 295.88 110.632V108.472C295.208 108.568 294.488 108.592 293.408 108.592H288.392V107.44H294.656C295.784 107.44 296.384 107.464 297.128 107.56V105.28C296.432 105.352 295.832 105.376 294.656 105.376H291.872C292.208 104.776 292.304 104.56 292.76 103.6H295.16C296.336 103.6 297.272 103.648 298.016 103.72V101.32C297.296 101.416 296.552 101.464 295.304 101.464H294.632C295.16 100.72 295.544 100.12 296.12 99.16L293.648 98.248C293.216 99.424 292.76 100.264 291.92 101.464H290.408V99.76C290.408 98.992 290.456 98.344 290.528 97.888H287.912C287.96 98.344 287.984 98.896 287.984 99.664V101.464H286.28V99.664C286.28 98.848 286.304 98.32 286.352 97.888H283.736C283.808 98.368 283.856 99.04 283.856 99.76V101.464H282.488C281.792 100.024 281.456 99.448 280.64 98.32L278.24 99.232C279.128 100.24 279.416 100.624 279.872 101.464H279.104C277.88 101.464 277.112 101.416 276.368 101.32V103.72C277.136 103.648 278.048 103.6 279.224 103.6H281.816C282.08 104.056 282.344 104.608 282.704 105.376H279.8C278.624 105.376 278 105.352 277.328 105.28V107.56C278.072 107.464 278.696 107.44 279.8 107.44H285.8ZM285.248 105.376C285.008 104.68 284.864 104.32 284.528 103.6H290C289.76 104.248 289.568 104.68 289.208 105.376H285.248ZM314.096 102.736V105.016H311.624C310.472 105.016 309.56 104.968 308.96 104.872V107.416C309.704 107.344 310.592 107.296 311.6 107.296H317.288V109.336H311.6C310.352 109.336 309.608 109.312 308.984 109.216V111.832C309.752 111.736 310.664 111.688 311.552 111.688H317.288V116.8C317.288 117.328 317.144 117.448 316.4 117.448C315.56 117.448 314.312 117.352 313.712 117.256C314.072 118.024 314.24 118.744 314.288 119.776C315.944 119.8 315.944 119.8 316.16 119.8C317.36 119.8 318.2 119.68 318.8 119.416C319.52 119.08 319.76 118.504 319.76 117.112V111.688H320.072C321.152 111.688 321.752 111.712 322.448 111.832V109.216C321.872 109.312 321.224 109.336 320.072 109.336H319.76V107.296H320.168C321.224 107.296 321.872 107.32 322.52 107.416V104.872C321.92 104.968 321.056 105.016 319.904 105.016H316.592V102.736H319.232C320.312 102.736 321.032 102.76 321.704 102.856V100.312C321.032 100.408 320.24 100.456 319.208 100.456H316.592V99.808C316.592 99.064 316.64 98.56 316.712 98.008H313.952C314.048 98.608 314.096 99.136 314.096 99.808V100.456H311.984C310.928 100.456 310.16 100.408 309.488 100.312V102.856C310.064 102.784 310.064 102.784 312.056 102.736H314.096ZM301.4 115.576C301.4 116.848 301.352 117.688 301.256 118.432H303.776V116.416H305.96V117.616H308.408C308.36 117.016 308.336 116.488 308.336 115.216V101.488C308.336 100.096 308.336 99.664 308.408 99.112C307.832 99.16 307.4 99.184 306.32 99.184H303.416C302.288 99.184 301.832 99.16 301.304 99.112C301.376 99.832 301.4 100.456 301.4 101.536V115.576ZM303.8 101.464H305.96V106.48H303.8V101.464ZM303.8 108.688H305.96V114.088H303.8V108.688ZM315.104 115.648C314.096 114.136 313.136 113.032 311.96 111.976L309.92 113.32C311.12 114.496 312.032 115.648 312.992 117.256L315.104 115.648ZM340.496 110.176C340.496 109.24 340.52 108.64 340.568 108.016C339.872 108.088 339.344 108.112 338.336 108.112H332.984C332 108.112 331.448 108.088 330.752 108.016C330.8 108.664 330.824 109.336 330.824 110.176V116.032C330.824 116.896 330.752 117.856 330.656 118.432H333.2V117.088H338.288C338.48 117.088 338.936 117.088 339.632 117.112C339.992 118.072 340.112 118.504 340.256 119.584C341.48 119.656 341.576 119.656 341.912 119.656C343.4 119.656 344.12 119.584 344.624 119.368C345.488 119.008 345.776 118.384 345.776 116.944V101.224C345.776 100.024 345.8 99.424 345.872 98.56C345.2 98.632 344.6 98.656 343.4 98.656H338.792C337.568 98.656 336.992 98.632 336.344 98.56C336.392 99.304 336.416 99.976 336.416 100.792V104.464C336.416 105.496 336.392 105.952 336.344 106.648C336.944 106.6 337.712 106.576 338.552 106.576H343.28V116.608C343.28 117.088 343.064 117.256 342.392 117.256C341.96 117.256 341.096 117.184 340.568 117.136C340.52 116.512 340.496 115.96 340.496 115.048V110.176ZM338.792 100.6H343.28V101.8H338.792V100.6ZM338.792 103.504H343.28V104.728H338.792V103.504ZM333.2 110.128H338.096V111.568H333.2V110.128ZM333.2 113.512H338.096V115.072H333.2V113.512ZM328.184 106.576H332.528C333.368 106.576 334.112 106.6 334.736 106.648C334.688 106.12 334.664 105.568 334.664 104.464V100.792C334.664 99.856 334.688 99.328 334.736 98.56C334.088 98.632 333.536 98.656 332.288 98.656H328.04C326.864 98.656 326.24 98.632 325.568 98.56C325.64 99.328 325.664 100 325.664 101.248V116.92C325.664 118.408 325.616 119.176 325.52 119.896H328.328C328.232 119.248 328.184 118.384 328.184 116.944V106.576ZM328.184 100.6H332.312V101.8H328.184V100.6ZM328.184 103.504H332.312V104.728H328.184V103.504ZM365.072 104.8C366.392 106.552 367.88 110.08 368.36 112.6L371.096 111.232C370.4 108.472 369.152 105.88 367.496 103.6L365.072 104.8ZM358.016 99.52C358.064 99.28 358.136 98.968 358.208 98.776L355.088 98.464C355.088 98.656 355.088 98.8 355.088 98.896C355.088 99.712 354.92 101.08 354.464 103.744C351.68 104.104 350.432 104.224 349.352 104.248L349.64 107.08C349.976 106.984 350.24 106.912 350.624 106.84L352.808 106.48C353.576 106.336 353.576 106.336 353.936 106.288C352.808 110.752 350.96 115.072 349.112 117.592L351.896 119.128C354.536 113.896 355.616 110.992 356.792 106.072C357.344 106.024 357.728 106 358.232 106C360.08 106 360.632 106.648 360.632 108.856C360.632 110.896 360.392 113.08 360.008 114.328C359.648 115.504 359.264 115.96 358.568 115.96C357.728 115.96 356.36 115.576 355.064 115C355.256 115.936 355.304 116.416 355.304 117.04C355.304 117.28 355.28 117.64 355.256 118.096C356.864 118.624 357.848 118.816 358.952 118.816C360.224 118.816 360.944 118.528 361.616 117.736C362.768 116.416 363.464 113.128 363.464 109C363.464 106.816 363.152 105.664 362.336 104.752C361.544 103.912 360.368 103.48 358.784 103.48C358.352 103.48 358.016 103.504 357.296 103.528C357.368 103.216 357.368 103.216 357.44 102.808C357.68 101.512 357.848 100.528 357.968 99.832L358.016 99.52ZM363.584 99.688C364.64 100.84 365.312 101.8 366.104 103.264L367.784 102.376C366.968 100.888 366.32 99.976 365.264 98.848L363.584 99.688ZM370.64 100.816C369.896 99.448 369.224 98.536 368.144 97.432L366.536 98.272C367.472 99.304 368.264 100.432 368.984 101.752L370.64 100.816Z" fill="#1C9E3B"/>
<path d="M288.944 134.408C287.656 138.384 285.248 143.592 283.232 146.952L289.336 149.08C291.408 145.944 293.928 141.184 296.168 136.704L288.944 134.408ZM266.6 146.784C265.592 143.424 262.96 138.384 260.496 134.688L254.392 137.096C256.744 141.016 259.208 146.168 259.992 149.472L266.6 146.784ZM300.312 164.256H278.36V157.592H297.456V150.984H278.36V133.512H271.36V150.984H253.216V157.592H271.36V164.256H249.8V171.032H271.36V185.76H278.36V171.032H300.312V164.256ZM335.48 136.816C338.56 142.696 342.76 148.856 347.184 154.008H316.944C321.368 148.968 325.288 142.808 328.032 136.368L320.864 134.296C317.504 142.808 311.344 150.536 304.344 155.24C305.968 156.416 308.824 159.104 310.056 160.616C311.568 159.44 313.08 158.096 314.536 156.584V160.504H324C322.88 168.68 319.968 176.016 307.312 180.104C308.936 181.616 310.896 184.36 311.736 186.264C326.24 180.832 329.88 171.256 331.28 160.504H342.312C341.808 172.208 341.192 177.192 340.072 178.368C339.456 179.04 338.84 179.152 337.832 179.152C336.432 179.152 333.52 179.096 330.44 178.872C331.616 180.776 332.512 183.576 332.624 185.592C335.928 185.704 339.176 185.704 341.08 185.424C343.264 185.144 344.776 184.584 346.176 182.792C348.136 180.44 348.808 173.832 349.424 156.92V156.528C350.656 157.816 351.832 159.048 353.008 160.112C354.296 158.208 356.872 155.52 358.664 154.12C352.56 149.416 345.56 141.296 342.032 134.184L335.48 136.816ZM371.768 168.568H365.048V141.352H371.768V168.568ZM363.928 177.08C363.928 175.885 364.357 174.859 365.216 174C366.112 173.141 367.176 172.712 368.408 172.712C369.603 172.712 370.648 173.123 371.544 173.944C372.44 174.765 372.888 175.773 372.888 176.968C372.888 178.163 372.44 179.189 371.544 180.048C370.685 180.907 369.64 181.336 368.408 181.336C367.811 181.336 367.232 181.224 366.672 181C366.149 180.776 365.683 180.477 365.272 180.104C364.861 179.731 364.525 179.283 364.264 178.76C364.04 178.237 363.928 177.677 363.928 177.08Z" fill="#1C9E3B"/>
<rect x="1" y="17" width="411" height="52" fill="#C7EED1"/>
<rect x="1" y="140" width="205" height="52" fill="#1C9E3B"/>
<line x1="0.5" y1="-2.18557e-08" x2="0.500009" y2="215" stroke="#1C9E3B"/>
<line x1="206.5" y1="-2.18557e-08" x2="206.5" y2="215" stroke="#1C9E3B" stroke-dasharray="5 5"/>
</svg>
