<svg xmlns="http://www.w3.org/2000/svg" xmlns:xlink="http://www.w3.org/1999/xlink" width="240" height="120" viewBox="0 0 240 120">
    <defs>
        <path id="prefix__a" d="M2.434 16.474c-.087.037-.118.109-.132.16-.008.053-.007.129.062.195l3.21 3.222c.42.422.42 1.107 0 1.528L1.95 24.863c-.592.59-.592 1.554-.003 2.146.573.575 1.569.575 2.14 0l3.625-3.285c.42-.42 1.102-.42 1.52 0l3.21 3.221c.044.042.095.064.153.064.034 0 .15-.009.205-.134l7.403-17.83-17.77 7.429z"/>
        <path id="prefix__b" d="M7.865.933l-4.04 3.953-1.912-1.87c-.106-.1-.272-.1-.378 0l-.754.736c-.103.103-.103.268 0 .37l2.384 2.327c.18.18.42.268.66.268.238 0 .477-.087.659-.268l4.513-4.41c.104-.102.104-.267 0-.368L8.244.933c-.05-.051-.12-.076-.188-.076-.07 0-.138.025-.19.076z"/>
        <path id="prefix__d" d="M7.865.933l-4.04 3.953-1.912-1.87c-.106-.1-.272-.1-.378 0l-.754.736c-.103.103-.103.268 0 .37l2.384 2.327c.18.18.42.268.66.268.238 0 .477-.087.659-.268l4.513-4.41c.104-.102.104-.267 0-.368L8.244.933c-.05-.051-.12-.076-.188-.076-.07 0-.138.025-.19.076z"/>
        <path id="prefix__f" d="M7.865.933l-4.04 3.953-1.912-1.87c-.106-.1-.272-.1-.378 0l-.754.736c-.103.103-.103.268 0 .37l2.384 2.327c.18.18.42.268.66.268.238 0 .477-.087.659-.268l4.513-4.41c.104-.102.104-.267 0-.368L8.244.933c-.05-.051-.12-.076-.188-.076-.07 0-.138.025-.19.076z"/>
    </defs>
    <g fill="none" fill-rule="evenodd">
        <path fill="#FFF" d="M0 0H240V120H0z"/>
        <g>
            <g>
                <path fill="#FF7000" d="M23.61.036C15.531.036 8.982 6.583 8.982 14.66c0 8.079 6.55 14.626 14.626 14.626h33.17c8.076 0 14.625-6.547 14.625-14.626C71.404 6.583 64.855.036 56.78.036h-33.17z" transform="translate(24 12) translate(55.268 61.178)"/>
                <path fill="#FFF" d="M44.473 7.008c-1.554.234-2.702 1.569-2.707 3.144 0 .339.053.676.16 1l-3.568 1.792c-.799-1.161-2.255-1.668-3.596-1.249-1.341.421-2.257 1.667-2.257 3.076 0 1.41.916 2.656 2.257 3.075 1.341.419 2.797-.087 3.596-1.247l3.576 1.801c-.447 1.326.013 2.79 1.134 3.622 1.122.83 2.653.84 3.786.02 1.13-.817 1.605-2.277 1.172-3.61-.431-1.327-1.67-2.227-3.064-2.222l-.005-.003c-1.044.002-2.022.517-2.614 1.379l-3.576-1.805c.108-.323.163-.664.164-1.01-.001-.338-.056-.675-.16-.999l3.568-1.78c.898 1.291 2.6 1.732 4.009 1.038 1.411-.695 2.104-2.315 1.635-3.819-.419-1.346-1.66-2.237-3.031-2.237-.16 0-.319.01-.48.034zm-.313 4.944c-.676-.286-1.11-.953-1.102-1.685.013-.992.82-1.786 1.811-1.786.733 0 1.395.441 1.674 1.12.279.68.12 1.458-.404 1.975-.344.34-.802.521-1.27.521-.239 0-.48-.047-.71-.145zm-10.146 2.859c0-1 .81-1.809 1.809-1.809.999 0 1.808.81 1.808 1.809 0 1-.81 1.81-1.808 1.81-1 0-1.809-.81-1.809-1.81zm9.187 5.226c-.287-.677-.133-1.46.387-1.982.522-.519 1.305-.673 1.983-.389.68.286 1.115.955 1.107 1.692-.012.98-.806 1.774-1.786 1.785h-.023c-.728 0-1.387-.433-1.668-1.106z" transform="translate(24 12) translate(55.268 61.178)"/>
                <g transform="translate(24 12) translate(55.268 61.178) translate(.24 9.083)">
                    <path fill="#FFF" d="M20.312 7.617L1.37 15.509c-.686.287-1.182.891-1.328 1.623-.144.729.086 1.478.61 2.005l2.297 2.298-1.865 1.861c-1.338 1.342-1.338 3.526 0 4.866 1.304 1.298 3.567 1.298 4.867 0l1.863-1.863 2.298 2.297c.423.421.98.654 1.57.654.906 0 1.711-.539 2.059-1.37l7.893-18.944c.158-.377.069-.811-.219-1.1-.191-.195-.451-.298-.713-.298-.133 0-.263.026-.39.079zM25.065 2.965l-2.197 2.197c-.337.337-.337.882 0 1.218.17.169.388.253.609.253.22 0 .441-.084.61-.253l2.196-2.197c.337-.335.337-.883 0-1.218-.168-.168-.389-.252-.61-.252-.218 0-.44.084-.608.252zM12.156 4.371c-.22.4-.042.89.4 1.093l3.037 1.386c.13.057.266.084.4.084.328 0 .644-.164.798-.452.22-.4.043-.89-.399-1.091l-3.038-1.386c-.128-.06-.263-.087-.397-.087-.328.001-.645.166-.8.453zM22.765 12.457c-.402.22-.568.756-.364 1.197l1.384 3.039c.144.313.43.492.729.492.125 0 .248-.029.364-.092.402-.22.566-.756.365-1.198l-1.385-3.038c-.14-.313-.429-.495-.728-.495-.122 0-.248.031-.365.095zM17.568.015c-.459.094-.758.553-.666 1.022l.719 3.692c.082.414.436.698.833.698.055 0 .108-.005.166-.017.458-.094.756-.551.662-1.022l-.72-3.692C18.483.286 18.134 0 17.737 0c-.055 0-.113.003-.17.015zM23.84 10.631c-.094.459.21.903.679.996l3.692.718c.058.01.113.017.17.017.406 0 .77-.277.851-.68.094-.457-.21-.904-.679-.994l-3.694-.72c-.058-.013-.116-.018-.174-.018-.407 0-.765.279-.845.681z"/>
                    <use fill="#4D4F58" xlink:href="#prefix__a"/>
                </g>
            </g>
            <path fill="#FEFEFE" d="M0.617 0.69L0.662 35.421 50.466 35.421 50.425 0.69z" transform="translate(24 12)"/>
        </g>
        <g transform="translate(12 18)">
            <path fill="#475059" d="M62.208 0C63.64 0 64.8 1.075 64.8 2.4V42c0 1.325-1.16 2.4-2.592 2.4H2.592C1.16 44.4 0 43.325 0 42V2.4C0 1.075 1.16 0 2.592 0h59.616zm0 2.16H2.592c-.12 0-.22.075-.25.176l-.01.064V42c0 .11.081.203.191.231l.069.009h59.616c.12 0 .22-.075.25-.176l.01-.064V2.4c0-.11-.081-.203-.191-.231l-.069-.009z"/>
            <path fill="#4D4F58" d="M54.6 10.92c.596 0 1.08.484 1.08 1.08 0 .55-.412 1.005-.945 1.072l-.135.008H35.4c-.596 0-1.08-.484-1.08-1.08 0-.55.412-1.005.945-1.072l.135-.008h19.2z"/>
            <rect width="20.4" height="14.4" x="9.6" y="10.8" fill="#93C256" rx="1"/>
            <rect width="45.6" height="7.2" x="9.6" y="28.8" fill="#C8CFCA" rx="1"/>
            <path fill="#4D4F58" d="M54.6 16.92c.596 0 1.08.484 1.08 1.08 0 .55-.412 1.005-.945 1.072l-.135.008H35.4c-.596 0-1.08-.484-1.08-1.08 0-.55.412-1.005.945-1.072l.135-.008h19.2zM54.6 22.92c.596 0 1.08.484 1.08 1.08 0 .55-.412 1.005-.945 1.072l-.135.008H35.4c-.596 0-1.08-.484-1.08-1.08 0-.55.412-1.005.945-1.072l.135-.008h19.2z"/>
        </g>
        <g transform="translate(87.6 18)">
            <path fill="#475059" d="M62.208 0C63.64 0 64.8 1.075 64.8 2.4V42c0 1.325-1.16 2.4-2.592 2.4H2.592C1.16 44.4 0 43.325 0 42V2.4C0 1.075 1.16 0 2.592 0h59.616zm0 2.16H2.592c-.12 0-.22.075-.25.176l-.01.064V42c0 .11.081.203.191.231l.069.009h59.616c.12 0 .22-.075.25-.176l.01-.064V2.4c0-.11-.081-.203-.191-.231l-.069-.009z"/>
            <path fill="#4D4F58" d="M55.08 10.92c.596 0 1.08.484 1.08 1.08 0 .55-.412 1.005-.945 1.072l-.135.008h-10.8c-.596 0-1.08-.484-1.08-1.08 0-.55.412-1.005.945-1.072l.135-.008h10.8z"/>
            <rect width="48" height="7.2" x="8.4" y="28.8" fill="#FF7000" rx="1"/>
            <path fill="#4D4F58" d="M55.08 16.92c.596 0 1.08.484 1.08 1.08 0 .55-.412 1.005-.945 1.072l-.135.008h-10.8c-.596 0-1.08-.484-1.08-1.08 0-.55.412-1.005.945-1.072l.135-.008h10.8zM55.03 22.92c.624 0 1.13.484 1.13 1.08 0 .55-.43 1.005-.988 1.072l-.142.008h-25.1c-.624 0-1.13-.484-1.13-1.08 0-.55.43-1.005.988-1.072l.142-.008h25.1z"/>
            <rect width="15.6" height="14.4" x="8.4" y="10.8" fill="#C8CFCA" rx="1"/>
            <rect width="12" height="8.4" x="28.8" y="10.8" fill="#C8CFCA" rx="1"/>
        </g>
        <g transform="translate(163.2 18)">
            <path fill="#475059" d="M62.208 0C63.64 0 64.8 1.075 64.8 2.4V42c0 1.325-1.16 2.4-2.592 2.4H2.592C1.16 44.4 0 43.325 0 42V2.4C0 1.075 1.16 0 2.592 0h59.616zm0 2.16H2.592c-.12 0-.22.075-.25.176l-.01.064V42c0 .11.081.203.191.231l.069.009h59.616c.12 0 .22-.075.25-.176l.01-.064V2.4c0-.11-.081-.203-.191-.231l-.069-.009z"/>
            <rect width="48" height="7.2" x="8.4" y="28.8" fill="#1C9E3B" rx="1"/>
            <path fill="#4D4F58" d="M55.08 22.8c.596 0 1.08.484 1.08 1.08 0 .55-.412 1.005-.945 1.072l-.135.008h-19.2c-.596 0-1.08-.484-1.08-1.08 0-.55.412-1.005.945-1.072l.135-.008h19.2zm-26.4 0c.596 0 1.08.484 1.08 1.08 0 .55-.412 1.005-.945 1.072l-.135.008H9.48c-.596 0-1.08-.484-1.08-1.08 0-.55.412-1.005.945-1.072l.135-.008h19.2zm26.4-6c.596 0 1.08.484 1.08 1.08 0 .55-.412 1.005-.945 1.072l-.135.008h-19.2c-.596 0-1.08-.484-1.08-1.08 0-.55.412-1.005.945-1.072l.135-.008h19.2zm-26.4 0c.596 0 1.08.484 1.08 1.08 0 .55-.412 1.005-.945 1.072l-.135.008H9.48c-.596 0-1.08-.484-1.08-1.08 0-.55.412-1.005.945-1.072l.135-.008h19.2zm26.4-6c.596 0 1.08.484 1.08 1.08 0 .55-.412 1.005-.945 1.072l-.135.008h-19.2c-.596 0-1.08-.484-1.08-1.08 0-.55.412-1.005.945-1.072l.135-.008h19.2zm-26.4 0c.596 0 1.08.484 1.08 1.08 0 .55-.412 1.005-.945 1.072l-.135.008H9.48c-.596 0-1.08-.484-1.08-1.08 0-.55.412-1.005.945-1.072l.135-.008h19.2z"/>
        </g>
        <g>
            <path fill="#FF7000" d="M19.72 1.036c4.397 0 7.587 3.566 7.822 7.467 2.662.9 4.587 3.4 4.587 6.358 0 3.713-3.025 6.737-6.736 6.737H8.377c-3.917 0-6.738-2.687-6.738-6.027 0-2.627 1.718-5.174 4.322-5.884.169-2.053 1.178-3.631 2.581-4.475 1.355-.812 3.02-.955 4.52-.42 1.277-2.095 3.615-3.756 6.658-3.756" transform="translate(51.6 9.6)"/>
            <path fill="#FEFEFE" d="M11.23 5.352c-.787 0-1.554.208-2.234.615-1.235.74-2.02 2.123-2.158 3.792l-.051.616-.594.162c-2.13.579-3.673 2.697-3.673 5.033 0 2.935 2.518 5.147 5.855 5.147h17.018c3.23 0 5.857-2.627 5.857-5.857 0-2.498-1.603-4.717-3.99-5.524l-.56-.189-.036-.59c-.195-3.265-2.847-6.64-6.944-6.64h-.005c-2.422 0-4.63 1.244-5.902 3.332l-.372.612-.673-.241c-.505-.179-1.024-.268-1.539-.268m14.164 17.125H8.375c-4.341 0-7.614-2.97-7.614-6.907 0-2.902 1.817-5.56 4.394-6.544.313-1.978 1.362-3.623 2.936-4.568 1.381-.827 3.024-1.069 4.597-.693 1.633-2.273 4.216-3.61 7.032-3.61v.002c4.894 0 8.14 3.83 8.643 7.718 2.803 1.188 4.644 3.926 4.644 6.985 0 4.2-3.415 7.617-7.614 7.617" transform="translate(51.6 9.6)"/>
            <g transform="translate(51.6 9.6) translate(13.236 8.594)">
                <mask id="prefix__c" fill="#fff">
                    <use xlink:href="#prefix__b"/>
                </mask>
                <path fill="#FEFEFE" d="M-0.847 8.268L10.627 8.268 10.627 -0.693 -0.847 -0.693z" mask="url(#prefix__c)"/>
            </g>
        </g>
        <g>
            <path fill="#FF7000" d="M19.72 1.036c4.397 0 7.587 3.566 7.822 7.467 2.662.9 4.587 3.4 4.587 6.358 0 3.713-3.025 6.737-6.736 6.737H8.377c-3.917 0-6.738-2.687-6.738-6.027 0-2.627 1.718-5.174 4.322-5.884.169-2.053 1.178-3.631 2.581-4.475 1.355-.812 3.02-.955 4.52-.42 1.277-2.095 3.615-3.756 6.658-3.756" transform="translate(127.2 9.6)"/>
            <path fill="#FEFEFE" d="M11.23 5.352c-.787 0-1.554.208-2.234.615-1.235.74-2.02 2.123-2.158 3.792l-.051.616-.594.162c-2.13.579-3.673 2.697-3.673 5.033 0 2.935 2.518 5.147 5.855 5.147h17.018c3.23 0 5.857-2.627 5.857-5.857 0-2.498-1.603-4.717-3.99-5.524l-.56-.189-.036-.59c-.195-3.265-2.847-6.64-6.944-6.64h-.005c-2.422 0-4.63 1.244-5.902 3.332l-.372.612-.673-.241c-.505-.179-1.024-.268-1.539-.268m14.164 17.125H8.375c-4.341 0-7.614-2.97-7.614-6.907 0-2.902 1.817-5.56 4.394-6.544.313-1.978 1.362-3.623 2.936-4.568 1.381-.827 3.024-1.069 4.597-.693 1.633-2.273 4.216-3.61 7.032-3.61v.002c4.894 0 8.14 3.83 8.643 7.718 2.803 1.188 4.644 3.926 4.644 6.985 0 4.2-3.415 7.617-7.614 7.617" transform="translate(127.2 9.6)"/>
            <g transform="translate(127.2 9.6) translate(13.236 8.594)">
                <mask id="prefix__e" fill="#fff">
                    <use xlink:href="#prefix__d"/>
                </mask>
                <path fill="#FEFEFE" d="M-0.847 8.268L10.627 8.268 10.627 -0.693 -0.847 -0.693z" mask="url(#prefix__e)"/>
            </g>
        </g>
        <g>
            <path fill="#FF7000" d="M19.72 1.036c4.397 0 7.587 3.566 7.822 7.467 2.662.9 4.587 3.4 4.587 6.358 0 3.713-3.025 6.737-6.736 6.737H8.377c-3.917 0-6.738-2.687-6.738-6.027 0-2.627 1.718-5.174 4.322-5.884.169-2.053 1.178-3.631 2.581-4.475 1.355-.812 3.02-.955 4.52-.42 1.277-2.095 3.615-3.756 6.658-3.756" transform="translate(202.8 9.6)"/>
            <path fill="#FEFEFE" d="M11.23 5.352c-.787 0-1.554.208-2.234.615-1.235.74-2.02 2.123-2.158 3.792l-.051.616-.594.162c-2.13.579-3.673 2.697-3.673 5.033 0 2.935 2.518 5.147 5.855 5.147h17.018c3.23 0 5.857-2.627 5.857-5.857 0-2.498-1.603-4.717-3.99-5.524l-.56-.189-.036-.59c-.195-3.265-2.847-6.64-6.944-6.64h-.005c-2.422 0-4.63 1.244-5.902 3.332l-.372.612-.673-.241c-.505-.179-1.024-.268-1.539-.268m14.164 17.125H8.375c-4.341 0-7.614-2.97-7.614-6.907 0-2.902 1.817-5.56 4.394-6.544.313-1.978 1.362-3.623 2.936-4.568 1.381-.827 3.024-1.069 4.597-.693 1.633-2.273 4.216-3.61 7.032-3.61v.002c4.894 0 8.14 3.83 8.643 7.718 2.803 1.188 4.644 3.926 4.644 6.985 0 4.2-3.415 7.617-7.614 7.617" transform="translate(202.8 9.6)"/>
            <g transform="translate(202.8 9.6) translate(13.236 8.594)">
                <mask id="prefix__g" fill="#fff">
                    <use xlink:href="#prefix__f"/>
                </mask>
                <path fill="#FEFEFE" d="M-0.847 8.268L10.627 8.268 10.627 -0.693 -0.847 -0.693z" mask="url(#prefix__g)"/>
            </g>
        </g>
    </g>
</svg>
