<svg xmlns="http://www.w3.org/2000/svg" width="200" height="100" viewBox="0 0 200 100">
    <g fill="none" fill-rule="evenodd">
        <path fill="#FFF" d="M0 0H200V100H0z"/>
        <g>
            <path fill="#4D4F58" d="M1.998 0C.895 0 0 .896 0 1.998v75.927c0 1.103.895 2 1.998 2H144.89c1.106 0 1.998-.897 1.998-2V1.998c0-1.102-.892-1.998-1.998-1.998H1.998zm143.481 1.998v75.927c0 .324-.264.588-.589.588H1.998c-.323 0-.588-.264-.588-.588V1.998c0-.326.265-.59.588-.59H144.89c.325 0 .589.264.589.59z" transform="translate(24 10)"/>
            <path fill="#4D4F58" d="M53.9 9.997H10.053C9.473 9.997 9 9.527 9 8.941v-.884C9 7.472 9.472 7 10.053 7H53.9c.581 0 1.056.472 1.056 1.057v.884c0 .585-.475 1.056-1.056 1.056M94.254 18.99H61.631c-.382 0-.689-.415-.689-.93V7.93c0-.512.307-.93.689-.93h32.623c.38 0 .688.418.688.93v10.13c0 .515-.307.93-.688.93" transform="translate(24 10)"/>
            <path fill="#93C256" d="M94.254 34.967H61.631c-.382 0-.689-.415-.689-.93v-10.13c0-.51.307-.93.689-.93h32.623c.38 0 .688.42.688.93v10.13c0 .515-.307.93-.688.93" transform="translate(24 10)"/>
            <path fill="#4D4F58" d="M136.765 72.93H10.215c-.673 0-1.224-.415-1.224-.93V61.87c0-.51.55-.93 1.225-.93h126.55c.677 0 1.225.42 1.225.93V72c0 .515-.548.93-1.226.93" transform="translate(24 10)"/>
            <path fill="#C8CFCA" d="M93.437 55.947H62.45c-.836 0-1.508-.415-1.508-.93V40.89c0-.513.672-.93 1.508-.93h30.987c.834 0 1.505.417 1.505.93v14.126c0 .515-.671.93-1.505.93" transform="translate(24 10)"/>
            <path fill="#1C9E3B" d="M136.36 55.986h-33.72c-.909 0-1.64-.415-1.64-.93V40.93c0-.513.731-.93 1.64-.93h33.72c.907 0 1.64.417 1.64.93v14.126c0 .515-.733.93-1.64.93" transform="translate(24 10)"/>
            <path fill="#4D4F58" d="M53.9 18.997H10.053c-.58 0-1.053-.47-1.053-1.056v-.884C9 16.472 9.472 16 10.053 16H53.9c.581 0 1.056.472 1.056 1.057v.884c0 .585-.475 1.056-1.056 1.056M136.9 32c.581 0 1.056.472 1.056 1.057v.884c0 .585-.475 1.056-1.056 1.056h-34.847c-.58 0-1.053-.47-1.053-1.056v-.884c0-.585.472-1.057 1.053-1.057H136.9zm0-8c.581 0 1.056.472 1.056 1.057v.884c0 .585-.475 1.056-1.056 1.056h-34.847c-.58 0-1.053-.47-1.053-1.056v-.884c0-.585.472-1.057 1.053-1.057H136.9zm0-8c.581 0 1.056.472 1.056 1.057v.884c0 .585-.475 1.056-1.056 1.056h-34.847c-.58 0-1.053-.47-1.053-1.056v-.884c0-.585.472-1.057 1.053-1.057H136.9zm0-9c.581 0 1.056.472 1.056 1.057v.884c0 .585-.475 1.056-1.056 1.056h-34.847c-.58 0-1.053-.47-1.053-1.056v-.884c0-.585.472-1.057 1.053-1.057H136.9zM54.019 55.947H9.923c-.516 0-.93-.415-.93-.93v-31.11c0-.51.414-.93.93-.93h44.096c.514 0 .93.42.93.93v31.11c0 .515-.416.93-.93.93" transform="translate(24 10)"/>
            <path fill="#FEFEFE" d="M30.483 32.503l-.001 17.97c0 .165-.135.301-.3.301H24.76c-.165 0-.3-.136-.3-.301V46.59c0-.167-.134-.298-.3-.298h-2.076c-.165 0-.3.131-.3.298v3.883c0 .165-.134.301-.3.301H16.06c-.166 0-.3-.136-.3-.301v-17.97c0-.166.134-.3.3-.3h14.123c.165 0 .3.134.3.3m17.697-5.052l-.002 23.022c0 .165-.135.301-.3.301h-5.423c-.166 0-.3-.136-.3-.301V46.58c0-.166-.134-.3-.3-.3h-2.077c-.165 0-.3.134-.3.3v3.893c0 .165-.133.301-.3.301h-5.422c-.165 0-.3-.136-.3-.301V27.45c0-.166.135-.3.3-.3h14.123c.165 0 .3.134.3.3M20.147 42.278h-2.077c-.165 0-.299.136-.299.302v2.074c0 .167.134.298.3.298h2.076c.166 0 .3-.131.3-.298V42.58c0-.166-.134-.302-.3-.302m4.015 0h-2.077c-.165 0-.3.136-.3.302v2.074c0 .167.135.298.3.298h2.077c.165 0 .3-.131.3-.298V42.58c0-.166-.135-.302-.3-.302m4.015 0h-2.077c-.165 0-.3.136-.3.302v2.074c0 .167.135.298.3.298h2.077c.165 0 .3-.131.3-.298V42.58c0-.166-.135-.302-.3-.302m9.666-.02h-2.078c-.165 0-.299.135-.299.3v2.082c0 .165.134.299.3.299h2.077c.165 0 .299-.134.299-.3v-2.081c0-.165-.134-.3-.3-.3m4.016 0H39.78c-.165 0-.299.135-.299.3v2.082c0 .165.134.299.3.299h2.077c.165 0 .3-.134.3-.3v-2.081c0-.165-.135-.3-.3-.3m4.014 0h-2.076c-.166 0-.3.135-.3.3v2.082c0 .165.134.299.3.299h2.076c.167 0 .3-.134.3-.3v-2.081c0-.165-.133-.3-.3-.3m-25.725-3.99h-2.077c-.165 0-.299.132-.299.298v2.074c0 .167.134.302.3.302h2.076c.166 0 .3-.135.3-.302v-2.074c0-.166-.134-.298-.3-.298m4.015 0h-2.077c-.165 0-.3.132-.3.298v2.074c0 .167.135.302.3.302h2.077c.165 0 .3-.135.3-.302v-2.074c0-.166-.135-.298-.3-.298m4.015 0h-2.077c-.165 0-.3.132-.3.298v2.074c0 .167.135.302.3.302h2.077c.165 0 .3-.135.3-.302v-2.074c0-.166-.135-.298-.3-.298m9.666-.032h-2.078c-.165 0-.299.136-.299.301v2.082c0 .164.134.298.3.298h2.077c.165 0 .299-.134.299-.298v-2.082c0-.165-.134-.301-.3-.301m4.016 0H39.78c-.165 0-.299.136-.299.301v2.082c0 .164.134.298.3.298h2.077c.165 0 .3-.134.3-.298v-2.082c0-.165-.135-.301-.3-.301m4.014 0h-2.076c-.166 0-.3.136-.3.301v2.082c0 .164.134.298.3.298h2.076c.167 0 .3-.134.3-.298v-2.082c0-.165-.133-.301-.3-.301m-25.725-3.981h-2.077c-.165 0-.299.133-.299.299v2.076c0 .164.134.298.3.298h2.076c.166 0 .3-.134.3-.298v-2.076c0-.166-.134-.3-.3-.3m4.015 0h-2.077c-.165 0-.3.134-.3.3v2.076c0 .164.135.298.3.298h2.077c.165 0 .3-.134.3-.298v-2.076c0-.166-.135-.3-.3-.3m4.015 0h-2.077c-.165 0-.3.134-.3.3v2.076c0 .164.135.298.3.298h2.077c.165 0 .3-.134.3-.298v-2.076c0-.166-.135-.3-.3-.3m9.666-.039h-2.078c-.165 0-.299.133-.299.298v2.082c0 .165.134.301.3.301h2.077c.165 0 .299-.136.299-.301v-2.082c0-.165-.134-.298-.3-.298m4.016 0H39.78c-.165 0-.299.133-.299.298v2.082c0 .165.134.301.3.301h2.077c.165 0 .3-.136.3-.301v-2.082c0-.165-.135-.298-.3-.298m4.014 0h-2.076c-.166 0-.3.133-.3.298v2.082c0 .165.134.301.3.301h2.076c.167 0 .3-.136.3-.301v-2.082c0-.165-.133-.298-.3-.298m-8.03-3.932h-2.077c-.165 0-.299.132-.299.298v2.081c0 .165.134.302.3.302h2.077c.165 0 .299-.137.299-.302v-2.081c0-.166-.134-.298-.3-.298m4.016 0H39.78c-.165 0-.299.132-.299.298v2.081c0 .165.134.302.3.302h2.077c.165 0 .3-.137.3-.302v-2.081c0-.166-.135-.298-.3-.298m4.014 0h-2.076c-.166 0-.3.132-.3.298v2.081c0 .165.134.302.3.302h2.076c.167 0 .3-.137.3-.302v-2.081c0-.166-.133-.298-.3-.298" transform="translate(24 10)"/>
            <g fill-rule="nonzero">
                <path fill="#FFF" d="M18.466.922L3.199 5.749C1.44 6.307.243 7.955.243 9.8v5.753c0 13.63 6.574 26.423 17.628 34.383l.433.308c.867.65 2.006.996 3.148.996 1.055 0 2.106-.294 2.984-.881l.216-.153C30.198 46.362 34.734 41.174 37.9 35.1c3.148-5.985 4.808-12.695 4.808-19.547L42.707 9.8l-.003.102c.096-1.892-1.164-3.59-2.958-4.154L24.491.924C22.536.313 20.414.313 18.466.922zm.596 1.909c1.456-.455 3.04-.486 4.512-.091l.314.09 15.259 4.826c.876.275 1.533 1.073 1.561 1.983l-.001.161.001 5.753c0 6.581-1.607 12.966-4.581 18.622-2.975 5.706-7.263 10.678-12.675 14.431-.587.44-1.318.634-2 .634-.683 0-1.415-.196-2-.634C8.823 41.151 2.417 29.044 2.248 16.08l-.004-.526V9.8c0-.917.562-1.747 1.4-2.086l.16-.058 15.26-4.825z" transform="translate(24 10) translate(122 29)"/>
                <path fill="#FF7000" d="M39.147 7.656l-15.26-4.825c-1.559-.488-3.265-.488-4.825 0L3.803 7.656c-.925.293-1.56 1.17-1.56 2.144v5.753c0 13.163 6.435 25.497 17.21 33.053.584.438 1.316.634 2 .634.68 0 1.412-.194 1.999-.634 5.412-3.753 9.7-8.725 12.675-14.43 2.974-5.657 4.581-12.042 4.581-18.623L40.707 9.8c.05-.975-.633-1.853-1.56-2.144z" transform="translate(24 10) translate(122 29)"/>
                <path fill="#FFF" d="M29.738 32.469H13.212V19.062h2.244v-2.875c0-3.315 2.681-6.044 6.044-6.044 3.363 0 6.044 2.681 6.044 6.044v2.875h2.243V32.47h-.05z" transform="translate(24 10) translate(122 29)"/>
                <path fill="#FF7000" d="M21.5 12.675c-1.95 0-3.51 1.61-3.51 3.51v2.875h7.07v-2.875c-.05-1.9-1.61-3.51-3.56-3.51zM23.206 24.181c0-.925-.78-1.706-1.706-1.706-.925 0-1.706.78-1.706 1.706 0 .634.34 1.17.78 1.463l-.487 3.606h2.778l-.487-3.606c.487-.294.828-.829.828-1.463z" transform="translate(24 10) translate(122 29)"/>
            </g>
        </g>
    </g>
</svg>
