<svg xmlns="http://www.w3.org/2000/svg" xmlns:xlink="http://www.w3.org/1999/xlink" width="200" height="100" viewBox="0 0 200 100">
    <defs>
        <path id="prefix__a" d="M2.028 13.728c-.073.031-.098.091-.11.134-.007.044-.005.107.052.162l2.674 2.685c.351.352.351.922 0 1.273L1.626 20.72c-.493.491-.493 1.294-.003 1.787.478.48 1.308.48 1.784 0l3.02-2.737c.35-.35.919-.35 1.267 0l2.676 2.685c.036.034.078.052.127.052.028 0 .125-.007.17-.11l6.17-14.86-14.809 6.19z"/>
        <path id="prefix__b" d="M6.555.778L3.188 4.07 1.594 2.513c-.088-.084-.226-.084-.315 0l-.628.614c-.086.085-.086.223 0 .307l1.987 1.94c.15.15.35.224.55.224.198 0 .397-.073.548-.224L7.498 1.7c.087-.084.087-.222 0-.306L6.87.778c-.042-.043-.1-.064-.157-.064-.058 0-.114.02-.158.064z"/>
        <path id="prefix__d" d="M6.555.778L3.188 4.07 1.594 2.513c-.088-.084-.226-.084-.315 0l-.628.614c-.086.085-.086.223 0 .307l1.987 1.94c.15.15.35.224.55.224.198 0 .397-.073.548-.224L7.498 1.7c.087-.084.087-.222 0-.306L6.87.778c-.042-.043-.1-.064-.157-.064-.058 0-.114.02-.158.064z"/>
        <path id="prefix__f" d="M6.555.778L3.188 4.07 1.594 2.513c-.088-.084-.226-.084-.315 0l-.628.614c-.086.085-.086.223 0 .307l1.987 1.94c.15.15.35.224.55.224.198 0 .397-.073.548-.224L7.498 1.7c.087-.084.087-.222 0-.306L6.87.778c-.042-.043-.1-.064-.157-.064-.058 0-.114.02-.158.064z"/>
    </defs>
    <g fill="none" fill-rule="evenodd">
        <path fill="#FFF" d="M0 0H200V100H0z"/>
        <g>
            <g>
                <path fill="#FF7000" d="M19.674.03c-6.73 0-12.188 5.456-12.188 12.187 0 6.732 5.458 12.188 12.188 12.188h27.641c6.731 0 12.189-5.456 12.189-12.188C59.504 5.487 54.046.03 47.315.03h-27.64z" transform="translate(20 10) translate(46.057 50.982)"/>
                <path fill="#FFF" d="M37.06 5.84c-1.294.195-2.25 1.307-2.255 2.62 0 .282.044.563.134.833l-2.974 1.494c-.666-.968-1.879-1.39-2.997-1.04-1.117.35-1.88 1.388-1.88 2.563 0 1.174.763 2.212 1.88 2.562 1.118.349 2.331-.073 2.997-1.04l2.98 1.501c-.372 1.105.011 2.326.945 3.019.935.691 2.211.7 3.155.017.941-.682 1.337-1.898.977-3.008-.36-1.107-1.392-1.857-2.554-1.852l-.004-.003c-.87.001-1.685.43-2.178 1.149l-2.98-1.504c.09-.27.135-.553.137-.841-.002-.283-.047-.564-.134-.833l2.974-1.484c.748 1.076 2.167 1.444 3.34.865 1.176-.579 1.754-1.929 1.363-3.182-.35-1.122-1.383-1.865-2.526-1.865-.133 0-.265.009-.4.029zm-.26 4.12c-.564-.238-.924-.794-.919-1.404.012-.827.683-1.489 1.51-1.489.61 0 1.162.368 1.395.934.232.566.1 1.215-.337 1.645-.286.284-.669.435-1.058.435-.2 0-.4-.04-.591-.121zm-8.455 2.382c0-.832.675-1.507 1.507-1.507.833 0 1.507.675 1.507 1.507 0 .834-.674 1.509-1.507 1.509-.832 0-1.507-.675-1.507-1.509zm7.656 4.356c-.24-.565-.111-1.218.322-1.653.435-.432 1.088-.56 1.653-.323.566.238.93.795.922 1.41-.01.817-.671 1.478-1.488 1.487h-.019c-.607 0-1.156-.36-1.39-.921z" transform="translate(20 10) translate(46.057 50.982)"/>
                <g transform="translate(20 10) translate(46.057 50.982) translate(.2 7.57)">
                    <path fill="#FFF" d="M16.927 6.347L1.14 12.924c-.571.24-.985.743-1.106 1.353-.12.607.071 1.232.51 1.67l1.912 1.915-1.554 1.552c-1.115 1.117-1.115 2.938 0 4.054 1.087 1.082 2.973 1.082 4.056 0l1.553-1.552 1.915 1.914c.352.351.817.545 1.308.545.755 0 1.426-.45 1.716-1.142l6.578-15.787c.13-.313.057-.675-.183-.916-.16-.163-.376-.248-.594-.248-.112 0-.22.021-.325.065zM20.887 2.47l-1.83 1.831c-.281.281-.281.736 0 1.015.14.142.323.211.507.211s.368-.07.51-.21l1.828-1.831c.281-.28.281-.736 0-1.015-.14-.14-.323-.21-.507-.21-.183 0-.368.07-.508.21zM10.13 3.643c-.184.333-.035.741.333.91l2.532 1.155c.108.047.22.07.333.07.272 0 .536-.137.665-.376.183-.334.035-.741-.333-.91l-2.532-1.154c-.107-.05-.22-.073-.33-.073-.274.001-.538.138-.668.378zM18.971 10.38c-.335.184-.473.63-.304.998l1.154 2.532c.12.261.358.411.607.411.104 0 .207-.024.304-.077.335-.184.472-.63.303-.998l-1.153-2.532c-.117-.26-.358-.412-.607-.412-.101 0-.207.026-.304.078zM14.64.013c-.382.078-.632.46-.555.851l.599 3.077c.068.345.364.581.694.581.046 0 .09-.004.139-.014.382-.078.63-.459.551-.851l-.6-3.077c-.065-.342-.356-.58-.687-.58-.046 0-.094.003-.141.013zM19.866 8.86c-.078.381.176.752.566.829l3.077.599c.048.008.094.014.143.014.337 0 .64-.23.708-.567.079-.381-.175-.753-.566-.829l-3.078-.6c-.048-.01-.097-.014-.145-.014-.34 0-.638.232-.705.567z"/>
                    <use fill="#4D4F58" xlink:href="#prefix__a"/>
                </g>
            </g>
            <path fill="#FEFEFE" d="M0.514 0.575L0.552 29.517 42.055 29.517 42.021 0.575z" transform="translate(20 10)"/>
        </g>
        <g transform="translate(10 15)">
            <path fill="#475059" d="M51.84 0C53.033 0 54 .895 54 2v33c0 1.105-.967 2-2.16 2H2.16C.967 37 0 36.105 0 35V2C0 .895.967 0 2.16 0h49.68zm0 1.8H2.16c-.1 0-.183.062-.208.147L1.944 2v33c0 .092.067.17.159.193l.057.007h49.68c.1 0 .183-.062.208-.147l.008-.053V2c0-.092-.067-.17-.159-.193L51.84 1.8z"/>
            <path fill="#4D4F58" d="M45.5 9.1c.497 0 .9.403.9.9 0 .459-.343.837-.787.893l-.113.007h-16c-.497 0-.9-.403-.9-.9 0-.459.343-.837.787-.893L29.5 9.1h16z"/>
            <rect width="17" height="12" x="8" y="9" fill="#93C256" rx="1"/>
            <rect width="38" height="6" x="8" y="24" fill="#C8CFCA" rx="1"/>
            <path fill="#4D4F58" d="M45.5 14.1c.497 0 .9.403.9.9 0 .459-.343.837-.787.893l-.113.007h-16c-.497 0-.9-.403-.9-.9 0-.459.343-.837.787-.893l.113-.007h16zM45.5 19.1c.497 0 .9.403.9.9 0 .459-.343.837-.787.893l-.113.007h-16c-.497 0-.9-.403-.9-.9 0-.459.343-.837.787-.893l.113-.007h16z"/>
        </g>
        <g transform="translate(73 15)">
            <path fill="#475059" d="M51.84 0C53.033 0 54 .895 54 2v33c0 1.105-.967 2-2.16 2H2.16C.967 37 0 36.105 0 35V2C0 .895.967 0 2.16 0h49.68zm0 1.8H2.16c-.1 0-.183.062-.208.147L1.944 2v33c0 .092.067.17.159.193l.057.007h49.68c.1 0 .183-.062.208-.147l.008-.053V2c0-.092-.067-.17-.159-.193L51.84 1.8z"/>
            <path fill="#4D4F58" d="M45.9 9.1c.497 0 .9.403.9.9 0 .459-.343.837-.787.893l-.113.007h-9c-.497 0-.9-.403-.9-.9 0-.459.343-.837.787-.893L36.9 9.1h9z"/>
            <rect width="40" height="6" x="7" y="24" fill="#FF7000" rx="1"/>
            <path fill="#4D4F58" d="M45.9 14.1c.497 0 .9.403.9.9 0 .459-.343.837-.787.893l-.113.007h-9c-.497 0-.9-.403-.9-.9 0-.459.343-.837.787-.893l.113-.007h9zM45.859 19.1c.52 0 .941.403.941.9 0 .459-.36.837-.823.893l-.118.007H24.94c-.52 0-.941-.403-.941-.9 0-.459.36-.837.823-.893l.118-.007H45.86z"/>
            <rect width="13" height="12" x="7" y="9" fill="#C8CFCA" rx="1"/>
            <rect width="10" height="7" x="24" y="9" fill="#C8CFCA" rx="1"/>
        </g>
        <g transform="translate(136 15)">
            <path fill="#475059" d="M51.84 0C53.033 0 54 .895 54 2v33c0 1.105-.967 2-2.16 2H2.16C.967 37 0 36.105 0 35V2C0 .895.967 0 2.16 0h49.68zm0 1.8H2.16c-.1 0-.183.062-.208.147L1.944 2v33c0 .092.067.17.159.193l.057.007h49.68c.1 0 .183-.062.208-.147l.008-.053V2c0-.092-.067-.17-.159-.193L51.84 1.8z"/>
            <rect width="40" height="6" x="7" y="24" fill="#1C9E3B" rx="1"/>
            <path fill="#4D4F58" d="M45.9 19c.497 0 .9.403.9.9 0 .459-.343.837-.787.893l-.113.007h-16c-.497 0-.9-.403-.9-.9 0-.459.343-.837.787-.893L29.9 19h16zm-22 0c.497 0 .9.403.9.9 0 .459-.343.837-.787.893l-.113.007h-16c-.497 0-.9-.403-.9-.9 0-.459.343-.837.787-.893L7.9 19h16zm22-5c.497 0 .9.403.9.9 0 .459-.343.837-.787.893l-.113.007h-16c-.497 0-.9-.403-.9-.9 0-.459.343-.837.787-.893L29.9 14h16zm-22 0c.497 0 .9.403.9.9 0 .459-.343.837-.787.893l-.113.007h-16c-.497 0-.9-.403-.9-.9 0-.459.343-.837.787-.893L7.9 14h16zm22-5c.497 0 .9.403.9.9 0 .459-.343.837-.787.893l-.113.007h-16c-.497 0-.9-.403-.9-.9 0-.459.343-.837.787-.893L29.9 9h16zm-22 0c.497 0 .9.403.9.9 0 .459-.343.837-.787.893l-.113.007h-16c-.497 0-.9-.403-.9-.9 0-.459.343-.837.787-.893L7.9 9h16z"/>
        </g>
        <g>
            <path fill="#FF7000" d="M16.433.863c3.665 0 6.323 2.972 6.519 6.223 2.218.75 3.822 2.833 3.822 5.298 0 3.094-2.52 5.615-5.613 5.615H6.98c-3.264 0-5.615-2.24-5.615-5.023 0-2.19 1.431-4.312 3.602-4.903.14-1.711.981-3.026 2.15-3.73 1.13-.677 2.517-.795 3.767-.35 1.064-1.745 3.013-3.13 5.548-3.13" transform="translate(43 8)"/>
            <path fill="#FEFEFE" d="M9.358 4.46c-.655 0-1.295.173-1.862.513-1.028.616-1.683 1.769-1.798 3.16l-.042.513-.495.135C3.386 9.263 2.1 11.028 2.1 12.975c0 2.446 2.098 4.29 4.88 4.29H21.16c2.691 0 4.88-2.19 4.88-4.882 0-2.081-1.335-3.93-3.325-4.603l-.466-.157-.03-.493c-.163-2.72-2.373-5.533-5.787-5.533h-.004c-2.018 0-3.858 1.037-4.918 2.777l-.31.51-.561-.2c-.42-.15-.854-.224-1.282-.224M21.16 18.73H6.98c-3.618 0-6.345-2.475-6.345-5.756 0-2.418 1.514-4.634 3.662-5.453.26-1.649 1.135-3.02 2.446-3.807 1.151-.69 2.52-.89 3.832-.577 1.36-1.895 3.513-3.009 5.86-3.009V.13c4.078 0 6.783 3.192 7.202 6.432 2.336.99 3.87 3.272 3.87 5.821 0 3.5-2.846 6.348-6.345 6.348" transform="translate(43 8)"/>
            <g transform="translate(43 8) translate(11.03 7.161)">
                <mask id="prefix__c" fill="#fff">
                    <use xlink:href="#prefix__b"/>
                </mask>
                <path fill="#FEFEFE" d="M-0.706 6.89L8.856 6.89 8.856 -0.578 -0.706 -0.578z" mask="url(#prefix__c)"/>
            </g>
        </g>
        <g>
            <path fill="#FF7000" d="M16.433.863c3.665 0 6.323 2.972 6.519 6.223 2.218.75 3.822 2.833 3.822 5.298 0 3.094-2.52 5.615-5.613 5.615H6.98c-3.264 0-5.615-2.24-5.615-5.023 0-2.19 1.431-4.312 3.602-4.903.14-1.711.981-3.026 2.15-3.73 1.13-.677 2.517-.795 3.767-.35 1.064-1.745 3.013-3.13 5.548-3.13" transform="translate(106 8)"/>
            <path fill="#FEFEFE" d="M9.358 4.46c-.655 0-1.295.173-1.862.513-1.028.616-1.683 1.769-1.798 3.16l-.042.513-.495.135C3.386 9.263 2.1 11.028 2.1 12.975c0 2.446 2.098 4.29 4.88 4.29H21.16c2.691 0 4.88-2.19 4.88-4.882 0-2.081-1.335-3.93-3.325-4.603l-.466-.157-.03-.493c-.163-2.72-2.373-5.533-5.787-5.533h-.004c-2.018 0-3.858 1.037-4.918 2.777l-.31.51-.561-.2c-.42-.15-.854-.224-1.282-.224M21.16 18.73H6.98c-3.618 0-6.345-2.475-6.345-5.756 0-2.418 1.514-4.634 3.662-5.453.26-1.649 1.135-3.02 2.446-3.807 1.151-.69 2.52-.89 3.832-.577 1.36-1.895 3.513-3.009 5.86-3.009V.13c4.078 0 6.783 3.192 7.202 6.432 2.336.99 3.87 3.272 3.87 5.821 0 3.5-2.846 6.348-6.345 6.348" transform="translate(106 8)"/>
            <g transform="translate(106 8) translate(11.03 7.161)">
                <mask id="prefix__e" fill="#fff">
                    <use xlink:href="#prefix__d"/>
                </mask>
                <path fill="#FEFEFE" d="M-0.706 6.89L8.856 6.89 8.856 -0.578 -0.706 -0.578z" mask="url(#prefix__e)"/>
            </g>
        </g>
        <g>
            <path fill="#FF7000" d="M16.433.863c3.665 0 6.323 2.972 6.519 6.223 2.218.75 3.822 2.833 3.822 5.298 0 3.094-2.52 5.615-5.613 5.615H6.98c-3.264 0-5.615-2.24-5.615-5.023 0-2.19 1.431-4.312 3.602-4.903.14-1.711.981-3.026 2.15-3.73 1.13-.677 2.517-.795 3.767-.35 1.064-1.745 3.013-3.13 5.548-3.13" transform="translate(169 8)"/>
            <path fill="#FEFEFE" d="M9.358 4.46c-.655 0-1.295.173-1.862.513-1.028.616-1.683 1.769-1.798 3.16l-.042.513-.495.135C3.386 9.263 2.1 11.028 2.1 12.975c0 2.446 2.098 4.29 4.88 4.29H21.16c2.691 0 4.88-2.19 4.88-4.882 0-2.081-1.335-3.93-3.325-4.603l-.466-.157-.03-.493c-.163-2.72-2.373-5.533-5.787-5.533h-.004c-2.018 0-3.858 1.037-4.918 2.777l-.31.51-.561-.2c-.42-.15-.854-.224-1.282-.224M21.16 18.73H6.98c-3.618 0-6.345-2.475-6.345-5.756 0-2.418 1.514-4.634 3.662-5.453.26-1.649 1.135-3.02 2.446-3.807 1.151-.69 2.52-.89 3.832-.577 1.36-1.895 3.513-3.009 5.86-3.009V.13c4.078 0 6.783 3.192 7.202 6.432 2.336.99 3.87 3.272 3.87 5.821 0 3.5-2.846 6.348-6.345 6.348" transform="translate(169 8)"/>
            <g transform="translate(169 8) translate(11.03 7.161)">
                <mask id="prefix__g" fill="#fff">
                    <use xlink:href="#prefix__f"/>
                </mask>
                <path fill="#FEFEFE" d="M-0.706 6.89L8.856 6.89 8.856 -0.578 -0.706 -0.578z" mask="url(#prefix__g)"/>
            </g>
        </g>
    </g>
</svg>
