<svg width="127" height="37" viewBox="0 0 127 37" fill="none" xmlns="http://www.w3.org/2000/svg">
<path d="M2.36765 21.0993L2.13447 21.5833C2.13447 21.9299 2.61876 22.2645 3.58735 22.5872C4.56789 22.8979 5.63811 23.0533 6.79802 23.0533C7.96989 23.0533 9.25536 22.88 10.6544 22.5334C12.0535 22.1869 13.2672 21.7626 14.2956 21.2607C15.3359 20.7587 16.1909 20.2329 16.8605 19.6831C17.5421 19.1334 17.8829 18.6554 17.8829 18.249C17.8829 17.7351 17.285 17.2571 16.0893 16.8149C14.8935 16.3727 13.1536 15.8887 10.8697 15.3629C8.59768 14.8251 6.92956 14.1499 5.86531 13.3372C4.81302 12.5245 4.28688 11.5386 4.28688 10.3794C4.28688 9.20817 4.7054 8.09076 5.54245 7.02713C6.3795 5.9635 7.46766 5.01938 8.80694 4.19477C10.1582 3.37016 11.629 2.63517 13.2194 1.98983C16.5078 0.663275 19.557 0 22.3671 0C23.4433 0 24.394 0.0956072 25.2191 0.286822C26.7975 0.6573 27.5867 1.14729 27.5867 1.75678C27.5867 2.36628 27.5329 2.78456 27.4253 3.01163C27.3177 3.22674 27.228 3.37016 27.1562 3.44186C27.0964 3.51357 27.0127 3.58527 26.9051 3.65698C26.8094 3.72868 26.7377 3.78246 26.6899 3.81831C26.1637 4.2605 24.7228 4.53537 22.3671 4.64293C21.554 4.67878 21.1115 4.72061 21.0398 4.76841C20.968 4.81621 20.9023 4.84012 20.8425 4.84012C20.7947 4.84012 20.7349 4.79231 20.6631 4.69671C20.5914 4.6011 20.5555 4.44574 20.5555 4.23062C20.5555 4.0155 20.7887 3.62112 21.255 3.04748C19.7962 3.13114 18.2357 3.46576 16.5735 4.05136C14.9234 4.63695 13.4884 5.30023 12.2687 6.04118C11.049 6.77019 10.0326 7.49322 9.21948 8.21027C8.40635 8.91537 7.99979 9.41731 7.99979 9.71609C7.99979 10.0029 8.08947 10.2419 8.26884 10.4331C8.77106 10.9709 10.1642 11.5326 12.4481 12.1182C14.8157 12.7277 16.3942 13.2177 17.1834 13.5882C17.9726 13.9587 18.6243 14.3112 19.1385 14.6458C19.6646 14.9805 20.0832 15.3211 20.3941 15.6676C21.1235 16.5042 21.4882 17.3527 21.4882 18.2132C21.4882 19.0736 21.255 19.8803 20.7887 20.6332C20.3343 21.3861 19.6407 22.1152 18.708 22.8203C17.7873 23.5254 16.6991 24.1528 15.4435 24.7025C12.6932 25.9335 9.41679 26.5489 5.6142 26.5489C2.83998 26.5489 1.07023 25.814 0.304925 24.344C0.101642 23.9735 0 23.5911 0 23.1967C0 22.7904 0.0896837 22.4259 0.269051 22.1032C0.460376 21.7805 0.687575 21.5355 0.950647 21.3682C1.46483 21.0455 1.82955 20.8842 2.04479 20.8842C2.26003 20.8842 2.36765 20.9559 2.36765 21.0993Z" fill="url(#paint0_linear)"/>
<path d="M38.5324 20.4002C38.7596 20.4002 38.8971 20.5735 38.945 20.9201C38.9928 21.2666 39.0167 21.6252 39.0167 21.9956C39.0167 22.3661 38.9808 22.6231 38.9091 22.7665C38.5623 23.4357 37.803 24.2544 36.6311 25.2224C35.4593 26.1785 34.3472 26.6565 33.2949 26.6565C32.6492 26.6565 32.0513 26.4593 31.5012 26.0649C30.9512 25.6825 30.6761 25.0073 30.6761 24.0392C30.6761 23.0712 30.9332 22.1211 31.4474 21.189C28.4819 24.9057 26.1561 26.7641 24.47 26.7641C23.8004 26.7641 23.2563 26.525 22.8378 26.047C22.4312 25.569 22.2279 25.079 22.2279 24.577C22.2279 24.0631 22.2997 23.5373 22.4432 22.9995C22.5867 22.4498 22.7361 21.9598 22.8916 21.5296C23.059 21.0993 23.2981 20.5675 23.6091 19.9341C23.9319 19.3007 24.1711 18.8406 24.3265 18.5538C24.482 18.267 24.7271 17.8367 25.0619 17.2631C25.4087 16.6775 25.8571 15.8947 26.4072 14.9147C26.9692 13.9348 27.4296 13.2117 27.7883 12.7456C28.159 12.2676 28.5177 12.0286 28.8645 12.0286C29.2113 12.0166 29.5162 12.1541 29.7793 12.4409C30.0424 12.7277 30.1739 12.9608 30.1739 13.14C30.1739 13.3193 29.7733 14.126 28.9721 15.5601C26.6045 19.8385 25.4207 22.3303 25.4207 23.0354C25.4207 23.2146 25.4864 23.3043 25.618 23.3043C26.1919 23.3043 27.6209 22.0614 29.9048 19.5756C32.1888 17.0898 33.5101 15.5003 33.8689 14.8072C34.2276 14.1021 34.5744 13.5105 34.9092 13.0325C35.256 12.5544 35.5131 12.2616 35.6805 12.1541C36.1947 11.8194 36.8583 11.6402 37.6715 11.6163C37.803 11.6163 37.9046 11.6223 37.9764 11.6342C38.0481 11.6462 38.1318 11.7477 38.2275 11.939C38.3232 12.1302 38.371 12.2796 38.371 12.3871C38.2634 12.7217 37.7851 13.6121 36.9361 15.0581C36.099 16.5042 35.6326 17.3228 35.537 17.5141C34.126 20.4301 33.4204 22.3303 33.4204 23.2146C33.4204 23.7166 33.6118 23.9675 33.9944 23.9675C34.688 23.8719 35.525 23.3162 36.5056 22.3004C36.8643 21.9299 37.2171 21.5535 37.5638 21.171C37.9226 20.7886 38.1438 20.5675 38.2275 20.5078C38.3112 20.436 38.4128 20.4002 38.5324 20.4002Z" fill="url(#paint1_linear)"/>
<path d="M38.0524 26.1366L37.1735 26.1008H36.8507C36.7311 26.0649 36.6055 25.9932 36.474 25.8857C36.3305 25.7781 36.2229 25.7004 36.1511 25.6526C36.0794 25.6048 36.0435 25.5212 36.0435 25.4016C36.0435 25.2702 36.0914 25.0491 36.187 24.7384C38.5188 19.6114 40.7728 15.5123 42.9492 12.4409C43.1883 12.1063 43.571 11.8553 44.0971 11.688C44.6352 11.5087 45.1554 11.4191 45.6576 11.4191C45.9566 11.4191 46.106 11.6521 46.106 12.1182C46.106 12.2497 46.0582 12.4289 45.9625 12.656C45.8669 12.8711 45.6277 13.2297 45.2451 13.7316C44.8624 14.2335 44.408 14.8072 43.8819 15.4525C43.3557 16.0979 43.0568 16.4683 42.985 16.564C44.6233 14.8669 46.1 13.6061 47.4154 12.7815C48.7427 11.9449 49.6994 11.5266 50.2853 11.5266C50.8832 11.5266 51.3376 11.6999 51.6485 12.0465C51.9713 12.3811 52.1328 12.7456 52.1328 13.14C52.1328 13.5224 52.1029 13.8451 52.0431 14.108C51.9953 14.359 51.8996 14.6279 51.7561 14.9147C51.6126 15.1896 51.487 15.4286 51.3794 15.6318C51.2838 15.823 51.1164 16.0799 50.8772 16.4026C50.638 16.7133 50.4706 16.9285 50.375 17.048C50.2913 17.1675 50.1059 17.3945 49.8189 17.7292C49.5439 18.0638 49.3944 18.249 49.3705 18.2849C49.7053 17.9503 50.1717 17.4543 50.7696 16.797C51.3675 16.1397 51.8697 15.59 52.2763 15.1478C52.6948 14.7056 53.215 14.2096 53.8368 13.6599C54.4586 13.0982 55.0385 12.6441 55.5766 12.2975C56.8681 11.4848 58.1775 11.0785 59.5048 11.0785C59.9592 11.0785 60.3418 11.2219 60.6527 11.5087C60.9636 11.7955 61.1191 12.1421 61.1191 12.5485C61.1191 12.9428 60.6348 13.8989 59.6662 15.4167C58.6976 16.9225 57.729 18.4402 56.7605 19.97C55.8038 21.4877 55.3255 22.4438 55.3255 22.8382C55.3255 23.3879 55.4272 23.7166 55.6304 23.8241C55.8337 23.9197 56.0789 23.9556 56.3658 23.9317C56.6528 23.9078 57.0534 23.7225 57.5676 23.376C58.0938 23.0294 58.5601 22.6709 58.9667 22.3004C59.6244 21.7028 60.2342 21.1232 60.7962 20.5615C60.9158 20.454 61.0473 20.4002 61.1908 20.4002C61.418 20.4002 61.5555 20.5735 61.6034 20.9201C61.6512 21.2666 61.6751 21.6252 61.6751 21.9956C61.6751 22.3661 61.6392 22.6231 61.5675 22.7665C61.2207 23.4357 60.4554 24.2544 59.2716 25.2224C58.0878 26.1904 56.9518 26.6744 55.8636 26.6744C55.7321 26.6744 55.6364 26.6684 55.5766 26.6565C54.345 26.537 53.49 26.2024 53.0117 25.6526C52.5453 25.0909 52.3121 24.4277 52.3121 23.6628C52.3121 22.8979 52.5692 21.9717 53.0834 20.8842C53.6096 19.7967 54.1835 18.8107 54.8053 17.9264C55.4272 17.042 55.9952 16.2473 56.5093 15.5422C57.0355 14.8251 57.2986 14.4367 57.2986 14.3769C57.2986 14.3172 57.2507 14.2873 57.1551 14.2873C56.7844 14.2873 55.9593 14.8849 54.6798 16.0799C52.4915 18.1235 50.6022 20.0954 49.0118 21.9956C48.5933 22.4976 47.6008 23.7703 46.0343 25.814C45.8549 26.053 45.5679 26.1725 45.1733 26.1725C44.7907 26.1725 44.3901 26.1008 43.9716 25.9574C43.553 25.802 43.3438 25.6048 43.3438 25.3658C43.3438 25.2463 44.2944 23.5732 46.1957 20.3464C48.097 17.1077 49.0477 15.345 49.0477 15.0581C49.0477 14.7594 48.8683 14.61 48.5096 14.61C48.1628 14.61 47.4393 15.1358 46.3392 16.1875C43.3139 19.0796 40.9701 21.9538 39.308 24.8101C39.2004 24.9774 38.9911 25.2403 38.6802 25.5988C38.3693 25.9574 38.1601 26.1366 38.0524 26.1366Z" fill="url(#paint2_linear)"/>
<path d="M60.5853 26.1366L59.7064 26.1008H59.3835C59.2639 26.0649 59.1384 25.9932 59.0068 25.8857C58.8634 25.7781 58.7557 25.7004 58.684 25.6526C58.6122 25.6048 58.5764 25.5212 58.5764 25.4016C58.5764 25.2702 58.6242 25.0491 58.7199 24.7384C61.0516 19.6114 63.3057 15.5123 65.482 12.4409C65.7212 12.1063 66.1038 11.8553 66.63 11.688C67.1681 11.5087 67.6882 11.4191 68.1905 11.4191C68.4894 11.4191 68.6389 11.6521 68.6389 12.1182C68.6389 12.2497 68.591 12.4289 68.4954 12.656C68.3997 12.8711 68.1606 13.2297 67.7779 13.7316C67.3953 14.2335 66.9409 14.8072 66.4147 15.4525C65.8886 16.0979 65.5896 16.4683 65.5179 16.564C67.1561 14.8669 68.6329 13.6061 69.9483 12.7815C71.2756 11.9449 72.2322 11.5266 72.8181 11.5266C73.416 11.5266 73.8704 11.6999 74.1813 12.0465C74.5042 12.3811 74.6656 12.7456 74.6656 13.14C74.6656 13.5224 74.6357 13.8451 74.5759 14.108C74.5281 14.359 74.4324 14.6279 74.2889 14.9147C74.1455 15.1896 74.0199 15.4286 73.9123 15.6318C73.8166 15.823 73.6492 16.0799 73.41 16.4026C73.1709 16.7133 73.0035 16.9285 72.9078 17.048C72.8241 17.1675 72.6388 17.3945 72.3518 17.7292C72.0768 18.0638 71.9273 18.249 71.9034 18.2849C72.2382 17.9503 72.7045 17.4543 73.3024 16.797C73.9003 16.1397 74.4025 15.59 74.8091 15.1478C75.2276 14.7056 75.7478 14.2096 76.3696 13.6599C76.9914 13.0982 77.5714 12.6441 78.1095 12.2975C79.4009 11.4848 80.7103 11.0785 82.0376 11.0785C82.492 11.0785 82.8747 11.2219 83.1856 11.5087C83.4965 11.7955 83.6519 12.1421 83.6519 12.5485C83.6519 12.9428 83.1676 13.8989 82.1991 15.4167C81.2305 16.9225 80.2619 18.4402 79.2933 19.97C78.3367 21.4877 77.8584 22.4438 77.8584 22.8382C77.8584 23.3879 77.96 23.7166 78.1633 23.8241C78.3666 23.9197 78.6117 23.9556 78.8987 23.9317C79.1857 23.9078 79.5863 23.7225 80.1005 23.376C80.6266 23.0294 81.0929 22.6709 81.4995 22.3004C82.1572 21.7028 82.767 21.1232 83.3291 20.5615C83.4486 20.454 83.5802 20.4002 83.7237 20.4002C83.9509 20.4002 84.0884 20.5735 84.1362 20.9201C84.1841 21.2666 84.208 21.6252 84.208 21.9956C84.208 22.3661 84.1721 22.6231 84.1003 22.7665C83.7536 23.4357 82.9883 24.2544 81.8044 25.2224C80.6206 26.1904 79.4846 26.6744 78.3965 26.6744C78.2649 26.6744 78.1693 26.6684 78.1095 26.6565C76.8778 26.537 76.0228 26.2024 75.5445 25.6526C75.0782 25.0909 74.845 24.4277 74.845 23.6628C74.845 22.8979 75.1021 21.9717 75.6163 20.8842C76.1424 19.7967 76.7164 18.8107 77.3382 17.9264C77.96 17.042 78.528 16.2473 79.0422 15.5422C79.5683 14.8251 79.8314 14.4367 79.8314 14.3769C79.8314 14.3172 79.7836 14.2873 79.6879 14.2873C79.3172 14.2873 78.4921 14.8849 77.2126 16.0799C75.0244 18.1235 73.135 20.0954 71.5446 21.9956C71.1261 22.4976 70.1336 23.7703 68.5671 25.814C68.3878 26.053 68.1008 26.1725 67.7062 26.1725C67.3235 26.1725 66.9229 26.1008 66.5044 25.9574C66.0859 25.802 65.8766 25.6048 65.8766 25.3658C65.8766 25.2463 66.8273 23.5732 68.7286 20.3464C70.6299 17.1077 71.5805 15.345 71.5805 15.0581C71.5805 14.7594 71.4011 14.61 71.0424 14.61C70.6956 14.61 69.9722 15.1358 68.8721 16.1875C65.8467 19.0796 63.503 21.9538 61.8409 24.8101C61.7332 24.9774 61.524 25.2403 61.2131 25.5988C60.9022 25.9574 60.6929 26.1366 60.5853 26.1366Z" fill="url(#paint3_linear)"/>
<path d="M96.8039 12.405C97.7127 12.405 98.1671 12.7158 98.1671 13.3372C98.1671 13.6718 98.0893 13.9168 97.9339 14.0722C97.7784 14.2276 97.4436 14.7474 96.9294 15.6318C96.4272 16.5042 95.8652 17.6276 95.2434 19.0019C94.6335 20.3643 94.2389 21.5296 94.0595 22.4976C94.0237 22.6171 94.0057 22.7844 94.0057 22.9995C94.0057 23.6568 94.1851 23.9855 94.5438 23.9855C94.9026 23.9855 95.3271 23.8182 95.8173 23.4835C96.3076 23.137 96.7441 22.7724 97.1267 22.39C97.5094 21.9956 97.8801 21.5953 98.2388 21.189C98.6095 20.7826 98.8307 20.5496 98.9025 20.4898C98.9742 20.4301 99.0818 20.4002 99.2253 20.4002C99.4525 20.4002 99.59 20.5735 99.6379 20.9201C99.6857 21.2666 99.7096 21.6252 99.7096 21.9956C99.7096 22.3661 99.6737 22.6231 99.602 22.7665C99.2552 23.4477 98.4899 24.2663 97.3061 25.2224C96.1342 26.1785 95.064 26.6565 94.0954 26.6565C93.1388 26.6565 92.4333 26.3637 91.9789 25.7781C91.5245 25.1925 91.2973 24.5472 91.2973 23.8421C91.2973 23.125 91.4169 22.4976 91.656 21.9598C90.6635 23.2505 89.5215 24.344 88.2301 25.2403C86.9506 26.1366 85.9043 26.5848 85.0912 26.5848C84.278 26.5848 83.6144 26.3398 83.1002 25.8498C82.4425 25.2403 82.1137 24.3978 82.1137 23.3222C82.1137 22.2347 82.3528 21.1471 82.8311 20.0596C83.3214 18.9601 83.9612 17.9622 84.7504 17.0659C85.5396 16.1576 86.4065 15.333 87.3512 14.5921C89.3362 13.0384 91.1657 12.2616 92.8398 12.2616C93.4856 12.2616 94.0117 12.3692 94.4183 12.5843C94.8248 12.7994 95.0819 13.0683 95.1896 13.391C95.4765 12.9608 95.7157 12.6919 95.907 12.5843C96.1103 12.4648 96.4093 12.405 96.8039 12.405ZM94.4183 14.3949C92.3735 14.3949 90.257 15.5302 88.0687 17.8009C87.2914 18.6135 86.5739 19.5875 85.9163 20.7229C85.2705 21.8582 84.9477 22.635 84.9477 23.0533C84.9477 23.4716 85.0673 23.6807 85.3064 23.6807C85.6412 23.6807 86.5739 23.0234 88.1045 21.7088C89.6351 20.3823 90.6516 19.4083 91.1538 18.7868C91.7038 18.0937 92.792 16.6297 94.4183 14.3949Z" fill="url(#paint4_linear)"/>
<path d="M104.126 16.2592C106.948 13.0564 109.352 11.4549 111.337 11.4549C111.827 11.4549 112.228 11.6043 112.539 11.9031C112.862 12.1899 113.023 12.5664 113.023 13.0325C113.023 13.4985 112.688 14.2813 112.019 15.3808C111.361 16.4683 110.751 17.3886 110.189 18.1415C109.89 18.5239 109.549 18.7151 109.167 18.7151C108.796 18.7151 108.503 18.5777 108.288 18.3028C108.084 18.0279 107.983 17.7053 107.983 17.3348C107.983 16.5102 108.425 15.578 109.31 14.5383L109.274 14.5024C108.88 14.5383 107.899 15.3151 106.333 16.8328C104.778 18.3506 103.451 19.713 102.351 20.9201C101.262 22.1152 100.079 23.5732 98.7991 25.2941C98.4285 25.808 98.1116 26.0649 97.8485 26.0649C97.5974 26.0649 97.2626 25.9872 96.844 25.8319C96.4136 25.6646 96.1565 25.5451 96.0728 25.4734C95.9771 25.4016 95.9293 25.2821 95.9293 25.1148C95.9293 24.9475 95.9771 24.7563 96.0728 24.5412C96.1684 24.3141 96.3478 23.9974 96.6109 23.5911C96.862 23.1848 97.2446 22.5275 97.7588 21.6192C98.285 20.7109 99.0981 19.3366 100.198 17.4961C101.298 15.6557 101.956 14.5443 102.171 14.1618C102.626 13.3731 102.996 12.7994 103.283 12.4409C103.821 11.7597 104.73 11.4191 106.01 11.4191C106.297 11.4191 106.44 11.5984 106.44 11.9569C106.44 12.5186 105.92 13.5762 104.88 15.1298L104.126 16.2592Z" fill="url(#paint5_linear)"/>
<path d="M116.722 31.9806C116.662 32.0404 116.477 32.3391 116.166 32.8769C115.867 33.4267 115.544 33.9764 115.198 34.5262C114.851 35.0879 114.42 35.6197 113.906 36.1216C113.404 36.6235 112.979 36.8924 112.633 36.9283C112.298 36.9761 112.083 37 111.987 37C110.887 37 110.337 36.4443 110.337 35.3329C110.337 34.0302 111.012 32.5065 112.364 30.7616C112.878 30.1043 113.524 29.3933 114.301 28.6284C115.078 27.8755 115.503 27.4453 115.574 27.3377C115.646 27.2421 116.543 25.569 118.265 22.3183C117.117 23.5732 116.053 24.595 115.072 25.3837C114.092 26.1605 113.147 26.5967 112.238 26.6923H112.113C111.646 26.6923 111.186 26.537 110.731 26.2263C110.277 25.9275 110.05 25.3957 110.05 24.6308C110.05 23.4955 110.355 22.396 110.965 21.3324C111.18 20.9619 111.55 20.3345 112.077 19.4501C112.615 18.5657 113.111 17.7112 113.565 16.8866C113.996 16.2293 114.438 15.4645 114.893 14.5921C115.347 13.7196 115.694 13.0982 115.933 12.7277C116.172 12.3453 116.399 12.1541 116.615 12.1541C116.83 12.1541 117.105 12.2915 117.44 12.5664C117.786 12.8293 117.96 13.146 117.96 13.5165C117.96 13.887 117.177 15.4943 115.61 18.3387C114.044 21.183 113.26 22.8023 113.26 23.1967C113.26 23.2923 113.308 23.3401 113.404 23.3401C113.727 23.3401 114.438 22.886 115.538 21.9777C116.651 21.0575 117.876 19.8803 119.215 18.4462C120.71 16.8568 121.882 15.4047 122.731 14.0901C122.839 13.9228 122.922 13.7973 122.982 13.7137C123.054 13.6181 123.138 13.4985 123.233 13.3551C123.341 13.1998 123.425 13.0803 123.484 12.9966C123.556 12.913 123.634 12.8173 123.718 12.7098C123.813 12.5903 123.897 12.5006 123.969 12.4409C124.04 12.3811 124.118 12.3214 124.202 12.2616C124.333 12.1421 124.477 12.0824 124.632 12.0824C124.8 12.0824 125.045 12.1182 125.368 12.1899C125.703 12.2616 125.9 12.3393 125.96 12.423C126.031 12.5066 126.103 12.5843 126.175 12.656C126.294 12.7875 126.354 12.913 126.354 13.0325C126.354 13.14 126.306 13.2894 126.211 13.4806C126.115 13.6599 125.559 14.604 124.543 16.313C121.553 21.3563 119.496 25.0371 118.372 27.3556C120.19 25.8259 122.749 23.5612 126.049 20.5615C126.181 20.454 126.312 20.4002 126.444 20.4002C126.815 20.4002 127 20.9679 127 22.1032C127 22.4378 126.94 22.6589 126.821 22.7665C123.245 25.5152 119.879 28.5866 116.722 31.9806Z" fill="url(#paint6_linear)"/>
<defs>
<linearGradient id="paint0_linear" x1="193.284" y1="43.7942" x2="148.767" y2="-52.6153" gradientUnits="userSpaceOnUse">
<stop stop-color="#1EBC43"/>
<stop offset="1" stop-color="#8EDB2D"/>
</linearGradient>
<linearGradient id="paint1_linear" x1="193.284" y1="43.7942" x2="148.767" y2="-52.6153" gradientUnits="userSpaceOnUse">
<stop stop-color="#1EBC43"/>
<stop offset="1" stop-color="#8EDB2D"/>
</linearGradient>
<linearGradient id="paint2_linear" x1="193.284" y1="43.7942" x2="148.767" y2="-52.6153" gradientUnits="userSpaceOnUse">
<stop stop-color="#1EBC43"/>
<stop offset="1" stop-color="#8EDB2D"/>
</linearGradient>
<linearGradient id="paint3_linear" x1="193.284" y1="43.7942" x2="148.767" y2="-52.6153" gradientUnits="userSpaceOnUse">
<stop stop-color="#1EBC43"/>
<stop offset="1" stop-color="#8EDB2D"/>
</linearGradient>
<linearGradient id="paint4_linear" x1="193.284" y1="43.7942" x2="148.767" y2="-52.6153" gradientUnits="userSpaceOnUse">
<stop stop-color="#1EBC43"/>
<stop offset="1" stop-color="#8EDB2D"/>
</linearGradient>
<linearGradient id="paint5_linear" x1="193.284" y1="43.7942" x2="148.767" y2="-52.6153" gradientUnits="userSpaceOnUse">
<stop stop-color="#1EBC43"/>
<stop offset="1" stop-color="#8EDB2D"/>
</linearGradient>
<linearGradient id="paint6_linear" x1="193.284" y1="43.7942" x2="148.767" y2="-52.6153" gradientUnits="userSpaceOnUse">
<stop stop-color="#1EBC43"/>
<stop offset="1" stop-color="#8EDB2D"/>
</linearGradient>
</defs>
</svg>
