<svg xmlns="http://www.w3.org/2000/svg" width="36" height="36" viewBox="0 0 36 36">
    <g fill="none" fill-rule="evenodd">
        <path fill="#F6BF4A" d="M17.97 35.911c9.897 0 17.969-8.066 17.969-17.955C35.939 8.066 27.867 0 17.969 0 8.073 0 0 8.066 0 17.956 0 27.845 8.072 35.91 17.97 35.91"/>
        <path fill="#FFFFFE" d="M17.97 3.168c-8.174 0-14.8 6.621-14.8 14.788s6.626 14.787 14.8 14.787c8.173 0 14.799-6.62 14.799-14.787 0-8.167-6.626-14.788-14.8-14.788zm0-1.597c9.055 0 16.396 7.336 16.396 16.385 0 9.049-7.341 16.385-16.396 16.385-9.056 0-16.398-7.336-16.398-16.385C1.572 8.907 8.914 1.57 17.97 1.57z"/>
    </g>
</svg>
