<svg xmlns="http://www.w3.org/2000/svg" width="240" height="120" viewBox="0 0 240 120">
    <g fill="none" fill-rule="evenodd">
        <path fill="#FFF" d="M0 0H240V120H0z"/>
        <path fill="#4D4F58" fill-rule="nonzero" d="M33.913 92.047c4.914.08 8.335 3.474 8.335 8.317v6.684c0 .534-.434.968-.969.968h-5.81l.114-.007c.481-.056.855-.465.855-.961v-3.873c0-.535-.433-.969-.968-.969-.535 0-.968.434-.968.969v3.873c0 .534.433.968.968.968H19.978l.113-.007c.481-.056.855-.465.855-.961v-3.873c0-.535-.433-.969-.968-.969-.535 0-.968.434-.968.969v3.873c0 .534.433.968.968.968h-5.81c-.535 0-.968-.434-.968-.968v-6.684c0-4.843 3.42-8.237 8.334-8.317 1.687 1.552 3.897 2.413 6.19 2.413 2.292 0 4.502-.861 6.19-2.413zM27.723 78c4.011 0 7.262 3.25 7.262 7.262 0 4.011-3.25 7.262-7.262 7.262-4.01 0-7.262-3.25-7.262-7.262 0-4.011 3.251-7.262 7.262-7.262z"/>
        <path fill="#4D4F58" d="M73.347 91.934c4.874.08 8.267 3.446 8.267 8.25v6.63c0 .53-.43.96-.96.96H74.89l.112-.006c.478-.055.848-.461.848-.954v-3.842c0-.53-.43-.96-.96-.96s-.96.43-.96.96v3.842c0 .53.43.96.96.96H59.523l.112-.006c.478-.055.849-.461.849-.954v-3.842c0-.53-.43-.96-.96-.96-.531 0-.961.43-.961.96v3.842c0 .53.43.96.96.96H53.76c-.53 0-.96-.43-.96-.96v-6.63c0-4.804 3.393-8.17 8.267-8.25 1.674 1.54 3.866 2.394 6.14 2.394 2.274 0 4.466-.855 6.14-2.394zM67.207 78c3.978 0 7.203 3.225 7.203 7.204 0 3.978-3.225 7.203-7.204 7.203-3.978 0-7.203-3.224-7.203-7.203 0-3.98 3.225-7.204 7.203-7.204z"/>
        <g fill-rule="nonzero">
            <path stroke="#4D4F58" stroke-width="2" d="M35.37 1.32H19.248c-1.933-.016-3.843.317-5.647.987C7.253 4.727 3.448 9.401 1.677 15.834c-.318 1.14-.545 2.297-.677 3.469v3.776c.207 1.348.48 2.686.824 4.008 2.141 6.975 6.529 11.698 13.742 13.561.556.113.868.331 1.08.593.22.268.366.627.366 1.197v8.09c-.016.484.167.953.503 1.3.333.342.79.537 1.27.537.595-.006 1.168-.275 1.597-.78 1.625-1.714 3.264-3.428 4.905-5.144 1.45-1.516 2.902-3.033 4.347-4.555.504-.563 1.23-.865 1.981-.827h4.094c4.703.095 9.245-1.71 12.6-5.005 3.315-3.303 5.43-7.63 6.002-12.284.574-4.652-.428-9.364-2.844-13.38-3.649-5.93-8.974-9.104-16.097-9.07z" transform="translate(12 12)"/>
            <path fill="#93C256" d="M65.968 26.276c-1.98-1.782-4.424-2.966-7.05-3.414 0 .192-.05.306-.064.412-.237 3.442-1.209 6.792-2.852 9.824-4.405 7.983-11.086 12.347-20.344 12.46h-2.93c-.8 0-1.156.614-.75 1.276 2.254 3.679 5.403 6.196 9.717 6.942v.003c1.865.229 3.745.32 5.625.276.44-.025.866.15 1.155.479 1.256 1.34 2.537 2.65 3.807 3.976.977 1.02 1.946 2.061 2.952 3.066.885 1.017 2.425 1.125 3.441.243.6-.543.914-1.332.85-2.14v-5.076c0-.607.164-.818.763-1.047 1.478-.47 2.896-1.116 4.218-1.924 8.399-5.775 9.134-18.54 1.462-25.357z" transform="translate(12 12)"/>
        </g>
        <g fill-rule="nonzero">
            <path fill="#FFF" d="M11.695 0c2.833 0 5.264.815 7.123 2.484 1.89 1.68 2.845 3.87 2.845 6.451 0 2.23-.686 4.196-2.07 5.833l-.376.427c-.499.548-1.091 1.05-2.22 1.906l-.543.41c-.178.135-.314.244-.416.328l-.193.165-.005.237.001.145.196 9.843H5.945c.321-8.852.687-13.7 1.096-14.546l.161-.314.16-.285-6.928-.945.661-3.385c.506-2.592 1.262-4.212 2.832-5.85C5.825.987 8.592 0 11.695 0z" transform="translate(28.366 19.2)"/>
            <path fill="#93C256" d="M13.323 22.152v3.36H8.66v-3.36h4.663zM11.695 2.714c2.199 0 3.982.598 5.32 1.8 1.302 1.156 1.934 2.606 1.934 4.421 0 1.577-.454 2.905-1.378 4.02l-.36.41c-.43.47-1.03.96-2.4 1.985-1.407 1.07-1.685 1.555-1.685 2.891l.005.336c.007.226.022.463.046.763l.073.829H8.751l.06-.596c.018-.192.03-.352.037-.511l.009-.437v-.66c0-1.601.35-2.848 1.114-3.918l.164-.224c.42-.559.748-.857 1.83-1.67l.444-.331c1.46-1.076 1.95-1.818 1.95-2.86 0-1.338-1.045-2.226-2.714-2.226-1.237 0-2.125.454-2.642 1.313-.285.479-.407.859-.494 1.634l-.077.808-4.783-.653.11-.564c.413-2.113.949-3.262 2.097-4.46 1.348-1.362 3.416-2.1 5.839-2.1z" transform="translate(28.366 19.2)"/>
        </g>
        <g>
            <path fill="#4D4F58" d="M2.12 0C.95 0 0 .95 0 2.12v92.576c0 1.17.95 2.122 2.12 2.122h128.84c1.174 0 2.12-.951 2.12-2.122V2.12c0-1.17-.946-2.12-2.12-2.12H2.12zm129.466 2.12v92.576c0 .344-.28.624-.625.624H2.12c-.343 0-.625-.28-.625-.624V2.12c0-.345.282-.625.624-.625h128.84c.346 0 .626.28.626.625z" transform="translate(94.8 12)"/>
            <path fill="#4D4F58" d="M60.857 15.18H14.326c-.617 0-1.118-.499-1.118-1.12v-.938c0-.62.501-1.122 1.118-1.122h46.531c.617 0 1.12.501 1.12 1.122v.938c0 .621-.503 1.12-1.12 1.12M86.011 24.723H67.59c-.216 0-.389-.44-.389-.987v-10.75c0-.542.173-.986.389-.986H86.01c.215 0 .389.444.389.987v10.75c0 .546-.174.986-.389.986" transform="translate(94.8 12)"/>
            <path fill="#93C256" d="M86.011 41.679H67.59c-.216 0-.389-.44-.389-.987v-10.75c0-.542.173-.986.389-.986H86.01c.215 0 .389.444.389.985v10.751c0 .547-.174.987-.389.987" transform="translate(94.8 12)"/>
            <path fill="#4D4F58" d="M120.272 83.643H14.324c-.564 0-1.026-.498-1.026-1.117V70.36c0-.614.462-1.117 1.026-1.117h105.948c.567 0 1.026.503 1.026 1.117v12.166c0 .62-.459 1.117-1.026 1.117" transform="translate(94.8 12)"/>
            <path fill="#C8CFCA" d="M85.55 63.943H68.051c-.472 0-.851-.44-.851-.987v-14.99c0-.545.38-.987.851-.987H85.55c.47 0 .85.442.85.987v14.99c0 .547-.38.987-.85.987" transform="translate(94.8 12)"/>
            <path fill="#1C9E3B" d="M119.978 63.985h-27.34c-.737 0-1.33-.44-1.33-.987v-14.99c0-.545.593-.988 1.33-.988h27.34c.735 0 1.33.443 1.33.987v14.991c0 .547-.595.987-1.33.987" transform="translate(94.8 12)"/>
            <path fill="#4D4F58" d="M60.857 24.732H14.326c-.617 0-1.118-.5-1.118-1.12v-.939c0-.62.501-1.122 1.118-1.122h46.531c.617 0 1.12.501 1.12 1.122v.938c0 .621-.503 1.12-1.12 1.12M120.14 38.53c.617 0 1.121.502 1.121 1.123v.938c0 .62-.504 1.12-1.12 1.12H92.76c-.617 0-1.118-.5-1.118-1.12v-.938c0-.621.5-1.122 1.118-1.122h27.38zm0-8.49c.617 0 1.121.502 1.121 1.123v.938c0 .62-.504 1.12-1.12 1.12H92.76c-.617 0-1.118-.5-1.118-1.12v-.938c0-.621.5-1.122 1.118-1.122h27.38zm0-8.489c.617 0 1.121.501 1.121 1.122v.938c0 .621-.504 1.12-1.12 1.12H92.76c-.617 0-1.118-.499-1.118-1.12v-.938c0-.62.5-1.122 1.118-1.122h27.38zm0-9.551c.617 0 1.121.501 1.121 1.122v.938c0 .621-.504 1.12-1.12 1.12H92.76c-.617 0-1.118-.499-1.118-1.12v-.938c0-.62.5-1.122 1.118-1.122h27.38zM60.983 63.943H14.187c-.547 0-.987-.44-.987-.987V29.942c0-.542.44-.986.987-.986h46.796c.545 0 .987.444.987.986v33.014c0 .547-.442.987-.987.987" transform="translate(94.8 12)"/>
            <path fill="#FEFEFE" d="M36.006 39.065l-.001 19.07c0 .175-.143.32-.317.32h-5.756c-.176 0-.318-.145-.318-.32v-4.121c0-.177-.143-.316-.319-.316h-2.203c-.176 0-.319.14-.319.316v4.12c0 .176-.142.32-.317.32H20.7c-.176 0-.318-.144-.318-.32v-19.07c0-.176.142-.318.318-.318h14.988c.175 0 .318.142.318.319m18.78-5.362l-.001 24.431c0 .176-.143.32-.319.32h-5.755c-.176 0-.318-.144-.318-.32v-4.131c0-.176-.142-.318-.318-.318H45.87c-.175 0-.317.142-.317.318v4.131c0 .176-.142.32-.319.32H39.48c-.176 0-.318-.144-.318-.32V33.703c0-.176.142-.318.318-.318h14.988c.175 0 .318.142.318.318m-29.75 15.735h-2.204c-.175 0-.317.144-.317.32v2.201c0 .177.142.316.317.316h2.204c.177 0 .319-.139.319-.316v-2.2c0-.177-.142-.32-.32-.32m4.262 0h-2.204c-.175 0-.318.143-.318.32v2.2c0 .177.143.316.318.316h2.204c.175 0 .319-.139.319-.316v-2.2c0-.177-.144-.32-.32-.32m4.262 0h-2.204c-.175 0-.318.143-.318.32v2.2c0 .177.143.316.318.316h2.204c.175 0 .319-.139.319-.316v-2.2c0-.177-.144-.32-.32-.32m10.259-.022H41.61c-.176 0-.318.142-.318.318v2.209c0 .175.142.317.318.317h2.205c.175 0 .317-.142.317-.317v-2.21c0-.175-.142-.317-.317-.317m4.26 0h-2.204c-.176 0-.318.142-.318.318v2.209c0 .175.142.317.318.317h2.205c.175 0 .317-.142.317-.317v-2.21c0-.175-.142-.317-.317-.317m4.26 0h-2.204c-.176 0-.318.142-.318.318v2.209c0 .175.142.317.318.317h2.203c.177 0 .32-.142.32-.317v-2.21c0-.175-.143-.317-.32-.317m-27.3-4.234h-2.204c-.175 0-.317.14-.317.316v2.2c0 .177.142.32.317.32h2.204c.177 0 .319-.143.319-.32v-2.2c0-.177-.142-.316-.32-.316m4.262 0h-2.204c-.175 0-.318.14-.318.316v2.2c0 .177.143.32.318.32h2.204c.175 0 .319-.143.319-.32v-2.2c0-.177-.144-.316-.32-.316m4.262 0h-2.204c-.175 0-.318.14-.318.316v2.2c0 .177.143.32.318.32h2.204c.175 0 .319-.143.319-.32v-2.2c0-.177-.144-.316-.32-.316m10.259-.035H41.61c-.176 0-.318.145-.318.32v2.21c0 .173.142.315.318.315h2.205c.175 0 .317-.142.317-.316v-2.209c0-.175-.142-.32-.317-.32m4.26 0h-2.204c-.176 0-.318.145-.318.32v2.21c0 .173.142.315.318.315h2.205c.175 0 .317-.142.317-.316v-2.209c0-.175-.142-.32-.317-.32m4.26 0h-2.204c-.176 0-.318.145-.318.32v2.21c0 .173.142.315.318.315h2.203c.177 0 .32-.142.32-.316v-2.209c0-.175-.143-.32-.32-.32m-27.3-4.225h-2.204c-.175 0-.317.142-.317.318v2.203c0 .174.142.316.317.316h2.204c.177 0 .319-.142.319-.316v-2.203c0-.176-.142-.318-.32-.318m4.262 0h-2.204c-.175 0-.318.142-.318.318v2.203c0 .174.143.316.318.316h2.204c.175 0 .319-.142.319-.316v-2.203c0-.176-.144-.318-.32-.318m4.262 0h-2.204c-.175 0-.318.142-.318.318v2.203c0 .174.143.316.318.316h2.204c.175 0 .319-.142.319-.316v-2.203c0-.176-.144-.318-.32-.318m10.259-.041H41.61c-.176 0-.318.14-.318.316v2.209c0 .175.142.32.318.32h2.205c.175 0 .317-.145.317-.32v-2.21c0-.175-.142-.315-.317-.315m4.26 0h-2.204c-.176 0-.318.14-.318.316v2.209c0 .175.142.32.318.32h2.205c.175 0 .317-.145.317-.32v-2.21c0-.175-.142-.315-.317-.315m4.26 0h-2.204c-.176 0-.318.14-.318.316v2.209c0 .175.142.32.318.32h2.203c.177 0 .32-.145.32-.32v-2.21c0-.175-.143-.315-.32-.315m-8.52-4.174H41.61c-.176 0-.318.14-.318.316v2.21c0 .175.142.32.318.32h2.205c.175 0 .317-.145.317-.32v-2.21c0-.175-.142-.316-.317-.316m4.26 0h-2.204c-.176 0-.318.14-.318.316v2.21c0 .175.142.32.318.32h2.205c.175 0 .317-.145.317-.32v-2.21c0-.175-.142-.316-.317-.316m4.26 0h-2.204c-.176 0-.318.14-.318.316v2.21c0 .175.142.32.318.32h2.203c.177 0 .32-.145.32-.32v-2.21c0-.175-.143-.316-.32-.316" transform="translate(94.8 12)"/>
        </g>
        <circle cx="162" cy="58.8" r="19.2" fill="#FFF"/>
        <path fill="#FF7000" d="M162 44.4c-3.82 0-7.482 1.518-10.182 4.218S147.6 54.98 147.6 58.8c0 3.82 1.518 7.482 4.218 10.182S158.18 73.2 162 73.2c3.82 0 7.482-1.518 10.182-4.218S176.4 62.62 176.4 58.8c0-3.82-1.518-7.482-4.218-10.182S165.82 44.4 162 44.4zm-3.661 20.014v-10.74l9.763 5.37-9.763 5.37z"/>
    </g>
</svg>
