<svg xmlns="http://www.w3.org/2000/svg" width="200" height="100" viewBox="0 0 200 100">
    <g fill="none" fill-rule="evenodd">
        <path fill="#FFF" d="M0 0H200V100H0z"/>
        <g>
            <path fill="#FF7000" d="M32.306 9.017c.112-.113.222-.058.332 0 .938.737 2.094 1.134 3.362 1.134 1.268 0 2.426-.454 3.362-1.134.112-.058.222-.058.332 0C41.898 10.492 43 13.383 43 16.673c0 2.27-13.996 2.27-14 0 0-3.29 1.102-6.18 3.306-7.656zM36.003 0c2.314 0 4.188 1.93 4.188 4.311 0 2.38-1.874 4.31-4.188 4.31-2.314 0-4.19-1.93-4.19-4.31C31.814 1.93 33.69 0 36.004 0z" transform="translate(147 10)"/>
            <path fill="#93C256" d="M2.598 15.085c.088-.089.174-.045.26 0 .738.58 1.647.891 2.643.891.996 0 1.906-.357 2.642-.891.088-.045.174-.045.26 0 1.775 1.16 2.641 3.43 2.595 6.016 0 1.782-10.998 1.782-10.998 0 0-2.585.866-4.857 2.598-6.016zM5.545 8c1.818 0 3.292 1.516 3.292 3.386s-1.474 3.387-3.292 3.387c-1.819 0-3.292-1.516-3.292-3.387C2.253 9.516 3.726 8 5.545 8z" transform="translate(147 10)"/>
            <path fill="#1C9E3B" d="M16.78 20.305c.127-.129.253-.066.378 0 1.073.843 2.394 1.296 3.843 1.296 1.45 0 2.773-.519 3.843-1.296.128-.066.254-.066.38 0 2.582 1.687 3.842 4.99 3.773 8.75 0 2.593-15.997 2.593-15.997 0 0-3.76 1.26-7.064 3.78-8.75zM21.003 10c2.645 0 4.788 2.205 4.788 4.925 0 2.721-2.143 4.927-4.788 4.927-2.645 0-4.788-2.205-4.788-4.927 0-2.72 2.143-4.925 4.788-4.925z" transform="translate(147 10)"/>
        </g>
        <g transform="translate(9 9)">
            <path fill="#4D4F58" fill-rule="nonzero" d="M23 0C10.297 0 0 10.297 0 23s10.297 23 23 23 23-10.297 23-23S35.703 0 23 0zm0 2c11.598 0 21 9.402 21 21s-9.402 21-21 21S2 34.598 2 23 11.402 2 23 2z"/>
            <circle cx="49" cy="53" r="12" fill="#1C9E3B"/>
            <path fill="#FFF" fill-rule="nonzero" d="M50.092 57.231V59h-2.455v-1.769h2.455zM49.235 47c1.158 0 2.096.314 2.8.947.686.609 1.018 1.372 1.018 2.327 0 .83-.239 1.53-.725 2.116l-.19.217c-.226.247-.541.504-1.262 1.044-.741.563-.888.819-.888 1.522l.003.177c.004.119.011.243.024.401l.039.437h-2.368l.03-.314c.01-.101.017-.186.02-.27l.005-.23v-.347c0-.842.185-1.498.587-2.062l.086-.118c.221-.294.393-.45.964-.88l.233-.173c.768-.566 1.027-.957 1.027-1.505 0-.705-.55-1.172-1.43-1.172-.65 0-1.118.239-1.39.691-.15.252-.214.452-.26.86l-.04.425L45 50.75l.058-.297c.217-1.112.5-1.717 1.103-2.348.71-.717 1.799-1.105 3.074-1.105z"/>
            <circle cx="16" cy="66" r="15" fill="#97A099"/>
            <path fill="#FFF" d="M23.875 59H8.125C7.504 59 7 59.504 7 60.125v11.75C7 72.496 7.504 73 8.125 73h15.75c.298 0 .585-.119.795-.33.211-.21.33-.497.33-.795v-11.75c0-.298-.119-.585-.33-.795-.21-.211-.497-.33-.795-.33zm-.375 1.5v1.435L16 67.1l-7.5-5.165V60.5h15zm-15 11v-7.745l7 4.805c.15.092.323.142.5.145.2-.001.397-.06.565-.17l6.935-4.78V71.5h-15z"/>
            <path fill="#FF7000" d="M32.704 22.291c0-5.123-2.515-9.291-8.7-9.291h-1.563c-6.185 0-8.7 4.168-8.7 9.291v.749c-1.58.402-2.741 1.685-2.741 3.217 0 1.227.75 2.293 1.857 2.88v.083c0 1.518 1.38 2.752 3.075 2.752h7.329c.426.789 1.318 1.338 2.357 1.338 1.447 0 2.618-1.055 2.618-2.356 0-1.3-1.171-2.356-2.618-2.356-1.288 0-2.357.838-2.579 1.936h-7.107c-.723 0-1.329-.402-1.522-.95.121.01.24.032.365.032h.682c.408 0 .741-.322.741-.717v-5.287c0-.395-.333-.718-.74-.718h-.233v-.604c0-4.332 1.85-7.855 7.216-7.855h1.563c5.367 0 7.216 3.523 7.216 7.855v.604l-.144.004c-.407 0-.74.322-.74.717v5.287c0 .395.333.717.74.717h.69c2.077 0 3.776-1.507 3.776-3.36 0-1.564-1.215-2.87-2.838-3.244v-.724z"/>
        </g>
        <path fill="#4D4F58" fill-rule="nonzero" d="M168 45c-12.703 0-23 10.297-23 23s10.297 23 23 23 23-10.297 23-23-10.297-23-23-23zm0 2c11.598 0 21 9.402 21 21s-9.402 21-21 21-21-9.402-21-21 9.402-21 21-21z"/>
        <path fill="#1C9E3B" d="M160.5 78h15c1.381 0 2.5-1.119 2.5-2.5V64.667c0-1.381-1.119-2.5-2.5-2.5h-3.333V60.5c0-1.381-1.12-2.5-2.5-2.5h-3.334c-1.38 0-2.5 1.119-2.5 2.5v1.667H160.5c-1.381 0-2.5 1.119-2.5 2.5V75.5c0 1.381 1.119 2.5 2.5 2.5zm15-1.667h-15c-.46 0-.833-.372-.833-.833v-5.833h5.833v2.5c0 .221.088.433.244.589.156.156.368.244.59.244h3.333c.221 0 .433-.088.589-.244.156-.156.244-.368.244-.59v-2.5h5.833V75.5c0 .221-.088.433-.244.59-.156.155-.368.243-.589.243zm-8.333-6.666h1.666v1.666h-1.666v-1.666zM165.5 60.5c0-.46.373-.833.833-.833h3.334c.221 0 .433.088.589.244.156.156.244.368.244.589v1.667h-5V60.5zm-5 3.333h15c.221 0 .433.088.59.244.155.157.243.368.243.59V68h-16.666v-3.333c0-.46.372-.834.833-.834z"/>
        <g fill-rule="nonzero">
            <path fill="#FF7000" d="M2.86 1.787C.148 4.545 0 8.035 0 8.035c.677 3.389 4.462 9.557 9.064 14.161 4.603 4.607 10.773 8.388 14.164 9.062 0 0 3.49-.14 6.248-2.857v.005l1.627-1.623c.214-.214.214-.57 0-.782l-6.891-6.894c-.217-.214-.567-.214-.783 0l-1.622 1.626.002.008-1.526 1.892s-2.896-.625-6.96-4.693c-4.068-4.064-4.694-6.959-4.694-6.959l1.895-1.53.004.007.055-.052v-.003l1.57-1.568c.215-.217.215-.57 0-.785L5.263.16c-.215-.214-.566-.214-.78 0L2.856 1.788h.004z" transform="translate(87 33)"/>
            <path fill="#93C256" d="M5.705 21.283c.667.77 1.358 1.512 2.06 2.215.835.839 1.735 1.658 2.663 2.442-2.313 2.586-4.04 4.52-4.04 4.52-1.347 1.51-3.66 1.638-5.17.29-1.503-1.347-1.634-3.663-.287-5.172.091-.096.191-.196.288-.285l4.486-4.01zM23.328 2.25c.15-.02.402.067.236.416l-1.415 2.945c-.356.746-.252 1.777 1.497 2.614 1.747.837 2.623.278 2.98-.468 0 0 1.334-2.786 1.415-2.945.07-.16.357-.338.537-.037.741 1.235 1.65 3.024.537 5.342-1.205 2.511-3.844 3.094-6.182 2.432-.136-.037-.393-.145-.712.204l-5.3 5.929c-.697-.546-1.472-1.213-2.301-2.04-.65-.652-1.2-1.267-1.671-1.84 2.948-2.634 5.33-4.765 5.478-4.898.403-.358.321-.777.252-.946-.47-1.146-.51-2.45.13-3.782 1.115-2.324 3.087-2.74 4.519-2.926z" transform="translate(87 33)"/>
        </g>
        <path fill="#FF7000" d="M101.5 26c1.38 0 2.5 1.12 2.5 2.5s-1.12 2.5-2.5 2.5-2.5-1.12-2.5-2.5 1.12-2.5 2.5-2.5zm-36-9c1.38 0 2.5 1.12 2.5 2.5S66.88 22 65.5 22 63 20.88 63 19.5s1.12-2.5 2.5-2.5zm9 0c1.38 0 2.5 1.12 2.5 2.5S75.88 22 74.5 22 72 20.88 72 19.5s1.12-2.5 2.5-2.5zm9 0c1.38 0 2.5 1.12 2.5 2.5S84.88 22 83.5 22 81 20.88 81 19.5s1.12-2.5 2.5-2.5zm9 0c1.38 0 2.5 1.12 2.5 2.5S93.88 22 92.5 22 90 20.88 90 19.5s1.12-2.5 2.5-2.5zm9 0c1.38 0 2.5 1.12 2.5 2.5s-1.12 2.5-2.5 2.5-2.5-1.12-2.5-2.5 1.12-2.5 2.5-2.5zM101.5 75c-1.38 0-2.5-1.12-2.5-2.5s1.12-2.5 2.5-2.5 2.5 1.12 2.5 2.5-1.12 2.5-2.5 2.5zm36 9c-1.38 0-2.5-1.12-2.5-2.5s1.12-2.5 2.5-2.5 2.5 1.12 2.5 2.5-1.12 2.5-2.5 2.5zm-9 0c-1.38 0-2.5-1.12-2.5-2.5s1.12-2.5 2.5-2.5 2.5 1.12 2.5 2.5-1.12 2.5-2.5 2.5zm-9 0c-1.38 0-2.5-1.12-2.5-2.5s1.12-2.5 2.5-2.5 2.5 1.12 2.5 2.5-1.12 2.5-2.5 2.5zm-9 0c-1.38 0-2.5-1.12-2.5-2.5s1.12-2.5 2.5-2.5 2.5 1.12 2.5 2.5-1.12 2.5-2.5 2.5zm-9 0c-1.38 0-2.5-1.12-2.5-2.5s1.12-2.5 2.5-2.5 2.5 1.12 2.5 2.5-1.12 2.5-2.5 2.5z"/>
    </g>
</svg>
