<svg xmlns="http://www.w3.org/2000/svg" width="200" height="100" viewBox="0 0 200 100">
    <g fill="none" fill-rule="evenodd">
        <path fill="#FFF" d="M0 0H200V100H0z"/>
        <g>
            <g>
                <path fill="#F7FAF8" d="M0.85 0.85H154.85V37.85H0.85z" transform="translate(11 4) translate(24.15 42)"/>
                <path fill="#97A099" d="M154.85.85v37H.85v-37h154zm-1.7 1.7H2.55v33.6h150.6V2.55z" transform="translate(11 4) translate(24.15 42)"/>
            </g>
            <g transform="translate(11 4) translate(0 9)">
                <path fill="#FFF1E7" d="M1 1H155V38H1z"/>
                <path fill="#475059" fill-rule="nonzero" d="M108.782 21.715c1.025 0 1.781-.824 1.781-1.866 0-1.025-.756-1.849-1.781-1.849-1.026 0-1.782.824-1.782 1.849 0 1.042.756 1.866 1.782 1.866zm6.42 0c1.026 0 1.782-.824 1.782-1.866 0-1.025-.756-1.849-1.782-1.849-1.025 0-1.781.824-1.781 1.849 0 1.042.756 1.866 1.781 1.866zm6.421 0c1.026 0 1.782-.824 1.782-1.866 0-1.025-.756-1.849-1.782-1.849-1.025 0-1.781.824-1.781 1.849 0 1.042.756 1.866 1.781 1.866z"/>
                <path fill="#FF7000" fill-rule="nonzero" d="M155 .15H1C.53.15.15.53.15 1v37c0 .47.38.85.85.85h154c.47 0 .85-.38.85-.85V1c0-.47-.38-.85-.85-.85zm-.851 1.7v35.299H1.85V1.85h152.299z"/>
                <circle cx="147" cy="29" r="18" fill="#FF7000"/>
                <path fill="#FFF" d="M155.249 23.75c.415 0 .75.338.75.751V37.25c0 .415-.332.751-.75.751h-10.498c-.415 0-.751-.338-.751-.75V24.5c0-.414.334-.751.75-.751h10.499zm-.749 1.5h-9V36.5h9V25.25zM149.25 20c.414 0 .75.334.75.749V23h-1.5v-1.5h-9v12h3.75V35h-4.5c-.414 0-.75-.334-.75-.749V20.749c0-.414.333-.749.75-.749h10.5z"/>
                <path fill="#475059" fill-rule="nonzero" d="M16.672 26.97v-5.123c.481-.146.963-.292 1.43-.438l-.277-1.869-1.153.307v-2h.802c-.175.262-.365.51-.554.73.438.262 1.255.861 1.59 1.182.541-.686 1.037-1.547 1.46-2.525h.439c-.643 2.014-1.708 4.014-3.095 5.11.555.291 1.226.787 1.62 1.182 1.431-1.387 2.599-3.957 3.212-6.292h.394c-.73 3.299-2.131 6.467-4.438 8.116.584.292 1.314.818 1.708 1.227 1.986-1.68 3.343-4.686 4.146-7.781-.175 3.81-.394 5.343-.686 5.737-.175.219-.306.292-.51.292h-.167c-.272-.002-.637-.01-1.031-.059.321.584.54 1.475.584 2.073.642.015 1.24.015 1.664-.087.511-.117.847-.307 1.212-.861.54-.745.774-3.198 1.022-9.694.014-.248.029-.92.029-.92h-5.387c.175-.584.336-1.197.467-1.81l-1.912-.365c-.307 1.577-.818 3.139-1.518 4.35v-1.62h-1.051v-2.73H14.73v2.73h-.409c.073-.54.132-1.08.175-1.606l-1.751-.292c-.103 1.694-.322 3.504-.745 4.643.409.219 1.153.7 1.474.963.19-.482.35-1.05.497-1.693h.759v2.525c-.964.248-1.84.467-2.555.613l.497 2.03c.627-.176 1.328-.38 2.058-.599v4.555h1.942zm13.693-.014V16.883c.555-1.007 1.036-2.073 1.416-3.095l-2-.627c-.7 2.014-1.912 4.029-3.168 5.299.35.525.92 1.708 1.11 2.233.204-.219.423-.467.627-.73v6.993h2.015zm6.671 0v-4.832h3.636v-2.073h-3.636V17.92h2.906v-2.073h-2.906v-2.555h-2.145v2.555h-.789c.146-.497.263-.993.365-1.475l-2.044-.423c-.32 1.723-.934 3.577-1.693 4.686.51.219 1.43.7 1.854 1.007.277-.481.555-1.065.817-1.722h1.49v2.131h-3.825v2.073h3.825v4.832h2.145zm17.212.015v-6.832h-4.817c1.328-1.373 2.394-3.022 3.095-4.95l-1.475-.773-.35.102h-2.862c.234-.336.468-.686.672-1.05L46.13 13c-.86 1.635-2.438 3.358-4.86 4.613.48.365 1.182 1.153 1.488 1.679.526-.321 1.007-.642 1.475-.993.671.555 1.445 1.212 1.97 1.781-1.445 1.051-3.138 1.869-4.934 2.394.438.438.978 1.314 1.24 1.898 1.052-.365 2.06-.788 3.008-1.314v3.898h2.132v-.555h4.394v.57h2.204zm-6.321-8.365c-.584-.555-1.401-1.183-2.088-1.679.176-.175.35-.35.526-.54h3.24c-.452.803-1.021 1.547-1.678 2.219zm4.117 5.883H47.65v-2.438h4.394v2.438zm10.905-2.409c1.124 0 2.044-.92 2.044-2.044s-.92-2.043-2.044-2.043-2.044.92-2.044 2.043c0 1.125.92 2.044 2.044 2.044zm21.591 4.453v-2.015h-3.606v-2.467h2.993v-2h-2.993v-2.16h3.387v-2.015h-3.226l.642-.715c-.759-.657-2.306-1.548-3.372-2.088l-1.401 1.518c.627.35 1.372.832 2.029 1.285h-3.62v2.015h3.4v2.16H75.84v2h2.935v2.467h-3.708v2.015h9.474zm-10.087.394V16.489c.496-.89.934-1.825 1.299-2.715l-1.971-.643c-.76 2.015-2.073 4.03-3.416 5.3.35.525.905 1.693 1.08 2.204.336-.336.672-.7.993-1.11v7.402h2.015zm23.503.058V20.08h1.139v-2.044h-4.438v-1.65c1.518-.379 3.124-.904 4.452-1.561l-1.854-1.591c-.817.51-2.029 1.021-3.284 1.416l-1.387-.322v4.146c0 2.146-.19 5.037-2.234 7.052.497.248 1.285.978 1.562 1.43 1.927-1.868 2.526-4.628 2.687-6.876h1.255v6.905h2.102zm-5.81-11.299v-1.912h-6.584v1.912h6.584zM86.642 27c.876-1.387 1.197-3.43 1.314-5.226h3.927v-5.227h-5.898v3.606c0 1.694-.073 4-1.007 5.577.438.234 1.329.905 1.664 1.27zm3.197-7.11H88v-1.46h1.84v1.46z"/>
            </g>
        </g>
        <path fill="#FF7000" d="M139.22 56.829l.639-1.071.237 1.224c.006.03.146.763.146 1.926 0 2.562-.69 7.435-5.29 11.259-.122.114-2.981 2.72-9.056 2.675v6.4l-10.654-10.706 10.654-10.706v6.491c1.655.26 8.42.746 13.324-7.492"/>
        <path fill="#97A099" d="M47 57v1.42h.71c.8 0 1.42.622 1.42 1.42v6.393H47v1.42h2.13v6.392c0 .8-.62 1.42-1.42 1.42H47v1.421h.71c.85 0 1.609-.388 2.13-.986.523.598 1.281.986 2.132.986h.71v-1.42h-.71c-.8 0-1.42-.622-1.42-1.42v-6.393h2.13v-1.42h-2.13v-6.392c0-.8.62-1.42 1.42-1.42h.71V57h-.71c-.85 0-1.61.388-2.131.986-.522-.598-1.28-.986-2.13-.986H47zM71.206 72.928c-.028-.42-.056-1.162-.056-1.652v-7.252c0-.406.028-.966.042-1.288-.208.012-.684.025-1.072.027l-7.202.001c-.49 0-1.218-.028-1.736-.084v1.946c.392-.028 1.148-.056 1.736-.056h6.286v5.796H62.75c-.63 0-1.26-.042-1.75-.084v2.002c.462-.042 1.26-.084 1.806-.084h6.384c0 .266 0 .504-.014.728h2.03zm7.81.294c1.54 0 3.668-.098 4.984-.294v-2.044c-1.148.308-3.416.49-4.872.49-.63 0-1.204-.028-1.624-.084-.63-.126-.91-.28-.91-.882v-2.59c1.82-.448 4.074-1.148 5.488-1.708.462-.168 1.092-.434 1.638-.658l-.574-1.358c.252.168.56.266.896.266.924 0 1.68-.756 1.68-1.68 0-.924-.756-1.68-1.68-1.68-.924 0-1.666.756-1.666 1.68 0 .42.154.812.406 1.106-.476.28-.896.476-1.344.644-1.246.532-3.192 1.148-4.844 1.554v-2.646c0-.392.042-1.022.112-1.456h-2.072c.07.434.112 1.148.112 1.456v7.63c0 1.204.7 1.876 1.918 2.086.602.098 1.442.168 2.352.168zm5.026-9.73c-.434 0-.798-.364-.798-.812 0-.448.364-.812.798-.812.448 0 .812.364.812.812 0 .448-.364.812-.812.812zm12.737 2.506c1.008 0 1.82-.798 1.82-1.82 0-1.008-.812-1.82-1.82-1.82-1.022 0-1.82.812-1.82 1.82 0 1.022.798 1.82 1.82 1.82zm0-.924c-.504 0-.896-.406-.896-.896s.392-.882.896-.882c.49 0 .882.392.882.882s-.392.896-.882.896zm.966 7.476l1.442-1.638c-1.316-1.176-2.492-2.422-3.388-3.388-.812-.896-1.932-2.324-2.87-3.248-1.008-.98-1.918-.882-2.884.21-.854 1.008-1.932 2.436-2.562 3.094-.42.448-.756.756-1.176 1.078l1.666 1.736c.252-.364.56-.924.882-1.372.588-.784 1.596-2.142 2.142-2.842.406-.518.672-.574 1.162-.042.658.728 1.694 2.044 2.548 3.052.882 1.05 2.03 2.422 3.038 3.36z"/>
    </g>
</svg>
