<svg xmlns="http://www.w3.org/2000/svg" width="240" height="120" viewBox="0 0 240 120">
    <g fill="none" fill-rule="evenodd">
        <path fill="#FFF" d="M0 0H240V120H0z"/>
        <g>
            <g>
                <path fill="#F7FAF8" d="M1.02 1.02H185.82000000000002V45.42H1.02z" transform="translate(13.2 4.8) translate(28.98 50.4)"/>
                <path fill="#97A099" d="M185.82 1.02v44.4H1.02V1.02h184.8zm-2.04 2.04H3.06v40.32h180.72V3.06z" transform="translate(13.2 4.8) translate(28.98 50.4)"/>
            </g>
            <g transform="translate(13.2 4.8) translate(0 10.8)">
                <path fill="#FFF1E7" d="M1.2 1.2H186V45.6H1.2z"/>
                <path fill="#475059" fill-rule="nonzero" d="M130.538 26.058c1.23 0 2.138-.989 2.138-2.24 0-1.23-.908-2.218-2.138-2.218s-2.138.988-2.138 2.219c0 1.25.908 2.239 2.138 2.239zm7.705 0c1.23 0 2.138-.989 2.138-2.24 0-1.23-.908-2.218-2.138-2.218s-2.138.988-2.138 2.219c0 1.25.908 2.239 2.138 2.239zm7.705 0c1.23 0 2.138-.989 2.138-2.24 0-1.23-.908-2.218-2.138-2.218s-2.138.988-2.138 2.219c0 1.25.908 2.239 2.138 2.239z"/>
                <path fill="#FF7000" fill-rule="nonzero" d="M186 .18H1.2C.637.18.18.637.18 1.2v44.4c0 .563.457 1.02 1.02 1.02H186c.563 0 1.02-.457 1.02-1.02V1.2c0-.563-.457-1.02-1.02-1.02zm-1.021 2.04v42.359H2.22V2.22h182.759z"/>
                <circle cx="176.4" cy="34.8" r="21.6" fill="#FF7000"/>
                <path fill="#FFF" d="M186.299 28.5c.498 0 .9.406.9.902v15.297c0 .498-.4.901-.9.901H173.7c-.498 0-.901-.406-.901-.901V29.402c0-.498.4-.902.9-.902H186.3zm-.899 1.8h-10.8v13.5h10.8V30.3zm-6.3-6.3c.497 0 .9.4.9.899V27.6h-1.8v-1.8h-10.8v14.4h4.5V42H166.5c-.498 0-.901-.401-.901-.899V24.9c0-.497.4-.899.901-.899H179.1z"/>
                <path fill="#475059" fill-rule="nonzero" d="M20.006 32.365v-6.149c.578-.175 1.156-.35 1.717-.525l-.333-2.243-1.384.368v-2.4h.963c-.21.315-.438.613-.665.876.525.315 1.506 1.034 1.91 1.419.647-.823 1.243-1.857 1.751-3.03h.526c-.771 2.417-2.05 4.817-3.714 6.13.665.351 1.471.947 1.944 1.42 1.717-1.665 3.118-4.748 3.854-7.55h.473c-.876 3.958-2.557 7.76-5.325 9.74.7.35 1.576.98 2.05 1.471 2.382-2.015 4.01-5.623 4.974-9.337-.21 4.572-.473 6.411-.823 6.884-.21.263-.368.35-.613.35h-.2c-.326-.002-.764-.012-1.237-.07.386.701.649 1.77.701 2.488.771.018 1.49.018 1.997-.105.613-.14 1.016-.368 1.454-1.033.648-.894.929-3.837 1.227-11.633.017-.297.035-1.103.035-1.103h-6.465c.21-.7.403-1.437.56-2.172l-2.294-.438c-.368 1.892-.981 3.766-1.822 5.22V19h-1.261v-3.276h-2.33v3.276h-.49c.087-.649.157-1.297.21-1.927l-2.103-.35c-.122 2.031-.385 4.204-.893 5.57.49.263 1.384.84 1.77 1.156.227-.578.42-1.261.595-2.032h.91v3.03c-1.155.299-2.206.561-3.065.736l.596 2.436c.753-.21 1.594-.456 2.47-.719v5.466h2.33zm16.432-.018V20.26c.666-1.209 1.244-2.488 1.7-3.714l-2.4-.753c-.842 2.417-2.296 4.835-3.802 6.359.42.63 1.103 2.05 1.331 2.68.245-.263.508-.56.753-.876v8.391h2.418zm8.006 0V26.55h4.362V24.06h-4.362v-2.557h3.486v-2.488h-3.486V15.95h-2.575v3.066h-.946c.175-.596.315-1.191.438-1.77l-2.453-.507c-.385 2.067-1.121 4.292-2.032 5.623.613.263 1.717.84 2.225 1.209.333-.578.665-1.279.98-2.067h1.788v2.557h-4.59v2.488h4.59v5.798h2.575zm20.654.018v-8.199h-5.781c1.594-1.646 2.873-3.626 3.714-5.938l-1.77-.929-.42.123h-3.434c.28-.403.56-.823.806-1.261l-2.855-.561c-1.034 1.962-2.926 4.03-5.834 5.536.578.438 1.42 1.384 1.787 2.014.63-.385 1.209-.77 1.77-1.19.805.665 1.734 1.453 2.364 2.136-1.734 1.262-3.766 2.243-5.92 2.873.525.526 1.173 1.577 1.488 2.278 1.261-.438 2.47-.946 3.609-1.577v4.677h2.558v-.665h5.273v.683h2.645zm-7.586-10.038c-.7-.666-1.681-1.419-2.505-2.015.21-.21.42-.42.631-.648h3.889c-.543.964-1.226 1.857-2.015 2.663zm4.94 7.06H57.18V26.46h5.273v2.926zm13.087-2.89c1.349 0 2.452-1.104 2.452-2.453 0-1.35-1.103-2.453-2.452-2.453-1.35 0-2.453 1.104-2.453 2.453 0 1.349 1.104 2.452 2.453 2.452zm25.91 5.342v-2.417H97.12v-2.96h3.591v-2.4h-3.59v-2.593h4.063V19.05h-3.871l.77-.858c-.91-.789-2.767-1.857-4.046-2.505l-1.682 1.821c.753.42 1.647.999 2.435 1.542h-4.344v2.418h4.081v2.592h-3.52v2.4h3.52v2.96h-4.45v2.418h11.37zm-12.106.473V19.787c.596-1.069 1.121-2.19 1.56-3.259l-2.366-.77c-.91 2.417-2.487 4.835-4.099 6.359.42.63 1.086 2.032 1.296 2.645.403-.403.806-.84 1.192-1.331v8.881h2.417zm28.204.07v-8.286h1.367v-2.452h-5.326v-1.98c1.822-.455 3.75-1.086 5.343-1.874l-2.224-1.91c-.981.613-2.435 1.227-3.942 1.7l-1.664-.386v4.975c0 2.576-.228 6.044-2.68 8.462.595.297 1.541 1.173 1.874 1.716 2.312-2.242 3.03-5.553 3.223-8.25h1.507v8.285h2.522zm-6.972-13.559v-2.295h-7.9v2.295h7.9zM103.971 32.4c1.05-1.664 1.436-4.117 1.576-6.272h4.713v-6.271h-7.078v4.327c0 2.032-.087 4.8-1.208 6.692.525.28 1.594 1.086 1.997 1.524zm3.836-8.531H105.6v-1.752h2.207v1.752z"/>
            </g>
        </g>
        <path fill="#FF7000" d="M167.064 68.195l.767-1.286.284 1.47c.008.035.176.915.176 2.31 0 3.075-.828 8.922-6.35 13.511-.145.137-3.576 3.263-10.865 3.21v7.68L138.29 82.244l12.785-12.847v7.79c1.985.31 10.103.895 15.988-8.991"/>
        <path fill="#97A099" d="M56.4 68.4v1.705h.852c.96 0 1.705.745 1.705 1.704v7.67H56.4v1.705h2.557v7.67c0 .96-.746 1.705-1.705 1.705H56.4v1.705h.852c1.02 0 1.93-.466 2.557-1.184.627.718 1.536 1.184 2.557 1.184h.852v-1.705h-.852c-.959 0-1.705-.746-1.705-1.704v-7.67h2.557V79.48h-2.557v-7.67c0-.96.746-1.705 1.705-1.705h.852V68.4h-.852c-1.02 0-1.93.466-2.557 1.184-.626-.718-1.536-1.184-2.557-1.184H56.4zM85.447 87.514c-.033-.504-.067-1.395-.067-1.983V76.83c0-.487.034-1.16.05-1.546-.25.015-.821.03-1.286.033h-8.642c-.588 0-1.462-.033-2.084-.1v2.335c.47-.033 1.378-.067 2.084-.067h7.543v6.955H75.3c-.756 0-1.512-.05-2.1-.1v2.402c.554-.05 1.512-.101 2.167-.101h7.661c0 .32 0 .605-.017.874h2.436zm9.372.352c1.848 0 4.401-.117 5.98-.352V85.06c-1.377.37-4.099.588-5.846.588-.756 0-1.445-.034-1.949-.101-.756-.151-1.092-.336-1.092-1.058v-3.108c2.184-.538 4.889-1.378 6.586-2.05.554-.202 1.31-.52 1.965-.79l-.688-1.63c.302.202.672.32 1.075.32 1.109 0 2.016-.907 2.016-2.016s-.907-2.016-2.016-2.016-2 .907-2 2.016c0 .504.185.974.488 1.327-.571.336-1.075.571-1.613.773-1.495.638-3.83 1.378-5.813 1.865v-3.175c0-.47.05-1.227.135-1.748H89.56c.084.521.135 1.378.135 1.748v9.156c0 1.444.84 2.25 2.301 2.503.723.117 1.73.201 2.823.201zm6.03-11.676c-.52 0-.957-.436-.957-.974s.437-.974.958-.974c.537 0 .974.436.974.974s-.437.974-.974.974zm15.286 3.008c1.21 0 2.184-.958 2.184-2.184 0-1.21-.975-2.184-2.184-2.184-1.227 0-2.184.974-2.184 2.184 0 1.226.957 2.184 2.184 2.184zm0-1.11c-.605 0-1.075-.486-1.075-1.074 0-.588.47-1.059 1.075-1.059.588 0 1.058.47 1.058 1.059 0 .588-.47 1.075-1.058 1.075zm1.16 8.972l1.73-1.966c-1.58-1.41-2.99-2.906-4.066-4.065-.975-1.075-2.319-2.789-3.444-3.898-1.21-1.176-2.302-1.058-3.46.252-1.026 1.21-2.32 2.923-3.075 3.713-.504.538-.908.907-1.412 1.294l2 2.083c.302-.437.672-1.109 1.058-1.647.706-.94 1.915-2.57 2.57-3.41.488-.622.807-.689 1.395-.05.79.873 2.033 2.452 3.057 3.662 1.059 1.26 2.436 2.906 3.646 4.032z"/>
    </g>
</svg>
