<svg width="554" height="284" viewBox="0 0 554 284" fill="none" xmlns="http://www.w3.org/2000/svg">
<rect y="26.0024" width="263" height="257" fill="#F3F3F4"/>
<rect x="291" y="155.002" width="263" height="128" fill="#38A973"/>
<g filter="url(#filter0_d)">
<path fill-rule="evenodd" clip-rule="evenodd" d="M327.542 174.697C318.862 169.896 299.84 159.397 285.273 151.365C268.612 142.181 259.144 136.437 259.752 135.884C260.282 135.399 264.494 132.789 269.112 130.084C273.728 127.377 277.744 124.792 278.037 124.339C278.854 123.068 267.73 102.649 260.75 92.6092C252.814 81.1921 247.513 75.2487 237.291 66.3055C228.476 58.5917 214.253 50.181 204.567 46.9525C196.618 44.3032 184.146 42.0611 179.818 42.5039C177.541 42.7365 176.142 42.3792 175.907 41.503C175.294 39.2169 194.879 35.3589 205.893 35.5956C227.031 36.0497 245.623 41.7069 267.774 54.423C284.564 64.061 293.723 71.1319 310.833 87.6642C316.766 93.3969 321.877 98.0173 322.193 97.9329C322.508 97.8484 326.796 95.3928 331.721 92.4759C336.647 89.5591 341.032 87.0775 341.464 86.9617C342.136 86.7816 344.21 181.901 343.559 183.025C343.431 183.246 336.223 179.499 327.542 174.697Z" fill="#38A973"/>
<path fill-rule="evenodd" clip-rule="evenodd" d="M327.542 174.697C318.862 169.896 299.84 159.397 285.273 151.365C268.612 142.181 259.144 136.437 259.752 135.884C260.282 135.399 264.494 132.789 269.112 130.084C273.728 127.377 277.744 124.792 278.037 124.339C278.854 123.068 267.73 102.649 260.75 92.6092C252.814 81.1921 247.513 75.2487 237.291 66.3055C228.476 58.5917 214.253 50.181 204.567 46.9525C196.618 44.3032 184.146 42.0611 179.818 42.5039C177.541 42.7365 176.142 42.3792 175.907 41.503C175.294 39.2169 194.879 35.3589 205.893 35.5956C227.031 36.0497 245.623 41.7069 267.774 54.423C284.564 64.061 293.723 71.1319 310.833 87.6642C316.766 93.3969 321.877 98.0173 322.193 97.9329C322.508 97.8484 326.796 95.3928 331.721 92.4759C336.647 89.5591 341.032 87.0775 341.464 86.9617C342.136 86.7816 344.21 181.901 343.559 183.025C343.431 183.246 336.223 179.499 327.542 174.697Z" stroke="white" stroke-width="6"/>
</g>
<defs>
<filter id="filter0_d" x="140.891" y="0.585449" width="237.793" height="217.449" filterUnits="userSpaceOnUse" color-interpolation-filters="sRGB">
<feFlood flood-opacity="0" result="BackgroundImageFix"/>
<feColorMatrix in="SourceAlpha" type="matrix" values="0 0 0 0 0 0 0 0 0 0 0 0 0 0 0 0 0 0 127 0"/>
<feOffset/>
<feGaussianBlur stdDeviation="16"/>
<feColorMatrix type="matrix" values="0 0 0 0 0 0 0 0 0 0 0 0 0 0 0 0 0 0 0.15 0"/>
<feBlend mode="normal" in2="BackgroundImageFix" result="effect1_dropShadow"/>
<feBlend mode="normal" in="SourceGraphic" in2="effect1_dropShadow" result="shape"/>
</filter>
</defs>
</svg>
