<svg xmlns="http://www.w3.org/2000/svg" width="314" height="80" viewBox="0 0 314 80">
    <g fill="none" transform="translate(0 10)">
        <g fill="#E6641E">
            <path d="M1.689 1.54c-.012-.197.061-.39.201-.531.14-.14.334-.214.532-.202h18.557c10.558 0 15.549 5.288 15.549 13.29.31 4.358-1.956 8.495-5.794 10.574v.147c4.284 2.054 6.915 6.485 6.671 11.234 0 9.91-6.233 14.683-17.162 14.683H2.42c-.198.012-.391-.062-.531-.203-.14-.14-.214-.335-.202-.533L1.69 1.541zm19.069 20.05c2.473.201 4.85-1.006 6.148-3.123 1.299-2.117 1.299-4.785 0-6.902-1.298-2.117-3.675-3.323-6.148-3.121h-9.97c-.122-.018-.245.023-.332.11-.087.087-.127.21-.11.331v12.273c-.017.122.023.245.11.332.087.087.21.128.332.11l9.97-.01zm-9.97 21.512h10.411c2.62.227 5.143-1.044 6.523-3.285 1.38-2.24 1.38-5.069 0-7.31-1.38-2.24-3.903-3.511-6.523-3.284H10.788c-.121-.018-.244.023-.33.11-.087.085-.128.208-.112.329V42.66c-.017.12.023.242.109.33.085.086.206.128.327.112h.006zM75.53 50.735c-.492.045-.947-.263-1.09-.736l-9.535-19.456h-8.58c-.122-.017-.244.024-.33.111-.086.087-.127.21-.11.33V50c.014.199-.06.393-.2.534-.14.14-.334.215-.532.202h-7.19c-.197.012-.39-.062-.53-.203-.14-.14-.214-.335-.202-.533V1.541c-.012-.198.061-.392.201-.532s.334-.214.532-.202H67.25c9.17 0 15.914 6.096 15.914 14.905.146 6.144-3.672 11.684-9.46 13.729l10.487 20.34c.146.185.168.439.056.646-.112.207-.336.327-.57.306l-8.149.002zm-.954-35.02c.054-1.997-.751-3.921-2.21-5.284-1.459-1.362-3.432-2.032-5.418-1.84H56.324c-.12-.017-.243.025-.329.111-.086.087-.127.21-.11.33v13.29c-.017.122.024.244.11.33.086.087.208.127.33.11h10.623c1.975.196 3.938-.463 5.396-1.81 1.457-1.347 2.27-3.254 2.232-5.24v.003zM93.375 1.54c-.012-.198.062-.392.203-.532.14-.14.335-.214.533-.2h7.186c.198-.013.391.06.531.2.14.141.214.335.202.533v48.458c.013.199-.06.393-.2.534-.14.14-.335.215-.533.202h-7.186c-.199.013-.393-.061-.534-.202-.14-.14-.214-.335-.202-.534V1.541zM113.676 1.54c-.013-.197.06-.39.2-.531.141-.14.335-.214.532-.202h17.824c8.581 0 14.302 3.818 16.648 11.09.817 2.495 1.245 5.211 1.245 13.876 0 8.664-.442 11.38-1.245 13.876-2.346 7.271-8.067 11.086-16.648 11.086h-17.826c-.198.012-.392-.062-.532-.203-.14-.14-.213-.335-.201-.533l.003-48.458zm9.093 41.425h7.41c5.5 0 8.872-1.835 10.351-6.31.872-3.553 1.17-7.222.883-10.869.294-3.645-.004-7.315-.883-10.865-1.465-4.481-4.838-6.32-10.352-6.32h-7.41c-.12-.016-.243.026-.33.112-.086.087-.127.21-.11.33v33.483c-.017.122.024.244.11.33.087.086.21.127.33.11zM159.032 25.77c0-7.855.292-10.636 1.319-13.73C162.917 4.114 169.373 0 178.172 0c9.314 0 15.329 4.99 17.38 10.57.171.369.047.806-.291 1.03l-6.16 2.726c-.365.138-.775-.02-.953-.368-1.799-3.899-5.763-6.332-10.05-6.169-4.283-.322-8.203 2.412-9.387 6.546-1.174 7.59-1.174 15.318 0 22.909 1.184 4.133 5.104 6.867 9.388 6.545 4.192.272 8.055-2.276 9.46-6.24.614-2.097.89-4.28.818-6.464.018-.121-.023-.244-.11-.33-.087-.087-.21-.127-.331-.109h-8.214c-.198.012-.391-.061-.531-.201s-.214-.334-.202-.532v-5.905c-.012-.198.06-.392.2-.533.141-.14.335-.213.533-.2h16.503c.198-.013.391.06.53.201.14.14.213.334.2.532v4.331c.102 3.683-.293 7.362-1.174 10.94-2.33 7.67-9.606 12.742-17.6 12.272-8.8 0-15.256-4.113-17.822-12.044-1.035-3.09-1.327-5.872-1.327-13.737zM207.026 1.54c-.012-.197.062-.39.202-.531.14-.14.333-.214.531-.202h31.243c.198-.012.392.062.532.202s.213.334.201.532v6.316c.012.198-.061.392-.201.531-.14.14-.334.213-.532.2H216.12c-.12-.016-.243.025-.33.112-.086.086-.127.209-.11.33v12.19c-.019.122.022.245.11.332.086.086.21.127.33.108h19.287c.199-.012.393.062.534.202.14.141.214.336.202.534v6.314c.012.199-.062.393-.202.533-.141.14-.335.214-.534.2H216.12c-.121-.017-.244.024-.33.11-.088.088-.128.21-.11.332v12.628c-.019.121.022.244.11.33.086.087.21.127.33.109h22.883c.199-.012.393.061.533.202.14.141.213.336.2.534V50c.013.199-.06.393-.2.534-.14.14-.334.215-.533.202H207.76c-.198.012-.391-.062-.531-.203-.14-.14-.214-.335-.202-.533V1.541z" transform="translate(71.865 4.65)"/>
        </g>
        <ellipse cx="29.966" cy="30" fill="#E6641E" rx="29.966" ry="30"/>
        <g fill="#FFF" stroke="#FFF" stroke-width=".3">
            <path d="M27.775 19.705H9.548c-.21 0-.403-.112-.508-.294-.104-.182-.104-.406.001-.587l9.113-15.819c.104-.18.297-.292.506-.292.21 0 .402.112.507.292l9.115 15.819c.105.181.106.405.001.587-.104.182-.298.294-.508.294h0zm-17.214-1.173H26.76L18.66 4.486l-8.099 14.046z" transform="translate(6.737 18.783)"/>
            <path d="M27.767 19.705h0c-.21 0-.402-.113-.507-.295L18.148 3.592c-.105-.182-.105-.406 0-.587.104-.182.297-.294.507-.294h18.23c.21 0 .403.112.508.294.104.181.104.405-.001.587L28.274 19.41c-.104.182-.298.294-.507.295zM19.668 3.886l8.1 14.046 8.1-14.046h-16.2z" transform="translate(6.737 18.783)"/>
            <path d="M46.04 19.705H27.814c-.21 0-.403-.112-.507-.294-.105-.182-.105-.406 0-.587L36.42 3.005c.104-.182.298-.294.508-.294.21 0 .404.112.508.294l9.112 15.819c.106.181.106.405.001.587-.104.182-.298.294-.507.294h0zm-17.21-1.173h16.197L36.928 4.486 28.83 18.532zM18.816 19.705H.588c-.21 0-.403-.112-.507-.294-.105-.182-.105-.406 0-.587L9.198 3.005c.104-.18.298-.292.506-.292.21 0 .402.112.507.292l9.115 15.819c.105.181.106.405.001.587-.104.182-.298.294-.508.294h-.002zM1.602 18.532H17.8L9.7 4.486 1.603 18.532z" transform="translate(6.737 18.783)"/>
            <path d="M18.818 19.705c-.209 0-.402-.113-.506-.295L9.197 3.592c-.106-.182-.106-.406-.001-.587.104-.182.298-.294.507-.294h18.23c.21 0 .404.112.508.294.105.181.104.405-.001.587L19.325 19.41c-.104.182-.297.294-.507.295zM10.717 3.886l8.101 14.046 8.1-14.046H10.716z" transform="translate(6.737 18.783)"/>
            <path d="M37.06 19.705H18.831c-.21 0-.403-.112-.508-.294-.104-.182-.104-.406.001-.587L27.44 3.005c.104-.181.298-.294.507-.294h0c.21 0 .402.113.507.294l9.112 15.819c.105.181.106.405.001.587-.105.182-.298.294-.508.294h0zm-17.215-1.173h16.2L27.948 4.486l-8.102 14.046z" transform="translate(6.737 18.783)"/>
        </g>
    </g>
</svg>
