<svg xmlns="http://www.w3.org/2000/svg" width="324" height="80" viewBox="0 0 324 80">
    <g fill="#163D9A" fill-rule="evenodd">
        <path d="M157.96 2.45c10.24.077 20.483.037 30.724.116 3.764.029 6.809 1.806 9.484 4.34 1.725 1.634 2.535 3.718 3.024 5.937.336 1.522.689 3.109.6 4.641-.211 3.614-1.258 6.922-4.428 9.177-1.027.73-.923 1.272.156 2.018 3.471 2.398 5.622 5.577 5.683 9.92.03 2.041.103 4.094-.062 6.126-.168 2.068-1.162 3.868-2.26 5.626-1.727 2.763-4.329 4.449-7.105 5.87-1.243.637-2.702.9-4.093 1.194-1.74.368-3.511.825-5.272.842-9.012.084-18.026.04-27.039.035-.266 0-.534-.047-1.026-.095v-1.583c0-17.49.014-34.98-.029-52.47-.003-1.288.295-1.704 1.643-1.694zm19.972 32.527c-.73 0-1.352.018-1.922.022h-.337c-.331-.003-.649-.012-.966-.036-.053-.005-.104-.008-.155-.01l-.146-.002c-.95.006-1.334.46-1.316 1.55.053 3.088.059 6.177-.003 9.264-.021 1.06.368 1.451 1.246 1.464l.142-.001.151-.007c2.794-.183 5.6-.24 8.382-.52 1.394-.142 2.682-.792 3.342-2.177l-.103.2c.036-.064.07-.131.103-.2.323-.675.477-1.43.784-2.113l.07-.174.061-.183c.241-.813.205-1.872-.042-2.864l-.06-.228c-.28-.979-.766-1.867-1.392-2.35-.154-.119-.34-.2-.524-.28l-.184-.078c-1.186-.522-2.399-.89-3.594-1.103-1.213-.217-2.407-.274-3.537-.174zm-4.824-21.616c0 3.256.033 6.335-.02 9.412-.016.961.319 1.279 1.25 1.262l1.602-.018h1.603c1.068.003 2.137.01 3.206.01h.212c2.82-.034 5.194-.765 5.834-4.32.566-3.146-.877-5.87-4.096-6.265-.948-.116-1.905-.168-2.871-.185l-.728-.007c-1.945-.001-3.935.111-5.992.111zM64.144 2.453c9.29.082 18.58.021 27.87.166 2.759.042 5.398.952 7.827 2.348.889.51 1.893.846 2.717 1.437 3.016 2.158 5.376 4.821 6.12 8.595.463 2.348 1.146 4.697 1.218 7.062.056 1.87-.532 3.806-1.088 5.636-.472 1.551-1.078 3.167-2.04 4.44-1.285 1.7-2.844 3.26-4.527 4.573-1.414 1.104-1.6 1.112-.385 2.453 1.777 1.961 2.928 4.29 4.097 6.64 1.619 3.256 3.48 6.393 5.182 9.609.446.842.691 1.79 1.102 2.884h-4.43c-3.917 0-7.839-.109-11.748.054-1.542.064-2.26-.627-2.836-1.764l-1.699-3.345c-1.13-2.23-2.249-4.466-3.3-6.733-.621-1.34-1.152-2.616-2.3-3.666-1.903-1.74-4.093-1.526-6.491-1.372-.024.493-.067.973-.068 1.453-.005 4.636-.032 9.272.019 13.908.012 1.088-.238 1.509-1.426 1.492-4.643-.066-9.29-.025-13.935-.03-.402 0-.803-.038-1.342-.066-.025-.541-.068-1.022-.068-1.503-.004-17.544.008-35.089-.028-52.634-.003-1.206.264-1.648 1.559-1.637zm15.2 14.724c.07 1.63.019 3.264.02 4.897 0 1.723.031 3.446-.012 5.168-.024.898.222 1.378 1.14 1.398h.16c1.062-.034 2.139.046 3.202.053l.53-.003c.53-.012 1.055-.05 1.572-.136 1.762-.297 3.593-.836 5.115-1.738 2.196-1.301 2.272-3.643 2.175-5.978-.08-1.933-1.795-4.474-4.146-4.72-2.73-.286-5.481-.347-8.22-.547l-.162-.009h-.152c-.975.023-1.266.572-1.222 1.615zM264.57 46.76c-.197 1.435-.365 2.664-.538 3.892-.026.18-.092.353-.116.532-.282 2.088-.53 4.182-.866 6.262-.052.322-.457.782-.761.837-1.857.34-3.735.572-5.602.86-1.01.157-2.032.572-3.018.495-3.196-.25-6.308-.808-8.561-3.48-.234-.278-.977-.397-1.344-.247-1.857.76-3.663 1.641-5.495 2.465-3.63 1.632-7.485 1.425-11.314 1.32-2.862-.079-5.411-1.177-7.919-2.486-3.232-1.686-5.14-4.444-6.344-7.69-1.43-3.856-1.333-7.99-.728-11.9.636-4.105 1.412-8.183 1.815-12.331.268-2.753.87-5.473 1.328-8.207.449-2.684.897-5.369 1.36-8.05.327-1.891.641-3.786 1.058-5.658.077-.347.61-.844.936-.848 4.872-.048 9.744-.026 14.617-.012.123 0 .244.097.44.18-.362 2.522-.664 5.051-1.094 7.559-.56 3.255-1.239 6.49-1.83 9.74-.231 1.273-.356 2.565-.542 3.846-.266 1.82-.517 3.643-.822 5.457-.4 2.373-.975 4.724-1.229 7.11-.192 1.797-.392 3.577.355 5.45.69 1.732 1.55 3.174 3.181 3.87 1.83.778 3.73 1.146 5.867.673 1.724-.382 3.404-.649 4.927-1.597 1.5-.936 2.644-1.96 2.778-3.97.148-2.209.717-4.388 1.098-6.582.261-1.507.56-3.01.76-4.525.257-1.957.364-3.934.658-5.885.3-1.988.746-3.954 1.13-5.93.036-.176.108-.348.132-.526.288-2.13.535-4.266.866-6.388.267-1.712.636-3.408.955-5.112.05-.268.093-.538.119-.809.245-2.595.244-2.596 2.936-2.596 3.87 0 7.741-.003 11.613.004.533.001 1.067.054 1.913.099-.227 1.005-.414 1.85-.613 2.693-.063.264-.195.516-.229.782-.248 1.955-.42 3.922-.733 5.866-.31 1.93-.757 3.838-1.143 5.756-.036.178-.095.353-.113.532-.21 2.055-.335 4.122-.642 6.162-.284 1.893-.759 3.757-1.15 5.633-.02.089-.068.172-.081.26-.296 2.026-.576 4.055-.887 6.079-.32 2.08-.713 4.15-.99 6.237-.133.983-.224 2.022-.034 2.976.094.47.812.993 1.35 1.154.665.2 1.435.048 2.547.048M137.236 58.209h-15.961c.21-1.042.432-1.97.58-2.91.401-2.56.763-5.127 1.16-7.689.213-1.37.48-2.734.696-4.106.31-1.969.592-3.943.897-5.914.308-1.99.629-3.978.946-5.967.028-.18.073-.356.096-.536.283-2.218.484-4.45.864-6.652.545-3.16 1.245-6.293 1.829-9.448.253-1.362.386-2.748.564-4.124.282-2.187.618-4.368.81-6.562.112-1.287.606-1.853 1.945-1.838 4.28.047 8.56.038 12.84.002.971-.008 1.484.23 1.31 1.3-.382 2.335-.737 4.673-1.118 7.007-.217 1.321-.492 2.633-.688 3.957-.326 2.214-.58 4.438-.921 6.65-.285 1.845-.666 3.676-.975 5.52-.238 1.411-.444 2.828-.639 4.246-.301 2.186-.528 4.383-.888 6.558-.303 1.834-.75 3.643-1.134 5.463-.047.22-.12.44-.142.662-.215 2.106-.34 4.225-.653 6.316-.281 1.875-.791 3.716-1.151 5.581-.152.79-.177 1.603-.267 2.484M33.756 58.296c-4.248 0-8.25.02-12.251-.01-1.3-.01-3.018.315-3.77-.365-.661-.596-.285-2.387-.287-3.651-.012-11.907-.006-23.815-.008-35.723 0-2.384-.082-2.463-2.448-2.464H.16c-.052-.437-.129-.782-.13-1.127C.021 11.23.06 7.502 0 3.776c-.016-1.04.337-1.313 1.33-1.312 16.212.024 32.424.018 48.636.012.744 0 1.304.024 1.292 1.057-.05 3.954-.023 7.908-.03 11.862 0 .173-.057.345-.118.688h-1.616c-4.69 0-9.382.043-14.07-.026-1.332-.02-1.697.419-1.692 1.715.04 12.907.024 25.815.024 38.722v1.802zM322.781 3.134l-1.753 13.423c-1.767-.55-3.52-1.124-5.292-1.634-1.073-.309-2.162-.653-3.264-.75-3.592-.315-7.193-.714-10.788-.69-1.659.01-3.441.683-4.936 1.485-2.583 1.388-2.214 4.18.723 5.72 1.955 1.025 3.982 1.846 6.253 2.143 1.726.226 3.381 1.025 5.055 1.609 1.045.364 2.054.832 3.097 1.203 2.351.836 4.138 2.505 5.759 4.248 1.01 1.087 1.61 2.62 2.175 4.041 1.243 3.137.98 6.506.51 9.659-.723 4.875-3.014 9.014-7.448 11.79-2.326 1.457-4.842 2.182-7.385 3.01-6.272 2.044-12.717 1.237-19.1 1.22-1.786-.003-3.577-.734-5.353-1.178-1.86-.462-3.71-.963-5.553-1.482-.654-.185-1.349-.423-.835-1.37.105-.193.158-.426.188-.647.307-2.268.6-4.537.909-6.804.192-1.419.357-2.843.641-4.243.09-.437.528-.804.749-1.12 2.915 1.11 5.739 2.312 8.651 3.24 1.522.486 3.192.612 4.805.682 2.546.11 5.111.187 7.645-.015 1.714-.138 3.426-.669 5.066-1.232 1.249-.43 2.325-2.51 2.218-3.747-.112-1.292-1.804-3.086-3.226-3.494-2.038-.585-4.056-1.24-6.097-1.813-1.886-.53-3.855-.83-5.674-1.527-2.38-.912-4.651-1.947-6.559-3.884-2.856-2.902-3.643-6.304-3.654-10.127-.008-2.847.073-5.656 1.125-8.366.971-2.502 2.501-4.624 4.596-6.214 1.751-1.329 3.679-2.545 5.712-3.354 2.133-.85 4.489-1.14 6.74-1.703 3.754-.937 7.579-.657 11.366-.517 2.296.085 4.576.723 6.854 1.16 2.011.387 4.01.84 6.08 1.278" transform="translate(0 10)"/>
    </g>
</svg>
