<svg width="40" height="41" viewBox="0 0 40 41" fill="none" xmlns="http://www.w3.org/2000/svg">
<path d="M8.28907 5.65077V34.4516C8.29002 34.7432 8.37394 35.029 8.5318 35.2783C8.68965 35.5276 8.91546 35.7309 9.18492 35.8663C9.45438 36.0018 9.75728 36.0643 10.061 36.047C10.3648 36.0297 10.6579 35.9334 10.9087 35.7684L32.6141 21.368C33.514 20.7712 33.514 19.3344 32.6141 18.7359L10.9087 4.33553C10.6584 4.16885 10.3652 4.0711 10.0609 4.05291C9.75665 4.03472 9.45301 4.09678 9.18298 4.23235C8.91295 4.36792 8.68685 4.57182 8.52925 4.82189C8.37166 5.07196 8.28859 5.35863 8.28907 5.65077Z" fill="#007E47"/>
</svg>
