<svg width="24" height="24" viewBox="0 0 24 24" fill="none" xmlns="http://www.w3.org/2000/svg">
<path fill-rule="evenodd" clip-rule="evenodd" d="M12.0699 22.5939C13.4646 22.5939 14.8457 22.3192 16.1343 21.7855C17.4228 21.2517 18.5936 20.4694 19.5799 19.4832C20.5661 18.497 21.3484 17.3262 21.8821 16.0376C22.4159 14.749 22.6906 13.368 22.6906 11.9732C22.6906 10.5785 22.4159 9.19743 21.8821 7.90887C21.3484 6.62031 20.5661 5.44949 19.5799 4.46327C18.5936 3.47704 17.4228 2.69473 16.1343 2.16099C14.8457 1.62725 13.4646 1.35254 12.0699 1.35254C9.25313 1.35254 6.55171 2.4715 4.55995 4.46327C2.56818 6.45503 1.44922 9.15645 1.44922 11.9732C1.44922 14.79 2.56818 17.4914 4.55995 19.4832C6.55171 21.475 9.25313 22.5939 12.0699 22.5939ZM11.7961 16.2687L17.6965 9.18825L15.8839 7.67775L10.8096 13.7658L8.18392 11.1389L6.51529 12.8075L10.0555 16.3478L10.9689 17.2612L11.7961 16.2687Z" fill="#007E47"/>
</svg>
