<svg width="24" height="25" viewBox="0 0 24 25" fill="none" xmlns="http://www.w3.org/2000/svg">
<path fill-rule="evenodd" clip-rule="evenodd" d="M12 23.1943C13.4445 23.1943 14.8749 22.9098 16.2095 22.357C17.5441 21.8042 18.7567 20.994 19.7782 19.9725C20.7996 18.9511 21.6099 17.7384 22.1627 16.4039C22.7155 15.0693 23 13.6389 23 12.1943C23 10.7498 22.7155 9.3194 22.1627 7.98482C21.6099 6.65024 20.7996 5.43761 19.7782 4.41616C18.7567 3.39472 17.5441 2.58446 16.2095 2.03166C14.8749 1.47886 13.4445 1.19434 12 1.19434C9.08262 1.19434 6.28473 2.35326 4.22183 4.41616C2.15893 6.47906 1 9.27695 1 12.1943C1 15.1117 2.15893 17.9096 4.22183 19.9725C6.28473 22.0354 9.08262 23.1943 12 23.1943ZM11.7164 16.6432L17.8276 9.30989L15.9502 7.74545L10.6947 14.0509L7.97522 11.3302L6.247 13.0584L9.91367 16.7251L10.8597 17.6711L11.7164 16.6432Z" fill="#FFA418"/>
</svg>
