<svg width="15" height="19" viewBox="0 0 15 19" fill="none" xmlns="http://www.w3.org/2000/svg">
<path d="M1.40563 0.252525C0.78875 -0.102475 0 0.337525 0 1.06315L0.00625014 14.0632C0.00625014 14.5107 0.24375 14.9225 0.63 15.1475L0.633125 15.1488L6.80812 18.6863L6.81188 18.6888C7.24312 18.9325 7.7725 18.9363 8.20562 18.6857H8.20687L14.3731 15.1488L14.3763 15.1469C14.5662 15.0369 14.7239 14.8789 14.8334 14.6886C14.9429 14.4984 15.0003 14.2827 15 14.0632V1.06252C15 0.337525 14.2112 -0.1031 13.5944 0.2519L7.5 3.77253L1.40625 0.25315L1.40563 0.252525ZM1.25625 14.0625L1.25 1.60627L7.5 5.21628L7.50625 17.6225C7.4785 17.6212 7.45139 17.6137 7.42688 17.6007L7.42562 17.6L1.25688 14.0663L1.25625 14.0625Z" fill="white"/>
</svg>
